<svg width="1920" height="1080" viewBox="0 0 1920 1080" fill="none" xmlns="http://www.w3.org/2000/svg">
<g clip-path="url(#clip0)">
<path d="M1111.34 252.671H1002.78L731.068 1000.32H839.435L1111.34 252.671Z" fill="#1E193D"/>
<path d="M2275 252.671H1868.72L1597.01 1000.32H2003.29L2275 252.671Z" fill="#1E193D"/>
<path d="M767.19 976.705C766.991 976.705 766.793 976.705 766.594 976.507C765.8 976.11 765.205 975.316 765.602 974.323L1019.45 276.289H1075.02C1076.02 276.289 1076.81 277.083 1076.81 278.075C1076.81 279.068 1076.02 279.861 1075.02 279.861H1021.63L768.777 975.713C768.579 976.308 767.983 976.705 767.19 976.705Z" fill="#DCD4BC"/>
<path d="M1111.34 252.671L933.115 742.902C898.977 836.979 818.595 913.193 753.892 913.193H636.395V1000.32H1494.6L1370.55 252.671H1111.34Z" fill="#F7F3E8"/>
<path d="M1810.97 367.587H1289.57C1189.54 367.587 1082.17 444.198 1049.62 538.871L891.038 1000.32H1593.44L1810.97 367.587Z" fill="#8CB596"/>
<path d="M1828.63 367.587C1728.6 367.587 1621.23 444.198 1588.68 538.871L1430.29 1000.32H1611.3L1828.63 367.587Z" fill="#F7F3E8"/>
<path d="M1429.89 1000.32L1588.48 538.871C1620.83 444.397 1728.2 367.587 1828.23 367.587H1790.32C1690.29 367.587 1582.92 444.198 1550.37 538.871L1391.79 1000.32H1429.89Z" fill="#DCD4BC"/>
<path d="M1258.61 1000.32L1417.19 538.871C1449.74 444.198 1557.12 367.587 1657.15 367.587H1619.24C1519.21 367.587 1411.84 444.198 1379.29 538.871L1220.7 1000.32H1258.61Z" fill="#DCD4BC"/>
<path d="M1098.44 1000.32L1257.03 538.871C1289.57 444.198 1396.95 367.587 1496.98 367.587H1459.07C1359.04 367.587 1251.67 444.198 1219.12 538.871L1060.54 1000.32H1098.44Z" fill="#DCD4BC"/>
<path d="M929.146 1000.32L1087.73 538.871C1120.28 444.198 1227.65 367.587 1327.68 367.587H1289.77C1189.74 367.587 1082.37 444.198 1049.82 538.871L891.237 1000.32H929.146Z" fill="#DCD4BC"/>
<path d="M1455.5 252.671H1370.55V367.587H1455.5V252.671Z" fill="#1E193D"/>
<path d="M1489.84 268.946H1455.5V367.588H1489.84V268.946Z" fill="#DCD4BC"/>
<path d="M1323.91 252.671H1289.57V367.587H1323.91V252.671Z" fill="#DCD4BC"/>
<path d="M1536.48 252.671H1489.84V367.587H1536.48V252.671Z" fill="#F7F3E8"/>
<path d="M1513.06 252.671H1489.84H1455.5V268.946H1489.84L1536.48 318.366V252.671H1513.06Z" fill="#1E193D"/>
<path d="M1347.33 252.671H1323.91H1096.06V268.946H1323.91L1370.55 318.366V252.671H1347.33Z" fill="#1E193D"/>
<path d="M1621.42 252.671H1536.48V367.587H1621.42V252.671Z" fill="#1E193D"/>
<path d="M1678.78 268.946H1621.23V367.588H1678.78V268.946Z" fill="#DCD4BC"/>
<path d="M1702.2 252.671H1655.56V367.587H1702.2V252.671Z" fill="#F7F3E8"/>
<path d="M1678.98 252.671H1655.56H1621.23V268.946H1655.56L1702.2 318.366V252.671H1678.98Z" fill="#1E193D"/>
<path d="M1787.15 252.671H1702.2V367.587H1787.15V252.671Z" fill="#1E193D"/>
<path d="M1932.04 268.946H1787.15V367.588H1932.04V268.946Z" fill="#DCD4BC"/>
<path d="M1844.71 252.671H1821.49H1787.15V268.946H1867.53L1868.13 252.671H1844.71Z" fill="#1E193D"/>
<path d="M1867.53 212.777H937.879L950.184 252.671H1867.53V212.777Z" fill="#DCD4BC"/>
<path d="M1261.99 212.777H1055.57L1067.88 252.671H1261.99V212.777Z" fill="#F7F3E8"/>
<path d="M996.824 268.946H1105.39L1111.34 252.671H1002.78L996.824 268.946Z" fill="#1E193D"/>
<path d="M1983.64 681.971H1844.91V1000.32H1983.64V681.971Z" fill="#F7CF4A"/>
<path d="M1852.25 681.971H1278.86V1000.32H1852.25V681.971Z" fill="#F2B120"/>
<path d="M1412.83 948.125H1313V1000.32H1412.83V948.125Z" fill="#1E193D"/>
<path d="M1340.78 1000.32H1313V948.125L1340.78 1000.32Z" fill="#EE6A23"/>
<path d="M1547.59 948.125H1447.76V1000.32H1547.59V948.125Z" fill="#1E193D"/>
<path d="M1475.35 1000.32H1447.76V948.125L1475.35 1000.32Z" fill="#EE6A23"/>
<path d="M1682.16 948.125H1582.32V1000.32H1682.16V948.125Z" fill="#1E193D"/>
<path d="M1610.11 1000.32H1582.32V948.125L1610.11 1000.32Z" fill="#EE6A23"/>
<path d="M1412.83 1002.11C1411.84 1002.11 1411.04 1001.32 1411.04 1000.32V716.109H1314.58V1000.32C1314.58 1001.32 1313.79 1002.11 1312.8 1002.11C1311.8 1002.11 1311.01 1001.32 1311.01 1000.32V712.735H1414.22V1000.32C1414.61 1001.32 1413.82 1002.11 1412.83 1002.11Z" fill="#EE6A23"/>
<path d="M1547.39 1002.11C1546.4 1002.11 1545.61 1001.32 1545.61 1000.32V716.109H1449.15V1000.32C1449.15 1001.32 1448.35 1002.11 1447.36 1002.11C1446.37 1002.11 1445.58 1001.32 1445.58 1000.32V712.734H1548.78V1000.32C1549.18 1001.32 1548.39 1002.11 1547.39 1002.11Z" fill="#EE6A23"/>
<path d="M1682.16 1002.11C1681.17 1002.11 1680.37 1001.32 1680.37 1000.32V716.109H1583.91V1000.32C1583.91 1001.32 1583.12 1002.11 1582.13 1002.11C1581.13 1002.11 1580.34 1001.32 1580.34 1000.32V712.734H1683.55V1000.32C1683.75 1001.32 1682.95 1002.11 1682.16 1002.11Z" fill="#EE6A23"/>
<path d="M1816.72 1002.11C1815.73 1002.11 1814.94 1001.32 1814.94 1000.32V716.109H1718.48V1000.32C1718.48 1001.32 1717.68 1002.11 1716.69 1002.11C1715.7 1002.11 1714.91 1001.32 1714.91 1000.32V712.734H1818.11V1000.32C1818.51 1001.32 1817.72 1002.11 1816.72 1002.11Z" fill="#EE6A23"/>
<path d="M1162.75 1000.32H1138.54L1169.1 913.194H1193.12L1162.75 1000.32Z" fill="#1E193D"/>
<path d="M1278.86 1000.32H1162.75L1193.12 913.194H1278.86V1000.32Z" fill="#F7F3E8"/>
<path d="M1984.26 999.892C1984.26 1046.67 1927.5 1084.61 1857.24 1084.61H72.7154C2.75169 1084.81 -54 1046.87 -54 999.892H1984.26Z" fill="#51A8B7"/>
<path d="M1867.53 214.564C1866.54 214.564 1865.75 213.77 1865.75 212.778V179.831H939.467V212.778C939.467 213.77 938.673 214.564 937.68 214.564C936.688 214.564 935.894 213.77 935.894 212.778V176.457H1868.92V212.778C1869.12 213.77 1868.33 214.564 1867.53 214.564Z" fill="#1E193D"/>
<path d="M995.833 214.564C994.84 214.564 994.046 213.77 994.046 212.778V178.243C994.046 177.251 994.84 176.457 995.833 176.457C996.825 176.457 997.619 177.251 997.619 178.243V212.976C997.619 213.77 996.825 214.564 995.833 214.564Z" fill="#1E193D"/>
<path d="M1053.98 214.564C1052.99 214.564 1052.2 213.77 1052.2 212.778V178.243C1052.2 177.251 1052.99 176.457 1053.98 176.457C1054.98 176.457 1055.77 177.251 1055.77 178.243V212.976C1055.77 213.77 1054.98 214.564 1053.98 214.564Z" fill="#1E193D"/>
<path d="M1112.14 214.564C1111.14 214.564 1110.35 213.77 1110.35 212.778V178.243C1110.35 177.251 1111.14 176.457 1112.14 176.457C1113.13 176.457 1113.92 177.251 1113.92 178.243V212.976C1113.92 213.77 1113.13 214.564 1112.14 214.564Z" fill="#1E193D"/>
<path d="M1170.29 214.564C1169.3 214.564 1168.51 213.77 1168.51 212.778V178.243C1168.51 177.251 1169.3 176.457 1170.29 176.457C1171.28 176.457 1172.08 177.251 1172.08 178.243V212.976C1171.88 213.77 1171.09 214.564 1170.29 214.564Z" fill="#1E193D"/>
<path d="M1228.24 214.564C1227.25 214.564 1226.46 213.77 1226.46 212.778V178.243C1226.46 177.251 1227.25 176.457 1228.24 176.457C1229.24 176.457 1230.03 177.251 1230.03 178.243V212.976C1230.03 213.77 1229.24 214.564 1228.24 214.564Z" fill="#1E193D"/>
<path d="M1286.4 214.564C1285.41 214.564 1284.61 213.77 1284.61 212.778V178.243C1284.61 177.251 1285.41 176.457 1286.4 176.457C1287.39 176.457 1288.19 177.251 1288.19 178.243V212.976C1288.19 213.77 1287.39 214.564 1286.4 214.564Z" fill="#1E193D"/>
<path d="M1344.55 214.564C1343.56 214.564 1342.77 213.77 1342.77 212.778V178.243C1342.77 177.251 1343.56 176.457 1344.55 176.457C1345.54 176.457 1346.34 177.251 1346.34 178.243V212.976C1346.14 213.77 1345.54 214.564 1344.55 214.564Z" fill="#1E193D"/>
<path d="M1402.7 214.564C1401.71 214.564 1400.92 213.77 1400.92 212.778V178.243C1400.92 177.251 1401.71 176.457 1402.7 176.457C1403.7 176.457 1404.49 177.251 1404.49 178.243V212.976C1404.29 213.77 1403.5 214.564 1402.7 214.564Z" fill="#1E193D"/>
<path d="M1460.66 214.564C1459.67 214.564 1458.87 213.77 1458.87 212.778V178.243C1458.87 177.251 1459.67 176.457 1460.66 176.457C1461.65 176.457 1462.45 177.251 1462.45 178.243V212.976C1462.45 213.77 1461.65 214.564 1460.66 214.564Z" fill="#1E193D"/>
<path d="M1518.81 214.564C1517.82 214.564 1517.03 213.77 1517.03 212.778V178.243C1517.03 177.251 1517.82 176.457 1518.81 176.457C1519.8 176.457 1520.6 177.251 1520.6 178.243V212.976C1520.6 213.77 1519.8 214.564 1518.81 214.564Z" fill="#1E193D"/>
<path d="M1576.96 214.564C1575.97 214.564 1575.18 213.77 1575.18 212.778V178.243C1575.18 177.251 1575.97 176.457 1576.96 176.457C1577.96 176.457 1578.75 177.251 1578.75 178.243V212.976C1578.55 213.77 1577.96 214.564 1576.96 214.564Z" fill="#1E193D"/>
<path d="M1635.12 214.564C1634.12 214.564 1633.33 213.77 1633.33 212.778V178.243C1633.33 177.251 1634.12 176.457 1635.12 176.457C1636.11 176.457 1636.9 177.251 1636.9 178.243V212.976C1636.71 213.77 1635.91 214.564 1635.12 214.564Z" fill="#1E193D"/>
<path d="M1693.07 214.564C1692.08 214.564 1691.29 213.77 1691.29 212.778V178.243C1691.29 177.251 1692.08 176.457 1693.07 176.457C1694.06 176.457 1694.86 177.251 1694.86 178.243V212.976C1694.86 213.77 1694.06 214.564 1693.07 214.564Z" fill="#1E193D"/>
<path d="M1751.22 214.564C1750.23 214.564 1749.44 213.77 1749.44 212.778V178.243C1749.44 177.251 1750.23 176.457 1751.22 176.457C1752.22 176.457 1753.01 177.251 1753.01 178.243V212.976C1753.01 213.77 1752.22 214.564 1751.22 214.564Z" fill="#1E193D"/>
<path d="M1809.38 214.564C1808.39 214.564 1807.59 213.77 1807.59 212.778V178.243C1807.59 177.251 1808.39 176.457 1809.38 176.457C1810.37 176.457 1811.17 177.251 1811.17 178.243V212.976C1810.97 213.77 1810.37 214.564 1809.38 214.564Z" fill="#1E193D"/>
<path d="M1915.14 1033.49C1883.42 1033.49 1853.98 1024.95 1833.27 1010.07C1812.88 1024.95 1783.43 1033.49 1751.39 1033.49C1719.68 1033.49 1690.23 1024.95 1669.52 1010.07C1649.13 1024.95 1619.69 1033.49 1587.65 1033.49C1555.94 1033.49 1526.16 1024.95 1505.78 1010.07C1485.39 1024.95 1455.94 1033.49 1423.91 1033.49C1392.19 1033.49 1362.42 1024.95 1342.03 1010.07C1321.65 1024.95 1292.2 1033.49 1260.16 1033.49C1228.45 1033.49 1199 1024.95 1178.29 1010.07C1157.9 1024.95 1128.45 1033.49 1096.42 1033.49C1064.7 1033.49 1034.93 1024.95 1014.54 1010.07C994.157 1024.95 964.709 1033.49 932.672 1033.49C900.959 1033.49 871.187 1024.95 850.8 1010.07C830.413 1024.95 800.965 1033.49 768.928 1033.49C737.215 1033.49 707.767 1024.95 687.056 1010.07C666.669 1024.95 637.221 1033.49 605.184 1033.49C573.47 1033.49 543.699 1024.95 523.312 1010.07C502.925 1024.95 473.477 1033.49 441.44 1033.49C409.726 1033.49 379.955 1024.95 359.567 1010.07C339.18 1024.95 309.732 1033.49 277.695 1033.49C245.982 1033.49 216.21 1024.95 195.823 1010.07C175.436 1024.95 145.988 1033.49 113.951 1033.49C82.2378 1033.49 52.4661 1024.95 32.079 1010.07C11.6919 1024.95 -17.7562 1033.49 -49.7931 1033.49C-52.0584 1033.49 -54 1032.3 -54 1030.91C-54 1029.52 -52.0584 1028.33 -49.7931 1028.33C-18.727 1028.33 9.75022 1019.59 28.8429 1004.51L32.079 1001.93L35.315 1004.51C54.0841 1019.59 82.885 1028.33 113.951 1028.33C145.017 1028.33 173.494 1019.59 192.264 1004.51L195.5 1001.93L198.736 1004.51C217.505 1019.59 246.306 1028.33 277.048 1028.33C308.114 1028.33 336.591 1019.59 355.361 1004.51L358.597 1001.93L361.833 1004.51C380.925 1019.59 409.403 1028.33 440.469 1028.33C471.535 1028.33 500.012 1019.59 518.781 1004.51L522.017 1001.93L525.253 1004.51C544.346 1019.59 572.823 1028.33 603.889 1028.33C634.955 1028.33 663.433 1019.59 682.202 1004.51L685.438 1001.93L688.674 1004.51C707.443 1019.59 736.244 1028.33 767.31 1028.33C798.376 1028.33 826.853 1019.59 845.622 1004.51L848.859 1001.93L852.095 1004.51C871.187 1019.59 899.664 1028.33 930.731 1028.33C961.797 1028.33 990.274 1019.59 1009.04 1004.51L1012.28 1001.93L1015.52 1004.51C1034.28 1019.59 1063.09 1028.33 1094.15 1028.33C1125.22 1028.33 1153.69 1019.59 1172.46 1004.51L1175.7 1001.93L1178.94 1004.51C1197.7 1019.59 1226.51 1028.33 1257.25 1028.33C1288.31 1028.33 1316.79 1019.59 1335.56 1004.51L1338.8 1001.93L1342.03 1004.51C1361.13 1019.59 1389.6 1028.33 1420.67 1028.33C1451.74 1028.33 1480.21 1019.59 1499.3 1004.51L1502.54 1001.93L1505.78 1004.51C1524.55 1019.59 1553.35 1028.33 1584.41 1028.33C1615.48 1028.33 1643.96 1019.59 1662.73 1004.51L1665.96 1001.93L1669.2 1004.51C1688.29 1019.59 1716.77 1028.33 1747.83 1028.33C1778.9 1028.33 1807.38 1019.59 1826.15 1004.51L1829.38 1001.93L1832.62 1004.51C1851.71 1019.59 1880.19 1028.33 1911.25 1028.33C1913.52 1028.33 1915.46 1029.52 1915.46 1030.91C1915.46 1032.3 1917.4 1033.49 1915.14 1033.49Z" fill="#F7F3E8"/>
<path d="M1654.17 760.368C1654.17 773.467 1643.65 783.986 1630.55 783.986C1617.45 783.986 1606.94 773.467 1606.94 760.368C1606.94 747.467 1617.45 736.75 1630.55 736.75C1643.65 736.75 1654.17 747.269 1654.17 760.368Z" fill="#F7F3E8"/>
<path d="M1519.61 760.368C1519.61 773.467 1509.09 783.986 1495.99 783.986C1482.89 783.986 1472.37 773.467 1472.37 760.368C1472.37 747.467 1482.89 736.75 1495.99 736.75C1508.89 736.75 1519.61 747.269 1519.61 760.368Z" fill="#F7F3E8"/>
<path d="M1384.84 760.368C1384.84 773.467 1374.32 783.986 1361.22 783.986C1348.12 783.986 1337.6 773.467 1337.6 760.368C1337.6 747.467 1348.12 736.75 1361.22 736.75C1374.32 736.75 1384.84 747.269 1384.84 760.368Z" fill="#F7F3E8"/>
<path d="M1659.13 456.703H1652.19V681.971H1659.13V456.703Z" fill="#177D8F"/>
<path d="M1467.81 456.706H1460.86V681.974H1467.81V456.706Z" fill="#177D8F"/>
<path d="M1655.56 486.474H1464.23V493.421H1655.56V486.474Z" fill="#177D8F"/>
<path d="M1655.56 546.81H1464.23V553.757H1655.56V546.81Z" fill="#177D8F"/>
<path d="M1563.47 456.703H1556.52V489.848H1563.47V456.703Z" fill="#177D8F"/>
<path d="M1563.47 517.238H1556.52V550.383H1563.47V517.238Z" fill="#177D8F"/>
<path d="M1745.87 456.704H1738.92V681.972H1745.87V456.704Z" fill="#177D8F"/>
<path d="M1933.62 486.474H1742.29V493.42H1933.62V486.474Z" fill="#177D8F"/>
<path d="M1933.62 546.81H1742.29V553.756H1933.62V546.81Z" fill="#177D8F"/>
<path d="M1841.53 456.703H1834.59V489.848H1841.53V456.703Z" fill="#177D8F"/>
<path d="M1841.53 517.237H1834.59V550.383H1841.53V517.237Z" fill="#177D8F"/>
<path d="M1365.99 681.97V631.36C1365.99 618.26 1376.51 607.741 1389.6 607.741C1402.51 607.741 1413.22 618.26 1413.22 631.36V681.97H1365.99Z" fill="#BF304A"/>
<path d="M1500.35 681.971V631.36C1500.35 618.261 1510.87 607.741 1523.97 607.741C1537.07 607.741 1547.59 618.261 1547.59 631.36V681.971H1500.35Z" fill="#BF304A"/>
<path d="M1635.12 681.971V631.36C1635.12 618.261 1645.64 607.741 1658.74 607.741C1671.83 607.741 1682.35 618.261 1682.35 631.36V681.971H1635.12Z" fill="#BF304A"/>
<path d="M1357.65 762.948C1339.19 762.948 1324.31 748.063 1324.31 729.605V698.841C1324.31 680.383 1339.19 665.497 1357.65 665.497H1377.5C1378.89 665.497 1380.08 666.688 1380.08 668.077C1380.08 669.467 1378.89 670.658 1377.5 670.658H1357.65C1341.97 670.658 1329.47 683.36 1329.47 698.841V729.605C1329.47 745.284 1342.17 757.788 1357.65 757.788C1359.04 757.788 1360.23 758.979 1360.23 760.368C1360.23 761.757 1359.24 762.948 1357.65 762.948Z" fill="#1E193D"/>
<path d="M1494.2 762.948C1475.74 762.948 1460.86 748.063 1460.86 729.605V698.841C1460.86 680.383 1475.74 665.497 1494.2 665.497H1514.05C1515.44 665.497 1516.63 666.688 1516.63 668.077C1516.63 669.467 1515.44 670.658 1514.05 670.658H1494.2C1478.72 670.658 1466.02 683.36 1466.02 698.841V729.605C1466.02 745.284 1478.72 757.788 1494.2 757.788C1495.59 757.788 1496.78 758.979 1496.78 760.368C1496.78 761.757 1495.59 762.948 1494.2 762.948Z" fill="#1E193D"/>
<path d="M1629.76 762.948C1611.3 762.948 1596.42 748.063 1596.42 729.605V698.841C1596.42 680.383 1611.3 665.497 1629.76 665.497H1649.61C1651 665.497 1652.19 666.688 1652.19 668.077C1652.19 669.467 1651 670.658 1649.61 670.658H1629.76C1614.08 670.658 1601.58 683.36 1601.58 698.841V729.605C1601.58 745.284 1614.28 757.788 1629.76 757.788C1631.15 757.788 1632.34 758.979 1632.34 760.368C1632.34 761.757 1631.15 762.948 1629.76 762.948Z" fill="#1E193D"/>
<path d="M1376.7 620.445C1375.71 620.445 1374.92 619.85 1374.52 619.056L1358.05 573.804C1357.65 572.613 1358.25 571.422 1359.44 570.827C1360.63 570.43 1361.82 571.025 1362.41 572.216L1378.89 617.468C1379.28 618.659 1378.69 619.85 1377.5 620.445C1377.3 620.445 1376.9 620.445 1376.7 620.445Z" fill="#1E193D"/>
<path d="M1402.31 620.444C1402.11 620.444 1401.71 620.444 1401.51 620.245C1400.32 619.848 1399.73 618.459 1400.12 617.268L1416.6 572.016C1417 570.825 1418.38 570.23 1419.58 570.627C1420.77 571.024 1421.36 572.413 1420.96 573.604L1404.49 618.856C1404.09 619.848 1403.1 620.444 1402.31 620.444Z" fill="#1E193D"/>
<path d="M1511.27 620.445C1510.28 620.445 1509.48 619.85 1509.09 619.056L1492.61 573.804C1492.22 572.613 1492.81 571.422 1494 570.826C1495.19 570.429 1496.38 571.025 1496.98 572.216L1513.45 617.468C1513.85 618.659 1513.25 619.85 1512.06 620.445C1511.67 620.445 1511.47 620.445 1511.27 620.445Z" fill="#1E193D"/>
<path d="M1536.67 620.443C1536.48 620.443 1536.08 620.443 1535.88 620.245C1534.69 619.848 1534.09 618.459 1534.49 617.268L1550.77 572.016C1551.16 570.825 1552.55 570.229 1553.74 570.626C1554.93 571.023 1555.53 572.412 1555.13 573.603L1538.86 618.855C1538.46 619.848 1537.67 620.443 1536.67 620.443Z" fill="#1E193D"/>
<path d="M1645.83 620.445C1644.84 620.445 1644.05 619.85 1643.65 619.056L1627.18 573.804C1626.78 572.613 1627.38 571.422 1628.57 570.826C1629.76 570.429 1630.95 571.025 1631.54 572.216L1648.02 617.468C1648.41 618.659 1647.82 619.85 1646.63 620.445C1646.23 620.445 1646.03 620.445 1645.83 620.445Z" fill="#1E193D"/>
<path d="M1671.24 620.443C1671.04 620.443 1670.64 620.443 1670.44 620.245C1669.25 619.848 1668.66 618.459 1669.06 617.268L1685.53 572.016C1685.93 570.825 1687.32 570.229 1688.51 570.626C1689.7 571.023 1690.29 572.412 1689.9 573.603L1673.42 618.855C1673.02 619.848 1672.23 620.443 1671.24 620.443Z" fill="#1E193D"/>
<path d="M1983.64 887.194H1169.1V913.194H1983.64V887.194Z" fill="#DCD4BC"/>
<path d="M1940.37 792.918H1895.12V886.995H1940.37V792.918Z" fill="#1A787A"/>
<path d="M1983.44 887.194H1852.05V913.194H1983.44V887.194Z" fill="#F7F3E8"/>
<path d="M1983.64 913.194H1278.86V926.293H1983.64V913.194Z" fill="#EE6A23"/>
<path d="M1983.64 891.76C1982.65 891.76 1981.85 890.966 1981.85 889.974V857.027H1171.88V889.974C1171.88 890.966 1171.09 891.76 1170.09 891.76C1169.1 891.76 1168.31 890.966 1168.31 889.974V853.653H1985.03V889.974C1985.23 890.966 1984.43 891.76 1983.64 891.76Z" fill="#F7F3E8"/>
<path d="M1228.25 891.759C1227.25 891.759 1226.46 890.965 1226.46 889.973V855.24C1226.46 854.247 1227.25 853.453 1228.25 853.453C1229.24 853.453 1230.03 854.247 1230.03 855.24V889.973C1230.03 890.965 1229.24 891.759 1228.25 891.759Z" fill="#F7F3E8"/>
<path d="M1286.4 891.758C1285.41 891.758 1284.61 890.964 1284.61 889.972V855.239C1284.61 854.247 1285.41 853.453 1286.4 853.453C1287.39 853.453 1288.19 854.247 1288.19 855.239V889.972C1287.99 890.964 1287.19 891.758 1286.4 891.758Z" fill="#F7F3E8"/>
<path d="M1344.55 891.758C1343.56 891.758 1342.77 890.964 1342.77 889.972V855.239C1342.77 854.247 1343.56 853.453 1344.55 853.453C1345.54 853.453 1346.34 854.247 1346.34 855.239V889.972C1346.14 890.964 1345.35 891.758 1344.55 891.758Z" fill="#F7F3E8"/>
<path d="M1402.51 891.758C1401.51 891.758 1400.72 890.964 1400.72 889.972V855.239C1400.72 854.247 1401.51 853.453 1402.51 853.453C1403.5 853.453 1404.29 854.247 1404.29 855.239V889.972C1404.29 890.964 1403.5 891.758 1402.51 891.758Z" fill="#F7F3E8"/>
<path d="M1460.66 891.758C1459.67 891.758 1458.87 890.964 1458.87 889.972V855.239C1458.87 854.247 1459.67 853.453 1460.66 853.453C1461.65 853.453 1462.45 854.247 1462.45 855.239V889.972C1462.25 890.964 1461.65 891.758 1460.66 891.758Z" fill="#F7F3E8"/>
<path d="M1518.81 891.758C1517.82 891.758 1517.03 890.964 1517.03 889.972V855.239C1517.03 854.247 1517.82 853.453 1518.81 853.453C1519.81 853.453 1520.6 854.247 1520.6 855.239V889.972C1520.4 890.964 1519.61 891.758 1518.81 891.758Z" fill="#F7F3E8"/>
<path d="M1576.77 891.758C1575.77 891.758 1574.98 890.964 1574.98 889.972V855.239C1574.98 854.247 1575.77 853.453 1576.77 853.453C1577.76 853.453 1578.55 854.247 1578.55 855.239V889.972C1578.55 890.964 1577.76 891.758 1576.77 891.758Z" fill="#F7F3E8"/>
<path d="M1634.92 891.758C1633.93 891.758 1633.13 890.964 1633.13 889.972V855.239C1633.13 854.247 1633.93 853.453 1634.92 853.453C1635.91 853.453 1636.71 854.247 1636.71 855.239V889.972C1636.71 890.964 1635.91 891.758 1634.92 891.758Z" fill="#F7F3E8"/>
<path d="M1693.07 891.758C1692.08 891.758 1691.29 890.964 1691.29 889.972V855.239C1691.29 854.247 1692.08 853.453 1693.07 853.453C1694.07 853.453 1694.86 854.247 1694.86 855.239V889.972C1694.66 890.964 1694.07 891.758 1693.07 891.758Z" fill="#F7F3E8"/>
<path d="M1751.23 891.758C1750.23 891.758 1749.44 890.964 1749.44 889.972V855.239C1749.44 854.247 1750.23 853.453 1751.23 853.453C1752.22 853.453 1753.01 854.247 1753.01 855.239V889.972C1752.81 890.964 1752.02 891.758 1751.23 891.758Z" fill="#F7F3E8"/>
<path d="M1809.18 891.758C1808.19 891.758 1807.4 890.964 1807.4 889.972V855.239C1807.4 854.247 1808.19 853.453 1809.18 853.453C1810.17 853.453 1810.97 854.247 1810.97 855.239V889.972C1810.97 890.964 1810.17 891.758 1809.18 891.758Z" fill="#F7F3E8"/>
<path d="M1867.33 891.758C1866.34 891.758 1865.55 890.964 1865.55 889.972V855.239C1865.55 854.247 1866.34 853.453 1867.33 853.453C1868.33 853.453 1869.12 854.247 1869.12 855.239V889.972C1869.12 890.964 1868.33 891.758 1867.33 891.758Z" fill="#F7F3E8"/>
</g>
<defs>
<clipPath id="clip0">
<rect width="1920" height="1080" fill="white"/>
</clipPath>
</defs>
</svg>
