<svg width="375" height="667" viewBox="0 0 375 667" fill="none" xmlns="http://www.w3.org/2000/svg">
<g clip-path="url(#clip0)">
<path d="M149.789 435.045H119.812L44.783 641.496H74.7066L149.789 435.045Z" fill="#1E193D"/>
<path d="M471.113 435.045H358.926L283.898 641.496H396.085L471.113 435.045Z" fill="#1E193D"/>
<path d="M54.7576 634.975C54.7026 634.975 54.648 634.975 54.593 634.92C54.3738 634.81 54.2095 634.591 54.3191 634.317L124.415 441.567H139.76C140.036 441.567 140.254 441.786 140.254 442.06C140.254 442.334 140.036 442.553 139.76 442.553H125.017L55.1958 634.701C55.1411 634.865 54.9766 634.975 54.7576 634.975Z" fill="#DCD4BC"/>
<path d="M149.789 435.045L100.575 570.414C91.1481 596.392 68.952 617.437 51.0854 617.437H18.6406V641.496H255.619L221.365 435.045H149.789Z" fill="#F7F3E8"/>
<path d="M342.979 466.777H199.004C171.382 466.777 141.734 487.932 132.746 514.074L88.9561 641.496H282.912L342.979 466.777Z" fill="#8CB596"/>
<path d="M347.856 466.777C320.235 466.777 290.586 487.932 281.598 514.074L237.861 641.496H287.844L347.856 466.777Z" fill="#F7F3E8"/>
<path d="M237.751 641.496L281.543 514.074C290.476 487.987 320.124 466.777 347.746 466.777H337.277C309.656 466.777 280.007 487.932 271.019 514.074L227.23 641.496H237.751Z" fill="#DCD4BC"/>
<path d="M190.455 641.496L234.244 514.074C243.232 487.932 272.883 466.777 300.505 466.777H290.037C262.415 466.777 232.767 487.932 223.779 514.074L179.987 641.496H190.455Z" fill="#DCD4BC"/>
<path d="M146.226 641.496L190.018 514.074C199.004 487.932 228.655 466.777 256.276 466.777H245.808C218.187 466.777 188.538 487.932 179.55 514.074L135.761 641.496H146.226Z" fill="#DCD4BC"/>
<path d="M99.4789 641.496L143.269 514.074C152.257 487.932 181.906 466.777 209.527 466.777H199.059C171.437 466.777 141.789 487.932 132.801 514.074L89.011 641.496H99.4789Z" fill="#DCD4BC"/>
<path d="M244.822 435.045H221.365V466.777H244.822V435.045Z" fill="#1E193D"/>
<path d="M254.305 439.539H244.823V466.778H254.305V439.539Z" fill="#DCD4BC"/>
<path d="M208.486 435.045H199.004V466.777H208.486V435.045Z" fill="#DCD4BC"/>
<path d="M267.184 435.045H254.305V466.777H267.184V435.045Z" fill="#F7F3E8"/>
<path d="M260.717 435.045H254.305H244.823V439.539H254.305L267.184 453.186V435.045H260.717Z" fill="#1E193D"/>
<path d="M214.953 435.045H208.486H145.569V439.539H208.486L221.365 453.186V435.045H214.953Z" fill="#1E193D"/>
<path d="M290.638 435.045H267.184V466.777H290.638V435.045Z" fill="#1E193D"/>
<path d="M306.477 439.539H290.586V466.778H306.477V439.539Z" fill="#DCD4BC"/>
<path d="M312.944 435.045H300.066V466.777H312.944V435.045Z" fill="#F7F3E8"/>
<path d="M306.533 435.045H300.066H290.586V439.539H300.066L312.944 453.186V435.045H306.533Z" fill="#1E193D"/>
<path d="M336.402 435.045H312.945V466.777H336.402V435.045Z" fill="#1E193D"/>
<path d="M376.411 439.539H336.402V466.778H376.411V439.539Z" fill="#DCD4BC"/>
<path d="M352.296 435.045H345.884H336.402V439.539H358.598L358.763 435.045H352.296Z" fill="#1E193D"/>
<path d="M358.598 424.029H101.89L105.288 435.045H358.598V424.029Z" fill="#DCD4BC"/>
<path d="M191.388 424.029H134.389L137.788 435.045H191.388V424.029Z" fill="#F7F3E8"/>
<path d="M118.167 439.539H148.146L149.789 435.045H119.812L118.167 439.539Z" fill="#1E193D"/>
<path d="M390.659 553.589H352.352V641.496H390.659V553.589Z" fill="#F7CF4A"/>
<path d="M354.378 553.589H196.046V641.496H354.378V553.589Z" fill="#F2B120"/>
<path d="M233.04 627.083H205.474V641.496H233.04V627.083Z" fill="#1E193D"/>
<path d="M213.145 641.496H205.474V627.083L213.145 641.496Z" fill="#EE6A23"/>
<path d="M270.252 627.083H242.686V641.496H270.252V627.083Z" fill="#1E193D"/>
<path d="M250.304 641.496H242.686V627.083L250.304 641.496Z" fill="#EE6A23"/>
<path d="M307.411 627.083H279.842V641.496H307.411V627.083Z" fill="#1E193D"/>
<path d="M287.515 641.496H279.842V627.083L287.515 641.496Z" fill="#EE6A23"/>
<path d="M233.04 641.99C232.767 641.99 232.546 641.772 232.546 641.496V563.016H205.91V641.496C205.91 641.772 205.692 641.99 205.419 641.99C205.142 641.99 204.924 641.772 204.924 641.496V562.084H233.424V641.496C233.532 641.772 233.314 641.99 233.04 641.99Z" fill="#EE6A23"/>
<path d="M270.196 641.99C269.923 641.99 269.705 641.772 269.705 641.496V563.016H243.069V641.496C243.069 641.772 242.848 641.99 242.575 641.99C242.301 641.99 242.083 641.772 242.083 641.496V562.084H270.58V641.496C270.691 641.772 270.472 641.99 270.196 641.99Z" fill="#EE6A23"/>
<path d="M307.411 641.99C307.137 641.99 306.916 641.772 306.916 641.496V563.016H280.281V641.496C280.281 641.772 280.063 641.99 279.789 641.99C279.513 641.99 279.295 641.772 279.295 641.496V562.084H307.795V641.496C307.85 641.772 307.629 641.99 307.411 641.99Z" fill="#EE6A23"/>
<path d="M344.567 641.99C344.294 641.99 344.076 641.772 344.076 641.496V563.016H317.44V641.496C317.44 641.772 317.219 641.99 316.946 641.99C316.672 641.99 316.454 641.772 316.454 641.496V562.084H344.951V641.496C345.061 641.772 344.843 641.99 344.567 641.99Z" fill="#EE6A23"/>
<path d="M163.985 641.496H157.3L165.738 617.437H172.371L163.985 641.496Z" fill="#1E193D"/>
<path d="M196.046 641.496H163.985L172.371 617.437H196.046V641.496Z" fill="#F7F3E8"/>
<path d="M390.831 641.378C390.831 654.295 375.157 664.771 355.756 664.771H-137.01C-156.329 664.826 -172 654.35 -172 641.378H390.831Z" fill="#51A8B7"/>
<path d="M358.598 424.523C358.324 424.523 358.106 424.303 358.106 424.029V414.932H102.329V424.029C102.329 424.303 102.11 424.523 101.835 424.523C101.562 424.523 101.342 424.303 101.342 424.029V414H358.981V424.029C359.037 424.303 358.819 424.523 358.598 424.523Z" fill="#1E193D"/>
<path d="M117.893 424.523C117.619 424.523 117.4 424.303 117.4 424.029V414.493C117.4 414.219 117.619 414 117.893 414C118.167 414 118.387 414.219 118.387 414.493V424.084C118.387 424.303 118.167 424.523 117.893 424.523Z" fill="#1E193D"/>
<path d="M133.95 424.523C133.676 424.523 133.458 424.303 133.458 424.029V414.493C133.458 414.219 133.676 414 133.95 414C134.226 414 134.444 414.219 134.444 414.493V424.084C134.444 424.303 134.226 424.523 133.95 424.523Z" fill="#1E193D"/>
<path d="M150.01 424.523C149.734 424.523 149.515 424.303 149.515 424.029V414.493C149.515 414.219 149.734 414 150.01 414C150.283 414 150.501 414.219 150.501 414.493V424.084C150.501 424.303 150.283 424.523 150.01 424.523Z" fill="#1E193D"/>
<path d="M166.066 424.523C165.793 424.523 165.575 424.303 165.575 424.029V414.493C165.575 414.219 165.793 414 166.066 414C166.34 414 166.561 414.219 166.561 414.493V424.084C166.506 424.303 166.287 424.523 166.066 424.523Z" fill="#1E193D"/>
<path d="M182.069 424.523C181.795 424.523 181.577 424.303 181.577 424.029V414.493C181.577 414.219 181.795 414 182.069 414C182.345 414 182.563 414.219 182.563 414.493V424.084C182.563 424.303 182.345 424.523 182.069 424.523Z" fill="#1E193D"/>
<path d="M198.128 424.523C197.855 424.523 197.634 424.303 197.634 424.029V414.493C197.634 414.219 197.855 414 198.128 414C198.402 414 198.623 414.219 198.623 414.493V424.084C198.623 424.303 198.402 424.523 198.128 424.523Z" fill="#1E193D"/>
<path d="M214.186 424.523C213.912 424.523 213.694 424.303 213.694 424.029V414.493C213.694 414.219 213.912 414 214.186 414C214.459 414 214.68 414.219 214.68 414.493V424.084C214.625 424.303 214.459 424.523 214.186 424.523Z" fill="#1E193D"/>
<path d="M230.243 424.523C229.97 424.523 229.751 424.303 229.751 424.029V414.493C229.751 414.219 229.97 414 230.243 414C230.519 414 230.737 414.219 230.737 414.493V424.084C230.682 424.303 230.464 424.523 230.243 424.523Z" fill="#1E193D"/>
<path d="M246.247 424.523C245.974 424.523 245.753 424.303 245.753 424.029V414.493C245.753 414.219 245.974 414 246.247 414C246.521 414 246.742 414.219 246.742 414.493V424.084C246.742 424.303 246.521 424.523 246.247 424.523Z" fill="#1E193D"/>
<path d="M262.305 424.523C262.031 424.523 261.813 424.303 261.813 424.029V414.493C261.813 414.219 262.031 414 262.305 414C262.578 414 262.799 414.219 262.799 414.493V424.084C262.799 424.303 262.578 424.523 262.305 424.523Z" fill="#1E193D"/>
<path d="M278.362 424.523C278.088 424.523 277.87 424.303 277.87 424.029V414.493C277.87 414.219 278.088 414 278.362 414C278.638 414 278.856 414.219 278.856 414.493V424.084C278.801 424.303 278.638 424.523 278.362 424.523Z" fill="#1E193D"/>
<path d="M294.422 424.523C294.145 424.523 293.927 424.303 293.927 424.029V414.493C293.927 414.219 294.145 414 294.422 414C294.695 414 294.913 414.219 294.913 414.493V424.084C294.861 424.303 294.64 424.523 294.422 424.523Z" fill="#1E193D"/>
<path d="M310.424 424.523C310.15 424.523 309.932 424.303 309.932 424.029V414.493C309.932 414.219 310.15 414 310.424 414C310.697 414 310.918 414.219 310.918 414.493V424.084C310.918 424.303 310.697 424.523 310.424 424.523Z" fill="#1E193D"/>
<path d="M326.481 424.523C326.207 424.523 325.989 424.303 325.989 424.029V414.493C325.989 414.219 326.207 414 326.481 414C326.757 414 326.975 414.219 326.975 414.493V424.084C326.975 424.303 326.757 424.523 326.481 424.523Z" fill="#1E193D"/>
<path d="M342.54 424.523C342.267 424.523 342.046 424.303 342.046 424.029V414.493C342.046 414.219 342.267 414 342.54 414C342.814 414 343.035 414.219 343.035 414.493V424.084C342.979 424.303 342.814 424.523 342.54 424.523Z" fill="#1E193D"/>
<path d="M371.744 650.655C362.985 650.655 354.856 648.297 349.137 644.188C343.507 648.297 335.375 650.655 326.528 650.655C317.771 650.655 309.639 648.297 303.921 644.188C298.29 648.297 290.161 650.655 281.314 650.655C272.557 650.655 264.334 648.297 258.707 644.188C253.076 648.297 244.944 650.655 236.1 650.655C227.341 650.655 219.12 648.297 213.49 644.188C207.862 648.297 199.73 650.655 190.883 650.655C182.127 650.655 173.995 648.297 168.276 644.188C162.645 648.297 154.513 650.655 145.669 650.655C136.91 650.655 128.689 648.297 123.059 644.188C117.431 648.297 109.299 650.655 100.453 650.655C91.6956 650.655 83.4745 648.297 77.845 644.188C72.2155 648.297 64.0839 650.655 55.2375 650.655C46.4805 650.655 38.3489 648.297 32.6299 644.188C27.0004 648.297 18.8689 650.655 10.0224 650.655C1.2651 650.655 -6.95565 648.297 -12.5852 644.188C-18.2147 648.297 -26.3463 650.655 -35.1927 650.655C-43.95 650.655 -52.1708 648.297 -57.8006 644.188C-63.4301 648.297 -71.5616 650.655 -80.4081 650.655C-89.1651 650.655 -97.3861 648.297 -103.016 644.188C-108.645 648.297 -116.777 650.655 -125.623 650.655C-134.38 650.655 -142.601 648.297 -148.231 644.188C-153.86 648.297 -161.992 650.655 -170.838 650.655C-171.464 650.655 -172 650.326 -172 649.943C-172 649.559 -171.464 649.23 -170.838 649.23C-162.26 649.23 -154.396 646.817 -149.124 642.653L-148.231 641.94L-147.337 642.653C-142.154 646.817 -134.202 649.23 -125.623 649.23C-117.045 649.23 -109.181 646.817 -103.998 642.653L-103.105 641.94L-102.211 642.653C-97.0285 646.817 -89.0756 649.23 -80.5868 649.23C-72.0084 649.23 -64.145 646.817 -58.962 642.653L-58.0684 641.94L-57.1748 642.653C-51.9029 646.817 -44.0392 649.23 -35.4609 649.23C-26.8825 649.23 -19.0191 646.817 -13.8363 642.653L-12.9428 641.94L-12.0492 642.653C-6.777 646.817 1.08643 649.23 9.66478 649.23C18.2431 649.23 26.1068 646.817 31.2896 642.653L32.1831 641.94L33.0767 642.653C38.2595 646.817 46.2124 649.23 54.7907 649.23C63.369 649.23 71.2325 646.817 76.4152 642.653L77.3091 641.94L78.2026 642.653C83.4745 646.817 91.338 649.23 99.9166 649.23C108.495 649.23 116.358 646.817 121.54 642.653L122.435 641.94L123.33 642.653C128.51 646.817 136.465 649.23 145.042 649.23C153.621 649.23 161.483 646.817 166.666 642.653L167.561 641.94L168.455 642.653C173.636 646.817 181.591 649.23 190.079 649.23C198.656 649.23 206.52 646.817 211.703 642.653L212.598 641.94L213.49 642.653C218.764 646.817 226.625 649.23 235.205 649.23C243.784 649.23 251.646 646.817 256.917 642.653L257.812 641.94L258.707 642.653C263.89 646.817 271.842 649.23 280.419 649.23C288.998 649.23 296.863 646.817 302.046 642.653L302.938 641.94L303.832 642.653C309.104 646.817 316.968 649.23 325.544 649.23C334.124 649.23 341.988 646.817 347.171 642.653L348.063 641.94L348.958 642.653C354.229 646.817 362.093 649.23 370.67 649.23C371.297 649.23 371.833 649.559 371.833 649.943C371.833 650.326 372.368 650.655 371.744 650.655Z" fill="#F7F3E8"/>
<path d="M299.682 575.237C299.682 578.854 296.777 581.759 293.16 581.759C289.542 581.759 286.64 578.854 286.64 575.237C286.64 571.675 289.542 568.715 293.16 568.715C296.777 568.715 299.682 571.62 299.682 575.237Z" fill="#F7F3E8"/>
<path d="M262.525 575.237C262.525 578.854 259.621 581.759 256.003 581.759C252.386 581.759 249.481 578.854 249.481 575.237C249.481 571.675 252.386 568.715 256.003 568.715C259.565 568.715 262.525 571.62 262.525 575.237Z" fill="#F7F3E8"/>
<path d="M225.311 575.237C225.311 578.854 222.406 581.759 218.789 581.759C215.171 581.759 212.266 578.854 212.266 575.237C212.266 571.675 215.171 568.715 218.789 568.715C222.406 568.715 225.311 571.62 225.311 575.237Z" fill="#F7F3E8"/>
<path d="M301.051 491.385H299.135V553.589H301.051V491.385Z" fill="#177D8F"/>
<path d="M248.222 491.386H246.303V553.59H248.222V491.386Z" fill="#177D8F"/>
<path d="M300.066 499.606H247.233V501.524H300.066V499.606Z" fill="#177D8F"/>
<path d="M300.066 516.267H247.233V518.185H300.066V516.267Z" fill="#177D8F"/>
<path d="M274.637 491.385H272.718V500.537H274.637V491.385Z" fill="#177D8F"/>
<path d="M274.637 508.101H272.718V517.253H274.637V508.101Z" fill="#177D8F"/>
<path d="M325.003 491.385H323.084V553.589H325.003V491.385Z" fill="#177D8F"/>
<path d="M376.847 499.606H324.015V501.524H376.847V499.606Z" fill="#177D8F"/>
<path d="M376.847 516.267H324.015V518.185H376.847V516.267Z" fill="#177D8F"/>
<path d="M351.418 491.385H349.502V500.537H351.418V491.385Z" fill="#177D8F"/>
<path d="M351.418 508.101H349.502V517.253H351.418V508.101Z" fill="#177D8F"/>
<path d="M220.106 553.589V539.614C220.106 535.996 223.011 533.092 226.625 533.092C230.19 533.092 233.148 535.996 233.148 539.614V553.589H220.106Z" fill="#BF304A"/>
<path d="M257.207 553.589V539.614C257.207 535.997 260.112 533.092 263.73 533.092C267.347 533.092 270.252 535.997 270.252 539.614V553.589H257.207Z" fill="#BF304A"/>
<path d="M294.422 553.589V539.614C294.422 535.997 297.327 533.092 300.944 533.092C304.558 533.092 307.463 535.997 307.463 539.614V553.589H294.422Z" fill="#BF304A"/>
<path d="M217.803 575.949C212.706 575.949 208.597 571.839 208.597 566.742V558.247C208.597 553.151 212.706 549.04 217.803 549.04H223.284C223.668 549.04 223.997 549.369 223.997 549.752C223.997 550.136 223.668 550.465 223.284 550.465H217.803C213.473 550.465 210.022 553.973 210.022 558.247V566.742C210.022 571.072 213.528 574.525 217.803 574.525C218.187 574.525 218.515 574.853 218.515 575.237C218.515 575.621 218.242 575.949 217.803 575.949Z" fill="#1E193D"/>
<path d="M255.509 575.949C250.412 575.949 246.303 571.839 246.303 566.742V558.247C246.303 553.151 250.412 549.04 255.509 549.04H260.99C261.374 549.04 261.703 549.369 261.703 549.752C261.703 550.136 261.374 550.465 260.99 550.465H255.509C251.234 550.465 247.728 553.973 247.728 558.247V566.742C247.728 571.072 251.234 574.525 255.509 574.525C255.893 574.525 256.221 574.853 256.221 575.237C256.221 575.621 255.893 575.949 255.509 575.949Z" fill="#1E193D"/>
<path d="M292.942 575.949C287.844 575.949 283.735 571.839 283.735 566.742V558.247C283.735 553.151 287.844 549.04 292.942 549.04H298.423C298.807 549.04 299.135 549.369 299.135 549.752C299.135 550.136 298.807 550.465 298.423 550.465H292.942C288.612 550.465 285.16 553.973 285.16 558.247V566.742C285.16 571.072 288.667 574.525 292.942 574.525C293.325 574.525 293.654 574.853 293.654 575.237C293.654 575.621 293.325 575.949 292.942 575.949Z" fill="#1E193D"/>
<path d="M223.063 536.6C222.79 536.6 222.572 536.435 222.461 536.216L217.914 523.721C217.803 523.392 217.969 523.063 218.297 522.899C218.626 522.789 218.955 522.953 219.117 523.282L223.668 535.778C223.776 536.107 223.613 536.435 223.284 536.6C223.229 536.6 223.119 536.6 223.063 536.6Z" fill="#1E193D"/>
<path d="M230.135 536.599C230.08 536.599 229.969 536.599 229.914 536.544C229.586 536.435 229.423 536.051 229.53 535.722L234.081 523.227C234.191 522.898 234.573 522.734 234.904 522.843C235.232 522.953 235.395 523.336 235.285 523.665L230.737 536.161C230.627 536.435 230.353 536.599 230.135 536.599Z" fill="#1E193D"/>
<path d="M260.222 536.6C259.949 536.6 259.728 536.435 259.62 536.216L255.07 523.721C254.962 523.392 255.125 523.063 255.453 522.898C255.782 522.789 256.111 522.953 256.276 523.282L260.824 535.778C260.935 536.107 260.769 536.435 260.44 536.6C260.333 536.6 260.278 536.6 260.222 536.6Z" fill="#1E193D"/>
<path d="M267.236 536.599C267.184 536.599 267.073 536.599 267.018 536.544C266.69 536.435 266.524 536.051 266.634 535.722L271.13 523.227C271.238 522.898 271.621 522.733 271.95 522.843C272.279 522.953 272.444 523.336 272.334 523.665L267.841 536.161C267.731 536.435 267.513 536.599 267.236 536.599Z" fill="#1E193D"/>
<path d="M297.379 536.6C297.105 536.6 296.887 536.435 296.777 536.216L292.229 523.721C292.118 523.392 292.284 523.063 292.613 522.898C292.941 522.789 293.27 522.953 293.433 523.282L297.984 535.778C298.091 536.107 297.928 536.435 297.6 536.6C297.489 536.6 297.434 536.6 297.379 536.6Z" fill="#1E193D"/>
<path d="M304.395 536.599C304.34 536.599 304.23 536.599 304.174 536.544C303.846 536.435 303.683 536.051 303.793 535.722L308.341 523.227C308.452 522.898 308.836 522.733 309.164 522.843C309.493 522.953 309.656 523.336 309.548 523.665L304.997 536.161C304.887 536.435 304.669 536.599 304.395 536.599Z" fill="#1E193D"/>
<path d="M390.659 610.258H165.738V617.437H390.659V610.258Z" fill="#DCD4BC"/>
<path d="M378.711 584.225H366.216V610.203H378.711V584.225Z" fill="#1A787A"/>
<path d="M390.604 610.258H354.323V617.437H390.604V610.258Z" fill="#F7F3E8"/>
<path d="M390.659 617.437H196.046V621.054H390.659V617.437Z" fill="#EE6A23"/>
<path d="M390.659 611.519C390.386 611.519 390.165 611.299 390.165 611.026V601.928H166.506V611.026C166.506 611.299 166.288 611.519 166.012 611.519C165.738 611.519 165.52 611.299 165.52 611.026V600.996H391.043V611.026C391.098 611.299 390.878 611.519 390.659 611.519Z" fill="#F7F3E8"/>
<path d="M182.071 611.518C181.795 611.518 181.577 611.299 181.577 611.025V601.434C181.577 601.16 181.795 600.941 182.071 600.941C182.345 600.941 182.563 601.16 182.563 601.434V611.025C182.563 611.299 182.345 611.518 182.071 611.518Z" fill="#F7F3E8"/>
<path d="M198.128 611.518C197.855 611.518 197.634 611.299 197.634 611.025V601.434C197.634 601.16 197.855 600.941 198.128 600.941C198.402 600.941 198.623 601.16 198.623 601.434V611.025C198.567 611.299 198.346 611.518 198.128 611.518Z" fill="#F7F3E8"/>
<path d="M214.186 611.518C213.912 611.518 213.694 611.299 213.694 611.025V601.434C213.694 601.16 213.912 600.941 214.186 600.941C214.459 600.941 214.68 601.16 214.68 601.434V611.025C214.625 611.299 214.407 611.518 214.186 611.518Z" fill="#F7F3E8"/>
<path d="M230.19 611.518C229.914 611.518 229.696 611.299 229.696 611.025V601.434C229.696 601.16 229.914 600.941 230.19 600.941C230.464 600.941 230.682 601.16 230.682 601.434V611.025C230.682 611.299 230.464 611.518 230.19 611.518Z" fill="#F7F3E8"/>
<path d="M246.247 611.518C245.974 611.518 245.753 611.299 245.753 611.025V601.434C245.753 601.16 245.974 600.941 246.247 600.941C246.521 600.941 246.742 601.16 246.742 601.434V611.025C246.686 611.299 246.521 611.518 246.247 611.518Z" fill="#F7F3E8"/>
<path d="M262.305 611.518C262.031 611.518 261.813 611.299 261.813 611.025V601.434C261.813 601.16 262.031 600.941 262.305 600.941C262.581 600.941 262.799 601.16 262.799 601.434V611.025C262.744 611.299 262.525 611.518 262.305 611.518Z" fill="#F7F3E8"/>
<path d="M278.309 611.518C278.033 611.518 277.815 611.299 277.815 611.025V601.434C277.815 601.16 278.033 600.941 278.309 600.941C278.583 600.941 278.801 601.16 278.801 601.434V611.025C278.801 611.299 278.583 611.518 278.309 611.518Z" fill="#F7F3E8"/>
<path d="M294.366 611.518C294.093 611.518 293.872 611.299 293.872 611.025V601.434C293.872 601.16 294.093 600.941 294.366 600.941C294.64 600.941 294.861 601.16 294.861 601.434V611.025C294.861 611.299 294.64 611.518 294.366 611.518Z" fill="#F7F3E8"/>
<path d="M310.424 611.518C310.15 611.518 309.932 611.299 309.932 611.025V601.434C309.932 601.16 310.15 600.941 310.424 600.941C310.7 600.941 310.918 601.16 310.918 601.434V611.025C310.863 611.299 310.7 611.518 310.424 611.518Z" fill="#F7F3E8"/>
<path d="M326.483 611.518C326.207 611.518 325.989 611.299 325.989 611.025V601.434C325.989 601.16 326.207 600.941 326.483 600.941C326.757 600.941 326.975 601.16 326.975 601.434V611.025C326.92 611.299 326.701 611.518 326.483 611.518Z" fill="#F7F3E8"/>
<path d="M342.485 611.518C342.212 611.518 341.994 611.299 341.994 611.025V601.434C341.994 601.16 342.212 600.941 342.485 600.941C342.759 600.941 342.98 601.16 342.98 601.434V611.025C342.98 611.299 342.759 611.518 342.485 611.518Z" fill="#F7F3E8"/>
<path d="M358.543 611.518C358.269 611.518 358.051 611.299 358.051 611.025V601.434C358.051 601.16 358.269 600.941 358.543 600.941C358.819 600.941 359.037 601.16 359.037 601.434V611.025C359.037 611.299 358.819 611.518 358.543 611.518Z" fill="#F7F3E8"/>
</g>
<defs>
<clipPath id="clip0">
<rect width="375" height="667" fill="white"/>
</clipPath>
</defs>
</svg>
