<svg width="375" height="667" viewBox="0 0 375 667" fill="none" xmlns="http://www.w3.org/2000/svg">
<g clip-path="url(#clip0)">
<path d="M197.386 557.892C197.386 560.176 198.999 562.056 201.012 562.145C201.548 563.131 202.533 563.802 203.653 563.802C204.01 563.802 204.374 563.712 204.731 563.578C205.402 565.1 206.787 566.086 208.4 566.13C209.569 566.13 210.598 565.593 211.361 564.742C211.897 565.28 212.611 565.593 213.374 565.593C214.402 565.593 215.344 565.011 215.88 564.16C216.243 564.474 216.686 564.653 217.179 564.653C217.807 564.653 218.391 564.294 218.792 563.802C221.482 564.876 224.708 566.443 227.663 568.593C226.407 578.98 222.824 587.755 222.824 587.755H231.018C233.123 578.666 233.437 566.309 233.172 557.22C235.635 555.116 238.276 553.728 240.024 552.967C240.338 553.325 240.782 553.594 241.274 553.594C241.724 553.594 242.13 553.415 242.395 553.101C242.801 553.594 243.429 553.907 244.051 553.907C244.949 553.907 245.713 553.325 246.113 552.52C246.291 552.609 246.519 552.654 246.698 552.654C247.32 552.654 247.861 552.295 248.175 551.714C249.296 551.669 250.188 550.639 250.232 549.34C250.232 548.042 249.296 546.967 248.126 546.967H248.083C247.947 546.475 247.547 546.117 247.098 546.072C247.098 545.132 246.427 544.326 245.577 544.326C245.35 544.326 245.128 544.416 244.906 544.505C244.857 543.072 243.829 541.908 242.53 541.908C241.453 541.908 240.56 542.714 240.289 543.789C240.203 543.744 240.067 543.744 239.932 543.744C239.039 543.744 238.276 544.594 238.276 545.624C238.276 545.669 238.276 545.669 238.276 545.714C237.648 545.848 237.199 546.43 237.199 547.192C237.199 547.236 237.199 547.236 237.199 547.281C236.306 547.549 235.635 548.49 235.635 549.609C235.635 550.908 236.571 551.982 237.74 552.027C236.306 553.818 234.558 555.25 233.123 556.146C232.945 550.818 232.545 546.072 232.138 542.535C232.988 542.087 233.708 541.371 234.244 540.565C234.915 541.147 235.764 541.46 236.663 541.505C238.59 541.505 240.246 539.938 240.646 537.878C240.782 537.878 240.917 537.878 241.053 537.878C244.993 537.878 248.175 534.297 248.175 529.82C248.175 526.104 245.978 522.97 242.979 522.029C242.979 521.939 242.979 521.85 242.979 521.761C242.979 519.343 241.453 517.328 239.396 516.925C239.396 516.835 239.396 516.746 239.396 516.656C239.396 513.254 236.977 510.478 233.973 510.478C233.573 510.478 233.173 510.523 232.809 510.612C231.824 506.985 228.869 504.389 225.329 504.389C221.075 504.389 217.628 508.195 217.493 512.985C216.822 512.627 216.107 512.448 215.344 512.448C212.568 512.448 210.327 515 210.327 518.134C208.806 518.313 207.55 519.477 207.101 521.089C207.058 521.089 206.972 521.089 206.922 521.089C203.075 521.089 199.935 524.626 199.935 528.969C199.935 533.222 202.896 536.715 206.658 536.894C207.686 538.729 209.477 539.983 211.583 539.983C212.254 539.983 212.925 539.849 213.553 539.58C214.808 542.4 217.406 544.281 220.361 544.281C221.974 544.281 223.452 543.744 224.708 542.804C228.02 551.624 228.555 560.041 227.884 567.115C225.822 566.086 223.359 564.519 221.211 562.504C222.51 561.832 223.409 560.31 223.409 558.609C223.409 556.593 222.239 554.937 220.626 554.444C220.626 554.4 220.626 554.355 220.626 554.31C220.626 553.012 219.826 551.937 218.705 551.714C218.705 551.669 218.705 551.624 218.705 551.579C218.705 549.743 217.406 548.266 215.793 548.266C215.566 548.266 215.387 548.311 215.165 548.355C214.63 546.43 213.06 544.998 211.133 544.998C208.849 544.998 207.015 547.057 206.922 549.609C206.565 549.43 206.165 549.296 205.759 549.296C204.281 549.296 203.075 550.683 203.025 552.34C202.219 552.43 201.548 553.056 201.283 553.907C201.234 553.907 201.191 553.907 201.191 553.907C199.085 553.638 197.386 555.519 197.386 557.892ZM237.291 553.37C237.427 553.281 237.648 552.833 237.962 552.25C238.098 552.609 238.411 552.877 238.769 552.967C237.962 553.191 237.291 553.37 237.291 553.37ZM229.633 543.072C229.676 546.878 229.897 550.683 229.897 550.683C229.091 547.549 227.527 544.237 226.271 541.908C227.213 542.625 228.291 543.072 229.497 543.072C229.54 543.117 229.59 543.072 229.633 543.072ZM219.198 562.951C219.241 562.862 219.284 562.772 219.284 562.682C219.333 562.682 219.419 562.682 219.512 562.682C219.733 562.682 219.912 562.638 220.09 562.638C220.269 562.906 220.448 563.131 220.54 563.175C220.54 563.175 220.004 563.086 219.198 562.951Z" fill="white"/>
<path d="M63.9169 519.88L47.3012 462.392C43.9867 450.886 38.5224 450.886 35.2085 462.392L18.5921 519.88C15.6808 529.909 20.7419 538.371 30.0126 540.341C32.8346 546.565 36.0143 553.997 37.4026 557.265C36.6417 574.324 35.925 587.71 35.925 587.71H46.5397C46.5397 587.71 45.6882 572.309 44.9273 553.504C46.4498 549.922 48.5552 544.998 50.5702 540.61C61.0955 539.49 67.0074 530.581 63.9169 519.88ZM32.5213 540.699C33.103 540.744 33.7303 540.789 34.3127 540.789H38.0748C37.94 543.878 37.8507 546.967 37.7165 550.012C36.1042 547.147 34.2228 543.833 32.5213 540.699ZM44.4342 540.789H48.152C47.0322 542.893 45.8231 544.998 44.6583 547.057C44.569 544.953 44.5241 542.893 44.4342 540.789Z" fill="white"/>
<path d="M7.61923 587.755H-3.89111L-2.50288 585.203H6.18606L7.61923 587.755Z" fill="white"/>
<path d="M3.31952 585.337C3.31952 585.741 2.60293 586.099 1.70658 586.099C0.81084 586.099 0.0942383 585.786 0.0942383 585.337C0.0942383 584.935 0.81084 584.576 1.70658 584.576C2.60293 584.576 3.31952 584.89 3.31952 585.337Z" fill="white"/>
<path d="M200.969 481.018V474.257H194.16V468.437H189.457L176.067 455.677L162.674 468.437H158.016V474.302H151.163V481.062H157.254V581.039H151.163V587.8H200.969V581.039H194.874V481.018H200.969ZM184.575 567.115V560.265H190.713V567.115H184.575ZM190.664 568.637V575.487H184.532V568.637H190.664ZM184.575 558.698V551.848H190.713V558.698H184.575ZM184.575 550.326V543.476H190.713V550.326H184.575ZM184.575 541.909V535.058H190.713V541.909H184.575ZM184.575 533.536V526.686H190.713V533.536H184.575ZM184.575 525.119V518.268H190.713V525.119H184.575ZM184.575 516.746V509.896H190.713V516.746H184.575ZM184.575 508.329V501.479H190.713V508.329H184.575ZM184.575 499.956V493.106H190.713V499.956H184.575ZM184.575 491.584V484.734H190.713V491.584H184.575ZM176.874 567.115V560.265H183.005V567.115H176.874ZM183.005 568.637V575.487H176.874V568.637H183.005ZM176.874 558.698V551.848H183.005V558.698H176.874ZM176.874 550.326V543.476H183.005V550.326H176.874ZM176.874 541.909V535.058H183.005V541.909H176.874ZM176.874 533.536V526.686H183.005V533.536H176.874ZM176.874 525.119V518.268H183.005V525.119H176.874ZM176.874 516.746V509.896H183.005V516.746H176.874ZM176.874 508.329V501.479H183.005V508.329H176.874ZM176.874 499.956V493.106H183.005V499.956H176.874ZM176.874 491.584V484.734H183.005V491.584H176.874ZM169.213 567.115V560.265H175.347V567.115H169.213ZM175.304 568.637V575.487H169.213V568.637H175.304ZM169.213 558.698V551.848H175.347V558.698H169.213ZM169.213 550.326V543.476H175.347V550.326H169.213ZM169.213 541.909V535.058H175.347V541.909H169.213ZM169.213 533.536V526.686H175.347V533.536H169.213ZM169.213 525.119V518.268H175.347V525.119H169.213ZM169.213 516.746V509.896H175.347V516.746H169.213ZM169.213 508.329V501.479H175.347V508.329H169.213ZM169.213 499.956V493.106H175.347V499.956H169.213ZM169.213 491.584V484.734H175.347V491.584H169.213ZM161.509 567.115V560.265H167.645V567.115H161.509ZM167.645 568.637V575.487H161.509V568.637H167.645ZM161.509 558.698V551.848H167.645V558.698H161.509ZM161.509 550.326V543.476H167.645V550.326H161.509ZM161.509 541.909V535.058H167.645V541.909H161.509ZM161.509 533.536V526.686H167.645V533.536H161.509ZM161.509 525.119V518.268H167.645V525.119H161.509ZM161.509 516.746V509.896H167.645V516.746H161.509ZM161.509 508.329V501.479H167.645V508.329H161.509ZM161.509 499.956V493.106H167.645V499.956H161.509ZM161.509 491.584V484.734H167.645V491.584H161.509Z" fill="white"/>
<path d="M61.6779 571.369C57.1094 571.369 53.4365 575.04 53.4365 579.562C53.4365 584.084 57.1094 587.755 61.6779 587.755C66.2015 587.755 69.9187 584.084 69.9187 579.562C69.9187 575.04 66.2459 571.369 61.6779 571.369ZM61.6779 583.188C59.6624 583.188 58.05 581.576 58.05 579.562C58.05 577.547 59.6624 575.936 61.6779 575.936C63.6935 575.936 65.3058 577.547 65.3058 579.562C65.3058 581.576 63.6935 583.188 61.6779 583.188Z" fill="white"/>
<path d="M97.7768 571.369C93.2082 571.369 89.5354 575.04 89.5354 579.562C89.5354 584.084 93.2082 587.755 97.7768 587.755C102.345 587.755 106.018 584.084 106.018 579.562C106.018 575.04 102.345 571.369 97.7768 571.369ZM97.7768 583.188C95.7612 583.188 94.1489 581.576 94.1489 579.562C94.1489 577.547 95.7612 575.936 97.7768 575.936C99.7918 575.936 101.404 577.547 101.404 579.562C101.404 581.576 99.7918 583.188 97.7768 583.188Z" fill="white"/>
<path d="M111.437 562.638H109.869C109.869 562.593 109.869 562.548 109.825 562.504L106.063 550.863C105.839 550.146 105.122 549.609 104.315 549.475C77.9802 543.61 65.1266 549.475 65.1266 549.475C64.2752 549.609 63.6035 550.146 63.3795 550.863L59.6623 562.504C59.6174 562.548 59.6174 562.593 59.6174 562.638H48.7343C47.2562 562.638 46.0471 563.488 46.0471 564.563V574.413H45.0615C44.7032 574.413 44.4348 574.86 44.4348 575.443V579.786C44.4348 580.368 44.7032 580.815 45.0615 580.815H46.2263C46.6289 581.532 47.5696 582.069 48.7343 582.069H52.5414C52.3173 581.263 52.1831 580.458 52.1831 579.607C52.1831 574.413 56.4377 570.16 61.6779 570.16C66.9181 570.16 71.1726 574.368 71.1726 579.607C71.1726 580.458 71.0384 581.308 70.8143 582.069H88.6398C88.4157 581.263 88.3264 580.458 88.3264 579.607C88.3264 574.413 92.581 570.16 97.8212 570.16C103.061 570.16 107.317 574.368 107.317 579.607C107.317 580.458 107.182 581.308 107.003 582.069H111.481C112.959 582.069 114.169 581.219 114.169 580.144V564.608C114.124 563.488 112.915 562.638 111.437 562.638ZM85.2809 550.773H98.6277C99.3443 550.773 99.971 551.221 100.15 551.848L102.748 560.758C102.882 561.205 102.793 561.698 102.479 562.056C102.166 562.414 101.718 562.638 101.225 562.638H85.236V550.773H85.2809ZM66.963 562.056C66.694 561.698 66.5598 561.205 66.694 560.758L69.3362 551.848C69.5154 551.221 70.1427 550.773 70.8593 550.773H84.2061V562.638H68.217C67.7239 562.638 67.2764 562.414 66.963 562.056Z" fill="white"/>
<path d="M155.821 516.746V510.03H111.571V516.746H114.886V580.994H112.735V587.755H154.702V580.994H152.552V516.746H155.821ZM142.161 518.313H148.252V525.163H142.161V518.313ZM142.161 526.685H148.252V533.536H142.161V526.685ZM142.161 535.103H148.252V541.953H142.161V535.103ZM142.161 543.476H148.252V550.326H142.161V543.476ZM142.161 551.893H148.252V558.743H142.161V551.893ZM142.161 560.265H148.252V567.115H142.161V560.265ZM142.161 568.637H148.252V575.487H142.161V568.637ZM134.458 518.313H140.549V525.163H134.458V518.313ZM134.458 526.685H140.549V533.536H134.458V526.685ZM134.458 535.103H140.549V541.953H134.458V535.103ZM134.458 543.476H140.549V550.326H134.458V543.476ZM134.458 551.893H140.549V558.743H134.458V551.893ZM134.458 560.265H140.549V567.115H134.458V560.265ZM134.458 568.637H140.549V575.487H134.458V568.637ZM126.754 518.313H132.89V525.163H126.754V518.313ZM126.754 526.685H132.89V533.536H126.754V526.685ZM126.754 535.103H132.89V541.953H126.754V535.103ZM126.754 543.476H132.89V550.326H126.754V543.476ZM126.754 551.893H132.89V558.743H126.754V551.893ZM126.754 560.265H132.89V567.115H126.754V560.265ZM126.754 568.637H132.89V575.487H126.754V568.637ZM119.095 518.313H125.231V525.163H119.095V518.313ZM119.095 526.685H125.231V533.536H119.095V526.685ZM119.095 535.103H125.231V541.953H119.095V535.103ZM119.095 543.476H125.231V550.326H119.095V543.476ZM119.095 551.893H125.231V558.743H119.095V551.893ZM119.095 560.265H125.231V567.115H119.095V560.265ZM119.095 568.637H125.231V575.487H119.095V568.637Z" fill="white"/>
<path d="M133.741 501.031L131.591 493.957C131.054 492.166 129.486 490.689 128.053 490.689H118.244C116.856 490.689 115.288 492.166 114.751 493.957L112.735 501.031C112.243 502.822 113.542 504.299 115.691 504.299H122.499V512.403H123.888V504.299H130.74C132.98 504.299 134.323 502.822 133.741 501.031ZM132.308 499.419H128.859L128.187 495.524H131.233L132.308 499.419ZM124.963 495.524H128.008L128.68 499.419H125.231L124.963 495.524ZM125.007 499.464H121.558L121.738 495.568H124.784L125.007 499.464ZM127.874 491.405C129.128 491.405 130.471 492.658 130.875 494.226L131.188 495.3H128.143L127.471 491.405H127.874ZM127.336 491.405L127.963 495.3H124.918L124.694 491.405H127.336ZM124.515 491.405L124.739 495.3H121.693L121.872 491.405H124.515ZM121.738 491.405L121.558 495.3H118.513L119.095 491.405H121.738ZM115.557 494.226C115.96 492.703 117.304 491.405 118.513 491.405H118.916L118.289 495.3H115.244L115.557 494.226ZM115.244 495.524H118.289L117.662 499.419H114.213L115.244 495.524ZM116.453 503.583C114.662 503.583 113.497 502.329 113.9 500.762L114.168 499.688H117.662L117.035 503.583H116.453ZM121.111 503.583H117.259L117.841 499.688H121.29L121.111 503.583ZM117.886 499.464L118.469 495.568H121.514L121.335 499.509H117.886V499.464ZM121.379 503.583L121.558 499.688H125.007L125.231 503.583H121.379ZM125.5 503.583L125.231 499.688H128.68L129.307 503.583H125.5ZM130.158 503.583H129.576L128.904 499.643H132.353L132.666 500.717C133.114 502.284 131.95 503.538 130.158 503.583Z" fill="white"/>
<path d="M155.597 501.031L153.447 493.957C152.91 492.166 151.342 490.689 149.909 490.689H140.101C138.712 490.689 137.145 492.166 136.607 493.957L134.592 501.031C134.099 502.822 135.398 504.299 137.548 504.299H144.356V512.403H145.744V504.299H152.597C154.836 504.299 156.135 502.822 155.597 501.031ZM154.164 499.419H150.716L150.044 495.524H153.089L154.164 499.419ZM146.819 495.524H149.864L150.537 499.419H147.088L146.819 495.524ZM146.819 499.464H143.37L143.549 495.568H146.595L146.819 499.464ZM149.73 491.405C150.984 491.405 152.328 492.658 152.731 494.226L153.045 495.3H149.999L149.327 491.405H149.73ZM149.193 491.405L149.82 495.3H146.774L146.55 491.405H149.193ZM146.371 491.405L146.595 495.3H143.549L143.728 491.405H146.371ZM143.549 491.405L143.37 495.3H140.325L140.907 491.405H143.549ZM137.413 494.226C137.817 492.703 139.16 491.405 140.37 491.405H140.773L140.145 495.3H137.1L137.413 494.226ZM137.055 495.524H140.101L139.474 499.419H136.025L137.055 495.524ZM138.309 503.583C136.518 503.583 135.353 502.329 135.757 500.762L136.025 499.688H139.519L138.891 503.583H138.309ZM142.968 503.583H139.116L139.698 499.688H143.147L142.968 503.583ZM139.742 499.464L140.325 495.568H143.37L143.191 499.509H139.742V499.464ZM143.191 503.583L143.37 499.688H146.819L147.043 503.583H143.191ZM147.311 503.583L147.043 499.688H150.492L151.118 503.583H147.311ZM151.97 503.583H151.387L150.716 499.688H154.164L154.478 500.762C154.925 502.284 153.806 503.538 151.97 503.583Z" fill="white"/>
<path d="M344.899 437.018L342.894 430.161C342.366 428.446 340.897 427 339.579 427H330.309C328.999 427 327.523 428.446 326.995 430.161L325.099 437.018C324.628 438.786 325.887 440.178 327.892 440.178H334.369V448H335.686V440.178H342.156C344.16 440.178 345.369 438.732 344.899 437.018ZM343.531 435.464H340.26L339.63 431.715H342.525L343.531 435.464ZM336.526 431.715H339.42L340.05 435.464H336.786L336.526 431.715ZM336.576 435.464H333.312L333.472 431.715H336.366L336.576 435.464ZM339.319 427.75C340.477 427.75 341.787 428.982 342.156 430.482L342.424 431.553H339.579L338.95 427.803L339.319 427.75ZM338.791 427.75L339.42 431.5H336.576L336.366 427.75H338.791ZM336.156 427.75L336.366 431.5H333.472L333.631 427.75H336.156ZM333.472 427.75L333.262 431.5H330.418L330.997 427.75H333.472ZM327.624 430.482C327.993 428.982 329.26 427.75 330.418 427.75H330.787L330.208 431.5H327.364L327.624 430.482ZM327.313 431.715H330.208L329.629 435.464H326.365L327.313 431.715ZM328.471 439.482C326.785 439.482 325.678 438.25 326.047 436.75L326.314 435.732H329.629L329.05 439.482H328.471ZM332.893 439.482H329.26L329.839 435.732H333.103L332.893 439.482ZM329.839 435.518L330.418 431.768H333.312L333.103 435.572H329.839V435.518ZM333.153 439.482L333.312 435.732H336.576L336.786 439.482H333.153ZM337.054 439.482L336.786 435.732H340.05L340.687 439.482H337.054ZM341.475 439.428H340.947L340.318 435.678H343.581L343.842 436.75C344.262 438.25 343.162 439.428 341.475 439.428Z" fill="white"/>
<path d="M366.876 437.018L364.768 430.161C364.212 428.446 362.667 427 361.281 427H351.531C350.145 427 348.6 428.446 348.098 430.161L346.104 437.018C345.609 438.786 346.933 440.178 349.042 440.178H355.854V448H357.24V440.178H364.044C366.099 440.178 367.424 438.732 366.876 437.018ZM365.491 435.464H362.058L361.388 431.715H364.433L365.491 435.464ZM358.122 431.715H361.167L361.829 435.464H358.397L358.122 431.715ZM358.176 435.464H354.743L354.91 431.715H357.955L358.176 435.464ZM361.061 427.75C362.278 427.75 363.664 428.982 364.044 430.482L364.326 431.553H361.335L360.672 427.803L361.061 427.75ZM360.505 427.75L361.167 431.5H358.176L357.955 427.75H360.505ZM357.681 427.75L357.902 431.5H354.857L355.025 427.75H357.681ZM354.91 427.75L354.69 431.5H351.645L352.254 427.75H354.91ZM348.768 430.482C349.148 428.982 350.48 427.75 351.698 427.75H352.086L351.477 431.5H348.486L348.768 430.482ZM348.433 431.715H351.477L350.869 435.464H347.436L348.433 431.715ZM349.651 439.482C347.824 439.482 346.659 438.25 347.101 436.75L347.382 435.732H350.815L350.206 439.482H349.651ZM354.301 439.482H350.48L351.089 435.732H354.522L354.301 439.482ZM351.089 435.518L351.698 431.768H354.743L354.522 435.572H351.089V435.518ZM354.575 439.482L354.743 435.732H358.176L358.397 439.482H354.575ZM358.678 439.482L358.397 435.732H361.829L362.499 439.482H358.678ZM363.276 439.428H362.72L362.058 435.678H365.491L365.765 436.75C366.206 438.25 365.102 439.428 363.276 439.428Z" fill="white"/>
<path d="M366.43 578.503L366.318 445.058L324.867 445.112L324.978 578.557H323.409L323.357 496.993H318.864V489.938H290.184V496.993H285.855L285.907 578.557H283.906L283.795 409.35H281.905L280.656 405.985H277.517L268.539 396L259.554 405.985H256.416L255.174 409.35H253.493L253.604 578.557H249V588L370 587.892V578.449H366.43V578.503ZM257.821 420.095H265.401V430.84H257.821V420.095ZM257.881 440.445H265.453V451.19H257.881V440.445ZM257.881 460.742H265.453V471.487H257.881V460.742ZM257.881 481.038H265.453V491.783H257.881V481.038ZM257.881 501.334H265.453V512.079H257.881V501.334ZM257.933 521.685H265.505V532.375H257.933V521.685ZM257.933 572.426V541.981H265.505L265.564 572.426H257.933ZM278.603 420.095V430.84H271.024V420.149L278.603 420.095ZM271.024 440.391H278.603V451.137H271.024V440.391ZM271.083 460.742H278.655V471.487H271.083V460.742ZM271.083 481.038H278.655V491.783H271.083V481.038ZM271.135 501.334H278.715V512.079H271.135V501.334ZM271.135 521.63H278.715V532.321H271.135V521.63ZM271.135 552.672V541.981H278.715V552.726H271.135V552.672ZM291.805 505.35H302.196V513.87H291.805V505.35ZM302.196 521.468V530.042H291.857V521.522L302.196 521.468ZM291.805 537.639H302.144V546.159H291.753L291.805 537.639ZM302.196 553.866V562.386H291.805V553.866H302.196ZM302.196 578.557H291.857V570.037H302.248V578.557H302.196ZM309.879 505.295H320.218V513.816H309.827V505.295H309.879ZM320.27 521.468V529.988H309.931V521.468H320.27ZM320.27 537.639V546.159H309.931V537.639H320.27ZM313.725 578.557H309.931V553.866H320.322V578.612H313.725V578.557ZM330.817 453.579H341.156V462.099H330.765V453.579H330.817ZM330.817 469.805H341.208V478.325H330.817V469.805ZM330.877 485.976H341.208V494.496H330.817L330.877 485.976ZM330.877 502.148H341.208V510.668H330.817V502.148H330.877ZM330.877 518.32H341.208V526.84H330.817L330.877 518.32ZM330.877 534.492H341.208V543.012H330.817V534.492H330.877ZM330.929 574.921V550.664H341.319V574.921H330.929ZM359.282 453.579V462.099H348.891V453.579H359.282ZM359.282 469.75V478.27H348.891V469.75H359.282ZM348.891 485.976H359.282V494.551H348.891V485.976ZM348.951 502.094H359.282V510.614H348.951V502.094ZM348.951 518.32H359.334V526.84H348.951V518.32ZM348.951 534.492H359.282V543.012H348.891V534.492H348.951ZM348.951 559.184V550.664H359.334V559.184H348.951Z" fill="white"/>
<path d="M24.0115 554.713C24.0115 554.713 21.1002 550.549 18.0996 550.326C15.0985 550.102 12.5011 551.937 12.322 554.4C12.0979 556.907 24.0115 554.713 24.0115 554.713ZM17.7857 550.997C19.2188 551.087 21.1451 552.698 21.6826 553.191C21.0553 552.654 18.2788 550.683 13.8444 552.295C13.4412 552.43 16.1284 550.863 17.7857 550.997Z" fill="white"/>
<path d="M29.6099 565.459L22.3542 557.668L20.9659 557.937C21.1001 557.534 21.1894 557.131 21.1894 556.683C21.1894 556.281 21.1002 555.832 21.0103 555.474C20.4285 555.564 19.8012 555.609 19.1745 555.698C19.1295 557.086 18.9504 558.071 18.5921 558.832C18.2338 559.593 17.6514 560.22 16.8006 560.713C16.9348 560.713 17.0691 560.713 17.1589 560.713C17.8755 560.713 18.5022 560.533 19.0846 560.22L18.9054 561.116L19.3087 561.743L15.5466 566.667C15.0984 567.249 15.1883 568.1 15.7701 568.548C16.0391 568.727 16.3075 568.816 16.5765 568.816C16.9798 568.816 17.3824 568.637 17.6514 568.279L20.8311 564.16L23.3841 568.235L19.3979 569.936C19.3536 569.936 19.3087 569.981 19.2637 569.981H24.5039L25.0863 570.876L20.2493 581.756C19.891 582.607 20.2494 583.636 21.1001 583.994C21.3242 584.084 21.5477 584.129 21.7718 584.129C22.4434 584.129 23.0258 583.77 23.3392 583.099L30.2816 567.473C30.6399 566.802 30.3265 565.906 29.6099 565.459Z" fill="white"/>
<path d="M13.1279 556.683C13.1279 558.519 14.3819 560.086 16.0841 560.578C18.0098 559.593 18.6371 558.429 18.7264 555.698C17.6964 555.788 16.6659 555.877 15.7259 555.877C14.651 555.877 13.8445 555.788 13.2621 555.654C13.1729 555.967 13.1279 556.325 13.1279 556.683Z" fill="white"/>
<path d="M18.6813 577.099H18.7262H18.7711H19.2636C19.577 577.099 21.1001 577.099 21.1001 577.099H21.145C21.2343 577.144 21.3241 577.144 21.3685 577.234C21.5925 576.965 21.7268 576.562 21.7268 576.159V572.622L23.4739 571.861H18.323V576.115C18.3679 576.518 18.4578 576.831 18.6813 577.099Z" fill="white"/>
<path d="M18.5923 568.324C18.5923 568.145 18.5024 568.01 18.4131 567.921L17.9206 568.548C17.7858 568.682 17.6515 568.816 17.5173 568.951H18.0098C18.3232 568.906 18.5923 568.637 18.5923 568.324Z" fill="white"/>
<path d="M31.8041 575.532C30.9983 575.532 30.2817 575.666 29.5651 575.936L28.1768 573.159L27.5495 574.548L28.5351 576.428C27.012 577.413 25.9372 579.07 25.758 580.994H24.7281L24.1907 582.159H25.758C26.0714 585.248 28.6693 587.666 31.8491 587.666C35.2085 587.666 37.94 584.935 37.94 581.577C37.8957 578.264 35.1636 575.532 31.8041 575.532ZM29.0726 577.547L30.8191 580.994C30.8191 580.994 30.8191 580.994 30.8191 581.039H26.9228C27.102 579.607 27.9078 578.353 29.0726 577.547ZM31.8041 586.547C29.2961 586.547 27.2362 584.666 26.9228 582.203H30.8191C30.9982 582.562 31.4015 582.786 31.8041 582.786C32.4314 582.786 32.9689 582.248 32.9689 581.621C32.9689 580.994 32.4764 580.502 31.894 580.458L30.1474 577.01C30.6849 576.831 31.2223 576.697 31.8491 576.697C34.5812 576.697 36.7759 578.891 36.7759 581.621C36.731 584.353 34.4919 586.547 31.8041 586.547Z" fill="white"/>
<path d="M21.8169 584.532C21.5479 584.532 21.2345 584.487 20.9661 584.353C20.742 584.263 20.5629 584.129 20.4287 583.994C20.2495 584.219 20.2938 584.621 20.6521 584.711C21.4137 584.711 22.1752 584.711 22.8918 584.711C23.2051 584.621 23.295 584.263 23.1159 584.039C22.7576 584.353 22.3094 584.532 21.8169 584.532Z" fill="white"/>
<path d="M20.3386 579.92V578.264C20.5627 578.264 20.8311 578.264 21.0552 578.264C21.4584 578.129 21.4584 577.547 21.0552 577.413C20.2936 577.413 19.5327 577.413 18.8161 577.413C18.4129 577.547 18.4129 578.129 18.8161 578.264C19.0396 578.264 19.3086 578.264 19.5771 578.264V580.054L13.7994 572.13L14.0235 571.548H24.414L24.683 570.966L24.3247 570.384H14.516L15.0984 568.906H15.6358C15.5909 568.861 15.5466 568.861 15.5466 568.816C15.1883 568.548 14.9642 568.145 14.9193 567.697H14.7401C14.4717 567.697 14.2926 567.832 14.2027 568.055L10.978 575.756C10.4406 575.577 9.85821 575.488 9.2315 575.488C5.87204 575.488 3.13989 578.219 3.13989 581.577C3.13989 584.935 5.87204 587.666 9.2315 587.666C12.5903 587.666 15.3225 584.935 15.3225 581.577C15.3225 579.248 13.9786 577.189 12.0529 576.204L13.2177 573.383L19.6669 582.204H19.7562C19.8012 582.025 19.8461 581.845 19.9353 581.621L21.7268 577.547L20.3386 579.92ZM14.1577 581.621C14.1577 584.353 11.9636 586.547 9.2315 586.547C6.5443 586.547 4.30467 584.353 4.30467 581.621C4.30467 578.891 6.49936 576.697 9.2315 576.697C9.67906 576.697 10.0823 576.742 10.5299 576.876L9.05235 580.502C8.51491 580.592 8.11166 581.084 8.11166 581.621C8.11166 582.248 8.6491 582.786 9.2758 582.786C9.90312 582.786 10.4406 582.248 10.4406 581.621C10.4406 581.353 10.3507 581.084 10.1715 580.905L11.6497 577.324C13.1278 578.174 14.1577 579.786 14.1577 581.621Z" fill="white"/>
</g>
<defs>
<clipPath id="clip0">
<rect width="375" height="667" fill="white"/>
</clipPath>
</defs>
</svg>
