<svg width="1920" height="1080" viewBox="0 0 1920 1080" fill="none" xmlns="http://www.w3.org/2000/svg">
<path d="M990.984 831.855C990.984 835.997 993.866 839.328 997.467 839.508C998.457 841.309 1000.17 842.479 1002.24 842.479C1002.87 842.479 1003.59 842.299 1004.13 842.119C1005.39 844.82 1007.82 846.711 1010.7 846.711C1012.77 846.711 1014.66 845.72 1016.01 844.19C1017 845.18 1018.26 845.72 1019.62 845.72C1021.51 845.72 1023.13 844.73 1024.12 843.109C1024.75 843.649 1025.56 844.01 1026.46 844.01C1027.63 844.01 1028.62 843.379 1029.34 842.479C1034.2 844.46 1039.96 847.251 1045.28 851.122C1043.02 869.849 1036.54 885.605 1036.54 885.605H1051.22C1055 869.219 1055.63 846.981 1055.09 830.594C1059.5 826.813 1064.27 824.292 1067.42 822.942C1067.96 823.662 1068.77 824.112 1069.67 824.112C1070.48 824.112 1071.21 823.752 1071.75 823.212C1072.47 824.112 1073.55 824.652 1074.72 824.652C1076.34 824.652 1077.78 823.662 1078.41 822.131C1078.77 822.221 1079.13 822.311 1079.49 822.311C1080.57 822.311 1081.56 821.681 1082.19 820.601C1084.26 820.511 1085.88 818.62 1085.88 816.279C1085.88 813.938 1084.17 811.957 1082.1 811.957H1082.01C1081.74 811.057 1081.11 810.427 1080.21 810.337C1080.21 808.626 1079.04 807.276 1077.51 807.186C1077.06 807.186 1076.7 807.276 1076.34 807.456C1076.25 804.845 1074.45 802.774 1072.11 802.774C1070.21 802.774 1068.59 804.214 1068.05 806.195C1067.87 806.105 1067.6 806.105 1067.42 806.105C1065.8 806.105 1064.45 807.636 1064.45 809.436C1064.45 809.526 1064.45 809.526 1064.45 809.616C1063.37 809.797 1062.47 810.967 1062.47 812.227C1062.47 812.317 1062.47 812.317 1062.47 812.407C1060.85 812.948 1059.68 814.568 1059.59 816.639C1059.59 818.98 1061.21 820.961 1063.37 820.961C1060.76 824.202 1057.7 826.813 1055 828.434C1054.64 818.8 1053.92 810.247 1053.29 803.854C1054.82 803.044 1056.08 801.783 1057.07 800.253C1058.24 801.333 1059.77 801.873 1061.39 801.873C1064.9 801.873 1067.78 799.082 1068.5 795.391C1068.77 795.391 1068.95 795.391 1069.22 795.391C1076.34 795.391 1082.1 788.909 1082.1 780.895C1082.1 774.233 1078.14 768.561 1072.74 766.85C1072.74 766.67 1072.74 766.49 1072.74 766.31C1072.74 761.988 1069.94 758.297 1066.34 757.577C1066.34 757.396 1066.34 757.216 1066.34 757.036C1066.34 750.914 1062.02 745.872 1056.53 745.872C1055.81 745.872 1055.09 745.962 1054.46 746.142C1052.66 739.66 1047.35 734.978 1041.04 734.888C1033.39 734.888 1027.18 741.73 1026.91 750.374C1025.74 749.744 1024.39 749.383 1023.04 749.383C1018.08 749.383 1014.03 753.975 1013.94 759.647C1011.24 759.917 1008.9 762.078 1008.09 764.959C1008 764.959 1007.82 764.959 1007.73 764.959C1000.8 764.959 995.126 771.352 995.126 779.185C995.126 786.838 1000.44 793.14 1007.19 793.41C1008.99 796.742 1012.32 798.992 1016.01 798.992C1017.27 798.992 1018.45 798.722 1019.53 798.272C1021.78 803.314 1026.46 806.735 1031.86 806.735C1034.74 806.735 1037.44 805.745 1039.6 804.034C1045.55 819.97 1046.54 835.096 1045.37 847.791C1041.58 845.9 1037.26 843.109 1033.39 839.508C1035.73 838.247 1037.35 835.636 1037.35 832.485C1037.35 828.884 1035.28 825.823 1032.31 824.922C1032.31 824.832 1032.31 824.742 1032.31 824.652C1032.31 822.311 1030.87 820.331 1028.89 819.97C1028.89 819.88 1028.89 819.79 1028.89 819.7C1028.89 816.369 1026.55 813.668 1023.67 813.668C1023.31 813.668 1022.95 813.758 1022.59 813.758C1021.6 810.247 1018.72 807.726 1015.38 807.726C1011.24 807.726 1007.91 811.417 1007.82 816.009C1007.19 815.649 1006.47 815.469 1005.75 815.469C1003.05 815.469 1000.89 817.9 1000.89 820.961C999.448 821.141 998.187 822.311 997.737 823.842C997.647 823.842 997.647 823.842 997.557 823.842C994.046 824.112 990.984 827.623 990.984 831.855ZM1062.83 823.662C1063.01 823.482 1063.55 822.671 1064 821.681C1064.27 822.311 1064.81 822.852 1065.44 823.032C1064 823.302 1062.83 823.662 1062.83 823.662ZM1049.06 805.205C1049.15 812.047 1049.51 818.89 1049.51 818.89C1048.07 813.218 1045.19 807.276 1042.93 803.134C1044.65 804.394 1046.63 805.205 1048.79 805.205C1048.88 805.205 1048.97 805.205 1049.06 805.205ZM1030.24 840.948C1030.33 840.768 1030.33 840.678 1030.42 840.498C1030.51 840.498 1030.69 840.498 1030.78 840.498C1031.14 840.498 1031.5 840.408 1031.86 840.408C1032.22 840.858 1032.49 841.309 1032.67 841.399C1032.67 841.399 1031.68 841.219 1030.24 840.948Z" fill="white"/>
<path d="M1261.27 846.26C1261.27 849.322 1263.34 851.752 1266.04 851.843C1266.76 853.193 1268.02 854.003 1269.55 854.003C1270 854.003 1270.54 853.913 1270.9 853.733C1271.8 855.714 1273.6 857.065 1275.76 857.065C1277.29 857.065 1278.64 856.344 1279.63 855.264C1280.36 855.984 1281.26 856.344 1282.34 856.344C1283.69 856.344 1284.95 855.624 1285.67 854.454C1286.12 854.904 1286.75 855.084 1287.38 855.084C1288.19 855.084 1289 854.634 1289.45 854.003C1292.96 855.444 1297.19 857.515 1301.15 860.306C1299.53 873.991 1294.76 885.515 1294.76 885.515H1305.56C1308.36 873.541 1308.81 857.245 1308.36 845.27C1311.6 842.569 1315.11 840.678 1317.36 839.688C1317.81 840.228 1318.35 840.498 1318.98 840.498C1319.52 840.498 1320.06 840.228 1320.51 839.868C1321.05 840.498 1321.86 840.948 1322.67 840.948C1323.84 840.948 1324.92 840.228 1325.37 839.058C1325.64 839.148 1325.91 839.238 1326.18 839.238C1326.99 839.238 1327.71 838.788 1328.16 837.977C1329.6 837.887 1330.86 836.537 1330.86 834.826C1330.86 833.115 1329.6 831.675 1328.07 831.675H1327.98C1327.8 831.045 1327.26 830.594 1326.72 830.504C1326.72 829.244 1325.82 828.253 1324.74 828.253C1324.47 828.253 1324.11 828.344 1323.84 828.434C1323.75 826.543 1322.4 825.012 1320.69 825.012C1319.34 825.012 1318.08 826.003 1317.72 827.443C1317.54 827.443 1317.45 827.353 1317.27 827.353C1316.1 827.353 1315.11 828.434 1315.11 829.784C1315.11 829.874 1315.11 829.874 1315.11 829.874C1314.3 830.054 1313.67 830.864 1313.67 831.765V831.855C1312.5 832.215 1311.6 833.475 1311.6 834.916C1311.6 836.627 1312.77 838.067 1314.3 838.067C1312.41 840.408 1310.16 842.299 1308.18 843.469C1307.91 836.447 1307.37 830.234 1306.92 825.552C1308 824.922 1308.99 824.022 1309.71 822.941C1310.61 823.662 1311.69 824.112 1312.86 824.112C1315.38 824.112 1317.54 822.041 1318.08 819.34C1318.26 819.34 1318.44 819.34 1318.62 819.34C1323.84 819.34 1327.98 814.568 1327.98 808.716C1327.98 803.854 1325.1 799.713 1321.14 798.452C1321.14 798.362 1321.14 798.182 1321.14 798.092C1321.14 794.941 1319.16 792.24 1316.46 791.7C1316.46 791.609 1316.46 791.429 1316.46 791.339C1316.46 786.838 1313.31 783.236 1309.35 783.146C1308.81 783.146 1308.36 783.236 1307.82 783.326C1306.55 778.554 1302.59 775.133 1298 775.133C1292.42 775.133 1287.83 780.175 1287.65 786.478C1286.75 786.027 1285.85 785.757 1284.77 785.757C1281.08 785.757 1278.19 789.089 1278.1 793.23C1276.12 793.5 1274.41 795.031 1273.87 797.102C1273.78 797.102 1273.69 797.102 1273.6 797.102C1268.56 797.102 1264.42 801.783 1264.42 807.456C1264.42 813.038 1268.29 817.719 1273.24 817.9C1274.59 820.33 1276.93 821.951 1279.72 821.951C1280.63 821.951 1281.53 821.771 1282.34 821.411C1284.05 825.102 1287.38 827.623 1291.34 827.623C1293.41 827.623 1295.39 826.903 1297.01 825.642C1301.33 837.257 1302.05 848.331 1301.24 857.605C1298.54 856.254 1295.3 854.183 1292.51 851.482C1294.22 850.582 1295.39 848.601 1295.39 846.35C1295.39 843.739 1293.86 841.489 1291.7 840.858C1291.7 840.768 1291.7 840.678 1291.7 840.678C1291.7 838.968 1290.62 837.527 1289.18 837.257C1289.18 837.167 1289.18 837.077 1289.18 837.077C1289.18 834.646 1287.47 832.665 1285.31 832.665C1285.04 832.665 1284.77 832.665 1284.5 832.755C1283.78 830.234 1281.71 828.344 1279.18 828.344C1276.21 828.344 1273.69 831.045 1273.6 834.376C1273.15 834.106 1272.61 834.016 1272.07 834.016C1270.09 834.016 1268.47 835.816 1268.47 838.067C1267.39 838.157 1266.49 839.058 1266.22 840.138C1266.13 840.138 1266.13 840.138 1266.13 840.138C1263.52 840.678 1261.27 843.199 1261.27 846.26ZM1313.85 840.318C1314.03 840.138 1314.39 839.598 1314.75 838.878C1314.93 839.328 1315.38 839.688 1315.83 839.868C1314.66 840.048 1313.85 840.318 1313.85 840.318ZM1303.67 826.813C1303.76 831.855 1304.03 836.807 1304.03 836.807C1302.95 832.665 1300.88 828.344 1299.26 825.282C1300.52 826.273 1301.96 826.813 1303.49 826.813C1303.58 826.813 1303.67 826.813 1303.67 826.813ZM1289.99 852.923C1289.99 852.833 1290.08 852.743 1290.08 852.563C1290.17 852.563 1290.26 852.563 1290.35 852.563C1290.62 852.563 1290.89 852.563 1291.16 852.473C1291.43 852.833 1291.61 853.103 1291.79 853.193C1291.7 853.283 1290.98 853.103 1289.99 852.923Z" fill="white"/>
<path d="M750.683 763.339L720.791 659.889C714.849 639.181 705.035 639.181 699.003 659.889L669.112 763.429C663.89 781.526 672.983 796.741 689.73 800.343C694.862 811.507 700.534 824.922 702.965 830.864C701.614 861.566 700.354 885.695 700.354 885.695H719.531C719.531 885.695 718 857.965 716.65 824.112C719.351 817.629 723.222 808.806 726.824 800.883C745.551 798.632 756.265 782.696 750.683 763.339ZM694.141 800.883C695.222 800.973 696.302 801.063 697.382 801.063H704.135C703.955 806.645 703.685 812.227 703.505 817.629C700.624 812.497 697.202 806.555 694.141 800.883ZM715.66 801.063H722.322C720.251 804.845 718.09 808.716 716.02 812.317C715.93 808.536 715.75 804.845 715.66 801.063Z" fill="white"/>
<path d="M408.192 728.225L382.082 759.377V743.621C383.793 743.171 384.963 741.731 384.963 740.02C384.963 737.949 383.072 736.238 380.822 736.238H366.326C363.985 736.238 362.184 737.949 362.184 740.02C362.184 741.731 363.445 743.081 365.156 743.621V779.635L339.046 810.787H350.75V885.515H465.904V810.787H477.609L408.192 728.225ZM409.723 775.944H423.678V789.809H409.723V775.944ZM409.723 792.96H423.678V806.915H409.723V792.96ZM392.526 775.944H406.481V789.809H392.526V775.944ZM392.526 792.96H406.481V806.915H392.526V792.96ZM424.308 878.853H391.896V846.711C391.896 837.797 399.189 830.594 408.102 830.594C417.015 830.594 424.308 837.797 424.308 846.711V878.853Z" fill="white"/>
<path d="M515.423 773.783L496.876 795.931V784.767C498.046 784.407 498.946 783.416 498.946 782.246C498.946 780.805 497.596 779.545 495.975 779.545H485.711C484.091 779.545 482.74 780.715 482.74 782.246C482.74 783.416 483.641 784.497 484.811 784.767V810.337L466.264 832.485H474.547V885.515H556.298V832.485H564.581L515.423 773.783ZM516.593 807.726H526.497V817.629H516.593V807.726ZM516.593 819.79H526.497V829.694H516.593V819.79ZM504.348 807.726H514.252V817.629H504.348V807.726ZM504.348 819.79H514.252V829.694H504.348V819.79ZM526.947 880.744H503.988V857.965C503.988 851.662 509.12 846.53 515.513 846.53C521.905 846.53 527.037 851.662 527.037 857.965V880.744H526.947Z" fill="white"/>
<path d="M341.296 693.382V681.227H328.962V670.693H320.498L296.459 647.735L272.42 670.693H263.957V681.227H251.622V693.382H262.606V873.451H251.622V885.606H341.296V873.451H330.312V693.382H341.296ZM311.675 848.421V836.087H322.659V848.421H311.675ZM322.659 851.212V863.547H311.675V851.212H322.659ZM311.675 833.296V820.961H322.659V833.296H311.675ZM311.675 818.17V805.835H322.659V818.17H311.675ZM311.675 803.044V790.709H322.659V803.044H311.675ZM311.675 787.918V775.583H322.659V787.918H311.675ZM311.675 772.792V760.458H322.659V772.792H311.675ZM311.675 757.757V745.422H322.659V757.757H311.675ZM311.675 742.631V730.296H322.659V742.631H311.675ZM311.675 727.505V715.17H322.659V727.505H311.675ZM311.675 712.379V700.045H322.659V712.379H311.675ZM297.9 848.421V836.087H308.884V848.421H297.9ZM308.884 851.212V863.547H297.9V851.212H308.884ZM297.9 833.296V820.961H308.884V833.296H297.9ZM297.9 818.17V805.835H308.884V818.17H297.9ZM297.9 803.044V790.709H308.884V803.044H297.9ZM297.9 787.918V775.583H308.884V787.918H297.9ZM297.9 772.792V760.458H308.884V772.792H297.9ZM297.9 757.757V745.422H308.884V757.757H297.9ZM297.9 742.631V730.296H308.884V742.631H297.9ZM297.9 727.505V715.17H308.884V727.505H297.9ZM297.9 712.379V700.045H308.884V712.379H297.9ZM284.034 848.421V836.087H295.019V848.421H284.034ZM295.019 851.212V863.547H284.034V851.212H295.019ZM284.034 833.296V820.961H295.019V833.296H284.034ZM284.034 818.17V805.835H295.019V818.17H284.034ZM284.034 803.044V790.709H295.019V803.044H284.034ZM284.034 787.918V775.583H295.019V787.918H284.034ZM284.034 772.792V760.458H295.019V772.792H284.034ZM284.034 757.757V745.422H295.019V757.757H284.034ZM284.034 742.631V730.296H295.019V742.631H284.034ZM284.034 727.505V715.17H295.019V727.505H284.034ZM284.034 712.379V700.045H295.019V712.379H284.034ZM270.169 848.421V836.087H281.153V848.421H270.169ZM281.243 851.212V863.547H270.259V851.212H281.243ZM270.169 833.296V820.961H281.153V833.296H270.169ZM270.169 818.17V805.835H281.153V818.17H270.169ZM270.169 803.044V790.709H281.153V803.044H270.169ZM270.169 787.918V775.583H281.153V787.918H270.169ZM270.169 772.792V760.458H281.153V772.792H270.169ZM270.169 757.757V745.422H281.153V757.757H270.169ZM270.169 742.631V730.296H281.153V742.631H270.169ZM270.169 727.505V715.17H281.153V727.505H270.169ZM270.169 712.379V700.045H281.153V712.379H270.169Z" fill="white"/>
<path d="M997.467 693.382V681.227H985.133V670.693H976.669L952.63 647.735L928.591 670.693H920.128V681.227H907.793V693.382H918.777V873.451H907.793V885.606H997.467V873.451H986.483V693.382H997.467ZM967.846 848.421V836.087H978.83V848.421H967.846ZM978.92 851.212V863.547H967.846V851.212H978.92ZM967.846 833.296V820.961H978.83V833.296H967.846ZM967.846 818.17V805.835H978.83V818.17H967.846ZM967.846 803.044V790.709H978.83V803.044H967.846ZM967.846 787.918V775.583H978.83V787.918H967.846ZM967.846 772.792V760.458H978.83V772.792H967.846ZM967.846 757.757V745.422H978.83V757.757H967.846ZM967.846 742.631V730.296H978.83V742.631H967.846ZM967.846 727.505V715.17H978.83V727.505H967.846ZM967.846 712.379V700.045H978.83V712.379H967.846ZM954.071 848.421V836.087H965.055V848.421H954.071ZM965.055 851.212V863.547H954.071V851.212H965.055ZM954.071 833.296V820.961H965.055V833.296H954.071ZM954.071 818.17V805.835H965.055V818.17H954.071ZM954.071 803.044V790.709H965.055V803.044H954.071ZM954.071 787.918V775.583H965.055V787.918H954.071ZM954.071 772.792V760.458H965.055V772.792H954.071ZM954.071 757.757V745.422H965.055V757.757H954.071ZM954.071 742.631V730.296H965.055V742.631H954.071ZM954.071 727.505V715.17H965.055V727.505H954.071ZM954.071 712.379V700.045H965.055V712.379H954.071ZM940.205 848.421V836.087H951.19V848.421H940.205ZM951.28 851.212V863.547H940.295V851.212H951.28ZM940.205 833.296V820.961H951.19V833.296H940.205ZM940.205 818.17V805.835H951.19V818.17H940.205ZM940.205 803.044V790.709H951.19V803.044H940.205ZM940.205 787.918V775.583H951.19V787.918H940.205ZM940.205 772.792V760.458H951.19V772.792H940.205ZM940.205 757.757V745.422H951.19V757.757H940.205ZM940.205 742.631V730.296H951.19V742.631H940.205ZM940.205 727.505V715.17H951.19V727.505H940.205ZM940.205 712.379V700.045H951.19V712.379H940.205ZM926.43 848.421V836.087H937.414V848.421H926.43ZM937.414 851.212V863.547H926.43V851.212H937.414ZM926.43 833.296V820.961H937.414V833.296H926.43ZM926.43 818.17V805.835H937.414V818.17H926.43ZM926.43 803.044V790.709H937.414V803.044H926.43ZM926.43 787.918V775.583H937.414V787.918H926.43ZM926.43 772.792V760.458H937.414V772.792H926.43ZM926.43 757.757V745.422H937.414V757.757H926.43ZM926.43 742.631V730.296H937.414V742.631H926.43ZM926.43 727.505V715.17H937.414V727.505H926.43ZM926.43 712.379V700.045H937.414V712.379H926.43Z" fill="white"/>
<path d="M746.721 856.074C738.528 856.074 731.866 862.647 731.866 870.84C731.866 878.943 738.528 885.606 746.721 885.606C754.915 885.606 761.577 879.033 761.577 870.84C761.487 862.737 754.825 856.074 746.721 856.074ZM746.721 877.322C743.12 877.322 740.149 874.441 740.149 870.84C740.149 867.239 743.12 864.357 746.721 864.357C750.323 864.357 753.294 867.239 753.294 870.84C753.204 874.441 750.323 877.322 746.721 877.322Z" fill="white"/>
<path d="M811.636 856.074C803.443 856.074 796.781 862.647 796.781 870.84C796.781 878.943 803.443 885.606 811.636 885.606C819.829 885.606 826.492 879.033 826.492 870.84C826.492 862.737 819.829 856.074 811.636 856.074ZM811.636 877.322C808.035 877.322 805.064 874.441 805.064 870.84C805.064 867.239 808.035 864.357 811.636 864.357C815.238 864.357 818.209 867.239 818.209 870.84C818.209 874.441 815.328 877.322 811.636 877.322Z" fill="white"/>
<path d="M836.216 840.408H833.425C833.425 840.318 833.425 840.228 833.335 840.138L826.582 819.16C826.222 817.9 824.962 816.909 823.431 816.639C775.983 806.105 752.844 816.639 752.844 816.639C751.313 816.909 750.143 817.81 749.693 819.16L742.94 840.138C742.94 840.228 742.85 840.318 742.85 840.408H723.223C720.522 840.408 718.361 841.939 718.361 843.83V861.566H716.56C715.93 861.566 715.39 862.377 715.39 863.457V871.29C715.39 872.28 715.93 873.181 716.56 873.181H718.631C719.351 874.441 721.062 875.432 723.133 875.432H729.975C729.615 873.991 729.345 872.551 729.345 871.02C729.345 861.656 736.998 854.003 746.452 854.003C755.905 854.003 763.558 861.656 763.558 871.02C763.558 872.551 763.378 874.081 762.928 875.432H794.98C794.62 873.991 794.35 872.551 794.35 871.02C794.35 861.656 802.003 854.003 811.456 854.003C820.91 854.003 828.563 861.656 828.563 871.02C828.563 872.551 828.383 874.081 827.933 875.432H836.036C838.737 875.432 840.898 873.901 840.898 872.01V844.01C841.078 841.939 838.917 840.408 836.216 840.408ZM789.218 818.98H813.257C814.518 818.98 815.598 819.79 815.958 820.961L820.64 836.987C820.91 837.797 820.73 838.698 820.19 839.328C819.65 839.958 818.839 840.408 817.939 840.408H789.128V818.98H789.218ZM756.175 839.328C755.635 838.698 755.455 837.797 755.725 836.987L760.407 820.961C760.767 819.79 761.847 818.98 763.108 818.98H787.147V840.318H758.336C757.616 840.408 756.716 839.958 756.175 839.328Z" fill="white"/>
<path d="M178.514 876.602L178.604 715.981H148.533L148.443 876.602H146.462L146.552 799.173H109.368L109.278 876.602H107.657L107.747 749.924H66.6014V876.512H63V885.516L183.016 885.606V876.692L178.514 876.602ZM166.72 726.155H174.283V736.328H166.81L166.72 726.155ZM166.72 745.422H174.193V755.596H166.72V745.422ZM166.72 764.689H174.193V774.863H166.72V764.689ZM166.72 784.047H174.193V794.221H166.72V784.047ZM166.72 803.314H174.193V813.488H166.72V803.314ZM166.63 822.581H174.102V832.755H166.54L166.63 822.581ZM166.63 841.849H174.102V870.75H166.63V841.849ZM153.665 726.155H161.138V736.328H153.665V726.155ZM153.665 745.422H161.138V755.596H153.665V745.422ZM153.575 764.689H161.047V774.863H153.575V764.689ZM153.575 784.047H161.047V794.221H153.575V784.047ZM153.575 803.314H161.047V813.488H153.575V803.314ZM153.575 822.581H161.047V832.755H153.575V822.581ZM153.575 841.849H161.047V852.023H153.575V841.849ZM91.5409 757.937H101.805V766.04H91.5409V757.937ZM91.5409 773.333H101.805V781.436H91.5409V773.333ZM91.5409 788.638H101.805V796.742H91.5409V788.638ZM91.5409 804.034H101.805V812.137H91.5409V804.034ZM91.5409 819.34H101.805V827.443H91.5409V819.34ZM91.5409 834.736H101.805V842.839H91.5409V834.736ZM91.5409 850.132H101.805V873.181H91.4509L91.5409 850.132ZM73.6241 757.937H83.888V766.04H73.6241V757.937ZM73.6241 773.333H83.888V781.436H73.6241V773.333ZM73.6241 788.638H83.888V796.742H73.6241V788.638ZM73.6241 804.034H83.888V812.137H73.6241V804.034ZM73.6241 819.34H83.888V827.443H73.6241V819.34ZM73.6241 834.736H83.888V842.839H73.6241V834.736ZM73.534 850.132H83.798V858.235H73.534V850.132ZM130.256 807.005H140.52V815.109H130.256V807.005ZM130.256 822.401H140.52V830.504H130.256V822.401ZM130.256 837.797H140.52V845.9H130.256V837.797ZM130.256 853.103H140.52V861.206H130.256V853.103ZM130.256 868.499H140.52V876.602H130.256V868.499ZM112.339 807.005H122.603V815.109H112.339V807.005ZM112.339 822.401H122.603V830.504H112.339V822.401ZM112.339 837.707H122.603V845.81H112.339V837.707ZM112.339 853.103H122.603V876.512H118.821H112.249L112.339 853.103Z" fill="white"/>
<path d="M260.626 757.757V745.692H180.945V757.757H186.887V873.451H183.016V885.606H258.555V873.451H254.683V757.757H260.626ZM236.046 760.548H247.03V772.883H236.046V760.548ZM236.046 775.674H247.03V788.008H236.046V775.674ZM236.046 790.709H247.03V803.044H236.046V790.709ZM236.046 805.835H247.03V818.17H236.046V805.835ZM236.046 820.961H247.03V833.296H236.046V820.961ZM236.046 836.087H247.03V848.421H236.046V836.087ZM236.046 851.212H247.03V863.547H236.046V851.212ZM222.271 760.548H233.255V772.883H222.271V760.548ZM222.271 775.674H233.255V788.008H222.271V775.674ZM222.271 790.709H233.255V803.044H222.271V790.709ZM222.271 805.835H233.255V818.17H222.271V805.835ZM222.271 820.961H233.255V833.296H222.271V820.961ZM222.271 836.087H233.255V848.421H222.271V836.087ZM222.271 851.212H233.255V863.547H222.271V851.212ZM208.406 760.548H219.39V772.883H208.406V760.548ZM208.406 775.674H219.39V788.008H208.406V775.674ZM208.406 790.709H219.39V803.044H208.406V790.709ZM208.406 805.835H219.39V818.17H208.406V805.835ZM208.406 820.961H219.39V833.296H208.406V820.961ZM208.406 836.087H219.39V848.421H208.406V836.087ZM208.406 851.212H219.39V863.547H208.406V851.212ZM194.54 760.548H205.524V772.883H194.54V760.548ZM194.54 775.674H205.524V788.008H194.54V775.674ZM194.54 790.709H205.524V803.044H194.54V790.709ZM194.54 805.835H205.524V818.17H194.54V805.835ZM194.54 820.961H205.524V833.296H194.54V820.961ZM194.54 836.087H205.524V848.421H194.54V836.087ZM194.54 851.212H205.524V863.547H194.54V851.212Z" fill="white"/>
<path d="M221.01 729.396L217.139 716.611C216.148 713.37 213.357 710.759 210.836 710.759H193.19C190.669 710.759 187.878 713.46 186.887 716.701L183.286 729.486C182.386 732.727 184.726 735.428 188.598 735.428H200.843V749.924H203.364V735.338H215.698C219.57 735.338 221.911 732.637 221.01 729.396ZM218.399 726.515H212.187L210.927 719.492H216.419L218.399 726.515ZM205.164 719.492H210.656L211.827 726.515H205.614L205.164 719.492ZM205.164 726.605H198.952L199.312 719.582H204.804L205.164 726.605ZM210.386 712.109C212.637 712.109 215.068 714.36 215.788 717.151L216.329 719.132H210.836L209.576 712.109H210.386ZM209.396 712.109L210.566 719.132H205.074L204.624 712.109H209.396ZM204.354 712.109L204.804 719.132H199.312L199.582 712.109H204.354ZM199.312 712.109L198.952 719.132H193.55L194.63 712.109H199.312ZM188.238 717.151C188.958 714.36 191.389 712.109 193.55 712.109H194.27L193.19 719.132H187.698L188.238 717.151ZM187.608 719.582H193.1L192.019 726.605H185.807L187.608 719.582ZM189.858 733.987C186.617 733.987 184.546 731.737 185.267 728.946L185.807 726.965H192.019L190.849 733.987H189.858ZM198.232 733.987H191.299L192.379 726.965H198.592L198.232 733.987ZM192.379 726.605L193.46 719.582H198.952L198.592 726.605H192.379ZM198.682 733.987L199.042 726.965H205.254L205.614 733.987H198.682ZM206.065 733.987L205.614 726.965H211.827L212.997 733.987H206.065ZM214.438 733.987H213.447L212.277 726.965H218.489L219.03 728.946C219.75 731.737 217.769 733.987 214.438 733.987Z" fill="white"/>
<path d="M260.265 729.396L256.394 716.611C255.403 713.37 252.612 710.759 250.091 710.759H232.445C229.924 710.759 227.133 713.46 226.232 716.701L222.541 729.486C221.64 732.727 223.981 735.428 227.853 735.428H240.098V749.924H242.618V735.338H254.953C258.915 735.338 261.256 732.637 260.265 729.396ZM257.744 726.515H251.532L250.361 719.492H255.854L257.744 726.515ZM244.419 719.492H249.911L251.082 726.515H244.869L244.419 719.492ZM244.509 726.605H238.297L238.567 719.582H244.059L244.509 726.605ZM249.731 712.109C251.982 712.109 254.413 714.36 255.133 717.151L255.673 719.132H250.181L248.921 712.109H249.731ZM248.741 712.109L249.911 719.132H244.419L243.969 712.109H248.741ZM243.699 712.109L244.149 719.132H238.657L238.927 712.109H243.699ZM238.657 712.109L238.297 719.132H232.805L233.885 712.109H238.657ZM227.583 717.151C228.303 714.36 230.734 712.109 232.895 712.109H233.615L232.535 719.132H227.043L227.583 717.151ZM226.953 719.582H232.445L231.364 726.605H225.152L226.953 719.582ZM229.113 733.987C225.872 733.987 223.801 731.737 224.522 728.946L225.062 726.965H231.274L230.194 733.987H229.113ZM237.577 733.987H230.644L231.724 726.965H237.937L237.577 733.987ZM231.724 726.605L232.805 719.582H238.297L237.937 726.605H231.724ZM238.027 733.987L238.297 726.965H244.509L244.869 733.987H238.027ZM245.41 733.987L244.959 726.965H251.172L252.342 733.987H245.41ZM253.783 733.987H252.792L251.622 726.965H257.834L258.374 728.946C259.095 731.737 257.024 733.987 253.783 733.987Z" fill="white"/>
<path d="M916.076 757.757V745.692H836.396V757.757H842.338V873.451H838.467V885.606H914.005V873.451H910.134V757.757H916.076ZM891.497 760.548H902.481V772.883H891.497V760.548ZM891.497 775.674H902.481V788.008H891.497V775.674ZM891.497 790.709H902.481V803.044H891.497V790.709ZM891.497 805.835H902.481V818.17H891.497V805.835ZM891.497 820.961H902.481V833.296H891.497V820.961ZM891.497 836.087H902.481V848.421H891.497V836.087ZM891.497 851.212H902.481V863.547H891.497V851.212ZM877.722 760.548H888.706V772.883H877.722V760.548ZM877.722 775.674H888.706V788.008H877.722V775.674ZM877.722 790.709H888.706V803.044H877.722V790.709ZM877.722 805.835H888.706V818.17H877.722V805.835ZM877.722 820.961H888.706V833.296H877.722V820.961ZM877.722 836.087H888.706V848.421H877.722V836.087ZM877.722 851.212H888.706V863.547H877.722V851.212ZM863.856 760.548H874.84V772.883H863.856V760.548ZM863.856 775.674H874.84V788.008H863.856V775.674ZM863.856 790.709H874.84V803.044H863.856V790.709ZM863.856 805.835H874.84V818.17H863.856V805.835ZM863.856 820.961H874.84V833.296H863.856V820.961ZM863.856 836.087H874.84V848.421H863.856V836.087ZM863.856 851.212H874.84V863.547H863.856V851.212ZM850.081 760.548H861.065V772.883H850.081V760.548ZM850.081 775.674H861.065V788.008H850.081V775.674ZM850.081 790.709H861.065V803.044H850.081V790.709ZM850.081 805.835H861.065V818.17H850.081V805.835ZM850.081 820.961H861.065V833.296H850.081V820.961ZM850.081 836.087H861.065V848.421H850.081V836.087ZM850.081 851.212H861.065V863.547H850.081V851.212Z" fill="white"/>
<path d="M876.461 729.396L872.589 716.611C871.599 713.37 868.808 710.759 866.287 710.759H848.64C846.119 710.759 843.328 713.46 842.338 716.701L838.736 729.486C837.836 732.727 840.177 735.428 844.049 735.428H856.293V749.924H858.814V735.338H871.149C875.02 735.338 877.451 732.637 876.461 729.396ZM873.85 726.515H867.638L866.467 719.492H871.959L873.85 726.515ZM860.615 719.492H866.107L867.277 726.515H861.065L860.615 719.492ZM860.615 726.605H854.403L854.763 719.582H860.255L860.615 726.605ZM865.837 712.109C868.088 712.109 870.519 714.36 871.239 717.151L871.779 719.132H866.287L865.027 712.109H865.837ZM864.846 712.109L866.017 719.132H860.525L860.075 712.109H864.846ZM859.805 712.109L860.255 719.132H854.763L855.033 712.109H859.805ZM854.763 712.109L854.403 719.132H849L850.081 712.109H854.763ZM843.688 717.151C844.409 714.36 846.84 712.109 849 712.109H849.721L848.64 719.132H843.148L843.688 717.151ZM843.058 719.582H848.55L847.47 726.605H841.258L843.058 719.582ZM845.309 733.987C842.068 733.987 839.997 731.737 840.717 728.946L841.258 726.965H847.47L846.299 733.987H845.309ZM853.682 733.987H846.75L847.83 726.965H854.042L853.682 733.987ZM847.83 726.605L848.91 719.582H854.403L854.042 726.605H847.83ZM854.132 733.987L854.403 726.965H860.615L860.975 733.987H854.132ZM861.515 733.987L861.065 726.965H867.277L868.448 733.987H861.515ZM869.978 733.987H868.988L867.818 726.965H874.03L874.57 728.946C875.2 731.737 873.22 733.987 869.978 733.987Z" fill="white"/>
<path d="M915.716 729.396L911.845 716.611C910.854 713.37 908.063 710.759 905.542 710.759H887.896C885.375 710.759 882.584 713.46 881.683 716.701L877.992 729.486C877.092 732.727 879.432 735.428 883.304 735.428H895.549V749.924H898.07V735.338H910.404C914.366 735.338 916.707 732.637 915.716 729.396ZM913.195 726.515H906.983L905.722 719.492H911.214L913.195 726.515ZM899.87 719.492H905.362L906.533 726.515H900.32L899.87 719.492ZM899.96 726.605H893.748L894.018 719.582H899.51L899.96 726.605ZM905.182 712.109C907.433 712.109 909.864 714.36 910.584 717.151L911.124 719.132H905.632L904.372 712.109H905.182ZM904.192 712.109L905.362 719.132H899.87L899.42 712.109H904.192ZM899.15 712.109L899.6 719.132H894.108L894.378 712.109H899.15ZM894.108 712.109L893.748 719.132H888.256L889.336 712.109H894.108ZM883.034 717.151C883.754 714.36 886.185 712.109 888.346 712.109H889.066L887.986 719.132H882.494L883.034 717.151ZM882.404 719.582H887.896L886.815 726.605H880.603L882.404 719.582ZM884.564 733.987C881.323 733.987 879.252 731.737 879.973 728.946L880.513 726.965H886.725L885.645 733.987H884.564ZM893.028 733.987H886.095L887.175 726.965H893.388L893.028 733.987ZM887.175 726.605L888.256 719.582H893.748L893.388 726.605H887.175ZM893.478 733.987L893.748 726.965H899.96L900.32 733.987H893.478ZM900.861 733.987L900.41 726.965H906.623L907.793 733.987H900.861ZM909.234 733.987H908.243L907.073 726.965H913.285L913.826 728.946C914.546 731.737 912.475 733.987 909.234 733.987Z" fill="white"/>
<path d="M1226.51 661.15L1223.45 650.886C1222.64 648.275 1220.39 646.114 1218.32 646.114H1204.1C1202.11 646.114 1199.77 648.275 1199.05 650.886L1196.08 661.15C1195.36 663.761 1197.25 665.921 1200.4 665.921H1210.31V677.716H1212.29V666.011H1222.28C1225.43 665.921 1227.32 663.851 1226.51 661.15ZM1224.44 658.899H1219.49L1218.5 653.226H1222.91L1224.44 658.899ZM1213.82 653.226H1218.23L1219.13 658.899H1214.18L1213.82 653.226ZM1213.82 658.899H1208.87L1209.14 653.226H1213.55L1213.82 658.899ZM1218.05 647.194C1219.85 647.194 1221.83 648.995 1222.46 651.246L1222.91 652.776H1218.5L1217.51 647.104L1218.05 647.194ZM1217.24 647.284L1218.14 652.956H1213.73L1213.37 647.284H1217.24ZM1213.19 647.284L1213.55 652.956H1209.14L1209.41 647.284H1213.19ZM1209.14 647.284L1208.87 652.956H1204.46L1205.27 647.284H1209.14ZM1200.13 651.336C1200.67 649.085 1202.66 647.284 1204.46 647.284H1205L1204.1 652.956H1199.68L1200.13 651.336ZM1199.68 653.226H1204.1L1203.2 658.899H1198.24L1199.68 653.226ZM1201.48 664.931C1198.87 664.931 1197.16 663.13 1197.79 660.879L1198.15 659.349H1203.2L1202.3 665.021H1201.48V664.931ZM1208.24 664.931H1202.66L1203.47 659.259H1208.51L1208.24 664.931ZM1203.56 658.899L1204.37 653.226H1208.78L1208.51 658.899H1203.56ZM1208.6 664.841L1208.87 659.169H1213.91L1214.27 664.841H1208.6ZM1214.54 664.841L1214.18 659.169H1219.22L1220.12 664.841H1214.54ZM1221.29 664.841H1220.48L1219.49 659.169H1224.53L1224.98 660.789C1225.61 663.04 1223.9 664.841 1221.29 664.841Z" fill="white"/>
<path d="M1258.21 661.15L1255.14 650.886C1254.33 648.275 1252.08 646.114 1250.01 646.114H1235.79C1233.81 646.114 1231.47 648.275 1230.75 650.886L1227.77 661.15C1227.05 663.761 1228.94 665.921 1232.1 665.921H1242V677.716H1243.98V666.011H1253.97C1257.13 665.921 1259.02 663.851 1258.21 661.15ZM1256.14 658.899H1251.09L1250.1 653.226H1254.51L1256.14 658.899ZM1245.42 653.226H1249.83L1250.73 658.899H1245.78L1245.42 653.226ZM1245.51 658.899H1240.56L1240.83 653.226H1245.24L1245.51 658.899ZM1249.74 647.194C1251.54 647.194 1253.52 648.995 1254.15 651.246L1254.6 652.776H1250.19L1249.2 647.104L1249.74 647.194ZM1248.93 647.284L1249.83 652.956H1245.42L1245.06 647.284H1248.93ZM1244.79 647.284L1245.15 652.956H1240.74L1241.01 647.284H1244.79ZM1240.74 647.284L1240.47 652.956H1236.06L1236.96 647.284H1240.74ZM1231.83 651.336C1232.37 649.085 1234.35 647.284 1236.15 647.284H1236.69L1235.79 652.956H1231.38L1231.83 651.336ZM1231.38 653.226H1235.79L1234.89 658.899H1229.94L1231.38 653.226ZM1233.09 664.931C1230.48 664.931 1228.76 663.13 1229.4 660.879L1229.85 659.349H1234.89L1233.99 665.021H1233.09V664.931ZM1239.93 664.931H1234.35L1235.16 659.259H1240.2L1239.93 664.931ZM1235.25 658.899L1236.06 653.226H1240.47L1240.2 658.899H1235.25ZM1240.29 664.841L1240.56 659.169H1245.6L1245.96 664.841H1240.29ZM1246.23 664.841L1245.87 659.169H1250.91L1251.81 664.841H1246.23ZM1252.98 664.841H1252.17L1251.18 659.169H1256.23L1256.68 660.789C1257.31 663.04 1255.59 664.841 1252.98 664.841Z" fill="white"/>
<path d="M1258.12 871.38L1257.94 673.034L1196.17 673.124L1196.35 871.38H1194.01L1193.92 750.194H1187.26V739.66H1144.49V750.194H1138.1L1138.19 871.38H1135.22L1135.04 620.004H1132.25L1130.45 614.962H1125.77L1112.44 600.106L1099.12 614.962H1094.43L1092.63 620.004H1090.11L1090.29 871.38H1083.45V885.425L1263.79 885.335V871.29H1258.12V871.38ZM1096.41 636.12H1107.67V652.056H1096.41V636.12ZM1096.41 666.282H1107.67V682.218H1096.41V666.282ZM1096.41 696.443H1107.67V712.379H1096.41V696.443ZM1096.41 726.605H1107.67V742.541H1096.41V726.605ZM1096.5 756.766H1107.76V772.702H1096.5V756.766ZM1096.5 786.928H1107.76V802.864H1096.5V786.928ZM1096.5 862.376V817.089H1107.76V862.376H1096.5ZM1127.39 636.03V651.966H1116.13V636.03H1127.39ZM1116.04 666.282H1127.3V682.218H1116.04V666.282ZM1116.13 696.443H1127.39V712.379H1116.13V696.443ZM1116.13 726.605H1127.39V742.541H1116.13V726.605ZM1116.13 756.766H1127.39V772.702H1116.13V756.766ZM1116.13 786.928H1127.39V802.864H1116.13V786.928ZM1116.22 833.025V817.089H1127.48V833.025H1116.22ZM1147.01 762.708H1162.5V775.403H1147.01V762.708ZM1162.41 786.658V799.352H1147.01V786.658H1162.41ZM1147.01 810.697H1162.41V823.392H1146.92L1147.01 810.697ZM1162.5 834.826V847.521H1147.01V834.826H1162.5ZM1162.5 871.47H1147.1V858.775H1162.59V871.47H1162.5ZM1173.93 762.618H1189.33V775.313H1173.84V762.618H1173.93ZM1189.42 786.658V799.352H1174.02V786.658H1189.42ZM1189.42 810.697V823.392H1174.02V810.697H1189.42ZM1179.61 871.47H1174.02V834.736H1189.51V871.47H1179.61ZM1205.18 685.819H1220.57V698.514H1205.09V685.819H1205.18ZM1205.18 709.858H1220.66V722.553H1205.18V709.858ZM1205.18 733.897H1220.57V746.592H1205.09L1205.18 733.897ZM1205.18 757.937H1220.57V770.631H1205.09V757.937H1205.18ZM1205.18 781.976H1220.57V794.671H1205.09L1205.18 781.976ZM1205.27 806.015H1220.66V818.71H1205.18V806.015H1205.27ZM1205.27 866.158V830.054H1220.75V866.158H1205.27ZM1247.49 685.819V698.514H1232.01V685.819H1247.49ZM1247.49 709.858V722.553H1232.01V709.858H1247.49ZM1232.1 733.897H1247.58V746.592H1232.1V733.897ZM1232.1 757.937H1247.49V770.631H1232.1V757.937ZM1232.19 781.976H1247.67V794.671H1232.19V781.976ZM1232.19 806.015H1247.58V818.71H1232.1V806.015H1232.19ZM1232.19 842.749V830.054H1247.67V842.749H1232.19Z" fill="white"/>
<path d="M678.835 826.093C678.835 826.093 673.613 818.62 668.121 818.17C662.719 817.81 658.037 821.051 657.677 825.553C657.407 830.054 678.835 826.093 678.835 826.093ZM667.671 819.43C670.282 819.61 673.703 822.491 674.694 823.392C673.523 822.401 668.571 818.89 660.558 821.771C659.838 821.951 664.61 819.16 667.671 819.43Z" fill="white"/>
<path d="M688.919 845.45L675.864 831.405L673.433 831.855C673.703 831.135 673.794 830.414 673.794 829.604C673.794 828.884 673.703 828.074 673.433 827.443C672.443 827.533 671.273 827.713 670.102 827.803C670.012 830.324 669.742 832.035 669.022 833.476C668.391 834.826 667.311 835.907 665.78 836.897C665.961 836.897 666.231 836.897 666.501 836.897C667.761 836.897 668.932 836.537 669.922 835.997L669.562 837.617L670.282 838.788L663.53 847.611C662.719 848.691 662.899 850.222 663.98 851.032C664.43 851.392 664.97 851.573 665.42 851.573C666.141 851.573 666.861 851.212 667.311 850.582L672.983 843.199L677.575 850.492L670.372 853.553C670.282 853.553 670.192 853.643 670.192 853.643H679.736L680.726 855.264L671.993 874.891C671.273 876.422 671.993 878.223 673.523 878.943C673.884 879.123 674.334 879.213 674.784 879.213C675.954 879.213 677.035 878.493 677.575 877.412L690.09 849.322C690.81 847.881 690.27 846.261 688.919 845.45Z" fill="white"/>
<path d="M659.208 829.604C659.208 832.935 661.459 835.817 664.52 836.627C667.941 834.826 669.111 832.755 669.292 827.894C667.491 828.074 665.6 828.164 663.89 828.164C661.999 828.164 660.468 827.984 659.388 827.713C659.298 828.344 659.208 828.974 659.208 829.604Z" fill="white"/>
<path d="M669.201 866.428C669.291 866.428 669.291 866.428 669.201 866.428L669.382 866.338H670.282C670.822 866.338 673.613 866.338 673.613 866.338H673.703C673.883 866.338 673.973 866.428 674.063 866.518C674.514 865.978 674.784 865.348 674.784 864.628V858.325L677.935 856.975H668.661V864.628C668.661 865.348 668.931 865.978 669.201 866.428Z" fill="white"/>
<path d="M669.112 850.582C669.112 850.312 669.022 850.042 668.752 849.862L667.851 851.032C667.671 851.302 667.401 851.572 667.131 851.753H668.031C668.662 851.663 669.112 851.122 669.112 850.582Z" fill="white"/>
<path d="M692.881 863.637C691.44 863.637 690.09 863.907 688.919 864.357L686.398 859.405L685.318 861.926L687.028 865.348C684.237 867.148 682.347 870.119 681.987 873.541H680.096L679.195 875.702H681.987C682.527 881.284 687.208 885.605 692.881 885.605C698.913 885.605 703.865 880.653 703.865 874.621C703.865 868.499 698.913 863.637 692.881 863.637ZM687.929 867.238L691.08 873.451C691.08 873.451 691.08 873.451 691.08 873.541H684.057C684.417 870.93 685.858 868.679 687.929 867.238ZM692.881 883.445C688.379 883.445 684.597 880.023 684.057 875.702H691.08C691.44 876.332 692.07 876.692 692.881 876.692C694.051 876.692 694.951 875.792 694.951 874.621C694.951 873.541 694.051 872.64 692.971 872.55L689.819 866.338C690.72 865.978 691.8 865.798 692.881 865.798C697.742 865.798 701.704 869.759 701.704 874.621C701.704 879.483 697.742 883.445 692.881 883.445Z" fill="white"/>
<path d="M674.874 879.843C674.334 879.843 673.883 879.753 673.343 879.483C672.983 879.303 672.623 879.123 672.353 878.853C671.993 879.213 672.173 879.933 672.713 880.113C674.064 880.113 675.414 880.113 676.765 880.113C677.305 879.933 677.485 879.303 677.215 878.943C676.584 879.483 675.774 879.843 674.874 879.843Z" fill="white"/>
<path d="M672.263 871.47V868.499C672.713 868.499 673.163 868.499 673.613 868.499C674.333 868.229 674.333 867.239 673.613 866.968C672.263 866.968 670.912 866.968 669.562 866.968C668.841 867.149 668.841 868.229 669.562 868.499C670.012 868.499 670.462 868.499 670.912 868.499V871.74L660.468 857.515L660.918 856.434H679.646L680.096 855.354L679.375 854.274H661.729L662.809 851.663H663.799C663.709 851.663 663.709 851.573 663.619 851.573C662.989 851.032 662.539 850.312 662.449 849.592H662.089C661.639 849.592 661.278 849.862 661.098 850.222L655.336 864.087C654.346 863.817 653.265 863.637 652.185 863.637C646.153 863.637 641.201 868.589 641.201 874.621C641.201 880.654 646.153 885.606 652.185 885.606C658.217 885.606 663.169 880.654 663.169 874.621C663.169 870.39 660.738 866.788 657.317 864.898L659.388 859.856L671.002 875.702H671.182C671.272 875.342 671.362 874.982 671.452 874.711L674.694 867.419L672.263 871.47ZM661.098 874.621C661.098 879.483 657.137 883.445 652.275 883.445C647.413 883.445 643.452 879.483 643.452 874.621C643.452 869.76 647.413 865.798 652.275 865.798C653.085 865.798 653.806 865.888 654.616 866.068L651.915 872.551C650.924 872.731 650.204 873.631 650.204 874.621C650.204 875.792 651.105 876.692 652.275 876.692C653.445 876.692 654.346 875.792 654.346 874.621C654.346 874.081 654.166 873.631 653.896 873.271L656.597 866.878C659.298 868.319 661.098 871.29 661.098 874.621Z" fill="white"/>
<path d="M1551.45 768.021L1532.09 791.339V779.545C1533.35 779.185 1534.25 778.104 1534.25 776.844C1534.25 775.313 1532.9 774.053 1531.19 774.053H1520.39C1518.68 774.053 1517.33 775.313 1517.33 776.844C1517.33 778.104 1518.23 779.185 1519.49 779.545V806.465L1500.13 829.784H1508.77V885.605H1594.22V829.784H1602.86L1551.45 768.021ZM1552.71 803.674H1563.06V814.028H1552.71V803.674ZM1552.71 816.459H1563.06V826.813H1552.71V816.459ZM1539.92 803.674H1550.28V814.028H1539.92V803.674ZM1539.92 816.459H1550.28V826.813H1539.92V816.459ZM1563.51 880.564H1539.47V856.524C1539.47 849.862 1544.88 844.46 1551.54 844.46C1558.2 844.46 1563.51 849.862 1563.51 856.524V880.564Z" fill="white"/>
<path d="M1628.97 802.054L1615.19 818.62V810.247C1616.09 809.977 1616.72 809.256 1616.72 808.356C1616.72 807.276 1615.73 806.375 1614.56 806.375H1606.91C1605.74 806.375 1604.75 807.276 1604.75 808.356C1604.75 809.256 1605.38 809.977 1606.28 810.247V829.334L1592.5 845.9H1598.63V885.516H1659.31V845.9H1665.43L1628.97 802.054ZM1629.78 827.353H1637.16V834.736H1629.78V827.353ZM1629.78 836.447H1637.16V843.83H1629.78V836.447ZM1620.78 827.353H1628.16V834.736H1620.78V827.353ZM1620.78 836.447H1628.16V843.83H1620.78V836.447ZM1637.52 882.004H1620.42V864.898C1620.42 860.216 1624.2 856.344 1628.97 856.344C1633.65 856.344 1637.52 860.216 1637.52 864.898V882.004Z" fill="white"/>
<path d="M1592.05 833.296H1569.19L1571.98 828.164H1589.17L1592.05 833.296Z" fill="white"/>
<path d="M1583.5 828.434C1583.5 829.244 1582.06 829.964 1580.35 829.964C1578.55 829.964 1577.2 829.334 1577.2 828.434C1577.2 827.623 1578.64 826.903 1580.35 826.903C1582.06 826.903 1583.5 827.623 1583.5 828.434Z" fill="white"/>
<path d="M1547.67 797.642H1531.73L1533.71 794.131H1545.69L1547.67 797.642Z" fill="white"/>
<path d="M1541.73 794.311C1541.73 794.941 1540.73 795.391 1539.47 795.391C1538.21 795.391 1537.22 794.941 1537.22 794.311C1537.22 793.77 1538.21 793.23 1539.47 793.23C1540.73 793.23 1541.73 793.68 1541.73 794.311Z" fill="white"/>
<path d="M1635.36 819.34H1622.4L1624.02 816.459H1633.83L1635.36 819.34Z" fill="white"/>
<path d="M1630.59 816.549C1630.59 816.999 1629.78 817.449 1628.79 817.449C1627.8 817.449 1626.99 817.089 1626.99 816.549C1626.99 816.099 1627.8 815.649 1628.79 815.649C1629.78 815.739 1630.59 816.099 1630.59 816.549Z" fill="white"/>
<path d="M1856.49 647.915V632.879H1841.36V619.824H1830.92L1801.38 591.463L1771.76 619.824H1761.32V632.879H1746.19V647.915H1759.7V870.57H1754.75H1749.97V727.505H1757.36V712.559H1659.4V727.505H1666.78V870.57H1662.01V885.605H1746.28H1754.84H1856.49V870.57H1842.98V647.915H1856.49ZM1689.65 858.325H1676.15V843.109H1689.65V858.325ZM1689.65 839.598H1676.15V824.382H1689.65V839.598ZM1689.65 820.961H1676.15V805.745H1689.65V820.961ZM1689.65 802.234H1676.15V787.018H1689.65V802.234ZM1689.65 783.506H1676.15V768.291H1689.65V783.506ZM1689.65 764.869H1676.15V749.653H1689.65V764.869ZM1689.65 746.142H1676.15V730.926H1689.65V746.142ZM1706.67 858.325H1693.16V843.109H1706.67V858.325ZM1706.67 839.598H1693.16V824.382H1706.67V839.598ZM1706.67 820.961H1693.16V805.745H1706.67V820.961ZM1706.67 802.234H1693.16V787.018H1706.67V802.234ZM1706.67 783.506H1693.16V768.291H1706.67V783.506ZM1706.67 764.869H1693.16V749.653H1706.67V764.869ZM1706.67 746.142H1693.16V730.926H1706.67V746.142ZM1723.59 858.325H1710.09V843.109H1723.59V858.325ZM1723.59 839.598H1710.09V824.382H1723.59V839.598ZM1723.59 820.961H1710.09V805.745H1723.59V820.961ZM1723.59 802.234H1710.09V787.018H1723.59V802.234ZM1723.59 783.506H1710.09V768.291H1723.59V783.506ZM1723.59 764.869H1710.09V749.653H1723.59V764.869ZM1723.59 746.142H1710.09V730.926H1723.59V746.142ZM1740.61 858.325H1727.11V843.109H1740.61V858.325ZM1740.61 839.598H1727.11V824.382H1740.61V839.598ZM1740.61 820.961H1727.11V805.745H1740.61V820.961ZM1740.61 802.234H1727.11V787.018H1740.61V802.234ZM1740.61 783.506H1727.11V768.291H1740.61V783.506ZM1740.61 764.869H1727.11V749.653H1740.61V764.869ZM1740.61 746.142H1727.11V730.926H1740.61V746.142ZM1782.66 858.325H1769.15V843.109H1782.66V858.325ZM1782.66 839.598H1769.15V824.382H1782.66V839.598ZM1782.66 820.961H1769.15V805.745H1782.66V820.961ZM1782.66 802.234H1769.15V787.018H1782.66V802.234ZM1782.66 783.506H1769.15V768.291H1782.66V783.506ZM1782.66 764.869H1769.15V749.653H1782.66V764.869ZM1782.66 746.142H1769.15V730.926H1782.66V746.142ZM1782.66 727.505H1769.15V712.289H1782.66V727.505ZM1782.66 708.778H1769.15V693.562H1782.66V708.778ZM1782.66 690.051H1769.15V674.835H1782.66V690.051ZM1782.66 671.414H1769.15V656.198H1782.66V671.414ZM1799.58 858.325H1786.08V843.109H1799.58V858.325ZM1799.58 839.598H1786.08V824.382H1799.58V839.598ZM1799.58 820.961H1786.08V805.745H1799.58V820.961ZM1799.58 802.234H1786.08V787.018H1799.58V802.234ZM1799.58 783.506H1786.08V768.291H1799.58V783.506ZM1799.58 764.869H1786.08V749.653H1799.58V764.869ZM1799.58 746.142H1786.08V730.926H1799.58V746.142ZM1799.58 727.505H1786.08V712.289H1799.58V727.505ZM1799.58 708.778H1786.08V693.562H1799.58V708.778ZM1799.58 690.051H1786.08V674.835H1799.58V690.051ZM1799.58 671.414H1786.08V656.198H1799.58V671.414ZM1816.6 858.325H1803.09V843.109H1816.6V858.325ZM1816.6 839.598H1803.09V824.382H1816.6V839.598ZM1816.6 820.961H1803.09V805.745H1816.6V820.961ZM1816.6 802.234H1803.09V787.018H1816.6V802.234ZM1816.6 783.506H1803.09V768.291H1816.6V783.506ZM1816.6 764.869H1803.09V749.653H1816.6V764.869ZM1816.6 746.142H1803.09V730.926H1816.6V746.142ZM1816.6 727.505H1803.09V712.289H1816.6V727.505ZM1816.6 708.778H1803.09V693.562H1816.6V708.778ZM1816.6 690.051H1803.09V674.835H1816.6V690.051ZM1816.6 671.414H1803.09V656.198H1816.6V671.414ZM1833.62 858.325H1820.11V843.109H1833.62V858.325ZM1833.62 839.598H1820.11V824.382H1833.62V839.598ZM1833.62 820.961H1820.11V805.745H1833.62V820.961ZM1833.62 802.234H1820.11V787.018H1833.62V802.234ZM1833.62 783.506H1820.11V768.291H1833.62V783.506ZM1833.62 764.869H1820.11V749.653H1833.62V764.869ZM1833.62 746.142H1820.11V730.926H1833.62V746.142ZM1833.62 727.505H1820.11V712.289H1833.62V727.505ZM1833.62 708.778H1820.11V693.562H1833.62V708.778ZM1833.62 690.051H1820.11V674.835H1833.62V690.051ZM1833.62 671.414H1820.11V656.198H1833.62V671.414Z" fill="white"/>
<path d="M1677.32 699.775H1674.62V715.891H1677.32V699.775Z" fill="white"/>
<path d="M1683.53 688.16L1682.54 681.858H1678.4L1678.67 688.16H1683.53Z" fill="white"/>
<path d="M1673.27 688.16L1673.72 681.858H1669.57L1668.49 688.16H1673.27Z" fill="white"/>
<path d="M1679.03 694.643H1684.52L1683.53 688.43H1678.76L1679.03 694.643Z" fill="white"/>
<path d="M1678.4 688.16L1678.13 681.858H1673.99L1673.63 688.16H1678.4Z" fill="white"/>
<path d="M1669.3 681.858H1668.67C1666.69 681.858 1664.53 683.928 1663.9 686.359L1663.45 688.07H1668.22L1669.3 681.858Z" fill="white"/>
<path d="M1668.49 688.43L1667.41 694.643H1672.9L1673.27 688.43H1668.49Z" fill="white"/>
<path d="M1673.63 688.43L1673.27 694.643H1678.67L1678.4 688.43H1673.63Z" fill="white"/>
<path d="M1688.57 688.16L1688.12 686.449C1687.49 684.018 1685.33 681.948 1683.44 681.948H1682.81L1683.8 688.16H1688.57Z" fill="white"/>
<path d="M1668.13 688.43H1663.36L1661.65 694.643H1667.14L1668.13 688.43Z" fill="white"/>
<path d="M1679.03 695.003L1679.39 701.215H1685.51L1684.52 695.003H1679.03Z" fill="white"/>
<path d="M1683.89 688.43L1684.88 694.643H1690.28L1688.66 688.43H1683.89Z" fill="white"/>
<path d="M1685.87 701.215H1686.77C1689.65 701.215 1691.45 699.234 1690.82 696.713L1690.37 695.003H1684.88L1685.87 701.215Z" fill="white"/>
<path d="M1673.26 695.003L1672.9 701.215H1679.03L1678.67 695.003H1673.26Z" fill="white"/>
<path d="M1661.56 695.003L1661.11 696.713C1660.48 699.144 1662.28 701.215 1665.07 701.215H1665.97L1667.05 695.003H1661.56Z" fill="white"/>
<path d="M1667.41 695.003L1666.33 701.215H1672.46L1672.91 695.003H1667.41Z" fill="white"/>
<path d="M1709.01 699.775H1706.31V715.891H1709.01V699.775Z" fill="white"/>
<path d="M1715.22 688.16L1714.32 681.858H1710.09L1710.45 688.16H1715.22Z" fill="white"/>
<path d="M1705.05 688.16L1705.41 681.858H1701.27L1700.28 688.16H1705.05Z" fill="white"/>
<path d="M1710.81 694.643H1716.21L1715.31 688.43H1710.45L1710.81 694.643Z" fill="white"/>
<path d="M1710.09 688.16L1709.82 681.858H1705.68L1705.32 688.16H1710.09Z" fill="white"/>
<path d="M1701 681.858H1700.37C1698.38 681.858 1696.22 683.928 1695.59 686.359L1695.14 688.07H1699.92L1701 681.858Z" fill="white"/>
<path d="M1700.19 688.43L1699.2 694.643H1704.6L1705.05 688.43H1700.19Z" fill="white"/>
<path d="M1705.32 688.43L1704.96 694.643H1710.45L1710.18 688.43H1705.32Z" fill="white"/>
<path d="M1720.35 688.16L1719.9 686.449C1719.27 684.018 1717.11 681.948 1715.22 681.948H1714.59L1715.58 688.16H1720.35Z" fill="white"/>
<path d="M1699.92 688.43H1695.05L1693.34 694.643H1698.83L1699.92 688.43Z" fill="white"/>
<path d="M1710.81 695.003L1711.08 701.215H1717.2L1716.3 695.003H1710.81Z" fill="white"/>
<path d="M1715.58 688.43L1716.57 694.643H1721.97L1720.44 688.43H1715.58Z" fill="white"/>
<path d="M1717.56 701.215H1718.46C1721.34 701.215 1723.14 699.234 1722.51 696.713L1722.06 695.003H1716.57L1717.56 701.215Z" fill="white"/>
<path d="M1704.96 695.003L1704.6 701.215H1710.72L1710.45 695.003H1704.96Z" fill="white"/>
<path d="M1693.25 695.003L1692.8 696.713C1692.17 699.144 1693.97 701.215 1696.76 701.215H1697.66L1698.75 695.003H1693.25Z" fill="white"/>
<path d="M1699.11 695.003L1698.11 701.215H1704.24L1704.6 695.003H1699.11Z" fill="white"/>
<path d="M1740.79 699.775H1738.09V715.891H1740.79V699.775Z" fill="white"/>
<path d="M1747 688.16L1746.01 681.858H1741.87L1742.14 688.16H1747Z" fill="white"/>
<path d="M1736.74 688.16L1737.19 681.858H1732.96L1731.97 688.16H1736.74Z" fill="white"/>
<path d="M1742.5 694.643H1747.9L1747 688.43H1742.14L1742.5 694.643Z" fill="white"/>
<path d="M1741.87 688.16L1741.6 681.858H1737.46L1737.1 688.16H1741.87Z" fill="white"/>
<path d="M1732.69 681.858H1732.06C1730.08 681.858 1727.92 683.928 1727.29 686.359L1726.84 688.07H1731.61L1732.69 681.858Z" fill="white"/>
<path d="M1731.88 688.43L1730.89 694.643H1736.38L1736.74 688.43H1731.88Z" fill="white"/>
<path d="M1737.1 688.43L1736.74 694.643H1742.14L1741.87 688.43H1737.1Z" fill="white"/>
<path d="M1752.05 688.16L1751.59 686.449C1750.96 684.018 1748.8 681.948 1746.91 681.948H1746.28L1747.27 688.16H1752.05Z" fill="white"/>
<path d="M1731.61 688.43H1726.84L1725.12 694.643H1730.53L1731.61 688.43Z" fill="white"/>
<path d="M1742.5 695.003L1742.86 701.215H1748.89L1747.99 695.003H1742.5Z" fill="white"/>
<path d="M1747.36 688.43L1748.26 694.643H1753.76L1752.14 688.43H1747.36Z" fill="white"/>
<path d="M1749.34 701.215H1750.24C1753.13 701.215 1754.93 699.234 1754.3 696.713L1753.85 695.003H1748.35L1749.34 701.215Z" fill="white"/>
<path d="M1736.65 695.003L1736.38 701.215H1742.41L1742.14 695.003H1736.65Z" fill="white"/>
<path d="M1725.04 695.003L1724.58 696.713C1723.95 699.144 1725.76 701.215 1728.55 701.215H1729.45L1730.53 695.003H1725.04Z" fill="white"/>
<path d="M1730.89 695.003L1729.81 701.215H1735.93L1736.38 695.003H1730.89Z" fill="white"/>
<path d="M1497.52 872.821L1497.7 643.593H1455.02L1454.84 872.821H1452.05L1452.14 762.258L1399.38 762.168L1399.29 872.73H1397.04L1397.13 691.851L1338.79 691.761L1338.61 872.64H1333.57V885.425L1503.91 885.515V872.73H1497.52V872.821ZM1480.86 657.998H1491.49V672.494H1480.86V657.998ZM1480.86 685.549H1491.58V700.044H1480.95V685.549H1480.86ZM1480.86 713.099H1491.49V727.595H1480.86V713.099ZM1480.77 740.56H1491.4V755.055H1480.77V740.56ZM1480.77 768.11H1491.4V782.606H1480.77V768.11ZM1480.77 795.661H1491.4V810.157H1480.77V795.661ZM1480.77 823.122H1491.4V864.357H1480.77V823.122ZM1462.32 657.998H1472.94V672.494H1462.32V657.998ZM1462.32 685.549H1472.94V700.044H1462.32V685.549ZM1462.23 713.099H1472.85V727.595H1462.23V713.099ZM1462.23 740.56H1472.85V755.055H1462.23V740.56ZM1462.23 768.11H1472.85V782.606H1462.23V768.11ZM1462.23 795.661H1472.85V810.157H1462.23V795.661ZM1462.14 823.122H1472.76V837.617H1462.14V823.122ZM1374.17 703.376H1388.76V714.9H1374.17V703.376ZM1374.17 725.344H1388.76V736.869H1374.17V725.344ZM1374.17 747.223H1388.76V758.747H1374.17V747.223ZM1374.17 769.191H1388.76V780.715H1374.17V769.191ZM1374.17 791.069H1388.76V802.684H1374.17V791.069ZM1374.17 813.038H1388.76V824.562H1374.17V813.038ZM1374.08 834.916H1388.67V867.779H1374.08V834.916ZM1348.78 703.376H1363.37V714.9H1348.78V703.376ZM1348.78 725.344H1363.37V736.959H1348.78V725.344ZM1348.69 747.223H1363.28V758.837H1348.69V747.223ZM1348.69 769.191H1363.28V780.715H1348.69V769.191ZM1348.69 791.069H1363.28V802.594H1348.69V791.069ZM1348.69 812.948H1363.28V824.562H1348.69V812.948ZM1348.69 834.916H1363.28V846.53H1348.69V834.916ZM1429.18 773.513H1443.77V785.037H1429.18V773.513ZM1429.09 795.391H1443.68V807.005H1429.09V795.391ZM1429.09 817.359H1443.68V828.974H1429.09V817.359ZM1429.09 839.238H1443.68V850.852H1429.09V839.238ZM1429.09 861.116H1443.68V872.73H1429.09V861.116ZM1403.7 773.423H1418.29V785.037H1403.7V773.423ZM1403.7 795.391H1418.29V807.005H1403.7V795.391ZM1403.7 817.269H1418.29V828.884H1403.7V817.269ZM1403.61 839.238H1418.2V872.73H1412.89H1403.61V839.238Z" fill="white"/>
<path d="M1348.06 677.716H1344.91V696.353H1348.06V677.716Z" fill="white"/>
<path d="M1355.26 664.211L1354.18 657.098H1349.32L1349.68 664.211H1355.26Z" fill="white"/>
<path d="M1343.47 664.211L1343.92 657.098H1339.15L1337.89 664.211H1343.47Z" fill="white"/>
<path d="M1350.13 671.864H1356.43L1355.26 664.661H1349.77L1350.13 671.864Z" fill="white"/>
<path d="M1349.32 664.211L1349.05 657.098H1344.19L1343.83 664.211H1349.32Z" fill="white"/>
<path d="M1338.79 657.098H1338.07C1335.82 657.098 1333.3 659.439 1332.58 662.32L1332.04 664.301H1337.62L1338.79 657.098Z" fill="white"/>
<path d="M1337.89 664.661L1336.72 671.864H1343.02L1343.47 664.661H1337.89Z" fill="white"/>
<path d="M1343.83 664.661L1343.38 671.864H1349.68L1349.41 664.661H1343.83Z" fill="white"/>
<path d="M1361.12 664.211L1360.58 662.23C1359.86 659.349 1357.42 657.008 1355.08 657.008H1354.36L1355.53 664.211H1361.12Z" fill="white"/>
<path d="M1337.53 664.661H1331.95L1329.96 671.864H1336.27L1337.53 664.661Z" fill="white"/>
<path d="M1350.13 672.224L1350.49 679.427H1357.51L1356.43 672.224H1350.13Z" fill="white"/>
<path d="M1355.71 664.661L1356.79 671.864H1363.1L1361.21 664.661H1355.71Z" fill="white"/>
<path d="M1357.97 679.427H1358.96C1362.29 679.427 1364.36 677.086 1363.64 674.205L1363.1 672.224H1356.79L1357.97 679.427Z" fill="white"/>
<path d="M1343.38 672.224L1342.93 679.427H1350.04L1349.68 672.224H1343.38Z" fill="white"/>
<path d="M1329.87 672.224L1329.33 674.205C1328.52 677.086 1330.68 679.427 1333.93 679.427H1334.92L1336.09 672.224H1329.87Z" fill="white"/>
<path d="M1336.63 672.224L1335.46 679.427H1342.48L1342.93 672.224H1336.63Z" fill="white"/>
<path d="M1384.88 677.716H1381.73V696.353H1384.88V677.716Z" fill="white"/>
<path d="M1392 664.211L1390.92 657.098H1386.15L1386.51 664.211H1392Z" fill="white"/>
<path d="M1380.2 664.211L1380.65 657.098H1375.88L1374.71 664.211H1380.2Z" fill="white"/>
<path d="M1386.87 671.864H1393.17L1392.09 664.661H1386.51L1386.87 671.864Z" fill="white"/>
<path d="M1386.15 664.211L1385.79 657.098H1381.01L1380.56 664.211H1386.15Z" fill="white"/>
<path d="M1375.61 657.098H1374.89C1372.64 657.098 1370.12 659.439 1369.4 662.32L1368.86 664.301H1374.44L1375.61 657.098Z" fill="white"/>
<path d="M1374.62 664.661L1373.45 671.864H1379.75L1380.2 664.661H1374.62Z" fill="white"/>
<path d="M1380.56 664.661L1380.2 671.864H1386.51L1386.15 664.661H1380.56Z" fill="white"/>
<path d="M1397.94 664.211L1397.4 662.23C1396.68 659.349 1394.25 657.008 1391.91 657.008H1391.19L1392.36 664.211H1397.94Z" fill="white"/>
<path d="M1374.26 664.661H1368.68L1366.79 671.864H1373.09L1374.26 664.661Z" fill="white"/>
<path d="M1386.87 672.224L1387.23 679.427H1394.34L1393.26 672.224H1386.87Z" fill="white"/>
<path d="M1392.45 664.661L1393.53 671.864H1399.83L1398.03 664.661H1392.45Z" fill="white"/>
<path d="M1394.79 679.427H1395.78C1399.11 679.427 1401.18 677.086 1400.46 674.205L1399.92 672.224H1393.62L1394.79 679.427Z" fill="white"/>
<path d="M1380.11 672.224L1379.75 679.427H1386.78L1386.51 672.224H1380.11Z" fill="white"/>
<path d="M1366.7 672.224L1366.16 674.205C1365.35 677.086 1367.51 679.427 1370.75 679.427H1371.74L1372.91 672.224H1366.7Z" fill="white"/>
<path d="M1373.36 672.224L1372.19 679.427H1379.3L1379.75 672.224H1373.36Z" fill="white"/>
</svg>
