<svg width="375" height="667" viewBox="0 0 375 667" fill="none" xmlns="http://www.w3.org/2000/svg">
<g clip-path="url(#clip0)">
<path d="M45 490.032V483.912H38.8152V478.6H34.5691L22.5 467L10.4309 478.6H6.18521V483.912H0V490.032H5.51654V580.881H0V587H44.9668V580.881H39.4502V490.032H45ZM30.1562 568.272V562.052H35.6723V568.272H30.1562ZM35.6723 569.684V575.904H30.1562V569.684H35.6723ZM30.1562 560.64V554.42H35.6723V560.64H30.1562ZM30.1562 553.007V546.787H35.6723V553.007H30.1562ZM30.1562 545.375V539.155H35.6723V545.375H30.1562ZM30.1562 537.743V531.522H35.6723V537.743H30.1562ZM30.1562 530.144V523.923H35.6723V530.144H30.1562ZM30.1562 522.511V516.291H35.6723V522.511H30.1562ZM30.1562 514.879V508.659H35.6723V514.879H30.1562ZM30.1562 507.246V501.026H35.6723V507.246H30.1562ZM30.1562 499.614V493.428H35.6723V499.648H30.1562V499.614ZM23.2355 568.272V562.052H28.752V568.272H23.2355ZM28.752 569.684V575.904H23.2355V569.684H28.752ZM23.2355 560.64V554.42H28.752V560.64H23.2355ZM23.2355 553.007V546.787H28.752V553.007H23.2355ZM23.2355 545.375V539.155H28.752V545.375H23.2355ZM23.2355 537.743V531.522H28.752V537.743H23.2355ZM23.2355 530.144V523.923H28.752V530.144H23.2355ZM23.2355 522.511V516.291H28.752V522.511H23.2355ZM23.2355 514.879V508.659H28.752V514.879H23.2355ZM23.2355 507.246V501.026H28.752V507.246H23.2355ZM23.2355 499.614V493.428H28.752V499.648H23.2355V499.614ZM16.2816 568.272V562.052H21.7981V568.272H16.2816ZM21.7981 569.684V575.904H16.2816V569.684H21.7981ZM16.2816 560.64V554.42H21.7981V560.64H16.2816ZM16.2816 553.007V546.787H21.7981V553.007H16.2816ZM16.2816 545.375V539.155H21.7981V545.375H16.2816ZM16.2816 537.743V531.522H21.7981V537.743H16.2816ZM16.2816 530.144V523.923H21.7981V530.144H16.2816ZM16.2816 522.511V516.291H21.7981V522.511H16.2816ZM16.2816 514.879V508.659H21.7981V514.879H16.2816ZM16.2816 507.246V501.026H21.7981V507.246H16.2816ZM16.2816 499.614V493.428H21.7981V499.648H16.2816V499.614ZM9.36125 568.272V562.052H14.8774V568.272H9.36125ZM14.8774 569.684V575.904H9.36125V569.684H14.8774ZM9.36125 560.64V554.42H14.8774V560.64H9.36125ZM9.36125 553.007V546.787H14.8774V553.007H9.36125ZM9.36125 545.375V539.155H14.8774V545.375H9.36125ZM9.36125 537.743V531.522H14.8774V537.743H9.36125ZM9.36125 530.144V523.923H14.8774V530.144H9.36125ZM9.36125 522.511V516.291H14.8774V522.511H9.36125ZM9.36125 514.879V508.659H14.8774V514.879H9.36125ZM9.36125 507.246V501.026H14.8774V507.246H9.36125ZM9.36125 499.614V493.428H14.8774V499.648H9.36125V499.614Z" fill="white"/>
<path d="M224 505.385V500.235H218.804V495.763H215.216L205.016 486L194.815 495.763H191.228V500.235H186V505.385H190.663V581.849H186V587H224V581.849H219.34V505.385H224ZM211.458 571.237V566.002H216.119V571.237H211.458ZM216.119 572.426V577.661H211.458V572.426H216.119ZM211.458 564.813V559.578H216.119V564.813H211.458ZM211.458 558.39V553.154H216.119V558.39H211.458ZM211.458 551.965V546.73H216.119V551.965H211.458ZM211.458 545.542V540.306H216.119V545.542H211.458ZM211.458 539.146V533.911H216.119V539.146H211.458ZM211.458 532.722V527.487H216.119V532.722H211.458ZM211.458 526.298V521.063H216.119V526.298H211.458ZM211.458 519.874V514.639H216.119V519.874H211.458ZM211.458 513.478V508.243H216.119V513.478H211.458ZM205.581 571.237V566.002H210.241V571.237H205.581ZM210.269 572.426V577.661H205.609V572.426H210.269ZM205.581 564.813V559.578H210.241V564.813H205.581ZM205.581 558.39V553.154H210.241V558.39H205.581ZM205.581 551.965V546.73H210.241V551.965H205.581ZM205.581 545.542V540.306H210.241V545.542H205.581ZM205.581 539.146V533.911H210.241V539.146H205.581ZM205.581 532.722V527.487H210.241V532.722H205.581ZM205.581 526.298V521.063H210.241V526.298H205.581ZM205.581 519.874V514.639H210.241V519.874H205.581ZM205.581 513.478V508.243H210.241V513.478H205.581ZM199.731 571.237V566.002H204.394V571.237H199.731ZM204.394 572.426V577.661H199.731V572.426H204.394ZM199.731 564.813V559.578H204.394V564.813H199.731ZM199.731 558.39V553.154H204.394V558.39H199.731ZM199.731 551.965V546.73H204.394V551.965H199.731ZM199.731 545.542V540.306H204.394V545.542H199.731ZM199.731 539.146V533.911H204.394V539.146H199.731ZM199.731 532.722V527.487H204.394V532.722H199.731ZM199.731 526.298V521.063H204.394V526.298H199.731ZM199.731 519.874V514.639H204.394V519.874H199.731ZM199.731 513.478V508.243H204.394V513.478H199.731ZM193.856 571.237V566.002H198.516V571.237H193.856ZM198.545 572.426V577.661H193.885V572.426H198.545ZM193.856 564.813V559.578H198.516V564.813H193.856ZM193.856 558.39V553.154H198.516V558.39H193.856ZM193.856 551.965V546.73H198.516V551.965H193.856ZM193.856 545.542V540.306H198.516V545.542H193.856ZM193.856 539.146V533.911H198.516V539.146H193.856ZM193.856 532.722V527.487H198.516V532.722H193.856ZM193.856 526.298V521.063H198.516V526.298H193.856ZM193.856 519.874V514.639H198.516V519.874H193.856ZM193.856 513.478V508.243H198.516V513.478H193.856Z" fill="white"/>
<path d="M189 532.174V527H156V532.174H158.483V581.797H156.855V587H188.116V581.797H186.489V532.174H189ZM178.817 533.374H183.371V538.663H178.817V533.374ZM178.817 539.863H183.371V545.151H178.817V539.863ZM178.817 546.324H183.371V551.612H178.817V546.324ZM178.817 552.812H183.371V558.101H178.817V552.812ZM178.817 559.301H183.371V564.589H178.817V559.301ZM178.817 565.79H183.371V571.078H178.817V565.79ZM178.817 572.279H183.371V577.567H178.817V572.279ZM173.08 533.374H177.631V538.663H173.08V533.374ZM173.08 539.863H177.631V545.151H173.08V539.863ZM173.08 546.324H177.631V551.612H173.08V546.324ZM173.08 552.812H177.631V558.101H173.08V552.812ZM173.08 559.301H177.631V564.589H173.08V559.301ZM173.08 565.79H177.631V571.078H173.08V565.79ZM173.08 572.279H177.631V577.567H173.08V572.279ZM167.367 533.374H171.921V538.663H167.367V533.374ZM167.367 539.863H171.921V545.151H167.367V539.863ZM167.367 546.324H171.921V551.612H167.367V546.324ZM167.367 552.812H171.921V558.101H167.367V552.812ZM167.367 559.301H171.921V564.589H167.367V559.301ZM167.367 565.79H171.921V571.078H167.367V565.79ZM167.367 572.279H171.921V577.567H167.367V572.279ZM161.629 533.374H166.181V538.663H161.629V533.374ZM161.629 539.863H166.181V545.151H161.629V539.863ZM161.629 546.324H166.181V551.612H161.629V546.324ZM161.629 552.812H166.181V558.101H161.629V552.812ZM161.629 559.301H166.181V564.589H161.629V559.301ZM161.629 565.79H166.181V571.078H161.629V565.79ZM161.629 572.279H166.181V577.567H161.629V572.279Z" fill="white"/>
<path d="M172.904 520.606L171.284 515.39C170.866 514.059 169.695 513 168.633 513H161.241C160.181 513 159.009 514.087 158.619 515.417L157.084 520.633C156.694 521.964 157.698 523.051 159.316 523.051H164.449V529H165.482V523.051H170.642C172.343 523.024 173.321 521.937 172.904 520.606ZM171.842 519.438H169.246L168.745 516.558H171.035L171.842 519.438ZM166.291 516.586H168.58L169.081 519.465H166.486L166.291 516.586ZM166.319 519.438H163.724L163.864 516.558H166.151L166.319 519.438ZM168.496 513.543C169.415 513.543 170.449 514.467 170.754 515.608L170.979 516.395H168.689L168.187 513.543H168.496ZM168.075 513.543L168.552 516.395H166.263L166.067 513.516H168.075V513.543ZM165.956 513.543L166.123 516.423H163.836L163.975 513.543H165.956ZM163.864 513.543L163.724 516.423H161.436L161.883 513.543H163.864ZM159.204 515.635C159.511 514.494 160.516 513.57 161.436 513.57H161.715L161.269 516.45H158.981L159.204 515.635ZM158.953 516.586H161.241L160.767 519.465H158.172L158.953 516.586ZM159.874 522.48C158.507 522.48 157.642 521.557 157.949 520.416L158.172 519.628H160.795L160.32 522.508H159.874V522.48ZM163.389 522.48H160.488L160.934 519.601H163.557L163.389 522.48ZM160.962 519.465L161.409 516.586H163.696L163.557 519.465H160.962ZM163.584 522.48L163.724 519.628H166.347L166.514 522.508L163.584 522.48ZM166.681 522.48L166.486 519.601H169.109L169.583 522.48H166.681ZM170.197 522.48H169.779L169.274 519.601H171.898L172.122 520.389C172.427 521.53 171.564 522.48 170.197 522.48Z" fill="white"/>
<path d="M188.904 520.606L187.284 515.39C186.866 514.059 185.695 513 184.636 513H177.243C176.181 513 175.009 514.087 174.62 515.417L173.084 520.633C172.695 521.964 173.698 523.051 175.318 523.051H180.452V529H181.483V523.051H186.642C188.346 523.024 189.321 521.937 188.904 520.606ZM187.845 519.438H185.249L184.748 516.558H187.035L187.845 519.438ZM182.293 516.586H184.58L185.081 519.465H182.486L182.293 516.586ZM182.293 519.438H179.698L179.838 516.558H182.125L182.293 519.438ZM184.496 513.543C185.415 513.543 186.449 514.467 186.782 515.608L187.007 516.395H184.72L184.215 513.543H184.496ZM184.078 513.543L184.552 516.395H182.265L182.069 513.516H184.078V513.543ZM181.956 513.543L182.125 516.423H179.838L179.975 513.543H181.956ZM179.838 513.543L179.698 516.423H177.408L177.857 513.543H179.838ZM175.206 515.635C175.514 514.494 176.517 513.57 177.436 513.57H177.716L177.271 516.45H174.981L175.206 515.635ZM174.953 516.586H177.243L176.766 519.465H174.174L174.953 516.586ZM175.875 522.48C174.508 522.48 173.645 521.557 173.95 520.416L174.174 519.628H176.794L176.321 522.508H175.875V522.48ZM179.389 522.48H176.489L176.935 519.601H179.558L179.389 522.48ZM176.963 519.465L177.408 516.586H179.698L179.558 519.465H176.963ZM179.586 522.48L179.726 519.628H182.346L182.514 522.508L179.586 522.48ZM182.682 522.48L182.486 519.601H185.109L185.583 522.48H182.682ZM186.197 522.48H185.779L185.277 519.601H187.898L188.122 520.389C188.43 521.53 187.564 522.48 186.197 522.48Z" fill="white"/>
<path d="M121.916 484.66L120.519 480.101C120.155 478.947 119.123 478 118.181 478H111.714C110.803 478 109.771 478.947 109.407 480.101L108.071 484.66C107.737 485.814 108.617 486.761 110.044 486.761H114.568V492H115.479V486.761H120.003C121.43 486.791 122.28 485.844 121.916 484.66ZM120.974 483.653H118.697L118.242 481.138H120.246L120.974 483.653ZM116.117 481.138H118.121L118.546 483.653H116.268L116.117 481.138ZM116.147 483.653H113.87L113.991 481.138H115.995L116.147 483.653ZM118.06 478.474C118.88 478.474 119.76 479.303 120.064 480.279L120.276 480.99H118.273L117.817 478.474H118.06ZM117.695 478.474L118.121 480.99H116.117L115.965 478.474H117.695ZM115.813 478.474L115.965 480.99H113.961L114.083 478.474H115.813ZM113.991 478.474L113.87 480.99H111.866L112.261 478.474H113.991ZM109.923 480.309C110.196 479.303 111.077 478.503 111.896 478.503H112.139L111.745 481.019H109.741L109.923 480.309ZM109.68 481.138H111.684L111.289 483.653H109.012L109.68 481.138ZM110.5 486.317C109.316 486.317 108.526 485.488 108.8 484.512L108.982 483.801H111.289L110.864 486.317H110.5ZM113.566 486.317H111.016L111.411 483.801H113.688L113.566 486.317ZM111.441 483.653L111.836 481.138H113.84L113.718 483.653H111.441ZM113.749 486.317L113.87 483.801H116.147L116.299 486.317H113.749ZM116.451 486.317L116.268 483.801H118.546L118.971 486.317H116.451ZM119.548 486.317H119.183L118.728 483.801H121.005L121.187 484.512C121.491 485.488 120.732 486.288 119.548 486.317Z" fill="white"/>
<path d="M136.918 484.66L135.494 480.101C135.13 478.947 134.1 478 133.161 478H126.707C125.798 478 124.768 478.947 124.404 480.101L123.071 484.66C122.737 485.814 123.616 486.761 125.04 486.761H129.555V492H130.464V486.761H134.979C136.403 486.791 137.282 485.844 136.918 484.66ZM135.978 483.653H133.706L133.252 481.138H135.251L135.978 483.653ZM131.1 481.138H133.1L133.524 483.653H131.252L131.1 481.138ZM131.131 483.653H128.858L128.979 481.138H130.979L131.131 483.653ZM133.039 478.474C133.858 478.474 134.766 479.303 135.039 480.279L135.251 480.99H133.252L132.797 478.474H133.039ZM132.676 478.474L133.1 480.99H131.1L130.949 478.474H132.676ZM130.827 478.474L130.979 480.99H128.979L129.1 478.474H130.827ZM128.979 478.474L128.858 480.99H126.858L127.252 478.474H128.979ZM124.919 480.309C125.192 479.303 126.07 478.503 126.888 478.503H127.131L126.737 481.019H124.737L124.919 480.309ZM124.707 481.138H126.707L126.313 483.653H124.04L124.707 481.138ZM125.495 486.317C124.313 486.317 123.525 485.488 123.798 484.512L123.979 483.801H126.282L125.858 486.317H125.495ZM128.585 486.317H126.04L126.434 483.801H128.707L128.585 486.317ZM126.434 483.653L126.828 481.138H128.828L128.707 483.653H126.434ZM128.737 486.317L128.858 483.801H131.161L131.312 486.317H128.737ZM131.464 486.317L131.282 483.801H133.555L133.979 486.317H131.464ZM134.524 486.317H134.16L133.706 483.801H135.978L136.161 484.512C136.463 485.488 135.736 486.288 134.524 486.317Z" fill="white"/>
<path d="M136.576 580.533L136.515 490.183L108.424 490.213L108.485 580.564H107.394L107.364 525.34H104.303V520.543H84.8789V525.34H81.9697L82.0303 580.564H80.6365L80.5759 466.047H79.3032L78.4849 463.77H76.3334L70.2425 457L64.1517 463.77H62.0002L61.1819 466.078H60.0304L60.1214 580.625H57V587L139 586.939V580.533H136.576ZM63.0001 473.303H68.1211V480.559H63.0001V473.303ZM63.0001 487.056H68.1211V494.312H63.0001V487.056ZM63.0303 500.809H68.1516V508.065H63.0303V500.809ZM63.0303 514.562H68.1516V521.818H63.0303V514.562ZM63.0303 528.315H68.1516V535.571H63.0303V528.315ZM63.0607 542.068H68.1817V549.324H63.0607V542.068ZM63.0908 576.435V555.821H68.2121L68.2426 576.435H63.0908ZM77.0911 473.303V480.559H71.9697V473.303H77.0911ZM71.9697 487.056H77.0911V494.312H71.9697V487.056ZM71.9697 500.809H77.0911V508.065H71.9697V500.809ZM71.9697 514.562H77.0911V521.818H71.9697V514.562ZM72.0002 528.315H77.1212V535.571H72.0002V528.315ZM72.0002 542.038H77.1212V549.293H72.0002V542.038ZM72.0303 563.046V555.79H77.1516V563.046H72.0303ZM86.0001 530.986H93.0303V536.755H86.0001V530.986ZM93.0303 541.946V547.745H86.0001V541.976L93.0303 541.946ZM86.0302 552.876H93.0607V558.644H86.0302V552.876ZM93.0607 563.835V569.604H86.0302V563.835H93.0607ZM93.0607 580.564H86.0302V574.795H93.0607V580.564ZM98.2728 530.986H105.303V536.755H98.2728V530.986ZM105.303 541.916V547.715H98.2728V541.916H105.303ZM105.303 552.876V558.644H98.3032V552.876H105.303ZM100.849 580.564H98.3032V563.835H105.333V580.564H100.849ZM112.455 495.982H119.485V501.75H112.455V495.982ZM112.485 506.942H119.515V512.71H112.485V506.942ZM112.485 517.902H119.515V523.67H112.485V517.902ZM112.485 528.831H119.515V534.63H112.485V528.831ZM112.485 539.791H119.515V545.559H112.485V539.791ZM112.515 550.751H119.545V556.519H112.515V550.751ZM112.515 578.135V561.71H119.545V578.135H112.515ZM131.727 495.982V501.75H124.697V495.951L131.727 495.982ZM131.727 506.911V512.68H124.697V506.911H131.727ZM124.727 517.871H131.758V523.67H124.727V517.871ZM124.727 528.831H131.758V534.599H124.727V528.831ZM124.727 539.791H131.758V545.559H124.727V539.791ZM124.758 550.72H131.788V556.519H124.758V550.72ZM124.758 567.479V561.71H131.788V567.479H124.758Z" fill="white"/>
<path d="M255.016 532L245.962 542.919V537.397C246.553 537.241 246.987 536.742 246.987 536.149C246.987 535.432 246.334 534.839 245.525 534.839H240.487C239.678 534.839 239.025 535.432 239.025 536.149C239.025 536.742 239.459 537.241 240.05 537.397V550.001L231 560.888H235.044V587H274.956V560.888H279L255.016 532ZM255.575 548.659H260.428V553.526H255.575V548.659ZM255.575 554.649H260.428V559.516H255.575V554.649ZM249.603 548.659H254.456V553.526H249.603V548.659ZM249.603 554.649H254.456V559.516H249.603V554.649ZM260.616 584.66H249.384V573.398C249.384 570.278 251.903 567.783 254.984 567.783C258.094 567.783 260.584 570.31 260.584 573.398V584.66H260.616Z" fill="white"/>
<path d="M290.545 548L284.306 555.719V551.828C284.699 551.704 284.999 551.361 284.999 550.926C284.999 550.397 284.548 549.992 284.006 549.992H280.539C279.998 549.992 279.547 550.397 279.547 550.926C279.547 551.33 279.846 551.704 280.24 551.828V560.761L274 568.48H276.773V587H304.23V568.48H307L290.545 548ZM290.939 559.796H294.285V563.251H290.939V559.796ZM290.939 564.061H294.285V567.515H290.939V564.061ZM286.84 559.796H290.185V563.251H286.84V559.796ZM286.84 564.061H290.185V567.515H286.84V564.061ZM294.433 585.319H286.719V577.351C286.719 575.141 288.435 573.367 290.576 573.367C292.716 573.367 294.433 575.141 294.433 577.351V585.319Z" fill="white"/>
<path d="M270 517C270 518.123 269.315 519 268.501 519C267.685 519 267 518.088 267 517C267 515.877 267.685 515 268.501 515C269.315 515 270 515.912 270 517Z" fill="white"/>
<path d="M272.003 517L270.647 517.534C270.554 517.979 270.341 518.335 270 518.632L270.217 520.027L285.628 527L286 526.377L272.003 517Z" fill="white"/>
<path d="M266.352 517.536L264.993 517L251 526.375L251.373 527L266.814 520.006L267 518.607C266.69 518.369 266.445 517.982 266.352 517.536Z" fill="white"/>
<path d="M267.985 514.876C268.26 514.876 268.496 514.907 268.702 515L270 514.098L268.427 497H267.573L266 514.098L267.302 515C267.473 514.907 267.71 514.876 267.985 514.876Z" fill="white"/>
<path d="M267 560.627L267.311 520.027C267.311 520.027 267.873 518.969 268.187 519.001C268.497 519.001 269 520.027 269 520.027V560.627L268.529 561H267.436L267 560.627Z" fill="white"/>
<path d="M279.642 567.001H270.973L272.06 565.054H278.581L279.642 567.001Z" fill="white"/>
<path d="M276.407 565.155C276.407 565.484 275.851 565.737 275.194 565.737C274.536 565.737 273.98 565.484 273.98 565.155C273.98 564.826 274.51 564.573 275.194 564.573C275.877 564.599 276.407 564.851 276.407 565.155Z" fill="white"/>
<path d="M251 514.5C251 515.325 250.325 516 249.5 516C248.675 516 248 515.325 248 514.5C248 513.675 248.675 513 249.5 513C250.325 513 251 513.675 251 514.5Z" fill="white"/>
<path d="M251.402 514L250.459 514.361C250.398 514.661 250.245 514.931 250 515.111L250.153 516.103L260.728 521L261 520.549L251.402 514Z" fill="white"/>
<path d="M247.574 514.41L246.625 514L237 521.487L237.276 522L247.877 516.427L248 515.299C247.785 515.06 247.635 514.752 247.574 514.41Z" fill="white"/>
<path d="M249.481 512.911C249.668 512.911 249.85 512.94 250.036 513L251 512.404L249.812 501H249.183L248 512.404L248.96 513C249.109 512.94 249.295 512.911 249.481 512.911Z" fill="white"/>
<path d="M249 544.722L249.157 516.709C249.157 516.709 249.431 516 249.591 516C249.749 516 250 516.709 250 516.709V544.722L249.772 545H249.226L249 544.722Z" fill="white"/>
<path d="M262.807 553.472H256.791L257.525 552.131H262.076L262.807 553.472Z" fill="white"/>
<path d="M260.557 552.207C260.557 552.435 260.179 552.612 259.724 552.612C259.27 552.612 258.888 552.435 258.888 552.207C258.888 551.979 259.27 551.802 259.724 551.802C260.179 551.802 260.557 551.979 260.557 552.207Z" fill="white"/>
<path d="M292 530C292 530.562 291.56 531 290.998 531C290.436 531 290 530.531 290 530C290 529.438 290.468 529 290.998 529C291.56 529 292 529.438 292 530Z" fill="white"/>
<path d="M292.131 530L291.369 530.314C291.338 530.565 291.185 530.817 291 530.974L291.123 531.822L299.785 536L300 535.623L292.131 530Z" fill="white"/>
<path d="M289.634 530.314L288.869 530L281 535.623L281.215 536L289.877 531.822L290 530.974C289.815 530.817 289.665 530.597 289.634 530.314Z" fill="white"/>
<path d="M290.998 528.939C291.12 528.939 291.242 528.97 291.364 529L292 528.483L291.211 519H290.785L290 528.483L290.636 529C290.755 528.939 290.876 528.939 290.998 528.939Z" fill="white"/>
<path d="M290 554.781L290.163 531.595C290.163 531.595 290.432 531 290.595 531C290.758 531 291 531.595 291 531.595V554.781L290.786 555H290.245L290 554.781Z" fill="white"/>
<path d="M296.1 561.69H291.171L291.801 560.603H295.493L296.1 561.69Z" fill="white"/>
<path d="M294.279 560.654C294.279 560.83 293.977 560.982 293.596 560.982C293.218 560.982 292.913 560.83 292.913 560.654C292.913 560.477 293.218 560.325 293.596 560.325C293.952 560.325 294.279 560.477 294.279 560.654Z" fill="white"/>
<path d="M379.949 496.647V490.932H374.21V486H370.266L359.043 475.227L347.819 486H343.875V490.932H338.164V496.621H343.268V581.112H341.399H339.579V526.842H342.359V521.177H305.198V526.842H307.979V581.138H306.161V586.853H338.164H341.399H379.974V581.138H374.868V496.647H379.949ZM316.676 576.485H311.544V570.719H316.676V576.485ZM316.676 569.404H311.544V563.638H316.676V569.404ZM316.676 562.297H311.544V556.531H316.676V562.297ZM316.676 555.217H311.544V549.451H316.676V555.217ZM316.676 548.135H311.544V542.344H316.676V548.135ZM316.676 541.029H311.544V535.263H316.676V541.029ZM316.676 533.923H311.544V528.157H316.676V533.923ZM323.121 576.485H317.992V570.719H323.121V576.485ZM323.121 569.404H317.992V563.638H323.121V569.404ZM323.121 562.297H317.992V556.531H323.121V562.297ZM323.121 555.217H317.992V549.451H323.121V555.217ZM323.121 548.135H317.992V542.344H323.121V548.135ZM323.121 541.029H317.992V535.263H323.121V541.029ZM323.121 533.923H317.992V528.157H323.121V533.923ZM329.568 576.485H324.436V570.719H329.568V576.485ZM329.568 569.404H324.436V563.638H329.568V569.404ZM329.568 562.297H324.436V556.531H329.568V562.297ZM329.568 555.217H324.436V549.451H329.568V555.217ZM329.568 548.135H324.436V542.344H329.568V548.135ZM329.568 541.029H324.436V535.263H329.568V541.029ZM329.568 533.923H324.436V528.157H329.568V533.923ZM336.013 576.485H330.884V570.719H336.013V576.485ZM336.013 569.404H330.884V563.638H336.013V569.404ZM336.013 562.297H330.884V556.531H336.013V562.297ZM336.013 555.217H330.884V549.451H336.013V555.217ZM336.013 548.135H330.884V542.344H336.013V548.135ZM336.013 541.029H330.884V535.263H336.013V541.029ZM336.013 533.923H330.884V528.157H336.013V533.923ZM351.94 576.485H346.808V570.719H351.94V576.485ZM351.94 569.404H346.808V563.638H351.94V569.404ZM351.94 562.297H346.808V556.531H351.94V562.297ZM351.94 555.217H346.808V549.451H351.94V555.217ZM351.94 548.135H346.808V542.344H351.94V548.135ZM351.94 541.029H346.808V535.263H351.94V541.029ZM351.94 533.923H346.808V528.157H351.94V533.923ZM351.94 526.842H346.808V521.076H351.94V526.842ZM351.94 519.761H346.808V513.995H351.94V519.761ZM351.94 512.655H346.808V506.864H351.94V512.655ZM351.94 505.574H346.808V499.783H351.94V505.574ZM358.385 576.485H353.256V570.719H358.385V576.485ZM358.385 569.404H353.256V563.638H358.385V569.404ZM358.385 562.297H353.256V556.531H358.385V562.297ZM358.385 555.217H353.256V549.451H358.385V555.217ZM358.385 548.135H353.256V542.344H358.385V548.135ZM358.385 541.029H353.256V535.263H358.385V541.029ZM358.385 533.923H353.256V528.157H358.385V533.923ZM358.385 526.842H353.256V521.076H358.385V526.842ZM358.385 519.761H353.256V513.995H358.385V519.761ZM358.385 512.655H353.256V506.864H358.385V512.655ZM358.385 505.574H353.256V499.783H358.385V505.574ZM364.832 576.485H359.7V570.719H364.832V576.485ZM364.832 569.404H359.7V563.638H364.832V569.404ZM364.832 562.297H359.7V556.531H364.832V562.297ZM364.832 555.217H359.7V549.451H364.832V555.217ZM364.832 548.135H359.7V542.344H364.832V548.135ZM364.832 541.029H359.7V535.263H364.832V541.029ZM364.832 533.923H359.7V528.157H364.832V533.923ZM364.832 526.842H359.7V521.076H364.832V526.842ZM364.832 519.761H359.7V513.995H364.832V519.761ZM364.832 512.655H359.7V506.864H364.832V512.655ZM364.832 505.574H359.7V499.783H364.832V505.574ZM371.302 576.485H366.173V570.719H371.302V576.485ZM371.302 569.404H366.173V563.638H371.302V569.404ZM371.302 562.297H366.173V556.531H371.302V562.297ZM371.302 555.217H366.173V549.451H371.302V555.217ZM371.302 548.135H366.173V542.344H371.302V548.135ZM371.302 541.029H366.173V535.263H371.302V541.029ZM371.302 533.923H366.173V528.157H371.302V533.923ZM371.302 526.842H366.173V521.076H371.302V526.842ZM371.302 519.761H366.173V513.995H371.302V519.761ZM371.302 512.655H366.173V506.864H371.302V512.655ZM371.302 505.574H366.173V499.783H371.302V505.574Z" fill="white"/>
<path d="M311.973 516.347H310.963V522.442H311.973V516.347Z" fill="white"/>
<path d="M314.35 511.921L313.997 509.544H312.405L312.529 511.921H314.35Z" fill="white"/>
<path d="M310.483 511.921L310.635 509.544H309.043L308.662 511.921H310.483Z" fill="white"/>
<path d="M312.656 514.4H314.728L314.376 512.048H312.529L312.656 514.4Z" fill="white"/>
<path d="M312.428 511.921L312.304 509.544H310.734L310.61 511.921H312.428Z" fill="white"/>
<path d="M308.941 509.544H308.713C307.982 509.544 307.146 510.303 306.892 511.239L306.717 511.896H308.538L308.941 509.544Z" fill="white"/>
<path d="M308.637 512.048L308.258 514.4H310.33L310.483 512.048H308.637Z" fill="white"/>
<path d="M310.585 512.048L310.458 514.4H312.53L312.431 512.048H310.585Z" fill="white"/>
<path d="M316.273 511.921L316.095 511.264C315.841 510.328 315.059 509.57 314.3 509.57H314.074L314.452 511.947H316.273V511.921Z" fill="white"/>
<path d="M308.535 512.048H306.691L306.059 514.4H308.131L308.535 512.048Z" fill="white"/>
<path d="M312.656 514.526L312.784 516.903H315.11L314.754 514.526H312.656Z" fill="white"/>
<path d="M314.477 512.048L314.856 514.4H316.928L316.323 512.048H314.477Z" fill="white"/>
<path d="M315.262 516.903H315.589C316.676 516.903 317.359 516.145 317.131 515.209L316.953 514.552H314.881L315.262 516.903Z" fill="white"/>
<path d="M310.458 514.526L310.331 516.903H312.631L312.53 514.526H310.458Z" fill="white"/>
<path d="M306.034 514.526L305.856 515.184C305.605 516.119 306.288 516.878 307.375 516.878H307.702L308.106 514.526H306.034Z" fill="white"/>
<path d="M308.233 514.526L307.855 516.903H310.181L310.331 514.526H308.233Z" fill="white"/>
<path d="M324.033 516.347H323.022V522.442H324.033V516.347Z" fill="white"/>
<path d="M326.384 511.921L326.029 509.544H324.437L324.564 511.921H326.384Z" fill="white"/>
<path d="M322.517 511.921L322.667 509.544H321.1L320.696 511.921H322.517Z" fill="white"/>
<path d="M324.691 514.4H326.763L326.41 512.048H324.563L324.691 514.4Z" fill="white"/>
<path d="M324.462 511.921L324.36 509.544H322.768L322.641 511.921H324.462Z" fill="white"/>
<path d="M320.998 509.544H320.772C320.038 509.544 319.206 510.303 318.952 511.239L318.774 511.896H320.595L320.998 509.544Z" fill="white"/>
<path d="M320.671 512.048L320.292 514.4H322.365L322.517 512.048H320.671Z" fill="white"/>
<path d="M322.618 512.048L322.491 514.4H324.563L324.462 512.048H322.618Z" fill="white"/>
<path d="M328.329 511.921L328.154 511.264C327.9 510.328 327.115 509.57 326.359 509.57H326.13L326.511 511.947H328.329V511.921Z" fill="white"/>
<path d="M320.569 512.048H318.723L318.091 514.4H320.165L320.569 512.048Z" fill="white"/>
<path d="M324.69 514.526L324.817 516.903H327.141L326.788 514.526H324.69Z" fill="white"/>
<path d="M326.534 512.048L326.89 514.4H328.962L328.355 512.048H326.534Z" fill="white"/>
<path d="M327.293 516.903H327.624C328.71 516.903 329.391 516.145 329.165 515.209L328.987 514.552H326.915L327.293 516.903Z" fill="white"/>
<path d="M322.492 514.526L322.365 516.903H324.665L324.564 514.526H322.492Z" fill="white"/>
<path d="M318.068 514.526L317.89 515.184C317.636 516.119 318.319 516.878 319.406 516.878H319.736L320.14 514.526H318.068Z" fill="white"/>
<path d="M320.267 514.526L319.886 516.903H322.212L322.364 514.526H320.267Z" fill="white"/>
<path d="M336.064 516.347H335.054V522.442H336.064V516.347Z" fill="white"/>
<path d="M338.416 511.921L338.063 509.544H336.496L336.595 511.921H338.416Z" fill="white"/>
<path d="M334.548 511.921L334.701 509.544H333.134L332.728 511.921H334.548Z" fill="white"/>
<path d="M336.722 514.4H338.794L338.441 512.048H336.62L336.722 514.4Z" fill="white"/>
<path d="M336.493 511.921L336.394 509.544H334.799L334.675 511.921H336.493Z" fill="white"/>
<path d="M333.032 509.544H332.804C332.07 509.544 331.237 510.303 330.983 511.239L330.808 511.896H332.626L333.032 509.544Z" fill="white"/>
<path d="M332.727 512.048L332.324 514.4H334.396L334.548 512.048H332.727Z" fill="white"/>
<path d="M334.675 512.048L334.523 514.4H336.595L336.496 512.048H334.675Z" fill="white"/>
<path d="M340.363 511.921L340.186 511.264C339.931 510.328 339.149 509.57 338.39 509.57H338.164L338.543 511.947H340.363V511.921Z" fill="white"/>
<path d="M332.6 512.048H330.782L330.125 514.4H332.197L332.6 512.048Z" fill="white"/>
<path d="M336.747 514.526L336.849 516.903H339.175L338.819 514.526H336.747Z" fill="white"/>
<path d="M338.568 512.048L338.921 514.4H340.993L340.389 512.048H338.568Z" fill="white"/>
<path d="M339.325 516.903H339.655C340.742 516.903 341.425 516.145 341.196 515.209L341.018 514.552H338.946L339.325 516.903Z" fill="white"/>
<path d="M334.523 514.526L334.396 516.903H336.722L336.595 514.526H334.523Z" fill="white"/>
<path d="M330.099 514.526L329.921 515.184C329.67 516.119 330.35 516.878 331.44 516.878H331.768L332.171 514.526H330.099Z" fill="white"/>
<path d="M332.324 514.526L331.92 516.903H334.246L334.396 514.526H332.324Z" fill="white"/>
</g>
<defs>
<clipPath id="clip0">
<rect width="375" height="667" fill="white"/>
</clipPath>
</defs>
</svg>
