<svg width="1920" height="1080" viewBox="0 0 1920 1080" fill="none" xmlns="http://www.w3.org/2000/svg">
<path d="M534.043 629.92V613.622H517.477V599.473H506.104L473.777 568.579L441.45 599.473H430.078V613.622H413.511V629.92H428.287V871.879H413.511V888.177H533.954V871.879H519.178V629.92H534.043ZM494.284 838.299V821.732H509.059V838.299H494.284ZM509.059 842.06V858.626H494.284V842.06H509.059ZM494.284 817.971V801.405H509.059V817.971H494.284ZM494.284 797.644V781.077H509.059V797.644H494.284ZM494.284 777.316V760.75H509.059V777.316H494.284ZM494.284 756.989V740.422H509.059V756.989H494.284ZM494.284 736.751V720.184H509.059V736.751H494.284ZM494.284 716.423V699.857H509.059V716.423H494.284ZM494.284 696.096V679.529H509.059V696.096H494.284ZM494.284 675.768V659.202H509.059V675.768H494.284ZM494.284 655.441V638.964H509.059V655.53H494.284V655.441ZM475.747 838.299V821.732H490.523V838.299H475.747ZM490.523 842.06V858.626H475.747V842.06H490.523ZM475.747 817.971V801.405H490.523V817.971H475.747ZM475.747 797.644V781.077H490.523V797.644H475.747ZM475.747 777.316V760.75H490.523V777.316H475.747ZM475.747 756.989V740.422H490.523V756.989H475.747ZM475.747 736.751V720.184H490.523V736.751H475.747ZM475.747 716.423V699.857H490.523V716.423H475.747ZM475.747 696.096V679.529H490.523V696.096H475.747ZM475.747 675.768V659.202H490.523V675.768H475.747ZM475.747 655.441V638.964H490.523V655.53H475.747V655.441ZM457.121 838.299V821.732H471.897V838.299H457.121ZM471.897 842.06V858.626H457.121V842.06H471.897ZM457.121 817.971V801.405H471.897V817.971H457.121ZM457.121 797.644V781.077H471.897V797.644H457.121ZM457.121 777.316V760.75H471.897V777.316H457.121ZM457.121 756.989V740.422H471.897V756.989H457.121ZM457.121 736.751V720.184H471.897V736.751H457.121ZM457.121 716.423V699.857H471.897V716.423H457.121ZM457.121 696.096V679.529H471.897V696.096H457.121ZM457.121 675.768V659.202H471.897V675.768H457.121ZM457.121 655.441V638.964H471.897V655.53H457.121V655.441ZM438.585 838.299V821.732H453.36V838.299H438.585ZM453.36 842.06V858.626H438.585V842.06H453.36ZM438.585 817.971V801.405H453.36V817.971H438.585ZM438.585 797.644V781.077H453.36V797.644H438.585ZM438.585 777.316V760.75H453.36V777.316H438.585ZM438.585 756.989V740.422H453.36V756.989H438.585ZM438.585 736.751V720.184H453.36V736.751H438.585ZM438.585 716.423V699.857H453.36V716.423H438.585ZM438.585 696.096V679.529H453.36V696.096H438.585ZM438.585 675.768V659.202H453.36V675.768H438.585ZM438.585 655.441V638.964H453.36V655.53H438.585V655.441Z" fill="white"/>
<path d="M1182.37 629.92V613.622H1165.9V599.473H1154.53L1122.2 568.579L1089.87 599.473H1078.5V613.622H1061.93V629.92H1076.71V871.879H1061.93V888.177H1182.37V871.879H1167.6V629.92H1182.37ZM1142.62 838.299V821.732H1157.39V838.299H1142.62ZM1157.39 842.06V858.626H1142.62V842.06H1157.39ZM1142.62 817.971V801.405H1157.39V817.971H1142.62ZM1142.62 797.644V781.077H1157.39V797.644H1142.62ZM1142.62 777.316V760.75H1157.39V777.316H1142.62ZM1142.62 756.989V740.422H1157.39V756.989H1142.62ZM1142.62 736.751V720.184H1157.39V736.751H1142.62ZM1142.62 716.423V699.857H1157.39V716.423H1142.62ZM1142.62 696.096V679.529H1157.39V696.096H1142.62ZM1142.62 675.768V659.202H1157.39V675.768H1142.62ZM1142.62 655.53V638.964H1157.39V655.53H1142.62ZM1123.99 838.299V821.732H1138.76V838.299H1123.99ZM1138.85 842.06V858.626H1124.08V842.06H1138.85ZM1123.99 817.971V801.405H1138.76V817.971H1123.99ZM1123.99 797.644V781.077H1138.76V797.644H1123.99ZM1123.99 777.316V760.75H1138.76V777.316H1123.99ZM1123.99 756.989V740.422H1138.76V756.989H1123.99ZM1123.99 736.751V720.184H1138.76V736.751H1123.99ZM1123.99 716.423V699.857H1138.76V716.423H1123.99ZM1123.99 696.096V679.529H1138.76V696.096H1123.99ZM1123.99 675.768V659.202H1138.76V675.768H1123.99ZM1123.99 655.53V638.964H1138.76V655.53H1123.99ZM1105.45 838.299V821.732H1120.23V838.299H1105.45ZM1120.23 842.06V858.626H1105.45V842.06H1120.23ZM1105.45 817.971V801.405H1120.23V817.971H1105.45ZM1105.45 797.644V781.077H1120.23V797.644H1105.45ZM1105.45 777.316V760.75H1120.23V777.316H1105.45ZM1105.45 756.989V740.422H1120.23V756.989H1105.45ZM1105.45 736.751V720.184H1120.23V736.751H1105.45ZM1105.45 716.423V699.857H1120.23V716.423H1105.45ZM1105.45 696.096V679.529H1120.23V696.096H1105.45ZM1105.45 675.768V659.202H1120.23V675.768H1105.45ZM1105.45 655.53V638.964H1120.23V655.53H1105.45ZM1086.83 838.299V821.732H1101.6V838.299H1086.83ZM1101.69 842.06V858.626H1086.92V842.06H1101.69ZM1086.83 817.971V801.405H1101.6V817.971H1086.83ZM1086.83 797.644V781.077H1101.6V797.644H1086.83ZM1086.83 777.316V760.75H1101.6V777.316H1086.83ZM1086.83 756.989V740.422H1101.6V756.989H1086.83ZM1086.83 736.751V720.184H1101.6V736.751H1086.83ZM1086.83 716.423V699.857H1101.6V716.423H1086.83ZM1086.83 696.096V679.529H1101.6V696.096H1086.83ZM1086.83 675.768V659.202H1101.6V675.768H1086.83ZM1086.83 655.53V638.964H1101.6V655.53H1086.83Z" fill="white"/>
<path d="M315.277 876.178L315.456 660.366H275.07L274.891 876.178H272.204L272.294 772.122H222.326L222.236 876.178H220.087L220.177 705.946L164.925 705.857L164.746 876.088H160V888.177L321.366 888.267V876.267L315.277 876.178ZM299.516 673.977H309.635V687.678H299.516V673.977ZM299.516 699.946H309.635V713.647H299.516V699.946ZM299.516 725.826H309.635V739.527H299.516V725.826ZM299.427 751.705H309.546V765.406H299.427V751.705ZM299.427 777.674H309.546V791.375H299.427V777.674ZM299.427 803.554H309.546V817.255H299.427V803.554ZM299.427 829.523H309.456V868.387H299.337L299.427 829.523ZM281.875 673.977H291.994V687.678H281.875V673.977ZM281.875 699.946H291.994V713.647H281.875V699.946ZM281.875 725.826H291.994V739.527H281.875V725.826ZM281.875 751.705H291.994V765.406H281.875V751.705ZM281.786 777.674H291.905V791.375H281.786V777.674ZM281.786 803.554H291.905V817.255H281.786V803.554ZM281.786 829.433H291.905V843.134H281.786V829.433ZM198.506 716.692H212.296V727.617H198.506V716.692ZM198.506 737.378H212.296V748.303H198.506V737.378ZM198.506 757.974H212.296V768.899H198.506V757.974ZM198.416 778.66H212.207V789.584H198.416V778.66ZM198.416 799.256H212.207V810.181H198.416V799.256ZM198.416 819.941H212.207V830.866H198.416V819.941ZM198.416 840.537H212.207V871.521H198.416V840.537ZM174.417 716.692H188.208V727.617H174.417V716.692ZM174.417 737.378H188.208V748.303H174.417V737.378ZM174.328 757.974H188.118V768.899H174.328V757.974ZM174.328 778.66H188.118V789.584H174.328V778.66ZM174.328 799.256H188.118V810.181H174.328V799.256ZM174.328 819.941H188.118V830.866H174.328V819.941ZM174.328 840.537H188.118V851.462H174.328V840.537ZM250.533 782.689H264.324V793.525H250.533V782.689ZM250.533 803.285H264.324V814.21H250.533V803.285ZM250.533 823.971H264.324V834.896H250.533V823.971ZM250.444 844.657H264.234V855.582H250.444V844.657ZM250.444 865.253H264.234V876.088H250.444V865.253ZM226.445 782.689H240.235V793.614H226.445V782.689ZM226.445 803.285H240.235V814.21H226.445V803.285ZM226.445 823.971H240.235V834.896H226.445V823.971ZM226.355 844.567H240.146V876.088H235.131H226.355V844.567Z" fill="white"/>
<path d="M425.69 716.423V700.215H318.679V716.423H326.739V871.879H321.455V888.177H422.914V871.879H417.63V716.423H425.69ZM392.646 720.184H407.422V736.751H392.646V720.184ZM392.646 740.512H407.422V757.078H392.646V740.512ZM392.646 760.75H407.422V777.316H392.646V760.75ZM392.646 781.077H407.422V797.644H392.646V781.077ZM392.646 801.405H407.422V817.971H392.646V801.405ZM392.646 821.732H407.422V838.299H392.646V821.732ZM392.646 842.06H407.422V858.626H392.646V842.06ZM374.11 720.184H388.885V736.751H374.11V720.184ZM374.11 740.512H388.885V757.078H374.11V740.512ZM374.11 760.75H388.885V777.316H374.11V760.75ZM374.11 781.077H388.885V797.644H374.11V781.077ZM374.11 801.405H388.885V817.971H374.11V801.405ZM374.11 821.732H388.885V838.299H374.11V821.732ZM374.11 842.06H388.885V858.626H374.11V842.06ZM355.484 720.184H370.259V736.751H355.484V720.184ZM355.484 740.512H370.259V757.078H355.484V740.512ZM355.484 760.75H370.259V777.316H355.484V760.75ZM355.484 781.077H370.259V797.644H355.484V781.077ZM355.484 801.405H370.259V817.971H355.484V801.405ZM355.484 821.732H370.259V838.299H355.484V821.732ZM355.484 842.06H370.259V858.626H355.484V842.06ZM336.947 720.184H351.723V736.751H336.947V720.184ZM336.947 740.512H351.723V757.078H336.947V740.512ZM336.947 760.75H351.723V777.316H336.947V760.75ZM336.947 781.077H351.723V797.644H336.947V781.077ZM336.947 801.405H351.723V817.971H336.947V801.405ZM336.947 821.732H351.723V838.299H336.947V821.732ZM336.947 842.06H351.723V858.626H336.947V842.06Z" fill="white"/>
<path d="M372.409 678.365L367.215 661.172C365.872 656.784 362.11 653.292 358.708 653.292H334.977C331.574 653.292 327.813 656.874 326.56 661.261L321.635 678.455C320.381 682.843 323.605 686.425 328.798 686.425H345.275V706.036H348.589V686.425H365.155C370.528 686.335 373.662 682.753 372.409 678.365ZM368.916 674.515H360.588L358.976 665.022H366.319L368.916 674.515ZM351.096 665.112H358.439L360.051 674.604H351.723L351.096 665.112ZM351.186 674.515H342.858L343.305 665.022H350.648L351.186 674.515ZM358.17 655.083C361.125 655.083 364.439 658.127 365.424 661.888L366.14 664.485H358.797L357.185 655.083H358.17ZM356.827 655.083L358.349 664.485H351.006L350.469 654.993H356.827V655.083ZM350.021 655.083L350.559 664.575H343.216L343.664 655.083H350.021ZM343.305 655.083L342.858 664.575H335.515L336.947 655.083H343.305ZM328.351 661.978C329.336 658.217 332.56 655.172 335.515 655.172H336.41L334.977 664.664H327.634L328.351 661.978ZM327.545 665.112H334.888L333.365 674.604H325.037L327.545 665.112ZM330.5 684.544C326.112 684.544 323.336 681.499 324.321 677.738L325.037 675.141H333.455L331.933 684.634H330.5V684.544ZM341.873 684.544H332.559L333.992 675.052H342.41L341.873 684.544ZM333.992 674.604L335.425 665.112H342.768L342.32 674.604H333.992ZM342.41 684.544L342.858 675.141H351.275L351.812 684.634L342.41 684.544ZM352.35 684.544L351.723 675.052H360.14L361.663 684.544H352.35ZM363.633 684.544H362.29L360.678 675.052H369.095L369.812 677.649C370.797 681.41 368.021 684.544 363.633 684.544Z" fill="white"/>
<path d="M425.242 678.365L420.048 661.172C418.705 656.784 414.944 653.292 411.541 653.292H387.811C384.408 653.292 380.647 656.874 379.393 661.261L374.468 678.455C373.214 682.843 376.438 686.425 381.632 686.425H398.109V706.036H401.422V686.425H417.989C423.361 686.335 426.496 682.753 425.242 678.365ZM421.75 674.515H413.422L411.81 665.022H419.153L421.75 674.515ZM403.929 665.112H411.272L412.884 674.604H404.556L403.929 665.112ZM404.019 674.515H395.691L396.139 665.022H403.482L404.019 674.515ZM411.004 655.083C413.959 655.083 417.272 658.127 418.347 661.888L419.063 664.485H411.72L410.108 655.083H411.004ZM409.661 655.083L411.183 664.485H403.84L403.213 654.993H409.661V655.083ZM402.855 655.083L403.392 664.575H396.049L396.497 655.083H402.855ZM396.139 655.083L395.691 664.575H388.348L389.781 655.083H396.139ZM381.184 661.978C382.169 658.217 385.393 655.172 388.348 655.172H389.243L387.811 664.664H380.468L381.184 661.978ZM380.378 665.112H387.721L386.199 674.604H377.871L380.378 665.112ZM383.333 684.544C378.945 684.544 376.169 681.499 377.154 677.738L377.871 675.141H386.288L384.766 684.634H383.333V684.544ZM394.706 684.544H385.393L386.826 675.052H395.243L394.706 684.544ZM386.826 674.604L388.258 665.112H395.691L395.243 674.604H386.826ZM395.243 684.544L395.691 675.141H404.109L404.646 684.634L395.243 684.544ZM405.183 684.544L404.556 675.052H412.974L414.496 684.544H405.183ZM416.466 684.544H415.123L413.511 675.052H421.929L422.645 677.649C423.63 681.41 420.854 684.544 416.466 684.544Z" fill="white"/>
<path d="M1073.04 716.423V700.215H965.936V716.423H973.996V871.879H968.712V888.177H1070.17V871.879H1064.89V716.423H1073.04ZM1039.99 720.184H1054.77V736.751H1039.99V720.184ZM1039.99 740.512H1054.77V757.078H1039.99V740.512ZM1039.99 760.75H1054.77V777.316H1039.99V760.75ZM1039.99 781.077H1054.77V797.644H1039.99V781.077ZM1039.99 801.405H1054.77V817.971H1039.99V801.405ZM1039.99 821.732H1054.77V838.299H1039.99V821.732ZM1039.99 842.06H1054.77V858.626H1039.99V842.06ZM1021.37 720.184H1036.14V736.751H1021.37V720.184ZM1021.37 740.512H1036.14V757.078H1021.37V740.512ZM1021.37 760.75H1036.14V777.316H1021.37V760.75ZM1021.37 781.077H1036.14V797.644H1021.37V781.077ZM1021.37 801.405H1036.14V817.971H1021.37V801.405ZM1021.37 821.732H1036.14V838.299H1021.37V821.732ZM1021.37 842.06H1036.14V858.626H1021.37V842.06ZM1002.83 720.184H1017.61V736.751H1002.83V720.184ZM1002.83 740.512H1017.61V757.078H1002.83V740.512ZM1002.83 760.75H1017.61V777.316H1002.83V760.75ZM1002.83 781.077H1017.61V797.644H1002.83V781.077ZM1002.83 801.405H1017.61V817.971H1002.83V801.405ZM1002.83 821.732H1017.61V838.299H1002.83V821.732ZM1002.83 842.06H1017.61V858.626H1002.83V842.06ZM984.204 720.184H998.98V736.751H984.204V720.184ZM984.204 740.512H998.98V757.078H984.204V740.512ZM984.204 760.75H998.98V777.316H984.204V760.75ZM984.204 781.077H998.98V797.644H984.204V781.077ZM984.204 801.405H998.98V817.971H984.204V801.405ZM984.204 821.732H998.98V838.299H984.204V821.732ZM984.204 842.06H998.98V858.626H984.204V842.06Z" fill="white"/>
<path d="M1019.67 678.365L1014.47 661.172C1013.13 656.784 1009.37 653.292 1005.96 653.292H982.234C978.832 653.292 975.071 656.874 973.817 661.261L968.892 678.455C967.638 682.843 970.862 686.425 976.056 686.425H992.532V706.036H995.846V686.425H1012.41C1017.87 686.335 1021.01 682.753 1019.67 678.365ZM1016.26 674.515H1007.93L1006.32 665.022H1013.67L1016.26 674.515ZM998.443 665.112H1005.79L1007.4 674.604H999.069L998.443 665.112ZM998.532 674.515H990.204L990.652 665.022H997.995L998.532 674.515ZM1005.52 655.083C1008.47 655.083 1011.79 658.127 1012.77 661.888L1013.49 664.485H1006.14L1004.53 655.083H1005.52ZM1004.17 655.083L1005.7 664.485H998.353L997.726 654.993H1004.17V655.083ZM997.368 655.083L997.905 664.575H990.562L991.01 655.083H997.368ZM990.652 655.083L990.204 664.575H982.861L984.294 655.083H990.652ZM975.697 661.978C976.682 658.217 979.906 655.172 982.861 655.172H983.757L982.324 664.664H974.981L975.697 661.978ZM974.891 665.112H982.234L980.712 674.604H972.384L974.891 665.112ZM977.847 684.544C973.459 684.544 970.683 681.499 971.668 677.738L972.384 675.141H980.802L979.279 684.634H977.847V684.544ZM989.13 684.544H979.817L981.249 675.052H989.667L989.13 684.544ZM981.339 674.604L982.772 665.112H990.115L989.667 674.604H981.339ZM989.756 684.544L990.204 675.141H998.622L999.159 684.634L989.756 684.544ZM999.696 684.544L999.069 675.052H1007.49L1009.01 684.544H999.696ZM1010.98 684.544H1009.64L1008.02 675.052H1016.44L1017.16 677.649C1018.14 681.41 1015.37 684.544 1010.98 684.544Z" fill="white"/>
<path d="M1072.5 678.365L1067.3 661.172C1065.96 656.784 1062.2 653.292 1058.8 653.292H1035.07C1031.66 653.292 1027.9 656.874 1026.65 661.261L1021.72 678.455C1020.47 682.843 1023.69 686.425 1028.89 686.425H1045.37V706.036H1048.68V686.425H1065.24C1070.71 686.335 1073.84 682.753 1072.5 678.365ZM1069.1 674.515H1060.77L1059.16 665.022H1066.5L1069.1 674.515ZM1051.28 665.112H1058.62L1060.23 674.604H1051.9L1051.28 665.112ZM1051.28 674.515H1042.95L1043.4 665.022H1050.74L1051.28 674.515ZM1058.35 655.083C1061.3 655.083 1064.62 658.127 1065.69 661.888L1066.41 664.485H1059.07L1057.45 655.083H1058.35ZM1057.01 655.083L1058.53 664.485H1051.19L1050.56 654.993H1057.01V655.083ZM1050.2 655.083L1050.74 664.575H1043.4L1043.84 655.083H1050.2ZM1043.4 655.083L1042.95 664.575H1035.6L1037.04 655.083H1043.4ZM1028.53 661.978C1029.52 658.217 1032.74 655.172 1035.69 655.172H1036.59L1035.16 664.664H1027.81L1028.53 661.978ZM1027.72 665.112H1035.07L1033.54 674.604H1025.22L1027.72 665.112ZM1030.68 684.544C1026.29 684.544 1023.52 681.499 1024.5 677.738L1025.22 675.141H1033.63L1032.11 684.634H1030.68V684.544ZM1041.96 684.544H1032.65L1034.08 675.052H1042.5L1041.96 684.544ZM1034.17 674.604L1035.6 665.112H1042.95L1042.5 674.604H1034.17ZM1042.59 684.544L1043.04 675.141H1051.45L1051.99 684.634L1042.59 684.544ZM1052.53 684.544L1051.9 675.052H1060.32L1061.84 684.544H1052.53ZM1063.81 684.544H1062.47L1060.86 675.052H1069.27L1069.99 677.649C1070.98 681.41 1068.2 684.544 1063.81 684.544Z" fill="white"/>
<path d="M844.149 586.668L840.03 572.877C838.956 569.385 835.911 566.519 833.135 566.519H814.061C811.375 566.519 808.33 569.385 807.256 572.877L803.315 586.668C802.33 590.16 804.927 593.026 809.136 593.026H822.479V608.876H825.165V593.026H838.508C842.717 593.115 845.224 590.25 844.149 586.668ZM841.373 583.623H834.657L833.314 576.012H839.224L841.373 583.623ZM827.046 576.012H832.956L834.21 583.623H827.493L827.046 576.012ZM827.135 583.623H820.419L820.777 576.012H826.687L827.135 583.623ZM832.777 567.952C835.195 567.952 837.791 570.46 838.687 573.415L839.314 575.564H833.404L832.06 567.952H832.777ZM831.702 567.952L832.956 575.564H827.046L826.598 567.952H831.702ZM826.15 567.952L826.598 575.564H820.688L821.046 567.952H826.15ZM820.777 567.952L820.419 575.564H814.509L815.673 567.952H820.777ZM808.778 573.504C809.584 570.46 812.181 568.042 814.598 568.042H815.315L814.151 575.653H808.241L808.778 573.504ZM808.061 576.012H813.972L812.807 583.623H806.091L808.061 576.012ZM810.479 591.683C806.987 591.683 804.659 589.175 805.465 586.22L806.002 584.071H812.807L811.554 591.683H810.479ZM819.524 591.683H812.002L813.166 584.071H819.882L819.524 591.683ZM813.255 583.623L814.419 576.012H820.33L819.971 583.623H813.255ZM820.061 591.683L820.419 584.071H827.135L827.583 591.683H820.061ZM828.031 591.683L827.493 584.071H834.21L835.463 591.683H828.031ZM837.165 591.683H836.09L834.747 584.071H841.463L842 586.22C842.896 589.175 840.657 591.593 837.165 591.683Z" fill="white"/>
<path d="M886.775 586.668L882.567 572.877C881.492 569.385 878.447 566.519 875.671 566.519H856.598C853.911 566.519 850.867 569.385 849.792 572.877L845.852 586.668C844.867 590.16 847.464 593.026 851.672 593.026H865.015V608.876H867.702V593.026H881.044C885.253 593.115 887.85 590.25 886.775 586.668ZM883.999 583.623H877.283L875.94 576.012H881.85L883.999 583.623ZM869.582 576.012H875.492L876.746 583.623H870.03L869.582 576.012ZM869.672 583.623H862.956L863.314 576.012H869.224L869.672 583.623ZM875.313 567.952C877.731 567.952 880.417 570.46 881.223 573.415L881.85 575.564H875.94L874.597 567.952H875.313ZM874.239 567.952L875.492 575.564H869.582L869.134 567.952H874.239ZM868.776 567.952L869.224 575.564H863.314L863.672 567.952H868.776ZM863.314 567.952L862.956 575.564H857.045L858.209 567.952H863.314ZM851.314 573.504C852.12 570.46 854.717 568.042 857.135 568.042H857.851L856.687 575.653H850.777L851.314 573.504ZM850.687 576.012H856.598L855.433 583.623H848.717L850.687 576.012ZM853.016 591.683C849.523 591.683 847.195 589.175 848.001 586.22L848.538 584.071H855.344L854.09 591.683H853.016ZM862.15 591.683H854.628L855.792 584.071H862.508L862.15 591.683ZM855.792 583.623L856.956 576.012H862.866L862.508 583.623H855.792ZM862.597 591.683L862.956 584.071H869.761L870.209 591.683H862.597ZM870.657 591.683L870.119 584.071H876.836L878.089 591.683H870.657ZM879.701 591.683H878.626L877.283 584.071H883.999L884.537 586.22C885.432 589.175 883.283 591.593 879.701 591.683Z" fill="white"/>
<path d="M886.686 869.193L886.507 602.697L803.496 602.786L803.675 869.283H800.451L800.362 706.394H791.317V692.245H733.917V706.394H725.32L725.499 869.283H721.38L721.201 531.506H717.44L715.022 524.79H708.664L690.665 504.82L672.666 524.79H666.308L663.89 531.595H660.487L660.756 869.462H651.532V888.267L893.85 888.088V869.193H886.686ZM669.263 552.908H684.396V574.31H669.263V552.908ZM669.263 593.473H684.396V614.875H669.263V593.473ZM669.352 634.039H684.486V655.441H669.352V634.039ZM669.352 674.604H684.486V696.006H669.352V674.604ZM669.352 715.17H684.486V736.572H669.352V715.17ZM669.442 755.735H684.575V777.137H669.442V755.735ZM669.531 857.104V796.301H684.665L684.755 857.104H669.531ZM710.903 552.908V574.31H695.769V552.908H710.903ZM695.769 593.473H710.903V614.875H695.769V593.473ZM695.769 634.039H710.903V655.441H695.769V634.039ZM695.769 674.604H710.903V696.006H695.769V674.604ZM695.859 715.17H710.992V736.572H695.859V715.17ZM695.859 755.646H710.992V777.048H695.859V755.646ZM695.948 817.613V796.211H711.082V817.613H695.948ZM737.23 723.05H758.005V740.064H737.23V723.05ZM758.005 755.377V772.481H737.23V755.466L758.005 755.377ZM737.319 787.614H758.095V804.629H737.319V787.614ZM758.095 819.941V836.956H737.319V819.941H758.095ZM758.095 869.283H737.319V852.268H758.095V869.283ZM773.497 723.05H794.272V740.064H773.497V723.05ZM794.272 755.287V772.391H773.497V755.287H794.272ZM794.272 787.614V804.629H773.587V787.614H794.272ZM781.109 869.283H773.587V819.941H794.362V869.283H781.109ZM815.406 619.801H836.181V636.815H815.406V619.801ZM815.495 652.128H836.27V669.142H815.495V652.128ZM815.495 684.455H836.27V701.469H815.495V684.455ZM815.495 716.692H836.27V733.796H815.495V716.692ZM815.495 749.019H836.27V766.033H815.495V749.019ZM815.585 781.346H836.36V798.36H815.585V781.346ZM815.585 862.119V813.673H836.36V862.119H815.585ZM872.359 619.801V636.815H851.583V619.711L872.359 619.801ZM872.359 652.038V669.052H851.583V652.038H872.359ZM851.673 684.365H872.448V701.469H851.673V684.365ZM851.673 716.692H872.448V733.706H851.673V716.692ZM851.673 749.019H872.448V766.033H851.673V749.019ZM851.762 781.256H872.538V798.36H851.762V781.256ZM851.762 830.687V813.673H872.538V830.687H851.762Z" fill="white"/>
<path d="M1350.64 730.303L1324.58 761.645V745.795C1326.28 745.347 1327.53 743.915 1327.53 742.213C1327.53 740.154 1325.65 738.452 1323.32 738.452H1308.82C1306.49 738.452 1304.61 740.154 1304.61 742.213C1304.61 743.915 1305.86 745.347 1307.56 745.795V781.973L1281.51 813.225H1293.15V888.177H1408.04V813.225H1419.68L1350.64 730.303ZM1352.25 778.122H1366.22V792.092H1352.25V778.122ZM1352.25 795.315H1366.22V809.285H1352.25V795.315ZM1335.06 778.122H1349.03V792.092H1335.06V778.122ZM1335.06 795.315H1349.03V809.285H1335.06V795.315ZM1366.76 881.461H1334.43V849.134C1334.43 840.179 1341.68 833.015 1350.55 833.015C1359.5 833.015 1366.67 840.269 1366.67 849.134V881.461H1366.76Z" fill="white"/>
<path d="M1454.69 776.063L1436.15 798.271V787.077C1437.32 786.719 1438.21 785.734 1438.21 784.48C1438.21 782.958 1436.87 781.794 1435.26 781.794H1424.96C1423.35 781.794 1422.01 782.958 1422.01 784.48C1422.01 785.644 1422.9 786.719 1424.07 787.077V812.777L1405.53 834.985H1413.77V888.267H1495.35V834.985H1503.58L1454.69 776.063ZM1455.86 810.001H1465.8V819.941H1455.86V810.001ZM1455.86 822.27H1465.8V832.209H1455.86V822.27ZM1443.68 810.001H1453.62V819.941H1443.68V810.001ZM1443.68 822.27H1453.62V832.209H1443.68V822.27ZM1466.24 883.431H1443.32V860.507C1443.32 854.149 1448.42 849.045 1454.78 849.045C1461.14 849.045 1466.24 854.149 1466.24 860.507V883.431Z" fill="white"/>
<path d="M1405.08 817.971H1374.37L1378.22 811.076H1401.32L1405.08 817.971Z" fill="white"/>
<path d="M1393.62 811.434C1393.62 812.598 1391.65 813.494 1389.32 813.494C1386.99 813.494 1385.02 812.598 1385.02 811.434C1385.02 810.27 1386.9 809.374 1389.32 809.374C1391.74 809.464 1393.62 810.359 1393.62 811.434Z" fill="white"/>
<path d="M1345.44 770.063H1324.13L1326.73 765.317H1342.85L1345.44 770.063Z" fill="white"/>
<path d="M1337.47 765.585C1337.47 766.391 1336.13 767.018 1334.52 767.018C1332.91 767.018 1331.56 766.391 1331.56 765.585C1331.56 764.779 1332.91 764.153 1334.52 764.153C1336.13 764.153 1337.47 764.779 1337.47 765.585Z" fill="white"/>
<path d="M1463.38 799.166H1445.92L1448.15 795.315H1461.23L1463.38 799.166Z" fill="white"/>
<path d="M1456.93 795.495C1456.93 796.121 1455.86 796.659 1454.51 796.659C1453.17 796.659 1452.09 796.121 1452.09 795.495C1452.09 794.868 1453.17 794.331 1454.51 794.331C1455.77 794.331 1456.93 794.868 1456.93 795.495Z" fill="white"/>
<path d="M1760.41 568.848V548.61H1740.08V531.148H1726.11L1686.35 493L1646.59 531.148H1632.62V548.61H1612.39V568.758H1630.47V867.939H1623.85H1617.4V675.768H1627.25V655.709H1495.61V675.768H1505.46V868.029H1499.02V888.267H1612.39H1623.85H1760.5V868.029H1742.41V568.848H1760.41ZM1536.27 851.552H1518.09V831.135H1536.27V851.552ZM1536.27 826.478H1518.09V806.061H1536.27V826.478ZM1536.27 801.315H1518.09V780.898H1536.27V801.315ZM1536.27 776.242H1518.09V755.825H1536.27V776.242ZM1536.27 751.168H1518.09V730.662H1536.27V751.168ZM1536.27 726.005H1518.09V705.588H1536.27V726.005ZM1536.27 700.842H1518.09V680.425H1536.27V700.842ZM1559.1 851.552H1540.93V831.135H1559.1V851.552ZM1559.1 826.478H1540.93V806.061H1559.1V826.478ZM1559.1 801.315H1540.93V780.898H1559.1V801.315ZM1559.1 776.242H1540.93V755.825H1559.1V776.242ZM1559.1 751.168H1540.93V730.662H1559.1V751.168ZM1559.1 726.005H1540.93V705.588H1559.1V726.005ZM1559.1 700.842H1540.93V680.425H1559.1V700.842ZM1581.94 851.552H1563.76V831.135H1581.94V851.552ZM1581.94 826.478H1563.76V806.061H1581.94V826.478ZM1581.94 801.315H1563.76V780.898H1581.94V801.315ZM1581.94 776.242H1563.76V755.825H1581.94V776.242ZM1581.94 751.168H1563.76V730.662H1581.94V751.168ZM1581.94 726.005H1563.76V705.588H1581.94V726.005ZM1581.94 700.842H1563.76V680.425H1581.94V700.842ZM1604.77 851.552H1586.6V831.135H1604.77V851.552ZM1604.77 826.478H1586.6V806.061H1604.77V826.478ZM1604.77 801.315H1586.6V780.898H1604.77V801.315ZM1604.77 776.242H1586.6V755.825H1604.77V776.242ZM1604.77 751.168H1586.6V730.662H1604.77V751.168ZM1604.77 726.005H1586.6V705.588H1604.77V726.005ZM1604.77 700.842H1586.6V680.425H1604.77V700.842ZM1661.19 851.552H1643.01V831.135H1661.19V851.552ZM1661.19 826.478H1643.01V806.061H1661.19V826.478ZM1661.19 801.315H1643.01V780.898H1661.19V801.315ZM1661.19 776.242H1643.01V755.825H1661.19V776.242ZM1661.19 751.168H1643.01V730.662H1661.19V751.168ZM1661.19 726.005H1643.01V705.588H1661.19V726.005ZM1661.19 700.842H1643.01V680.425H1661.19V700.842ZM1661.19 675.768H1643.01V655.351H1661.19V675.768ZM1661.19 650.695H1643.01V630.278H1661.19V650.695ZM1661.19 625.532H1643.01V605.025H1661.19V625.532ZM1661.19 600.458H1643.01V579.952H1661.19V600.458ZM1684.02 851.552H1665.85V831.135H1684.02V851.552ZM1684.02 826.478H1665.85V806.061H1684.02V826.478ZM1684.02 801.315H1665.85V780.898H1684.02V801.315ZM1684.02 776.242H1665.85V755.825H1684.02V776.242ZM1684.02 751.168H1665.85V730.662H1684.02V751.168ZM1684.02 726.005H1665.85V705.588H1684.02V726.005ZM1684.02 700.842H1665.85V680.425H1684.02V700.842ZM1684.02 675.768H1665.85V655.351H1684.02V675.768ZM1684.02 650.695H1665.85V630.278H1684.02V650.695ZM1684.02 625.532H1665.85V605.025H1684.02V625.532ZM1684.02 600.458H1665.85V579.952H1684.02V600.458ZM1706.86 851.552H1688.68V831.135H1706.86V851.552ZM1706.86 826.478H1688.68V806.061H1706.86V826.478ZM1706.86 801.315H1688.68V780.898H1706.86V801.315ZM1706.86 776.242H1688.68V755.825H1706.86V776.242ZM1706.86 751.168H1688.68V730.662H1706.86V751.168ZM1706.86 726.005H1688.68V705.588H1706.86V726.005ZM1706.86 700.842H1688.68V680.425H1706.86V700.842ZM1706.86 675.768H1688.68V655.351H1706.86V675.768ZM1706.86 650.695H1688.68V630.278H1706.86V650.695ZM1706.86 625.532H1688.68V605.025H1706.86V625.532ZM1706.86 600.458H1688.68V579.952H1706.86V600.458ZM1729.78 851.552H1711.61V831.135H1729.78V851.552ZM1729.78 826.478H1711.61V806.061H1729.78V826.478ZM1729.78 801.315H1711.61V780.898H1729.78V801.315ZM1729.78 776.242H1711.61V755.825H1729.78V776.242ZM1729.78 751.168H1711.61V730.662H1729.78V751.168ZM1729.78 726.005H1711.61V705.588H1729.78V726.005ZM1729.78 700.842H1711.61V680.425H1729.78V700.842ZM1729.78 675.768H1711.61V655.351H1729.78V675.768ZM1729.78 650.695H1711.61V630.278H1729.78V650.695ZM1729.78 625.532H1711.61V605.025H1729.78V625.532ZM1729.78 600.458H1711.61V579.952H1729.78V600.458Z" fill="white"/>
<path d="M1519.61 638.606H1516.03V660.187H1519.61V638.606Z" fill="white"/>
<path d="M1528.03 622.935L1526.78 614.517H1521.14L1521.58 622.935H1528.03Z" fill="white"/>
<path d="M1514.33 622.935L1514.87 614.517H1509.23L1507.88 622.935H1514.33Z" fill="white"/>
<path d="M1522.03 631.711H1529.37L1528.12 623.383H1521.58L1522.03 631.711Z" fill="white"/>
<path d="M1521.22 622.935L1520.78 614.517H1515.22L1514.78 622.935H1521.22Z" fill="white"/>
<path d="M1508.87 614.517H1508.06C1505.47 614.517 1502.51 617.204 1501.61 620.517L1500.99 622.845H1507.44L1508.87 614.517Z" fill="white"/>
<path d="M1507.79 623.383L1506.45 631.711H1513.79L1514.33 623.383H1507.79Z" fill="white"/>
<path d="M1514.69 623.383L1514.24 631.711H1521.58L1521.23 623.383H1514.69Z" fill="white"/>
<path d="M1534.84 622.935L1534.21 620.606C1533.31 617.293 1530.54 614.607 1527.85 614.607H1527.05L1528.39 623.024H1534.84V622.935Z" fill="white"/>
<path d="M1507.43 623.383H1500.9L1498.66 631.711H1506L1507.43 623.383Z" fill="white"/>
<path d="M1522.03 632.158L1522.48 640.576H1530.72L1529.46 632.158H1522.03Z" fill="white"/>
<path d="M1528.48 623.383L1529.82 631.711H1537.16L1535.02 623.383H1528.48Z" fill="white"/>
<path d="M1531.26 640.576H1532.42C1536.27 640.576 1538.69 637.889 1537.88 634.576L1537.25 632.248H1529.91L1531.26 640.576Z" fill="white"/>
<path d="M1514.24 632.158L1513.79 640.576H1521.94L1521.58 632.158H1514.24Z" fill="white"/>
<path d="M1498.57 632.158L1497.94 634.487C1497.05 637.8 1499.47 640.486 1503.32 640.486H1504.48L1505.91 632.158H1498.57Z" fill="white"/>
<path d="M1506.36 632.158L1505.02 640.576H1513.26L1513.79 632.158H1506.36Z" fill="white"/>
<path d="M1562.33 638.606H1558.75V660.187H1562.33V638.606Z" fill="white"/>
<path d="M1570.66 622.935L1569.4 614.517H1563.76L1564.21 622.935H1570.66Z" fill="white"/>
<path d="M1556.96 622.935L1557.49 614.517H1551.94L1550.51 622.935H1556.96Z" fill="white"/>
<path d="M1564.66 631.711H1572L1570.75 623.383H1564.21L1564.66 631.711Z" fill="white"/>
<path d="M1563.85 622.935L1563.49 614.517H1557.85L1557.4 622.935H1563.85Z" fill="white"/>
<path d="M1551.58 614.517H1550.78C1548.18 614.517 1545.23 617.204 1544.33 620.517L1543.7 622.845H1550.15L1551.58 614.517Z" fill="white"/>
<path d="M1550.42 623.383L1549.08 631.711H1556.42L1556.96 623.383H1550.42Z" fill="white"/>
<path d="M1557.32 623.383L1556.87 631.711H1564.21L1563.85 623.383H1557.32Z" fill="white"/>
<path d="M1577.55 622.935L1576.93 620.606C1576.03 617.293 1573.25 614.607 1570.57 614.607H1569.76L1571.11 623.024H1577.55V622.935Z" fill="white"/>
<path d="M1550.06 623.383H1543.52L1541.28 631.711H1548.63L1550.06 623.383Z" fill="white"/>
<path d="M1564.66 632.158L1565.11 640.576H1573.34L1572.09 632.158H1564.66Z" fill="white"/>
<path d="M1571.19 623.383L1572.45 631.711H1579.79L1577.64 623.383H1571.19Z" fill="white"/>
<path d="M1573.88 640.576H1575.05C1578.9 640.576 1581.31 637.889 1580.51 634.576L1579.88 632.248H1572.54L1573.88 640.576Z" fill="white"/>
<path d="M1556.87 632.158L1556.42 640.576H1564.57L1564.21 632.158H1556.87Z" fill="white"/>
<path d="M1541.2 632.158L1540.57 634.487C1539.67 637.8 1542.09 640.486 1545.94 640.486H1547.11L1548.54 632.158H1541.2Z" fill="white"/>
<path d="M1548.99 632.158L1547.64 640.576H1555.88L1556.42 632.158H1548.99Z" fill="white"/>
<path d="M1604.95 638.606H1601.37V660.187H1604.95V638.606Z" fill="white"/>
<path d="M1613.28 622.935L1612.03 614.517H1606.48L1606.83 622.935H1613.28Z" fill="white"/>
<path d="M1599.58 622.935L1600.12 614.517H1594.57L1593.13 622.935H1599.58Z" fill="white"/>
<path d="M1607.28 631.711H1614.62L1613.37 623.383H1606.92L1607.28 631.711Z" fill="white"/>
<path d="M1606.47 622.935L1606.12 614.517H1600.47L1600.03 622.935H1606.47Z" fill="white"/>
<path d="M1594.21 614.517H1593.4C1590.8 614.517 1587.85 617.204 1586.95 620.517L1586.33 622.845H1592.77L1594.21 614.517Z" fill="white"/>
<path d="M1593.13 623.383L1591.7 631.711H1599.04L1599.58 623.383H1593.13Z" fill="white"/>
<path d="M1600.03 623.383L1599.49 631.711H1606.83L1606.48 623.383H1600.03Z" fill="white"/>
<path d="M1620.18 622.935L1619.55 620.606C1618.65 617.293 1615.88 614.607 1613.19 614.607H1612.39L1613.73 623.024H1620.18V622.935Z" fill="white"/>
<path d="M1592.68 623.383H1586.24L1583.91 631.711H1591.25L1592.68 623.383Z" fill="white"/>
<path d="M1607.37 632.158L1607.73 640.576H1615.97L1614.71 632.158H1607.37Z" fill="white"/>
<path d="M1613.82 623.383L1615.07 631.711H1622.41L1620.27 623.383H1613.82Z" fill="white"/>
<path d="M1616.5 640.576H1617.67C1621.52 640.576 1623.94 637.889 1623.13 634.576L1622.5 632.248H1615.16L1616.5 640.576Z" fill="white"/>
<path d="M1599.49 632.158L1599.04 640.576H1607.28L1606.83 632.158H1599.49Z" fill="white"/>
<path d="M1583.82 632.158L1583.19 634.487C1582.3 637.8 1584.71 640.486 1588.57 640.486H1589.73L1591.16 632.158H1583.82Z" fill="white"/>
<path d="M1591.7 632.158L1590.27 640.576H1598.51L1599.04 632.158H1591.7Z" fill="white"/>
</svg>
