<svg width="1920" height="1080" viewBox="0 0 1920 1080" fill="none" xmlns="http://www.w3.org/2000/svg">
<g clip-path="url(#clip0)">
<path d="M1291.78 433.314H1188.1C1187.47 433.314 1186.96 432.811 1186.96 432.182C1186.96 431.553 1187.47 431.051 1188.1 431.051H1291.78C1292.41 431.051 1292.92 431.553 1292.92 432.182C1292.92 432.811 1292.41 433.314 1291.78 433.314Z" fill="#F7F3E8"/>
<path d="M1172.6 433.314H1148.79C1148.16 433.314 1147.66 432.811 1147.66 432.182C1147.66 431.553 1148.16 431.051 1148.79 431.051H1172.48C1173.11 431.051 1173.61 431.553 1173.61 432.182C1173.74 432.811 1173.23 433.314 1172.6 433.314Z" fill="#F7F3E8"/>
<path d="M1303.5 421.496H1241.89C1241.26 421.496 1240.76 420.993 1240.76 420.364C1240.76 419.736 1241.26 419.233 1241.89 419.233H1303.5C1304.13 419.233 1304.63 419.736 1304.63 420.364C1304.63 420.993 1304.13 421.496 1303.5 421.496Z" fill="#F7F3E8"/>
<path d="M1577.77 517.172C1577.64 517.172 1577.51 517.172 1577.51 517.172C1577.14 517.046 1576.88 516.795 1576.76 516.543C1570.08 501.959 1556.73 491.776 1540.85 489.387C1540.48 489.387 1540.22 489.135 1540.1 488.884C1539.97 488.633 1539.85 488.255 1539.97 488.004C1541.23 483.352 1541.99 478.449 1541.99 473.671C1541.99 444.001 1517.8 419.987 1488.19 419.987C1473.33 419.987 1458.96 426.148 1448.88 437.086C1448.63 437.463 1448.13 437.589 1447.75 437.463C1434.65 433.566 1420.92 432.686 1406.55 435.326C1406.18 435.451 1405.92 435.326 1405.67 435.074C1405.42 434.823 1405.29 434.571 1405.17 434.194C1404.92 431.051 1404.54 428.034 1403.91 425.268C1403.78 424.765 1404.03 424.262 1404.41 424.011C1411.97 419.359 1416.51 411.312 1416.51 402.386C1416.51 388.431 1405.17 376.99 1391.18 376.99C1383.12 376.99 1375.44 380.887 1370.65 387.425C1370.4 387.802 1369.89 388.054 1369.39 387.802C1364.22 386.168 1358.81 385.288 1353.39 385.288C1324.79 385.288 1301.48 408.547 1301.48 437.086C1301.48 454.687 1310.43 471.031 1325.29 480.586C1325.8 480.838 1325.92 481.466 1325.8 481.969C1325.67 482.472 1325.17 482.849 1324.54 482.724C1322.52 482.472 1320.76 482.472 1319.12 482.472C1302.74 482.472 1287.5 489.764 1277.29 502.462C1276.92 502.965 1276.16 503.091 1275.66 502.588C1275.15 502.211 1275.03 501.456 1275.53 500.954C1286.24 487.753 1302.11 480.083 1319.25 480.083C1319.75 480.083 1320.13 480.083 1320.63 480.083C1307.15 469.9 1299.22 454.059 1299.22 437.086C1299.22 407.164 1323.53 382.899 1353.52 382.899C1358.93 382.899 1364.22 383.653 1369.39 385.288C1374.55 378.499 1382.74 374.601 1391.31 374.601C1406.55 374.601 1419.03 387.048 1419.03 402.26C1419.03 411.69 1414.37 420.239 1406.43 425.394C1406.93 427.657 1407.31 430.045 1407.56 432.56C1421.55 430.171 1434.9 431.051 1447.88 434.823C1458.46 423.885 1473.2 417.599 1488.44 417.599C1519.44 417.599 1544.51 442.743 1544.51 473.671C1544.51 478.323 1543.88 482.975 1542.74 487.375C1558.36 490.141 1571.47 500.199 1578.52 514.406C1585.07 509.754 1592.76 507.365 1600.82 507.365C1601.45 507.365 1601.96 507.868 1601.96 508.497C1601.96 509.126 1601.45 509.628 1600.82 509.628C1592.76 509.628 1585.2 512.143 1578.77 517.046C1578.27 517.172 1578.02 517.172 1577.77 517.172Z" fill="#F7F3E8"/>
<path d="M1228.04 709.151H1099.53C1098.9 709.151 1098.4 708.648 1098.4 708.02C1098.4 707.391 1098.9 706.888 1099.53 706.888H1228.04C1228.67 706.888 1229.17 707.391 1229.17 708.02C1229.17 708.648 1228.67 709.151 1228.04 709.151Z" fill="#F7F3E8"/>
<path d="M1088.57 709.152H1078.24C1077.61 709.152 1077.11 708.649 1077.11 708.021C1077.11 707.392 1077.61 706.889 1078.24 706.889H1088.57C1089.2 706.889 1089.71 707.392 1089.71 708.021C1089.71 708.649 1089.2 709.152 1088.57 709.152Z" fill="#F7F3E8"/>
<path d="M1266.34 694.694H1040.57C1039.94 694.694 1039.44 694.191 1039.44 693.562C1039.44 692.933 1039.94 692.431 1040.57 692.431H1266.34C1266.97 692.431 1267.47 692.933 1267.47 693.562C1267.47 694.191 1266.97 694.694 1266.34 694.694Z" fill="#F7F3E8"/>
<path d="M1655.24 759.317H1522.96C1522.33 759.317 1521.83 758.814 1521.83 758.186C1521.83 757.557 1522.33 757.054 1522.96 757.054H1655.24C1655.87 757.054 1656.38 757.557 1656.38 758.186C1656.38 758.814 1655.87 759.317 1655.24 759.317Z" fill="#F7F3E8"/>
<path d="M1708.91 759.316H1682.2C1681.57 759.316 1681.07 758.813 1681.07 758.185C1681.07 757.556 1681.57 757.053 1682.2 757.053H1708.91C1709.54 757.053 1710.05 757.556 1710.05 758.185C1710.05 758.813 1709.54 759.316 1708.91 759.316Z" fill="#F7F3E8"/>
<path d="M1739.65 759.316H1724.79C1724.16 759.316 1723.65 758.813 1723.65 758.185C1723.65 757.556 1724.16 757.053 1724.79 757.053H1739.65C1740.28 757.053 1740.79 757.556 1740.79 758.185C1740.79 758.813 1740.28 759.316 1739.65 759.316Z" fill="#F7F3E8"/>
<path d="M1794.08 773.901H1646.42C1645.79 773.901 1645.29 773.398 1645.29 772.769C1645.29 772.141 1645.79 771.638 1646.42 771.638H1794.08C1794.71 771.638 1795.21 772.141 1795.21 772.769C1795.21 773.272 1794.71 773.901 1794.08 773.901Z" fill="#F7F3E8"/>
<path d="M1630.43 773.901H1500.29C1499.66 773.901 1499.15 773.398 1499.15 772.769C1499.15 772.141 1499.66 771.638 1500.29 771.638H1630.43C1631.06 771.638 1631.56 772.141 1631.56 772.769C1631.56 773.272 1631.06 773.901 1630.43 773.901Z" fill="#F7F3E8"/>
<path d="M1487.06 773.901H1467.53C1466.9 773.901 1466.4 773.398 1466.4 772.769C1466.4 772.141 1466.9 771.638 1467.53 771.638H1487.06C1487.69 771.638 1488.19 772.141 1488.19 772.769C1488.19 773.272 1487.69 773.901 1487.06 773.901Z" fill="#F7F3E8"/>
<path d="M1496.25 988.888H1430.11C1429.48 988.888 1428.98 988.385 1428.98 987.756C1428.98 987.127 1429.48 986.625 1430.11 986.625H1496.25C1496.88 986.625 1497.39 987.127 1497.39 987.756C1497.39 988.385 1496.88 988.888 1496.25 988.888Z" fill="#F7F3E8"/>
<path d="M1549.92 988.886H1523.21C1522.58 988.886 1522.08 988.383 1522.08 987.755C1522.08 987.126 1522.58 986.623 1523.21 986.623H1549.92C1550.55 986.623 1551.06 987.126 1551.06 987.755C1551.06 988.383 1550.55 988.886 1549.92 988.886Z" fill="#F7F3E8"/>
<path d="M1580.66 988.886H1565.8C1565.17 988.886 1564.66 988.383 1564.66 987.755C1564.66 987.126 1565.17 986.623 1565.8 986.623H1580.66C1581.29 986.623 1581.8 987.126 1581.8 987.755C1581.8 988.383 1581.29 988.886 1580.66 988.886Z" fill="#F7F3E8"/>
<path d="M1635.09 1003.34H1487.44C1486.81 1003.34 1486.3 1002.84 1486.3 1002.21C1486.3 1001.58 1486.81 1001.08 1487.44 1001.08H1635.09C1635.72 1001.08 1636.22 1001.58 1636.22 1002.21C1636.22 1002.84 1635.72 1003.34 1635.09 1003.34Z" fill="#F7F3E8"/>
<path d="M1471.44 1003.34H1407.44C1406.81 1003.34 1406.3 1002.84 1406.3 1002.21C1406.3 1001.58 1406.81 1001.08 1407.44 1001.08H1471.44C1472.07 1001.08 1472.57 1001.58 1472.57 1002.21C1472.57 1002.84 1472.07 1003.34 1471.44 1003.34Z" fill="#F7F3E8"/>
<path d="M1394.21 1003.34H1374.68C1374.05 1003.34 1373.55 1002.84 1373.55 1002.21C1373.55 1001.58 1374.05 1001.08 1374.68 1001.08H1394.21C1394.84 1001.08 1395.34 1001.58 1395.34 1002.21C1395.34 1002.84 1394.84 1003.34 1394.21 1003.34Z" fill="#F7F3E8"/>
<path d="M1176.63 1082.05H1201.45L1198.05 799.545H1179.91L1176.63 1082.05Z" fill="#177D8F"/>
<path d="M1180.29 765.348C1147.53 765.348 1127 779.68 1127 779.68V792.881C1127 792.881 1147.53 807.214 1180.29 807.214C1199.06 807.214 1209.77 798.036 1209.77 798.036V774.4C1209.77 774.526 1199.06 765.348 1180.29 765.348Z" fill="#177D8F"/>
<path d="M1200.65 763.608L1193.86 766.614L1199.88 780.177L1206.68 777.17L1200.65 763.608Z" fill="#1E193D"/>
<path d="M1129.14 626.424L1170.33 752.776L1188.73 759.314L1193.01 768.994L1202.96 764.594L1139.47 621.772C1138.33 619.257 1135.31 618.126 1132.79 619.257L1132.04 619.509C1129.64 620.64 1128.26 623.658 1129.14 626.424Z" fill="#51A8B7"/>
<path d="M1198.8 790.213L1190.05 802.206L1196.06 806.573L1204.81 794.58L1198.8 790.213Z" fill="#1E193D"/>
<path d="M1106.71 932.687L1195.66 833.994L1192.13 814.758L1198.3 806.209L1189.48 799.797L1097.52 925.898C1095.88 928.161 1096.38 931.304 1098.65 932.939L1099.28 933.316C1101.55 935.076 1104.82 934.699 1106.71 932.687Z" fill="#51A8B7"/>
<path d="M1214.87 783.116L1214.09 790.492L1228.87 792.062L1229.65 784.685L1214.87 783.116Z" fill="#1E193D"/>
<path d="M1383.75 798.791L1253.61 771.257L1238.74 783.83L1228.29 782.698L1227.15 793.51L1382.49 810.106C1385.26 810.357 1387.78 808.346 1388.03 805.58L1388.16 804.826C1388.41 802.06 1386.4 799.419 1383.75 798.791Z" fill="#51A8B7"/>
<path d="M1209.01 774.777C1202.59 774.777 1197.42 779.932 1197.42 786.344C1197.42 792.756 1202.59 797.911 1209.01 797.911C1217.58 797.911 1225.14 793.259 1229.17 786.344C1225.14 779.429 1217.7 774.777 1209.01 774.777Z" fill="#51A8B7"/>
<path d="M1584.32 1082.05H1616.7L1612.42 693.435H1588.73L1584.32 1082.05Z" fill="#51A8B7"/>
<path d="M1589.11 648.929C1546.4 648.929 1519.82 667.536 1519.82 667.536V684.76C1519.82 684.76 1546.4 703.367 1589.11 703.367C1613.42 703.367 1627.41 691.424 1627.41 691.424V660.621C1627.41 660.747 1613.55 648.929 1589.11 648.929Z" fill="#51A8B7"/>
<path d="M1593.76 667.844L1592.73 677.469L1611.89 679.512L1612.92 669.886L1593.76 667.844Z" fill="#1E193D"/>
<path d="M1392.45 658.987L1561.64 694.818L1581.04 678.348L1594.65 679.857L1596.16 665.901L1394.08 644.403C1390.43 644.025 1387.28 646.666 1386.9 650.186L1386.78 651.192C1386.27 654.712 1388.92 658.232 1392.45 658.987Z" fill="#AFDDDA"/>
<path d="M1631.32 683.284L1622.45 687.208L1630.27 704.794L1639.14 700.869L1631.32 683.284Z" fill="#1E193D"/>
<path d="M1723.28 883.153L1669.73 718.958L1645.8 710.409L1640.25 697.836L1627.4 703.494L1709.8 888.936C1711.31 892.205 1715.09 893.714 1718.49 892.331L1719.37 891.954C1722.65 890.571 1724.41 886.548 1723.28 883.153Z" fill="#AFDDDA"/>
<path d="M1636.25 648.914L1624.9 664.46L1632.74 670.161L1644.09 654.615L1636.25 648.914Z" fill="#1E193D"/>
<path d="M1752.38 485.111L1636.73 613.474L1641.26 638.368L1633.2 649.431L1644.67 657.729L1764.35 493.786C1766.49 490.894 1765.86 486.745 1762.97 484.608L1762.21 483.979C1759.19 481.968 1754.78 482.345 1752.38 485.111Z" fill="#AFDDDA"/>
<path d="M1626.65 661.124C1618.33 661.124 1611.53 667.913 1611.53 676.211C1611.53 684.508 1618.33 691.297 1626.65 691.297C1637.86 691.297 1647.56 685.263 1652.85 676.211C1647.56 667.158 1637.73 661.124 1626.65 661.124Z" fill="#AFDDDA"/>
<path d="M1433.77 1082.05H1476.23L1470.43 549.986H1439.57L1433.77 1082.05Z" fill="#AFDDDA"/>
<path d="M1440.07 491.65C1384.13 491.65 1349.24 516.166 1349.24 516.166V538.797C1349.24 538.797 1384.13 563.313 1440.07 563.313C1472.07 563.313 1490.21 547.723 1490.21 547.723V507.366C1490.21 507.24 1472.07 491.65 1440.07 491.65Z" fill="#51A8B7"/>
<path d="M1470.81 580.034L1470.43 549.986H1439.56L1439.19 580.034H1470.81Z" fill="#51A8B7"/>
<path d="M1459.47 518.178C1463.12 508.874 1471.19 502.588 1480.38 500.953C1471.94 496.553 1458.21 491.524 1440.07 491.524C1384.13 491.524 1349.24 516.04 1349.24 516.04V526.601H1457.71C1457.83 523.835 1458.34 520.944 1459.47 518.178Z" fill="#F7F3E8"/>
<path d="M1413.61 539.426H1354.65C1354.27 539.426 1353.89 539.048 1353.89 538.671C1353.89 538.294 1354.27 537.917 1354.65 537.917H1413.61C1419.41 537.917 1424.19 533.139 1424.19 527.356C1424.19 521.573 1419.41 516.795 1413.61 516.795H1354.65C1354.27 516.795 1353.89 516.418 1353.89 516.041C1353.89 515.664 1354.27 515.286 1354.65 515.286H1413.61C1420.29 515.286 1425.7 520.693 1425.7 527.356C1425.7 534.019 1420.29 539.426 1413.61 539.426Z" fill="#1E193D"/>
<path d="M1503.56 534.647C1507.59 524.212 1502.43 512.394 1491.85 508.371C1481.39 504.348 1469.55 509.503 1465.52 520.063C1461.48 530.498 1466.65 542.316 1477.23 546.34C1487.69 550.363 1499.53 545.208 1503.56 534.647Z" fill="#1E193D"/>
<path d="M1482.91 487.626L1480.23 512.755L1492.89 514.097L1495.56 488.968L1482.91 487.626Z" fill="#E6E3E6"/>
<path d="M1507.09 225.493L1460.1 447.018L1481.64 472.288L1479.75 490.141L1498.15 492.153L1526.37 227.63C1526.87 222.853 1523.47 218.704 1518.68 218.201L1517.42 218.075C1512.76 217.446 1508.1 220.841 1507.09 225.493Z" fill="#F7F3E8"/>
<path d="M1460.1 447.019L1481.64 472.289L1490.21 391.7L1460.1 447.019Z" fill="#AFDDDA"/>
<path d="M1488.6 493.922L1484.77 496.999L1487.85 500.817L1491.68 497.74L1488.6 493.922Z" fill="#1E193D"/>
<path d="M1470.11 526.527L1446.96 536.772L1452.12 548.379L1475.27 538.134L1470.11 526.527Z" fill="#E6E3E6"/>
<path d="M1212.54 658.61L1428.35 588.581L1439.57 557.276L1455.94 549.984L1448.38 533.137L1204.73 641.008C1200.32 642.894 1198.43 648.049 1200.32 652.323L1200.83 653.455C1202.72 657.729 1208.01 660.118 1212.54 658.61Z" fill="#F7F3E8"/>
<path d="M1428.23 588.581L1439.44 557.276L1365.11 590.09L1428.23 588.581Z" fill="#AFDDDA"/>
<path d="M1461.11 537.538L1459.34 542.19L1454.68 540.429L1456.45 535.778L1461.11 537.538Z" fill="#1E193D"/>
<path d="M1499.82 529.856L1492.33 540.118L1512.79 555L1520.28 544.737L1499.82 529.856Z" fill="#E6E3E6"/>
<path d="M1735.62 696.706L1566.93 545.208L1534.18 551.243L1519.69 540.682L1508.73 555.643L1724.16 712.295C1728.07 715.061 1733.36 714.307 1736.25 710.409L1737.01 709.404C1739.78 705.506 1739.28 699.849 1735.62 696.706Z" fill="#F7F3E8"/>
<path d="M1566.93 545.208L1534.18 551.243L1599.94 599.018L1566.93 545.208Z" fill="#AFDDDA"/>
<path d="M1506.33 542.316L1511.12 541.562L1512 546.465L1507.09 547.219L1506.33 542.316Z" fill="#1E193D"/>
<path d="M1489.2 507.616C1478.24 507.616 1469.42 516.417 1469.42 527.355C1469.42 538.293 1478.24 547.093 1489.2 547.093C1503.82 547.093 1516.67 539.173 1523.47 527.355C1516.67 515.537 1503.82 507.616 1489.2 507.616Z" fill="#F7F3E8"/>
<path d="M1467.91 568.341H1441.96C1441.58 568.341 1441.2 567.964 1441.2 567.587C1441.2 567.209 1441.58 566.832 1441.96 566.832H1467.91C1468.29 566.832 1468.67 567.209 1468.67 567.587C1468.79 567.964 1468.41 568.341 1467.91 568.341Z" fill="#1E193D"/>
<path d="M1467.91 574.502H1441.96C1441.58 574.502 1441.2 574.125 1441.2 573.748C1441.2 573.371 1441.58 572.994 1441.96 572.994H1467.91C1468.29 572.994 1468.67 573.371 1468.67 573.748C1468.79 574.125 1468.41 574.502 1467.91 574.502Z" fill="#1E193D"/>
<path d="M1454.68 1082.05H1476.23L1470.81 583.679L1454.68 599.897V1082.05Z" fill="#F7F3E8"/>
</g>
<defs>
<clipPath id="clip0">
<rect width="1920" height="1080" fill="white"/>
</clipPath>
</defs>
</svg>
