<svg width="1920" height="1080" fill="none" xmlns="http://www.w3.org/2000/svg"><g clip-path="url(#clip0)" fill="#fff"><path d="M360.698 740.798l-26.693 31.866v-16.057c1.73-.494 2.966-1.976 2.966-3.623 0-2.141-1.895-3.87-4.284-3.87h-14.83c-2.389 0-4.284 1.729-4.284 3.87 0 1.73 1.236 3.212 2.966 3.623v36.808l-26.694 31.867h11.947v76.25H419.44v-76.25h11.946l-70.688-84.484zm1.566 48.747h14.335v14.163h-14.335v-14.163zm0 17.457h14.335v14.245h-14.335v-14.245zm-17.549-17.457h14.335v14.163h-14.335v-14.163zm0 17.457h14.335v14.245h-14.335v-14.245zm32.461 87.613h-33.038V861.76c0-9.058 7.415-16.469 16.56-16.469s16.56 7.329 16.56 16.469v32.855h-.082z"/><path d="M292.317 705.225v-12.434h-12.523v-10.704h-8.65l-24.634-23.468-24.551 23.468h-8.651v10.787h-12.605v12.434h11.205v183.873h-11.205v12.433h91.614v-12.433h-11.204V705.225h11.204zm-30.236 158.347v-12.599h11.205v12.599h-11.205zm11.287 2.799v12.599h-11.204v-12.599h11.204zm-11.287-18.28v-12.598h11.205v12.598h-11.205zm0-15.398v-12.599h11.205v12.599h-11.205zm0-15.481v-12.598h11.205v12.598h-11.205zm0-15.398v-12.598h11.205v12.598h-11.205zm0-15.48v-12.599h11.205v12.599h-11.205zm0-15.399v-12.598h11.205v12.598h-11.205zm0-15.48v-12.599h11.205v12.599h-11.205zm0-15.399v-12.598h11.205v12.598h-11.205zm0-15.398V712.06h11.205v12.598h-11.205zm-14.088 138.914v-12.599h11.287v12.599h-11.287zm11.205 2.799v12.599h-11.287v-12.599h11.287zm-11.205-18.28v-12.598h11.287v12.598h-11.287zm0-15.398v-12.599h11.287v12.599h-11.287zm0-15.481v-12.598h11.287v12.598h-11.287zm0-15.398v-12.598h11.287v12.598h-11.287zm0-15.48v-12.599h11.287v12.599h-11.287zm0-15.399v-12.598h11.287v12.598h-11.287zm0-15.48v-12.599h11.287v12.599h-11.287zm0-15.399v-12.598h11.287v12.598h-11.287zm0-15.398V712.06h11.287v12.598h-11.287zm-14.171 138.914v-12.599h11.287v12.599h-11.287zm11.287 2.799v12.599h-11.287v-12.599h11.287zm-11.287-18.28v-12.598h11.287v12.598h-11.287zm0-15.398v-12.599h11.287v12.599h-11.287zm0-15.481v-12.598h11.287v12.598h-11.287zm0-15.398v-12.598h11.287v12.598h-11.287zm0-15.48v-12.599h11.287v12.599h-11.287zm0-15.399v-12.598h11.287v12.598h-11.287zm0-15.48v-12.599h11.287v12.599h-11.287zm0-15.399v-12.598h11.287v12.598h-11.287zm0-15.398V712.06h11.287v12.598h-11.287zm-14.088 138.914v-12.599h11.287v12.599h-11.287zm11.205 2.799v12.599h-11.205v-12.599h11.205zm-11.205-18.28v-12.598h11.287v12.598h-11.287zm0-15.398v-12.599h11.287v12.599h-11.287zm0-15.481v-12.598h11.287v12.598h-11.287zm0-15.398v-12.598h11.287v12.598h-11.287zm0-15.48v-12.599h11.287v12.599h-11.287zm0-15.399v-12.598h11.287v12.598h-11.287zm0-15.48v-12.599h11.287v12.599h-11.287zm0-15.399v-12.598h11.287v12.598h-11.287zm0-15.398V712.06h11.287v12.598h-11.287zM125.978 892.392l.165-164.028h-30.73l-.083 164.028h-2.06l.083-79.05h-37.98l-.083 79.05h-1.648l.083-129.362-42.018-.082-.082 129.279H8v9.14l122.674.083v-9.14l-4.696.082zm-11.946-153.653h7.662v10.375h-7.662v-10.375zm-.082 19.68h7.662v10.375h-7.662v-10.375zm0 19.68h7.662v10.375h-7.662v-10.375zm0 19.68h7.662v10.376h-7.662v-10.376zm0 19.68h7.662v10.376h-7.662v-10.376zm0 19.68h7.662v10.376h-7.662v-10.376zm0 19.681h7.662v29.561h-7.662V856.82zm-13.347-118.081h7.662v10.375h-7.662v-10.375zm0 19.68h7.662v10.375h-7.662v-10.375zm0 19.68h7.662v10.375h-7.662v-10.375zm0 19.68h7.662v10.376h-7.662v-10.376zm-.083 19.68h7.662v10.376h-7.662v-10.376zm0 19.68h7.662v10.376h-7.662v-10.376zm0 19.681h7.662v10.375h-7.662V856.82zm-63.355-85.638h10.463v8.317H37.083l.082-8.317zm0 15.646h10.546v8.234H37.165v-8.234zm0 15.727h10.463v8.317H37.165v-8.317zm0 15.645h10.463v8.317H37.083l.082-8.317zm0 15.728h10.463v8.317H37.083l.082-8.317zm0 15.645h10.463v8.235H37.083l.082-8.235zm-.082 15.728h10.545v23.55H37.083v-23.55zm-18.208-94.119h10.546v8.317H18.875v-8.317zm0 15.646h10.546v8.316H18.875v-8.316zm0 15.727h10.546v8.317H18.875v-8.317zm0 15.645h10.463v8.317H18.875V818.2zm-.082 15.728h10.545v8.317H18.793v-8.317zm0 15.645h10.463v8.317H18.71l.083-8.317zm0 15.728h10.545v8.317H18.793v-8.317zm58-43.972H87.34v8.235H76.793v-8.235zm-.082 15.646h10.463v8.316H76.71v-8.316zm0 15.727h10.545v8.317H76.711v-8.317zm0 15.646h10.463v8.234H76.628l.083-8.234zm0 15.727h10.545v8.235H76.793v-8.235h-.082zm-18.29-62.746h10.545v8.235H58.421v-8.235zm0 15.646h10.463v8.316H58.42v-8.316zm0 15.645h10.545v8.317H58.421v-8.317zm0 15.728h10.545v23.962H58.503l-.082-23.962z"/><path d="M209.931 770.935v-12.351h-81.399v12.351h6.097v118.163h-3.955v12.434h77.197v-12.434h-3.955V770.935h6.015zm-25.128 2.882h11.204v12.599h-11.204v-12.599zm0 15.398h11.204v12.599h-11.204v-12.599zm0 15.481h11.204v12.599h-11.204v-12.599zm0 15.398h11.204v12.599h-11.204v-12.599zm0 15.481h11.204v12.598h-11.204v-12.598zm0 15.398h11.204v12.599h-11.204v-12.599zm0 15.398h11.204v12.599h-11.204v-12.599zm-14.089-92.554h11.205v12.599h-11.205v-12.599zm0 15.398h11.205v12.599h-11.205v-12.599zm0 15.481h11.205v12.599h-11.205v-12.599zm0 15.398h11.205v12.599h-11.205v-12.599zm0 15.481h11.205v12.598h-11.205v-12.598zm0 15.398h11.205v12.599h-11.205v-12.599zm0 15.398h11.205v12.599h-11.205v-12.599zm-14.17-92.554h11.287v12.599h-11.287v-12.599zm0 15.398h11.287v12.599h-11.287v-12.599zm0 15.481h11.287v12.599h-11.287v-12.599zm0 15.398h11.287v12.599h-11.287v-12.599zm0 15.481h11.287v12.598h-11.287v-12.598zm0 15.398h11.287v12.599h-11.287v-12.599zm0 15.398h11.287v12.599h-11.287v-12.599zm-14.088-92.554h11.287v12.599h-11.287v-12.599zm0 15.398h11.287v12.599h-11.287v-12.599zm0 15.481h11.287v12.599h-11.287v-12.599zm0 15.398h11.287v12.599h-11.287v-12.599zm0 15.481h11.287v12.598h-11.287v-12.598zm0 15.398h11.287v12.599h-11.287v-12.599zm0 15.398h11.287v12.599h-11.287v-12.599z"/><path d="M169.396 742.033l-3.954-13.011c-.989-3.293-3.873-6.011-6.509-6.011H140.89c-2.554 0-5.437 2.718-6.426 6.011l-3.707 13.011c-.907 3.294 1.483 6.011 5.437 6.011h12.523v14.904h2.554v-14.904h12.605c4.12 0 6.509-2.717 5.52-6.011zm-2.636-2.965h-6.344l-1.236-7.163h5.603l1.977 7.163zm-13.512-7.163h5.603l1.153 7.163h-6.344l-.412-7.163zm0 7.246h-6.343l.329-7.164h5.602l.412 7.164zm5.356-14.822c2.306 0 4.778 2.306 5.519 5.188l.577 1.976h-5.602l-1.236-7.164h.742zm-.989 0l1.153 7.164h-5.602l-.412-7.164h4.861zm-5.191 0l.412 7.164h-5.602l.33-7.164h4.86zm-5.107 0l-.33 7.164h-5.602l1.071-7.164h4.861zm-11.37 5.188c.742-2.8 3.213-5.188 5.438-5.188h.741l-1.153 7.164h-5.603l.577-1.976zm-.577 2.388h5.603l-1.154 7.163h-6.343l1.894-7.163zm2.225 14.821c-3.296 0-5.438-2.305-4.696-5.187l.494-1.977h6.426l-1.153 7.164h-1.071zm8.568 0h-7.085l1.071-7.164h6.344l-.33 7.164zm-5.932-7.575l1.071-7.164h5.603l-.33 7.246h-6.344v-.082zm6.426 7.575l.33-7.164h6.344l.412 7.164h-7.086zm7.498 0l-.495-7.164h6.344l1.153 7.164h-7.002zm8.65 0h-1.071l-1.236-7.164h6.344l.577 1.977c.741 2.799-1.318 5.105-4.614 5.187zM209.601 742.033l-3.955-13.011c-.988-3.293-3.872-6.011-6.508-6.011h-18.043c-2.554 0-5.437 2.718-6.426 6.011l-3.708 13.011c-.906 3.294 1.483 6.011 5.438 6.011h12.523v14.904h2.554v-14.904h12.605c4.119 0 6.509-2.717 5.52-6.011zm-2.636-2.965h-6.344l-1.236-7.163h5.602l1.978 7.163zm-13.594-7.163h5.602l1.236 7.163h-6.344l-.494-7.163zm.082 7.246h-6.344l.33-7.164h5.602l.412 7.164zm5.355-14.822c2.307 0 4.779 2.306 5.52 5.188l.577 1.976h-5.602l-1.236-7.164h.741zm-1.071 0l1.154 7.164h-5.603l-.412-7.164h4.861zm-5.108 0l.412 7.164h-5.602l.329-7.164h4.861zm-5.19 0l-.33 7.164h-5.602l1.071-7.164h4.861zm-11.287 5.188c.741-2.8 3.213-5.188 5.437-5.188h.742l-1.154 7.164h-5.602l.577-1.976zm-.659 2.388h5.602l-1.153 7.163h-6.344l1.895-7.163zm2.224 14.821c-3.295 0-5.437-2.305-4.696-5.187l.494-1.977h6.427l-1.154 7.164h-1.071zm8.651 0h-7.085l1.071-7.164h6.343l-.329 7.164zm-6.014-7.575l1.071-7.164h5.602l-.33 7.246h-6.343v-.082zm6.426 7.575l.329-7.164h6.344l.412 7.164h-7.085zm7.579 0l-.494-7.164h6.344l1.153 7.164h-7.003zm8.569 0h-1.071l-1.236-7.164h6.344l.576 1.977c.824 2.799-1.236 5.105-4.613 5.187zM1608.33 781.475l-19.86 23.798V793.25c1.32-.329 2.23-1.482 2.23-2.717 0-1.564-1.4-2.882-3.13-2.882h-10.96c-1.73 0-3.21 1.318-3.21 2.882 0 1.318.9 2.388 2.22 2.717v27.503l-19.77 23.797h8.82v56.982H1652V844.55h8.81l-52.48-63.075zm1.24 36.396h10.62v10.622h-10.62v-10.622zm0 13.01h10.62v10.623h-10.62v-10.623zm-13.02-13.01h10.63v10.622h-10.63v-10.622zm0 13.01h10.63v10.623h-10.63v-10.623zm24.06 65.463h-24.56v-24.538c0-6.752 5.52-12.269 12.28-12.269s12.28 5.517 12.28 12.269v24.538z"/><path d="M1687.5 816.224l-14.08 16.881v-8.564c.9-.247 1.56-.988 1.56-1.976 0-1.153-.99-2.059-2.22-2.059h-7.83c-1.24 0-2.22.906-2.22 2.059 0 .906.65 1.647 1.56 1.976v19.515l-14.09 16.881h6.26v40.513h62.04v-40.513h6.26l-37.24-44.713zm.91 25.856h7.5v7.493h-7.5v-7.493zm0 9.223h7.5v7.493h-7.5v-7.493zm-9.31-9.223h7.5v7.493h-7.5v-7.493zm0 9.223h7.5v7.493h-7.5v-7.493zm17.14 46.524h-17.47V880.37c0-4.776 3.87-8.729 8.73-8.729a8.69 8.69 0 018.74 8.729v17.457zM1642.03 747.467a3.869 3.869 0 01-3.88 3.871c-2.14 0-3.87-1.73-3.87-3.871 0-2.14 1.73-3.87 3.87-3.87 2.06 0 3.88 1.73 3.88 3.87z"/><path d="M1645.32 746.974l-2.96 1.235c-.17.988-.66 1.894-1.4 2.47l.41 3.211 34.02 15.975.83-1.482-30.9-21.409zM1633.95 748.209l-2.96-1.235-30.9 21.491.83 1.482 34.02-15.974.41-3.212a4.413 4.413 0 01-1.4-2.552zM1638.07 743.268c.5 0 .99.082 1.48.247l2.56-1.976-3.13-37.466h-1.65l-3.13 37.466 2.55 1.976c.33-.165.83-.247 1.32-.247zM1635.6 842.904l.66-88.931s1.24-2.306 1.89-2.306c.66 0 1.82 2.306 1.82 2.306v88.931l-.99.823h-2.39l-.99-.823z"/><path d="M1649.77 848.091h-23.31l2.88-5.187h17.55l2.88 5.187z"/><path d="M1641.12 843.151c0 .823-1.48 1.564-3.3 1.564-1.81 0-3.29-.659-3.29-1.564 0-.824 1.48-1.565 3.29-1.565 1.82 0 3.3.741 3.3 1.565zM1599.02 741.786c0 1.482-1.24 2.717-2.72 2.717-1.48 0-2.72-1.235-2.72-2.717s1.24-2.718 2.72-2.718c1.48 0 2.72 1.236 2.72 2.718z"/><path d="M1601.33 741.456l-2.06.824c-.08.658-.5 1.317-.99 1.729l.33 2.223 23.64 11.117.58-.989-21.5-14.904zM1593.42 742.28l-2.06-.824-21.5 14.904.57.989 23.65-11.117.33-2.223c-.5-.412-.91-1.071-.99-1.729zM1596.3 738.821c.33 0 .66.083.99.165l1.81-1.4-2.22-26.02h-1.15l-2.23 26.02 1.81 1.4c.33-.082.66-.165.99-.165zM1594.57 808.072l.5-61.757s.82-1.565 1.31-1.565c.5 0 1.24 1.565 1.24 1.565v61.757l-.74.577h-1.65l-.66-.577z"/><path d="M1604.46 811.695h-16.23l1.98-3.623h12.19l2.06 3.623z"/><path d="M1598.36 808.237c0 .576-.99 1.071-2.31 1.071-1.23 0-2.3-.495-2.3-1.071s.99-1.07 2.3-1.07c1.32 0 2.31.494 2.31 1.07zM1689.65 776.782c0 1.235-.99 2.223-2.23 2.223-1.23 0-2.22-.988-2.22-2.223 0-1.235.99-2.224 2.22-2.224 1.32 0 2.23.989 2.23 2.224z"/><path d="M1691.54 776.535l-1.73.658c-.08.577-.41 1.071-.82 1.4l.24 1.812 19.28 9.058.5-.824-17.47-12.104zM1685.11 777.193l-1.73-.658-17.46 12.186.49.824 19.28-9.058.25-1.811c-.41-.412-.74-.906-.83-1.483zM1687.5 774.394c.25 0 .58.082.83.164l1.4-1.152-1.81-21.245h-.91l-1.81 21.245 1.48 1.152c.25-.164.49-.164.82-.164zM1686.02 830.881l.41-50.394s.66-1.317 1.07-1.317c.42 0 .99 1.317.99 1.317v50.394l-.57.494h-1.32l-.58-.494z"/><path d="M1694.1 833.846h-13.27l1.65-2.965h9.97l1.65 2.965z"/><path d="M1689.15 831.046c0 .494-.82.906-1.89.906-.99 0-1.82-.412-1.82-.906 0-.494.83-.906 1.82-.906 1.07 0 1.89.412 1.89.906zM1920 658.784v-15.316h-15.41v-13.34h-10.62l-30.32-28.985-30.24 28.985h-10.63v13.257h-15.4v15.399h13.76v227.35h-9.89V740.057h7.5v-15.234h-100.1v15.234h7.49v146.159h-4.86v15.316H1920v-15.316h-13.76V658.784H1920zm-170.46 214.834h-13.84v-15.563h13.84v15.563zm0-19.022h-13.84v-15.563h13.84v15.563zm0-19.103h-13.84V819.93h13.84v15.563zm0-19.104h-13.84v-15.563h13.84v15.563zm0-19.104h-13.84v-15.563h13.84v15.563zm0-19.103h-13.84v-15.563h13.84v15.563zm0-19.022h-13.84v-15.563h13.84v15.563zm17.39 114.458h-13.85v-15.563h13.85v15.563zm0-19.022h-13.85v-15.563h13.85v15.563zm0-19.103h-13.85V819.93h13.85v15.563zm0-19.104h-13.85v-15.563h13.85v15.563zm0-19.104h-13.85v-15.563h13.85v15.563zm0-19.103h-13.85v-15.563h13.85v15.563zm0-19.022h-13.85v-15.563h13.85v15.563zm17.38 114.458h-13.84v-15.563h13.84v15.563zm0-19.022h-13.84v-15.563h13.84v15.563zm0-19.103h-13.84V819.93h13.84v15.563zm0-19.104h-13.84v-15.563h13.84v15.563zm0-19.104h-13.84v-15.563h13.84v15.563zm0-19.103h-13.84v-15.563h13.84v15.563zm0-19.022h-13.84v-15.563h13.84v15.563zm17.3 114.458h-13.84v-15.563h13.84v15.563zm0-19.022h-13.84v-15.563h13.84v15.563zm0-19.103h-13.84V819.93h13.84v15.563zm0-19.104h-13.84v-15.563h13.84v15.563zm0-19.104h-13.84v-15.563h13.84v15.563zm0-19.103h-13.84v-15.563h13.84v15.563zm0-19.022h-13.84v-15.563h13.84v15.563zm42.92 114.458h-13.84v-15.563h13.84v15.563zm0-19.022h-13.84v-15.563h13.84v15.563zm0-19.103h-13.84V819.93h13.84v15.563zm0-19.104h-13.84v-15.563h13.84v15.563zm0-19.104h-13.84v-15.563h13.84v15.563zm0-19.103h-13.84v-15.563h13.84v15.563zm0-19.022h-13.84v-15.563h13.84v15.563zm0-19.103h-13.84v-15.563h13.84v15.563zm0-19.104h-13.84V705.39h13.84v15.563zm0-19.104h-13.84v-15.563h13.84v15.563zm0-19.104h-13.84v-15.48h13.84v15.48zm17.39 190.873h-13.84v-15.563h13.84v15.563zm0-19.022h-13.84v-15.563h13.84v15.563zm0-19.103h-13.84V819.93h13.84v15.563zm0-19.104h-13.84v-15.563h13.84v15.563zm0-19.104h-13.84v-15.563h13.84v15.563zm0-19.103h-13.84v-15.563h13.84v15.563zm0-19.022h-13.84v-15.563h13.84v15.563zm0-19.103h-13.84v-15.563h13.84v15.563zm0-19.104h-13.84V705.39h13.84v15.563zm0-19.104h-13.84v-15.563h13.84v15.563zm0-19.104h-13.84v-15.48h13.84v15.48zm17.38 190.873h-13.84v-15.563h13.84v15.563zm0-19.022h-13.84v-15.563h13.84v15.563zm0-19.103h-13.84V819.93h13.84v15.563zm0-19.104h-13.84v-15.563h13.84v15.563zm0-19.104h-13.84v-15.563h13.84v15.563zm0-19.103h-13.84v-15.563h13.84v15.563zm0-19.022h-13.84v-15.563h13.84v15.563zm0-19.103h-13.84v-15.563h13.84v15.563zm0-19.104h-13.84V705.39h13.84v15.563zm0-19.104h-13.84v-15.563h13.84v15.563zm0-19.104h-13.84v-15.48h13.84v15.48zm17.3 190.873h-13.84v-15.563h13.84v15.563zm0-19.022h-13.84v-15.563h13.84v15.563zm0-19.103h-13.84V819.93h13.84v15.563zm0-19.104h-13.84v-15.563h13.84v15.563zm0-19.104h-13.84v-15.563h13.84v15.563zm0-19.103h-13.84v-15.563h13.84v15.563zm0-19.022h-13.84v-15.563h13.84v15.563zm0-19.103h-13.84v-15.563h13.84v15.563zm0-19.104h-13.84V705.39h13.84v15.563zm0-19.104h-13.84v-15.563h13.84v15.563zm0-19.104h-13.84v-15.48h13.84v15.48z"/><path d="M1736.85 711.73h-2.71v16.469h2.71V711.73zM1743.28 699.873l-.99-6.341h-4.28l.33 6.341h4.94zM1732.82 699.873l.41-6.341h-4.2l-1.07 6.341h4.86zM1738.67 706.543h5.6l-.99-6.341h-4.86l.25 6.341zM1738.09 699.873l-.33-6.341h-4.28l-.33 6.341h4.94zM1728.7 693.532h-.66c-1.98 0-4.2 2.059-4.86 4.612l-.5 1.811h4.86l1.16-6.423zM1727.87 700.202l-.99 6.341h5.52l.42-6.341h-4.95zM1733.15 700.202l-.33 6.341h5.52l-.25-6.341h-4.94zM1748.47 699.873l-.49-1.812c-.66-2.552-2.81-4.611-4.78-4.611h-.66l.99 6.341h4.94v.082zM1727.54 700.202h-4.86l-1.73 6.341h5.52l1.07-6.341zM1738.75 706.872l.33 6.423h6.18l-.91-6.423h-5.6zM1743.61 700.202l.99 6.341h5.6l-1.65-6.341h-4.94zM1745.67 713.295h.91c2.96 0 4.77-2.059 4.12-4.611l-.5-1.73h-5.6l1.07 6.341z"/><path d="M1732.73 706.872l-.33 6.423h6.27l-.33-6.423h-5.61zM1720.87 706.872l-.49 1.729c-.66 2.553 1.15 4.612 4.12 4.612h.9l1.07-6.341h-5.6zM1726.8 706.872l-1.07 6.423h6.26l.41-6.423h-5.6zM1769.31 711.73h-2.71v16.469h2.71V711.73zM1775.66 699.873l-.91-6.341h-4.28l.33 6.341h4.86zM1765.28 699.873l.41-6.341h-4.28l-1.08 6.341h4.95zM1771.13 706.543h5.6l-.99-6.341h-4.94l.33 6.341zM1770.47 699.873l-.25-6.341h-4.28l-.33 6.341h4.86zM1761.16 693.532h-.66c-1.98 0-4.2 2.059-4.86 4.612l-.5 1.811h4.86l1.16-6.423zM1760.33 700.202l-1.07 6.341h5.61l.41-6.341h-4.95zM1765.52 700.202l-.33 6.341h5.61l-.33-6.341h-4.95zM1780.85 699.873l-.5-1.812c-.65-2.552-2.8-4.611-4.77-4.611h-.66l.99 6.341h4.94v.082zM1760 700.202h-4.94l-1.73 6.341h5.6l1.07-6.341zM1771.13 706.872l.33 6.423h6.26l-.99-6.423h-5.6zM1776.07 700.202l.99 6.341h5.52l-1.57-6.341h-4.94zM1778.13 713.295h.91c2.96 0 4.77-2.059 4.12-4.611l-.5-1.73h-5.6l1.07 6.341z"/><path d="M1765.2 706.872l-.33 6.423h6.17l-.24-6.423h-5.6zM1753.25 706.872l-.5 1.729c-.65 2.553 1.16 4.612 4.12 4.612h.91l1.07-6.341h-5.6zM1759.26 706.872l-1.07 6.423h6.26l.42-6.423h-5.61zM1801.69 711.73h-2.72v16.469h2.72V711.73zM1808.12 699.873l-.99-6.341h-4.28l.33 6.341h4.94zM1797.66 699.873l.41-6.341h-4.2l-1.08 6.341h4.87zM1803.59 706.543h5.52l-.99-6.341h-4.86l.33 6.341zM1802.93 699.873l-.33-6.341h-4.2l-.42 6.341h4.95zM1793.54 693.532h-.66c-1.98 0-4.2 2.059-4.86 4.612l-.5 1.811h4.86l1.16-6.423zM1792.71 700.202l-.99 6.341h5.52l.42-6.341h-4.95zM1797.98 700.202l-.32 6.341h5.52l-.25-6.341h-4.95zM1813.31 699.873l-.5-1.812c-.65-2.552-2.8-4.611-4.77-4.611h-.66l.99 6.341h4.94v.082zM1792.38 700.202h-4.86l-1.73 6.341h5.52l1.07-6.341zM1803.59 706.872l.33 6.423h6.18l-.91-6.423h-5.6zM1808.45 700.202l.99 6.341h5.6l-1.65-6.341h-4.94zM1810.51 713.295h.9c2.97 0 4.78-2.059 4.12-4.611l-.49-1.73h-5.6l1.07 6.341z"/><path d="M1797.57 706.872l-.33 6.423h6.26l-.32-6.423h-5.61zM1785.71 706.872l-.5 1.729c-.65 2.553 1.16 4.612 4.12 4.612h.91l1.07-6.341h-5.6zM1791.64 706.872l-.99 6.423h6.18l.41-6.423h-5.6zM1553.21 888.44l.17-234.103h-43.58l-.17 234.103h-2.88l.08-112.893-53.88-.083-.08 112.893h-2.31l.16-184.696-59.64-.083-.17 184.697h-5.19v13.092l174.08.165V888.44h-6.59zm-16.97-219.281h10.88v14.822h-10.88v-14.822zm-.08 28.079h10.87v14.822h-10.87v-14.822zm0 28.079h10.87v14.822h-10.87v-14.822zm0 28.162h10.87V768.3h-10.87v-14.821zm0 28.079h10.87v14.822h-10.87v-14.822zm0 28.079h10.87v14.822h-10.87v-14.822zm-.08 28.161h10.87v42.16h-10.87v-42.16zm-18.87-168.721h10.88v14.821h-10.88v-14.821zm0 28.161h10.88v14.822h-10.88v-14.822zm0 28.079h10.88v14.822h-10.88v-14.822zm0 28.079h10.88v14.822h-10.88v-14.822zm-.08 28.162H1528v14.822h-10.87v-14.822zm0 28.079H1528v14.822h-10.87v-14.822zm0 28.079H1528v14.822h-10.87v-14.822zm-89.89-122.28h14.92v11.775h-14.92v-11.775zm0 22.397h14.92v11.775h-14.92v-11.775zm-.08 22.398h14.91v11.775h-14.91v-11.775zm0 22.397h14.91v11.775h-14.91v-11.775zm0 22.398h14.91v11.857h-14.91v-11.857zm0 22.397h14.91v11.775h-14.91v-11.775zm0 22.397h14.91v33.597h-14.99l.08-33.597zm-25.95-134.384h14.91v11.775h-14.91v-11.775zm0 22.397h14.91v11.858h-14.91v-11.858zm0 22.398h14.91v11.857h-14.91v-11.857zm0 22.397h14.91v11.775h-14.91v-11.775zm-.08 22.398h14.91v11.775h-14.91v-11.775zm0 22.315h14.91v11.857h-14.91v-11.857zm0 22.397h14.91v11.858h-14.91v-11.858zm82.22-62.746h14.91v11.776h-14.91v-11.776zm0 22.398h14.91v11.857h-14.91V809.39zm0 22.397h14.91v11.858h-14.91v-11.858zm0 22.398h14.91v11.857h-14.91v-11.857zm-.08 22.397h14.91v11.858h-14.91v-11.858zm-25.87-89.59h14.91v11.858h-14.91v-11.858zm0 22.398h14.91v11.857h-14.91V809.39zm-.08 22.397h14.91v11.858h-14.91v-11.858zm0 22.398h14.91v34.172h-14.91v-34.172z"/><path d="M1400.55 689.251h-3.21v19.021h3.21v-19.021zM1407.88 675.499l-1.15-7.411h-4.86l.33 7.411h5.68zM1395.85 675.499l.42-7.411h-4.86l-1.24 7.411h5.68zM1402.61 683.24h6.43l-1.16-7.329h-5.68l.41 7.329zM1401.87 675.499l-.33-7.411h-4.94l-.42 7.411h5.69zM1391.08 668.088h-.75c-2.3 0-4.86 2.388-5.6 5.27l-.57 2.059h5.68l1.24-7.329zM1390.09 675.911l-1.16 7.329h6.43l.41-7.329h-5.68zM1396.18 675.911l-.41 7.329h6.43l-.33-7.329h-5.69zM1413.9 675.499l-.5-2.058c-.74-2.882-3.29-5.27-5.6-5.27h-.74l1.15 7.328h5.69zM1389.76 675.911h-5.69l-2.06 7.329h6.51l1.24-7.329zM1402.61 683.651l.41 7.329h7.17l-1.07-7.329h-6.51zM1408.29 675.911l1.16 7.329h6.42l-1.89-7.329h-5.69zM1410.68 690.98h1.08c3.37 0 5.51-2.388 4.77-5.27l-.49-2.059h-6.51l1.15 7.329z"/><path d="M1395.69 683.651l-.41 7.329h7.25l-.33-7.329h-6.51zM1381.93 683.651l-.58 2.059c-.82 2.882 1.32 5.27 4.7 5.27h1.07l1.24-7.329h-6.43zM1388.85 683.651l-1.23 7.329h7.25l.41-7.329h-6.43zM1438.12 689.251h-3.21v19.021h3.21v-19.021zM1445.45 675.499l-1.15-7.411h-4.86l.33 7.411h5.68zM1433.42 675.499l.41-7.411h-4.86l-1.23 7.411h5.68zM1440.18 683.24h6.42l-1.07-7.329h-5.76l.41 7.329zM1439.44 675.499l-.33-7.411h-4.95l-.41 7.411h5.69zM1428.64 668.088h-.74c-2.3 0-4.86 2.388-5.6 5.27l-.58 2.059h5.69l1.23-7.329zM1427.66 675.911l-1.16 7.329h6.43l.41-7.329h-5.68zM1433.75 675.911l-.41 7.329h6.43l-.33-7.329h-5.69zM1451.47 675.499l-.5-2.058c-.74-2.882-3.29-5.27-5.6-5.27h-.74l1.15 7.328h5.69zM1427.33 675.911h-5.69l-1.98 7.329h6.43l1.24-7.329zM1440.18 683.651l.41 7.329h7.17l-1.07-7.329h-6.51zM1445.86 675.911l1.16 7.329h6.42l-1.89-7.329h-5.69zM1448.25 690.98h1.07c3.38 0 5.52-2.388 4.78-5.27l-.49-2.059h-6.51l1.15 7.329z"/><path d="M1433.34 683.651l-.41 7.329h7.17l-.33-7.329h-6.43zM1419.5 683.651l-.58 2.059c-.82 2.882 1.32 5.27 4.7 5.27h1.07l1.24-7.329h-6.43zM1426.42 683.651l-1.24 7.329h7.25l.5-7.329h-6.51z"/></g><defs><clipPath id="clip0"><path fill="#fff" d="M0 0h1920v1080H0z"/></clipPath></defs></svg>