<svg width="1920" height="1080" viewBox="0 0 1920 1080" fill="none" xmlns="http://www.w3.org/2000/svg">
<g clip-path="url(#clip0)">
<path fill-rule="evenodd" clip-rule="evenodd" d="M847.969 464.522H941.525C944.961 476.788 955.621 501.194 988.222 527.394C988.222 527.394 966.871 501.284 960.993 464.522H994.083C1017.47 464.522 1036.49 445.379 1036.49 421.996V301.81C1036.49 278.548 1017.47 259.405 994.083 259.405H847.969C824.707 259.405 805.565 278.427 805.565 301.81V368.274C794.572 371.382 784.925 369.332 777.941 366.43V302.658C777.941 279.396 758.92 260.254 735.537 260.254H577.55C554.288 260.254 535.145 279.275 535.145 302.658V422.845C535.145 446.107 554.167 465.249 577.55 465.249H735.537C758.92 465.249 777.941 446.228 777.941 422.845V384.341C783.032 385.819 788.62 386.74 794.542 386.74C798.101 386.74 801.788 386.409 805.565 385.669V422.117C805.565 445.379 824.586 464.522 847.969 464.522Z" fill="#159B2B"/>
<path d="M600.786 303.916H602.245V299.607L603.318 298.366L607.041 303.916H608.769L604.358 297.41L608.45 292.613H606.639L603.184 296.856C602.899 297.225 602.597 297.628 602.295 298.064H602.245V292.613H600.786V303.916ZM613.263 295.615C611.016 295.615 609.238 297.208 609.238 299.925C609.238 302.491 610.932 304.101 613.129 304.101C615.091 304.101 617.17 302.793 617.17 299.791C617.17 297.309 615.594 295.615 613.263 295.615ZM613.229 296.722C614.973 296.722 615.661 298.466 615.661 299.841C615.661 301.669 614.604 302.994 613.196 302.994C611.754 302.994 610.731 301.652 610.731 299.875C610.731 298.332 611.485 296.722 613.229 296.722ZM619.029 303.916H620.471V299.02C620.471 298.768 620.505 298.516 620.588 298.298C620.823 297.561 621.494 296.823 622.416 296.823C623.54 296.823 624.11 297.762 624.11 299.053V303.916H625.552V298.902C625.552 298.634 625.603 298.366 625.67 298.164C625.921 297.443 626.575 296.823 627.414 296.823C628.604 296.823 629.175 297.762 629.175 299.321V303.916H630.617V299.137C630.617 296.32 629.024 295.615 627.95 295.615C627.179 295.615 626.642 295.816 626.156 296.185C625.821 296.437 625.502 296.789 625.25 297.242H625.217C624.865 296.286 624.026 295.615 622.919 295.615C621.578 295.615 620.823 296.336 620.37 297.108H620.32L620.253 295.8H618.962C619.012 296.471 619.029 297.158 619.029 297.997V303.916ZM633.015 307.237H634.474V302.826H634.507C634.994 303.631 635.933 304.101 637.006 304.101C638.918 304.101 640.695 302.659 640.695 299.741C640.695 297.275 639.22 295.615 637.257 295.615C635.933 295.615 634.977 296.202 634.373 297.192H634.34L634.272 295.8H632.948C632.981 296.571 633.015 297.41 633.015 298.449V307.237ZM634.474 299.221C634.474 299.02 634.524 298.802 634.574 298.617C634.859 297.51 635.798 296.789 636.805 296.789C638.364 296.789 639.22 298.181 639.22 299.808C639.22 301.669 638.314 302.944 636.754 302.944C635.698 302.944 634.809 302.239 634.541 301.216C634.507 301.032 634.474 300.831 634.474 300.613V299.221ZM646 295.615C643.753 295.615 641.975 297.208 641.975 299.925C641.975 302.491 643.669 304.101 645.866 304.101C647.828 304.101 649.908 302.793 649.908 299.791C649.908 297.309 648.331 295.615 646 295.615ZM645.967 296.722C647.711 296.722 648.398 298.466 648.398 299.841C648.398 301.669 647.342 302.994 645.933 302.994C644.491 302.994 643.468 301.652 643.468 299.875C643.468 298.332 644.223 296.722 645.967 296.722ZM651.766 303.916H653.242V299.036C653.242 298.785 653.276 298.533 653.343 298.349C653.594 297.527 654.349 296.839 655.321 296.839C656.713 296.839 657.2 297.93 657.2 299.238V303.916H658.675V299.07C658.675 296.286 656.931 295.615 655.808 295.615C654.466 295.615 653.527 296.37 653.125 297.141H653.091L653.007 295.8H651.699C651.749 296.471 651.766 297.158 651.766 297.997V303.916ZM667.592 300.126C667.609 299.975 667.642 299.741 667.642 299.439C667.642 297.946 666.938 295.615 664.288 295.615C661.924 295.615 660.481 297.544 660.481 299.992C660.481 302.441 661.974 304.084 664.473 304.084C665.764 304.084 666.653 303.816 667.173 303.581L666.921 302.524C666.368 302.759 665.73 302.944 664.674 302.944C663.198 302.944 661.924 302.122 661.89 300.126H667.592ZM661.907 299.07C662.024 298.047 662.678 296.672 664.171 296.672C665.831 296.672 666.233 298.131 666.217 299.07H661.907ZM669.47 303.916H670.945V299.036C670.945 298.785 670.979 298.533 671.046 298.349C671.298 297.527 672.052 296.839 673.025 296.839C674.417 296.839 674.903 297.93 674.903 299.238V303.916H676.379V299.07C676.379 296.286 674.635 295.615 673.511 295.615C672.17 295.615 671.231 296.37 670.828 297.141H670.795L670.711 295.8H669.403C669.453 296.471 669.47 297.158 669.47 297.997V303.916ZM683.533 303.916L683.6 302.575H683.65C684.254 303.648 685.193 304.101 686.367 304.101C688.178 304.101 690.006 302.659 690.006 299.757C690.023 297.292 688.598 295.615 686.585 295.615C685.277 295.615 684.338 296.202 683.818 297.108H683.785V292.01H682.326V301.82C682.326 302.541 682.292 303.363 682.258 303.916H683.533ZM683.785 299.204C683.785 298.969 683.835 298.768 683.868 298.6C684.17 297.477 685.109 296.789 686.116 296.789C687.692 296.789 688.53 298.181 688.53 299.808C688.53 301.669 687.608 302.927 686.065 302.927C684.992 302.927 684.137 302.223 683.852 301.2C683.818 301.032 683.785 300.847 683.785 300.663V299.204ZM693.349 303.916V295.8H691.873V303.916H693.349ZM692.611 292.597C692.075 292.597 691.689 292.999 691.689 293.519C691.689 294.022 692.058 294.425 692.578 294.425C693.165 294.425 693.534 294.022 693.517 293.519C693.517 292.999 693.165 292.597 692.611 292.597ZM701.64 303.916C701.539 303.363 701.506 302.675 701.506 301.971V298.936C701.506 297.309 700.902 295.615 698.42 295.615C697.397 295.615 696.424 295.9 695.753 296.336L696.089 297.309C696.659 296.94 697.447 296.705 698.202 296.705C699.862 296.705 700.047 297.913 700.047 298.584V298.751C696.911 298.734 695.166 299.808 695.166 301.77C695.166 302.944 696.005 304.101 697.648 304.101C698.806 304.101 699.678 303.531 700.13 302.893H700.181L700.298 303.916H701.64ZM700.08 301.183C700.08 301.334 700.047 301.502 699.996 301.652C699.761 302.34 699.091 303.011 698.034 303.011C697.28 303.011 696.642 302.558 696.642 301.602C696.642 300.026 698.47 299.741 700.08 299.774V301.183ZM702.69 295.8L705.691 303.279C705.759 303.464 705.792 303.581 705.792 303.665C705.792 303.749 705.742 303.866 705.675 304.017C705.339 304.772 704.836 305.342 704.434 305.66C703.998 306.029 703.511 306.264 703.142 306.382L703.511 307.623C703.88 307.555 704.601 307.304 705.323 306.667C706.329 305.795 707.05 304.369 708.106 301.585L710.32 295.8H708.76L707.15 300.562C706.949 301.149 706.782 301.77 706.631 302.256H706.597C706.463 301.77 706.262 301.133 706.077 300.596L704.3 295.8H702.69ZM717.427 303.916C717.326 303.363 717.293 302.675 717.293 301.971V298.936C717.293 297.309 716.689 295.615 714.207 295.615C713.184 295.615 712.212 295.9 711.541 296.336L711.876 297.309C712.446 296.94 713.235 296.705 713.989 296.705C715.649 296.705 715.834 297.913 715.834 298.584V298.751C712.698 298.734 710.954 299.808 710.954 301.77C710.954 302.944 711.792 304.101 713.436 304.101C714.593 304.101 715.465 303.531 715.918 302.893H715.968L716.085 303.916H717.427ZM715.867 301.183C715.867 301.334 715.834 301.502 715.784 301.652C715.549 302.34 714.878 303.011 713.821 303.011C713.067 303.011 712.43 302.558 712.43 301.602C712.43 300.026 714.257 299.741 715.867 299.774V301.183ZM613.469 323.916H614.945V312.01H613.469V323.916ZM623.268 323.916C623.167 323.363 623.134 322.675 623.134 321.971V318.936C623.134 317.309 622.53 315.615 620.048 315.615C619.025 315.615 618.053 315.9 617.382 316.336L617.717 317.309C618.287 316.94 619.076 316.705 619.83 316.705C621.49 316.705 621.675 317.913 621.675 318.584V318.751C618.539 318.734 616.795 319.808 616.795 321.77C616.795 322.944 617.633 324.101 619.277 324.101C620.434 324.101 621.306 323.531 621.759 322.893H621.809L621.926 323.916H623.268ZM621.708 321.183C621.708 321.334 621.675 321.502 621.625 321.652C621.39 322.34 620.719 323.011 619.662 323.011C618.908 323.011 618.271 322.558 618.271 321.602C618.271 320.026 620.098 319.741 621.708 319.774V321.183ZM624.318 315.8L627.32 323.279C627.387 323.464 627.42 323.581 627.42 323.665C627.42 323.749 627.37 323.866 627.303 324.017C626.968 324.772 626.465 325.342 626.062 325.66C625.626 326.029 625.14 326.264 624.771 326.382L625.14 327.623C625.509 327.555 626.23 327.304 626.951 326.667C627.957 325.795 628.678 324.369 629.735 321.585L631.948 315.8H630.389L628.779 320.562C628.578 321.149 628.41 321.77 628.259 322.256H628.225C628.091 321.77 627.89 321.133 627.705 320.596L625.928 315.8H624.318ZM639.055 323.916C638.955 323.363 638.921 322.675 638.921 321.971V318.936C638.921 317.309 638.317 315.615 635.836 315.615C634.813 315.615 633.84 315.9 633.169 316.336L633.504 317.309C634.075 316.94 634.863 316.705 635.617 316.705C637.278 316.705 637.462 317.913 637.462 318.584V318.751C634.326 318.734 632.582 319.808 632.582 321.77C632.582 322.944 633.421 324.101 635.064 324.101C636.221 324.101 637.093 323.531 637.546 322.893H637.596L637.714 323.916H639.055ZM637.496 321.183C637.496 321.334 637.462 321.502 637.412 321.652C637.177 322.34 636.506 323.011 635.45 323.011C634.695 323.011 634.058 322.558 634.058 321.602C634.058 320.026 635.886 319.741 637.496 319.774V321.183ZM641.31 323.916H642.785V319.036C642.785 318.785 642.819 318.533 642.886 318.349C643.138 317.527 643.892 316.839 644.865 316.839C646.257 316.839 646.743 317.93 646.743 319.238V323.916H648.219V319.07C648.219 316.286 646.475 315.615 645.351 315.615C644.01 315.615 643.07 316.37 642.668 317.141H642.634L642.551 315.8H641.243C641.293 316.471 641.31 317.158 641.31 317.997V323.916ZM656.448 323.916C656.347 323.363 656.313 322.675 656.313 321.971V318.936C656.313 317.309 655.71 315.615 653.228 315.615C652.205 315.615 651.232 315.9 650.561 316.336L650.897 317.309C651.467 316.94 652.255 316.705 653.01 316.705C654.67 316.705 654.854 317.913 654.854 318.584V318.751C651.718 318.734 649.974 319.808 649.974 321.77C649.974 322.944 650.813 324.101 652.456 324.101C653.613 324.101 654.486 323.531 654.938 322.893H654.989L655.106 323.916H656.448ZM654.888 321.183C654.888 321.334 654.854 321.502 654.804 321.652C654.569 322.34 653.899 323.011 652.842 323.011C652.087 323.011 651.45 322.558 651.45 321.602C651.45 320.026 653.278 319.741 654.888 319.774V321.183ZM658.702 323.916H660.178V319.036C660.178 318.785 660.211 318.533 660.278 318.349C660.53 317.527 661.284 316.839 662.257 316.839C663.649 316.839 664.135 317.93 664.135 319.238V323.916H665.611V319.07C665.611 316.286 663.867 315.615 662.743 315.615C661.402 315.615 660.463 316.37 660.06 317.141H660.027L659.943 315.8H658.635C658.685 316.471 658.702 317.158 658.702 317.997V323.916ZM671.608 323.916H673.067V319.02H674.442C675.767 319.07 676.371 319.657 676.706 321.216C677.025 322.625 677.276 323.598 677.461 323.916H678.97C678.735 323.48 678.467 322.39 678.098 320.814C677.83 319.64 677.31 318.835 676.438 318.533V318.483C677.628 318.08 678.568 317.091 678.568 315.598C678.568 314.726 678.249 313.955 677.679 313.452C676.974 312.815 675.968 312.53 674.409 312.53C673.402 312.53 672.346 312.613 671.608 312.764V323.916ZM673.067 313.787C673.302 313.72 673.805 313.653 674.509 313.653C676.052 313.67 677.109 314.307 677.109 315.766C677.109 317.057 676.119 317.913 674.56 317.913H673.067V313.787ZM686.484 317.41H682.091V313.838H686.736V312.613H680.632V323.916H686.988V322.692H682.091V318.617H686.484V317.41ZM696.482 322.39C695.896 322.675 694.99 322.86 694.101 322.86C691.351 322.86 689.758 321.082 689.758 318.315C689.758 315.347 691.519 313.653 694.168 313.653C695.107 313.653 695.896 313.854 696.449 314.123L696.801 312.932C696.415 312.731 695.527 312.429 694.118 312.429C690.613 312.429 688.215 314.827 688.215 318.366C688.215 322.072 690.613 324.084 693.799 324.084C695.174 324.084 696.248 323.816 696.784 323.547L696.482 322.39ZM591.563 347.421C592.351 347.421 593.424 347.153 594.078 346.499C594.799 345.761 595.051 344.738 595.051 343.162V335.8H593.575V342.592C593.575 344.537 593.424 345.174 593.022 345.644C592.67 346.029 592.083 346.214 591.412 346.264L591.563 347.421ZM594.33 332.597C593.776 332.597 593.391 332.999 593.391 333.519C593.391 334.005 593.743 334.425 594.296 334.425C594.883 334.425 595.235 334.005 595.219 333.519C595.219 332.999 594.867 332.597 594.33 332.597ZM603.305 343.916C603.204 343.363 603.17 342.675 603.17 341.971V338.936C603.17 337.309 602.567 335.615 600.085 335.615C599.062 335.615 598.089 335.9 597.418 336.336L597.754 337.309C598.324 336.94 599.112 336.705 599.867 336.705C601.527 336.705 601.711 337.913 601.711 338.584V338.751C598.575 338.734 596.831 339.808 596.831 341.77C596.831 342.944 597.67 344.101 599.313 344.101C600.47 344.101 601.342 343.531 601.795 342.893H601.846L601.963 343.916H603.305ZM601.745 341.183C601.745 341.334 601.711 341.502 601.661 341.652C601.426 342.34 600.756 343.011 599.699 343.011C598.944 343.011 598.307 342.558 598.307 341.602C598.307 340.026 600.135 339.741 601.745 339.774V341.183ZM611.093 332.01V336.856H611.059C610.69 336.202 609.852 335.615 608.611 335.615C606.632 335.615 604.955 337.275 604.972 339.975C604.972 342.441 606.481 344.101 608.443 344.101C609.768 344.101 610.757 343.413 611.21 342.508H611.244L611.311 343.916H612.636C612.585 343.363 612.569 342.541 612.569 341.82V332.01H611.093ZM611.093 340.512C611.093 340.747 611.076 340.948 611.026 341.149C610.757 342.256 609.852 342.91 608.862 342.91C607.269 342.91 606.464 341.552 606.464 339.908C606.464 338.114 607.37 336.772 608.896 336.772C610.003 336.772 610.808 337.544 611.026 338.483C611.076 338.667 611.093 338.919 611.093 339.103V340.512ZM616.5 343.916V335.8H615.025V343.916H616.5ZM615.763 332.597C615.226 332.597 614.84 332.999 614.84 333.519C614.84 334.022 615.209 334.425 615.729 334.425C616.316 334.425 616.685 334.022 616.668 333.519C616.668 332.999 616.316 332.597 615.763 332.597ZM621.939 343.531C622.509 343.866 623.331 344.084 624.219 344.084C626.148 344.084 627.255 343.078 627.255 341.652C627.255 340.445 626.534 339.741 625.125 339.204C624.069 338.802 623.582 338.5 623.582 337.829C623.582 337.225 624.069 336.722 624.941 336.722C625.695 336.722 626.282 336.99 626.601 337.192L626.97 336.118C626.517 335.85 625.796 335.615 624.974 335.615C623.23 335.615 622.173 336.689 622.173 337.997C622.173 338.969 622.861 339.774 624.32 340.294C625.41 340.697 625.829 341.082 625.829 341.787C625.829 342.457 625.326 342.994 624.253 342.994C623.515 342.994 622.744 342.692 622.308 342.407L621.939 343.531ZM634.994 343.916C634.893 343.363 634.86 342.675 634.86 341.971V338.936C634.86 337.309 634.256 335.615 631.774 335.615C630.751 335.615 629.778 335.9 629.108 336.336L629.443 337.309C630.013 336.94 630.801 336.705 631.556 336.705C633.216 336.705 633.401 337.913 633.401 338.584V338.751C630.265 338.734 628.521 339.808 628.521 341.77C628.521 342.944 629.359 344.101 631.003 344.101C632.16 344.101 633.032 343.531 633.485 342.893H633.535L633.652 343.916H634.994ZM633.434 341.183C633.434 341.334 633.401 341.502 633.35 341.652C633.116 342.34 632.445 343.011 631.388 343.011C630.634 343.011 629.996 342.558 629.996 341.602C629.996 340.026 631.824 339.741 633.434 339.774V341.183ZM637.518 333.854V335.8H636.26V336.923H637.518V341.351C637.518 342.306 637.669 343.028 638.088 343.464C638.44 343.866 638.994 344.084 639.681 344.084C640.252 344.084 640.704 344 640.989 343.883L640.922 342.776C640.738 342.826 640.453 342.877 640.067 342.877C639.245 342.877 638.96 342.306 638.96 341.3V336.923H641.073V335.8H638.96V333.469L637.518 333.854ZM649.526 335.8H648.05V340.78C648.05 341.049 648 341.317 647.916 341.535C647.648 342.189 646.96 342.877 645.971 342.877C644.629 342.877 644.16 341.837 644.16 340.294V335.8H642.684V340.546C642.684 343.397 644.21 344.101 645.485 344.101C646.927 344.101 647.782 343.246 648.168 342.592H648.201L648.285 343.916H649.593C649.543 343.279 649.526 342.541 649.526 341.703V335.8ZM656.984 332.01H655.525V343.916H656.984V340.864L657.738 340.026L660.539 343.916H662.333L658.761 339.137L661.897 335.8H660.12L657.738 338.6C657.504 338.885 657.219 339.238 657.017 339.523H656.984V332.01ZM669.909 340.126C669.926 339.975 669.959 339.741 669.959 339.439C669.959 337.946 669.255 335.615 666.605 335.615C664.241 335.615 662.799 337.544 662.799 339.992C662.799 342.441 664.291 344.084 666.79 344.084C668.081 344.084 668.97 343.816 669.49 343.581L669.238 342.524C668.685 342.759 668.048 342.944 666.991 342.944C665.515 342.944 664.241 342.122 664.207 340.126H669.909ZM664.224 339.07C664.342 338.047 664.996 336.672 666.488 336.672C668.148 336.672 668.551 338.131 668.534 339.07H664.224ZM671.217 343.531C671.787 343.866 672.609 344.084 673.498 344.084C675.426 344.084 676.533 343.078 676.533 341.652C676.533 340.445 675.812 339.741 674.403 339.204C673.347 338.802 672.86 338.5 672.86 337.829C672.86 337.225 673.347 336.722 674.219 336.722C674.973 336.722 675.56 336.99 675.879 337.192L676.248 336.118C675.795 335.85 675.074 335.615 674.252 335.615C672.508 335.615 671.452 336.689 671.452 337.997C671.452 338.969 672.139 339.774 673.598 340.294C674.688 340.697 675.107 341.082 675.107 341.787C675.107 342.457 674.604 342.994 673.531 342.994C672.793 342.994 672.022 342.692 671.586 342.407L671.217 343.531ZM684.272 343.916C684.171 343.363 684.138 342.675 684.138 341.971V338.936C684.138 337.309 683.534 335.615 681.052 335.615C680.029 335.615 679.057 335.9 678.386 336.336L678.721 337.309C679.291 336.94 680.08 336.705 680.834 336.705C682.494 336.705 682.679 337.913 682.679 338.584V338.751C679.543 338.734 677.799 339.808 677.799 341.77C677.799 342.944 678.637 344.101 680.281 344.101C681.438 344.101 682.31 343.531 682.763 342.893H682.813L682.93 343.916H684.272ZM682.712 341.183C682.712 341.334 682.679 341.502 682.629 341.652C682.394 342.34 681.723 343.011 680.666 343.011C679.912 343.011 679.275 342.558 679.275 341.602C679.275 340.026 681.102 339.741 682.712 339.774V341.183ZM686.796 333.854V335.8H685.538V336.923H686.796V341.351C686.796 342.306 686.947 343.028 687.366 343.464C687.718 343.866 688.272 344.084 688.959 344.084C689.53 344.084 689.982 344 690.268 343.883L690.2 342.776C690.016 342.826 689.731 342.877 689.345 342.877C688.523 342.877 688.238 342.306 688.238 341.3V336.923H690.351V335.8H688.238V333.469L686.796 333.854ZM698.804 335.8H697.329V340.78C697.329 341.049 697.278 341.317 697.194 341.535C696.926 342.189 696.239 342.877 695.249 342.877C693.908 342.877 693.438 341.837 693.438 340.294V335.8H691.962V340.546C691.962 343.397 693.488 344.101 694.763 344.101C696.205 344.101 697.06 343.246 697.446 342.592H697.48L697.563 343.916H698.871C698.821 343.279 698.804 342.541 698.804 341.703V335.8ZM707.085 343.916C706.984 343.363 706.951 342.675 706.951 341.971V338.936C706.951 337.309 706.347 335.615 703.865 335.615C702.842 335.615 701.87 335.9 701.199 336.336L701.534 337.309C702.104 336.94 702.893 336.705 703.647 336.705C705.307 336.705 705.492 337.913 705.492 338.584V338.751C702.356 338.734 700.612 339.808 700.612 341.77C700.612 342.944 701.45 344.101 703.094 344.101C704.251 344.101 705.123 343.531 705.576 342.893H705.626L705.743 343.916H707.085ZM705.525 341.183C705.525 341.334 705.492 341.502 705.442 341.652C705.207 342.34 704.536 343.011 703.479 343.011C702.725 343.011 702.088 342.558 702.088 341.602C702.088 340.026 703.916 339.741 705.525 339.774V341.183ZM709.339 343.916H710.815V339.036C710.815 338.785 710.849 338.533 710.916 338.349C711.167 337.527 711.922 336.839 712.895 336.839C714.286 336.839 714.773 337.93 714.773 339.238V343.916H716.248V339.07C716.248 336.286 714.504 335.615 713.381 335.615C712.039 335.615 711.1 336.37 710.698 337.141H710.664L710.58 335.8H709.272C709.323 336.471 709.339 337.158 709.339 337.997V343.916ZM610.233 352.01V356.856H610.2C609.831 356.202 608.992 355.615 607.751 355.615C605.772 355.615 604.095 357.275 604.112 359.975C604.112 362.441 605.621 364.101 607.583 364.101C608.908 364.101 609.898 363.413 610.35 362.508H610.384L610.451 363.916H611.776C611.726 363.363 611.709 362.541 611.709 361.82V352.01H610.233ZM610.233 360.512C610.233 360.747 610.216 360.948 610.166 361.149C609.898 362.256 608.992 362.91 608.003 362.91C606.41 362.91 605.605 361.552 605.605 359.908C605.605 358.114 606.51 356.772 608.036 356.772C609.143 356.772 609.948 357.544 610.166 358.483C610.216 358.667 610.233 358.919 610.233 359.103V360.512ZM620.688 360.126C620.705 359.975 620.739 359.741 620.739 359.439C620.739 357.946 620.034 355.615 617.385 355.615C615.02 355.615 613.578 357.544 613.578 359.992C613.578 362.441 615.07 364.084 617.569 364.084C618.86 364.084 619.749 363.816 620.269 363.581L620.018 362.524C619.464 362.759 618.827 362.944 617.77 362.944C616.295 362.944 615.02 362.122 614.987 360.126H620.688ZM615.003 359.07C615.121 358.047 615.775 356.672 617.267 356.672C618.928 356.672 619.33 358.131 619.313 359.07H615.003ZM622.566 363.916H624.042V359.036C624.042 358.785 624.076 358.533 624.143 358.349C624.394 357.527 625.149 356.839 626.121 356.839C627.513 356.839 628 357.93 628 359.238V363.916H629.475V359.07C629.475 356.286 627.731 355.615 626.608 355.615C625.266 355.615 624.327 356.37 623.925 357.141H623.891L623.807 355.8H622.499C622.549 356.471 622.566 357.158 622.566 357.997V363.916ZM637.57 355.8L637.503 357.024H637.469C637.117 356.353 636.346 355.615 634.937 355.615C633.076 355.615 631.281 357.175 631.281 359.925C631.281 362.172 632.724 363.883 634.736 363.883C635.994 363.883 636.866 363.279 637.319 362.524H637.352V363.43C637.352 365.476 636.245 366.264 634.736 366.264C633.73 366.264 632.891 365.962 632.355 365.627L631.986 366.751C632.64 367.187 633.713 367.421 634.686 367.421C635.709 367.421 636.849 367.187 637.637 366.449C638.425 365.744 638.794 364.604 638.794 362.742V358.03C638.794 357.041 638.828 356.387 638.861 355.8H637.57ZM637.335 360.462C637.335 360.713 637.302 360.998 637.218 361.25C636.899 362.189 636.078 362.759 635.172 362.759C633.579 362.759 632.774 361.434 632.774 359.841C632.774 357.963 633.78 356.772 635.189 356.772C636.262 356.772 636.983 357.477 637.251 358.332C637.319 358.533 637.335 358.751 637.335 359.003V360.462ZM647.072 363.916C646.971 363.363 646.938 362.675 646.938 361.971V358.936C646.938 357.309 646.334 355.615 643.852 355.615C642.829 355.615 641.856 355.9 641.186 356.336L641.521 357.309C642.091 356.94 642.879 356.705 643.634 356.705C645.294 356.705 645.479 357.913 645.479 358.584V358.751C642.343 358.734 640.599 359.808 640.599 361.77C640.599 362.944 641.437 364.101 643.081 364.101C644.238 364.101 645.11 363.531 645.563 362.893H645.613L645.73 363.916H647.072ZM645.512 361.183C645.512 361.334 645.479 361.502 645.428 361.652C645.194 362.34 644.523 363.011 643.466 363.011C642.712 363.011 642.074 362.558 642.074 361.602C642.074 360.026 643.902 359.741 645.512 359.774V361.183ZM649.326 363.916H650.802V359.036C650.802 358.785 650.835 358.533 650.902 358.349C651.154 357.527 651.909 356.839 652.881 356.839C654.273 356.839 654.76 357.93 654.76 359.238V363.916H656.235V359.07C656.235 356.286 654.491 355.615 653.368 355.615C652.026 355.615 651.087 356.37 650.684 357.141H650.651L650.567 355.8H649.259C649.309 356.471 649.326 357.158 649.326 357.997V363.916ZM662.517 353.854V355.8H661.26V356.923H662.517V361.351C662.517 362.306 662.668 363.028 663.088 363.464C663.44 363.866 663.993 364.084 664.681 364.084C665.251 364.084 665.704 364 665.989 363.883L665.922 362.776C665.737 362.826 665.452 362.877 665.066 362.877C664.245 362.877 663.96 362.306 663.96 361.3V356.923H666.073V355.8H663.96V353.469L662.517 353.854ZM673.57 363.916C673.469 363.363 673.436 362.675 673.436 361.971V358.936C673.436 357.309 672.832 355.615 670.35 355.615C669.327 355.615 668.354 355.9 667.683 356.336L668.019 357.309C668.589 356.94 669.377 356.705 670.132 356.705C671.792 356.705 671.977 357.913 671.977 358.584V358.751C668.841 358.734 667.096 359.808 667.096 361.77C667.096 362.944 667.935 364.101 669.578 364.101C670.736 364.101 671.608 363.531 672.06 362.893H672.111L672.228 363.916H673.57ZM672.01 361.183C672.01 361.334 671.977 361.502 671.926 361.652C671.691 362.34 671.021 363.011 669.964 363.011C669.209 363.011 668.572 362.558 668.572 361.602C668.572 360.026 670.4 359.741 672.01 359.774V361.183ZM681.526 355.8L681.459 357.024H681.425C681.073 356.353 680.302 355.615 678.893 355.615C677.031 355.615 675.237 357.175 675.237 359.925C675.237 362.172 676.679 363.883 678.692 363.883C679.949 363.883 680.821 363.279 681.274 362.524H681.308V363.43C681.308 365.476 680.201 366.264 678.692 366.264C677.685 366.264 676.847 365.962 676.31 365.627L675.941 366.751C676.595 367.187 677.669 367.421 678.641 367.421C679.664 367.421 680.805 367.187 681.593 366.449C682.381 365.744 682.75 364.604 682.75 362.742V358.03C682.75 357.041 682.783 356.387 682.817 355.8H681.526ZM681.291 360.462C681.291 360.713 681.257 360.998 681.174 361.25C680.855 362.189 680.033 362.759 679.128 362.759C677.534 362.759 676.73 361.434 676.73 359.841C676.73 357.963 677.736 356.772 679.144 356.772C680.218 356.772 680.939 357.477 681.207 358.332C681.274 358.533 681.291 358.751 681.291 359.003V360.462ZM686.569 363.916V355.8H685.093V363.916H686.569ZM685.831 352.597C685.295 352.597 684.909 352.999 684.909 353.519C684.909 354.022 685.278 354.425 685.798 354.425C686.385 354.425 686.753 354.022 686.737 353.519C686.737 352.999 686.385 352.597 685.831 352.597ZM689.024 363.916H690.499V359.02C690.499 358.734 690.516 358.516 690.6 358.315C690.868 357.51 691.623 356.839 692.579 356.839C693.971 356.839 694.457 357.946 694.457 359.254V363.916H695.933V359.087C695.933 356.286 694.189 355.615 693.099 355.615C692.545 355.615 692.026 355.783 691.59 356.035C691.137 356.286 690.768 356.655 690.533 357.074H690.499V352.01H689.024V363.916ZM704.162 363.916C704.061 363.363 704.028 362.675 704.028 361.971V358.936C704.028 357.309 703.424 355.615 700.942 355.615C699.919 355.615 698.946 355.9 698.275 356.336L698.611 357.309C699.181 356.94 699.969 356.705 700.724 356.705C702.384 356.705 702.569 357.913 702.569 358.584V358.751C699.433 358.734 697.689 359.808 697.689 361.77C697.689 362.944 698.527 364.101 700.171 364.101C701.328 364.101 702.2 363.531 702.652 362.893H702.703L702.82 363.916H704.162ZM702.602 361.183C702.602 361.334 702.569 361.502 702.518 361.652C702.284 362.34 701.613 363.011 700.556 363.011C699.802 363.011 699.164 362.558 699.164 361.602C699.164 360.026 700.992 359.741 702.602 359.774V361.183ZM706.416 363.916H707.892V359.036C707.892 358.785 707.925 358.533 707.992 358.349C708.244 357.527 708.999 356.839 709.971 356.839C711.363 356.839 711.849 357.93 711.849 359.238V363.916H713.325V359.07C713.325 356.286 711.581 355.615 710.458 355.615C709.116 355.615 708.177 356.37 707.774 357.141H707.741L707.657 355.8H706.349C706.399 356.471 706.416 357.158 706.416 357.997V363.916ZM602.164 383.916L602.231 382.575H602.282C602.885 383.648 603.825 384.101 604.998 384.101C606.81 384.101 608.638 382.659 608.638 379.757C608.654 377.292 607.229 375.615 605.216 375.615C603.908 375.615 602.969 376.202 602.449 377.108H602.416V372.01H600.957V381.82C600.957 382.541 600.923 383.363 600.89 383.916H602.164ZM602.416 379.204C602.416 378.969 602.466 378.768 602.5 378.6C602.802 377.477 603.741 376.789 604.747 376.789C606.323 376.789 607.162 378.181 607.162 379.808C607.162 381.669 606.239 382.927 604.697 382.927C603.623 382.927 602.768 382.223 602.483 381.2C602.449 381.032 602.416 380.847 602.416 380.663V379.204ZM611.98 383.916V375.8H610.505V383.916H611.98ZM611.242 372.597C610.706 372.597 610.32 372.999 610.32 373.519C610.32 374.022 610.689 374.425 611.209 374.425C611.796 374.425 612.165 374.022 612.148 373.519C612.148 372.999 611.796 372.597 611.242 372.597ZM620.271 383.916C620.17 383.363 620.137 382.675 620.137 381.971V378.936C620.137 377.309 619.533 375.615 617.051 375.615C616.028 375.615 615.056 375.9 614.385 376.336L614.72 377.309C615.29 376.94 616.079 376.705 616.833 376.705C618.493 376.705 618.678 377.913 618.678 378.584V378.751C615.542 378.734 613.798 379.808 613.798 381.77C613.798 382.944 614.636 384.101 616.28 384.101C617.437 384.101 618.309 383.531 618.762 382.893H618.812L618.929 383.916H620.271ZM618.711 381.183C618.711 381.334 618.678 381.502 618.628 381.652C618.393 382.34 617.722 383.011 616.665 383.011C615.911 383.011 615.274 382.558 615.274 381.602C615.274 380.026 617.101 379.741 618.711 379.774V381.183ZM621.321 375.8L624.323 383.279C624.39 383.464 624.423 383.581 624.423 383.665C624.423 383.749 624.373 383.866 624.306 384.017C623.971 384.772 623.468 385.342 623.065 385.66C622.629 386.029 622.143 386.264 621.774 386.382L622.143 387.623C622.512 387.555 623.233 387.304 623.954 386.667C624.96 385.795 625.681 384.369 626.738 381.585L628.951 375.8H627.392L625.782 380.562C625.581 381.149 625.413 381.77 625.262 382.256H625.228C625.094 381.77 624.893 381.133 624.709 380.596L622.931 375.8H621.321ZM636.058 383.916C635.958 383.363 635.924 382.675 635.924 381.971V378.936C635.924 377.309 635.32 375.615 632.839 375.615C631.816 375.615 630.843 375.9 630.172 376.336L630.508 377.309C631.078 376.94 631.866 376.705 632.621 376.705C634.281 376.705 634.465 377.913 634.465 378.584V378.751C631.329 378.734 629.585 379.808 629.585 381.77C629.585 382.944 630.424 384.101 632.067 384.101C633.224 384.101 634.096 383.531 634.549 382.893H634.599L634.717 383.916H636.058ZM634.499 381.183C634.499 381.334 634.465 381.502 634.415 381.652C634.18 382.34 633.509 383.011 632.453 383.011C631.698 383.011 631.061 382.558 631.061 381.602C631.061 380.026 632.889 379.741 634.499 379.774V381.183ZM641.866 387.237H643.325V382.826H643.359C643.845 383.631 644.784 384.101 645.858 384.101C647.769 384.101 649.547 382.659 649.547 379.741C649.547 377.275 648.071 375.615 646.109 375.615C644.784 375.615 643.828 376.202 643.225 377.192H643.191L643.124 375.8H641.799C641.833 376.571 641.866 377.41 641.866 378.449V387.237ZM643.325 379.221C643.325 379.02 643.376 378.802 643.426 378.617C643.711 377.51 644.65 376.789 645.656 376.789C647.216 376.789 648.071 378.181 648.071 379.808C648.071 381.669 647.166 382.944 645.606 382.944C644.55 382.944 643.661 382.239 643.392 381.216C643.359 381.032 643.325 380.831 643.325 380.613V379.221ZM657.938 380.126C657.954 379.975 657.988 379.741 657.988 379.439C657.988 377.946 657.284 375.615 654.634 375.615C652.269 375.615 650.827 377.544 650.827 379.992C650.827 382.441 652.32 384.084 654.818 384.084C656.11 384.084 656.999 383.816 657.518 383.581L657.267 382.524C656.713 382.759 656.076 382.944 655.02 382.944C653.544 382.944 652.269 382.122 652.236 380.126H657.938ZM652.253 379.07C652.37 378.047 653.024 376.672 654.517 376.672C656.177 376.672 656.579 378.131 656.563 379.07H652.253ZM659.816 383.916H661.258V379.02C661.258 378.768 661.291 378.516 661.375 378.298C661.61 377.561 662.281 376.823 663.203 376.823C664.327 376.823 664.897 377.762 664.897 379.053V383.916H666.339V378.902C666.339 378.634 666.389 378.366 666.456 378.164C666.708 377.443 667.362 376.823 668.2 376.823C669.391 376.823 669.961 377.762 669.961 379.321V383.916H671.404V379.137C671.404 376.32 669.81 375.615 668.737 375.615C667.966 375.615 667.429 375.816 666.943 376.185C666.607 376.437 666.289 376.789 666.037 377.242H666.004C665.651 376.286 664.813 375.615 663.706 375.615C662.365 375.615 661.61 376.336 661.157 377.108H661.107L661.04 375.8H659.748C659.799 376.471 659.816 377.158 659.816 377.997V383.916ZM679.637 383.916C679.537 383.363 679.503 382.675 679.503 381.971V378.936C679.503 377.309 678.899 375.615 676.417 375.615C675.395 375.615 674.422 375.9 673.751 376.336L674.086 377.309C674.657 376.94 675.445 376.705 676.199 376.705C677.86 376.705 678.044 377.913 678.044 378.584V378.751C674.908 378.734 673.164 379.808 673.164 381.77C673.164 382.944 674.003 384.101 675.646 384.101C676.803 384.101 677.675 383.531 678.128 382.893H678.178L678.296 383.916H679.637ZM678.078 381.183C678.078 381.334 678.044 381.502 677.994 381.652C677.759 382.34 677.088 383.011 676.032 383.011C675.277 383.011 674.64 382.558 674.64 381.602C674.64 380.026 676.468 379.741 678.078 379.774V381.183ZM683.351 372.01H681.892V383.916H683.351V380.864L684.105 380.026L686.906 383.916H688.7L685.128 379.137L688.264 375.8H686.487L684.105 378.6C683.87 378.885 683.585 379.238 683.384 379.523H683.351V372.01ZM695.883 383.916C695.783 383.363 695.749 382.675 695.749 381.971V378.936C695.749 377.309 695.145 375.615 692.663 375.615C691.64 375.615 690.668 375.9 689.997 376.336L690.332 377.309C690.903 376.94 691.691 376.705 692.445 376.705C694.106 376.705 694.29 377.913 694.29 378.584V378.751C691.154 378.734 689.41 379.808 689.41 381.77C689.41 382.944 690.249 384.101 691.892 384.101C693.049 384.101 693.921 383.531 694.374 382.893H694.424L694.542 383.916H695.883ZM694.324 381.183C694.324 381.334 694.29 381.502 694.24 381.652C694.005 382.34 693.334 383.011 692.278 383.011C691.523 383.011 690.886 382.558 690.886 381.602C690.886 380.026 692.714 379.741 694.324 379.774V381.183ZM699.613 383.916V375.8H698.137V383.916H699.613ZM698.875 372.597C698.339 372.597 697.953 372.999 697.953 373.519C697.953 374.022 698.322 374.425 698.842 374.425C699.429 374.425 699.798 374.022 699.781 373.519C699.781 372.999 699.429 372.597 698.875 372.597ZM707.904 383.916C707.803 383.363 707.77 382.675 707.77 381.971V378.936C707.77 377.309 707.166 375.615 704.684 375.615C703.661 375.615 702.688 375.9 702.018 376.336L702.353 377.309C702.923 376.94 703.711 376.705 704.466 376.705C706.126 376.705 706.311 377.913 706.311 378.584V378.751C703.175 378.734 701.431 379.808 701.431 381.77C701.431 382.944 702.269 384.101 703.913 384.101C705.07 384.101 705.942 383.531 706.395 382.893H706.445L706.562 383.916H707.904ZM706.344 381.183C706.344 381.334 706.311 381.502 706.26 381.652C706.026 382.34 705.355 383.011 704.298 383.011C703.544 383.011 702.906 382.558 702.906 381.602C702.906 380.026 704.734 379.741 706.344 379.774V381.183ZM710.158 383.916H711.634V379.036C711.634 378.785 711.667 378.533 711.734 378.349C711.986 377.527 712.741 376.839 713.713 376.839C715.105 376.839 715.592 377.93 715.592 379.238V383.916H717.067V379.07C717.067 376.286 715.323 375.615 714.2 375.615C712.858 375.615 711.919 376.37 711.516 377.141H711.483L711.399 375.8H710.091C710.141 376.471 710.158 377.158 710.158 377.997V383.916ZM635.447 403.916H636.922V392.01H635.447V403.916ZM640.886 403.916V395.8H639.41V403.916H640.886ZM640.148 392.597C639.611 392.597 639.225 392.999 639.225 393.519C639.225 394.022 639.594 394.425 640.114 394.425C640.701 394.425 641.07 394.022 641.053 393.519C641.053 392.999 640.701 392.597 640.148 392.597ZM642.77 403.531C643.34 403.866 644.162 404.084 645.051 404.084C646.979 404.084 648.086 403.078 648.086 401.652C648.086 400.445 647.365 399.741 645.956 399.204C644.9 398.802 644.414 398.5 644.414 397.829C644.414 397.225 644.9 396.722 645.772 396.722C646.527 396.722 647.114 396.99 647.432 397.192L647.801 396.118C647.348 395.85 646.627 395.615 645.806 395.615C644.061 395.615 643.005 396.689 643.005 397.997C643.005 398.969 643.692 399.774 645.151 400.294C646.242 400.697 646.661 401.082 646.661 401.787C646.661 402.457 646.158 402.994 645.084 402.994C644.347 402.994 643.575 402.692 643.139 402.407L642.77 403.531ZM650.325 393.854V395.8H649.067V396.923H650.325V401.351C650.325 402.306 650.476 403.028 650.895 403.464C651.247 403.866 651.801 404.084 652.488 404.084C653.058 404.084 653.511 404 653.796 403.883L653.729 402.776C653.545 402.826 653.259 402.877 652.874 402.877C652.052 402.877 651.767 402.306 651.767 401.3V396.923H653.88V395.8H651.767V393.469L650.325 393.854ZM655.541 403.916H657V399.59C657 399.338 657.034 399.103 657.067 398.902C657.268 397.795 658.006 397.007 659.046 397.007C659.247 397.007 659.398 397.024 659.549 397.057V395.666C659.415 395.632 659.298 395.615 659.13 395.615C658.14 395.615 657.252 396.303 656.883 397.393H656.816L656.765 395.8H655.474C655.524 396.554 655.541 397.376 655.541 398.332V403.916ZM662.569 403.916V395.8H661.093V403.916H662.569ZM661.831 392.597C661.294 392.597 660.908 392.999 660.908 393.519C660.908 394.022 661.277 394.425 661.797 394.425C662.384 394.425 662.753 394.022 662.736 393.519C662.736 392.999 662.384 392.597 661.831 392.597ZM666.482 392.01H665.023V403.916H666.482V400.864L667.237 400.026L670.038 403.916H671.832L668.26 399.137L671.396 395.8H669.618L667.237 398.6C667.002 398.885 666.717 399.238 666.516 399.523H666.482V392.01ZM673.751 404.101C674.371 404.101 674.757 403.648 674.757 403.044C674.757 402.424 674.355 401.988 673.768 401.988C673.181 401.988 672.761 402.424 672.761 403.044C672.761 403.648 673.164 404.101 673.751 404.101Z" fill="white"/>
<path d="M869.942 300.059C869.942 302.273 869.171 302.86 867.863 302.86C867.377 302.86 866.941 302.759 866.639 302.642L866.421 303.833C866.79 303.983 867.444 304.101 867.98 304.101C869.926 304.101 871.401 303.179 871.401 300.177V292.613H869.942V300.059ZM880.577 295.8H879.101V300.78C879.101 301.049 879.05 301.317 878.967 301.535C878.698 302.189 878.011 302.877 877.021 302.877C875.68 302.877 875.21 301.837 875.21 300.294V295.8H873.734V300.546C873.734 303.397 875.26 304.101 876.535 304.101C877.977 304.101 878.832 303.246 879.218 302.592H879.252L879.336 303.916H880.644C880.593 303.279 880.577 302.541 880.577 301.703V295.8ZM883.021 303.916H884.464V299.02C884.464 298.768 884.497 298.516 884.581 298.298C884.816 297.561 885.486 296.823 886.409 296.823C887.532 296.823 888.103 297.762 888.103 299.053V303.916H889.545V298.902C889.545 298.634 889.595 298.366 889.662 298.164C889.914 297.443 890.568 296.823 891.406 296.823C892.597 296.823 893.167 297.762 893.167 299.321V303.916H894.609V299.137C894.609 296.32 893.016 295.615 891.943 295.615C891.172 295.615 890.635 295.816 890.149 296.185C889.813 296.437 889.495 296.789 889.243 297.242H889.209C888.857 296.286 888.019 295.615 886.912 295.615C885.57 295.615 884.816 296.336 884.363 297.108H884.313L884.246 295.8H882.954C883.005 296.471 883.021 297.158 883.021 297.997V303.916ZM897.007 303.916H898.483V292.01H897.007V303.916ZM906.806 303.916C906.706 303.363 906.672 302.675 906.672 301.971V298.936C906.672 297.309 906.068 295.615 903.587 295.615C902.564 295.615 901.591 295.9 900.92 296.336L901.255 297.309C901.826 296.94 902.614 296.705 903.369 296.705C905.029 296.705 905.213 297.913 905.213 298.584V298.751C902.077 298.734 900.333 299.808 900.333 301.77C900.333 302.944 901.172 304.101 902.815 304.101C903.972 304.101 904.844 303.531 905.297 302.893H905.347L905.465 303.916H906.806ZM905.247 301.183C905.247 301.334 905.213 301.502 905.163 301.652C904.928 302.34 904.257 303.011 903.201 303.011C902.446 303.011 901.809 302.558 901.809 301.602C901.809 300.026 903.637 299.741 905.247 299.774V301.183ZM909.061 303.916H910.536V299.02C910.536 298.734 910.553 298.516 910.637 298.315C910.905 297.51 911.66 296.839 912.616 296.839C914.008 296.839 914.494 297.946 914.494 299.254V303.916H915.97V299.087C915.97 296.286 914.226 295.615 913.136 295.615C912.582 295.615 912.062 295.783 911.626 296.035C911.174 296.286 910.805 296.655 910.57 297.074H910.536V292.01H909.061V303.916ZM928.708 295.8H927.233V300.78C927.233 301.049 927.182 301.317 927.098 301.535C926.83 302.189 926.142 302.877 925.153 302.877C923.811 302.877 923.342 301.837 923.342 300.294V295.8H921.866V300.546C921.866 303.397 923.392 304.101 924.667 304.101C926.109 304.101 926.964 303.246 927.35 302.592H927.383L927.467 303.916H928.775C928.725 303.279 928.708 302.541 928.708 301.703V295.8ZM931.153 303.916H932.629V299.036C932.629 298.785 932.662 298.533 932.729 298.349C932.981 297.527 933.736 296.839 934.708 296.839C936.1 296.839 936.587 297.93 936.587 299.238V303.916H938.062V299.07C938.062 296.286 936.318 295.615 935.195 295.615C933.853 295.615 932.914 296.37 932.511 297.141H932.478L932.394 295.8H931.086C931.136 296.471 931.153 297.158 931.153 297.997V303.916ZM941.931 303.916V295.8H940.455V303.916H941.931ZM941.193 292.597C940.656 292.597 940.271 292.999 940.271 293.519C940.271 294.022 940.64 294.425 941.159 294.425C941.746 294.425 942.115 294.022 942.099 293.519C942.099 292.999 941.746 292.597 941.193 292.597ZM944.721 293.854V295.8H943.463V296.923H944.721V301.351C944.721 302.306 944.872 303.028 945.291 303.464C945.643 303.866 946.197 304.084 946.884 304.084C947.454 304.084 947.907 304 948.192 303.883L948.125 302.776C947.941 302.826 947.656 302.877 947.27 302.877C946.448 302.877 946.163 302.306 946.163 301.3V296.923H948.276V295.8H946.163V293.469L944.721 293.854ZM953.541 303.916H955V299.02H956.376C957.7 299.07 958.304 299.657 958.64 301.216C958.958 302.625 959.21 303.598 959.394 303.916H960.903C960.669 303.48 960.4 302.39 960.031 300.814C959.763 299.64 959.243 298.835 958.371 298.533V298.483C959.562 298.08 960.501 297.091 960.501 295.598C960.501 294.726 960.182 293.955 959.612 293.452C958.908 292.815 957.902 292.53 956.342 292.53C955.336 292.53 954.279 292.613 953.541 292.764V303.916ZM955 293.787C955.235 293.72 955.738 293.653 956.443 293.653C957.986 293.67 959.042 294.307 959.042 295.766C959.042 297.057 958.053 297.913 956.493 297.913H955V293.787ZM968.418 297.41H964.024V293.838H968.669V292.613H962.565V303.916H968.921V302.692H964.024V298.617H968.418V297.41ZM978.416 302.39C977.829 302.675 976.923 302.86 976.035 302.86C973.284 302.86 971.691 301.082 971.691 298.315C971.691 295.347 973.452 293.653 976.102 293.653C977.041 293.653 977.829 293.854 978.382 294.123L978.735 292.932C978.349 292.731 977.46 292.429 976.051 292.429C972.546 292.429 970.148 294.827 970.148 298.366C970.148 302.072 972.546 304.084 975.733 304.084C977.108 304.084 978.181 303.816 978.718 303.547L978.416 302.39ZM857.964 315.8L860.966 323.279C861.033 323.464 861.066 323.581 861.066 323.665C861.066 323.749 861.016 323.866 860.949 324.017C860.614 324.772 860.111 325.342 859.708 325.66C859.272 326.029 858.786 326.264 858.417 326.382L858.786 327.623C859.155 327.555 859.876 327.304 860.597 326.667C861.603 325.795 862.324 324.369 863.381 321.585L865.594 315.8H864.035L862.425 320.562C862.224 321.149 862.056 321.77 861.905 322.256H861.871C861.737 321.77 861.536 321.133 861.352 320.596L859.574 315.8H857.964ZM872.701 323.916C872.601 323.363 872.567 322.675 872.567 321.971V318.936C872.567 317.309 871.964 315.615 869.482 315.615C868.459 315.615 867.486 315.9 866.815 316.336L867.151 317.309C867.721 316.94 868.509 316.705 869.264 316.705C870.924 316.705 871.108 317.913 871.108 318.584V318.751C867.972 318.734 866.228 319.808 866.228 321.77C866.228 322.944 867.067 324.101 868.71 324.101C869.867 324.101 870.739 323.531 871.192 322.893H871.242L871.36 323.916H872.701ZM871.142 321.183C871.142 321.334 871.108 321.502 871.058 321.652C870.823 322.34 870.152 323.011 869.096 323.011C868.341 323.011 867.704 322.558 867.704 321.602C867.704 320.026 869.532 319.741 871.142 319.774V321.183ZM874.956 323.916H876.431V319.036C876.431 318.785 876.465 318.533 876.532 318.349C876.784 317.527 877.538 316.839 878.511 316.839C879.903 316.839 880.389 317.93 880.389 319.238V323.916H881.865V319.07C881.865 316.286 880.121 315.615 878.997 315.615C877.656 315.615 876.717 316.37 876.314 317.141H876.281L876.197 315.8H874.889C874.939 316.471 874.956 317.158 874.956 317.997V323.916ZM889.96 315.8L889.892 317.024H889.859C889.507 316.353 888.735 315.615 887.327 315.615C885.465 315.615 883.671 317.175 883.671 319.925C883.671 322.172 885.113 323.883 887.125 323.883C888.383 323.883 889.255 323.279 889.708 322.524H889.742V323.43C889.742 325.476 888.635 326.264 887.125 326.264C886.119 326.264 885.281 325.962 884.744 325.627L884.375 326.751C885.029 327.187 886.102 327.421 887.075 327.421C888.098 327.421 889.238 327.187 890.027 326.449C890.815 325.744 891.184 324.604 891.184 322.742V318.03C891.184 317.041 891.217 316.387 891.251 315.8H889.96ZM889.725 320.462C889.725 320.713 889.691 320.998 889.607 321.25C889.289 322.189 888.467 322.759 887.561 322.759C885.968 322.759 885.163 321.434 885.163 319.841C885.163 317.963 886.17 316.772 887.578 316.772C888.651 316.772 889.373 317.477 889.641 318.332C889.708 318.533 889.725 318.751 889.725 319.003V320.462ZM902.713 312.01V316.856H902.68C902.311 316.202 901.472 315.615 900.231 315.615C898.252 315.615 896.575 317.275 896.592 319.975C896.592 322.441 898.101 324.101 900.064 324.101C901.388 324.101 902.378 323.413 902.831 322.508H902.864L902.931 323.916H904.256C904.206 323.363 904.189 322.541 904.189 321.82V312.01H902.713ZM902.713 320.512C902.713 320.747 902.696 320.948 902.646 321.149C902.378 322.256 901.472 322.91 900.483 322.91C898.89 322.91 898.085 321.552 898.085 319.908C898.085 318.114 898.99 316.772 900.516 316.772C901.623 316.772 902.428 317.544 902.646 318.483C902.696 318.667 902.713 318.919 902.713 319.103V320.512ZM908.121 323.916V315.8H906.645V323.916H908.121ZM907.383 312.597C906.846 312.597 906.461 312.999 906.461 313.519C906.461 314.022 906.829 314.425 907.349 314.425C907.936 314.425 908.305 314.022 908.288 313.519C908.288 312.999 907.936 312.597 907.383 312.597ZM911.783 323.916L911.85 322.575H911.9C912.504 323.648 913.443 324.101 914.617 324.101C916.428 324.101 918.256 322.659 918.256 319.757C918.273 317.292 916.847 315.615 914.835 315.615C913.527 315.615 912.588 316.202 912.068 317.108H912.034V312.01H910.575V321.82C910.575 322.541 910.542 323.363 910.508 323.916H911.783ZM912.034 319.204C912.034 318.969 912.085 318.768 912.118 318.6C912.42 317.477 913.359 316.789 914.365 316.789C915.942 316.789 916.78 318.181 916.78 319.808C916.78 321.669 915.858 322.927 914.315 322.927C913.242 322.927 912.387 322.223 912.102 321.2C912.068 321.032 912.034 320.847 912.034 320.663V319.204ZM926.647 320.126C926.663 319.975 926.697 319.741 926.697 319.439C926.697 317.946 925.993 315.615 923.343 315.615C920.978 315.615 919.536 317.544 919.536 319.992C919.536 322.441 921.029 324.084 923.528 324.084C924.819 324.084 925.708 323.816 926.227 323.581L925.976 322.524C925.423 322.759 924.785 322.944 923.729 322.944C922.253 322.944 920.978 322.122 920.945 320.126H926.647ZM920.962 319.07C921.079 318.047 921.733 316.672 923.226 316.672C924.886 316.672 925.288 318.131 925.272 319.07H920.962ZM928.525 323.916H930V312.01H928.525V323.916ZM933.964 323.916V315.8H932.488V323.916H933.964ZM933.226 312.597C932.689 312.597 932.303 312.999 932.303 313.519C932.303 314.022 932.672 314.425 933.192 314.425C933.779 314.425 934.148 314.022 934.131 313.519C934.131 312.999 933.779 312.597 933.226 312.597ZM945.506 312.01V316.856H945.473C945.104 316.202 944.265 315.615 943.024 315.615C941.045 315.615 939.368 317.275 939.385 319.975C939.385 322.441 940.894 324.101 942.856 324.101C944.181 324.101 945.171 323.413 945.623 322.508H945.657L945.724 323.916H947.049C946.999 323.363 946.982 322.541 946.982 321.82V312.01H945.506ZM945.506 320.512C945.506 320.747 945.489 320.948 945.439 321.149C945.171 322.256 944.265 322.91 943.276 322.91C941.683 322.91 940.878 321.552 940.878 319.908C940.878 318.114 941.783 316.772 943.309 316.772C944.416 316.772 945.221 317.544 945.439 318.483C945.489 318.667 945.506 318.919 945.506 319.103V320.512ZM955.274 323.916C955.173 323.363 955.14 322.675 955.14 321.971V318.936C955.14 317.309 954.536 315.615 952.054 315.615C951.031 315.615 950.058 315.9 949.388 316.336L949.723 317.309C950.293 316.94 951.081 316.705 951.836 316.705C953.496 316.705 953.681 317.913 953.681 318.584V318.751C950.545 318.734 948.801 319.808 948.801 321.77C948.801 322.944 949.639 324.101 951.283 324.101C952.44 324.101 953.312 323.531 953.765 322.893H953.815L953.932 323.916H955.274ZM953.714 321.183C953.714 321.334 953.681 321.502 953.63 321.652C953.396 322.34 952.725 323.011 951.668 323.011C950.914 323.011 950.276 322.558 950.276 321.602C950.276 320.026 952.104 319.741 953.714 319.774V321.183ZM957.528 327.237H958.987V322.826H959.021C959.507 323.631 960.446 324.101 961.519 324.101C963.431 324.101 965.209 322.659 965.209 319.741C965.209 317.275 963.733 315.615 961.771 315.615C960.446 315.615 959.49 316.202 958.886 317.192H958.853L958.786 315.8H957.461C957.495 316.571 957.528 317.41 957.528 318.449V327.237ZM958.987 319.221C958.987 319.02 959.037 318.802 959.088 318.617C959.373 317.51 960.312 316.789 961.318 316.789C962.878 316.789 963.733 318.181 963.733 319.808C963.733 321.669 962.827 322.944 961.268 322.944C960.211 322.944 959.322 322.239 959.054 321.216C959.021 321.032 958.987 320.831 958.987 320.613V319.221ZM972.912 323.916C972.811 323.363 972.778 322.675 972.778 321.971V318.936C972.778 317.309 972.174 315.615 969.692 315.615C968.669 315.615 967.696 315.9 967.026 316.336L967.361 317.309C967.931 316.94 968.719 316.705 969.474 316.705C971.134 316.705 971.319 317.913 971.319 318.584V318.751C968.183 318.734 966.439 319.808 966.439 321.77C966.439 322.944 967.277 324.101 968.921 324.101C970.078 324.101 970.95 323.531 971.402 322.893H971.453L971.57 323.916H972.912ZM971.352 321.183C971.352 321.334 971.319 321.502 971.268 321.652C971.034 322.34 970.363 323.011 969.306 323.011C968.552 323.011 967.914 322.558 967.914 321.602C967.914 320.026 969.742 319.741 971.352 319.774V321.183ZM975.436 313.854V315.8H974.178V316.923H975.436V321.351C975.436 322.306 975.587 323.028 976.006 323.464C976.358 323.866 976.912 324.084 977.599 324.084C978.169 324.084 978.622 324 978.907 323.883L978.84 322.776C978.656 322.826 978.371 322.877 977.985 322.877C977.163 322.877 976.878 322.306 976.878 321.3V316.923H978.991V315.8H976.878V313.469L975.436 313.854ZM888.621 332.01V336.856H888.587C888.218 336.202 887.38 335.615 886.139 335.615C884.16 335.615 882.483 337.275 882.5 339.975C882.5 342.441 884.009 344.101 885.971 344.101C887.296 344.101 888.285 343.413 888.738 342.508H888.772L888.839 343.916H890.164C890.113 343.363 890.097 342.541 890.097 341.82V332.01H888.621ZM888.621 340.512C888.621 340.747 888.604 340.948 888.554 341.149C888.285 342.256 887.38 342.91 886.39 342.91C884.797 342.91 883.992 341.552 883.992 339.908C883.992 338.114 884.898 336.772 886.424 336.772C887.531 336.772 888.336 337.544 888.554 338.483C888.604 338.667 888.621 338.919 888.621 339.103V340.512ZM894.028 343.916V335.8H892.553V343.916H894.028ZM893.291 332.597C892.754 332.597 892.368 332.999 892.368 333.519C892.368 334.022 892.737 334.425 893.257 334.425C893.844 334.425 894.213 334.022 894.196 333.519C894.196 332.999 893.844 332.597 893.291 332.597ZM895.913 343.531C896.483 343.866 897.305 344.084 898.194 344.084C900.122 344.084 901.229 343.078 901.229 341.652C901.229 340.445 900.508 339.741 899.099 339.204C898.043 338.802 897.556 338.5 897.556 337.829C897.556 337.225 898.043 336.722 898.915 336.722C899.669 336.722 900.256 336.99 900.575 337.192L900.944 336.118C900.491 335.85 899.77 335.615 898.948 335.615C897.204 335.615 896.148 336.689 896.148 337.997C896.148 338.969 896.835 339.774 898.294 340.294C899.384 340.697 899.804 341.082 899.804 341.787C899.804 342.457 899.3 342.994 898.227 342.994C897.489 342.994 896.718 342.692 896.282 342.407L895.913 343.531ZM909.656 340.126C909.672 339.975 909.706 339.741 909.706 339.439C909.706 337.946 909.002 335.615 906.352 335.615C903.987 335.615 902.545 337.544 902.545 339.992C902.545 342.441 904.038 344.084 906.536 344.084C907.828 344.084 908.717 343.816 909.236 343.581L908.985 342.524C908.431 342.759 907.794 342.944 906.738 342.944C905.262 342.944 903.987 342.122 903.954 340.126H909.656ZM903.971 339.07C904.088 338.047 904.742 336.672 906.235 336.672C907.895 336.672 908.297 338.131 908.281 339.07H903.971ZM910.963 343.531C911.534 343.866 912.355 344.084 913.244 344.084C915.173 344.084 916.279 343.078 916.279 341.652C916.279 340.445 915.558 339.741 914.15 339.204C913.093 338.802 912.607 338.5 912.607 337.829C912.607 337.225 913.093 336.722 913.965 336.722C914.72 336.722 915.307 336.99 915.625 337.192L915.994 336.118C915.542 335.85 914.82 335.615 913.999 335.615C912.255 335.615 911.198 336.689 911.198 337.997C911.198 338.969 911.886 339.774 913.345 340.294C914.435 340.697 914.854 341.082 914.854 341.787C914.854 342.457 914.351 342.994 913.278 342.994C912.54 342.994 911.768 342.692 911.332 342.407L910.963 343.531ZM924.974 335.8H923.499V340.78C923.499 341.049 923.448 341.317 923.364 341.535C923.096 342.189 922.409 342.877 921.419 342.877C920.078 342.877 919.608 341.837 919.608 340.294V335.8H918.132V340.546C918.132 343.397 919.658 344.101 920.933 344.101C922.375 344.101 923.23 343.246 923.616 342.592H923.65L923.733 343.916H925.041C924.991 343.279 924.974 342.541 924.974 341.703V335.8ZM933.255 343.916C933.154 343.363 933.121 342.675 933.121 341.971V338.936C933.121 337.309 932.517 335.615 930.035 335.615C929.012 335.615 928.04 335.9 927.369 336.336L927.704 337.309C928.274 336.94 929.063 336.705 929.817 336.705C931.477 336.705 931.662 337.913 931.662 338.584V338.751C928.526 338.734 926.782 339.808 926.782 341.77C926.782 342.944 927.62 344.101 929.264 344.101C930.421 344.101 931.293 343.531 931.746 342.893H931.796L931.913 343.916H933.255ZM931.695 341.183C931.695 341.334 931.662 341.502 931.612 341.652C931.377 342.34 930.706 343.011 929.65 343.011C928.895 343.011 928.258 342.558 928.258 341.602C928.258 340.026 930.086 339.741 931.695 339.774V341.183ZM936.985 343.916V335.8H935.509V343.916H936.985ZM936.247 332.597C935.711 332.597 935.325 332.999 935.325 333.519C935.325 334.022 935.694 334.425 936.214 334.425C936.801 334.425 937.17 334.022 937.153 333.519C937.153 332.999 936.801 332.597 936.247 332.597ZM940.899 332.01H939.44V343.916H940.899V340.864L941.653 340.026L944.454 343.916H946.248L942.676 339.137L945.812 335.8H944.035L941.653 338.6C941.419 338.885 941.134 339.238 940.932 339.523H940.899V332.01ZM953.431 343.916C953.331 343.363 953.297 342.675 953.297 341.971V338.936C953.297 337.309 952.694 335.615 950.212 335.615C949.189 335.615 948.216 335.9 947.545 336.336L947.881 337.309C948.451 336.94 949.239 336.705 949.994 336.705C951.654 336.705 951.838 337.913 951.838 338.584V338.751C948.702 338.734 946.958 339.808 946.958 341.77C946.958 342.944 947.797 344.101 949.44 344.101C950.597 344.101 951.469 343.531 951.922 342.893H951.972L952.09 343.916H953.431ZM951.872 341.183C951.872 341.334 951.838 341.502 951.788 341.652C951.553 342.34 950.882 343.011 949.826 343.011C949.071 343.011 948.434 342.558 948.434 341.602C948.434 340.026 950.262 339.741 951.872 339.774V341.183ZM955.686 343.916H957.161V339.036C957.161 338.785 957.195 338.533 957.262 338.349C957.514 337.527 958.268 336.839 959.241 336.839C960.633 336.839 961.119 337.93 961.119 339.238V343.916H962.595V339.07C962.595 336.286 960.851 335.615 959.727 335.615C958.386 335.615 957.447 336.37 957.044 337.141H957.01L956.927 335.8H955.619C955.669 336.471 955.686 337.158 955.686 337.997V343.916ZM902.607 352.01V356.856H902.573C902.204 356.202 901.366 355.615 900.125 355.615C898.146 355.615 896.469 357.275 896.486 359.975C896.486 362.441 897.995 364.101 899.957 364.101C901.282 364.101 902.271 363.413 902.724 362.508H902.758L902.825 363.916H904.15C904.099 363.363 904.083 362.541 904.083 361.82V352.01H902.607ZM902.607 360.512C902.607 360.747 902.59 360.948 902.54 361.149C902.271 362.256 901.366 362.91 900.376 362.91C898.783 362.91 897.978 361.552 897.978 359.908C897.978 358.114 898.884 356.772 900.41 356.772C901.517 356.772 902.322 357.544 902.54 358.483C902.59 358.667 902.607 358.919 902.607 359.103V360.512ZM913.062 360.126C913.079 359.975 913.112 359.741 913.112 359.439C913.112 357.946 912.408 355.615 909.758 355.615C907.394 355.615 905.952 357.544 905.952 359.992C905.952 362.441 907.444 364.084 909.943 364.084C911.234 364.084 912.123 363.816 912.643 363.581L912.391 362.524C911.838 362.759 911.201 362.944 910.144 362.944C908.668 362.944 907.394 362.122 907.36 360.126H913.062ZM907.377 359.07C907.494 358.047 908.148 356.672 909.641 356.672C911.301 356.672 911.704 358.131 911.687 359.07H907.377ZM914.94 363.916H916.416V359.036C916.416 358.785 916.449 358.533 916.516 358.349C916.768 357.527 917.522 356.839 918.495 356.839C919.887 356.839 920.373 357.93 920.373 359.238V363.916H921.849V359.07C921.849 356.286 920.105 355.615 918.981 355.615C917.64 355.615 916.701 356.37 916.298 357.141H916.265L916.181 355.8H914.873C914.923 356.471 914.94 357.158 914.94 357.997V363.916ZM929.944 355.8L929.877 357.024H929.843C929.491 356.353 928.72 355.615 927.311 355.615C925.449 355.615 923.655 357.175 923.655 359.925C923.655 362.172 925.097 363.883 927.11 363.883C928.367 363.883 929.239 363.279 929.692 362.524H929.726V363.43C929.726 365.476 928.619 366.264 927.11 366.264C926.103 366.264 925.265 365.962 924.728 365.627L924.359 366.751C925.013 367.187 926.087 367.421 927.059 367.421C928.082 367.421 929.223 367.187 930.011 366.449C930.799 365.744 931.168 364.604 931.168 362.742V358.03C931.168 357.041 931.202 356.387 931.235 355.8H929.944ZM929.709 360.462C929.709 360.713 929.675 360.998 929.592 361.25C929.273 362.189 928.451 362.759 927.546 362.759C925.953 362.759 925.148 361.434 925.148 359.841C925.148 357.963 926.154 356.772 927.562 356.772C928.636 356.772 929.357 357.477 929.625 358.332C929.692 358.533 929.709 358.751 929.709 359.003V360.462ZM939.446 363.916C939.345 363.363 939.311 362.675 939.311 361.971V358.936C939.311 357.309 938.708 355.615 936.226 355.615C935.203 355.615 934.23 355.9 933.559 356.336L933.895 357.309C934.465 356.94 935.253 356.705 936.008 356.705C937.668 356.705 937.852 357.913 937.852 358.584V358.751C934.716 358.734 932.972 359.808 932.972 361.77C932.972 362.944 933.811 364.101 935.454 364.101C936.611 364.101 937.483 363.531 937.936 362.893H937.987L938.104 363.916H939.446ZM937.886 361.183C937.886 361.334 937.852 361.502 937.802 361.652C937.567 362.34 936.896 363.011 935.84 363.011C935.085 363.011 934.448 362.558 934.448 361.602C934.448 360.026 936.276 359.741 937.886 359.774V361.183ZM941.7 363.916H943.176V359.036C943.176 358.785 943.209 358.533 943.276 358.349C943.528 357.527 944.282 356.839 945.255 356.839C946.647 356.839 947.133 357.93 947.133 359.238V363.916H948.609V359.07C948.609 356.286 946.865 355.615 945.741 355.615C944.4 355.615 943.461 356.37 943.058 357.141H943.025L942.941 355.8H941.633C941.683 356.471 941.7 357.158 941.7 357.997V363.916ZM883.039 372.01H881.58V383.916H883.039V380.864L883.794 380.026L886.594 383.916H888.389L884.817 379.137L887.953 375.8H886.175L883.794 378.6C883.559 378.885 883.274 379.238 883.073 379.523H883.039V372.01ZM895.965 380.126C895.981 379.975 896.015 379.741 896.015 379.439C896.015 377.946 895.311 375.615 892.661 375.615C890.296 375.615 888.854 377.544 888.854 379.992C888.854 382.441 890.347 384.084 892.845 384.084C894.137 384.084 895.025 383.816 895.545 383.581L895.294 382.524C894.74 382.759 894.103 382.944 893.047 382.944C891.571 382.944 890.296 382.122 890.263 380.126H895.965ZM890.28 379.07C890.397 378.047 891.051 376.672 892.543 376.672C894.204 376.672 894.606 378.131 894.589 379.07H890.28ZM899.05 383.916L899.117 382.575H899.167C899.771 383.648 900.71 384.101 901.884 384.101C903.695 384.101 905.523 382.659 905.523 379.757C905.54 377.292 904.114 375.615 902.102 375.615C900.794 375.615 899.855 376.202 899.335 377.108H899.301V372.01H897.842V381.82C897.842 382.541 897.809 383.363 897.775 383.916H899.05ZM899.301 379.204C899.301 378.969 899.352 378.768 899.385 378.6C899.687 377.477 900.626 376.789 901.632 376.789C903.209 376.789 904.047 378.181 904.047 379.808C904.047 381.669 903.125 382.927 901.582 382.927C900.509 382.927 899.654 382.223 899.368 381.2C899.335 381.032 899.301 380.847 899.301 380.663V379.204ZM914.182 375.8H912.706V380.78C912.706 381.049 912.656 381.317 912.572 381.535C912.304 382.189 911.616 382.877 910.627 382.877C909.285 382.877 908.816 381.837 908.816 380.294V375.8H907.34V380.546C907.34 383.397 908.866 384.101 910.14 384.101C911.583 384.101 912.438 383.246 912.824 382.592H912.857L912.941 383.916H914.249C914.199 383.279 914.182 382.541 914.182 381.703V375.8ZM916.962 373.854V375.8H915.704V376.923H916.962V381.351C916.962 382.306 917.113 383.028 917.532 383.464C917.884 383.866 918.438 384.084 919.125 384.084C919.696 384.084 920.148 384 920.434 383.883L920.366 382.776C920.182 382.826 919.897 382.877 919.511 382.877C918.689 382.877 918.404 382.306 918.404 381.3V376.923H920.517V375.8H918.404V373.469L916.962 373.854ZM928.97 375.8H927.495V380.78C927.495 381.049 927.444 381.317 927.36 381.535C927.092 382.189 926.405 382.877 925.415 382.877C924.074 382.877 923.604 381.837 923.604 380.294V375.8H922.128V380.546C922.128 383.397 923.654 384.101 924.929 384.101C926.371 384.101 927.226 383.246 927.612 382.592H927.646L927.729 383.916H929.037C928.987 383.279 928.97 382.541 928.97 381.703V375.8ZM931.415 383.916H932.891V379.02C932.891 378.734 932.908 378.516 932.991 378.315C933.26 377.51 934.014 376.839 934.97 376.839C936.362 376.839 936.849 377.946 936.849 379.254V383.916H938.324V379.087C938.324 376.286 936.58 375.615 935.49 375.615C934.937 375.615 934.417 375.783 933.981 376.035C933.528 376.286 933.159 376.655 932.924 377.074H932.891V372.01H931.415V383.916ZM946.553 383.916C946.452 383.363 946.419 382.675 946.419 381.971V378.936C946.419 377.309 945.815 375.615 943.333 375.615C942.31 375.615 941.338 375.9 940.667 376.336L941.002 377.309C941.572 376.94 942.361 376.705 943.115 376.705C944.775 376.705 944.96 377.913 944.96 378.584V378.751C941.824 378.734 940.08 379.808 940.08 381.77C940.08 382.944 940.918 384.101 942.562 384.101C943.719 384.101 944.591 383.531 945.044 382.893H945.094L945.212 383.916H946.553ZM944.993 381.183C944.993 381.334 944.96 381.502 944.91 381.652C944.675 382.34 944.004 383.011 942.948 383.011C942.193 383.011 941.556 382.558 941.556 381.602C941.556 380.026 943.384 379.741 944.993 379.774V381.183ZM948.807 383.916H950.283V379.036C950.283 378.785 950.317 378.533 950.384 378.349C950.635 377.527 951.39 376.839 952.363 376.839C953.754 376.839 954.241 377.93 954.241 379.238V383.916H955.717V379.07C955.717 376.286 953.972 375.615 952.849 375.615C951.507 375.615 950.568 376.37 950.166 377.141H950.132L950.048 375.8H948.74C948.791 376.471 948.807 377.158 948.807 377.997V383.916ZM884.767 403.916H886.226V399.607L887.299 398.366L891.022 403.916H892.749L888.339 397.41L892.43 392.613H890.619L887.165 396.856C886.88 397.225 886.578 397.628 886.276 398.064H886.226V392.613H884.767V403.916ZM897.243 395.615C894.996 395.615 893.219 397.208 893.219 399.925C893.219 402.491 894.912 404.101 897.109 404.101C899.071 404.101 901.151 402.793 901.151 399.791C901.151 397.309 899.574 395.615 897.243 395.615ZM897.21 396.722C898.954 396.722 899.641 398.466 899.641 399.841C899.641 401.669 898.585 402.994 897.176 402.994C895.734 402.994 894.711 401.652 894.711 399.875C894.711 398.332 895.466 396.722 897.21 396.722ZM903.009 403.916H904.485V399.036C904.485 398.785 904.519 398.533 904.586 398.349C904.837 397.527 905.592 396.839 906.565 396.839C907.956 396.839 908.443 397.93 908.443 399.238V403.916H909.919V399.07C909.919 396.286 908.174 395.615 907.051 395.615C905.709 395.615 904.77 396.37 904.368 397.141H904.334L904.25 395.8H902.942C902.993 396.471 903.009 397.158 903.009 397.997V403.916ZM911.741 403.531C912.311 403.866 913.133 404.084 914.022 404.084C915.95 404.084 917.057 403.078 917.057 401.652C917.057 400.445 916.336 399.741 914.928 399.204C913.871 398.802 913.385 398.5 913.385 397.829C913.385 397.225 913.871 396.722 914.743 396.722C915.498 396.722 916.085 396.99 916.403 397.192L916.772 396.118C916.319 395.85 915.598 395.615 914.777 395.615C913.033 395.615 911.976 396.689 911.976 397.997C911.976 398.969 912.664 399.774 914.123 400.294C915.213 400.697 915.632 401.082 915.632 401.787C915.632 402.457 915.129 402.994 914.055 402.994C913.318 402.994 912.546 402.692 912.11 402.407L911.741 403.531ZM925.752 395.8H924.277V400.78C924.277 401.049 924.226 401.317 924.142 401.535C923.874 402.189 923.186 402.877 922.197 402.877C920.855 402.877 920.386 401.837 920.386 400.294V395.8H918.91V400.546C918.91 403.397 920.436 404.101 921.711 404.101C923.153 404.101 924.008 403.246 924.394 402.592H924.427L924.511 403.916H925.819C925.769 403.279 925.752 402.541 925.752 401.703V395.8ZM928.197 403.916H929.639V399.02C929.639 398.768 929.673 398.516 929.757 398.298C929.991 397.561 930.662 396.823 931.585 396.823C932.708 396.823 933.278 397.762 933.278 399.053V403.916H934.721V398.902C934.721 398.634 934.771 398.366 934.838 398.164C935.089 397.443 935.743 396.823 936.582 396.823C937.773 396.823 938.343 397.762 938.343 399.321V403.916H939.785V399.137C939.785 396.32 938.192 395.615 937.119 395.615C936.347 395.615 935.811 395.816 935.324 396.185C934.989 396.437 934.67 396.789 934.419 397.242H934.385C934.033 396.286 933.194 395.615 932.088 395.615C930.746 395.615 929.991 396.336 929.539 397.108H929.488L929.421 395.8H928.13C928.18 396.471 928.197 397.158 928.197 397.997V403.916ZM948.706 400.126C948.723 399.975 948.757 399.741 948.757 399.439C948.757 397.946 948.052 395.615 945.403 395.615C943.038 395.615 941.596 397.544 941.596 399.992C941.596 402.441 943.088 404.084 945.587 404.084C946.878 404.084 947.767 403.816 948.287 403.581L948.036 402.524C947.482 402.759 946.845 402.944 945.788 402.944C944.313 402.944 943.038 402.122 943.005 400.126H948.706ZM943.021 399.07C943.139 398.047 943.793 396.672 945.285 396.672C946.946 396.672 947.348 398.131 947.331 399.07H943.021ZM950.584 403.916H952.06V399.036C952.06 398.785 952.094 398.533 952.161 398.349C952.412 397.527 953.167 396.839 954.139 396.839C955.531 396.839 956.018 397.93 956.018 399.238V403.916H957.493V399.07C957.493 396.286 955.749 395.615 954.626 395.615C953.284 395.615 952.345 396.37 951.943 397.141H951.909L951.825 395.8H950.517C950.567 396.471 950.584 397.158 950.584 397.997V403.916ZM960.524 404.101C961.144 404.101 961.53 403.648 961.53 403.044C961.53 402.424 961.127 401.988 960.54 401.988C959.953 401.988 959.534 402.424 959.534 403.044C959.534 403.648 959.937 404.101 960.524 404.101Z" fill="white"/>
</g>
<defs>
<clipPath id="clip0">
<rect width="1920" height="1080" fill="white"/>
</clipPath>
</defs>
</svg>
