<svg width="375" height="667" viewBox="0 0 375 667" fill="none" xmlns="http://www.w3.org/2000/svg">
<g clip-path="url(#clip0)">
<path fill-rule="evenodd" clip-rule="evenodd" d="M231.51 458.243H334.973C351.531 458.243 365 444.688 365 428.131V343.027C365 326.555 351.531 313 334.973 313H231.51C215.039 313 201.484 326.469 201.484 343.027V390.09C193.7 392.29 186.869 390.839 181.924 388.784V343.627C181.924 327.156 168.455 313.601 151.897 313.601H40.0266C23.5549 313.601 10 327.07 10 343.627V428.731C10 445.203 23.4691 458.758 40.0266 458.758H113.013C108.122 480.219 96 495 96 495C113.594 480.902 121.543 467.591 125.117 458.758H151.897C168.455 458.758 181.924 445.289 181.924 428.731V401.467C185.529 402.513 189.485 403.166 193.679 403.166C196.199 403.166 198.809 402.932 201.484 402.407V428.216C201.484 444.688 214.953 458.243 231.51 458.243Z" fill="#159B2B"/>
<path d="M39.492 348.605H40.9509V344.295L42.0242 343.054L45.7471 348.605H47.4745L43.064 342.098L47.1558 337.302H45.3447L41.8901 341.545C41.605 341.914 41.3031 342.316 41.0012 342.752H40.9509V337.302H39.492V348.605ZM51.9687 340.304C49.7215 340.304 47.9439 341.897 47.9439 344.614C47.9439 347.179 49.6376 348.789 51.8345 348.789C53.7966 348.789 55.8761 347.481 55.8761 344.479C55.8761 341.997 54.2997 340.304 51.9687 340.304ZM51.9351 341.411C53.6792 341.411 54.3668 343.155 54.3668 344.53C54.3668 346.358 53.3103 347.683 51.9016 347.683C50.4594 347.683 49.4364 346.341 49.4364 344.563C49.4364 343.02 50.1911 341.411 51.9351 341.411ZM57.7347 348.605H59.1769V343.708C59.1769 343.456 59.2104 343.205 59.2943 342.987C59.529 342.249 60.1998 341.511 61.1222 341.511C62.2458 341.511 62.8159 342.45 62.8159 343.742V348.605H64.2582V343.591C64.2582 343.322 64.3085 343.054 64.3756 342.853C64.6271 342.132 65.2811 341.511 66.1196 341.511C67.3103 341.511 67.8805 342.45 67.8805 344.01V348.605H69.3227V343.825C69.3227 341.008 67.7295 340.304 66.6563 340.304C65.8849 340.304 65.3482 340.505 64.8619 340.874C64.5265 341.125 64.2079 341.478 63.9563 341.93H63.9228C63.5706 340.975 62.7321 340.304 61.6253 340.304C60.2837 340.304 59.529 341.025 59.0762 341.796H59.0259L58.9589 340.488H57.6676C57.7179 341.159 57.7347 341.847 57.7347 342.685V348.605ZM71.7205 351.925H73.1795V347.515H73.2131C73.6994 348.32 74.6385 348.789 75.7118 348.789C77.6236 348.789 79.4012 347.347 79.4012 344.429C79.4012 341.964 77.9254 340.304 75.9633 340.304C74.6385 340.304 73.6826 340.891 73.0789 341.88H73.0454L72.9783 340.488H71.6535C71.687 341.26 71.7205 342.098 71.7205 343.138V351.925ZM73.1795 343.909C73.1795 343.708 73.2298 343.49 73.2801 343.306C73.5652 342.199 74.5043 341.478 75.5105 341.478C77.0701 341.478 77.9254 342.87 77.9254 344.496C77.9254 346.358 77.0198 347.632 75.4602 347.632C74.4037 347.632 73.5149 346.928 73.2466 345.905C73.2131 345.72 73.1795 345.519 73.1795 345.301V343.909ZM84.7061 340.304C82.4589 340.304 80.6813 341.897 80.6813 344.614C80.6813 347.179 82.3751 348.789 84.572 348.789C86.534 348.789 88.6135 347.481 88.6135 344.479C88.6135 341.997 87.0371 340.304 84.7061 340.304ZM84.6726 341.411C86.4166 341.411 87.1042 343.155 87.1042 344.53C87.1042 346.358 86.0477 347.683 84.639 347.683C83.1968 347.683 82.1738 346.341 82.1738 344.563C82.1738 343.02 82.9285 341.411 84.6726 341.411ZM90.4721 348.605H91.9479V343.725C91.9479 343.473 91.9814 343.222 92.0485 343.037C92.3 342.216 93.0547 341.528 94.0273 341.528C95.4192 341.528 95.9056 342.618 95.9056 343.926V348.605H97.3813V343.758C97.3813 340.975 95.6372 340.304 94.5137 340.304C93.1721 340.304 92.2329 341.058 91.8305 341.83H91.7969L91.7131 340.488H90.405C90.4553 341.159 90.4721 341.847 90.4721 342.685V348.605ZM106.298 344.815C106.314 344.664 106.348 344.429 106.348 344.127C106.348 342.635 105.644 340.304 102.994 340.304C100.629 340.304 99.1872 342.232 99.1872 344.681C99.1872 347.129 100.68 348.773 103.178 348.773C104.47 348.773 105.359 348.504 105.878 348.269L105.627 347.213C105.073 347.448 104.436 347.632 103.38 347.632C101.904 347.632 100.629 346.81 100.596 344.815H106.298ZM100.613 343.758C100.73 342.735 101.384 341.36 102.877 341.36C104.537 341.36 104.939 342.819 104.923 343.758H100.613ZM108.176 348.605H109.651V343.725C109.651 343.473 109.685 343.222 109.752 343.037C110.003 342.216 110.758 341.528 111.731 341.528C113.123 341.528 113.609 342.618 113.609 343.926V348.605H115.085V343.758C115.085 340.975 113.341 340.304 112.217 340.304C110.875 340.304 109.936 341.058 109.534 341.83H109.5L109.417 340.488H108.108C108.159 341.159 108.176 341.847 108.176 342.685V348.605ZM122.239 348.605L122.306 347.263H122.356C122.96 348.337 123.899 348.789 125.073 348.789C126.884 348.789 128.712 347.347 128.712 344.446C128.729 341.981 127.303 340.304 125.291 340.304C123.983 340.304 123.044 340.891 122.524 341.796H122.49V336.698H121.031V346.509C121.031 347.23 120.998 348.051 120.964 348.605H122.239ZM122.49 343.893C122.49 343.658 122.541 343.456 122.574 343.289C122.876 342.165 123.815 341.478 124.821 341.478C126.398 341.478 127.236 342.87 127.236 344.496C127.236 346.358 126.314 347.615 124.771 347.615C123.698 347.615 122.843 346.911 122.557 345.888C122.524 345.72 122.49 345.536 122.49 345.351V343.893ZM132.055 348.605V340.488H130.579V348.605H132.055ZM131.317 337.285C130.78 337.285 130.395 337.688 130.395 338.207C130.395 338.711 130.764 339.113 131.283 339.113C131.87 339.113 132.239 338.711 132.223 338.207C132.223 337.688 131.87 337.285 131.317 337.285ZM140.346 348.605C140.245 348.051 140.211 347.364 140.211 346.66V343.624C140.211 341.997 139.608 340.304 137.126 340.304C136.103 340.304 135.13 340.589 134.459 341.025L134.795 341.997C135.365 341.629 136.153 341.394 136.908 341.394C138.568 341.394 138.752 342.601 138.752 343.272V343.44C135.616 343.423 133.872 344.496 133.872 346.458C133.872 347.632 134.711 348.789 136.354 348.789C137.511 348.789 138.383 348.219 138.836 347.582H138.887L139.004 348.605H140.346ZM138.786 345.871C138.786 346.022 138.752 346.19 138.702 346.341C138.467 347.028 137.797 347.699 136.74 347.699C135.985 347.699 135.348 347.246 135.348 346.291C135.348 344.714 137.176 344.429 138.786 344.463V345.871ZM141.395 340.488L144.397 347.968C144.464 348.152 144.498 348.269 144.498 348.353C144.498 348.437 144.448 348.555 144.381 348.705C144.045 349.46 143.542 350.03 143.14 350.349C142.704 350.718 142.217 350.953 141.848 351.07L142.217 352.311C142.586 352.244 143.307 351.992 144.028 351.355C145.035 350.483 145.756 349.058 146.812 346.274L149.026 340.488H147.466L145.856 345.251C145.655 345.838 145.487 346.458 145.336 346.945H145.303C145.169 346.458 144.967 345.821 144.783 345.284L143.005 340.488H141.395ZM156.133 348.605C156.032 348.051 155.999 347.364 155.999 346.66V343.624C155.999 341.997 155.395 340.304 152.913 340.304C151.89 340.304 150.917 340.589 150.247 341.025L150.582 341.997C151.152 341.629 151.94 341.394 152.695 341.394C154.355 341.394 154.54 342.601 154.54 343.272V343.44C151.404 343.423 149.66 344.496 149.66 346.458C149.66 347.632 150.498 348.789 152.142 348.789C153.299 348.789 154.171 348.219 154.624 347.582H154.674L154.791 348.605H156.133ZM154.573 345.871C154.573 346.022 154.54 346.19 154.489 346.341C154.255 347.028 153.584 347.699 152.527 347.699C151.773 347.699 151.135 347.246 151.135 346.291C151.135 344.714 152.963 344.429 154.573 344.463V345.871ZM52.1747 368.605H53.6504V356.698H52.1747V368.605ZM61.9738 368.605C61.8732 368.051 61.8397 367.364 61.8397 366.66V363.624C61.8397 361.997 61.236 360.304 58.754 360.304C57.731 360.304 56.7584 360.589 56.0876 361.025L56.423 361.997C56.9932 361.629 57.7814 361.394 58.536 361.394C60.1962 361.394 60.3807 362.601 60.3807 363.272V363.44C57.2447 363.423 55.5006 364.496 55.5006 366.458C55.5006 367.632 56.3391 368.789 57.9826 368.789C59.1397 368.789 60.0118 368.219 60.4646 367.582H60.5149L60.6322 368.605H61.9738ZM60.4142 365.871C60.4142 366.022 60.3807 366.19 60.3304 366.341C60.0956 367.028 59.4248 367.699 58.3683 367.699C57.6137 367.699 56.9764 367.246 56.9764 366.291C56.9764 364.714 58.8043 364.429 60.4142 364.463V365.871ZM63.0238 360.488L66.0256 367.968C66.0927 368.152 66.1262 368.269 66.1262 368.353C66.1262 368.437 66.0759 368.555 66.0089 368.705C65.6735 369.46 65.1704 370.03 64.7679 370.349C64.3319 370.718 63.8455 370.953 63.4766 371.07L63.8455 372.311C64.2145 372.244 64.9356 371.992 65.6567 371.355C66.6629 370.483 67.384 369.058 68.4405 366.274L70.6541 360.488H69.0945L67.4846 365.251C67.2834 365.838 67.1157 366.458 66.9647 366.945H66.9312C66.797 366.458 66.5958 365.821 66.4113 365.284L64.6337 360.488H63.0238ZM77.7612 368.605C77.6606 368.051 77.627 367.364 77.627 366.66V363.624C77.627 361.997 77.0233 360.304 74.5414 360.304C73.5184 360.304 72.5457 360.589 71.8749 361.025L72.2103 361.997C72.7805 361.629 73.5687 361.394 74.3233 361.394C75.9836 361.394 76.168 362.601 76.168 363.272V363.44C73.0321 363.423 71.288 364.496 71.288 366.458C71.288 367.632 72.1265 368.789 73.7699 368.789C74.9271 368.789 75.7991 368.219 76.2519 367.582H76.3022L76.4196 368.605H77.7612ZM76.2016 365.871C76.2016 366.022 76.168 366.19 76.1177 366.341C75.883 367.028 75.2122 367.699 74.1556 367.699C73.401 367.699 72.7637 367.246 72.7637 366.291C72.7637 364.714 74.5917 364.429 76.2016 364.463V365.871ZM80.0154 368.605H81.4912V363.725C81.4912 363.473 81.5247 363.222 81.5918 363.037C81.8434 362.216 82.598 361.528 83.5707 361.528C84.9626 361.528 85.4489 362.618 85.4489 363.926V368.605H86.9247V363.758C86.9247 360.975 85.1806 360.304 84.057 360.304C82.7154 360.304 81.7763 361.058 81.3738 361.83H81.3403L81.2564 360.488H79.9484C79.9987 361.159 80.0154 361.847 80.0154 362.685V368.605ZM95.1535 368.605C95.0528 368.051 95.0193 367.364 95.0193 366.66V363.624C95.0193 361.997 94.4156 360.304 91.9336 360.304C90.9107 360.304 89.938 360.589 89.2672 361.025L89.6026 361.997C90.1728 361.629 90.961 361.394 91.7156 361.394C93.3759 361.394 93.5603 362.601 93.5603 363.272V363.44C90.4243 363.423 88.6803 364.496 88.6803 366.458C88.6803 367.632 89.5188 368.789 91.1622 368.789C92.3193 368.789 93.1914 368.219 93.6442 367.582H93.6945L93.8119 368.605H95.1535ZM93.5939 365.871C93.5939 366.022 93.5603 366.19 93.51 366.341C93.2752 367.028 92.6044 367.699 91.5479 367.699C90.7933 367.699 90.156 367.246 90.156 366.291C90.156 364.714 91.9839 364.429 93.5939 364.463V365.871ZM97.4077 368.605H98.8835V363.725C98.8835 363.473 98.917 363.222 98.9841 363.037C99.2356 362.216 99.9903 361.528 100.963 361.528C102.355 361.528 102.841 362.618 102.841 363.926V368.605H104.317V363.758C104.317 360.975 102.573 360.304 101.449 360.304C100.108 360.304 99.1686 361.058 98.7661 361.83H98.7325L98.6487 360.488H97.3406C97.3909 361.159 97.4077 361.847 97.4077 362.685V368.605ZM110.314 368.605H111.773V363.708H113.148C114.473 363.758 115.077 364.345 115.412 365.905C115.731 367.314 115.982 368.286 116.167 368.605H117.676C117.441 368.169 117.173 367.079 116.804 365.502C116.536 364.329 116.016 363.524 115.144 363.222V363.171C116.334 362.769 117.273 361.779 117.273 360.287C117.273 359.415 116.955 358.644 116.385 358.14C115.68 357.503 114.674 357.218 113.114 357.218C112.108 357.218 111.052 357.302 110.314 357.453V368.605ZM111.773 358.476C112.008 358.409 112.511 358.342 113.215 358.342C114.758 358.358 115.814 358.996 115.814 360.455C115.814 361.746 114.825 362.601 113.265 362.601H111.773V358.476ZM125.19 362.098H120.797V358.526H125.442V357.302H119.338V368.605H125.693V367.381H120.797V363.306H125.19V362.098ZM135.188 367.079C134.601 367.364 133.696 367.548 132.807 367.548C130.057 367.548 128.464 365.771 128.464 363.004C128.464 360.035 130.224 358.342 132.874 358.342C133.813 358.342 134.601 358.543 135.155 358.811L135.507 357.621C135.121 357.419 134.232 357.117 132.824 357.117C129.319 357.117 126.921 359.516 126.921 363.054C126.921 366.76 129.319 368.773 132.505 368.773C133.88 368.773 134.954 368.504 135.49 368.236L135.188 367.079ZM30.2687 392.11C31.0569 392.11 32.1301 391.841 32.7842 391.187C33.5053 390.45 33.7568 389.427 33.7568 387.85V380.488H32.2811V387.28C32.2811 389.225 32.1301 389.863 31.7277 390.332C31.3755 390.718 30.7885 390.902 30.1177 390.953L30.2687 392.11ZM33.0357 377.285C32.4823 377.285 32.0966 377.688 32.0966 378.207C32.0966 378.694 32.4488 379.113 33.0022 379.113C33.5891 379.113 33.9413 378.694 33.9245 378.207C33.9245 377.688 33.5724 377.285 33.0357 377.285ZM42.0104 388.605C41.9098 388.051 41.8762 387.364 41.8762 386.66V383.624C41.8762 381.997 41.2725 380.304 38.7906 380.304C37.7676 380.304 36.7949 380.589 36.1241 381.025L36.4595 381.997C37.0297 381.629 37.8179 381.394 38.5726 381.394C40.2328 381.394 40.4172 382.601 40.4172 383.272V383.44C37.2813 383.423 35.5372 384.496 35.5372 386.458C35.5372 387.632 36.3757 388.789 38.0191 388.789C39.1763 388.789 40.0483 388.219 40.5011 387.582H40.5514L40.6688 388.605H42.0104ZM40.4508 385.871C40.4508 386.022 40.4172 386.19 40.3669 386.341C40.1322 387.028 39.4614 387.699 38.4049 387.699C37.6502 387.699 37.0129 387.246 37.0129 386.291C37.0129 384.714 38.8409 384.429 40.4508 384.463V385.871ZM49.7987 376.698V381.545H49.7652C49.3962 380.891 48.5578 380.304 47.3168 380.304C45.3379 380.304 43.6609 381.964 43.6777 384.664C43.6777 387.129 45.187 388.789 47.1491 388.789C48.4739 388.789 49.4633 388.102 49.9161 387.196H49.9497L50.0167 388.605H51.3416C51.2913 388.051 51.2745 387.23 51.2745 386.509V376.698H49.7987ZM49.7987 385.201C49.7987 385.435 49.782 385.637 49.7316 385.838C49.4633 386.945 48.5578 387.599 47.5683 387.599C45.9752 387.599 45.1702 386.24 45.1702 384.597C45.1702 382.802 46.0758 381.461 47.6019 381.461C48.7087 381.461 49.5136 382.232 49.7316 383.171C49.782 383.356 49.7987 383.607 49.7987 383.792V385.201ZM55.2063 388.605V380.488H53.7305V388.605H55.2063ZM54.4684 377.285C53.9317 377.285 53.546 377.688 53.546 378.207C53.546 378.711 53.915 379.113 54.4348 379.113C55.0218 379.113 55.3907 378.711 55.374 378.207C55.374 377.688 55.0218 377.285 54.4684 377.285ZM60.6446 388.219C61.2147 388.555 62.0365 388.773 62.9253 388.773C64.8538 388.773 65.9606 387.766 65.9606 386.341C65.9606 385.133 65.2395 384.429 63.8309 383.893C62.7744 383.49 62.288 383.188 62.288 382.517C62.288 381.914 62.7744 381.411 63.6464 381.411C64.401 381.411 64.988 381.679 65.3066 381.88L65.6756 380.807C65.2228 380.539 64.5017 380.304 63.6799 380.304C61.9359 380.304 60.8793 381.377 60.8793 382.685C60.8793 383.658 61.5669 384.463 63.0259 384.983C64.1159 385.385 64.5352 385.771 64.5352 386.475C64.5352 387.146 64.0321 387.683 62.9588 387.683C62.2209 387.683 61.4495 387.381 61.0135 387.096L60.6446 388.219ZM73.6997 388.605C73.5991 388.051 73.5656 387.364 73.5656 386.66V383.624C73.5656 381.997 72.9618 380.304 70.4799 380.304C69.4569 380.304 68.4843 380.589 67.8135 381.025L68.1489 381.997C68.719 381.629 69.5072 381.394 70.2619 381.394C71.9221 381.394 72.1066 382.601 72.1066 383.272V383.44C68.9706 383.423 67.2265 384.496 67.2265 386.458C67.2265 387.632 68.065 388.789 69.7085 388.789C70.8656 388.789 71.7376 388.219 72.1904 387.582H72.2407L72.3581 388.605H73.6997ZM72.1401 385.871C72.1401 386.022 72.1066 386.19 72.0563 386.341C71.8215 387.028 71.1507 387.699 70.0942 387.699C69.3395 387.699 68.7023 387.246 68.7023 386.291C68.7023 384.714 70.5302 384.429 72.1401 384.463V385.871ZM76.2239 378.543V380.488H74.9661V381.612H76.2239V386.039C76.2239 386.995 76.3748 387.716 76.794 388.152C77.1462 388.555 77.6996 388.773 78.3872 388.773C78.9574 388.773 79.4101 388.689 79.6952 388.571L79.6282 387.465C79.4437 387.515 79.1586 387.565 78.7729 387.565C77.9512 387.565 77.6661 386.995 77.6661 385.989V381.612H79.7791V380.488H77.6661V378.157L76.2239 378.543ZM88.2321 380.488H86.7563V385.469C86.7563 385.737 86.706 386.006 86.6221 386.224C86.3538 386.878 85.6663 387.565 84.6768 387.565C83.3352 387.565 82.8657 386.525 82.8657 384.983V380.488H81.3899V385.234C81.3899 388.085 82.916 388.789 84.1905 388.789C85.6327 388.789 86.488 387.934 86.8737 387.28H86.9072L86.9911 388.605H88.2991C88.2488 387.968 88.2321 387.23 88.2321 386.391V380.488ZM95.6896 376.698H94.2306V388.605H95.6896V385.553L96.4442 384.714L99.2448 388.605H101.039L97.4672 383.825L100.603 380.488H98.8256L96.4442 383.289C96.2095 383.574 95.9244 383.926 95.7231 384.211H95.6896V376.698ZM108.615 384.815C108.632 384.664 108.665 384.429 108.665 384.127C108.665 382.635 107.961 380.304 105.311 380.304C102.947 380.304 101.505 382.232 101.505 384.681C101.505 387.129 102.997 388.773 105.496 388.773C106.787 388.773 107.676 388.504 108.196 388.269L107.944 387.213C107.391 387.448 106.754 387.632 105.697 387.632C104.221 387.632 102.947 386.81 102.913 384.815H108.615ZM102.93 383.758C103.047 382.735 103.701 381.36 105.194 381.36C106.854 381.36 107.257 382.819 107.24 383.758H102.93ZM109.923 388.219C110.493 388.555 111.315 388.773 112.203 388.773C114.132 388.773 115.239 387.766 115.239 386.341C115.239 385.133 114.518 384.429 113.109 383.893C112.052 383.49 111.566 383.188 111.566 382.517C111.566 381.914 112.052 381.411 112.925 381.411C113.679 381.411 114.266 381.679 114.585 381.88L114.954 380.807C114.501 380.539 113.78 380.304 112.958 380.304C111.214 380.304 110.157 381.377 110.157 382.685C110.157 383.658 110.845 384.463 112.304 384.983C113.394 385.385 113.813 385.771 113.813 386.475C113.813 387.146 113.31 387.683 112.237 387.683C111.499 387.683 110.728 387.381 110.292 387.096L109.923 388.219ZM122.978 388.605C122.877 388.051 122.844 387.364 122.844 386.66V383.624C122.844 381.997 122.24 380.304 119.758 380.304C118.735 380.304 117.762 380.589 117.092 381.025L117.427 381.997C117.997 381.629 118.785 381.394 119.54 381.394C121.2 381.394 121.385 382.601 121.385 383.272V383.44C118.249 383.423 116.505 384.496 116.505 386.458C116.505 387.632 117.343 388.789 118.987 388.789C120.144 388.789 121.016 388.219 121.469 387.582H121.519L121.636 388.605H122.978ZM121.418 385.871C121.418 386.022 121.385 386.19 121.334 386.341C121.1 387.028 120.429 387.699 119.372 387.699C118.618 387.699 117.98 387.246 117.98 386.291C117.98 384.714 119.808 384.429 121.418 384.463V385.871ZM125.502 378.543V380.488H124.244V381.612H125.502V386.039C125.502 386.995 125.653 387.716 126.072 388.152C126.424 388.555 126.978 388.773 127.665 388.773C128.235 388.773 128.688 388.689 128.973 388.571L128.906 387.465C128.722 387.515 128.437 387.565 128.051 387.565C127.229 387.565 126.944 386.995 126.944 385.989V381.612H129.057V380.488H126.944V378.157L125.502 378.543ZM137.51 380.488H136.034V385.469C136.034 385.737 135.984 386.006 135.9 386.224C135.632 386.878 134.944 387.565 133.955 387.565C132.613 387.565 132.144 386.525 132.144 384.983V380.488H130.668V385.234C130.668 388.085 132.194 388.789 133.469 388.789C134.911 388.789 135.766 387.934 136.152 387.28H136.185L136.269 388.605H137.577C137.527 387.968 137.51 387.23 137.51 386.391V380.488ZM145.791 388.605C145.69 388.051 145.657 387.364 145.657 386.66V383.624C145.657 381.997 145.053 380.304 142.571 380.304C141.548 380.304 140.575 380.589 139.905 381.025L140.24 381.997C140.81 381.629 141.598 381.394 142.353 381.394C144.013 381.394 144.198 382.601 144.198 383.272V383.44C141.062 383.423 139.318 384.496 139.318 386.458C139.318 387.632 140.156 388.789 141.8 388.789C142.957 388.789 143.829 388.219 144.282 387.582H144.332L144.449 388.605H145.791ZM144.231 385.871C144.231 386.022 144.198 386.19 144.147 386.341C143.913 387.028 143.242 387.699 142.185 387.699C141.431 387.699 140.793 387.246 140.793 386.291C140.793 384.714 142.621 384.429 144.231 384.463V385.871ZM148.045 388.605H149.521V383.725C149.521 383.473 149.554 383.222 149.621 383.037C149.873 382.216 150.628 381.528 151.6 381.528C152.992 381.528 153.479 382.618 153.479 383.926V388.605H154.954V383.758C154.954 380.975 153.21 380.304 152.087 380.304C150.745 380.304 149.806 381.058 149.403 381.83H149.37L149.286 380.488H147.978C148.028 381.159 148.045 381.847 148.045 382.685V388.605ZM48.9389 396.698V401.545H48.9054C48.5365 400.891 47.698 400.304 46.457 400.304C44.4781 400.304 42.8011 401.964 42.8179 404.664C42.8179 407.129 44.3272 408.789 46.2893 408.789C47.6141 408.789 48.6035 408.102 49.0563 407.196H49.0899L49.157 408.605H50.4818C50.4315 408.051 50.4147 407.23 50.4147 406.509V396.698H48.9389ZM48.9389 405.201C48.9389 405.435 48.9222 405.637 48.8719 405.838C48.6035 406.945 47.698 407.599 46.7085 407.599C45.1154 407.599 44.3104 406.24 44.3104 404.597C44.3104 402.802 45.216 401.461 46.7421 401.461C47.8489 401.461 48.6539 402.232 48.8719 403.171C48.9222 403.356 48.9389 403.607 48.9389 403.792V405.201ZM59.3942 404.815C59.411 404.664 59.4445 404.429 59.4445 404.127C59.4445 402.635 58.7402 400.304 56.0905 400.304C53.726 400.304 52.2838 402.232 52.2838 404.681C52.2838 407.129 53.7763 408.773 56.275 408.773C57.5663 408.773 58.4551 408.504 58.975 408.269L58.7234 407.213C58.17 407.448 57.5328 407.632 56.4763 407.632C55.0005 407.632 53.726 406.81 53.6924 404.815H59.3942ZM53.7092 403.758C53.8266 402.735 54.4806 401.36 55.9732 401.36C57.6334 401.36 58.0359 402.819 58.0191 403.758H53.7092ZM61.2721 408.605H62.7478V403.725C62.7478 403.473 62.7814 403.222 62.8484 403.037C63.1 402.216 63.8546 401.528 64.8273 401.528C66.2192 401.528 66.7055 402.618 66.7055 403.926V408.605H68.1813V403.758C68.1813 400.975 66.4372 400.304 65.3136 400.304C63.972 400.304 63.0329 401.058 62.6304 401.83H62.5969L62.513 400.488H61.205C61.2553 401.159 61.2721 401.847 61.2721 402.685V408.605ZM76.2759 400.488L76.2089 401.712H76.1753C75.8231 401.042 75.0517 400.304 73.6431 400.304C71.7816 400.304 69.9872 401.863 69.9872 404.614C69.9872 406.861 71.4294 408.571 73.4418 408.571C74.6996 408.571 75.5716 407.968 76.0244 407.213H76.0579V408.119C76.0579 410.164 74.9511 410.953 73.4418 410.953C72.4356 410.953 71.5971 410.651 71.0605 410.315L70.6915 411.439C71.3456 411.875 72.4188 412.11 73.3915 412.11C74.4145 412.11 75.5548 411.875 76.343 411.137C77.1312 410.433 77.5001 409.292 77.5001 407.431V402.719C77.5001 401.729 77.5337 401.075 77.5672 400.488H76.2759ZM76.0412 405.15C76.0412 405.402 76.0076 405.687 75.9238 405.938C75.6051 406.878 74.7834 407.448 73.8778 407.448C72.2847 407.448 71.4797 406.123 71.4797 404.53C71.4797 402.652 72.4859 401.461 73.8946 401.461C74.9679 401.461 75.689 402.165 75.9573 403.02C76.0244 403.222 76.0412 403.44 76.0412 403.691V405.15ZM85.7777 408.605C85.6771 408.051 85.6435 407.364 85.6435 406.66V403.624C85.6435 401.997 85.0398 400.304 82.5579 400.304C81.5349 400.304 80.5622 400.589 79.8914 401.025L80.2268 401.997C80.797 401.629 81.5852 401.394 82.3398 401.394C84.0001 401.394 84.1845 402.601 84.1845 403.272V403.44C81.0486 403.423 79.3045 404.496 79.3045 406.458C79.3045 407.632 80.143 408.789 81.7864 408.789C82.9436 408.789 83.8156 408.219 84.2684 407.582H84.3187L84.4361 408.605H85.7777ZM84.2181 405.871C84.2181 406.022 84.1845 406.19 84.1342 406.341C83.8995 407.028 83.2287 407.699 82.1721 407.699C81.4175 407.699 80.7802 407.246 80.7802 406.291C80.7802 404.714 82.6082 404.429 84.2181 404.463V405.871ZM88.0319 408.605H89.5077V403.725C89.5077 403.473 89.5412 403.222 89.6083 403.037C89.8599 402.216 90.6145 401.528 91.5872 401.528C92.9791 401.528 93.4654 402.618 93.4654 403.926V408.605H94.9412V403.758C94.9412 400.975 93.1971 400.304 92.0735 400.304C90.7319 400.304 89.7928 401.058 89.3903 401.83H89.3568L89.2729 400.488H87.9649C88.0152 401.159 88.0319 401.847 88.0319 402.685V408.605ZM101.223 398.543V400.488H99.9655V401.612H101.223V406.039C101.223 406.995 101.374 407.716 101.793 408.152C102.146 408.555 102.699 408.773 103.387 408.773C103.957 408.773 104.409 408.689 104.695 408.571L104.628 407.465C104.443 407.515 104.158 407.565 103.772 407.565C102.951 407.565 102.665 406.995 102.665 405.989V401.612H104.778V400.488H102.665V398.157L101.223 398.543ZM112.276 408.605C112.175 408.051 112.141 407.364 112.141 406.66V403.624C112.141 401.997 111.538 400.304 109.056 400.304C108.033 400.304 107.06 400.589 106.389 401.025L106.725 401.997C107.295 401.629 108.083 401.394 108.838 401.394C110.498 401.394 110.682 402.601 110.682 403.272V403.44C107.546 403.423 105.802 404.496 105.802 406.458C105.802 407.632 106.641 408.789 108.284 408.789C109.441 408.789 110.313 408.219 110.766 407.582H110.817L110.934 408.605H112.276ZM110.716 405.871C110.716 406.022 110.682 406.19 110.632 406.341C110.397 407.028 109.726 407.699 108.67 407.699C107.915 407.699 107.278 407.246 107.278 406.291C107.278 404.714 109.106 404.429 110.716 404.463V405.871ZM120.232 400.488L120.164 401.712H120.131C119.779 401.042 119.007 400.304 117.599 400.304C115.737 400.304 113.943 401.863 113.943 404.614C113.943 406.861 115.385 408.571 117.397 408.571C118.655 408.571 119.527 407.968 119.98 407.213H120.014V408.119C120.014 410.164 118.907 410.953 117.397 410.953C116.391 410.953 115.553 410.651 115.016 410.315L114.647 411.439C115.301 411.875 116.374 412.11 117.347 412.11C118.37 412.11 119.51 411.875 120.299 411.137C121.087 410.433 121.456 409.292 121.456 407.431V402.719C121.456 401.729 121.489 401.075 121.523 400.488H120.232ZM119.997 405.15C119.997 405.402 119.963 405.687 119.879 405.938C119.561 406.878 118.739 407.448 117.833 407.448C116.24 407.448 115.435 406.123 115.435 404.53C115.435 402.652 116.442 401.461 117.85 401.461C118.924 401.461 119.645 402.165 119.913 403.02C119.98 403.222 119.997 403.44 119.997 403.691V405.15ZM125.275 408.605V400.488H123.799V408.605H125.275ZM124.537 397.285C124 397.285 123.615 397.688 123.615 398.207C123.615 398.711 123.984 399.113 124.503 399.113C125.09 399.113 125.459 398.711 125.443 398.207C125.443 397.688 125.09 397.285 124.537 397.285ZM127.73 408.605H129.205V403.708C129.205 403.423 129.222 403.205 129.306 403.004C129.574 402.199 130.329 401.528 131.285 401.528C132.677 401.528 133.163 402.635 133.163 403.943V408.605H134.639V403.775C134.639 400.975 132.895 400.304 131.805 400.304C131.251 400.304 130.731 400.471 130.295 400.723C129.843 400.975 129.474 401.343 129.239 401.763H129.205V396.698H127.73V408.605ZM142.868 408.605C142.767 408.051 142.733 407.364 142.733 406.66V403.624C142.733 401.997 142.13 400.304 139.648 400.304C138.625 400.304 137.652 400.589 136.981 401.025L137.317 401.997C137.887 401.629 138.675 401.394 139.43 401.394C141.09 401.394 141.274 402.601 141.274 403.272V403.44C138.138 403.423 136.394 404.496 136.394 406.458C136.394 407.632 137.233 408.789 138.876 408.789C140.033 408.789 140.906 408.219 141.358 407.582H141.409L141.526 408.605H142.868ZM141.308 405.871C141.308 406.022 141.274 406.19 141.224 406.341C140.989 407.028 140.319 407.699 139.262 407.699C138.507 407.699 137.87 407.246 137.87 406.291C137.87 404.714 139.698 404.429 141.308 404.463V405.871ZM145.122 408.605H146.598V403.725C146.598 403.473 146.631 403.222 146.698 403.037C146.95 402.216 147.704 401.528 148.677 401.528C150.069 401.528 150.555 402.618 150.555 403.926V408.605H152.031V403.758C152.031 400.975 150.287 400.304 149.163 400.304C147.822 400.304 146.883 401.058 146.48 401.83H146.447L146.363 400.488H145.055C145.105 401.159 145.122 401.847 145.122 402.685V408.605ZM40.8702 428.605L40.9372 427.263H40.9876C41.5913 428.337 42.5304 428.789 43.7043 428.789C45.5154 428.789 47.3434 427.347 47.3434 424.446C47.3601 421.981 45.9347 420.304 43.9223 420.304C42.6142 420.304 41.6751 420.891 41.1553 421.796H41.1217V416.698H39.6627V426.509C39.6627 427.23 39.6292 428.051 39.5956 428.605H40.8702ZM41.1217 423.893C41.1217 423.658 41.172 423.456 41.2056 423.289C41.5074 422.165 42.4465 421.478 43.4527 421.478C45.0291 421.478 45.8676 422.87 45.8676 424.496C45.8676 426.358 44.9453 427.615 43.4024 427.615C42.3292 427.615 41.4739 426.911 41.1888 425.888C41.1553 425.72 41.1217 425.536 41.1217 425.351V423.893ZM50.6862 428.605V420.488H49.2105V428.605H50.6862ZM49.9483 417.285C49.4117 417.285 49.026 417.688 49.026 418.207C49.026 418.711 49.3949 419.113 49.9148 419.113C50.5018 419.113 50.8707 418.711 50.8539 418.207C50.8539 417.688 50.5018 417.285 49.9483 417.285ZM58.9769 428.605C58.8763 428.051 58.8427 427.364 58.8427 426.66V423.624C58.8427 421.997 58.239 420.304 55.757 420.304C54.7341 420.304 53.7614 420.589 53.0906 421.025L53.426 421.997C53.9962 421.629 54.7844 421.394 55.539 421.394C57.1993 421.394 57.3837 422.601 57.3837 423.272V423.44C54.2477 423.423 52.5037 424.496 52.5037 426.458C52.5037 427.632 53.3422 428.789 54.9856 428.789C56.1427 428.789 57.0148 428.219 57.4676 427.582H57.5179L57.6353 428.605H58.9769ZM57.4173 425.871C57.4173 426.022 57.3837 426.19 57.3334 426.341C57.0986 427.028 56.4278 427.699 55.3713 427.699C54.6167 427.699 53.9794 427.246 53.9794 426.291C53.9794 424.714 55.8073 424.429 57.4173 424.463V425.871ZM60.0268 420.488L63.0287 427.968C63.0957 428.152 63.1293 428.269 63.1293 428.353C63.1293 428.437 63.079 428.555 63.0119 428.705C62.6765 429.46 62.1734 430.03 61.7709 430.349C61.3349 430.718 60.8486 430.953 60.4796 431.07L60.8486 432.311C61.2175 432.244 61.9386 431.992 62.6597 431.355C63.6659 430.483 64.387 429.058 65.4435 426.274L67.6572 420.488H66.0976L64.4876 425.251C64.2864 425.838 64.1187 426.458 63.9678 426.945H63.9342C63.8001 426.458 63.5988 425.821 63.4144 425.284L61.6367 420.488H60.0268ZM74.7642 428.605C74.6636 428.051 74.6301 427.364 74.6301 426.66V423.624C74.6301 421.997 74.0263 420.304 71.5444 420.304C70.5214 420.304 69.5488 420.589 68.878 421.025L69.2134 421.997C69.7835 421.629 70.5717 421.394 71.3264 421.394C72.9866 421.394 73.1711 422.601 73.1711 423.272V423.44C70.0351 423.423 68.291 424.496 68.291 426.458C68.291 427.632 69.1295 428.789 70.773 428.789C71.9301 428.789 72.8021 428.219 73.2549 427.582H73.3052L73.4226 428.605H74.7642ZM73.2046 425.871C73.2046 426.022 73.1711 426.19 73.1208 426.341C72.886 427.028 72.2152 427.699 71.1587 427.699C70.404 427.699 69.7668 427.246 69.7668 426.291C69.7668 424.714 71.5947 424.429 73.2046 424.463V425.871ZM80.5723 431.925H82.0312V427.515H82.0648C82.5511 428.32 83.4902 428.789 84.5635 428.789C86.4753 428.789 88.2529 427.347 88.2529 424.429C88.2529 421.964 86.7771 420.304 84.8151 420.304C83.4902 420.304 82.5343 420.891 81.9306 421.88H81.8971L81.83 420.488H80.5052C80.5387 421.26 80.5723 422.098 80.5723 423.138V431.925ZM82.0312 423.909C82.0312 423.708 82.0815 423.49 82.1319 423.306C82.4169 422.199 83.3561 421.478 84.3623 421.478C85.9219 421.478 86.7771 422.87 86.7771 424.496C86.7771 426.358 85.8716 427.632 84.312 427.632C83.2554 427.632 82.3666 426.928 82.0983 425.905C82.0648 425.72 82.0312 425.519 82.0312 425.301V423.909ZM96.6435 424.815C96.6603 424.664 96.6938 424.429 96.6938 424.127C96.6938 422.635 95.9895 420.304 93.3398 420.304C90.9753 420.304 89.533 422.232 89.533 424.681C89.533 427.129 91.0256 428.773 93.5243 428.773C94.8156 428.773 95.7044 428.504 96.2243 428.269L95.9727 427.213C95.4193 427.448 94.782 427.632 93.7255 427.632C92.2498 427.632 90.9753 426.81 90.9417 424.815H96.6435ZM90.9585 423.758C91.0759 422.735 91.7299 421.36 93.2224 421.36C94.8827 421.36 95.2851 422.819 95.2684 423.758H90.9585ZM98.5213 428.605H99.9636V423.708C99.9636 423.456 99.9971 423.205 100.081 422.987C100.316 422.249 100.987 421.511 101.909 421.511C103.032 421.511 103.603 422.45 103.603 423.742V428.605H105.045V423.591C105.045 423.322 105.095 423.054 105.162 422.853C105.414 422.132 106.068 421.511 106.906 421.511C108.097 421.511 108.667 422.45 108.667 424.01V428.605H110.109V423.825C110.109 421.008 108.516 420.304 107.443 420.304C106.672 420.304 106.135 420.505 105.649 420.874C105.313 421.125 104.995 421.478 104.743 421.93H104.709C104.357 420.975 103.519 420.304 102.412 420.304C101.07 420.304 100.316 421.025 99.8629 421.796H99.8126L99.7456 420.488H98.4543C98.5046 421.159 98.5213 421.847 98.5213 422.685V428.605ZM118.343 428.605C118.243 428.051 118.209 427.364 118.209 426.66V423.624C118.209 421.997 117.605 420.304 115.123 420.304C114.1 420.304 113.128 420.589 112.457 421.025L112.792 421.997C113.362 421.629 114.151 421.394 114.905 421.394C116.566 421.394 116.75 422.601 116.75 423.272V423.44C113.614 423.423 111.87 424.496 111.87 426.458C111.87 427.632 112.708 428.789 114.352 428.789C115.509 428.789 116.381 428.219 116.834 427.582H116.884L117.002 428.605H118.343ZM116.784 425.871C116.784 426.022 116.75 426.19 116.7 426.341C116.465 427.028 115.794 427.699 114.738 427.699C113.983 427.699 113.346 427.246 113.346 426.291C113.346 424.714 115.174 424.429 116.784 424.463V425.871ZM122.056 416.698H120.597V428.605H122.056V425.553L122.811 424.714L125.612 428.605H127.406L123.834 423.825L126.97 420.488H125.192L122.811 423.289C122.576 423.574 122.291 423.926 122.09 424.211H122.056V416.698ZM134.589 428.605C134.488 428.051 134.455 427.364 134.455 426.66V423.624C134.455 421.997 133.851 420.304 131.369 420.304C130.346 420.304 129.374 420.589 128.703 421.025L129.038 421.997C129.608 421.629 130.397 421.394 131.151 421.394C132.811 421.394 132.996 422.601 132.996 423.272V423.44C129.86 423.423 128.116 424.496 128.116 426.458C128.116 427.632 128.954 428.789 130.598 428.789C131.755 428.789 132.627 428.219 133.08 427.582H133.13L133.247 428.605H134.589ZM133.029 425.871C133.029 426.022 132.996 426.19 132.946 426.341C132.711 427.028 132.04 427.699 130.984 427.699C130.229 427.699 129.592 427.246 129.592 426.291C129.592 424.714 131.42 424.429 133.029 424.463V425.871ZM138.319 428.605V420.488H136.843V428.605H138.319ZM137.581 417.285C137.045 417.285 136.659 417.688 136.659 418.207C136.659 418.711 137.028 419.113 137.548 419.113C138.135 419.113 138.504 418.711 138.487 418.207C138.487 417.688 138.135 417.285 137.581 417.285ZM146.61 428.605C146.509 428.051 146.476 427.364 146.476 426.66V423.624C146.476 421.997 145.872 420.304 143.39 420.304C142.367 420.304 141.394 420.589 140.723 421.025L141.059 421.997C141.629 421.629 142.417 421.394 143.172 421.394C144.832 421.394 145.017 422.601 145.017 423.272V423.44C141.881 423.423 140.137 424.496 140.137 426.458C140.137 427.632 140.975 428.789 142.618 428.789C143.776 428.789 144.648 428.219 145.1 427.582H145.151L145.268 428.605H146.61ZM145.05 425.871C145.05 426.022 145.017 426.19 144.966 426.341C144.731 427.028 144.061 427.699 143.004 427.699C142.25 427.699 141.612 427.246 141.612 426.291C141.612 424.714 143.44 424.429 145.05 424.463V425.871ZM148.864 428.605H150.34V423.725C150.34 423.473 150.373 423.222 150.44 423.037C150.692 422.216 151.447 421.528 152.419 421.528C153.811 421.528 154.297 422.618 154.297 423.926V428.605H155.773V423.758C155.773 420.975 154.029 420.304 152.906 420.304C151.564 420.304 150.625 421.058 150.222 421.83H150.189L150.105 420.488H148.797C148.847 421.159 148.864 421.847 148.864 422.685V428.605ZM74.1525 448.605H75.6283V436.698H74.1525V448.605ZM79.5915 448.605V440.488H78.1157V448.605H79.5915ZM78.8536 437.285C78.317 437.285 77.9312 437.688 77.9312 438.207C77.9312 438.711 78.3002 439.113 78.8201 439.113C79.407 439.113 79.7759 438.711 79.7592 438.207C79.7592 437.688 79.407 437.285 78.8536 437.285ZM81.476 448.219C82.0462 448.555 82.8679 448.773 83.7567 448.773C85.6853 448.773 86.7921 447.766 86.7921 446.341C86.7921 445.133 86.071 444.429 84.6623 443.893C83.6058 443.49 83.1195 443.188 83.1195 442.517C83.1195 441.914 83.6058 441.411 84.4778 441.411C85.2325 441.411 85.8194 441.679 86.138 441.88L86.507 440.807C86.0542 440.539 85.3331 440.304 84.5114 440.304C82.7673 440.304 81.7108 441.377 81.7108 442.685C81.7108 443.658 82.3983 444.463 83.8573 444.983C84.9474 445.385 85.3666 445.771 85.3666 446.475C85.3666 447.146 84.8635 447.683 83.7903 447.683C83.0524 447.683 82.281 447.381 81.8449 447.096L81.476 448.219ZM89.0306 438.543V440.488H87.7729V441.612H89.0306V446.039C89.0306 446.995 89.1815 447.716 89.6008 448.152C89.953 448.555 90.5064 448.773 91.1939 448.773C91.7641 448.773 92.2169 448.689 92.502 448.571L92.4349 447.465C92.2504 447.515 91.9653 447.565 91.5796 447.565C90.7579 447.565 90.4728 446.995 90.4728 445.989V441.612H92.5858V440.488H90.4728V438.157L89.0306 438.543ZM94.247 448.605H95.706V444.278C95.706 444.027 95.7395 443.792 95.773 443.591C95.9743 442.484 96.7122 441.696 97.7519 441.696C97.9531 441.696 98.1041 441.712 98.255 441.746V440.354C98.1208 440.32 98.0034 440.304 97.8357 440.304C96.8463 440.304 95.9575 440.991 95.5886 442.081H95.5215L95.4712 440.488H94.1799C94.2302 441.243 94.247 442.065 94.247 443.02V448.605ZM101.275 448.605V440.488H99.7987V448.605H101.275ZM100.537 437.285C100 437.285 99.6143 437.688 99.6143 438.207C99.6143 438.711 99.9832 439.113 100.503 439.113C101.09 439.113 101.459 438.711 101.442 438.207C101.442 437.688 101.09 437.285 100.537 437.285ZM105.188 436.698H103.729V448.605H105.188V445.553L105.943 444.714L108.743 448.605H110.538L106.966 443.825L110.102 440.488H108.324L105.943 443.289C105.708 443.574 105.423 443.926 105.222 444.211H105.188V436.698ZM112.457 448.789C113.077 448.789 113.463 448.337 113.463 447.733C113.463 447.112 113.06 446.676 112.473 446.676C111.886 446.676 111.467 447.112 111.467 447.733C111.467 448.337 111.87 448.789 112.457 448.789Z" fill="white"/>
<path d="M231.636 344.748C231.636 346.961 230.865 347.548 229.557 347.548C229.071 347.548 228.635 347.448 228.333 347.33L228.115 348.521C228.484 348.672 229.138 348.789 229.674 348.789C231.62 348.789 233.095 347.867 233.095 344.865V337.302H231.636V344.748ZM242.271 340.488H240.795V345.469C240.795 345.737 240.745 346.006 240.661 346.224C240.392 346.878 239.705 347.565 238.715 347.565C237.374 347.565 236.904 346.525 236.904 344.983V340.488H235.428V345.234C235.428 348.085 236.954 348.789 238.229 348.789C239.671 348.789 240.526 347.934 240.912 347.28H240.946L241.03 348.605H242.338C242.287 347.968 242.271 347.23 242.271 346.391V340.488ZM244.715 348.605H246.158V343.708C246.158 343.456 246.191 343.205 246.275 342.987C246.51 342.249 247.18 341.511 248.103 341.511C249.226 341.511 249.797 342.45 249.797 343.742V348.605H251.239V343.591C251.239 343.322 251.289 343.054 251.356 342.853C251.608 342.132 252.262 341.511 253.1 341.511C254.291 341.511 254.861 342.45 254.861 344.01V348.605H256.303V343.825C256.303 341.008 254.71 340.304 253.637 340.304C252.866 340.304 252.329 340.505 251.843 340.874C251.507 341.125 251.189 341.478 250.937 341.93H250.903C250.551 340.975 249.713 340.304 248.606 340.304C247.264 340.304 246.51 341.025 246.057 341.796H246.007L245.94 340.488H244.648C244.699 341.159 244.715 341.847 244.715 342.685V348.605ZM258.701 348.605H260.177V336.698H258.701V348.605ZM268.5 348.605C268.4 348.051 268.366 347.364 268.366 346.66V343.624C268.366 341.997 267.762 340.304 265.281 340.304C264.258 340.304 263.285 340.589 262.614 341.025L262.949 341.997C263.52 341.629 264.308 341.394 265.063 341.394C266.723 341.394 266.907 342.601 266.907 343.272V343.44C263.771 343.423 262.027 344.496 262.027 346.458C262.027 347.632 262.866 348.789 264.509 348.789C265.666 348.789 266.538 348.219 266.991 347.582H267.041L267.159 348.605H268.5ZM266.941 345.871C266.941 346.022 266.907 346.19 266.857 346.341C266.622 347.028 265.951 347.699 264.895 347.699C264.14 347.699 263.503 347.246 263.503 346.291C263.503 344.714 265.331 344.429 266.941 344.463V345.871ZM270.755 348.605H272.23V343.708C272.23 343.423 272.247 343.205 272.331 343.004C272.599 342.199 273.354 341.528 274.31 341.528C275.702 341.528 276.188 342.635 276.188 343.943V348.605H277.664V343.775C277.664 340.975 275.92 340.304 274.83 340.304C274.276 340.304 273.756 340.471 273.32 340.723C272.868 340.975 272.499 341.343 272.264 341.763H272.23V336.698H270.755V348.605ZM290.402 340.488H288.927V345.469C288.927 345.737 288.876 346.006 288.792 346.224C288.524 346.878 287.837 347.565 286.847 347.565C285.505 347.565 285.036 346.525 285.036 344.983V340.488H283.56V345.234C283.56 348.085 285.086 348.789 286.361 348.789C287.803 348.789 288.658 347.934 289.044 347.28H289.077L289.161 348.605H290.469C290.419 347.968 290.402 347.23 290.402 346.391V340.488ZM292.847 348.605H294.323V343.725C294.323 343.473 294.356 343.222 294.423 343.037C294.675 342.216 295.43 341.528 296.402 341.528C297.794 341.528 298.281 342.618 298.281 343.926V348.605H299.756V343.758C299.756 340.975 298.012 340.304 296.889 340.304C295.547 340.304 294.608 341.058 294.205 341.83H294.172L294.088 340.488H292.78C292.83 341.159 292.847 341.847 292.847 342.685V348.605ZM303.625 348.605V340.488H302.149V348.605H303.625ZM302.887 337.285C302.35 337.285 301.965 337.688 301.965 338.207C301.965 338.711 302.334 339.113 302.853 339.113C303.44 339.113 303.809 338.711 303.793 338.207C303.793 337.688 303.44 337.285 302.887 337.285ZM306.415 338.543V340.488H305.157V341.612H306.415V346.039C306.415 346.995 306.566 347.716 306.985 348.152C307.337 348.555 307.891 348.773 308.578 348.773C309.148 348.773 309.601 348.689 309.886 348.571L309.819 347.465C309.635 347.515 309.35 347.565 308.964 347.565C308.142 347.565 307.857 346.995 307.857 345.989V341.612H309.97V340.488H307.857V338.157L306.415 338.543ZM315.235 348.605H316.694V343.708H318.07C319.394 343.758 319.998 344.345 320.334 345.905C320.652 347.314 320.904 348.286 321.088 348.605H322.597C322.363 348.169 322.094 347.079 321.725 345.502C321.457 344.329 320.937 343.524 320.065 343.222V343.171C321.256 342.769 322.195 341.779 322.195 340.287C322.195 339.415 321.876 338.644 321.306 338.14C320.602 337.503 319.596 337.218 318.036 337.218C317.03 337.218 315.973 337.302 315.235 337.453V348.605ZM316.694 338.476C316.929 338.409 317.432 338.342 318.137 338.342C319.68 338.358 320.736 338.996 320.736 340.455C320.736 341.746 319.747 342.601 318.187 342.601H316.694V338.476ZM330.112 342.098H325.718V338.526H330.363V337.302H324.259V348.605H330.615V347.381H325.718V343.306H330.112V342.098ZM340.11 347.079C339.523 347.364 338.617 347.548 337.729 347.548C334.978 347.548 333.385 345.771 333.385 343.004C333.385 340.035 335.146 338.342 337.796 338.342C338.735 338.342 339.523 338.543 340.076 338.811L340.429 337.621C340.043 337.419 339.154 337.117 337.745 337.117C334.24 337.117 331.842 339.516 331.842 343.054C331.842 346.76 334.24 348.773 337.427 348.773C338.802 348.773 339.875 348.504 340.412 348.236L340.11 347.079ZM219.658 360.488L222.66 367.968C222.727 368.152 222.76 368.269 222.76 368.353C222.76 368.437 222.71 368.555 222.643 368.705C222.308 369.46 221.805 370.03 221.402 370.349C220.966 370.718 220.48 370.953 220.111 371.07L220.48 372.311C220.849 372.244 221.57 371.992 222.291 371.355C223.297 370.483 224.018 369.058 225.075 366.274L227.288 360.488H225.729L224.119 365.251C223.918 365.838 223.75 366.458 223.599 366.945H223.565C223.431 366.458 223.23 365.821 223.046 365.284L221.268 360.488H219.658ZM234.395 368.605C234.295 368.051 234.261 367.364 234.261 366.66V363.624C234.261 361.997 233.658 360.304 231.176 360.304C230.153 360.304 229.18 360.589 228.509 361.025L228.845 361.997C229.415 361.629 230.203 361.394 230.958 361.394C232.618 361.394 232.802 362.601 232.802 363.272V363.44C229.666 363.423 227.922 364.496 227.922 366.458C227.922 367.632 228.761 368.789 230.404 368.789C231.561 368.789 232.433 368.219 232.886 367.582H232.936L233.054 368.605H234.395ZM232.836 365.871C232.836 366.022 232.802 366.19 232.752 366.341C232.517 367.028 231.846 367.699 230.79 367.699C230.035 367.699 229.398 367.246 229.398 366.291C229.398 364.714 231.226 364.429 232.836 364.463V365.871ZM236.65 368.605H238.125V363.725C238.125 363.473 238.159 363.222 238.226 363.037C238.478 362.216 239.232 361.528 240.205 361.528C241.597 361.528 242.083 362.618 242.083 363.926V368.605H243.559V363.758C243.559 360.975 241.815 360.304 240.691 360.304C239.35 360.304 238.411 361.058 238.008 361.83H237.975L237.891 360.488H236.583C236.633 361.159 236.65 361.847 236.65 362.685V368.605ZM251.654 360.488L251.586 361.712H251.553C251.201 361.042 250.429 360.304 249.021 360.304C247.159 360.304 245.365 361.863 245.365 364.614C245.365 366.861 246.807 368.571 248.819 368.571C250.077 368.571 250.949 367.968 251.402 367.213H251.436V368.119C251.436 370.164 250.329 370.953 248.819 370.953C247.813 370.953 246.975 370.651 246.438 370.315L246.069 371.439C246.723 371.875 247.796 372.11 248.769 372.11C249.792 372.11 250.932 371.875 251.721 371.137C252.509 370.433 252.878 369.292 252.878 367.431V362.719C252.878 361.729 252.911 361.075 252.945 360.488H251.654ZM251.419 365.15C251.419 365.402 251.385 365.687 251.301 365.938C250.983 366.878 250.161 367.448 249.255 367.448C247.662 367.448 246.857 366.123 246.857 364.53C246.857 362.652 247.864 361.461 249.272 361.461C250.346 361.461 251.067 362.165 251.335 363.02C251.402 363.222 251.419 363.44 251.419 363.691V365.15ZM264.407 356.698V361.545H264.374C264.005 360.891 263.166 360.304 261.925 360.304C259.946 360.304 258.269 361.964 258.286 364.664C258.286 367.129 259.796 368.789 261.758 368.789C263.082 368.789 264.072 368.102 264.525 367.196H264.558L264.625 368.605H265.95C265.9 368.051 265.883 367.23 265.883 366.509V356.698H264.407ZM264.407 365.201C264.407 365.435 264.39 365.637 264.34 365.838C264.072 366.945 263.166 367.599 262.177 367.599C260.584 367.599 259.779 366.24 259.779 364.597C259.779 362.802 260.684 361.461 262.21 361.461C263.317 361.461 264.122 362.232 264.34 363.171C264.39 363.356 264.407 363.607 264.407 363.792V365.201ZM269.815 368.605V360.488H268.339V368.605H269.815ZM269.077 357.285C268.54 357.285 268.155 357.688 268.155 358.207C268.155 358.711 268.523 359.113 269.043 359.113C269.63 359.113 269.999 358.711 269.982 358.207C269.982 357.688 269.63 357.285 269.077 357.285ZM273.477 368.605L273.544 367.263H273.594C274.198 368.337 275.137 368.789 276.311 368.789C278.122 368.789 279.95 367.347 279.95 364.446C279.967 361.981 278.541 360.304 276.529 360.304C275.221 360.304 274.282 360.891 273.762 361.796H273.728V356.698H272.269V366.509C272.269 367.23 272.236 368.051 272.202 368.605H273.477ZM273.728 363.893C273.728 363.658 273.779 363.456 273.812 363.289C274.114 362.165 275.053 361.478 276.059 361.478C277.636 361.478 278.474 362.87 278.474 364.496C278.474 366.358 277.552 367.615 276.009 367.615C274.936 367.615 274.081 366.911 273.796 365.888C273.762 365.72 273.728 365.536 273.728 365.351V363.893ZM288.341 364.815C288.357 364.664 288.391 364.429 288.391 364.127C288.391 362.635 287.687 360.304 285.037 360.304C282.672 360.304 281.23 362.232 281.23 364.681C281.23 367.129 282.723 368.773 285.222 368.773C286.513 368.773 287.402 368.504 287.921 368.269L287.67 367.213C287.117 367.448 286.479 367.632 285.423 367.632C283.947 367.632 282.672 366.81 282.639 364.815H288.341ZM282.656 363.758C282.773 362.735 283.427 361.36 284.92 361.36C286.58 361.36 286.982 362.819 286.966 363.758H282.656ZM290.219 368.605H291.694V356.698H290.219V368.605ZM295.658 368.605V360.488H294.182V368.605H295.658ZM294.92 357.285C294.383 357.285 293.997 357.688 293.997 358.207C293.997 358.711 294.366 359.113 294.886 359.113C295.473 359.113 295.842 358.711 295.825 358.207C295.825 357.688 295.473 357.285 294.92 357.285ZM307.2 356.698V361.545H307.167C306.798 360.891 305.959 360.304 304.718 360.304C302.739 360.304 301.062 361.964 301.079 364.664C301.079 367.129 302.588 368.789 304.55 368.789C305.875 368.789 306.865 368.102 307.318 367.196H307.351L307.418 368.605H308.743C308.693 368.051 308.676 367.23 308.676 366.509V356.698H307.2ZM307.2 365.201C307.2 365.435 307.183 365.637 307.133 365.838C306.865 366.945 305.959 367.599 304.97 367.599C303.377 367.599 302.572 366.24 302.572 364.597C302.572 362.802 303.477 361.461 305.003 361.461C306.11 361.461 306.915 362.232 307.133 363.171C307.183 363.356 307.2 363.607 307.2 363.792V365.201ZM316.968 368.605C316.867 368.051 316.834 367.364 316.834 366.66V363.624C316.834 361.997 316.23 360.304 313.748 360.304C312.725 360.304 311.752 360.589 311.082 361.025L311.417 361.997C311.987 361.629 312.775 361.394 313.53 361.394C315.19 361.394 315.375 362.601 315.375 363.272V363.44C312.239 363.423 310.495 364.496 310.495 366.458C310.495 367.632 311.333 368.789 312.977 368.789C314.134 368.789 315.006 368.219 315.459 367.582H315.509L315.626 368.605H316.968ZM315.408 365.871C315.408 366.022 315.375 366.19 315.324 366.341C315.09 367.028 314.419 367.699 313.362 367.699C312.608 367.699 311.97 367.246 311.97 366.291C311.97 364.714 313.798 364.429 315.408 364.463V365.871ZM319.222 371.925H320.681V367.515H320.715C321.201 368.32 322.14 368.789 323.213 368.789C325.125 368.789 326.903 367.347 326.903 364.429C326.903 361.964 325.427 360.304 323.465 360.304C322.14 360.304 321.184 360.891 320.58 361.88H320.547L320.48 360.488H319.155C319.189 361.26 319.222 362.098 319.222 363.138V371.925ZM320.681 363.909C320.681 363.708 320.731 363.49 320.782 363.306C321.067 362.199 322.006 361.478 323.012 361.478C324.572 361.478 325.427 362.87 325.427 364.496C325.427 366.358 324.521 367.632 322.962 367.632C321.905 367.632 321.016 366.928 320.748 365.905C320.715 365.72 320.681 365.519 320.681 365.301V363.909ZM334.606 368.605C334.505 368.051 334.472 367.364 334.472 366.66V363.624C334.472 361.997 333.868 360.304 331.386 360.304C330.363 360.304 329.39 360.589 328.72 361.025L329.055 361.997C329.625 361.629 330.413 361.394 331.168 361.394C332.828 361.394 333.013 362.601 333.013 363.272V363.44C329.877 363.423 328.133 364.496 328.133 366.458C328.133 367.632 328.971 368.789 330.615 368.789C331.772 368.789 332.644 368.219 333.096 367.582H333.147L333.264 368.605H334.606ZM333.046 365.871C333.046 366.022 333.013 366.19 332.962 366.341C332.728 367.028 332.057 367.699 331 367.699C330.246 367.699 329.608 367.246 329.608 366.291C329.608 364.714 331.436 364.429 333.046 364.463V365.871ZM337.13 358.543V360.488H335.872V361.612H337.13V366.039C337.13 366.995 337.281 367.716 337.7 368.152C338.052 368.555 338.606 368.773 339.293 368.773C339.863 368.773 340.316 368.689 340.601 368.571L340.534 367.465C340.35 367.515 340.065 367.565 339.679 367.565C338.857 367.565 338.572 366.995 338.572 365.989V361.612H340.685V360.488H338.572V358.157L337.13 358.543ZM250.315 376.698V381.545H250.281C249.912 380.891 249.074 380.304 247.833 380.304C245.854 380.304 244.177 381.964 244.194 384.664C244.194 387.129 245.703 388.789 247.665 388.789C248.99 388.789 249.98 388.102 250.432 387.196H250.466L250.533 388.605H251.858C251.807 388.051 251.791 387.23 251.791 386.509V376.698H250.315ZM250.315 385.201C250.315 385.435 250.298 385.637 250.248 385.838C249.98 386.945 249.074 387.599 248.085 387.599C246.491 387.599 245.686 386.24 245.686 384.597C245.686 382.802 246.592 381.461 248.118 381.461C249.225 381.461 250.03 382.232 250.248 383.171C250.298 383.356 250.315 383.607 250.315 383.792V385.201ZM255.722 388.605V380.488H254.247V388.605H255.722ZM254.985 377.285C254.448 377.285 254.062 377.688 254.062 378.207C254.062 378.711 254.431 379.113 254.951 379.113C255.538 379.113 255.907 378.711 255.89 378.207C255.89 377.688 255.538 377.285 254.985 377.285ZM257.607 388.219C258.177 388.555 258.999 388.773 259.888 388.773C261.816 388.773 262.923 387.766 262.923 386.341C262.923 385.133 262.202 384.429 260.793 383.893C259.737 383.49 259.25 383.188 259.25 382.517C259.25 381.914 259.737 381.411 260.609 381.411C261.363 381.411 261.95 381.679 262.269 381.88L262.638 380.807C262.185 380.539 261.464 380.304 260.642 380.304C258.898 380.304 257.842 381.377 257.842 382.685C257.842 383.658 258.529 384.463 259.988 384.983C261.078 385.385 261.498 385.771 261.498 386.475C261.498 387.146 260.994 387.683 259.921 387.683C259.183 387.683 258.412 387.381 257.976 387.096L257.607 388.219ZM271.35 384.815C271.366 384.664 271.4 384.429 271.4 384.127C271.4 382.635 270.696 380.304 268.046 380.304C265.681 380.304 264.239 382.232 264.239 384.681C264.239 387.129 265.732 388.773 268.23 388.773C269.522 388.773 270.411 388.504 270.93 388.269L270.679 387.213C270.125 387.448 269.488 387.632 268.432 387.632C266.956 387.632 265.681 386.81 265.648 384.815H271.35ZM265.665 383.758C265.782 382.735 266.436 381.36 267.929 381.36C269.589 381.36 269.991 382.819 269.975 383.758H265.665ZM272.657 388.219C273.228 388.555 274.049 388.773 274.938 388.773C276.867 388.773 277.973 387.766 277.973 386.341C277.973 385.133 277.252 384.429 275.844 383.893C274.787 383.49 274.301 383.188 274.301 382.517C274.301 381.914 274.787 381.411 275.659 381.411C276.414 381.411 277.001 381.679 277.319 381.88L277.688 380.807C277.236 380.539 276.514 380.304 275.693 380.304C273.949 380.304 272.892 381.377 272.892 382.685C272.892 383.658 273.58 384.463 275.039 384.983C276.129 385.385 276.548 385.771 276.548 386.475C276.548 387.146 276.045 387.683 274.972 387.683C274.234 387.683 273.462 387.381 273.026 387.096L272.657 388.219ZM286.668 380.488H285.193V385.469C285.193 385.737 285.142 386.006 285.058 386.224C284.79 386.878 284.103 387.565 283.113 387.565C281.772 387.565 281.302 386.525 281.302 384.983V380.488H279.826V385.234C279.826 388.085 281.352 388.789 282.627 388.789C284.069 388.789 284.924 387.934 285.31 387.28H285.344L285.427 388.605H286.735C286.685 387.968 286.668 387.23 286.668 386.391V380.488ZM294.949 388.605C294.848 388.051 294.815 387.364 294.815 386.66V383.624C294.815 381.997 294.211 380.304 291.729 380.304C290.706 380.304 289.734 380.589 289.063 381.025L289.398 381.997C289.968 381.629 290.757 381.394 291.511 381.394C293.171 381.394 293.356 382.601 293.356 383.272V383.44C290.22 383.423 288.476 384.496 288.476 386.458C288.476 387.632 289.314 388.789 290.958 388.789C292.115 388.789 292.987 388.219 293.44 387.582H293.49L293.607 388.605H294.949ZM293.389 385.871C293.389 386.022 293.356 386.19 293.306 386.341C293.071 387.028 292.4 387.699 291.344 387.699C290.589 387.699 289.952 387.246 289.952 386.291C289.952 384.714 291.78 384.429 293.389 384.463V385.871ZM298.679 388.605V380.488H297.203V388.605H298.679ZM297.941 377.285C297.405 377.285 297.019 377.688 297.019 378.207C297.019 378.711 297.388 379.113 297.908 379.113C298.495 379.113 298.864 378.711 298.847 378.207C298.847 377.688 298.495 377.285 297.941 377.285ZM302.593 376.698H301.134V388.605H302.593V385.553L303.347 384.714L306.148 388.605H307.942L304.37 383.825L307.506 380.488H305.729L303.347 383.289C303.113 383.574 302.828 383.926 302.626 384.211H302.593V376.698ZM315.125 388.605C315.025 388.051 314.991 387.364 314.991 386.66V383.624C314.991 381.997 314.388 380.304 311.906 380.304C310.883 380.304 309.91 380.589 309.239 381.025L309.575 381.997C310.145 381.629 310.933 381.394 311.688 381.394C313.348 381.394 313.532 382.601 313.532 383.272V383.44C310.396 383.423 308.652 384.496 308.652 386.458C308.652 387.632 309.491 388.789 311.134 388.789C312.291 388.789 313.163 388.219 313.616 387.582H313.666L313.784 388.605H315.125ZM313.566 385.871C313.566 386.022 313.532 386.19 313.482 386.341C313.247 387.028 312.576 387.699 311.52 387.699C310.765 387.699 310.128 387.246 310.128 386.291C310.128 384.714 311.956 384.429 313.566 384.463V385.871ZM317.38 388.605H318.855V383.725C318.855 383.473 318.889 383.222 318.956 383.037C319.208 382.216 319.962 381.528 320.935 381.528C322.327 381.528 322.813 382.618 322.813 383.926V388.605H324.289V383.758C324.289 380.975 322.545 380.304 321.421 380.304C320.08 380.304 319.141 381.058 318.738 381.83H318.704L318.621 380.488H317.313C317.363 381.159 317.38 381.847 317.38 382.685V388.605ZM264.301 396.698V401.545H264.267C263.898 400.891 263.06 400.304 261.819 400.304C259.84 400.304 258.163 401.964 258.18 404.664C258.18 407.129 259.689 408.789 261.651 408.789C262.976 408.789 263.965 408.102 264.418 407.196H264.452L264.519 408.605H265.844C265.793 408.051 265.777 407.23 265.777 406.509V396.698H264.301ZM264.301 405.201C264.301 405.435 264.284 405.637 264.234 405.838C263.965 406.945 263.06 407.599 262.07 407.599C260.477 407.599 259.672 406.24 259.672 404.597C259.672 402.802 260.578 401.461 262.104 401.461C263.211 401.461 264.016 402.232 264.234 403.171C264.284 403.356 264.301 403.607 264.301 403.792V405.201ZM274.756 404.815C274.773 404.664 274.806 404.429 274.806 404.127C274.806 402.635 274.102 400.304 271.452 400.304C269.088 400.304 267.646 402.232 267.646 404.681C267.646 407.129 269.138 408.773 271.637 408.773C272.928 408.773 273.817 408.504 274.337 408.269L274.085 407.213C273.532 407.448 272.895 407.632 271.838 407.632C270.362 407.632 269.088 406.81 269.054 404.815H274.756ZM269.071 403.758C269.188 402.735 269.842 401.36 271.335 401.36C272.995 401.36 273.398 402.819 273.381 403.758H269.071ZM276.634 408.605H278.11V403.725C278.11 403.473 278.143 403.222 278.21 403.037C278.462 402.216 279.216 401.528 280.189 401.528C281.581 401.528 282.067 402.618 282.067 403.926V408.605H283.543V403.758C283.543 400.975 281.799 400.304 280.675 400.304C279.334 400.304 278.395 401.058 277.992 401.83H277.959L277.875 400.488H276.567C276.617 401.159 276.634 401.847 276.634 402.685V408.605ZM291.638 400.488L291.571 401.712H291.537C291.185 401.042 290.414 400.304 289.005 400.304C287.143 400.304 285.349 401.863 285.349 404.614C285.349 406.861 286.791 408.571 288.804 408.571C290.061 408.571 290.933 407.968 291.386 407.213H291.42V408.119C291.42 410.164 290.313 410.953 288.804 410.953C287.797 410.953 286.959 410.651 286.422 410.315L286.053 411.439C286.707 411.875 287.781 412.11 288.753 412.11C289.776 412.11 290.917 411.875 291.705 411.137C292.493 410.433 292.862 409.292 292.862 407.431V402.719C292.862 401.729 292.896 401.075 292.929 400.488H291.638ZM291.403 405.15C291.403 405.402 291.369 405.687 291.286 405.938C290.967 406.878 290.145 407.448 289.24 407.448C287.647 407.448 286.842 406.123 286.842 404.53C286.842 402.652 287.848 401.461 289.256 401.461C290.33 401.461 291.051 402.165 291.319 403.02C291.386 403.222 291.403 403.44 291.403 403.691V405.15ZM301.14 408.605C301.039 408.051 301.005 407.364 301.005 406.66V403.624C301.005 401.997 300.402 400.304 297.92 400.304C296.897 400.304 295.924 400.589 295.253 401.025L295.589 401.997C296.159 401.629 296.947 401.394 297.702 401.394C299.362 401.394 299.546 402.601 299.546 403.272V403.44C296.41 403.423 294.666 404.496 294.666 406.458C294.666 407.632 295.505 408.789 297.148 408.789C298.305 408.789 299.177 408.219 299.63 407.582H299.681L299.798 408.605H301.14ZM299.58 405.871C299.58 406.022 299.546 406.19 299.496 406.341C299.261 407.028 298.59 407.699 297.534 407.699C296.779 407.699 296.142 407.246 296.142 406.291C296.142 404.714 297.97 404.429 299.58 404.463V405.871ZM303.394 408.605H304.87V403.725C304.87 403.473 304.903 403.222 304.97 403.037C305.222 402.216 305.976 401.528 306.949 401.528C308.341 401.528 308.827 402.618 308.827 403.926V408.605H310.303V403.758C310.303 400.975 308.559 400.304 307.435 400.304C306.094 400.304 305.155 401.058 304.752 401.83H304.719L304.635 400.488H303.327C303.377 401.159 303.394 401.847 303.394 402.685V408.605ZM244.733 416.698H243.274V428.605H244.733V425.553L245.488 424.714L248.288 428.605H250.083L246.511 423.825L249.647 420.488H247.869L245.488 423.289C245.253 423.574 244.968 423.926 244.767 424.211H244.733V416.698ZM257.659 424.815C257.675 424.664 257.709 424.429 257.709 424.127C257.709 422.635 257.005 420.304 254.355 420.304C251.99 420.304 250.548 422.232 250.548 424.681C250.548 427.129 252.041 428.773 254.539 428.773C255.831 428.773 256.719 428.504 257.239 428.269L256.988 427.213C256.434 427.448 255.797 427.632 254.741 427.632C253.265 427.632 251.99 426.81 251.957 424.815H257.659ZM251.974 423.758C252.091 422.735 252.745 421.36 254.238 421.36C255.898 421.36 256.3 422.819 256.283 423.758H251.974ZM260.744 428.605L260.811 427.263H260.861C261.465 428.337 262.404 428.789 263.578 428.789C265.389 428.789 267.217 427.347 267.217 424.446C267.234 421.981 265.808 420.304 263.796 420.304C262.488 420.304 261.549 420.891 261.029 421.796H260.995V416.698H259.536V426.509C259.536 427.23 259.503 428.051 259.469 428.605H260.744ZM260.995 423.893C260.995 423.658 261.046 423.456 261.079 423.289C261.381 422.165 262.32 421.478 263.326 421.478C264.903 421.478 265.741 422.87 265.741 424.496C265.741 426.358 264.819 427.615 263.276 427.615C262.203 427.615 261.348 426.911 261.062 425.888C261.029 425.72 260.995 425.536 260.995 425.351V423.893ZM275.876 420.488H274.4V425.469C274.4 425.737 274.35 426.006 274.266 426.224C273.998 426.878 273.31 427.565 272.321 427.565C270.979 427.565 270.51 426.525 270.51 424.983V420.488H269.034V425.234C269.034 428.085 270.56 428.789 271.834 428.789C273.277 428.789 274.132 427.934 274.518 427.28H274.551L274.635 428.605H275.943C275.893 427.968 275.876 427.23 275.876 426.391V420.488ZM278.656 418.543V420.488H277.398V421.612H278.656V426.039C278.656 426.995 278.807 427.716 279.226 428.152C279.578 428.555 280.132 428.773 280.819 428.773C281.39 428.773 281.842 428.689 282.128 428.571L282.06 427.465C281.876 427.515 281.591 427.565 281.205 427.565C280.383 427.565 280.098 426.995 280.098 425.989V421.612H282.211V420.488H280.098V418.157L278.656 418.543ZM290.664 420.488H289.189V425.469C289.189 425.737 289.138 426.006 289.054 426.224C288.786 426.878 288.099 427.565 287.109 427.565C285.768 427.565 285.298 426.525 285.298 424.983V420.488H283.822V425.234C283.822 428.085 285.348 428.789 286.623 428.789C288.065 428.789 288.92 427.934 289.306 427.28H289.34L289.423 428.605H290.731C290.681 427.968 290.664 427.23 290.664 426.391V420.488ZM293.109 428.605H294.585V423.708C294.585 423.423 294.602 423.205 294.685 423.004C294.954 422.199 295.708 421.528 296.664 421.528C298.056 421.528 298.543 422.635 298.543 423.943V428.605H300.018V423.775C300.018 420.975 298.274 420.304 297.184 420.304C296.631 420.304 296.111 420.471 295.675 420.723C295.222 420.975 294.853 421.343 294.618 421.763H294.585V416.698H293.109V428.605ZM308.247 428.605C308.146 428.051 308.113 427.364 308.113 426.66V423.624C308.113 421.997 307.509 420.304 305.027 420.304C304.004 420.304 303.032 420.589 302.361 421.025L302.696 421.997C303.266 421.629 304.055 421.394 304.809 421.394C306.469 421.394 306.654 422.601 306.654 423.272V423.44C303.518 423.423 301.774 424.496 301.774 426.458C301.774 427.632 302.612 428.789 304.256 428.789C305.413 428.789 306.285 428.219 306.738 427.582H306.788L306.906 428.605H308.247ZM306.687 425.871C306.687 426.022 306.654 426.19 306.604 426.341C306.369 427.028 305.698 427.699 304.642 427.699C303.887 427.699 303.25 427.246 303.25 426.291C303.25 424.714 305.078 424.429 306.687 424.463V425.871ZM310.501 428.605H311.977V423.725C311.977 423.473 312.011 423.222 312.078 423.037C312.329 422.216 313.084 421.528 314.057 421.528C315.448 421.528 315.935 422.618 315.935 423.926V428.605H317.411V423.758C317.411 420.975 315.666 420.304 314.543 420.304C313.201 420.304 312.262 421.058 311.86 421.83H311.826L311.742 420.488H310.434C310.485 421.159 310.501 421.847 310.501 422.685V428.605ZM246.461 448.605H247.92V444.295L248.993 443.054L252.716 448.605H254.443L250.033 442.098L254.125 437.302H252.313L248.859 441.545C248.574 441.914 248.272 442.316 247.97 442.752H247.92V437.302H246.461V448.605ZM258.937 440.304C256.69 440.304 254.913 441.897 254.913 444.614C254.913 447.179 256.606 448.789 258.803 448.789C260.765 448.789 262.845 447.481 262.845 444.479C262.845 441.997 261.268 440.304 258.937 440.304ZM258.904 441.411C260.648 441.411 261.335 443.155 261.335 444.53C261.335 446.358 260.279 447.683 258.87 447.683C257.428 447.683 256.405 446.341 256.405 444.563C256.405 443.02 257.16 441.411 258.904 441.411ZM264.703 448.605H266.179V443.725C266.179 443.473 266.213 443.222 266.28 443.037C266.531 442.216 267.286 441.528 268.259 441.528C269.65 441.528 270.137 442.618 270.137 443.926V448.605H271.613V443.758C271.613 440.975 269.868 440.304 268.745 440.304C267.403 440.304 266.464 441.058 266.062 441.83H266.028L265.944 440.488H264.636C264.687 441.159 264.703 441.847 264.703 442.685V448.605ZM273.435 448.219C274.005 448.555 274.827 448.773 275.716 448.773C277.644 448.773 278.751 447.766 278.751 446.341C278.751 445.133 278.03 444.429 276.622 443.893C275.565 443.49 275.079 443.188 275.079 442.517C275.079 441.914 275.565 441.411 276.437 441.411C277.192 441.411 277.779 441.679 278.097 441.88L278.466 440.807C278.013 440.539 277.292 440.304 276.471 440.304C274.727 440.304 273.67 441.377 273.67 442.685C273.67 443.658 274.358 444.463 275.817 444.983C276.907 445.385 277.326 445.771 277.326 446.475C277.326 447.146 276.823 447.683 275.749 447.683C275.012 447.683 274.24 447.381 273.804 447.096L273.435 448.219ZM287.446 440.488H285.971V445.469C285.971 445.737 285.92 446.006 285.836 446.224C285.568 446.878 284.88 447.565 283.891 447.565C282.549 447.565 282.08 446.525 282.08 444.983V440.488H280.604V445.234C280.604 448.085 282.13 448.789 283.405 448.789C284.847 448.789 285.702 447.934 286.088 447.28H286.121L286.205 448.605H287.513C287.463 447.968 287.446 447.23 287.446 446.391V440.488ZM289.891 448.605H291.333V443.708C291.333 443.456 291.367 443.205 291.451 442.987C291.685 442.249 292.356 441.511 293.279 441.511C294.402 441.511 294.972 442.45 294.972 443.742V448.605H296.415V443.591C296.415 443.322 296.465 443.054 296.532 442.853C296.783 442.132 297.437 441.511 298.276 441.511C299.467 441.511 300.037 442.45 300.037 444.01V448.605H301.479V443.825C301.479 441.008 299.886 440.304 298.813 440.304C298.041 440.304 297.505 440.505 297.018 440.874C296.683 441.125 296.364 441.478 296.113 441.93H296.079C295.727 440.975 294.888 440.304 293.782 440.304C292.44 440.304 291.685 441.025 291.233 441.796H291.182L291.115 440.488H289.824C289.874 441.159 289.891 441.847 289.891 442.685V448.605ZM310.4 444.815C310.417 444.664 310.451 444.429 310.451 444.127C310.451 442.635 309.746 440.304 307.097 440.304C304.732 440.304 303.29 442.232 303.29 444.681C303.29 447.129 304.782 448.773 307.281 448.773C308.572 448.773 309.461 448.504 309.981 448.269L309.73 447.213C309.176 447.448 308.539 447.632 307.482 447.632C306.007 447.632 304.732 446.81 304.699 444.815H310.4ZM304.715 443.758C304.833 442.735 305.487 441.36 306.979 441.36C308.64 441.36 309.042 442.819 309.025 443.758H304.715ZM312.278 448.605H313.754V443.725C313.754 443.473 313.788 443.222 313.855 443.037C314.106 442.216 314.861 441.528 315.833 441.528C317.225 441.528 317.712 442.618 317.712 443.926V448.605H319.187V443.758C319.187 440.975 317.443 440.304 316.32 440.304C314.978 440.304 314.039 441.058 313.637 441.83H313.603L313.519 440.488H312.211C312.261 441.159 312.278 441.847 312.278 442.685V448.605ZM322.218 448.789C322.838 448.789 323.224 448.337 323.224 447.733C323.224 447.112 322.821 446.676 322.234 446.676C321.647 446.676 321.228 447.112 321.228 447.733C321.228 448.337 321.631 448.789 322.218 448.789Z" fill="white"/>
</g>
<defs>
<clipPath id="clip0">
<rect width="375" height="667" fill="white"/>
</clipPath>
</defs>
</svg>
