<svg width="375" height="667" viewBox="0 0 375 667" fill="none" xmlns="http://www.w3.org/2000/svg">
<g clip-path="url(#clip0)">
<path d="M160.197 518.226L146.918 534.224V526.132C147.782 525.885 148.399 525.144 148.399 524.279C148.399 523.229 147.473 522.364 146.3 522.364H138.892C137.719 522.364 136.793 523.229 136.793 524.279C136.793 525.144 137.411 525.885 138.275 526.132V544.602L124.995 560.602H130.922V598.901H189.535V560.602H195.461L160.197 518.226ZM161.062 542.688H168.161V549.792H161.062V542.688ZM161.062 551.459H168.161V558.563H161.062V551.459ZM152.289 542.688H159.395V549.792H152.289V542.688ZM152.289 551.459H159.395V558.563H152.289V551.459ZM168.47 595.443H151.98V578.948C151.98 574.378 155.691 570.671 160.259 570.671C164.828 570.671 168.47 574.378 168.47 578.948V595.443Z" fill="white"/>
<path d="M213.372 541.576L203.919 552.942V547.197C204.537 547.012 204.969 546.517 204.969 545.9C204.969 545.159 204.29 544.541 203.487 544.541H198.24C197.437 544.541 196.758 545.159 196.758 545.9C196.758 546.517 197.19 547.012 197.808 547.197V560.293L188.355 571.659H192.56V598.84H234.183V571.659H238.381L213.372 541.576ZM213.927 558.934H218.989V563.999H213.927V558.934ZM213.927 565.173H218.989V570.239H213.927V565.173ZM207.754 558.934H212.816V563.999H207.754V558.934ZM207.754 565.173H212.816V570.239H207.754V565.173ZM219.236 596.431H207.507V584.694C207.507 581.482 210.1 578.825 213.372 578.825C216.582 578.825 219.236 581.482 219.236 584.694V596.431Z" fill="white"/>
<path d="M182.799 495.431C182.799 496.852 181.626 498.025 180.206 498.025C178.786 498.025 177.614 496.852 177.614 495.431C177.614 494.01 178.786 492.836 180.206 492.836C181.626 492.774 182.799 493.948 182.799 495.431Z" fill="white"/>
<path d="M185.022 495.06L182.984 495.863C182.861 496.542 182.49 497.099 181.997 497.531L182.305 499.693L205.154 510.442L205.709 509.453L185.022 495.06Z" fill="white"/>
<path d="M177.366 495.925L175.329 495.122L154.58 509.515L155.135 510.503L177.984 499.755L178.292 497.593C177.86 497.16 177.49 496.542 177.366 495.925Z" fill="white"/>
<path d="M180.206 492.527C180.577 492.527 180.885 492.589 181.194 492.713L182.923 491.354L180.824 466.212H179.713L177.614 491.354L179.342 492.713C179.527 492.589 179.836 492.527 180.206 492.527Z" fill="white"/>
<path d="M178.478 559.49L178.91 499.755C178.91 499.755 179.712 498.21 180.206 498.21C180.638 498.21 181.441 499.755 181.441 499.755V559.49L180.762 560.046H179.157L178.478 559.49Z" fill="white"/>
<path d="M188.047 563.011H172.366L174.28 559.49H186.071L188.047 563.011Z" fill="white"/>
<path d="M182.182 559.676C182.182 560.231 181.194 560.725 180.021 560.725C178.786 560.725 177.86 560.293 177.86 559.676C177.86 559.119 178.848 558.625 180.021 558.625C181.194 558.625 182.182 559.119 182.182 559.676Z" fill="white"/>
<path d="M153.962 491.539C153.962 492.527 153.153 493.331 152.165 493.331C151.178 493.331 150.375 492.527 150.375 491.539C150.375 490.551 151.178 489.748 152.165 489.748C153.153 489.748 153.962 490.551 153.962 491.539Z" fill="white"/>
<path d="M155.506 491.354L154.086 491.91C154.024 492.404 153.777 492.774 153.4 493.083L153.592 494.566L169.458 502.04L169.828 501.361L155.506 491.354Z" fill="white"/>
<path d="M150.19 491.91L148.77 491.354L134.379 501.361L134.749 502.04L150.622 494.566L150.807 493.083C150.498 492.774 150.251 492.342 150.19 491.91Z" fill="white"/>
<path d="M152.103 489.562C152.35 489.562 152.597 489.624 152.783 489.686L153.962 488.759L152.474 471.277H151.671L150.19 488.759L151.363 489.686C151.671 489.624 151.918 489.562 152.103 489.562Z" fill="white"/>
<path d="M150.93 536.077L151.239 494.566C151.239 494.566 151.795 493.516 152.103 493.516C152.412 493.516 152.968 494.566 152.968 494.566V536.077L152.474 536.449H151.363L150.93 536.077Z" fill="white"/>
<path d="M157.605 538.549H146.671L148.029 536.14H156.247L157.605 538.549Z" fill="white"/>
<path d="M153.53 536.263C153.53 536.696 152.844 537.004 151.98 537.004C151.116 537.004 150.437 536.696 150.437 536.263C150.437 535.892 151.116 535.522 151.98 535.522C152.844 535.522 153.53 535.83 153.53 536.263Z" fill="white"/>
<path d="M214.791 515.075C214.791 515.878 214.112 516.558 213.31 516.558C212.507 516.558 211.828 515.878 211.828 515.075C211.828 514.272 212.507 513.592 213.31 513.592C214.174 513.592 214.791 514.272 214.791 515.075Z" fill="white"/>
<path d="M216.088 514.89L214.915 515.322C214.853 515.692 214.668 516.001 214.359 516.249L214.544 517.484L227.515 523.6L227.824 523.043L216.088 514.89Z" fill="white"/>
<path d="M211.766 515.384L210.593 514.951L198.857 523.105L199.166 523.662L212.137 517.546L212.322 516.311C212.013 516.063 211.828 515.754 211.766 515.384Z" fill="white"/>
<path d="M213.31 513.469C213.495 513.469 213.68 513.469 213.865 513.592L214.853 512.851L213.68 498.582H213.063L211.89 512.851L212.877 513.592C212.939 513.531 213.124 513.469 213.31 513.469Z" fill="white"/>
<path d="M212.384 551.398L212.631 517.546C212.631 517.546 213.063 516.681 213.371 516.681C213.618 516.681 214.051 517.546 214.051 517.546V551.398L213.68 551.706H212.754L212.384 551.398Z" fill="white"/>
<path d="M217.755 553.436H208.865L209.976 551.459H216.705L217.755 553.436Z" fill="white"/>
<path d="M214.483 551.521C214.483 551.83 213.927 552.139 213.248 552.139C212.569 552.139 212.013 551.892 212.013 551.521C212.013 551.212 212.569 550.904 213.248 550.904C213.927 550.965 214.483 551.212 214.483 551.521Z" fill="white"/>
<path d="M369.436 435.819V425.503H359.058V416.546H351.897L331.634 397.087L311.317 416.546H304.155V425.503H293.777V435.819H303.044V588.586H299.649H296.37V490.427H301.439V480.172H234.245V490.427H239.307V588.586H236.035V598.901H293.839H299.71H369.436V588.586H360.169V435.819H369.436ZM254.994 580.184H245.734V569.744H254.994V580.184ZM254.994 567.335H245.734V556.895H254.994V567.335ZM254.994 554.548H245.734V544.108H254.994V554.548ZM254.994 541.699H245.734V531.26H254.994V541.699ZM254.994 528.85H245.734V518.411H254.994V528.85ZM254.994 516.063H245.734V505.623H254.994V516.063ZM254.994 503.214H245.734V492.774H254.994V503.214ZM266.669 580.184H257.402V569.744H266.669V580.184ZM266.669 567.335H257.402V556.895H266.669V567.335ZM266.669 554.548H257.402V544.108H266.669V554.548ZM266.669 541.699H257.402V531.26H266.669V541.699ZM266.669 528.85H257.402V518.411H266.669V528.85ZM266.669 516.063H257.402V505.623H266.669V516.063ZM266.669 503.214H257.402V492.774H266.669V503.214ZM278.275 580.184H269.015V569.744H278.275V580.184ZM278.275 567.335H269.015V556.895H278.275V567.335ZM278.275 554.548H269.015V544.108H278.275V554.548ZM278.275 541.699H269.015V531.26H278.275V541.699ZM278.275 528.85H269.015V518.411H278.275V528.85ZM278.275 516.063H269.015V505.623H278.275V516.063ZM278.275 503.214H269.015V492.774H278.275V503.214ZM289.95 580.184H280.689V569.744H289.95V580.184ZM289.95 567.335H280.689V556.895H289.95V567.335ZM289.95 554.548H280.689V544.108H289.95V554.548ZM289.95 541.699H280.689V531.26H289.95V541.699ZM289.95 528.85H280.689V518.411H289.95V528.85ZM289.95 516.063H280.689V505.623H289.95V516.063ZM289.95 503.214H280.689V492.774H289.95V503.214ZM318.793 580.184H309.526V569.744H318.793V580.184ZM318.793 567.335H309.526V556.895H318.793V567.335ZM318.793 554.548H309.526V544.108H318.793V554.548ZM318.793 541.699H309.526V531.26H318.793V541.699ZM318.793 528.85H309.526V518.411H318.793V528.85ZM318.793 516.063H309.526V505.623H318.793V516.063ZM318.793 503.214H309.526V492.774H318.793V503.214ZM318.793 490.427H309.526V479.987H318.793V490.427ZM318.793 477.578H309.526V467.138H318.793V477.578ZM318.793 464.729H309.526V454.29H318.793V464.729ZM318.793 451.942H309.526V441.503H318.793V451.942ZM330.399 580.184H321.139V569.744H330.399V580.184ZM330.399 567.335H321.139V556.895H330.399V567.335ZM330.399 554.548H321.139V544.108H330.399V554.548ZM330.399 541.699H321.139V531.26H330.399V541.699ZM330.399 528.85H321.139V518.411H330.399V528.85ZM330.399 516.063H321.139V505.623H330.399V516.063ZM330.399 503.214H321.139V492.774H330.399V503.214ZM330.399 490.427H321.139V479.987H330.399V490.427ZM330.399 477.578H321.139V467.138H330.399V477.578ZM330.399 464.729H321.139V454.29H330.399V464.729ZM330.399 451.942H321.139V441.503H330.399V451.942ZM342.074 580.184H332.807V569.744H342.074V580.184ZM342.074 567.335H332.807V556.895H342.074V567.335ZM342.074 554.548H332.807V544.108H342.074V554.548ZM342.074 541.699H332.807V531.26H342.074V541.699ZM342.074 528.85H332.807V518.411H342.074V528.85ZM342.074 516.063H332.807V505.623H342.074V516.063ZM342.074 503.214H332.807V492.774H342.074V503.214ZM342.074 490.427H332.807V479.987H342.074V490.427ZM342.074 477.578H332.807V467.138H342.074V477.578ZM342.074 464.729H332.807V454.29H342.074V464.729ZM342.074 451.942H332.807V441.503H342.074V451.942ZM353.749 580.184H344.482V569.744H353.749V580.184ZM353.749 567.335H344.482V556.895H353.749V567.335ZM353.749 554.548H344.482V544.108H353.749V554.548ZM353.749 541.699H344.482V531.26H353.749V541.699ZM353.749 528.85H344.482V518.411H353.749V528.85ZM353.749 516.063H344.482V505.623H353.749V516.063ZM353.749 503.214H344.482V492.774H353.749V503.214ZM353.749 490.427H344.482V479.987H353.749V490.427ZM353.749 477.578H344.482V467.138H353.749V477.578ZM353.749 464.729H344.482V454.29H353.749V464.729ZM353.749 451.942H344.482V441.503H353.749V451.942Z" fill="white"/>
<path d="M246.536 471.401H244.685V482.459H246.536V471.401Z" fill="white"/>
<path d="M250.796 463.432L250.117 459.108H247.277L247.463 463.432H250.796Z" fill="white"/>
<path d="M243.759 463.432L244.067 459.108H241.221L240.48 463.432H243.759Z" fill="white"/>
<path d="M247.71 467.88H251.475L250.796 463.617H247.524L247.71 467.88Z" fill="white"/>
<path d="M247.277 463.432L247.092 459.108H244.252L244.005 463.432H247.277Z" fill="white"/>
<path d="M241.035 459.108H240.603C239.245 459.108 237.763 460.528 237.331 462.196L237.022 463.37H240.294L241.035 459.108Z" fill="white"/>
<path d="M240.48 463.617L239.739 467.88H243.505L243.758 463.617H240.48Z" fill="white"/>
<path d="M244.005 463.617L243.759 467.88H247.463L247.277 463.617H244.005Z" fill="white"/>
<path d="M254.253 463.432L253.945 462.258C253.512 460.59 252.031 459.17 250.734 459.17H250.302L250.981 463.432H254.253Z" fill="white"/>
<path d="M240.233 463.617H236.961L235.788 467.88H239.554L240.233 463.617Z" fill="white"/>
<path d="M247.709 468.127L247.956 472.389H252.154L251.475 468.127H247.709Z" fill="white"/>
<path d="M251.043 463.617L251.722 467.88H255.426L254.315 463.617H251.043Z" fill="white"/>
<path d="M252.401 472.389H253.019C254.994 472.389 256.229 471.03 255.797 469.3L255.488 468.127H251.722L252.401 472.389Z" fill="white"/>
<path d="M243.752 468.127L243.505 472.389H247.709L247.463 468.127H243.752Z" fill="white"/>
<path d="M235.726 468.127L235.417 469.3C234.985 470.968 236.22 472.389 238.134 472.389H238.751L239.492 468.127H235.726Z" fill="white"/>
<path d="M239.739 468.127L238.998 472.389H243.203L243.512 468.127H239.739Z" fill="white"/>
<path d="M268.274 471.401H266.422V482.459H268.274V471.401Z" fill="white"/>
<path d="M272.534 463.432L271.916 459.108H269.015L269.262 463.432H272.534Z" fill="white"/>
<path d="M265.558 463.432L265.805 459.108H262.965L262.286 463.432H265.558Z" fill="white"/>
<path d="M269.509 467.88H273.213L272.595 463.617H269.262L269.509 467.88Z" fill="white"/>
<path d="M269.015 463.432L268.829 459.108H265.99L265.743 463.432H269.015Z" fill="white"/>
<path d="M262.78 459.108H262.347C260.982 459.108 259.501 460.528 259.069 462.196L258.76 463.37H262.039L262.78 459.108Z" fill="white"/>
<path d="M262.224 463.617L261.545 467.88H265.249L265.558 463.617H262.224Z" fill="white"/>
<path d="M265.743 463.617L265.496 467.88H269.261L269.076 463.617H265.743Z" fill="white"/>
<path d="M276.052 463.432L275.744 462.258C275.312 460.59 273.83 459.17 272.534 459.17H272.102L272.781 463.432H276.052Z" fill="white"/>
<path d="M262.039 463.617H258.698L257.525 467.88H261.291L262.039 463.617Z" fill="white"/>
<path d="M269.509 468.127L269.694 472.389H273.892L273.274 468.127H269.509Z" fill="white"/>
<path d="M272.78 463.617L273.459 467.88H277.163L276.114 463.617H272.78Z" fill="white"/>
<path d="M274.139 472.389H274.756C276.731 472.389 277.966 471.03 277.534 469.3L277.225 468.127H273.459L274.139 472.389Z" fill="white"/>
<path d="M265.496 468.127L265.249 472.389H269.447L269.262 468.127H265.496Z" fill="white"/>
<path d="M257.463 468.127L257.155 469.3C256.723 470.968 257.957 472.389 259.871 472.389H260.488L261.236 468.127H257.463Z" fill="white"/>
<path d="M261.483 468.127L260.797 472.389H265.002L265.249 468.127H261.483Z" fill="white"/>
<path d="M290.073 471.401H288.221V482.459H290.073V471.401Z" fill="white"/>
<path d="M294.333 463.432L293.654 459.108H290.814L290.999 463.432H294.333Z" fill="white"/>
<path d="M287.295 463.432L287.603 459.108H284.702L284.023 463.432H287.295Z" fill="white"/>
<path d="M291.246 467.88H294.95L294.333 463.617H290.999L291.246 467.88Z" fill="white"/>
<path d="M290.814 463.432L290.629 459.108H287.789L287.542 463.432H290.814Z" fill="white"/>
<path d="M284.517 459.108H284.085C282.727 459.108 281.245 460.528 280.813 462.196L280.504 463.37H283.776L284.517 459.108Z" fill="white"/>
<path d="M283.961 463.617L283.282 467.88H287.048L287.295 463.617H283.961Z" fill="white"/>
<path d="M287.542 463.617L287.295 467.88H290.999L290.814 463.617H287.542Z" fill="white"/>
<path d="M297.797 463.432L297.481 462.258C297.049 460.59 295.567 459.17 294.271 459.17H293.839L294.518 463.432H297.797Z" fill="white"/>
<path d="M283.776 463.617H280.504L279.324 467.88H283.035L283.776 463.617Z" fill="white"/>
<path d="M291.246 468.127L291.493 472.389H295.629L295.012 468.127H291.246Z" fill="white"/>
<path d="M294.58 463.617L295.197 467.88H298.97L297.858 463.617H294.58Z" fill="white"/>
<path d="M295.938 472.389H296.555C298.538 472.389 299.772 471.03 299.34 469.3L299.031 468.127H295.259L295.938 472.389Z" fill="white"/>
<path d="M287.233 468.127L287.048 472.389H291.184L290.999 468.127H287.233Z" fill="white"/>
<path d="M279.269 468.127L278.954 469.3C278.521 470.968 279.763 472.389 281.677 472.389H282.294L283.035 468.127H279.269Z" fill="white"/>
<path d="M283.282 468.127L282.542 472.389H286.739L287.048 468.127H283.282Z" fill="white"/>
<path d="M123.205 590.13L123.328 432.854H94.0527L93.9292 590.13H92.0155L92.0772 514.271L55.8871 514.21L55.8254 590.068H54.2821L54.3438 465.964L14.3263 465.903L14.2028 590.006H10.7456V598.778L127.588 598.84V590.068H123.205V590.13ZM111.777 442.738H119.069V452.683H111.777V442.738ZM111.777 461.641H119.13V471.586H111.839V461.641H111.777ZM111.777 480.543H119.069V490.489H111.777V480.543ZM111.716 499.384H119.007V509.329H111.716V499.384ZM111.716 518.287H119.007V528.232H111.716V518.287ZM111.716 537.19H119.007V547.136H111.716V537.19ZM111.716 556.031H119.007V584.323H111.716V556.031ZM99.06 442.738H106.345V452.683H99.06V442.738ZM99.06 461.641H106.345V471.586H99.06V461.641ZM98.9983 480.543H106.283V490.489H98.9983V480.543ZM98.9983 499.384H106.283V509.329H98.9983V499.384ZM98.9983 518.287H106.283V528.232H98.9983V518.287ZM98.9983 537.19H106.283V547.136H98.9983V537.19ZM98.9365 556.031H106.221V565.976H98.9365V556.031ZM38.5947 473.872H48.6025V481.779H38.5947V473.872ZM38.5947 488.944H48.6025V496.852H38.5947V488.944ZM38.5947 503.956H48.6025V511.863H38.5947V503.956ZM38.5947 519.028H48.6025V526.935H38.5947V519.028ZM38.5947 534.039H48.6025V542.008H38.5947V534.039ZM38.5947 549.112H48.6025V557.019H38.5947V549.112ZM38.5329 564.123H48.5408V586.671H38.5329V564.123ZM21.1788 473.872H31.1866V481.779H21.1788V473.872ZM21.1788 488.944H31.1866V496.914H21.1788V488.944ZM21.117 503.956H31.1248V511.924H21.117V503.956ZM21.117 519.028H31.1248V526.935H21.117V519.028ZM21.117 534.039H31.1248V541.946H21.117V534.039ZM21.117 549.05H31.1248V557.019H21.117V549.05ZM21.117 564.123H31.1248V572.091H21.117V564.123ZM76.3281 521.994H86.3359V529.9H76.3281V521.994ZM76.2663 537.004H86.2742V544.973H76.2663V537.004ZM76.2663 552.077H86.2742V560.046H76.2663V552.077ZM76.2663 567.088H86.2742V575.057H76.2663V567.088ZM76.2663 582.099H86.2742V590.068H76.2663V582.099ZM58.8504 521.932H68.8582V529.9H58.8504V521.932ZM58.8504 537.004H68.8582V544.973H58.8504V537.004ZM58.8504 552.015H68.8582V559.984H58.8504V552.015ZM58.7886 567.088H68.7964V590.068H65.1542H58.7886V567.088Z" fill="white"/>
<path d="M20.6847 456.266H18.5239V469.053H20.6847V456.266Z" fill="white"/>
<path d="M25.6236 447L24.8828 442.12H21.5491L21.7961 447H25.6236Z" fill="white"/>
<path d="M17.5363 447L17.845 442.12H14.573L13.7087 447H17.5363Z" fill="white"/>
<path d="M22.1046 452.251H26.4261L25.6235 447.309H21.8577L22.1046 452.251Z" fill="white"/>
<path d="M21.5491 447L21.364 442.12H18.0301L17.7832 447H21.5491Z" fill="white"/>
<path d="M14.3262 442.12H13.8322C12.2889 442.12 10.5603 443.726 10.0664 445.703L9.69604 447.062H13.5236L14.3262 442.12Z" fill="white"/>
<path d="M13.7088 447.309L12.9062 452.251H17.2277L17.5364 447.309H13.7088Z" fill="white"/>
<path d="M17.7833 447.309L17.4746 452.251H21.7961L21.6109 447.309H17.7833Z" fill="white"/>
<path d="M29.6432 447L29.2728 445.641C28.7789 443.665 27.1052 442.058 25.5002 442.058H25.0063L25.8089 447H29.6432Z" fill="white"/>
<path d="M13.4619 447.309H9.6343L8.26929 452.251H12.5976L13.4619 447.309Z" fill="white"/>
<path d="M22.1047 452.498L22.3517 457.44H27.1669L26.4262 452.498H22.1047Z" fill="white"/>
<path d="M25.9321 447.309L26.673 452.251H31.0012L29.7048 447.309H25.9321Z" fill="white"/>
<path d="M27.4825 457.44H28.1615C30.4458 457.44 31.8657 455.834 31.3718 453.857L31.0014 452.498H26.6731L27.4825 457.44Z" fill="white"/>
<path d="M17.4747 452.498L17.166 457.44H22.043L21.796 452.498H17.4747Z" fill="white"/>
<path d="M8.20755 452.498L7.83712 453.857C7.28151 455.834 8.7632 457.44 10.9925 457.44H11.6716L12.4741 452.498H8.20755Z" fill="white"/>
<path d="M12.8446 452.498L12.042 457.44H16.8573L17.166 452.498H12.8446Z" fill="white"/>
<path d="M45.941 456.266H43.7803V469.053H45.941V456.266Z" fill="white"/>
<path d="M50.8248 447L50.084 442.12H46.812L47.0589 447H50.8248Z" fill="white"/>
<path d="M42.7309 447L43.0396 442.12H39.7677L38.9651 447H42.7309Z" fill="white"/>
<path d="M47.306 452.251H51.6276L50.8867 447.309H47.0591L47.306 452.251Z" fill="white"/>
<path d="M46.8121 447L46.5652 442.12H43.2864L42.9778 447H46.8121Z" fill="white"/>
<path d="M39.5822 442.12H39.0883C37.545 442.12 35.8164 443.726 35.3226 445.703L34.9521 447.062H38.7796L39.5822 442.12Z" fill="white"/>
<path d="M38.9034 447.309L38.1008 452.251H42.4223L42.7309 447.309H38.9034Z" fill="white"/>
<path d="M42.978 447.309L42.731 452.251H47.0591L46.8122 447.309H42.978Z" fill="white"/>
<path d="M54.8992 447L54.5288 445.641C54.0349 443.665 52.3681 442.058 50.763 442.058H50.269L51.0716 447H54.8992Z" fill="white"/>
<path d="M38.6564 447.309H34.8289L33.5325 452.251H37.8539L38.6564 447.309Z" fill="white"/>
<path d="M47.3059 452.498L47.5528 457.44H52.4299L51.6891 452.498H47.3059Z" fill="white"/>
<path d="M51.1335 447.309L51.8744 452.251H56.1958L54.9612 447.309H51.1335Z" fill="white"/>
<path d="M52.7386 457.44H53.4177C55.7019 457.44 57.1217 455.834 56.6279 453.857L56.2575 452.498H51.936L52.7386 457.44Z" fill="white"/>
<path d="M42.6691 452.498L42.4221 457.44H47.2444L47.0592 452.498H42.6691Z" fill="white"/>
<path d="M33.4707 452.498L33.1003 453.857C32.5447 455.834 34.0263 457.44 36.2488 457.44H36.9278L37.7304 452.498H33.4707Z" fill="white"/>
<path d="M38.0389 452.498L37.2363 457.44H42.1134L42.422 452.498H38.0389Z" fill="white"/>
</g>
<defs>
<clipPath id="clip0">
<rect width="375" height="667" fill="white"/>
</clipPath>
</defs>
</svg>
