<svg width="1920" height="1080" viewBox="0 0 1920 1080" fill="none" xmlns="http://www.w3.org/2000/svg">
<path d="M360.698 740.798L334.005 772.664V756.607C335.735 756.113 336.971 754.631 336.971 752.984C336.971 750.843 335.076 749.114 332.687 749.114H317.857C315.468 749.114 313.573 750.843 313.573 752.984C313.573 754.714 314.809 756.196 316.539 756.607V793.415L289.845 825.282H301.792V901.532H419.44V825.282H431.386L360.698 740.798V740.798ZM362.264 789.545H376.599V803.708H362.264V789.545ZM362.264 807.002H376.599V821.247H362.264V807.002ZM344.715 789.545H359.05V803.708H344.715V789.545ZM344.715 807.002H359.05V821.247H344.715V807.002ZM377.176 894.615H344.138V861.76C344.138 852.702 351.553 845.291 360.698 845.291C369.843 845.291 377.258 852.62 377.258 861.76V894.615H377.176Z" fill="white"/>
<path d="M292.317 705.225V692.791H279.794V682.087H271.144L246.51 658.619L221.959 682.087H213.308V692.874H200.703V705.308H211.908V889.181H200.703V901.614H292.317V889.181H281.113V705.225H292.317ZM262.081 863.572V850.973H273.286V863.572H262.081ZM273.368 866.371V878.97H262.164V866.371H273.368ZM262.081 848.091V835.493H273.286V848.091H262.081ZM262.081 832.693V820.094H273.286V832.693H262.081ZM262.081 817.212V804.614H273.286V817.212H262.081ZM262.081 801.814V789.216H273.286V801.814H262.081ZM262.081 786.334V773.735H273.286V786.334H262.081ZM262.081 770.935V758.337H273.286V770.935H262.081ZM262.081 755.455V742.856H273.286V755.455H262.081ZM262.081 740.056V727.458H273.286V740.056H262.081ZM262.081 724.658V712.06H273.286V724.658H262.081ZM247.993 863.572V850.973H259.28V863.572H247.993ZM259.198 866.371V878.97H247.911V866.371H259.198ZM247.993 848.091V835.493H259.28V848.091H247.993ZM247.993 832.693V820.094H259.28V832.693H247.993ZM247.993 817.212V804.614H259.28V817.212H247.993ZM247.993 801.814V789.216H259.28V801.814H247.993ZM247.993 786.334V773.735H259.28V786.334H247.993ZM247.993 770.935V758.337H259.28V770.935H247.993ZM247.993 755.455V742.856H259.28V755.455H247.993ZM247.993 740.056V727.458H259.28V740.056H247.993ZM247.993 724.658V712.06H259.28V724.658H247.993V724.658ZM233.822 863.572V850.973H245.109V863.572H233.822ZM245.109 866.371V878.97H233.822V866.371H245.109ZM233.822 848.091V835.493H245.109V848.091H233.822ZM233.822 832.693V820.094H245.109V832.693H233.822ZM233.822 817.212V804.614H245.109V817.212H233.822ZM233.822 801.814V789.216H245.109V801.814H233.822ZM233.822 786.334V773.735H245.109V786.334H233.822ZM233.822 770.935V758.337H245.109V770.935H233.822ZM233.822 755.455V742.856H245.109V755.455H233.822ZM233.822 740.056V727.458H245.109V740.056H233.822ZM233.822 724.658V712.06H245.109V724.658H233.822V724.658ZM219.734 863.572V850.973H231.021V863.572H219.734ZM230.939 866.371V878.97H219.734V866.371H230.939ZM219.734 848.091V835.493H231.021V848.091H219.734ZM219.734 832.693V820.094H231.021V832.693H219.734ZM219.734 817.212V804.614H231.021V817.212H219.734ZM219.734 801.814V789.216H231.021V801.814H219.734ZM219.734 786.334V773.735H231.021V786.334H219.734ZM219.734 770.935V758.337H231.021V770.935H219.734ZM219.734 755.455V742.856H231.021V755.455H219.734ZM219.734 740.056V727.458H231.021V740.056H219.734ZM219.734 724.658V712.06H231.021V724.658H219.734V724.658ZM125.978 892.392L126.143 728.364H95.413L95.33 892.392H93.27L93.353 813.342H55.373L55.29 892.392H53.642L53.725 763.03L11.707 762.948L11.625 892.227H8V901.367L130.674 901.45V892.31L125.978 892.392V892.392ZM114.032 738.739H121.694V749.114H114.032V738.739ZM113.95 758.419H121.612V768.794H113.95V758.419ZM113.95 778.099H121.612V788.474H113.95V778.099ZM113.95 797.779H121.612V808.155H113.95V797.779ZM113.95 817.459H121.612V827.835H113.95V817.459ZM113.95 837.139H121.612V847.515H113.95V837.139ZM113.95 856.82H121.612V886.381H113.95V856.82V856.82ZM100.603 738.739H108.265V749.114H100.603V738.739ZM100.603 758.419H108.265V768.794H100.603V758.419ZM100.603 778.099H108.265V788.474H100.603V778.099ZM100.603 797.779H108.265V808.155H100.603V797.779ZM100.52 817.459H108.182V827.835H100.52V817.459ZM100.52 837.139H108.182V847.515H100.52V837.139ZM100.52 856.82H108.182V867.195H100.52V856.82V856.82ZM37.165 771.182H47.628V779.499H37.083L37.165 771.182V771.182ZM37.165 786.828H47.711V795.062H37.165V786.828V786.828ZM37.165 802.555H47.628V810.872H37.165V802.555V802.555ZM37.165 818.2H47.628V826.517H37.083L37.165 818.2V818.2ZM37.165 833.928H47.628V842.245H37.083L37.165 833.928V833.928ZM37.165 849.573H47.628V857.808H37.083L37.165 849.573V849.573ZM37.083 865.301H47.628V888.851H37.083V865.301V865.301ZM18.875 771.182H29.421V779.499H18.875V771.182V771.182ZM18.875 786.828H29.421V795.144H18.875V786.828V786.828ZM18.875 802.555H29.421V810.872H18.875V802.555V802.555ZM18.875 818.2H29.338V826.517H18.875V818.2V818.2ZM18.793 833.928H29.338V842.245H18.793V833.928V833.928ZM18.793 849.573H29.256V857.89H18.71L18.793 849.573V849.573ZM18.793 865.301H29.338V873.618H18.793V865.301V865.301ZM76.793 821.329H87.34V829.564H76.793V821.329ZM76.711 836.975H87.174V845.291H76.71V836.975H76.711ZM76.711 852.702H87.256V861.019H76.711V852.702V852.702ZM76.711 868.348H87.174V876.582H76.628L76.711 868.348V868.348ZM76.711 884.075H87.256V892.31H76.793V884.075H76.711ZM58.421 821.329H68.966V829.564H58.421V821.329V821.329ZM58.421 836.975H68.884V845.291H58.42V836.975H58.421ZM58.421 852.62H68.966V860.937H58.421V852.62V852.62ZM58.421 868.348H68.966V892.31H58.503L58.421 868.348V868.348Z" fill="white"/>
<path d="M209.931 770.935V758.584H128.532V770.935H134.629V889.098H130.674V901.532H207.871V889.098H203.916V770.935H209.931V770.935ZM184.803 773.817H196.007V786.416H184.803V773.817ZM184.803 789.215H196.007V801.814H184.803V789.215ZM184.803 804.696H196.007V817.295H184.803V804.696ZM184.803 820.094H196.007V832.693H184.803V820.094ZM184.803 835.575H196.007V848.173H184.803V835.575ZM184.803 850.973H196.007V863.572H184.803V850.973ZM184.803 866.371H196.007V878.97H184.803V866.371ZM170.714 773.817H181.919V786.416H170.714V773.817ZM170.714 789.215H181.919V801.814H170.714V789.215ZM170.714 804.696H181.919V817.295H170.714V804.696ZM170.714 820.094H181.919V832.693H170.714V820.094ZM170.714 835.575H181.919V848.173H170.714V835.575ZM170.714 850.973H181.919V863.572H170.714V850.973ZM170.714 866.371H181.919V878.97H170.714V866.371ZM156.544 773.817H167.831V786.416H156.544V773.817ZM156.544 789.215H167.831V801.814H156.544V789.215ZM156.544 804.696H167.831V817.295H156.544V804.696ZM156.544 820.094H167.831V832.693H156.544V820.094ZM156.544 835.575H167.831V848.173H156.544V835.575ZM156.544 850.973H167.831V863.572H156.544V850.973ZM156.544 866.371H167.831V878.97H156.544V866.371ZM142.456 773.817H153.743V786.416H142.456V773.817ZM142.456 789.215H153.743V801.814H142.456V789.215ZM142.456 804.696H153.743V817.295H142.456V804.696ZM142.456 820.094H153.743V832.693H142.456V820.094ZM142.456 835.575H153.743V848.173H142.456V835.575ZM142.456 850.973H153.743V863.572H142.456V850.973ZM142.456 866.371H153.743V878.97H142.456V866.371Z" fill="white"/>
<path d="M169.396 742.033L165.442 729.022C164.453 725.729 161.569 723.011 158.933 723.011H140.89C138.336 723.011 135.453 725.729 134.464 729.022L130.757 742.033C129.85 745.327 132.24 748.044 136.194 748.044H148.717V762.948H151.271V748.044H163.876C167.996 748.044 170.385 745.327 169.396 742.033V742.033ZM166.76 739.068H160.416L159.18 731.905H164.783L166.76 739.068V739.068ZM153.248 731.905H158.851L160.004 739.068H153.66L153.248 731.905ZM153.248 739.151H146.905L147.234 731.987H152.836L153.248 739.151V739.151ZM158.604 724.329C160.91 724.329 163.382 726.635 164.123 729.517L164.7 731.493H159.098L157.862 724.329H158.604ZM157.615 724.329L158.768 731.493H153.166L152.754 724.329H157.615V724.329ZM152.424 724.329L152.836 731.493H147.234L147.564 724.329H152.424V724.329ZM147.317 724.329L146.987 731.493H141.385L142.456 724.329H147.317V724.329ZM135.947 729.517C136.689 726.717 139.16 724.329 141.385 724.329H142.126L140.973 731.493H135.37L135.947 729.517ZM135.37 731.905H140.973L139.819 739.068H133.476L135.37 731.905V731.905ZM137.595 746.726C134.299 746.726 132.157 744.421 132.899 741.539L133.393 739.562H139.819L138.666 746.726H137.595ZM146.163 746.726H139.078L140.149 739.562H146.493L146.163 746.726V746.726ZM140.231 739.151L141.302 731.987H146.905L146.575 739.233H140.231V739.151ZM146.657 746.726L146.987 739.562H153.331L153.743 746.726H146.657ZM154.155 746.726L153.66 739.562H160.004L161.157 746.726H154.155V746.726ZM162.805 746.726H161.734L160.498 739.562H166.842L167.419 741.539C168.16 744.338 166.101 746.644 162.805 746.726ZM209.601 742.033L205.646 729.022C204.658 725.729 201.774 723.011 199.138 723.011H181.095C178.541 723.011 175.658 725.729 174.669 729.022L170.961 742.033C170.055 745.327 172.444 748.044 176.399 748.044H188.922V762.948H191.476V748.044H204.081C208.2 748.044 210.59 745.327 209.601 742.033V742.033ZM206.965 739.068H200.621L199.385 731.905H204.987L206.965 739.068V739.068ZM193.371 731.905H198.973L200.209 739.068H193.865L193.371 731.905ZM193.453 739.151H187.109L187.439 731.987H193.041L193.453 739.151V739.151ZM198.808 724.329C201.115 724.329 203.587 726.635 204.328 729.517L204.905 731.493H199.303L198.067 724.329H198.808V724.329ZM197.737 724.329L198.891 731.493H193.288L192.876 724.329H197.737V724.329ZM192.629 724.329L193.041 731.493H187.439L187.768 724.329H192.629ZM187.439 724.329L187.109 731.493H181.507L182.578 724.329H187.439V724.329ZM176.152 729.517C176.893 726.717 179.365 724.329 181.589 724.329H182.331L181.177 731.493H175.575L176.152 729.517ZM175.493 731.905H181.095L179.942 739.068H173.598L175.493 731.905V731.905ZM177.717 746.726C174.422 746.726 172.28 744.421 173.021 741.539L173.515 739.562H179.942L178.788 746.726H177.717ZM186.368 746.726H179.283L180.354 739.562H186.697L186.368 746.726V746.726ZM180.354 739.151L181.425 731.987H187.027L186.697 739.233H180.354V739.151ZM186.78 746.726L187.109 739.562H193.453L193.865 746.726H186.78ZM194.359 746.726L193.865 739.562H200.209L201.362 746.726H194.359ZM202.928 746.726H201.857L200.621 739.562H206.965L207.541 741.539C208.365 744.338 206.305 746.644 202.928 746.726ZM1608.33 781.475L1588.47 805.273V793.25C1589.79 792.921 1590.7 791.768 1590.7 790.533C1590.7 788.969 1589.3 787.651 1587.57 787.651H1576.61C1574.88 787.651 1573.4 788.969 1573.4 790.533C1573.4 791.851 1574.3 792.921 1575.62 793.25V820.753L1555.85 844.55H1564.67V901.532H1652V844.55H1660.81L1608.33 781.475V781.475ZM1609.57 817.871H1620.19V828.493H1609.57V817.871ZM1609.57 830.881H1620.19V841.504H1609.57V830.881ZM1596.55 817.871H1607.18V828.493H1596.55V817.871ZM1596.55 830.881H1607.18V841.504H1596.55V830.881ZM1620.61 896.344H1596.05V871.806C1596.05 865.054 1601.57 859.537 1608.33 859.537C1615.09 859.537 1620.61 865.054 1620.61 871.806V896.344Z" fill="white"/>
<path d="M1687.5 816.224L1673.42 833.105V824.541C1674.32 824.294 1674.98 823.553 1674.98 822.565C1674.98 821.412 1673.99 820.506 1672.76 820.506H1664.93C1663.69 820.506 1662.71 821.412 1662.71 822.565C1662.71 823.471 1663.36 824.212 1664.27 824.541V844.056L1650.18 860.937H1656.44V901.45H1718.48V860.937H1724.74L1687.5 816.224ZM1688.41 842.08H1695.91V849.573H1688.41V842.08ZM1688.41 851.303H1695.91V858.796H1688.41V851.303ZM1679.1 842.08H1686.6V849.573H1679.1V842.08ZM1679.1 851.303H1686.6V858.796H1679.1V851.303ZM1696.24 897.827H1678.77V880.37C1678.77 875.594 1682.64 871.641 1687.5 871.641C1688.65 871.634 1689.79 871.856 1690.85 872.292C1691.91 872.728 1692.88 873.371 1693.69 874.182C1694.5 874.994 1695.15 875.959 1695.59 877.021C1696.02 878.083 1696.25 879.221 1696.24 880.37V897.827Z" fill="white"/>
<path d="M1635.6 842.904L1636.26 753.973C1636.26 753.973 1637.5 751.667 1638.15 751.667C1638.81 751.667 1639.97 753.973 1639.97 753.973V842.904L1638.98 843.727H1636.59L1635.6 842.904Z" fill="white"/>
<path d="M1649.77 848.091H1626.46L1629.34 842.904H1646.89L1649.77 848.091V848.091Z" fill="white"/>
<path d="M1641.12 843.151C1641.12 843.974 1639.64 844.715 1637.82 844.715C1636.01 844.715 1634.53 844.056 1634.53 843.151C1634.53 842.327 1636.01 841.586 1637.82 841.586C1639.64 841.586 1641.12 842.327 1641.12 843.151Z" fill="white"/>
<path d="M1594.57 808.072L1595.07 746.315C1595.07 746.315 1595.89 744.75 1596.38 744.75C1596.88 744.75 1597.62 746.315 1597.62 746.315V808.072L1596.88 808.649H1595.23L1594.57 808.072Z" fill="white"/>
<path d="M1604.46 811.695H1588.23L1590.21 808.072H1602.4L1604.46 811.695Z" fill="white"/>
<path d="M1686.02 830.881L1686.43 780.487C1686.43 780.487 1687.09 779.17 1687.5 779.17C1687.92 779.17 1688.49 780.487 1688.49 780.487V830.881L1687.92 831.375H1686.6L1686.02 830.881Z" fill="white"/>
<path d="M1694.1 833.846H1680.83L1682.48 830.881H1692.45L1694.1 833.846V833.846Z" fill="white"/>
<path d="M1689.15 831.046C1689.15 831.54 1688.33 831.952 1687.26 831.952C1686.27 831.952 1685.44 831.54 1685.44 831.046C1685.44 830.552 1686.27 830.14 1687.26 830.14C1688.33 830.14 1689.15 830.552 1689.15 831.046ZM1920 658.784V643.468H1904.59V630.128H1893.97L1863.65 601.143L1833.41 630.128H1822.78V643.385H1807.38V658.784H1821.14V886.134H1811.25V740.057H1818.75V724.823H1718.65V740.057H1726.14V886.216H1721.28V901.532H1920V886.216H1906.24V658.784H1920ZM1749.54 873.618H1735.7V858.055H1749.54V873.618ZM1749.54 854.596H1735.7V839.033H1749.54V854.596ZM1749.54 835.493H1735.7V819.93H1749.54V835.493ZM1749.54 816.389H1735.7V800.826H1749.54V816.389ZM1749.54 797.285H1735.7V781.722H1749.54V797.285ZM1749.54 778.182H1735.7V762.619H1749.54V778.182ZM1749.54 759.16H1735.7V743.597H1749.54V759.16ZM1766.93 873.618H1753.08V858.055H1766.93V873.618ZM1766.93 854.596H1753.08V839.033H1766.93V854.596ZM1766.93 835.493H1753.08V819.93H1766.93V835.493V835.493ZM1766.93 816.389H1753.08V800.826H1766.93V816.389ZM1766.93 797.285H1753.08V781.722H1766.93V797.285ZM1766.93 778.182H1753.08V762.619H1766.93V778.182ZM1766.93 759.16H1753.08V743.597H1766.93V759.16ZM1784.31 873.618H1770.47V858.055H1784.31V873.618ZM1784.31 854.596H1770.47V839.033H1784.31V854.596ZM1784.31 835.493H1770.47V819.93H1784.31V835.493V835.493ZM1784.31 816.389H1770.47V800.826H1784.31V816.389ZM1784.31 797.285H1770.47V781.722H1784.31V797.285ZM1784.31 778.182H1770.47V762.619H1784.31V778.182ZM1784.31 759.16H1770.47V743.597H1784.31V759.16ZM1801.61 873.618H1787.77V858.055H1801.61V873.618ZM1801.61 854.596H1787.77V839.033H1801.61V854.596ZM1801.61 835.493H1787.77V819.93H1801.61V835.493V835.493ZM1801.61 816.389H1787.77V800.826H1801.61V816.389ZM1801.61 797.285H1787.77V781.722H1801.61V797.285ZM1801.61 778.182H1787.77V762.619H1801.61V778.182ZM1801.61 759.16H1787.77V743.597H1801.61V759.16ZM1844.53 873.618H1830.69V858.055H1844.53V873.618ZM1844.53 854.596H1830.69V839.033H1844.53V854.596ZM1844.53 835.493H1830.69V819.93H1844.53V835.493V835.493ZM1844.53 816.389H1830.69V800.826H1844.53V816.389ZM1844.53 797.285H1830.69V781.722H1844.53V797.285ZM1844.53 778.182H1830.69V762.619H1844.53V778.182ZM1844.53 759.16H1830.69V743.597H1844.53V759.16ZM1844.53 740.057H1830.69V724.494H1844.53V740.057ZM1844.53 720.953H1830.69V705.39H1844.53V720.953V720.953ZM1844.53 701.849H1830.69V686.286H1844.53V701.849ZM1844.53 682.745H1830.69V667.265H1844.53V682.745ZM1861.92 873.618H1848.08V858.055H1861.92V873.618ZM1861.92 854.596H1848.08V839.033H1861.92V854.596ZM1861.92 835.493H1848.08V819.93H1861.92V835.493V835.493ZM1861.92 816.389H1848.08V800.826H1861.92V816.389ZM1861.92 797.285H1848.08V781.722H1861.92V797.285ZM1861.92 778.182H1848.08V762.619H1861.92V778.182ZM1861.92 759.16H1848.08V743.597H1861.92V759.16ZM1861.92 740.057H1848.08V724.494H1861.92V740.057ZM1861.92 720.953H1848.08V705.39H1861.92V720.953V720.953ZM1861.92 701.849H1848.08V686.286H1861.92V701.849ZM1861.92 682.745H1848.08V667.265H1861.92V682.745ZM1879.3 873.618H1865.46V858.055H1879.3V873.618ZM1879.3 854.596H1865.46V839.033H1879.3V854.596ZM1879.3 835.493H1865.46V819.93H1879.3V835.493V835.493ZM1879.3 816.389H1865.46V800.826H1879.3V816.389ZM1879.3 797.285H1865.46V781.722H1879.3V797.285ZM1879.3 778.182H1865.46V762.619H1879.3V778.182ZM1879.3 759.16H1865.46V743.597H1879.3V759.16ZM1879.3 740.057H1865.46V724.494H1879.3V740.057ZM1879.3 720.953H1865.46V705.39H1879.3V720.953V720.953ZM1879.3 701.849H1865.46V686.286H1879.3V701.849ZM1879.3 682.745H1865.46V667.265H1879.3V682.745ZM1896.6 873.618H1882.76V858.055H1896.6V873.618ZM1896.6 854.596H1882.76V839.033H1896.6V854.596ZM1896.6 835.493H1882.76V819.93H1896.6V835.493V835.493ZM1896.6 816.389H1882.76V800.826H1896.6V816.389ZM1896.6 797.285H1882.76V781.722H1896.6V797.285ZM1896.6 778.182H1882.76V762.619H1896.6V778.182ZM1896.6 759.16H1882.76V743.597H1896.6V759.16ZM1896.6 740.057H1882.76V724.494H1896.6V740.057ZM1896.6 720.953H1882.76V705.39H1896.6V720.953V720.953ZM1896.6 701.849H1882.76V686.286H1896.6V701.849ZM1896.6 682.745H1882.76V667.265H1896.6V682.745Z" fill="white"/>
<path d="M1736.85 711.73H1734.14V728.199H1736.85V711.73ZM1743.28 699.873L1742.29 693.532H1738.01L1738.34 699.873H1743.28ZM1732.82 699.873L1733.23 693.532H1729.03L1727.96 699.873H1732.82ZM1738.67 706.543H1744.27L1743.28 700.202H1738.42L1738.67 706.543ZM1738.09 699.873L1737.76 693.532H1733.48L1733.15 699.873H1738.09V699.873ZM1728.7 693.532H1728.04C1726.06 693.532 1723.84 695.591 1723.18 698.144L1722.68 699.955H1727.54L1728.7 693.532ZM1727.87 700.202L1726.88 706.543H1732.4L1732.82 700.202H1727.87ZM1733.15 700.202L1732.82 706.543H1738.34L1738.09 700.202H1733.15ZM1748.47 699.873L1747.98 698.061C1747.32 695.509 1745.17 693.45 1743.2 693.45H1742.54L1743.53 699.791H1748.47V699.873ZM1727.54 700.202H1722.68L1720.95 706.543H1726.47L1727.54 700.202ZM1738.75 706.872L1739.08 713.295H1745.26L1744.35 706.872H1738.75ZM1743.61 700.202L1744.6 706.543H1750.2L1748.55 700.202H1743.61V700.202ZM1745.67 713.295H1746.58C1749.54 713.295 1751.35 711.236 1750.7 708.684L1750.2 706.954H1744.6L1745.67 713.295Z" fill="white"/>
<path d="M1732.73 706.872L1732.4 713.295H1738.67L1738.34 706.872H1732.73V706.872ZM1720.87 706.872L1720.38 708.601C1719.72 711.154 1721.53 713.213 1724.5 713.213H1725.4L1726.47 706.872H1720.87ZM1726.8 706.872L1725.73 713.295H1731.99L1732.4 706.872H1726.8V706.872ZM1769.31 711.73H1766.6V728.199H1769.31V711.73ZM1775.66 699.873L1774.75 693.532H1770.47L1770.8 699.873H1775.66V699.873ZM1765.28 699.873L1765.69 693.532H1761.41L1760.33 699.873H1765.28V699.873ZM1771.13 706.543H1776.73L1775.74 700.202H1770.8L1771.13 706.543V706.543ZM1770.47 699.873L1770.22 693.532H1765.94L1765.61 699.873H1770.47ZM1761.16 693.532H1760.5C1758.52 693.532 1756.3 695.591 1755.64 698.144L1755.14 699.955H1760L1761.16 693.532ZM1760.33 700.202L1759.26 706.543H1764.87L1765.28 700.202H1760.33ZM1765.52 700.202L1765.19 706.543H1770.8L1770.47 700.202H1765.52ZM1780.85 699.873L1780.35 698.061C1779.7 695.509 1777.55 693.45 1775.58 693.45H1774.92L1775.91 699.791H1780.85V699.873ZM1760 700.202H1755.06L1753.33 706.543H1758.93L1760 700.202V700.202ZM1771.13 706.872L1771.46 713.295H1777.72L1776.73 706.872H1771.13ZM1776.07 700.202L1777.06 706.543H1782.58L1781.01 700.202H1776.07ZM1778.13 713.295H1779.04C1782 713.295 1783.81 711.236 1783.16 708.684L1782.66 706.954H1777.06L1778.13 713.295Z" fill="white"/>
<path d="M1765.2 706.872L1764.87 713.295H1771.04L1770.8 706.872H1765.2V706.872ZM1753.25 706.872L1752.75 708.601C1752.1 711.154 1753.91 713.213 1756.87 713.213H1757.78L1758.85 706.872H1753.25ZM1759.26 706.872L1758.19 713.295H1764.45L1764.87 706.872H1759.26V706.872ZM1801.69 711.73H1798.97V728.199H1801.69V711.73ZM1808.12 699.873L1807.13 693.532H1802.85L1803.18 699.873H1808.12ZM1797.66 699.873L1798.07 693.532H1793.87L1792.79 699.873H1797.66ZM1803.59 706.543H1809.11L1808.12 700.202H1803.26L1803.59 706.543ZM1802.93 699.873L1802.6 693.532H1798.4L1797.98 699.873H1802.93ZM1793.54 693.532H1792.88C1790.9 693.532 1788.68 695.591 1788.02 698.144L1787.52 699.955H1792.38L1793.54 693.532ZM1792.71 700.202L1791.72 706.543H1797.24L1797.66 700.202H1792.71ZM1797.98 700.202L1797.66 706.543H1803.18L1802.93 700.202H1797.98ZM1813.31 699.873L1812.81 698.061C1812.16 695.509 1810.01 693.45 1808.04 693.45H1807.38L1808.37 699.791H1813.31V699.873ZM1792.38 700.202H1787.52L1785.79 706.543H1791.31L1792.38 700.202ZM1803.59 706.872L1803.92 713.295H1810.1L1809.19 706.872H1803.59ZM1808.45 700.202L1809.44 706.543H1815.04L1813.39 700.202H1808.45V700.202ZM1810.51 713.295H1811.41C1814.38 713.295 1816.19 711.236 1815.53 708.684L1815.04 706.954H1809.44L1810.51 713.295Z" fill="white"/>
<path d="M1797.57 706.872L1797.24 713.295H1803.5L1803.18 706.872H1797.57V706.872ZM1785.71 706.872L1785.21 708.601C1784.56 711.154 1786.37 713.213 1789.33 713.213H1790.24L1791.31 706.872H1785.71ZM1791.64 706.872L1790.65 713.295H1796.83L1797.24 706.872H1791.64V706.872ZM1553.21 888.44L1553.38 654.337H1509.8L1509.63 888.44H1506.75L1506.83 775.547L1452.95 775.464L1452.87 888.357H1450.56L1450.72 703.661L1391.08 703.578L1390.91 888.275H1385.72V901.367L1559.8 901.532V888.44H1553.21V888.44ZM1536.24 669.159H1547.12V683.981H1536.24V669.159ZM1536.16 697.238H1547.03V712.06H1536.16V697.238ZM1536.16 725.317H1547.03V740.139H1536.16V725.317ZM1536.16 753.479H1547.03V768.3H1536.16V753.479V753.479ZM1536.16 781.558H1547.03V796.38H1536.16V781.558ZM1536.16 809.637H1547.03V824.459H1536.16V809.637ZM1536.08 837.798H1546.95V879.958H1536.08V837.798ZM1517.21 669.077H1528.09V683.898H1517.21V669.077ZM1517.21 697.238H1528.09V712.06H1517.21V697.238ZM1517.21 725.317H1528.09V740.139H1517.21V725.317ZM1517.21 753.396H1528.09V768.218H1517.21V753.396ZM1517.13 781.558H1528V796.38H1517.13V781.558V781.558ZM1517.13 809.637H1528V824.459H1517.13V809.637V809.637ZM1517.13 837.716H1528V852.538H1517.13V837.716V837.716ZM1427.24 715.436H1442.16V727.211H1427.24V715.436ZM1427.24 737.833H1442.16V749.608H1427.24V737.833ZM1427.16 760.231H1442.07V772.006H1427.16V760.231ZM1427.16 782.628H1442.07V794.403H1427.16V782.628ZM1427.16 805.026H1442.07V816.883H1427.16V805.026ZM1427.16 827.423H1442.07V839.198H1427.16V827.423ZM1427.16 849.82H1442.07V883.417H1427.08L1427.16 849.82ZM1401.21 715.436H1416.12V727.211H1401.21V715.436ZM1401.21 737.833H1416.12V749.691H1401.21V737.833ZM1401.21 760.231H1416.12V772.088H1401.21V760.231ZM1401.21 782.628H1416.12V794.403H1401.21V782.628ZM1401.13 805.026H1416.04V816.801H1401.13V805.026ZM1401.13 827.341H1416.04V839.198H1401.13V827.341ZM1401.13 849.738H1416.04V861.596H1401.13V849.738ZM1483.35 786.992H1498.26V798.768H1483.35V786.992ZM1483.35 809.39H1498.26V821.247H1483.35V809.39V809.39ZM1483.35 831.787H1498.26V843.645H1483.35V831.787ZM1483.35 854.185H1498.26V866.042H1483.35V854.185ZM1483.27 876.582H1498.18V888.44H1483.27V876.582ZM1457.4 786.992H1472.31V798.85H1457.4V786.992ZM1457.4 809.39H1472.31V821.247H1457.4V809.39V809.39ZM1457.32 831.787H1472.23V843.645H1457.32V831.787ZM1457.32 854.185H1472.23V888.357H1457.32V854.185Z" fill="white"/>
<path d="M1400.55 689.251H1397.34V708.272H1400.55V689.251ZM1407.88 675.499L1406.73 668.088H1401.87L1402.2 675.499H1407.88ZM1395.85 675.499L1396.27 668.088H1391.41L1390.17 675.499H1395.85V675.499ZM1402.61 683.24H1409.04L1407.88 675.911H1402.2L1402.61 683.24ZM1401.87 675.499L1401.54 668.088H1396.6L1396.18 675.499H1401.87ZM1391.08 668.088H1390.33C1388.03 668.088 1385.47 670.476 1384.73 673.358L1384.16 675.417H1389.84L1391.08 668.088V668.088ZM1390.09 675.911L1388.93 683.24H1395.36L1395.77 675.911H1390.09ZM1396.18 675.911L1395.77 683.24H1402.2L1401.87 675.911H1396.18ZM1413.9 675.499L1413.4 673.441C1412.66 670.559 1410.11 668.171 1407.8 668.171H1407.06L1408.21 675.499H1413.9V675.499ZM1389.76 675.911H1384.07L1382.01 683.24H1388.52L1389.76 675.911ZM1402.61 683.651L1403.02 690.98H1410.19L1409.12 683.651H1402.61V683.651ZM1408.29 675.911L1409.45 683.24H1415.87L1413.98 675.911H1408.29ZM1410.68 690.98H1411.76C1415.13 690.98 1417.27 688.592 1416.53 685.71L1416.04 683.651H1409.53L1410.68 690.98Z" fill="white"/>
<path d="M1395.69 683.651L1395.28 690.98H1402.53L1402.2 683.651H1395.69ZM1381.93 683.651L1381.35 685.71C1380.53 688.592 1382.67 690.98 1386.05 690.98H1387.12L1388.36 683.651H1381.93ZM1388.85 683.651L1387.62 690.98H1394.87L1395.28 683.651H1388.85ZM1438.12 689.251H1434.91V708.272H1438.12V689.251ZM1445.45 675.499L1444.3 668.088H1439.44L1439.77 675.499H1445.45ZM1433.42 675.499L1433.83 668.088H1428.97L1427.74 675.499H1433.42V675.499ZM1440.18 683.24H1446.6L1445.53 675.911H1439.77L1440.18 683.24V683.24ZM1439.44 675.499L1439.11 668.088H1434.16L1433.75 675.499H1439.44ZM1428.64 668.088H1427.9C1425.6 668.088 1423.04 670.476 1422.3 673.358L1421.72 675.417H1427.41L1428.64 668.088V668.088ZM1427.66 675.911L1426.5 683.24H1432.93L1433.34 675.911H1427.66ZM1433.75 675.911L1433.34 683.24H1439.77L1439.44 675.911H1433.75ZM1451.47 675.499L1450.97 673.441C1450.23 670.559 1447.68 668.171 1445.37 668.171H1444.63L1445.78 675.499H1451.47V675.499ZM1427.33 675.911H1421.64L1419.66 683.24H1426.09L1427.33 675.911ZM1440.18 683.651L1440.59 690.98H1447.76L1446.69 683.651H1440.18V683.651ZM1445.86 675.911L1447.02 683.24H1453.44L1451.55 675.911H1445.86ZM1448.25 690.98H1449.32C1452.7 690.98 1454.84 688.592 1454.1 685.71L1453.61 683.651H1447.1L1448.25 690.98Z" fill="white"/>
<path d="M1433.34 683.651L1432.93 690.98H1440.1L1439.77 683.651H1433.34ZM1419.5 683.651L1418.92 685.71C1418.1 688.592 1420.24 690.98 1423.62 690.98H1424.69L1425.93 683.651H1419.5ZM1426.42 683.651L1425.18 690.98H1432.43L1432.93 683.651H1426.42Z" fill="white"/>
</svg>
