<svg width="1920" height="1080" viewBox="0 0 1920 1080" fill="none" xmlns="http://www.w3.org/2000/svg">
<g clip-path="url(#clip0)">
<path d="M688.63 684.937C689.344 685.042 690.52 685.147 692.095 685.147C694.909 685.147 696.631 684.685 697.66 683.866C698.542 683.152 699.13 682.144 699.13 680.863C699.13 679.036 697.933 677.818 696.316 677.377V677.335C697.912 676.747 698.647 675.571 698.647 674.311C698.647 673.03 697.933 672.064 696.946 671.539C695.917 670.93 694.72 670.741 692.767 670.741C691.171 670.741 689.47 670.867 688.63 671.035V684.937ZM691.801 673.156C692.074 673.114 692.473 673.072 693.166 673.072C694.615 673.072 695.434 673.639 695.434 674.71C695.434 675.76 694.531 676.453 692.851 676.453H691.801V673.156ZM691.801 678.742H692.893C694.489 678.742 695.77 679.309 695.77 680.737C695.77 682.228 694.489 682.774 693.04 682.774C692.494 682.774 692.116 682.774 691.801 682.732V678.742ZM701.199 685H704.391V679.792C704.391 679.54 704.412 679.288 704.454 679.078C704.664 678.091 705.462 677.461 706.638 677.461C706.995 677.461 707.268 677.503 707.499 677.545V674.542C707.268 674.5 707.121 674.5 706.827 674.5C705.84 674.5 704.58 675.13 704.055 676.621H703.971L703.866 674.731H701.115C701.157 675.613 701.199 676.6 701.199 678.112V685ZM717.666 685C717.561 684.433 717.519 683.488 717.519 682.501V678.931C717.519 676.516 716.427 674.5 713.004 674.5C711.135 674.5 709.728 675.004 709.014 675.403L709.602 677.461C710.274 677.041 711.387 676.684 712.437 676.684C714.012 676.684 714.306 677.461 714.306 678.007V678.154C710.673 678.133 708.279 679.414 708.279 682.081C708.279 683.719 709.518 685.231 711.597 685.231C712.815 685.231 713.865 684.79 714.537 683.971H714.6L714.789 685H717.666ZM714.411 681.262C714.411 681.451 714.39 681.64 714.348 681.808C714.138 682.459 713.487 682.984 712.689 682.984C711.975 682.984 711.429 682.585 711.429 681.766C711.429 680.527 712.731 680.128 714.411 680.149V681.262ZM719.458 684.496C720.235 684.916 721.432 685.21 722.776 685.21C725.716 685.21 727.228 683.803 727.228 681.892C727.207 680.38 726.388 679.393 724.435 678.721C723.175 678.28 722.776 678.028 722.776 677.545C722.776 677.02 723.217 676.705 723.994 676.705C724.876 676.705 725.758 677.041 726.22 677.293L726.787 675.088C726.157 674.773 725.086 674.5 723.889 674.5C721.348 674.5 719.71 675.949 719.71 677.86C719.689 679.078 720.508 680.233 722.629 680.947C723.826 681.346 724.141 681.598 724.141 682.123C724.141 682.648 723.742 682.984 722.776 682.984C721.831 682.984 720.613 682.564 720.025 682.207L719.458 684.496ZM732.343 685V674.731H729.151V685H732.343ZM730.747 670.258C729.718 670.258 729.046 670.951 729.067 671.875C729.046 672.757 729.718 673.471 730.726 673.471C731.776 673.471 732.448 672.757 732.448 671.875C732.427 670.951 731.776 670.258 730.747 670.258ZM734.914 685H738.106V670.09H734.914V685Z" fill="#FFFF00"/>
<path d="M705.852 696.999C705.282 696.961 704.598 696.961 703.534 697.037C699.658 697.227 696.466 698.443 693.996 700.685C691.336 703.155 689.626 707.031 689.626 711.667C689.626 717.557 692.856 722.459 699.43 722.459C704.788 722.459 708.55 718.431 708.55 713.529C708.55 708.399 705.054 705.473 700.912 705.473C698.594 705.473 696.884 706.195 695.668 707.449H695.554C696.2 704.561 698.48 701.939 703.61 701.521C704.522 701.445 705.206 701.407 705.852 701.445V696.999ZM699.354 718.203C696.732 718.203 695.478 715.847 695.364 713.225C695.364 712.541 695.44 712.085 695.592 711.781C696.162 710.527 697.454 709.577 699.012 709.577C701.482 709.577 702.698 711.553 702.698 713.833C702.698 716.341 701.406 718.203 699.354 718.203ZM713.478 726.221C715.302 723.257 717.012 719.267 718.266 715.391L712.376 715.771C711.844 719.229 710.818 723.181 709.64 726.563L713.478 726.221ZM737.524 697.341H723.92L722.286 710.299C723.312 710.147 724.262 710.071 725.63 710.071C730.57 710.071 732.584 711.629 732.584 714.175C732.584 716.797 730.038 717.937 727.644 717.937C725.402 717.937 723.16 717.253 722.058 716.721L721.032 721.053C722.4 721.775 724.908 722.459 727.91 722.459C734.56 722.459 738.512 718.393 738.512 713.795C738.512 710.907 737.372 708.855 735.51 707.601C733.762 706.347 731.368 705.815 729.012 705.815C728.404 705.815 727.948 705.815 727.416 705.891L727.948 702.091H737.524V697.341Z" fill="white"/>
<path d="M818.856 593.846V608H822.069V593.846H818.856ZM824.8 608H827.992V602.078C827.992 601.784 828.034 601.469 828.118 601.28C828.328 600.692 828.853 600.083 829.735 600.083C830.89 600.083 831.352 600.986 831.352 602.309V608H834.544V601.91C834.544 598.886 832.969 597.5 830.869 597.5C829.168 597.5 828.118 598.487 827.698 599.138H827.635L827.488 597.731H824.716C824.758 598.634 824.8 599.726 824.8 601.007V608ZM843.867 593.09V598.655H843.825C843.363 597.941 842.376 597.5 841.116 597.5C838.659 597.5 836.496 599.495 836.517 602.96C836.517 606.152 838.47 608.231 840.906 608.231C842.229 608.231 843.468 607.643 844.119 606.488H844.161L844.308 608H847.143C847.101 607.307 847.059 606.089 847.059 604.934V593.09H843.867ZM843.867 603.422C843.867 603.695 843.846 603.926 843.783 604.157C843.594 605.06 842.859 605.69 841.935 605.69C840.612 605.69 839.751 604.598 839.751 602.855C839.751 601.238 840.507 599.936 841.956 599.936C842.943 599.936 843.636 600.65 843.825 601.511C843.846 601.679 843.867 601.91 843.867 602.078V603.422ZM852.807 608V597.731H849.615V608H852.807ZM851.211 593.258C850.182 593.258 849.51 593.951 849.531 594.875C849.51 595.757 850.182 596.471 851.19 596.471C852.24 596.471 852.912 595.757 852.912 594.875C852.891 593.951 852.24 593.258 851.211 593.258ZM864.092 608C863.987 607.433 863.945 606.488 863.945 605.501V601.931C863.945 599.516 862.853 597.5 859.43 597.5C857.561 597.5 856.154 598.004 855.44 598.403L856.028 600.461C856.7 600.041 857.813 599.684 858.863 599.684C860.438 599.684 860.732 600.461 860.732 601.007V601.154C857.099 601.133 854.705 602.414 854.705 605.081C854.705 606.719 855.944 608.231 858.023 608.231C859.241 608.231 860.291 607.79 860.963 606.971H861.026L861.215 608H864.092ZM860.837 604.262C860.837 604.451 860.816 604.64 860.774 604.808C860.564 605.459 859.913 605.984 859.115 605.984C858.401 605.984 857.855 605.585 857.855 604.766C857.855 603.527 859.157 603.128 860.837 603.149V604.262Z" fill="#FFFF00"/>
<path d="M819.906 645.383C820.552 645.421 821.54 645.459 822.528 645.383C826.366 645.231 829.596 644.053 831.952 641.925C834.65 639.455 836.284 635.693 836.284 630.563C836.284 624.787 833.282 619.923 826.936 619.923C821.502 619.923 817.626 623.989 817.626 628.815C817.626 633.603 821.16 636.529 825.34 636.529C827.582 636.529 829.178 635.883 830.28 634.743L830.394 634.781C829.938 636.643 828.874 638.239 827.278 639.341C825.948 640.253 824.162 640.747 822.414 640.861C821.274 640.937 820.628 640.937 819.906 640.861V645.383ZM826.784 624.141C829.406 624.141 830.394 626.725 830.394 629.347C830.394 630.069 830.28 630.449 830.09 630.791C829.558 631.665 828.456 632.425 826.898 632.425C824.542 632.425 823.402 630.601 823.402 628.473C823.364 625.889 824.808 624.141 826.784 624.141ZM841.478 649.221C843.302 646.257 845.012 642.267 846.266 638.391L840.376 638.771C839.844 642.229 838.818 646.181 837.64 649.563L841.478 649.221ZM848.88 643.711C850.324 644.623 853.022 645.459 856.214 645.459C862.484 645.459 866.322 642.267 866.322 637.897C866.322 634.667 863.928 632.425 860.964 631.893V631.817C864.004 630.753 865.486 628.701 865.486 626.079C865.486 622.697 862.56 619.923 857.278 619.923C854.086 619.923 851.122 620.835 849.64 621.785L850.818 625.965C851.844 625.357 853.972 624.483 855.986 624.483C858.418 624.483 859.634 625.585 859.634 627.067C859.634 629.157 857.164 629.879 855.226 629.917H852.984V634.059H855.34C857.886 634.059 860.318 635.161 860.318 637.593C860.318 639.455 858.798 640.899 855.796 640.899C853.44 640.899 851.084 639.911 850.058 639.379L848.88 643.711Z" fill="white"/>
<path d="M933.507 529.75C933.507 531.955 932.667 532.564 931.323 532.564C930.693 532.564 930.126 532.459 929.685 532.312L929.328 534.895C929.958 535.105 930.924 535.231 931.659 535.231C934.767 535.231 936.699 533.824 936.699 529.792V520.846H933.507V529.75ZM948.336 530.884C948.378 530.653 948.441 530.17 948.441 529.624C948.441 527.083 947.181 524.5 943.863 524.5C940.293 524.5 938.676 527.377 938.676 529.981C938.676 533.194 940.671 535.21 944.157 535.21C945.543 535.21 946.824 535 947.874 534.58L947.454 532.417C946.593 532.69 945.711 532.837 944.619 532.837C943.128 532.837 941.826 532.207 941.721 530.884H948.336ZM941.7 528.7C941.784 527.839 942.33 526.621 943.674 526.621C945.144 526.621 945.48 527.923 945.48 528.7H941.7ZM950.358 539.158H953.55V534.055H953.592C954.054 534.727 955.02 535.231 956.259 535.231C958.548 535.231 960.921 533.467 960.921 529.729C960.921 526.453 958.905 524.5 956.658 524.5C955.167 524.5 953.991 525.067 953.235 526.159H953.193L953.046 524.731H950.274C950.316 525.676 950.358 526.831 950.358 528.175V539.158ZM953.55 529.183C953.55 528.994 953.571 528.784 953.613 528.616C953.823 527.671 954.621 526.999 955.524 526.999C956.952 526.999 957.687 528.238 957.687 529.876C957.687 531.619 956.868 532.774 955.482 532.774C954.558 532.774 953.823 532.123 953.613 531.262C953.571 531.073 953.55 530.842 953.55 530.59V529.183ZM971.624 535C971.519 534.433 971.477 533.488 971.477 532.501V528.931C971.477 526.516 970.385 524.5 966.962 524.5C965.093 524.5 963.686 525.004 962.972 525.403L963.56 527.461C964.232 527.041 965.345 526.684 966.395 526.684C967.97 526.684 968.264 527.461 968.264 528.007V528.154C964.631 528.133 962.237 529.414 962.237 532.081C962.237 533.719 963.476 535.231 965.555 535.231C966.773 535.231 967.823 534.79 968.495 533.971H968.558L968.747 535H971.624ZM968.369 531.262C968.369 531.451 968.348 531.64 968.306 531.808C968.096 532.459 967.445 532.984 966.647 532.984C965.933 532.984 965.387 532.585 965.387 531.766C965.387 530.527 966.689 530.128 968.369 530.149V531.262ZM974.004 535H977.196V529.078C977.196 528.784 977.238 528.469 977.322 528.28C977.532 527.692 978.057 527.083 978.939 527.083C980.094 527.083 980.556 527.986 980.556 529.309V535H983.748V528.91C983.748 525.886 982.173 524.5 980.073 524.5C978.372 524.5 977.322 525.487 976.902 526.138H976.839L976.692 524.731H973.92C973.962 525.634 974.004 526.726 974.004 528.007V535ZM993.344 524.731L993.239 525.949H993.197C992.672 525.109 991.79 524.5 990.383 524.5C987.863 524.5 985.721 526.6 985.721 529.897C985.721 532.858 987.527 534.916 990.068 534.916C991.244 534.916 992.231 534.433 992.84 533.572H992.882V534.244C992.882 536.134 991.727 536.953 990.215 536.953C989.018 536.953 987.884 536.554 987.233 536.176L986.603 538.591C987.527 539.116 988.955 539.389 990.299 539.389C991.811 539.389 993.344 539.095 994.478 538.129C995.633 537.1 996.032 535.483 996.032 533.509V527.776C996.032 526.243 996.074 525.382 996.116 524.731H993.344ZM992.84 530.422C992.84 530.695 992.819 531.031 992.735 531.262C992.525 532.018 991.874 532.564 991.055 532.564C989.711 532.564 988.955 531.367 988.955 529.834C988.955 527.965 989.9 526.915 991.055 526.915C991.937 526.915 992.546 527.482 992.777 528.322C992.819 528.49 992.84 528.7 992.84 528.91V530.422Z" fill="#FFFF00"/>
<path d="M936.915 572.041H942.501V547.341H937.713L931.177 550.381L932.127 554.713L936.839 552.471H936.915V572.041ZM966.391 546.999C965.821 546.961 965.137 546.961 964.073 547.037C960.197 547.227 957.005 548.443 954.535 550.685C951.875 553.155 950.165 557.031 950.165 561.667C950.165 567.557 953.395 572.459 959.969 572.459C965.327 572.459 969.089 568.431 969.089 563.529C969.089 558.399 965.593 555.473 961.451 555.473C959.133 555.473 957.423 556.195 956.207 557.449H956.093C956.739 554.561 959.019 551.939 964.149 551.521C965.061 551.445 965.745 551.407 966.391 551.445V546.999ZM959.893 568.203C957.271 568.203 956.017 565.847 955.903 563.225C955.903 562.541 955.979 562.085 956.131 561.781C956.701 560.527 957.993 559.577 959.551 559.577C962.021 559.577 963.237 561.553 963.237 563.833C963.237 566.341 961.945 568.203 959.893 568.203ZM974.018 576.221C975.842 573.257 977.552 569.267 978.806 565.391L972.916 565.771C972.384 569.229 971.358 573.181 970.18 576.563L974.018 576.221ZM998.063 547.341H984.459L982.825 560.299C983.851 560.147 984.801 560.071 986.169 560.071C991.109 560.071 993.123 561.629 993.123 564.175C993.123 566.797 990.577 567.937 988.183 567.937C985.941 567.937 983.699 567.253 982.597 566.721L981.571 571.053C982.939 571.775 985.447 572.459 988.449 572.459C995.099 572.459 999.051 568.393 999.051 563.795C999.051 560.907 997.911 558.855 996.049 557.601C994.301 556.347 991.907 555.815 989.551 555.815C988.943 555.815 988.487 555.815 987.955 555.891L988.487 552.091H998.063V547.341Z" fill="white"/>
<path d="M1091.01 470.367L1092.11 474H1095.55L1091.16 459.846H1086.96L1082.64 474H1085.95L1086.96 470.367H1091.01ZM1087.42 467.973L1088.26 464.97C1088.49 464.151 1088.7 463.08 1088.91 462.24H1088.96C1089.17 463.08 1089.42 464.13 1089.67 464.97L1090.55 467.973H1087.42ZM1096.9 473.349C1097.7 473.79 1099.29 474.21 1100.91 474.21C1104.8 474.21 1106.62 472.194 1106.62 469.821C1106.62 467.826 1105.45 466.524 1102.95 465.6C1101.12 464.907 1100.32 464.508 1100.32 463.605C1100.32 462.87 1100.99 462.24 1102.38 462.24C1103.77 462.24 1104.77 462.639 1105.34 462.912L1106.06 460.329C1105.22 459.951 1104.04 459.615 1102.44 459.615C1099.1 459.615 1097.09 461.463 1097.09 463.878C1097.09 465.936 1098.62 467.238 1100.97 468.057C1102.67 468.666 1103.35 469.17 1103.35 470.052C1103.35 470.976 1102.57 471.585 1101.1 471.585C1099.73 471.585 1098.41 471.144 1097.55 470.703L1096.9 473.349Z" fill="#FFFF00"/>
<path d="M1077.54 486.613H1063.93L1062.3 499.571C1063.32 499.419 1064.27 499.343 1065.64 499.343C1070.58 499.343 1072.6 500.901 1072.6 503.447C1072.6 506.069 1070.05 507.209 1067.66 507.209C1065.41 507.209 1063.17 506.525 1062.07 505.993L1061.04 510.325C1062.41 511.047 1064.92 511.731 1067.92 511.731C1074.57 511.731 1078.52 507.665 1078.52 503.067C1078.52 500.179 1077.38 498.127 1075.52 496.873C1073.77 495.619 1071.38 495.087 1069.02 495.087C1068.42 495.087 1067.96 495.087 1067.43 495.163L1067.96 491.363H1077.54V486.613ZM1098.61 486.613H1085.01L1083.38 499.571C1084.4 499.419 1085.35 499.343 1086.72 499.343C1091.66 499.343 1093.67 500.901 1093.67 503.447C1093.67 506.069 1091.13 507.209 1088.73 507.209C1086.49 507.209 1084.25 506.525 1083.15 505.993L1082.12 510.325C1083.49 511.047 1086 511.731 1089 511.731C1095.65 511.731 1099.6 507.665 1099.6 503.067C1099.6 500.179 1098.46 498.127 1096.6 496.873C1094.85 495.619 1092.46 495.087 1090.1 495.087C1089.49 495.087 1089.04 495.087 1088.51 495.163L1089.04 491.363H1098.61V486.613ZM1105.52 515.493C1107.34 512.529 1109.05 508.539 1110.31 504.663L1104.42 505.043C1103.88 508.501 1102.86 512.453 1101.68 515.835L1105.52 515.493ZM1129.56 486.613H1115.96L1114.32 499.571C1115.35 499.419 1116.3 499.343 1117.67 499.343C1122.61 499.343 1124.62 500.901 1124.62 503.447C1124.62 506.069 1122.08 507.209 1119.68 507.209C1117.44 507.209 1115.2 506.525 1114.1 505.993L1113.07 510.325C1114.44 511.047 1116.95 511.731 1119.95 511.731C1126.6 511.731 1130.55 507.665 1130.55 503.067C1130.55 500.179 1129.41 498.127 1127.55 496.873C1125.8 495.619 1123.41 495.087 1121.05 495.087C1120.44 495.087 1119.99 495.087 1119.45 495.163L1119.99 491.363H1129.56V486.613Z" fill="white"/>
<path d="M1209.68 285.102C1209.05 285.354 1207.98 285.564 1207.01 285.564C1204.16 285.564 1202.48 283.779 1202.48 280.944C1202.48 277.794 1204.45 276.261 1206.99 276.261C1208.13 276.261 1209.03 276.513 1209.68 276.786L1210.33 274.245C1209.77 273.951 1208.51 273.615 1206.85 273.615C1202.56 273.615 1199.12 276.303 1199.12 281.133C1199.12 285.165 1201.64 288.21 1206.53 288.21C1208.25 288.21 1209.58 287.895 1210.16 287.601L1209.68 285.102ZM1212.09 288H1215.28V281.91C1215.28 281.679 1215.3 281.406 1215.39 281.196C1215.62 280.629 1216.14 280.083 1216.98 280.083C1218.18 280.083 1218.64 281.007 1218.64 282.351V288H1221.84V281.994C1221.84 278.907 1220.28 277.5 1218.24 277.5C1217.66 277.5 1217.05 277.647 1216.59 277.899C1216.08 278.172 1215.66 278.508 1215.33 278.949H1215.28V273.09H1212.09V288ZM1227.59 288V277.731H1224.4V288H1227.59ZM1225.99 273.258C1224.96 273.258 1224.29 273.951 1224.31 274.875C1224.29 275.757 1224.96 276.471 1225.97 276.471C1227.02 276.471 1227.69 275.757 1227.69 274.875C1227.67 273.951 1227.02 273.258 1225.99 273.258ZM1230.16 288H1233.35V282.078C1233.35 281.784 1233.39 281.469 1233.48 281.28C1233.69 280.692 1234.21 280.083 1235.09 280.083C1236.25 280.083 1236.71 280.986 1236.71 282.309V288H1239.9V281.91C1239.9 278.886 1238.33 277.5 1236.23 277.5C1234.53 277.5 1233.48 278.487 1233.06 279.138H1232.99L1232.85 277.731H1230.08C1230.12 278.634 1230.16 279.726 1230.16 281.007V288ZM1251.18 288C1251.07 287.433 1251.03 286.488 1251.03 285.501V281.931C1251.03 279.516 1249.94 277.5 1246.52 277.5C1244.65 277.5 1243.24 278.004 1242.53 278.403L1243.11 280.461C1243.79 280.041 1244.9 279.684 1245.95 279.684C1247.52 279.684 1247.82 280.461 1247.82 281.007V281.154C1244.19 281.133 1241.79 282.414 1241.79 285.081C1241.79 286.719 1243.03 288.231 1245.11 288.231C1246.33 288.231 1247.38 287.79 1248.05 286.971H1248.11L1248.3 288H1251.18ZM1247.92 284.262C1247.92 284.451 1247.9 284.64 1247.86 284.808C1247.65 285.459 1247 285.984 1246.2 285.984C1245.49 285.984 1244.94 285.585 1244.94 284.766C1244.94 283.527 1246.24 283.128 1247.92 283.149V284.262Z" fill="#FFFF00"/>
<path d="M1200.32 325.459C1206.06 325.459 1209.82 322.457 1209.82 317.973C1209.82 314.781 1207.69 312.729 1205.3 311.817V311.703C1207.73 310.487 1208.87 308.397 1208.87 306.269C1208.87 303.267 1206.48 299.923 1200.7 299.923C1195.76 299.923 1192 302.697 1192 306.877C1192 309.043 1193.18 311.057 1195.57 312.273V312.387C1192.87 313.565 1191.16 315.617 1191.16 318.581C1191.16 321.925 1194.05 325.459 1200.32 325.459ZM1200.55 321.469C1198.38 321.469 1197.02 319.797 1197.05 318.011C1197.05 316.225 1198.16 314.857 1200.06 314.325C1202.34 314.933 1203.93 316.225 1203.93 318.391C1203.93 320.139 1202.6 321.469 1200.55 321.469ZM1200.44 303.837C1202.56 303.837 1203.44 305.357 1203.44 306.877C1203.44 308.435 1202.26 309.651 1200.93 310.031C1198.95 309.423 1197.43 308.359 1197.43 306.687C1197.43 305.129 1198.46 303.837 1200.44 303.837ZM1212.47 323.711C1213.91 324.623 1216.61 325.459 1219.8 325.459C1226.07 325.459 1229.91 322.267 1229.91 317.897C1229.91 314.667 1227.52 312.425 1224.55 311.893V311.817C1227.59 310.753 1229.08 308.701 1229.08 306.079C1229.08 302.697 1226.15 299.923 1220.87 299.923C1217.68 299.923 1214.71 300.835 1213.23 301.785L1214.41 305.965C1215.43 305.357 1217.56 304.483 1219.58 304.483C1222.01 304.483 1223.22 305.585 1223.22 307.067C1223.22 309.157 1220.75 309.879 1218.82 309.917H1216.57V314.059H1218.93C1221.48 314.059 1223.91 315.161 1223.91 317.593C1223.91 319.455 1222.39 320.899 1219.39 320.899C1217.03 320.899 1214.67 319.911 1213.65 319.379L1212.47 323.711ZM1236.02 329.221C1237.84 326.257 1239.55 322.267 1240.81 318.391L1234.92 318.771C1234.38 322.229 1233.36 326.181 1232.18 329.563L1236.02 329.221ZM1259.26 325.041V319.151H1262.23V314.819H1259.26V300.341H1252.2L1242.85 315.389V319.151H1253.79V325.041H1259.26ZM1248.24 314.819V314.743L1251.55 309.347C1252.39 307.789 1253.03 306.345 1253.83 304.749H1253.98C1253.87 306.345 1253.79 307.865 1253.79 309.347V314.819H1248.24Z" fill="white"/>
</g>
<defs>
<clipPath id="clip0">
<rect width="1920" height="1080" fill="white"/>
</clipPath>
</defs>
</svg>
