<svg width="1920" height="1080" viewBox="0 0 1920 1080" fill="none" xmlns="http://www.w3.org/2000/svg">
<path d="M1043.47 850.832C1043.47 854.541 1046.09 857.594 1049.36 857.74C1050.23 859.34 1051.83 860.43 1053.65 860.43C1054.23 860.43 1054.82 860.285 1055.4 860.067C1056.49 862.539 1058.74 864.139 1061.36 864.211C1063.26 864.211 1064.93 863.339 1066.17 861.957C1067.04 862.83 1068.2 863.339 1069.44 863.339C1071.11 863.339 1072.64 862.394 1073.51 861.012C1074.1 861.521 1074.82 861.812 1075.62 861.812C1076.64 861.812 1077.59 861.23 1078.24 860.43C1082.61 862.175 1087.85 864.72 1092.65 868.211C1090.61 885.08 1084.79 899.332 1084.79 899.332H1098.1C1101.52 884.571 1102.03 864.502 1101.6 849.741C1105.6 846.324 1109.89 844.07 1112.73 842.834C1113.24 843.415 1113.96 843.852 1114.76 843.852C1115.49 843.852 1116.15 843.561 1116.58 843.052C1117.24 843.852 1118.26 844.361 1119.27 844.361C1120.73 844.361 1121.97 843.415 1122.62 842.107C1122.91 842.252 1123.28 842.325 1123.57 842.325C1124.58 842.325 1125.46 841.743 1125.97 840.798C1127.79 840.725 1129.24 839.053 1129.31 836.944C1129.31 834.835 1127.79 833.09 1125.89 833.09H1125.82C1125.6 832.29 1124.95 831.709 1124.22 831.636C1124.22 830.109 1123.13 828.8 1121.75 828.8C1121.38 828.8 1121.02 828.946 1120.66 829.091C1120.58 826.764 1118.91 824.874 1116.8 824.874C1115.05 824.874 1113.6 826.182 1113.16 827.928C1113.02 827.855 1112.8 827.855 1112.58 827.855C1111.13 827.855 1109.89 829.236 1109.89 830.909C1109.89 830.981 1109.89 830.981 1109.89 831.054C1108.87 831.272 1108.14 832.218 1108.14 833.454C1108.14 833.526 1108.14 833.526 1108.14 833.599C1106.69 834.035 1105.6 835.562 1105.6 837.38C1105.6 839.489 1107.12 841.234 1109.02 841.307C1106.69 844.215 1103.85 846.542 1101.52 847.996C1101.23 839.343 1100.58 831.636 1099.92 825.892C1101.3 825.164 1102.47 824.001 1103.34 822.692C1104.43 823.637 1105.81 824.146 1107.27 824.219C1110.4 824.219 1113.09 821.674 1113.74 818.329C1113.96 818.329 1114.18 818.329 1114.4 818.329C1120.8 818.329 1125.97 812.512 1125.97 805.241C1125.97 799.206 1122.4 794.116 1117.53 792.589C1117.53 792.443 1117.53 792.298 1117.53 792.153C1117.53 788.226 1115.05 784.954 1111.71 784.3C1111.71 784.154 1111.71 784.009 1111.71 783.863C1111.71 778.337 1107.78 773.829 1102.9 773.829C1102.25 773.829 1101.6 773.902 1101.01 774.047C1099.41 768.157 1094.61 763.94 1088.86 763.94C1081.95 763.94 1076.35 770.121 1076.13 777.901C1075.04 777.319 1073.88 777.028 1072.64 777.028C1068.13 777.028 1064.49 781.173 1064.49 786.263C1062.02 786.554 1059.98 788.444 1059.25 791.062C1059.18 791.062 1059.04 791.062 1058.96 791.062C1052.71 791.062 1047.61 796.806 1047.61 803.859C1047.61 810.767 1052.42 816.439 1058.53 816.73C1060.2 819.711 1063.11 821.747 1066.53 821.747C1067.62 821.747 1068.71 821.529 1069.73 821.092C1071.77 825.673 1075.99 828.727 1080.79 828.727C1083.41 828.727 1085.81 827.855 1087.85 826.328C1093.23 840.652 1094.1 854.322 1093.01 865.811C1089.66 864.139 1085.66 861.594 1082.17 858.322C1084.28 857.231 1085.74 854.759 1085.74 851.996C1085.74 848.723 1083.84 846.033 1081.22 845.233C1081.22 845.161 1081.22 845.088 1081.22 845.015C1081.22 842.906 1079.92 841.161 1078.1 840.798C1078.1 840.725 1078.1 840.652 1078.1 840.58C1078.1 837.598 1075.99 835.199 1073.37 835.199C1073 835.199 1072.71 835.272 1072.35 835.344C1071.48 832.218 1068.93 829.891 1065.8 829.891C1062.09 829.891 1059.11 833.236 1058.96 837.38C1058.38 837.089 1057.73 836.871 1057.07 836.871C1054.67 836.871 1052.71 839.125 1052.63 841.816C1051.32 841.961 1050.23 842.979 1049.8 844.361C1049.72 844.361 1049.65 844.361 1049.65 844.361C1046.23 843.924 1043.47 846.978 1043.47 850.832ZM1108.29 843.488C1108.51 843.343 1108.87 842.616 1109.38 841.67C1109.6 842.252 1110.11 842.688 1110.69 842.834C1109.38 843.197 1108.29 843.488 1108.29 843.488ZM1095.85 826.764C1095.92 832.945 1096.28 839.125 1096.28 839.125C1094.97 834.035 1092.43 828.655 1090.39 824.874C1091.92 826.037 1093.67 826.764 1095.63 826.764C1095.7 826.837 1095.78 826.764 1095.85 826.764ZM1078.9 859.049C1078.97 858.903 1079.04 858.758 1079.04 858.612C1079.12 858.612 1079.26 858.612 1079.41 858.612C1079.77 858.612 1080.06 858.54 1080.35 858.54C1080.64 858.976 1080.93 859.34 1081.08 859.412C1081.08 859.412 1080.21 859.267 1078.9 859.049Z" fill="white"/>
<path d="M1287.33 863.848C1287.33 866.538 1289.22 868.792 1291.62 868.865C1292.28 870.028 1293.44 870.828 1294.75 870.828C1295.19 870.828 1295.62 870.756 1295.99 870.61C1296.79 872.428 1298.46 873.591 1300.35 873.591C1301.73 873.591 1302.97 872.937 1303.84 871.919C1304.5 872.573 1305.3 872.937 1306.25 872.937C1307.48 872.937 1308.57 872.283 1309.23 871.192C1309.66 871.555 1310.17 871.774 1310.76 871.774C1311.56 871.774 1312.21 871.337 1312.65 870.756C1315.85 872.064 1319.63 873.882 1323.2 876.427C1321.74 888.788 1317.45 899.186 1317.45 899.186H1327.2C1329.67 888.352 1330.11 873.737 1329.74 862.903C1332.65 860.43 1335.86 858.758 1337.89 857.813C1338.26 858.249 1338.77 858.612 1339.35 858.612C1339.86 858.612 1340.37 858.394 1340.73 858.031C1341.24 858.613 1341.89 858.976 1342.69 858.976C1343.78 858.976 1344.66 858.322 1345.17 857.304C1345.39 857.376 1345.6 857.449 1345.89 857.449C1346.62 857.449 1347.28 857.013 1347.64 856.358C1348.95 856.286 1350.04 855.05 1350.04 853.523C1350.04 851.923 1348.95 850.687 1347.57 850.687H1347.5C1347.35 850.105 1346.91 849.669 1346.33 849.596C1346.33 848.505 1345.53 847.56 1344.51 847.56C1344.22 847.56 1344 847.633 1343.71 847.778C1343.64 846.033 1342.4 844.724 1340.87 844.724C1339.64 844.724 1338.55 845.67 1338.18 846.978C1338.04 846.906 1337.89 846.906 1337.75 846.906C1336.66 846.906 1335.78 847.924 1335.78 849.087C1335.78 849.16 1335.78 849.16 1335.78 849.16C1335.05 849.305 1334.47 850.032 1334.47 850.905V850.978C1333.38 851.341 1332.58 852.432 1332.58 853.741C1332.58 855.34 1333.67 856.577 1335.05 856.577C1333.38 858.685 1331.27 860.43 1329.53 861.448C1329.31 855.122 1328.8 849.451 1328.36 845.233C1329.38 844.652 1330.18 843.852 1330.84 842.906C1331.64 843.561 1332.65 843.997 1333.75 843.997C1336.07 843.997 1337.96 842.179 1338.47 839.707C1338.62 839.707 1338.77 839.707 1338.91 839.707C1343.57 839.707 1347.35 835.417 1347.42 830.182C1347.42 825.746 1344.8 822.038 1341.24 820.947C1341.24 820.802 1341.24 820.729 1341.24 820.584C1341.24 817.675 1339.42 815.348 1337.02 814.839C1337.02 814.694 1337.02 814.621 1337.02 814.548C1337.02 810.476 1334.11 807.204 1330.54 807.204C1330.11 807.204 1329.6 807.277 1329.16 807.35C1328 803.06 1324.43 799.933 1320.29 799.933C1315.27 799.933 1311.12 804.441 1310.97 810.113C1310.17 809.677 1309.3 809.458 1308.43 809.458C1305.15 809.458 1302.46 812.44 1302.46 816.221C1300.64 816.439 1299.19 817.82 1298.61 819.711C1298.53 819.711 1298.46 819.711 1298.39 819.711C1293.8 819.711 1290.09 823.928 1290.09 829.091C1290.09 834.181 1293.66 838.326 1298.1 838.471C1299.33 840.652 1301.44 842.179 1303.92 842.179C1304.72 842.179 1305.52 842.034 1306.25 841.743C1307.77 845.088 1310.83 847.342 1314.32 847.342C1316.21 847.342 1317.96 846.688 1319.49 845.597C1323.41 856.068 1324.07 866.102 1323.27 874.464C1320.8 873.228 1317.89 871.337 1315.34 869.01C1316.87 868.211 1317.96 866.466 1317.96 864.357C1317.96 861.957 1316.58 859.994 1314.61 859.412C1314.61 859.34 1314.61 859.267 1314.61 859.194C1314.61 857.667 1313.67 856.358 1312.36 856.14C1312.36 856.068 1312.36 855.995 1312.36 855.995C1312.36 853.813 1310.83 852.068 1308.86 852.068C1308.65 852.068 1308.35 852.068 1308.14 852.141C1307.48 849.814 1305.59 848.142 1303.34 848.142C1300.64 848.142 1298.39 850.541 1298.32 853.595C1297.88 853.377 1297.44 853.232 1296.93 853.232C1295.19 853.232 1293.73 854.831 1293.73 856.867C1292.79 857.013 1291.99 857.74 1291.69 858.758C1291.62 858.758 1291.62 858.758 1291.55 858.758C1289.37 858.831 1287.33 861.085 1287.33 863.848ZM1334.76 858.467C1334.91 858.322 1335.2 857.813 1335.56 857.158C1335.78 857.595 1336.07 857.885 1336.51 858.031C1335.49 858.249 1334.76 858.467 1334.76 858.467ZM1325.6 846.251C1325.67 850.759 1325.89 855.268 1325.89 855.268C1324.94 851.559 1323.05 847.633 1321.6 844.87C1322.69 845.742 1324 846.251 1325.45 846.251C1325.52 846.324 1325.6 846.251 1325.6 846.251ZM1313.23 869.883C1313.23 869.738 1313.3 869.665 1313.3 869.592C1313.37 869.592 1313.45 869.592 1313.52 869.592C1313.74 869.592 1314.03 869.592 1314.25 869.519C1314.47 869.81 1314.68 870.101 1314.76 870.174C1314.83 870.174 1314.18 870.028 1313.23 869.883Z" fill="white"/>
<path d="M826.667 789.099L799.677 695.735C794.293 677.048 785.417 677.048 780.034 695.735L753.043 789.099C748.314 805.386 756.535 819.129 771.594 822.329C776.178 832.436 781.343 844.506 783.598 849.814C782.362 877.518 781.198 899.259 781.198 899.259H798.44C798.44 899.259 797.057 874.246 795.821 843.706C798.294 837.889 801.714 829.891 804.987 822.765C822.084 820.947 831.687 806.477 826.667 789.099ZM775.669 822.91C776.614 822.983 777.633 823.056 778.579 823.056H784.69C784.471 828.073 784.326 833.09 784.108 838.035C781.489 833.381 778.433 828 775.669 822.91ZM795.02 823.056H801.059C799.24 826.473 797.276 829.891 795.384 833.236C795.239 829.818 795.166 826.473 795.02 823.056Z" fill="white"/>
<path d="M614.378 798.551L597.646 818.548V808.44C598.737 808.15 599.537 807.204 599.537 806.114C599.537 804.805 598.3 803.714 596.845 803.714H587.533C586.078 803.714 584.841 804.805 584.841 806.114C584.841 807.204 585.642 808.077 586.733 808.44V831.491L570 851.487H577.493V899.332H651.263V851.487H658.757L614.378 798.551ZM615.397 829.091H624.345V838.035H615.397V829.091ZM615.397 839.998H624.345V848.869H615.397V839.998ZM604.411 829.091H613.36V838.035H604.411V829.091ZM604.411 839.998H613.36V848.869H604.411V839.998ZM624.782 894.969H604.048V874.391C604.048 868.72 608.704 864.066 614.451 864.066C620.199 864.066 624.855 868.72 624.855 874.391V894.969H624.782Z" fill="white"/>
<path d="M1049.29 725.984V715.004H1038.23V705.551H1030.59L1008.84 684.828L987.084 705.551H979.518V715.077H968.387V726.056H978.281V888.425H968.387V899.405H1049.29V888.425H1039.39V725.984H1049.29ZM1022.66 865.811V854.686H1032.63V865.811H1022.66ZM1032.55 868.283V879.408H1022.59V868.283H1032.55ZM1022.66 852.141V841.016H1032.63V852.141H1022.66ZM1022.66 838.544V827.419H1032.63V838.544H1022.66ZM1022.66 824.874V813.749H1032.63V824.874H1022.66ZM1022.66 811.276V800.151H1032.63V811.276H1022.66ZM1022.66 797.606V786.481H1032.63V797.606H1022.66ZM1022.66 784.009V772.884H1032.63V784.009H1022.66ZM1022.66 770.339V759.214H1032.63V770.339H1022.66ZM1022.66 756.741V745.616H1032.63V756.741H1022.66ZM1022.66 743.144V732.019H1032.63V743.144H1022.66ZM1010.15 865.811V854.686H1020.11V865.811H1010.15ZM1020.11 868.283V879.408H1010.15V868.283H1020.11ZM1010.15 852.141V841.016H1020.11V852.141H1010.15ZM1010.15 838.544V827.419H1020.11V838.544H1010.15ZM1010.15 824.874V813.749H1020.11V824.874H1010.15ZM1010.15 811.276V800.151H1020.11V811.276H1010.15ZM1010.15 797.606V786.481H1020.11V797.606H1010.15ZM1010.15 784.009V772.884H1020.11V784.009H1010.15ZM1010.15 770.339V759.214H1020.11V770.339H1010.15ZM1010.15 756.741V745.616H1020.11V756.741H1010.15ZM1010.15 743.144V732.019H1020.11V743.144H1010.15ZM997.706 865.811V854.686H1007.67V865.811H997.706ZM1007.6 868.283V879.408H997.706V868.283H1007.6ZM997.706 852.141V841.016H1007.67V852.141H997.706ZM997.706 838.544V827.419H1007.67V838.544H997.706ZM997.706 824.874V813.749H1007.67V824.874H997.706ZM997.706 811.276V800.151H1007.67V811.276H997.706ZM997.706 797.606V786.481H1007.67V797.606H997.706ZM997.706 784.009V772.884H1007.67V784.009H997.706ZM997.706 770.339V759.214H1007.67V770.339H997.706ZM997.706 756.741V745.616H1007.67V756.741H997.706ZM997.706 743.144V732.019H1007.67V743.144H997.706ZM985.193 865.811V854.686H995.16V865.811H985.193ZM995.16 868.283V879.408H985.193V868.283H995.16ZM985.193 852.141V841.016H995.16V852.141H985.193ZM985.193 838.544V827.419H995.16V838.544H985.193ZM985.193 824.874V813.749H995.16V824.874H985.193ZM985.193 811.276V800.151H995.16V811.276H985.193ZM985.193 797.606V786.481H995.16V797.606H985.193ZM985.193 784.009V772.884H995.16V784.009H985.193ZM985.193 770.339V759.214H995.16V770.339H985.193ZM985.193 756.741V745.616H995.16V756.741H985.193ZM985.193 743.144V732.019H995.16V743.144H985.193Z" fill="white"/>
<path d="M823.03 872.719C815.609 872.719 809.643 878.681 809.643 886.025C809.643 893.369 815.609 899.332 823.03 899.332C830.378 899.332 836.416 893.369 836.416 886.025C836.416 878.681 830.45 872.719 823.03 872.719ZM823.03 891.915C819.756 891.915 817.137 889.297 817.137 886.025C817.137 882.753 819.756 880.136 823.03 880.136C826.304 880.136 828.923 882.753 828.923 886.025C828.923 889.297 826.304 891.915 823.03 891.915Z" fill="white"/>
<path d="M881.668 872.719C874.247 872.719 868.281 878.681 868.281 886.025C868.281 893.369 874.247 899.332 881.668 899.332C889.088 899.332 895.054 893.369 895.054 886.025C895.054 878.681 889.088 872.719 881.668 872.719ZM881.668 891.915C878.394 891.915 875.775 889.297 875.775 886.025C875.775 882.753 878.394 880.136 881.668 880.136C884.941 880.136 887.56 882.753 887.56 886.025C887.56 889.297 884.941 891.915 881.668 891.915Z" fill="white"/>
<path d="M903.857 858.54H901.31C901.31 858.467 901.31 858.394 901.238 858.322L895.127 839.416C894.763 838.253 893.599 837.38 892.289 837.162C849.511 827.637 828.632 837.162 828.632 837.162C827.249 837.38 826.158 838.253 825.794 839.416L819.756 858.322C819.683 858.394 819.683 858.467 819.683 858.54H802.005C799.604 858.54 797.64 859.921 797.64 861.666V877.663H796.039C795.457 877.663 795.021 878.39 795.021 879.336V886.389C795.021 887.334 795.457 888.061 796.039 888.061H797.931C798.585 889.225 800.113 890.097 802.005 890.097H808.189C807.825 888.788 807.607 887.48 807.607 886.098C807.607 877.663 814.518 870.756 823.03 870.756C831.542 870.756 838.453 877.591 838.453 886.098C838.453 887.48 838.235 888.861 837.871 890.097H866.826C866.462 888.788 866.317 887.48 866.317 886.098C866.317 877.663 873.228 870.756 881.74 870.756C890.252 870.756 897.164 877.591 897.164 886.098C897.164 887.48 896.945 888.861 896.654 890.097H903.929C906.33 890.097 908.295 888.716 908.295 886.971V861.739C908.222 859.921 906.258 858.54 903.857 858.54ZM861.37 839.271H883.05C884.214 839.271 885.232 839.998 885.523 841.016L889.743 855.486C889.961 856.213 889.816 857.013 889.306 857.595C888.797 858.176 888.07 858.54 887.269 858.54H861.297V839.271H861.37ZM831.615 857.595C831.178 857.013 830.96 856.213 831.178 855.486L835.47 841.016C835.761 839.998 836.78 839.271 837.944 839.271H859.624V858.54H833.652C832.851 858.54 832.124 858.176 831.615 857.595Z" fill="white"/>
<path d="M975.953 784.009V773.102H904.075V784.009H909.459V888.352H905.966V899.332H974.135V888.352H970.643V784.009H975.953ZM953.764 786.554H963.658V797.679H953.764V786.554ZM953.764 800.151H963.658V811.276H953.764V800.151ZM953.764 813.821H963.658V824.946H953.764V813.821ZM953.764 827.419H963.658V838.544H953.764V827.419ZM953.764 841.089H963.658V852.214H953.764V841.089ZM953.764 854.686H963.658V865.811H953.764V854.686ZM953.764 868.283H963.658V879.408H953.764V868.283ZM941.251 786.554H951.145V797.679H941.251V786.554ZM941.251 800.151H951.145V811.276H941.251V800.151ZM941.251 813.821H951.145V824.946H941.251V813.821ZM941.251 827.419H951.145V838.544H941.251V827.419ZM941.251 841.089H951.145V852.214H941.251V841.089ZM941.251 854.686H951.145V865.811H941.251V854.686ZM941.251 868.283H951.145V879.408H941.251V868.283ZM928.738 786.554H938.705V797.679H928.738V786.554ZM928.738 800.151H938.705V811.276H928.738V800.151ZM928.738 813.821H938.705V824.946H928.738V813.821ZM928.738 827.419H938.705V838.544H928.738V827.419ZM928.738 841.089H938.705V852.214H928.738V841.089ZM928.738 854.686H938.705V865.811H928.738V854.686ZM928.738 868.283H938.705V879.408H928.738V868.283ZM916.297 786.554H926.264V797.679H916.297V786.554ZM916.297 800.151H926.264V811.276H916.297V800.151ZM916.297 813.821H926.264V824.946H916.297V813.821ZM916.297 827.419H926.264V838.544H916.297V827.419ZM916.297 841.089H926.264V852.214H916.297V841.089ZM916.297 854.686H926.264V865.811H916.297V854.686ZM916.297 868.283H926.264V879.408H916.297V868.283Z" fill="white"/>
<path d="M940.087 758.486L936.595 746.998C935.722 744.089 933.175 741.69 930.847 741.69H914.915C912.66 741.69 910.113 744.089 909.24 746.998L905.966 758.486C905.166 761.395 907.276 763.794 910.768 763.794H921.826V776.956H924.082V763.794H935.212C938.85 763.794 941.033 761.395 940.087 758.486ZM937.759 755.869H932.157L931.066 749.543H936.013L937.759 755.869ZM925.828 749.543H930.775L931.866 755.869H926.264L925.828 749.543ZM925.9 755.941H920.298L920.589 749.615H925.537L925.9 755.941ZM930.556 742.853C932.593 742.853 934.776 744.889 935.431 747.434L935.94 749.179H930.993L929.902 742.853H930.556ZM929.683 742.853L930.702 749.179H925.755L925.391 742.853H929.683ZM925.1 742.853L925.464 749.179H920.517L920.808 742.853H925.1ZM920.589 742.853L920.298 749.179H915.351L916.297 742.853H920.589ZM910.55 747.434C911.205 744.962 913.387 742.853 915.351 742.853H916.006L914.988 749.179H910.041L910.55 747.434ZM910.041 749.543H914.988L913.969 755.869H908.367L910.041 749.543ZM912.005 762.631C909.095 762.631 907.203 760.595 907.858 758.05L908.294 756.305H913.969L912.951 762.631H912.005ZM919.571 762.631H913.314L914.26 756.305H919.862L919.571 762.631ZM914.333 755.941L915.279 749.615H920.226L919.935 756.014H914.333V755.941ZM920.007 762.631L920.298 756.305H925.9L926.264 762.631H920.007ZM926.701 762.631L926.264 756.305H931.866L932.884 762.631H926.701ZM934.267 762.631H933.321L932.23 756.232H937.832L938.341 757.977C939.068 760.522 937.177 762.558 934.267 762.631Z" fill="white"/>
<path d="M975.589 758.486L972.097 746.998C971.224 744.089 968.678 741.69 966.35 741.69H950.417C948.162 741.69 945.616 744.089 944.743 746.998L941.469 758.486C940.669 761.395 942.779 763.794 946.271 763.794H957.329V776.956H959.584V763.794H970.715C974.353 763.794 976.463 761.395 975.589 758.486ZM973.261 755.869H967.66L966.568 749.543H971.515L973.261 755.869ZM961.33 749.543H966.277L967.369 755.869H961.767L961.33 749.543ZM961.33 755.941H955.728L956.019 749.615H960.966L961.33 755.941ZM966.059 742.853C968.096 742.853 970.279 744.889 970.933 747.434L971.443 749.179H966.496L965.404 742.853H966.059ZM965.186 742.853L966.205 749.179H961.257L960.894 742.853H965.186ZM960.603 742.853L960.966 749.179H956.019L956.31 742.853H960.603ZM956.019 742.853L955.728 749.179H950.781L951.727 742.853H956.019ZM946.052 747.434C946.707 744.962 948.89 742.853 950.854 742.853H951.509L950.49 749.179H945.543L946.052 747.434ZM945.47 749.543H950.417L949.399 755.869H943.797L945.47 749.543ZM947.507 762.631C944.597 762.631 942.706 760.595 943.361 758.05L943.797 756.305H949.472L948.453 762.631H947.507ZM955.074 762.631H948.817L949.763 756.305H955.365L955.074 762.631ZM949.835 755.941L950.781 749.615H955.728L955.437 756.014H949.835V755.941ZM955.437 762.631L955.728 756.305H961.33L961.694 762.631H955.437ZM962.13 762.631L961.694 756.305H967.296L968.314 762.631H962.13ZM969.697 762.631H968.751L967.66 756.305H973.261L973.771 758.05C974.498 760.522 972.679 762.558 969.697 762.631Z" fill="white"/>
<path d="M1256.05 696.971L1253.28 687.664C1252.55 685.337 1250.52 683.374 1248.7 683.374H1235.89C1234.08 683.374 1232.04 685.337 1231.31 687.664L1228.69 696.971C1228.04 699.371 1229.78 701.261 1232.55 701.261H1241.5V711.877H1243.32V701.261H1252.26C1255.03 701.261 1256.7 699.298 1256.05 696.971ZM1254.16 694.862H1249.64L1248.77 689.773H1252.77L1254.16 694.862ZM1244.48 689.773H1248.48L1249.35 694.862H1244.84L1244.48 689.773ZM1244.55 694.862H1240.04L1240.26 689.773H1244.26L1244.55 694.862ZM1248.34 684.392C1249.94 684.392 1251.75 686.064 1252.26 688.1L1252.63 689.554H1248.7L1247.83 684.464L1248.34 684.392ZM1247.61 684.392L1248.48 689.482H1244.55L1244.26 684.392H1247.61ZM1243.97 684.392L1244.26 689.482H1240.26L1240.48 684.392H1243.97ZM1240.26 684.392L1239.97 689.482H1236.04L1236.84 684.392H1240.26ZM1232.18 688.1C1232.69 686.064 1234.44 684.392 1236.04 684.392H1236.55L1235.75 689.482H1231.82L1232.18 688.1ZM1231.75 689.773H1235.75L1234.95 694.862H1230.44L1231.75 689.773ZM1233.35 700.316C1231.02 700.316 1229.49 698.644 1230 696.608L1230.37 695.226H1234.95L1234.15 700.316H1233.35ZM1239.46 700.316H1234.44L1235.24 695.226H1239.75L1239.46 700.316ZM1235.24 694.935L1236.04 689.845H1240.04L1239.75 695.008H1235.24V694.935ZM1239.82 700.316L1240.04 695.226H1244.55L1244.84 700.316H1239.82ZM1245.21 700.316L1244.84 695.226H1249.35L1250.23 700.316H1245.21ZM1251.32 700.243H1250.59L1249.72 695.153H1254.23L1254.59 696.608C1255.17 698.644 1253.65 700.243 1251.32 700.243Z" fill="white"/>
<path d="M1284.57 696.971L1281.8 687.664C1281.07 685.337 1279.04 683.374 1277.22 683.374H1264.41C1262.59 683.374 1260.56 685.337 1259.9 687.664L1257.28 696.971C1256.63 699.371 1258.37 701.261 1261.14 701.261H1270.09V711.877H1271.91V701.261H1280.85C1283.55 701.261 1285.29 699.298 1284.57 696.971ZM1282.75 694.862H1278.24L1277.36 689.773H1281.36L1282.75 694.862ZM1273.07 689.773H1277.07L1277.94 694.862H1273.43L1273.07 689.773ZM1273.14 694.862H1268.63L1268.85 689.773H1272.85L1273.14 694.862ZM1276.93 684.392C1278.53 684.392 1280.35 686.064 1280.85 688.1L1281.22 689.554H1277.29L1276.42 684.464L1276.93 684.392ZM1276.2 684.392L1277.07 689.482H1273.14L1272.85 684.392H1276.2ZM1272.49 684.392L1272.78 689.482H1268.78L1269 684.392H1272.49ZM1268.85 684.392L1268.56 689.482H1264.56L1265.36 684.392H1268.85ZM1260.78 688.1C1261.28 686.064 1263.03 684.392 1264.63 684.392H1265.14L1264.34 689.482H1260.41L1260.78 688.1ZM1260.34 689.773H1264.34L1263.54 694.862H1259.03L1260.34 689.773ZM1261.94 700.316C1259.54 700.316 1258.01 698.644 1258.59 696.608L1258.96 695.226H1263.47L1262.67 700.316H1261.94ZM1268.05 700.316H1263.03L1263.83 695.226H1268.34L1268.05 700.316ZM1263.83 694.935L1264.63 689.845H1268.63L1268.34 695.008H1263.83V694.935ZM1268.41 700.316L1268.63 695.226H1273.14L1273.43 700.316H1268.41ZM1273.8 700.316L1273.43 695.226H1277.94L1278.82 700.316H1273.8ZM1279.84 700.243H1279.11L1278.24 695.153H1282.75L1283.11 696.608C1283.69 698.644 1282.24 700.243 1279.84 700.243Z" fill="white"/>
<path d="M1284.57 886.534L1284.42 707.733L1228.69 707.805L1228.84 886.607H1226.73L1226.66 777.319H1220.62V767.866H1182.06V777.319H1176.24L1176.31 886.607H1173.62L1173.47 659.887H1170.93L1169.25 655.379H1165.03L1152.96 642L1140.88 655.379H1136.66L1134.99 659.887H1132.73L1132.88 886.607H1126.69V899.259L1289.37 899.114V886.462H1284.57V886.534ZM1138.55 674.285H1148.74V688.682H1138.55V674.285ZM1138.63 701.552H1148.81V715.949H1138.63V701.552ZM1138.63 728.747H1148.81V743.144H1138.63V728.747ZM1138.63 755.942H1148.81V770.339H1138.63V755.942ZM1138.63 783.136H1148.81V797.533H1138.63V783.136ZM1138.7 810.404H1148.88V824.728H1138.7V810.404ZM1138.7 878.391V837.598H1148.88L1148.96 878.391H1138.7ZM1166.49 674.285V688.682H1156.3V674.357L1166.49 674.285ZM1156.3 701.479H1166.49V715.877H1156.3V701.479ZM1156.38 728.747H1166.56V743.144H1156.38V728.747ZM1156.38 755.942H1166.56V770.339H1156.38V755.942ZM1156.45 783.136H1166.64V797.533H1156.45V783.136ZM1156.45 810.331H1166.64V824.655H1156.45V810.331ZM1156.45 851.923V837.598H1166.64V851.996H1156.45V851.923ZM1184.24 788.517H1198.21V799.933H1184.24V788.517ZM1198.21 810.113V821.602H1184.31V810.186L1198.21 810.113ZM1184.24 831.781H1198.14V843.197H1184.17L1184.24 831.781ZM1198.21 853.523V864.939H1184.24V853.523H1198.21ZM1198.21 886.607H1184.31V875.191H1198.28V886.607H1198.21ZM1208.54 788.444H1222.44V799.86H1208.47V788.444H1208.54ZM1222.51 810.113V821.529H1208.61V810.113H1222.51ZM1222.51 831.781V843.197H1208.61V831.781H1222.51ZM1213.71 886.607H1208.61V853.523H1222.58V886.68H1213.71V886.607ZM1236.69 719.149H1250.59V730.565H1236.62V719.149H1236.69ZM1236.69 740.89H1250.66V752.306H1236.69V740.89ZM1236.77 762.558H1250.66V773.974H1236.69L1236.77 762.558ZM1236.77 784.227H1250.66V795.643H1236.69V784.227H1236.77ZM1236.77 805.895H1250.66V817.311H1236.69L1236.77 805.895ZM1236.77 827.564H1250.66V838.98H1236.69V827.564H1236.77ZM1236.84 881.735V849.233H1250.81V881.735H1236.84ZM1274.96 719.149V730.565H1260.99V719.149H1274.96ZM1274.96 740.817V752.233H1260.99V740.817H1274.96ZM1260.99 762.558H1274.96V774.047H1260.99V762.558ZM1261.07 784.154H1274.96V795.57H1261.07V784.154ZM1261.07 805.895H1275.03V817.311H1261.07V805.895ZM1261.07 827.564H1274.96V838.98H1260.99V827.564H1261.07ZM1261.07 860.649V849.233H1275.03V860.649H1261.07Z" fill="white"/>
<path d="M761.846 845.67C761.846 845.67 757.117 838.907 752.243 838.544C747.368 838.18 743.149 841.161 742.858 845.161C742.494 849.233 761.846 845.67 761.846 845.67ZM751.733 839.634C754.061 839.78 757.19 842.397 758.063 843.197C757.044 842.325 752.534 839.125 745.331 841.743C744.676 841.961 749.041 839.416 751.733 839.634Z" fill="white"/>
<path d="M770.94 863.121L759.154 850.469L756.899 850.905C757.117 850.251 757.262 849.596 757.262 848.869C757.262 848.215 757.117 847.487 756.971 846.906C756.026 847.051 755.007 847.124 753.989 847.269C753.916 849.523 753.625 851.123 753.043 852.359C752.461 853.595 751.515 854.613 750.133 855.413C750.351 855.413 750.569 855.413 750.715 855.413C751.879 855.413 752.897 855.122 753.843 854.613L753.552 856.068L754.207 857.086L748.096 865.084C747.368 866.029 747.514 867.411 748.459 868.138C748.896 868.429 749.332 868.574 749.769 868.574C750.424 868.574 751.078 868.283 751.515 867.702L756.68 861.012L760.827 867.629L754.352 870.392C754.28 870.392 754.207 870.465 754.134 870.465H762.646L763.592 871.919L755.735 889.588C755.153 890.97 755.735 892.642 757.117 893.224C757.481 893.369 757.844 893.442 758.208 893.442C759.299 893.442 760.245 892.86 760.754 891.77L772.031 866.393C772.613 865.302 772.104 863.848 770.94 863.121Z" fill="white"/>
<path d="M744.167 848.869C744.167 851.85 746.204 854.395 748.969 855.195C752.097 853.595 753.116 851.705 753.261 847.269C751.588 847.415 749.914 847.56 748.387 847.56C746.641 847.56 745.331 847.415 744.385 847.197C744.24 847.706 744.167 848.287 744.167 848.869Z" fill="white"/>
<path d="M753.188 882.026H753.261H753.334H754.134C754.643 882.026 757.117 882.026 757.117 882.026H757.19C757.335 882.099 757.481 882.099 757.553 882.244C757.917 881.808 758.135 881.154 758.135 880.499V874.755L760.973 873.519H752.606V880.427C752.679 881.081 752.825 881.59 753.188 882.026Z" fill="white"/>
<path d="M753.043 867.774C753.043 867.484 752.897 867.265 752.752 867.12L751.952 868.138C751.733 868.356 751.515 868.574 751.297 868.792H752.097C752.606 868.72 753.043 868.283 753.043 867.774Z" fill="white"/>
<path d="M774.504 879.481C773.195 879.481 772.031 879.699 770.867 880.136L768.612 875.627L767.593 877.882L769.194 880.935C766.72 882.535 764.974 885.226 764.683 888.352H763.01L762.137 890.243H764.683C765.192 895.26 769.412 899.187 774.577 899.187C780.034 899.187 784.471 894.751 784.471 889.298C784.399 883.917 779.961 879.481 774.504 879.481ZM770.067 882.753L772.904 888.352C772.904 888.352 772.904 888.352 772.904 888.425H766.575C766.866 886.098 768.175 884.062 770.067 882.753ZM774.504 897.369C770.43 897.369 767.084 894.315 766.575 890.315H772.904C773.195 890.897 773.85 891.261 774.504 891.261C775.523 891.261 776.396 890.388 776.396 889.37C776.396 888.352 775.596 887.552 774.65 887.48L771.813 881.881C772.686 881.59 773.559 881.372 774.577 881.372C779.015 881.372 782.58 884.935 782.58 889.37C782.507 893.806 778.87 897.369 774.504 897.369Z" fill="white"/>
<path d="M758.281 894.097C757.844 894.097 757.335 894.024 756.899 893.806C756.535 893.66 756.244 893.442 756.026 893.224C755.735 893.588 755.807 894.242 756.389 894.387C757.626 894.387 758.863 894.387 760.027 894.387C760.536 894.242 760.682 893.66 760.391 893.297C759.809 893.806 759.081 894.097 758.281 894.097Z" fill="white"/>
<path d="M755.88 886.607V883.917C756.244 883.917 756.68 883.917 757.044 883.917C757.699 883.699 757.699 882.753 757.044 882.535C755.807 882.535 754.571 882.535 753.407 882.535C752.752 882.753 752.752 883.699 753.407 883.917C753.77 883.917 754.207 883.917 754.643 883.917V886.825L745.258 873.955L745.622 873.01H762.5L762.937 872.065L762.355 871.119H746.422L747.368 868.72H748.241C748.168 868.647 748.096 868.647 748.096 868.574C747.514 868.138 747.15 867.484 747.077 866.756H746.786C746.35 866.756 746.059 866.975 745.913 867.338L740.675 879.845C739.802 879.554 738.856 879.409 737.838 879.409C732.381 879.409 727.943 883.844 727.943 889.298C727.943 894.751 732.381 899.187 737.838 899.187C743.294 899.187 747.732 894.751 747.732 889.298C747.732 885.516 745.549 882.172 742.421 880.572L744.313 875.991L754.789 890.316H754.934C755.007 890.025 755.08 889.734 755.225 889.37L758.135 882.753L755.88 886.607ZM745.84 889.37C745.84 893.806 742.276 897.369 737.838 897.369C733.473 897.369 729.835 893.806 729.835 889.37C729.835 884.935 733.4 881.372 737.838 881.372C738.565 881.372 739.22 881.445 739.947 881.663L737.547 887.552C736.674 887.698 736.019 888.498 736.019 889.37C736.019 890.388 736.892 891.261 737.91 891.261C738.929 891.261 739.802 890.388 739.802 889.37C739.802 888.934 739.656 888.498 739.365 888.207L741.766 882.39C744.167 883.771 745.84 886.389 745.84 889.37Z" fill="white"/>
</svg>
