<svg width="1920" height="1080" viewBox="0 0 1920 1080" fill="none" xmlns="http://www.w3.org/2000/svg">
<g clip-path="url(#clip0)">
<g clip-path="url(#clip1)">
<path d="M990.984 811.855C990.984 815.997 993.866 819.328 997.467 819.508C998.457 821.309 1000.17 822.479 1002.24 822.479C1002.87 822.479 1003.59 822.299 1004.13 822.119C1005.39 824.82 1007.82 826.711 1010.7 826.711C1012.77 826.711 1014.66 825.72 1016.01 824.19C1017 825.18 1018.26 825.72 1019.62 825.72C1021.51 825.72 1023.13 824.73 1024.12 823.109C1024.75 823.649 1025.56 824.01 1026.46 824.01C1027.63 824.01 1028.62 823.379 1029.34 822.479C1034.2 824.46 1039.96 827.251 1045.28 831.122C1043.02 849.849 1036.54 865.605 1036.54 865.605H1051.22C1055 849.219 1055.63 826.981 1055.09 810.594C1059.5 806.813 1064.27 804.292 1067.42 802.942C1067.96 803.662 1068.77 804.112 1069.67 804.112C1070.48 804.112 1071.21 803.752 1071.75 803.212C1072.47 804.112 1073.55 804.652 1074.72 804.652C1076.34 804.652 1077.78 803.662 1078.41 802.131C1078.77 802.221 1079.13 802.311 1079.49 802.311C1080.57 802.311 1081.56 801.681 1082.19 800.601C1084.26 800.511 1085.88 798.62 1085.88 796.279C1085.88 793.938 1084.17 791.957 1082.1 791.957H1082.01C1081.74 791.057 1081.11 790.427 1080.21 790.337C1080.21 788.626 1079.04 787.276 1077.51 787.186C1077.06 787.186 1076.7 787.276 1076.34 787.456C1076.25 784.845 1074.45 782.774 1072.11 782.774C1070.21 782.774 1068.59 784.214 1068.05 786.195C1067.87 786.105 1067.6 786.105 1067.42 786.105C1065.8 786.105 1064.45 787.636 1064.45 789.436C1064.45 789.526 1064.45 789.526 1064.45 789.616C1063.37 789.797 1062.47 790.967 1062.47 792.227C1062.47 792.317 1062.47 792.317 1062.47 792.407C1060.85 792.948 1059.68 794.568 1059.59 796.639C1059.59 798.98 1061.21 800.961 1063.37 800.961C1060.76 804.202 1057.7 806.813 1055 808.434C1054.64 798.8 1053.92 790.247 1053.29 783.854C1054.82 783.044 1056.08 781.783 1057.07 780.253C1058.24 781.333 1059.77 781.873 1061.39 781.873C1064.9 781.873 1067.78 779.082 1068.5 775.391C1068.77 775.391 1068.95 775.391 1069.22 775.391C1076.34 775.391 1082.1 768.909 1082.1 760.895C1082.1 754.233 1078.14 748.561 1072.74 746.85C1072.74 746.67 1072.74 746.49 1072.74 746.31C1072.74 741.988 1069.94 738.297 1066.34 737.577C1066.34 737.396 1066.34 737.216 1066.34 737.036C1066.34 730.914 1062.02 725.872 1056.53 725.872C1055.81 725.872 1055.09 725.962 1054.46 726.142C1052.66 719.66 1047.35 714.978 1041.04 714.888C1033.39 714.888 1027.18 721.73 1026.91 730.374C1025.74 729.744 1024.39 729.383 1023.04 729.383C1018.08 729.383 1014.03 733.975 1013.94 739.647C1011.24 739.917 1008.9 742.078 1008.09 744.959C1008 744.959 1007.82 744.959 1007.73 744.959C1000.8 744.959 995.126 751.352 995.126 759.185C995.126 766.838 1000.44 773.14 1007.19 773.41C1008.99 776.742 1012.32 778.992 1016.01 778.992C1017.27 778.992 1018.45 778.722 1019.53 778.272C1021.78 783.314 1026.46 786.735 1031.86 786.735C1034.74 786.735 1037.44 785.745 1039.6 784.034C1045.55 799.97 1046.54 815.096 1045.37 827.791C1041.58 825.9 1037.26 823.109 1033.39 819.508C1035.73 818.247 1037.35 815.636 1037.35 812.485C1037.35 808.884 1035.28 805.823 1032.31 804.922C1032.31 804.832 1032.31 804.742 1032.31 804.652C1032.31 802.311 1030.87 800.331 1028.89 799.97C1028.89 799.88 1028.89 799.79 1028.89 799.7C1028.89 796.369 1026.55 793.668 1023.67 793.668C1023.31 793.668 1022.95 793.758 1022.59 793.758C1021.6 790.247 1018.72 787.726 1015.38 787.726C1011.24 787.726 1007.91 791.417 1007.82 796.009C1007.19 795.649 1006.47 795.469 1005.75 795.469C1003.05 795.469 1000.89 797.9 1000.89 800.961C999.448 801.141 998.187 802.311 997.737 803.842C997.647 803.842 997.647 803.842 997.557 803.842C994.046 804.112 990.984 807.623 990.984 811.855ZM1062.83 803.662C1063.01 803.482 1063.55 802.671 1064 801.681C1064.27 802.311 1064.81 802.852 1065.44 803.032C1064 803.302 1062.83 803.662 1062.83 803.662ZM1049.06 785.205C1049.15 792.047 1049.51 798.89 1049.51 798.89C1048.07 793.218 1045.19 787.276 1042.93 783.134C1044.65 784.394 1046.63 785.205 1048.79 785.205C1048.88 785.205 1048.97 785.205 1049.06 785.205ZM1030.24 820.948C1030.33 820.768 1030.33 820.678 1030.42 820.498C1030.51 820.498 1030.69 820.498 1030.78 820.498C1031.14 820.498 1031.5 820.408 1031.86 820.408C1032.22 820.858 1032.49 821.309 1032.67 821.399C1032.67 821.399 1031.68 821.219 1030.24 820.948Z" fill="white"/>
<path d="M1261.27 826.26C1261.27 829.322 1263.34 831.752 1266.04 831.843C1266.76 833.193 1268.02 834.003 1269.55 834.003C1270 834.003 1270.54 833.913 1270.9 833.733C1271.8 835.714 1273.6 837.065 1275.76 837.065C1277.29 837.065 1278.64 836.344 1279.63 835.264C1280.36 835.984 1281.26 836.344 1282.34 836.344C1283.69 836.344 1284.95 835.624 1285.67 834.454C1286.12 834.904 1286.75 835.084 1287.38 835.084C1288.19 835.084 1289 834.634 1289.45 834.003C1292.96 835.444 1297.19 837.515 1301.15 840.306C1299.53 853.991 1294.76 865.515 1294.76 865.515H1305.56C1308.36 853.541 1308.81 837.245 1308.36 825.27C1311.6 822.569 1315.11 820.678 1317.36 819.688C1317.81 820.228 1318.35 820.498 1318.98 820.498C1319.52 820.498 1320.06 820.228 1320.51 819.868C1321.05 820.498 1321.86 820.948 1322.67 820.948C1323.84 820.948 1324.92 820.228 1325.37 819.058C1325.64 819.148 1325.91 819.238 1326.18 819.238C1326.99 819.238 1327.71 818.788 1328.16 817.977C1329.6 817.887 1330.86 816.537 1330.86 814.826C1330.86 813.115 1329.6 811.675 1328.07 811.675H1327.98C1327.8 811.045 1327.26 810.594 1326.72 810.504C1326.72 809.244 1325.82 808.253 1324.74 808.253C1324.47 808.253 1324.11 808.344 1323.84 808.434C1323.75 806.543 1322.4 805.012 1320.69 805.012C1319.34 805.012 1318.08 806.003 1317.72 807.443C1317.54 807.443 1317.45 807.353 1317.27 807.353C1316.1 807.353 1315.11 808.434 1315.11 809.784C1315.11 809.874 1315.11 809.874 1315.11 809.874C1314.3 810.054 1313.67 810.864 1313.67 811.765V811.855C1312.5 812.215 1311.6 813.475 1311.6 814.916C1311.6 816.627 1312.77 818.067 1314.3 818.067C1312.41 820.408 1310.16 822.299 1308.18 823.469C1307.91 816.447 1307.37 810.234 1306.92 805.552C1308 804.922 1308.99 804.022 1309.71 802.941C1310.61 803.662 1311.69 804.112 1312.86 804.112C1315.38 804.112 1317.54 802.041 1318.08 799.34C1318.26 799.34 1318.44 799.34 1318.62 799.34C1323.84 799.34 1327.98 794.568 1327.98 788.716C1327.98 783.854 1325.1 779.713 1321.14 778.452C1321.14 778.362 1321.14 778.182 1321.14 778.092C1321.14 774.941 1319.16 772.24 1316.46 771.7C1316.46 771.609 1316.46 771.429 1316.46 771.339C1316.46 766.838 1313.31 763.236 1309.35 763.146C1308.81 763.146 1308.36 763.236 1307.82 763.326C1306.55 758.554 1302.59 755.133 1298 755.133C1292.42 755.133 1287.83 760.175 1287.65 766.478C1286.75 766.027 1285.85 765.757 1284.77 765.757C1281.08 765.757 1278.19 769.089 1278.1 773.23C1276.12 773.5 1274.41 775.031 1273.87 777.102C1273.78 777.102 1273.69 777.102 1273.6 777.102C1268.56 777.102 1264.42 781.783 1264.42 787.456C1264.42 793.038 1268.29 797.719 1273.24 797.9C1274.59 800.33 1276.93 801.951 1279.72 801.951C1280.63 801.951 1281.53 801.771 1282.34 801.411C1284.05 805.102 1287.38 807.623 1291.34 807.623C1293.41 807.623 1295.39 806.903 1297.01 805.642C1301.33 817.257 1302.05 828.331 1301.24 837.605C1298.54 836.254 1295.3 834.183 1292.51 831.482C1294.22 830.582 1295.39 828.601 1295.39 826.35C1295.39 823.739 1293.86 821.489 1291.7 820.858C1291.7 820.768 1291.7 820.678 1291.7 820.678C1291.7 818.968 1290.62 817.527 1289.18 817.257C1289.18 817.167 1289.18 817.077 1289.18 817.077C1289.18 814.646 1287.47 812.665 1285.31 812.665C1285.04 812.665 1284.77 812.665 1284.5 812.755C1283.78 810.234 1281.71 808.344 1279.18 808.344C1276.21 808.344 1273.69 811.045 1273.6 814.376C1273.15 814.106 1272.61 814.016 1272.07 814.016C1270.09 814.016 1268.47 815.816 1268.47 818.067C1267.39 818.157 1266.49 819.058 1266.22 820.138C1266.13 820.138 1266.13 820.138 1266.13 820.138C1263.52 820.678 1261.27 823.199 1261.27 826.26ZM1313.85 820.318C1314.03 820.138 1314.39 819.598 1314.75 818.878C1314.93 819.328 1315.38 819.688 1315.83 819.868C1314.66 820.048 1313.85 820.318 1313.85 820.318ZM1303.67 806.813C1303.76 811.855 1304.03 816.807 1304.03 816.807C1302.95 812.665 1300.88 808.344 1299.26 805.282C1300.52 806.273 1301.96 806.813 1303.49 806.813C1303.58 806.813 1303.67 806.813 1303.67 806.813ZM1289.99 832.923C1289.99 832.833 1290.08 832.743 1290.08 832.563C1290.17 832.563 1290.26 832.563 1290.35 832.563C1290.62 832.563 1290.89 832.563 1291.16 832.473C1291.43 832.833 1291.61 833.103 1291.79 833.193C1291.7 833.283 1290.98 833.103 1289.99 832.923Z" fill="white"/>
<path d="M750.683 743.339L720.791 639.889C714.849 619.181 705.035 619.181 699.003 639.889L669.112 743.429C663.89 761.526 672.983 776.741 689.73 780.343C694.862 791.507 700.534 804.922 702.965 810.864C701.614 841.566 700.354 865.695 700.354 865.695H719.531C719.531 865.695 718 837.965 716.65 804.112C719.351 797.629 723.222 788.806 726.824 780.883C745.551 778.632 756.265 762.696 750.683 743.339ZM694.141 780.883C695.222 780.973 696.302 781.063 697.382 781.063H704.135C703.955 786.645 703.685 792.227 703.505 797.629C700.624 792.497 697.202 786.555 694.141 780.883ZM715.66 781.063H722.322C720.251 784.845 718.09 788.716 716.02 792.317C715.93 788.536 715.75 784.845 715.66 781.063Z" fill="white"/>
<path d="M408.192 708.225L382.082 739.377V723.621C383.793 723.171 384.963 721.731 384.963 720.02C384.963 717.949 383.072 716.238 380.822 716.238H366.326C363.985 716.238 362.184 717.949 362.184 720.02C362.184 721.731 363.445 723.081 365.156 723.621V759.635L339.046 790.787H350.75V865.515H465.904V790.787H477.609L408.192 708.225ZM409.723 755.944H423.678V769.809H409.723V755.944ZM409.723 772.96H423.678V786.915H409.723V772.96ZM392.526 755.944H406.481V769.809H392.526V755.944ZM392.526 772.96H406.481V786.915H392.526V772.96ZM424.308 858.853H391.896V826.711C391.896 817.797 399.189 810.594 408.102 810.594C417.015 810.594 424.308 817.797 424.308 826.711V858.853Z" fill="white"/>
<path d="M515.423 753.783L496.876 775.931V764.767C498.046 764.407 498.946 763.416 498.946 762.246C498.946 760.805 497.596 759.545 495.975 759.545H485.711C484.091 759.545 482.74 760.715 482.74 762.246C482.74 763.416 483.641 764.497 484.811 764.767V790.337L466.264 812.485H474.547V865.515H556.298V812.485H564.581L515.423 753.783ZM516.593 787.726H526.497V797.629H516.593V787.726V787.726ZM516.593 799.79H526.497V809.694H516.593V799.79V799.79ZM504.348 787.726H514.252V797.629H504.348V787.726ZM504.348 799.79H514.252V809.694H504.348V799.79ZM526.947 860.744H503.988V837.965C503.988 831.662 509.12 826.53 515.513 826.53C521.905 826.53 527.037 831.662 527.037 837.965V860.744H526.947Z" fill="white"/>
<path d="M618.062 677.974C618.062 682.025 614.821 685.266 610.77 685.266C606.718 685.266 603.477 682.025 603.477 677.974C603.477 674.012 606.718 670.771 610.77 670.771C614.731 670.681 618.062 673.922 618.062 677.974Z" fill="white"/>
<path d="M624.185 677.073L618.512 679.324C618.152 681.215 617.162 682.836 615.811 684.006L616.622 689.948L680.366 719.75L681.897 717.049L624.185 677.073Z" fill="white"/>
<path d="M602.937 679.324L597.265 677.073L539.373 717.049L540.993 719.75L604.737 689.948L605.548 684.006C604.197 682.836 603.207 681.215 602.937 679.324Z" fill="white"/>
<path d="M610.769 670.051C611.67 670.051 612.66 670.231 613.47 670.501L618.242 666.809L612.3 596.943H609.149L603.297 666.809L608.068 670.501C608.879 670.231 609.779 670.051 610.769 670.051Z" fill="white"/>
<path d="M605.998 855.792L607.258 690.038C607.258 690.038 609.509 685.807 610.86 685.807C612.12 685.807 614.191 690.038 614.191 690.038V855.792L612.3 857.322H607.889L605.998 855.792Z" fill="white"/>
<path d="M632.648 865.605H588.801L594.293 855.882H627.246L632.648 865.605Z" fill="white"/>
<path d="M616.262 856.422C616.262 858.043 613.561 859.303 610.14 859.303C606.718 859.303 604.017 858.043 604.017 856.422C604.017 854.801 606.718 853.541 610.14 853.541C613.561 853.451 616.262 854.801 616.262 856.422Z" fill="white"/>
<path d="M577.457 735.146C577.457 737.937 575.206 740.188 572.415 740.188C569.624 740.188 567.373 737.937 567.373 735.146C567.373 732.355 569.624 730.104 572.415 730.104C575.206 730.104 577.457 732.355 577.457 735.146Z" fill="white"/>
<path d="M581.778 734.516L577.907 736.136C577.637 737.397 577.007 738.567 576.016 739.377L576.556 743.519L620.853 764.227L621.934 762.336L581.778 734.516Z" fill="white"/>
<path d="M567.012 736.136L563.051 734.516L522.805 762.336L523.886 764.227L568.273 743.519L568.813 739.377C567.913 738.567 567.193 737.397 567.012 736.136Z" fill="white"/>
<path d="M572.415 729.654C573.045 729.654 573.675 729.744 574.305 730.014L577.637 727.403L573.495 678.874H571.334L567.193 727.403L570.524 730.014C571.154 729.744 571.784 729.654 572.415 729.654Z" fill="white"/>
<path d="M569.083 858.763L569.983 743.519C569.983 743.519 571.514 740.548 572.414 740.548C573.315 740.548 574.755 743.519 574.755 743.519V858.763L573.405 859.843H570.343L569.083 858.763Z" fill="white"/>
<path d="M587.63 865.606H557.198L560.98 858.853H583.849L587.63 865.606Z" fill="white"/>
<path d="M576.286 859.213C576.286 860.383 574.395 861.284 572.055 861.284C569.714 861.284 567.823 860.383 567.823 859.213C567.823 858.133 569.714 857.232 572.055 857.232C574.395 857.232 576.286 858.043 576.286 859.213Z" fill="white"/>
<path d="M642.462 776.651C642.462 778.542 640.931 780.073 639.04 780.073C637.15 780.073 635.619 778.542 635.619 776.651C635.619 774.761 637.15 773.23 639.04 773.23C640.931 773.14 642.462 774.671 642.462 776.651Z" fill="white"/>
<path d="M645.343 776.201L642.642 777.282C642.462 778.182 642.012 778.902 641.381 779.533L641.741 782.324L671.993 796.459L672.713 795.199L645.343 776.201Z" fill="white"/>
<path d="M635.259 777.282L632.558 776.201L605.097 795.199L605.818 796.459L636.069 782.324L636.429 779.533C635.889 778.902 635.439 778.182 635.259 777.282Z" fill="white"/>
<path d="M638.951 772.87C639.401 772.87 639.851 772.96 640.211 773.05L642.462 771.249L639.671 738.117H638.14L635.349 771.249L637.6 773.05C638.14 772.96 638.5 772.87 638.951 772.87Z" fill="white"/>
<path d="M636.7 860.924L637.33 782.323C637.33 782.323 638.41 780.343 639.041 780.343C639.671 780.343 640.661 782.323 640.661 782.323V860.924L639.761 861.644H637.69L636.7 860.924Z" fill="white"/>
<path d="M649.395 865.605H628.597L631.208 861.014H646.784L649.395 865.605Z" fill="white"/>
<path d="M641.651 861.194C641.651 861.914 640.391 862.544 638.77 862.544C637.149 862.544 635.889 861.914 635.889 861.194C635.889 860.473 637.24 859.843 638.77 859.843C640.301 859.843 641.651 860.473 641.651 861.194Z" fill="white"/>
<path d="M341.296 673.382V661.227H328.962V650.693H320.498L296.459 627.735L272.42 650.693H263.957V661.227H251.622V673.382H262.606V853.451H251.622V865.606H341.296V853.451H330.312V673.382H341.296V673.382ZM311.675 828.421V816.087H322.659V828.421H311.675ZM322.659 831.212V843.547H311.675V831.212H322.659ZM311.675 813.296V800.961H322.659V813.296H311.675ZM311.675 798.17V785.835H322.659V798.17H311.675ZM311.675 783.044V770.709H322.659V783.044H311.675ZM311.675 767.918V755.583H322.659V767.918H311.675ZM311.675 752.792V740.458H322.659V752.792H311.675ZM311.675 737.757V725.422H322.659V737.757H311.675ZM311.675 722.631V710.296H322.659V722.631H311.675ZM311.675 707.505V695.17H322.659V707.505H311.675ZM311.675 692.379V680.045H322.659V692.379H311.675ZM297.9 828.421V816.087H308.884V828.421H297.9ZM308.884 831.212V843.547H297.9V831.212H308.884ZM297.9 813.296V800.961H308.884V813.296H297.9ZM297.9 798.17V785.835H308.884V798.17H297.9ZM297.9 783.044V770.709H308.884V783.044H297.9ZM297.9 767.918V755.583H308.884V767.918H297.9ZM297.9 752.792V740.458H308.884V752.792H297.9ZM297.9 737.757V725.422H308.884V737.757H297.9ZM297.9 722.631V710.296H308.884V722.631H297.9ZM297.9 707.505V695.17H308.884V707.505H297.9ZM297.9 692.379V680.045H308.884V692.379H297.9ZM284.034 828.421V816.087H295.019V828.421H284.034ZM295.019 831.212V843.547H284.034V831.212H295.019ZM284.034 813.296V800.961H295.019V813.296H284.034ZM284.034 798.17V785.835H295.019V798.17H284.034ZM284.034 783.044V770.709H295.019V783.044H284.034ZM284.034 767.918V755.583H295.019V767.918H284.034ZM284.034 752.792V740.458H295.019V752.792H284.034ZM284.034 737.757V725.422H295.019V737.757H284.034ZM284.034 722.631V710.296H295.019V722.631H284.034ZM284.034 707.505V695.17H295.019V707.505H284.034ZM284.034 692.379V680.045H295.019V692.379H284.034ZM270.169 828.421V816.087H281.153V828.421H270.169ZM281.243 831.212V843.547H270.259V831.212H281.243ZM270.169 813.296V800.961H281.153V813.296H270.169ZM270.169 798.17V785.835H281.153V798.17H270.169ZM270.169 783.044V770.709H281.153V783.044H270.169ZM270.169 767.918V755.583H281.153V767.918H270.169ZM270.169 752.792V740.458H281.153V752.792H270.169ZM270.169 737.757V725.422H281.153V737.757H270.169ZM270.169 722.631V710.296H281.153V722.631H270.169ZM270.169 707.505V695.17H281.153V707.505H270.169ZM270.169 692.379V680.045H281.153V692.379H270.169Z" fill="white"/>
<path d="M997.467 673.382V661.227H985.133V650.693H976.669L952.63 627.735L928.591 650.693H920.128V661.227H907.793V673.382H918.777V853.451H907.793V865.606H997.467V853.451H986.483V673.382H997.467V673.382ZM967.846 828.421V816.087H978.83V828.421H967.846ZM978.92 831.212V843.547H967.846V831.212H978.92ZM967.846 813.296V800.961H978.83V813.296H967.846ZM967.846 798.17V785.835H978.83V798.17H967.846ZM967.846 783.044V770.709H978.83V783.044H967.846ZM967.846 767.918V755.583H978.83V767.918H967.846ZM967.846 752.792V740.458H978.83V752.792H967.846ZM967.846 737.757V725.422H978.83V737.757H967.846ZM967.846 722.631V710.296H978.83V722.631H967.846ZM967.846 707.505V695.17H978.83V707.505H967.846ZM967.846 692.379V680.045H978.83V692.379H967.846ZM954.071 828.421V816.087H965.055V828.421H954.071ZM965.055 831.212V843.547H954.071V831.212H965.055ZM954.071 813.296V800.961H965.055V813.296H954.071ZM954.071 798.17V785.835H965.055V798.17H954.071ZM954.071 783.044V770.709H965.055V783.044H954.071ZM954.071 767.918V755.583H965.055V767.918H954.071ZM954.071 752.792V740.458H965.055V752.792H954.071ZM954.071 737.757V725.422H965.055V737.757H954.071ZM954.071 722.631V710.296H965.055V722.631H954.071ZM954.071 707.505V695.17H965.055V707.505H954.071ZM954.071 692.379V680.045H965.055V692.379H954.071ZM940.205 828.421V816.087H951.19V828.421H940.205ZM951.28 831.212V843.547H940.295V831.212H951.28ZM940.205 813.296V800.961H951.19V813.296H940.205ZM940.205 798.17V785.835H951.19V798.17H940.205ZM940.205 783.044V770.709H951.19V783.044H940.205ZM940.205 767.918V755.583H951.19V767.918H940.205ZM940.205 752.792V740.458H951.19V752.792H940.205ZM940.205 737.757V725.422H951.19V737.757H940.205ZM940.205 722.631V710.296H951.19V722.631H940.205ZM940.205 707.505V695.17H951.19V707.505H940.205ZM940.205 692.379V680.045H951.19V692.379H940.205ZM926.43 828.421V816.087H937.414V828.421H926.43ZM937.414 831.212V843.547H926.43V831.212H937.414ZM926.43 813.296V800.961H937.414V813.296H926.43ZM926.43 798.17V785.835H937.414V798.17H926.43ZM926.43 783.044V770.709H937.414V783.044H926.43ZM926.43 767.918V755.583H937.414V767.918H926.43ZM926.43 752.792V740.458H937.414V752.792H926.43ZM926.43 737.757V725.422H937.414V737.757H926.43ZM926.43 722.631V710.296H937.414V722.631H926.43ZM926.43 707.505V695.17H937.414V707.505H926.43ZM926.43 692.379V680.045H937.414V692.379H926.43Z" fill="white"/>
<path d="M746.721 836.074C738.528 836.074 731.866 842.647 731.866 850.84C731.866 858.943 738.528 865.606 746.721 865.606C754.915 865.606 761.577 859.033 761.577 850.84C761.487 842.737 754.825 836.074 746.721 836.074ZM746.721 857.322C743.12 857.322 740.149 854.441 740.149 850.84C740.149 847.239 743.12 844.357 746.721 844.357C750.323 844.357 753.294 847.239 753.294 850.84C753.204 854.441 750.323 857.322 746.721 857.322Z" fill="white"/>
<path d="M811.636 836.074C803.443 836.074 796.781 842.647 796.781 850.84C796.781 858.943 803.443 865.606 811.636 865.606C819.829 865.606 826.492 859.033 826.492 850.84C826.492 842.737 819.829 836.074 811.636 836.074ZM811.636 857.322C808.035 857.322 805.064 854.441 805.064 850.84C805.064 847.239 808.035 844.357 811.636 844.357C815.238 844.357 818.209 847.239 818.209 850.84C818.209 854.441 815.328 857.322 811.636 857.322Z" fill="white"/>
<path d="M836.216 820.408H833.425C833.425 820.318 833.425 820.228 833.335 820.138L826.582 799.16C826.222 797.9 824.962 796.909 823.431 796.639C775.983 786.105 752.844 796.639 752.844 796.639C751.313 796.909 750.143 797.81 749.693 799.16L742.94 820.138C742.94 820.228 742.85 820.318 742.85 820.408H723.223C720.522 820.408 718.361 821.939 718.361 823.83V841.566H716.56C715.93 841.566 715.39 842.377 715.39 843.457V851.29C715.39 852.28 715.93 853.181 716.56 853.181H718.631C719.351 854.441 721.062 855.432 723.133 855.432H729.975C729.615 853.991 729.345 852.551 729.345 851.02C729.345 841.656 736.998 834.003 746.452 834.003C755.905 834.003 763.558 841.656 763.558 851.02C763.558 852.551 763.378 854.081 762.928 855.432H794.98C794.62 853.991 794.35 852.551 794.35 851.02C794.35 841.656 802.003 834.003 811.456 834.003C820.91 834.003 828.563 841.656 828.563 851.02C828.563 852.551 828.383 854.081 827.933 855.432H836.036C838.737 855.432 840.898 853.901 840.898 852.01V824.01C841.078 821.939 838.917 820.408 836.216 820.408ZM789.218 798.98H813.257C814.518 798.98 815.598 799.79 815.958 800.961L820.64 816.987C820.91 817.797 820.73 818.698 820.19 819.328C819.65 819.958 818.839 820.408 817.939 820.408H789.128V798.98H789.218ZM756.175 819.328C755.635 818.698 755.455 817.797 755.725 816.987L760.407 800.961C760.767 799.79 761.847 798.98 763.108 798.98H787.147V820.318H758.336C757.616 820.408 756.716 819.958 756.175 819.328Z" fill="white"/>
<path d="M178.514 856.602L178.604 695.981H148.533L148.443 856.602H146.462L146.552 779.173H109.368L109.278 856.602H107.657L107.747 729.924H66.6014V856.512H63V865.516L183.016 865.606V856.692L178.514 856.602ZM166.72 706.155H174.283V716.328H166.81L166.72 706.155ZM166.72 725.422H174.193V735.596H166.72V725.422ZM166.72 744.689H174.193V754.863H166.72V744.689ZM166.72 764.047H174.193V774.221H166.72V764.047ZM166.72 783.314H174.193V793.488H166.72V783.314ZM166.63 802.581H174.102V812.755H166.54L166.63 802.581ZM166.63 821.849H174.102V850.75H166.63V821.849ZM153.665 706.155H161.138V716.328H153.665V706.155ZM153.665 725.422H161.138V735.596H153.665V725.422ZM153.575 744.689H161.047V754.863H153.575V744.689ZM153.575 764.047H161.047V774.221H153.575V764.047ZM153.575 783.314H161.047V793.488H153.575V783.314ZM153.575 802.581H161.047V812.755H153.575V802.581ZM153.575 821.849H161.047V832.023H153.575V821.849ZM91.5409 737.937H101.805V746.04H91.5409V737.937ZM91.5409 753.333H101.805V761.436H91.5409V753.333ZM91.5409 768.638H101.805V776.742H91.5409V768.638ZM91.5409 784.034H101.805V792.137H91.5409V784.034ZM91.5409 799.34H101.805V807.443H91.5409V799.34ZM91.5409 814.736H101.805V822.839H91.5409V814.736ZM91.5409 830.132H101.805V853.181H91.4509L91.5409 830.132ZM73.6241 737.937H83.888V746.04H73.6241V737.937ZM73.6241 753.333H83.888V761.436H73.6241V753.333ZM73.6241 768.638H83.888V776.742H73.6241V768.638ZM73.6241 784.034H83.888V792.137H73.6241V784.034ZM73.6241 799.34H83.888V807.443H73.6241V799.34ZM73.6241 814.736H83.888V822.839H73.6241V814.736ZM73.534 830.132H83.798V838.235H73.534V830.132ZM130.256 787.005H140.52V795.109H130.256V787.005ZM130.256 802.401H140.52V810.504H130.256V802.401ZM130.256 817.797H140.52V825.9H130.256V817.797ZM130.256 833.103H140.52V841.206H130.256V833.103ZM130.256 848.499H140.52V856.602H130.256V848.499ZM112.339 787.005H122.603V795.109H112.339V787.005ZM112.339 802.401H122.603V810.504H112.339V802.401ZM112.339 817.707H122.603V825.81H112.339V817.707ZM112.339 833.103H122.603V856.512H118.821H112.249L112.339 833.103Z" fill="white"/>
<path d="M260.626 737.757V725.692H180.945V737.757H186.887V853.451H183.016V865.606H258.555V853.451H254.683V737.757H260.626ZM236.046 740.548H247.03V752.883H236.046V740.548ZM236.046 755.674H247.03V768.008H236.046V755.674ZM236.046 770.709H247.03V783.044H236.046V770.709ZM236.046 785.835H247.03V798.17H236.046V785.835ZM236.046 800.961H247.03V813.296H236.046V800.961ZM236.046 816.087H247.03V828.421H236.046V816.087ZM236.046 831.212H247.03V843.547H236.046V831.212ZM222.271 740.548H233.255V752.883H222.271V740.548ZM222.271 755.674H233.255V768.008H222.271V755.674ZM222.271 770.709H233.255V783.044H222.271V770.709ZM222.271 785.835H233.255V798.17H222.271V785.835ZM222.271 800.961H233.255V813.296H222.271V800.961ZM222.271 816.087H233.255V828.421H222.271V816.087ZM222.271 831.212H233.255V843.547H222.271V831.212ZM208.406 740.548H219.39V752.883H208.406V740.548ZM208.406 755.674H219.39V768.008H208.406V755.674ZM208.406 770.709H219.39V783.044H208.406V770.709ZM208.406 785.835H219.39V798.17H208.406V785.835ZM208.406 800.961H219.39V813.296H208.406V800.961ZM208.406 816.087H219.39V828.421H208.406V816.087ZM208.406 831.212H219.39V843.547H208.406V831.212ZM194.54 740.548H205.524V752.883H194.54V740.548ZM194.54 755.674H205.524V768.008H194.54V755.674ZM194.54 770.709H205.524V783.044H194.54V770.709ZM194.54 785.835H205.524V798.17H194.54V785.835ZM194.54 800.961H205.524V813.296H194.54V800.961ZM194.54 816.087H205.524V828.421H194.54V816.087ZM194.54 831.212H205.524V843.547H194.54V831.212Z" fill="white"/>
<path d="M221.01 709.396L217.139 696.611C216.148 693.37 213.357 690.759 210.836 690.759H193.19C190.669 690.759 187.878 693.46 186.887 696.701L183.286 709.486C182.386 712.727 184.726 715.428 188.598 715.428H200.843V729.924H203.364V715.338H215.698C219.57 715.338 221.911 712.637 221.01 709.396ZM218.399 706.515H212.187L210.927 699.492H216.419L218.399 706.515ZM205.164 699.492H210.656L211.827 706.515H205.614L205.164 699.492ZM205.164 706.605H198.952L199.312 699.582H204.804L205.164 706.605ZM210.386 692.109C212.637 692.109 215.068 694.36 215.788 697.151L216.329 699.132H210.836L209.576 692.109H210.386ZM209.396 692.109L210.566 699.132H205.074L204.624 692.109H209.396ZM204.354 692.109L204.804 699.132H199.312L199.582 692.109H204.354ZM199.312 692.109L198.952 699.132H193.55L194.63 692.109H199.312ZM188.238 697.151C188.958 694.36 191.389 692.109 193.55 692.109H194.27L193.19 699.132H187.698L188.238 697.151ZM187.608 699.582H193.1L192.019 706.605H185.807L187.608 699.582ZM189.858 713.987C186.617 713.987 184.546 711.737 185.267 708.946L185.807 706.965H192.019L190.849 713.987H189.858V713.987ZM198.232 713.987H191.299L192.379 706.965H198.592L198.232 713.987ZM192.379 706.605L193.46 699.582H198.952L198.592 706.605H192.379ZM198.682 713.987L199.042 706.965H205.254L205.614 713.987H198.682ZM206.065 713.987L205.614 706.965H211.827L212.997 713.987H206.065ZM214.438 713.987H213.447L212.277 706.965H218.489L219.03 708.946C219.75 711.737 217.769 713.987 214.438 713.987Z" fill="white"/>
<path d="M260.265 709.396L256.394 696.611C255.403 693.37 252.612 690.759 250.091 690.759H232.445C229.924 690.759 227.133 693.46 226.232 696.701L222.541 709.486C221.64 712.727 223.981 715.428 227.853 715.428H240.098V729.924H242.618V715.338H254.953C258.915 715.338 261.256 712.637 260.265 709.396ZM257.744 706.515H251.532L250.361 699.492H255.854L257.744 706.515ZM244.419 699.492H249.911L251.082 706.515H244.869L244.419 699.492ZM244.509 706.605H238.297L238.567 699.582H244.059L244.509 706.605ZM249.731 692.109C251.982 692.109 254.413 694.36 255.133 697.151L255.673 699.132H250.181L248.921 692.109H249.731ZM248.741 692.109L249.911 699.132H244.419L243.969 692.109H248.741ZM243.699 692.109L244.149 699.132H238.657L238.927 692.109H243.699ZM238.657 692.109L238.297 699.132H232.805L233.885 692.109H238.657ZM227.583 697.151C228.303 694.36 230.734 692.109 232.895 692.109H233.615L232.535 699.132H227.043L227.583 697.151ZM226.953 699.582H232.445L231.364 706.605H225.152L226.953 699.582ZM229.113 713.987C225.872 713.987 223.801 711.737 224.522 708.946L225.062 706.965H231.274L230.194 713.987H229.113V713.987ZM237.577 713.987H230.644L231.724 706.965H237.937L237.577 713.987ZM231.724 706.605L232.805 699.582H238.297L237.937 706.605H231.724ZM238.027 713.987L238.297 706.965H244.509L244.869 713.987H238.027ZM245.41 713.987L244.959 706.965H251.172L252.342 713.987H245.41ZM253.783 713.987H252.792L251.622 706.965H257.834L258.374 708.946C259.095 711.737 257.024 713.987 253.783 713.987Z" fill="white"/>
<path d="M916.076 737.757V725.692H836.396V737.757H842.338V853.451H838.467V865.606H914.005V853.451H910.134V737.757H916.076ZM891.497 740.548H902.481V752.883H891.497V740.548ZM891.497 755.674H902.481V768.008H891.497V755.674ZM891.497 770.709H902.481V783.044H891.497V770.709ZM891.497 785.835H902.481V798.17H891.497V785.835ZM891.497 800.961H902.481V813.296H891.497V800.961ZM891.497 816.087H902.481V828.421H891.497V816.087ZM891.497 831.212H902.481V843.547H891.497V831.212ZM877.722 740.548H888.706V752.883H877.722V740.548ZM877.722 755.674H888.706V768.008H877.722V755.674ZM877.722 770.709H888.706V783.044H877.722V770.709ZM877.722 785.835H888.706V798.17H877.722V785.835ZM877.722 800.961H888.706V813.296H877.722V800.961ZM877.722 816.087H888.706V828.421H877.722V816.087ZM877.722 831.212H888.706V843.547H877.722V831.212ZM863.856 740.548H874.84V752.883H863.856V740.548ZM863.856 755.674H874.84V768.008H863.856V755.674ZM863.856 770.709H874.84V783.044H863.856V770.709ZM863.856 785.835H874.84V798.17H863.856V785.835ZM863.856 800.961H874.84V813.296H863.856V800.961ZM863.856 816.087H874.84V828.421H863.856V816.087ZM863.856 831.212H874.84V843.547H863.856V831.212ZM850.081 740.548H861.065V752.883H850.081V740.548ZM850.081 755.674H861.065V768.008H850.081V755.674ZM850.081 770.709H861.065V783.044H850.081V770.709ZM850.081 785.835H861.065V798.17H850.081V785.835ZM850.081 800.961H861.065V813.296H850.081V800.961ZM850.081 816.087H861.065V828.421H850.081V816.087ZM850.081 831.212H861.065V843.547H850.081V831.212Z" fill="white"/>
<path d="M876.461 709.396L872.589 696.611C871.599 693.37 868.808 690.759 866.287 690.759H848.64C846.119 690.759 843.328 693.46 842.338 696.701L838.736 709.486C837.836 712.727 840.177 715.428 844.049 715.428H856.293V729.924H858.814V715.338H871.149C875.02 715.338 877.451 712.637 876.461 709.396ZM873.85 706.515H867.638L866.467 699.492H871.959L873.85 706.515ZM860.615 699.492H866.107L867.277 706.515H861.065L860.615 699.492ZM860.615 706.605H854.403L854.763 699.582H860.255L860.615 706.605ZM865.837 692.109C868.088 692.109 870.519 694.36 871.239 697.151L871.779 699.132H866.287L865.027 692.109H865.837ZM864.846 692.109L866.017 699.132H860.525L860.075 692.109H864.846ZM859.805 692.109L860.255 699.132H854.763L855.033 692.109H859.805ZM854.763 692.109L854.403 699.132H849L850.081 692.109H854.763ZM843.688 697.151C844.409 694.36 846.84 692.109 849 692.109H849.721L848.64 699.132H843.148L843.688 697.151ZM843.058 699.582H848.55L847.47 706.605H841.258L843.058 699.582ZM845.309 713.987C842.068 713.987 839.997 711.737 840.717 708.946L841.258 706.965H847.47L846.299 713.987H845.309V713.987ZM853.682 713.987H846.75L847.83 706.965H854.042L853.682 713.987ZM847.83 706.605L848.91 699.582H854.403L854.042 706.605H847.83ZM854.132 713.987L854.403 706.965H860.615L860.975 713.987H854.132ZM861.515 713.987L861.065 706.965H867.277L868.448 713.987H861.515ZM869.978 713.987H868.988L867.818 706.965H874.03L874.57 708.946C875.2 711.737 873.22 713.987 869.978 713.987Z" fill="white"/>
<path d="M915.716 709.396L911.845 696.611C910.854 693.37 908.063 690.759 905.542 690.759H887.896C885.375 690.759 882.584 693.46 881.683 696.701L877.992 709.486C877.092 712.727 879.432 715.428 883.304 715.428H895.549V729.924H898.07V715.338H910.404C914.366 715.338 916.707 712.637 915.716 709.396ZM913.195 706.515H906.983L905.722 699.492H911.214L913.195 706.515ZM899.87 699.492H905.362L906.533 706.515H900.32L899.87 699.492ZM899.96 706.605H893.748L894.018 699.582H899.51L899.96 706.605ZM905.182 692.109C907.433 692.109 909.864 694.36 910.584 697.151L911.124 699.132H905.632L904.372 692.109H905.182ZM904.192 692.109L905.362 699.132H899.87L899.42 692.109H904.192ZM899.15 692.109L899.6 699.132H894.108L894.378 692.109H899.15ZM894.108 692.109L893.748 699.132H888.256L889.336 692.109H894.108ZM883.034 697.151C883.754 694.36 886.185 692.109 888.346 692.109H889.066L887.986 699.132H882.494L883.034 697.151ZM882.404 699.582H887.896L886.815 706.605H880.603L882.404 699.582ZM884.564 713.987C881.323 713.987 879.252 711.737 879.973 708.946L880.513 706.965H886.725L885.645 713.987H884.564V713.987ZM893.028 713.987H886.095L887.175 706.965H893.388L893.028 713.987ZM887.175 706.605L888.256 699.582H893.748L893.388 706.605H887.175ZM893.478 713.987L893.748 706.965H899.96L900.32 713.987H893.478ZM900.861 713.987L900.41 706.965H906.623L907.793 713.987H900.861ZM909.234 713.987H908.243L907.073 706.965H913.285L913.826 708.946C914.546 711.737 912.475 713.987 909.234 713.987Z" fill="white"/>
<path d="M1226.51 641.15L1223.45 630.886C1222.64 628.275 1220.39 626.114 1218.32 626.114H1204.1C1202.11 626.114 1199.77 628.275 1199.05 630.886L1196.08 641.15C1195.36 643.761 1197.25 645.921 1200.4 645.921H1210.31V657.716H1212.29V646.011H1222.28C1225.43 645.921 1227.32 643.851 1226.51 641.15ZM1224.44 638.899H1219.49L1218.5 633.226H1222.91L1224.44 638.899ZM1213.82 633.226H1218.23L1219.13 638.899H1214.18L1213.82 633.226ZM1213.82 638.899H1208.87L1209.14 633.226H1213.55L1213.82 638.899ZM1218.05 627.194C1219.85 627.194 1221.83 628.995 1222.46 631.246L1222.91 632.776H1218.5L1217.51 627.104L1218.05 627.194ZM1217.24 627.284L1218.14 632.956H1213.73L1213.37 627.284H1217.24ZM1213.19 627.284L1213.55 632.956H1209.14L1209.41 627.284H1213.19ZM1209.14 627.284L1208.87 632.956H1204.46L1205.27 627.284H1209.14ZM1200.13 631.336C1200.67 629.085 1202.66 627.284 1204.46 627.284H1205L1204.1 632.956H1199.68L1200.13 631.336ZM1199.68 633.226H1204.1L1203.2 638.899H1198.24L1199.68 633.226ZM1201.48 644.931C1198.87 644.931 1197.16 643.13 1197.79 640.879L1198.15 639.349H1203.2L1202.3 645.021H1201.48V644.931ZM1208.24 644.931H1202.66L1203.47 639.259H1208.51L1208.24 644.931ZM1203.56 638.899L1204.37 633.226H1208.78L1208.51 638.899H1203.56ZM1208.6 644.841L1208.87 639.169H1213.91L1214.27 644.841H1208.6ZM1214.54 644.841L1214.18 639.169H1219.22L1220.12 644.841H1214.54ZM1221.29 644.841H1220.48L1219.49 639.169H1224.53L1224.98 640.789C1225.61 643.04 1223.9 644.841 1221.29 644.841Z" fill="white"/>
<path d="M1258.21 641.15L1255.14 630.886C1254.33 628.275 1252.08 626.114 1250.01 626.114H1235.79C1233.81 626.114 1231.47 628.275 1230.75 630.886L1227.77 641.15C1227.05 643.761 1228.94 645.921 1232.1 645.921H1242V657.716H1243.98V646.011H1253.97C1257.13 645.921 1259.02 643.851 1258.21 641.15ZM1256.14 638.899H1251.09L1250.1 633.226H1254.51L1256.14 638.899ZM1245.42 633.226H1249.83L1250.73 638.899H1245.78L1245.42 633.226ZM1245.51 638.899H1240.56L1240.83 633.226H1245.24L1245.51 638.899ZM1249.74 627.194C1251.54 627.194 1253.52 628.995 1254.15 631.246L1254.6 632.776H1250.19L1249.2 627.104L1249.74 627.194ZM1248.93 627.284L1249.83 632.956H1245.42L1245.06 627.284H1248.93ZM1244.79 627.284L1245.15 632.956H1240.74L1241.01 627.284H1244.79ZM1240.74 627.284L1240.47 632.956H1236.06L1236.96 627.284H1240.74ZM1231.83 631.336C1232.37 629.085 1234.35 627.284 1236.15 627.284H1236.69L1235.79 632.956H1231.38L1231.83 631.336ZM1231.38 633.226H1235.79L1234.89 638.899H1229.94L1231.38 633.226ZM1233.09 644.931C1230.48 644.931 1228.76 643.13 1229.4 640.879L1229.85 639.349H1234.89L1233.99 645.021H1233.09V644.931ZM1239.93 644.931H1234.35L1235.16 639.259H1240.2L1239.93 644.931ZM1235.25 638.899L1236.06 633.226H1240.47L1240.2 638.899H1235.25ZM1240.29 644.841L1240.56 639.169H1245.6L1245.96 644.841H1240.29ZM1246.23 644.841L1245.87 639.169H1250.91L1251.81 644.841H1246.23ZM1252.98 644.841H1252.17L1251.18 639.169H1256.23L1256.68 640.789C1257.31 643.04 1255.59 644.841 1252.98 644.841Z" fill="white"/>
<path d="M1258.12 851.38L1257.94 653.034L1196.17 653.124L1196.35 851.38H1194.01L1193.92 730.194H1187.26V719.66H1144.49V730.194H1138.1L1138.19 851.38H1135.22L1135.04 600.004H1132.25L1130.45 594.962H1125.77L1112.44 580.106L1099.12 594.962H1094.43L1092.63 600.004H1090.11L1090.29 851.38H1083.45V865.425L1263.79 865.335V851.29H1258.12V851.38ZM1096.41 616.12H1107.67V632.056H1096.41V616.12ZM1096.41 646.282H1107.67V662.218H1096.41V646.282ZM1096.41 676.443H1107.67V692.379H1096.41V676.443ZM1096.41 706.605H1107.67V722.541H1096.41V706.605ZM1096.5 736.766H1107.76V752.702H1096.5V736.766ZM1096.5 766.928H1107.76V782.864H1096.5V766.928ZM1096.5 842.376V797.089H1107.76V842.376H1096.5ZM1127.39 616.03V631.966H1116.13V616.03H1127.39ZM1116.04 646.282H1127.3V662.218H1116.04V646.282ZM1116.13 676.443H1127.39V692.379H1116.13V676.443ZM1116.13 706.605H1127.39V722.541H1116.13V706.605ZM1116.13 736.766H1127.39V752.702H1116.13V736.766ZM1116.13 766.928H1127.39V782.864H1116.13V766.928ZM1116.22 813.025V797.089H1127.48V813.025H1116.22ZM1147.01 742.708H1162.5V755.403H1147.01V742.708ZM1162.41 766.658V779.352H1147.01V766.658H1162.41ZM1147.01 790.697H1162.41V803.392H1146.92L1147.01 790.697ZM1162.5 814.826V827.521H1147.01V814.826H1162.5ZM1162.5 851.47H1147.1V838.775H1162.59V851.47H1162.5ZM1173.93 742.618H1189.33V755.313H1173.84V742.618H1173.93ZM1189.42 766.658V779.352H1174.02V766.658H1189.42ZM1189.42 790.697V803.392H1174.02V790.697H1189.42ZM1179.61 851.47H1174.02V814.736H1189.51V851.47H1179.61ZM1205.18 665.819H1220.57V678.514H1205.09V665.819H1205.18ZM1205.18 689.858H1220.66V702.553H1205.18V689.858ZM1205.18 713.897H1220.57V726.592H1205.09L1205.18 713.897ZM1205.18 737.937H1220.57V750.631H1205.09V737.937H1205.18ZM1205.18 761.976H1220.57V774.671H1205.09L1205.18 761.976ZM1205.27 786.015H1220.66V798.71H1205.18V786.015H1205.27ZM1205.27 846.158V810.054H1220.75V846.158H1205.27ZM1247.49 665.819V678.514H1232.01V665.819H1247.49ZM1247.49 689.858V702.553H1232.01V689.858H1247.49ZM1232.1 713.897H1247.58V726.592H1232.1V713.897ZM1232.1 737.937H1247.49V750.631H1232.1V737.937ZM1232.19 761.976H1247.67V774.671H1232.19V761.976ZM1232.19 786.015H1247.58V798.71H1232.1V786.015H1232.19ZM1232.19 822.749V810.054H1247.67V822.749H1232.19Z" fill="white"/>
<path d="M678.835 806.093C678.835 806.093 673.613 798.62 668.121 798.17C662.719 797.81 658.037 801.051 657.677 805.553C657.407 810.054 678.835 806.093 678.835 806.093ZM667.671 799.43C670.282 799.61 673.703 802.491 674.694 803.392C673.523 802.401 668.571 798.89 660.558 801.771C659.838 801.951 664.61 799.16 667.671 799.43Z" fill="white"/>
<path d="M688.919 825.45L675.864 811.405L673.433 811.855C673.703 811.135 673.794 810.414 673.794 809.604C673.794 808.884 673.703 808.074 673.433 807.443C672.443 807.533 671.273 807.713 670.102 807.803C670.012 810.324 669.742 812.035 669.022 813.476C668.391 814.826 667.311 815.907 665.78 816.897C665.961 816.897 666.231 816.897 666.501 816.897C667.761 816.897 668.932 816.537 669.922 815.997L669.562 817.617L670.282 818.788L663.53 827.611C662.719 828.691 662.899 830.222 663.98 831.032C664.43 831.392 664.97 831.573 665.42 831.573C666.141 831.573 666.861 831.212 667.311 830.582L672.983 823.199L677.575 830.492L670.372 833.553C670.282 833.553 670.192 833.643 670.192 833.643H679.736L680.726 835.264L671.993 854.891C671.273 856.422 671.993 858.223 673.523 858.943C673.884 859.123 674.334 859.213 674.784 859.213C675.954 859.213 677.035 858.493 677.575 857.412L690.09 829.322C690.81 827.881 690.27 826.261 688.919 825.45Z" fill="white"/>
<path d="M659.208 809.604C659.208 812.935 661.459 815.817 664.52 816.627C667.941 814.826 669.111 812.755 669.292 807.894C667.491 808.074 665.6 808.164 663.89 808.164C661.999 808.164 660.468 807.984 659.388 807.713C659.298 808.344 659.208 808.974 659.208 809.604Z" fill="white"/>
<path d="M669.201 846.428C669.291 846.428 669.291 846.428 669.201 846.428L669.382 846.338H670.282C670.822 846.338 673.613 846.338 673.613 846.338H673.703C673.883 846.338 673.973 846.428 674.063 846.518C674.514 845.978 674.784 845.348 674.784 844.628V838.325L677.935 836.975H668.661V844.628C668.661 845.348 668.931 845.978 669.201 846.428Z" fill="white"/>
<path d="M669.112 830.582C669.112 830.312 669.022 830.042 668.752 829.862L667.851 831.032C667.671 831.302 667.401 831.572 667.131 831.753H668.031C668.662 831.663 669.112 831.122 669.112 830.582Z" fill="white"/>
<path d="M692.881 843.637C691.44 843.637 690.09 843.907 688.919 844.357L686.398 839.405L685.318 841.926L687.028 845.348C684.237 847.148 682.347 850.119 681.987 853.541H680.096L679.195 855.702H681.987C682.527 861.284 687.208 865.605 692.881 865.605C698.913 865.605 703.865 860.653 703.865 854.621C703.865 848.499 698.913 843.637 692.881 843.637ZM687.929 847.238L691.08 853.451C691.08 853.451 691.08 853.451 691.08 853.541H684.057C684.417 850.93 685.858 848.679 687.929 847.238ZM692.881 863.445C688.379 863.445 684.597 860.023 684.057 855.702H691.08C691.44 856.332 692.07 856.692 692.881 856.692C694.051 856.692 694.951 855.792 694.951 854.621C694.951 853.541 694.051 852.64 692.971 852.55L689.819 846.338C690.72 845.978 691.8 845.798 692.881 845.798C697.742 845.798 701.704 849.759 701.704 854.621C701.704 859.483 697.742 863.445 692.881 863.445Z" fill="white"/>
<path d="M674.874 859.843C674.334 859.843 673.883 859.753 673.343 859.483C672.983 859.303 672.623 859.123 672.353 858.853C671.993 859.213 672.173 859.933 672.713 860.113C674.064 860.113 675.414 860.113 676.765 860.113C677.305 859.933 677.485 859.303 677.215 858.943C676.584 859.483 675.774 859.843 674.874 859.843Z" fill="white"/>
<path d="M672.263 851.47V848.499C672.713 848.499 673.163 848.499 673.613 848.499C674.333 848.229 674.333 847.239 673.613 846.968C672.263 846.968 670.912 846.968 669.562 846.968C668.841 847.149 668.841 848.229 669.562 848.499C670.012 848.499 670.462 848.499 670.912 848.499V851.74L660.468 837.515L660.918 836.434H679.646L680.096 835.354L679.375 834.274H661.729L662.809 831.663H663.799C663.709 831.663 663.709 831.573 663.619 831.573C662.989 831.032 662.539 830.312 662.449 829.592H662.089C661.639 829.592 661.278 829.862 661.098 830.222L655.336 844.087C654.346 843.817 653.265 843.637 652.185 843.637C646.153 843.637 641.201 848.589 641.201 854.621C641.201 860.654 646.153 865.606 652.185 865.606C658.217 865.606 663.169 860.654 663.169 854.621C663.169 850.39 660.738 846.788 657.317 844.898L659.388 839.856L671.002 855.702H671.182C671.272 855.342 671.362 854.982 671.452 854.711L674.694 847.419L672.263 851.47ZM661.098 854.621C661.098 859.483 657.137 863.445 652.275 863.445C647.413 863.445 643.452 859.483 643.452 854.621C643.452 849.76 647.413 845.798 652.275 845.798C653.085 845.798 653.806 845.888 654.616 846.068L651.915 852.551C650.924 852.731 650.204 853.631 650.204 854.621C650.204 855.792 651.105 856.692 652.275 856.692C653.445 856.692 654.346 855.792 654.346 854.621C654.346 854.081 654.166 853.631 653.896 853.271L656.597 846.878C659.298 848.319 661.098 851.29 661.098 854.621Z" fill="white"/>
<path d="M1551.45 748.021L1532.09 771.339V759.545C1533.35 759.185 1534.25 758.104 1534.25 756.844C1534.25 755.313 1532.9 754.053 1531.19 754.053H1520.39C1518.68 754.053 1517.33 755.313 1517.33 756.844C1517.33 758.104 1518.23 759.185 1519.49 759.545V786.465L1500.13 809.784H1508.77V865.605H1594.22V809.784H1602.86L1551.45 748.021ZM1552.71 783.674H1563.06V794.028H1552.71V783.674ZM1552.71 796.459H1563.06V806.813H1552.71V796.459ZM1539.92 783.674H1550.28V794.028H1539.92V783.674ZM1539.92 796.459H1550.28V806.813H1539.92V796.459ZM1563.51 860.564H1539.47V836.524C1539.47 829.862 1544.88 824.46 1551.54 824.46C1558.2 824.46 1563.51 829.862 1563.51 836.524V860.564Z" fill="white"/>
<path d="M1628.97 782.054L1615.19 798.62V790.247C1616.09 789.977 1616.72 789.256 1616.72 788.356C1616.72 787.276 1615.73 786.375 1614.56 786.375H1606.91C1605.74 786.375 1604.75 787.276 1604.75 788.356C1604.75 789.256 1605.38 789.977 1606.28 790.247V809.334L1592.5 825.9H1598.63V865.516H1659.31V825.9H1665.43L1628.97 782.054ZM1629.78 807.353H1637.16V814.736H1629.78V807.353ZM1629.78 816.447H1637.16V823.83H1629.78V816.447ZM1620.78 807.353H1628.16V814.736H1620.78V807.353ZM1620.78 816.447H1628.16V823.83H1620.78V816.447ZM1637.52 862.004H1620.42V844.898C1620.42 840.216 1624.2 836.344 1628.97 836.344C1633.65 836.344 1637.52 840.216 1637.52 844.898V862.004Z" fill="white"/>
<path d="M1584.4 714.798C1584.4 716.869 1582.69 718.579 1580.62 718.579C1578.55 718.579 1576.84 716.869 1576.84 714.798C1576.84 712.727 1578.55 711.016 1580.62 711.016C1582.69 710.926 1584.4 712.637 1584.4 714.798Z" fill="white"/>
<path d="M1587.64 714.257L1584.67 715.428C1584.49 716.418 1583.95 717.229 1583.23 717.859L1583.68 721.01L1616.99 736.676L1617.8 735.235L1587.64 714.257Z" fill="white"/>
<path d="M1576.48 715.518L1573.51 714.348L1543.26 735.326L1544.07 736.766L1577.38 721.1L1577.83 717.949C1577.2 717.319 1576.66 716.418 1576.48 715.518Z" fill="white"/>
<path d="M1580.62 710.566C1581.16 710.566 1581.61 710.656 1582.06 710.836L1584.58 708.856L1581.52 672.212H1579.9L1576.84 708.856L1579.36 710.836C1579.63 710.656 1580.08 710.566 1580.62 710.566Z" fill="white"/>
<path d="M1578.1 808.164L1578.73 721.1C1578.73 721.1 1579.9 718.849 1580.62 718.849C1581.25 718.849 1582.42 721.1 1582.42 721.1V808.164L1581.43 808.974H1579.09L1578.1 808.164Z" fill="white"/>
<path d="M1592.05 813.296H1569.19L1571.98 808.164H1589.17L1592.05 813.296Z" fill="white"/>
<path d="M1583.5 808.434C1583.5 809.244 1582.06 809.964 1580.35 809.964C1578.55 809.964 1577.2 809.334 1577.2 808.434C1577.2 807.623 1578.64 806.903 1580.35 806.903C1582.06 806.903 1583.5 807.623 1583.5 808.434Z" fill="white"/>
<path d="M1542.36 709.126C1542.36 710.566 1541.18 711.737 1539.74 711.737C1538.3 711.737 1537.13 710.566 1537.13 709.126C1537.13 707.685 1538.3 706.515 1539.74 706.515C1541.18 706.515 1542.36 707.685 1542.36 709.126Z" fill="white"/>
<path d="M1544.61 708.856L1542.54 709.666C1542.45 710.386 1542.09 710.926 1541.54 711.376L1541.82 713.537L1564.95 724.431L1565.49 723.441L1544.61 708.856Z" fill="white"/>
<path d="M1536.86 709.666L1534.79 708.856L1513.81 723.441L1514.35 724.431L1537.49 713.537L1537.76 711.376C1537.31 710.926 1536.95 710.296 1536.86 709.666Z" fill="white"/>
<path d="M1539.65 706.244C1540.01 706.244 1540.37 706.335 1540.64 706.425L1542.36 705.074L1540.19 679.594H1539.02L1536.86 705.074L1538.57 706.425C1539.02 706.335 1539.38 706.244 1539.65 706.244Z" fill="white"/>
<path d="M1537.94 774.04L1538.39 713.537C1538.39 713.537 1539.2 712.007 1539.65 712.007C1540.1 712.007 1540.91 713.537 1540.91 713.537V774.04L1540.19 774.581H1538.57L1537.94 774.04Z" fill="white"/>
<path d="M1547.67 777.642H1531.73L1533.71 774.131H1545.69L1547.67 777.642Z" fill="white"/>
<path d="M1541.73 774.311C1541.73 774.941 1540.73 775.391 1539.47 775.391C1538.21 775.391 1537.22 774.941 1537.22 774.311C1537.22 773.77 1538.21 773.23 1539.47 773.23C1540.73 773.23 1541.73 773.68 1541.73 774.311Z" fill="white"/>
<path d="M1631.04 743.429C1631.04 744.6 1630.05 745.59 1628.88 745.59C1627.71 745.59 1626.72 744.6 1626.72 743.429C1626.72 742.259 1627.71 741.268 1628.88 741.268C1630.14 741.268 1631.04 742.259 1631.04 743.429Z" fill="white"/>
<path d="M1632.93 743.159L1631.22 743.789C1631.13 744.329 1630.86 744.779 1630.41 745.14L1630.68 746.94L1649.59 755.854L1650.04 755.043L1632.93 743.159Z" fill="white"/>
<path d="M1626.63 743.879L1624.92 743.249L1607.81 755.133L1608.26 755.944L1627.17 747.03L1627.44 745.23C1626.99 744.869 1626.72 744.419 1626.63 743.879Z" fill="white"/>
<path d="M1628.88 741.088C1629.15 741.088 1629.42 741.088 1629.69 741.268L1631.13 740.188L1629.42 719.39H1628.52L1626.81 740.188L1628.25 741.268C1628.34 741.178 1628.61 741.088 1628.88 741.088Z" fill="white"/>
<path d="M1627.53 796.369L1627.89 747.03C1627.89 747.03 1628.52 745.77 1628.97 745.77C1629.33 745.77 1629.96 747.03 1629.96 747.03V796.369L1629.42 796.819H1628.07L1627.53 796.369Z" fill="white"/>
<path d="M1635.36 799.34H1622.4L1624.02 796.459H1633.83L1635.36 799.34Z" fill="white"/>
<path d="M1630.59 796.549C1630.59 796.999 1629.78 797.449 1628.79 797.449C1627.8 797.449 1626.99 797.089 1626.99 796.549C1626.99 796.099 1627.8 795.649 1628.79 795.649C1629.78 795.739 1630.59 796.099 1630.59 796.549Z" fill="white"/>
<path d="M1856.49 627.915V612.879H1841.36V599.824H1830.92L1801.38 571.463L1771.76 599.824H1761.32V612.879H1746.19V627.915H1759.7V850.57H1754.75H1749.97V707.505H1757.36V692.559H1659.4V707.505H1666.78V850.57H1662.01V865.605H1746.28H1754.84H1856.49V850.57H1842.98V627.915H1856.49ZM1689.65 838.325H1676.15V823.109H1689.65V838.325ZM1689.65 819.598H1676.15V804.382H1689.65V819.598ZM1689.65 800.961H1676.15V785.745H1689.65V800.961ZM1689.65 782.234H1676.15V767.018H1689.65V782.234ZM1689.65 763.506H1676.15V748.291H1689.65V763.506ZM1689.65 744.869H1676.15V729.653H1689.65V744.869ZM1689.65 726.142H1676.15V710.926H1689.65V726.142ZM1706.67 838.325H1693.16V823.109H1706.67V838.325ZM1706.67 819.598H1693.16V804.382H1706.67V819.598ZM1706.67 800.961H1693.16V785.745H1706.67V800.961ZM1706.67 782.234H1693.16V767.018H1706.67V782.234ZM1706.67 763.506H1693.16V748.291H1706.67V763.506ZM1706.67 744.869H1693.16V729.653H1706.67V744.869ZM1706.67 726.142H1693.16V710.926H1706.67V726.142ZM1723.59 838.325H1710.09V823.109H1723.59V838.325ZM1723.59 819.598H1710.09V804.382H1723.59V819.598ZM1723.59 800.961H1710.09V785.745H1723.59V800.961ZM1723.59 782.234H1710.09V767.018H1723.59V782.234ZM1723.59 763.506H1710.09V748.291H1723.59V763.506ZM1723.59 744.869H1710.09V729.653H1723.59V744.869ZM1723.59 726.142H1710.09V710.926H1723.59V726.142ZM1740.61 838.325H1727.11V823.109H1740.61V838.325ZM1740.61 819.598H1727.11V804.382H1740.61V819.598ZM1740.61 800.961H1727.11V785.745H1740.61V800.961ZM1740.61 782.234H1727.11V767.018H1740.61V782.234ZM1740.61 763.506H1727.11V748.291H1740.61V763.506ZM1740.61 744.869H1727.11V729.653H1740.61V744.869ZM1740.61 726.142H1727.11V710.926H1740.61V726.142ZM1782.66 838.325H1769.15V823.109H1782.66V838.325ZM1782.66 819.598H1769.15V804.382H1782.66V819.598ZM1782.66 800.961H1769.15V785.745H1782.66V800.961ZM1782.66 782.234H1769.15V767.018H1782.66V782.234ZM1782.66 763.506H1769.15V748.291H1782.66V763.506ZM1782.66 744.869H1769.15V729.653H1782.66V744.869ZM1782.66 726.142H1769.15V710.926H1782.66V726.142ZM1782.66 707.505H1769.15V692.289H1782.66V707.505ZM1782.66 688.778H1769.15V673.562H1782.66V688.778ZM1782.66 670.051H1769.15V654.835H1782.66V670.051ZM1782.66 651.414H1769.15V636.198H1782.66V651.414ZM1799.58 838.325H1786.08V823.109H1799.58V838.325ZM1799.58 819.598H1786.08V804.382H1799.58V819.598ZM1799.58 800.961H1786.08V785.745H1799.58V800.961ZM1799.58 782.234H1786.08V767.018H1799.58V782.234ZM1799.58 763.506H1786.08V748.291H1799.58V763.506ZM1799.58 744.869H1786.08V729.653H1799.58V744.869ZM1799.58 726.142H1786.08V710.926H1799.58V726.142ZM1799.58 707.505H1786.08V692.289H1799.58V707.505ZM1799.58 688.778H1786.08V673.562H1799.58V688.778ZM1799.58 670.051H1786.08V654.835H1799.58V670.051ZM1799.58 651.414H1786.08V636.198H1799.58V651.414ZM1816.6 838.325H1803.09V823.109H1816.6V838.325ZM1816.6 819.598H1803.09V804.382H1816.6V819.598ZM1816.6 800.961H1803.09V785.745H1816.6V800.961ZM1816.6 782.234H1803.09V767.018H1816.6V782.234ZM1816.6 763.506H1803.09V748.291H1816.6V763.506ZM1816.6 744.869H1803.09V729.653H1816.6V744.869ZM1816.6 726.142H1803.09V710.926H1816.6V726.142ZM1816.6 707.505H1803.09V692.289H1816.6V707.505ZM1816.6 688.778H1803.09V673.562H1816.6V688.778ZM1816.6 670.051H1803.09V654.835H1816.6V670.051ZM1816.6 651.414H1803.09V636.198H1816.6V651.414ZM1833.62 838.325H1820.11V823.109H1833.62V838.325ZM1833.62 819.598H1820.11V804.382H1833.62V819.598ZM1833.62 800.961H1820.11V785.745H1833.62V800.961ZM1833.62 782.234H1820.11V767.018H1833.62V782.234ZM1833.62 763.506H1820.11V748.291H1833.62V763.506ZM1833.62 744.869H1820.11V729.653H1833.62V744.869ZM1833.62 726.142H1820.11V710.926H1833.62V726.142ZM1833.62 707.505H1820.11V692.289H1833.62V707.505ZM1833.62 688.778H1820.11V673.562H1833.62V688.778ZM1833.62 670.051H1820.11V654.835H1833.62V670.051ZM1833.62 651.414H1820.11V636.198H1833.62V651.414Z" fill="white"/>
<path d="M1677.32 679.775H1674.62V695.891H1677.32V679.775Z" fill="white"/>
<path d="M1683.53 668.16L1682.54 661.858H1678.4L1678.67 668.16H1683.53Z" fill="white"/>
<path d="M1673.27 668.16L1673.72 661.858H1669.57L1668.49 668.16H1673.27Z" fill="white"/>
<path d="M1679.03 674.643H1684.52L1683.53 668.43H1678.76L1679.03 674.643Z" fill="white"/>
<path d="M1678.4 668.16L1678.13 661.858H1673.99L1673.63 668.16H1678.4Z" fill="white"/>
<path d="M1669.3 661.858H1668.67C1666.69 661.858 1664.53 663.928 1663.9 666.359L1663.45 668.07H1668.22L1669.3 661.858Z" fill="white"/>
<path d="M1668.49 668.43L1667.41 674.643H1672.9L1673.27 668.43H1668.49Z" fill="white"/>
<path d="M1673.63 668.43L1673.27 674.643H1678.67L1678.4 668.43H1673.63Z" fill="white"/>
<path d="M1688.57 668.16L1688.12 666.449C1687.49 664.018 1685.33 661.948 1683.44 661.948H1682.81L1683.8 668.16H1688.57Z" fill="white"/>
<path d="M1668.13 668.43H1663.36L1661.65 674.643H1667.14L1668.13 668.43Z" fill="white"/>
<path d="M1679.03 675.003L1679.39 681.215H1685.51L1684.52 675.003H1679.03Z" fill="white"/>
<path d="M1683.89 668.43L1684.88 674.643H1690.28L1688.66 668.43H1683.89Z" fill="white"/>
<path d="M1685.87 681.215H1686.77C1689.65 681.215 1691.45 679.234 1690.82 676.713L1690.37 675.003H1684.88L1685.87 681.215Z" fill="white"/>
<path d="M1673.26 675.003L1672.9 681.215H1679.03L1678.67 675.003H1673.26Z" fill="white"/>
<path d="M1661.56 675.003L1661.11 676.713C1660.48 679.144 1662.28 681.215 1665.07 681.215H1665.97L1667.05 675.003H1661.56Z" fill="white"/>
<path d="M1667.41 675.003L1666.33 681.215H1672.46L1672.91 675.003H1667.41Z" fill="white"/>
<path d="M1709.01 679.775H1706.31V695.891H1709.01V679.775Z" fill="white"/>
<path d="M1715.22 668.16L1714.32 661.858H1710.09L1710.45 668.16H1715.22Z" fill="white"/>
<path d="M1705.05 668.16L1705.41 661.858H1701.27L1700.28 668.16H1705.05Z" fill="white"/>
<path d="M1710.81 674.643H1716.21L1715.31 668.43H1710.45L1710.81 674.643Z" fill="white"/>
<path d="M1710.09 668.16L1709.82 661.858H1705.68L1705.32 668.16H1710.09Z" fill="white"/>
<path d="M1701 661.858H1700.37C1698.38 661.858 1696.22 663.928 1695.59 666.359L1695.14 668.07H1699.92L1701 661.858Z" fill="white"/>
<path d="M1700.19 668.43L1699.2 674.643H1704.6L1705.05 668.43H1700.19Z" fill="white"/>
<path d="M1705.32 668.43L1704.96 674.643H1710.45L1710.18 668.43H1705.32Z" fill="white"/>
<path d="M1720.35 668.16L1719.9 666.449C1719.27 664.018 1717.11 661.948 1715.22 661.948H1714.59L1715.58 668.16H1720.35Z" fill="white"/>
<path d="M1699.92 668.43H1695.05L1693.34 674.643H1698.83L1699.92 668.43Z" fill="white"/>
<path d="M1710.81 675.003L1711.08 681.215H1717.2L1716.3 675.003H1710.81Z" fill="white"/>
<path d="M1715.58 668.43L1716.57 674.643H1721.97L1720.44 668.43H1715.58Z" fill="white"/>
<path d="M1717.56 681.215H1718.46C1721.34 681.215 1723.14 679.234 1722.51 676.713L1722.06 675.003H1716.57L1717.56 681.215Z" fill="white"/>
<path d="M1704.96 675.003L1704.6 681.215H1710.72L1710.45 675.003H1704.96Z" fill="white"/>
<path d="M1693.25 675.003L1692.8 676.713C1692.17 679.144 1693.97 681.215 1696.76 681.215H1697.66L1698.75 675.003H1693.25Z" fill="white"/>
<path d="M1699.11 675.003L1698.11 681.215H1704.24L1704.6 675.003H1699.11Z" fill="white"/>
<path d="M1740.79 679.775H1738.09V695.891H1740.79V679.775Z" fill="white"/>
<path d="M1747 668.16L1746.01 661.858H1741.87L1742.14 668.16H1747Z" fill="white"/>
<path d="M1736.74 668.16L1737.19 661.858H1732.96L1731.97 668.16H1736.74Z" fill="white"/>
<path d="M1742.5 674.643H1747.9L1747 668.43H1742.14L1742.5 674.643Z" fill="white"/>
<path d="M1741.87 668.16L1741.6 661.858H1737.46L1737.1 668.16H1741.87Z" fill="white"/>
<path d="M1732.69 661.858H1732.06C1730.08 661.858 1727.92 663.928 1727.29 666.359L1726.84 668.07H1731.61L1732.69 661.858Z" fill="white"/>
<path d="M1731.88 668.43L1730.89 674.643H1736.38L1736.74 668.43H1731.88Z" fill="white"/>
<path d="M1737.1 668.43L1736.74 674.643H1742.14L1741.87 668.43H1737.1Z" fill="white"/>
<path d="M1752.05 668.16L1751.59 666.449C1750.96 664.018 1748.8 661.948 1746.91 661.948H1746.28L1747.27 668.16H1752.05Z" fill="white"/>
<path d="M1731.61 668.43H1726.84L1725.12 674.643H1730.53L1731.61 668.43Z" fill="white"/>
<path d="M1742.5 675.003L1742.86 681.215H1748.89L1747.99 675.003H1742.5Z" fill="white"/>
<path d="M1747.36 668.43L1748.26 674.643H1753.76L1752.14 668.43H1747.36Z" fill="white"/>
<path d="M1749.34 681.215H1750.24C1753.13 681.215 1754.93 679.234 1754.3 676.713L1753.85 675.003H1748.35L1749.34 681.215Z" fill="white"/>
<path d="M1736.65 675.003L1736.38 681.215H1742.41L1742.14 675.003H1736.65Z" fill="white"/>
<path d="M1725.04 675.003L1724.58 676.713C1723.95 679.144 1725.76 681.215 1728.55 681.215H1729.45L1730.53 675.003H1725.04Z" fill="white"/>
<path d="M1730.89 675.003L1729.81 681.215H1735.93L1736.38 675.003H1730.89Z" fill="white"/>
<path d="M1497.52 852.821L1497.7 623.593H1455.02L1454.84 852.821H1452.05L1452.14 742.258L1399.38 742.168L1399.29 852.73H1397.04L1397.13 671.851L1338.79 671.761L1338.61 852.64H1333.57V865.425L1503.91 865.515V852.73H1497.52V852.821ZM1480.86 637.998H1491.49V652.494H1480.86V637.998ZM1480.86 665.549H1491.58V680.044H1480.95V665.549H1480.86ZM1480.86 693.099H1491.49V707.595H1480.86V693.099ZM1480.77 720.56H1491.4V735.055H1480.77V720.56ZM1480.77 748.11H1491.4V762.606H1480.77V748.11ZM1480.77 775.661H1491.4V790.157H1480.77V775.661ZM1480.77 803.122H1491.4V844.357H1480.77V803.122ZM1462.32 637.998H1472.94V652.494H1462.32V637.998ZM1462.32 665.549H1472.94V680.044H1462.32V665.549ZM1462.23 693.099H1472.85V707.595H1462.23V693.099ZM1462.23 720.56H1472.85V735.055H1462.23V720.56ZM1462.23 748.11H1472.85V762.606H1462.23V748.11ZM1462.23 775.661H1472.85V790.157H1462.23V775.661ZM1462.14 803.122H1472.76V817.617H1462.14V803.122ZM1374.17 683.376H1388.76V694.9H1374.17V683.376ZM1374.17 705.344H1388.76V716.869H1374.17V705.344ZM1374.17 727.223H1388.76V738.747H1374.17V727.223ZM1374.17 749.191H1388.76V760.715H1374.17V749.191ZM1374.17 771.069H1388.76V782.684H1374.17V771.069ZM1374.17 793.038H1388.76V804.562H1374.17V793.038ZM1374.08 814.916H1388.67V847.779H1374.08V814.916ZM1348.78 683.376H1363.37V694.9H1348.78V683.376ZM1348.78 705.344H1363.37V716.959H1348.78V705.344ZM1348.69 727.223H1363.28V738.837H1348.69V727.223ZM1348.69 749.191H1363.28V760.715H1348.69V749.191ZM1348.69 771.069H1363.28V782.594H1348.69V771.069ZM1348.69 792.948H1363.28V804.562H1348.69V792.948ZM1348.69 814.916H1363.28V826.53H1348.69V814.916ZM1429.18 753.513H1443.77V765.037H1429.18V753.513ZM1429.09 775.391H1443.68V787.005H1429.09V775.391ZM1429.09 797.359H1443.68V808.974H1429.09V797.359ZM1429.09 819.238H1443.68V830.852H1429.09V819.238ZM1429.09 841.116H1443.68V852.73H1429.09V841.116ZM1403.7 753.423H1418.29V765.037H1403.7V753.423ZM1403.7 775.391H1418.29V787.005H1403.7V775.391ZM1403.7 797.269H1418.29V808.884H1403.7V797.269ZM1403.61 819.238H1418.2V852.73H1412.89H1403.61V819.238Z" fill="white"/>
<path d="M1348.06 657.716H1344.91V676.353H1348.06V657.716Z" fill="white"/>
<path d="M1355.26 644.211L1354.18 637.098H1349.32L1349.68 644.211H1355.26Z" fill="white"/>
<path d="M1343.47 644.211L1343.92 637.098H1339.15L1337.89 644.211H1343.47Z" fill="white"/>
<path d="M1350.13 651.864H1356.43L1355.26 644.661H1349.77L1350.13 651.864Z" fill="white"/>
<path d="M1349.32 644.211L1349.05 637.098H1344.19L1343.83 644.211H1349.32Z" fill="white"/>
<path d="M1338.79 637.098H1338.07C1335.82 637.098 1333.3 639.439 1332.58 642.32L1332.04 644.301H1337.62L1338.79 637.098Z" fill="white"/>
<path d="M1337.89 644.661L1336.72 651.864H1343.02L1343.47 644.661H1337.89Z" fill="white"/>
<path d="M1343.83 644.661L1343.38 651.864H1349.68L1349.41 644.661H1343.83Z" fill="white"/>
<path d="M1361.12 644.211L1360.58 642.23C1359.86 639.349 1357.42 637.008 1355.08 637.008H1354.36L1355.53 644.211H1361.12Z" fill="white"/>
<path d="M1337.53 644.661H1331.95L1329.96 651.864H1336.27L1337.53 644.661Z" fill="white"/>
<path d="M1350.13 652.224L1350.49 659.427H1357.51L1356.43 652.224H1350.13Z" fill="white"/>
<path d="M1355.71 644.661L1356.79 651.864H1363.1L1361.21 644.661H1355.71Z" fill="white"/>
<path d="M1357.97 659.427H1358.96C1362.29 659.427 1364.36 657.086 1363.64 654.205L1363.1 652.224H1356.79L1357.97 659.427Z" fill="white"/>
<path d="M1343.38 652.224L1342.93 659.427H1350.04L1349.68 652.224H1343.38Z" fill="white"/>
<path d="M1329.87 652.224L1329.33 654.205C1328.52 657.086 1330.68 659.427 1333.93 659.427H1334.92L1336.09 652.224H1329.87Z" fill="white"/>
<path d="M1336.63 652.224L1335.46 659.427H1342.48L1342.93 652.224H1336.63Z" fill="white"/>
<path d="M1384.88 657.716H1381.73V676.353H1384.88V657.716Z" fill="white"/>
<path d="M1392 644.211L1390.92 637.098H1386.15L1386.51 644.211H1392Z" fill="white"/>
<path d="M1380.2 644.211L1380.65 637.098H1375.88L1374.71 644.211H1380.2Z" fill="white"/>
<path d="M1386.87 651.864H1393.17L1392.09 644.661H1386.51L1386.87 651.864Z" fill="white"/>
<path d="M1386.15 644.211L1385.79 637.098H1381.01L1380.56 644.211H1386.15Z" fill="white"/>
<path d="M1375.61 637.098H1374.89C1372.64 637.098 1370.12 639.439 1369.4 642.32L1368.86 644.301H1374.44L1375.61 637.098Z" fill="white"/>
<path d="M1374.62 644.661L1373.45 651.864H1379.75L1380.2 644.661H1374.62Z" fill="white"/>
<path d="M1380.56 644.661L1380.2 651.864H1386.51L1386.15 644.661H1380.56Z" fill="white"/>
<path d="M1397.94 644.211L1397.4 642.23C1396.68 639.349 1394.25 637.008 1391.91 637.008H1391.19L1392.36 644.211H1397.94Z" fill="white"/>
<path d="M1374.26 644.661H1368.68L1366.79 651.864H1373.09L1374.26 644.661Z" fill="white"/>
<path d="M1386.87 652.224L1387.23 659.427H1394.34L1393.26 652.224H1386.87Z" fill="white"/>
<path d="M1392.45 644.661L1393.53 651.864H1399.83L1398.03 644.661H1392.45Z" fill="white"/>
<path d="M1394.79 659.427H1395.78C1399.11 659.427 1401.18 657.086 1400.46 654.205L1399.92 652.224H1393.62L1394.79 659.427Z" fill="white"/>
<path d="M1380.11 652.224L1379.75 659.427H1386.78L1386.51 652.224H1380.11Z" fill="white"/>
<path d="M1366.7 652.224L1366.16 654.205C1365.35 657.086 1367.51 659.427 1370.75 659.427H1371.74L1372.91 652.224H1366.7Z" fill="white"/>
<path d="M1373.36 652.224L1372.19 659.427H1379.3L1379.75 652.224H1373.36Z" fill="white"/>
</g>
</g>
<defs>
<clipPath id="clip0">
<rect width="1920" height="1080" fill="white"/>
</clipPath>
<clipPath id="clip1">
<rect width="1793.49" height="294.142" fill="white" transform="translate(63 571.463)"/>
</clipPath>
</defs>
</svg>
