<svg width="1920" height="1080" viewBox="0 0 1920 1080" fill="none" xmlns="http://www.w3.org/2000/svg">
<g clip-path="url(#clip0)">
<g clip-path="url(#clip1)">
<path d="M765.866 655.627V640.061H742.653V645.614H739.467V640.061H691.857V645.614H688.671V640.061H663V655.627H670.738V1199.73H665.64V1215.38H763.135V1199.73H758.128V655.627H765.866ZM734.096 659.269H748.297V675.108H734.096V659.269ZM734.096 678.749H748.297V694.68H734.096V678.749ZM734.096 698.23H748.297V714.161H734.096V698.23ZM734.096 717.802H748.297V733.733H734.096V717.802ZM734.096 737.283H748.297V753.123H734.096V737.283ZM734.096 756.764H748.297V772.694H734.096V756.764ZM694.77 1185.43H680.569V1169.5H694.77V1185.43ZM694.77 1166.68H680.569V1150.75H694.77V1166.68ZM694.77 1146.56H680.569V1130.63H694.77V1146.56ZM694.77 1127.08H680.569V1111.15H694.77V1127.08ZM694.77 1107.05H680.569V1091.12H694.77V1107.05ZM694.77 1087.67H680.569V1071.73H694.77V1087.67ZM694.77 1067.64H680.569V1051.71H694.77V1067.64ZM694.77 1048.16H680.569V1032.23H694.77V1048.16ZM694.77 1028.04H680.569V1012.11H694.77V1028.04ZM694.77 1009.29H680.569V993.356H694.77V1009.29ZM694.77 989.168H680.569V973.238H694.77V989.168ZM694.77 969.779H680.569V953.848H694.77V969.779ZM694.77 949.661H680.569V933.73H694.77V949.661ZM694.77 930.271H680.569V914.34H694.77V930.271ZM694.77 910.153H680.569V894.222H694.77V910.153ZM694.77 890.672H680.569V874.741H694.77V890.672ZM694.77 870.645H680.569V854.714H694.77V870.645ZM694.77 851.801H680.569V835.871H694.77V851.801ZM694.77 831.774H680.569V815.844H694.77V831.774ZM694.77 812.293H680.569V796.363H694.77V812.293ZM694.77 792.266H680.569V776.336H694.77V792.266ZM694.77 772.694H680.569V756.764H694.77V772.694ZM694.77 753.214H680.569V737.374H694.77V753.214ZM694.77 733.642H680.569V717.711H694.77V733.642ZM694.77 714.161H680.569V698.23H694.77V714.161ZM694.77 694.68H680.569V678.749H694.77V694.68ZM694.77 675.108H680.569V659.269H694.77V675.108ZM712.521 1185.43H698.32V1169.5H712.521V1185.43ZM712.521 1166.68H698.32V1150.75H712.521V1166.68ZM712.521 1146.56H698.32V1130.63H712.521V1146.56ZM712.521 1127.08H698.32V1111.15H712.521V1127.08ZM712.521 1107.05H698.32V1091.12H712.521V1107.05ZM712.521 1087.67H698.32V1071.73H712.521V1087.67ZM712.521 1067.64H698.32V1051.71H712.521V1067.64ZM712.521 1048.16H698.32V1032.23H712.521V1048.16ZM712.521 1028.04H698.32V1012.11H712.521V1028.04ZM712.521 1009.29H698.32V993.356H712.521V1009.29ZM712.521 989.168H698.32V973.238H712.521V989.168ZM712.521 969.779H698.32V953.848H712.521V969.779ZM712.521 949.661H698.32V933.73H712.521V949.661ZM712.521 930.271H698.32V914.34H712.521V930.271ZM712.521 910.153H698.32V894.222H712.521V910.153ZM712.521 890.672H698.32V874.741H712.521V890.672ZM712.521 870.645H698.32V854.714H712.521V870.645ZM712.521 851.801H698.32V835.871H712.521V851.801ZM712.521 831.774H698.32V815.844H712.521V831.774ZM712.521 812.293H698.32V796.363H712.521V812.293ZM712.612 792.266H698.411V776.336H712.612V792.266ZM712.612 772.694H698.411V756.764H712.612V772.694ZM712.612 753.214H698.411V737.374H712.612V753.214ZM712.612 733.642H698.411V717.711H712.612V733.642ZM712.612 714.161H698.411V698.23H712.612V714.161ZM712.612 694.68H698.411V678.749H712.612V694.68ZM712.612 675.108H698.411V659.269H712.612V675.108ZM730.273 1185.43H716.072V1169.5H730.273V1185.43ZM730.273 1166.68H716.072V1150.75H730.273V1166.68ZM730.273 1146.56H716.072V1130.63H730.273V1146.56ZM730.273 1127.08H716.072V1111.15H730.273V1127.08ZM730.273 1107.05H716.072V1091.12H730.273V1107.05ZM730.273 1087.67H716.072V1071.73H730.273V1087.67ZM730.273 1067.64H716.072V1051.71H730.273V1067.64ZM730.273 1048.16H716.072V1032.23H730.273V1048.16ZM730.273 1028.04H716.072V1012.11H730.273V1028.04ZM730.273 1009.29H716.072V993.356H730.273V1009.29ZM730.273 989.168H716.072V973.238H730.273V989.168ZM730.273 969.779H716.072V953.848H730.273V969.779ZM730.273 949.661H716.072V933.73H730.273V949.661ZM730.273 930.271H716.072V914.34H730.273V930.271ZM730.273 910.153H716.072V894.222H730.273V910.153ZM730.273 890.672H716.072V874.741H730.273V890.672ZM730.273 870.645H716.072V854.714H730.273V870.645ZM730.273 851.801H716.072V835.871H730.273V851.801ZM730.273 831.774H716.072V815.844H730.273V831.774ZM730.273 812.293H716.072V796.363H730.273V812.293ZM730.455 792.266H716.254V776.336H730.455V792.266ZM730.455 772.694H716.254V756.764H730.455V772.694ZM730.455 753.214H716.254V737.374H730.455V753.214ZM730.455 733.642H716.254V717.711H730.455V733.642ZM730.455 714.161H716.254V698.23H730.455V714.161ZM730.455 694.68H716.254V678.749H730.455V694.68ZM730.455 675.108H716.254V659.269H730.455V675.108ZM734.096 776.336H748.297V792.266H734.096V776.336ZM748.388 1185.43H734.187V1169.5H748.388V1185.43ZM748.388 1166.68H734.187V1150.75H748.388V1166.68ZM748.388 1146.56H734.187V1130.63H748.388V1146.56ZM748.388 1127.08H734.187V1111.15H748.388V1127.08ZM748.388 1107.05H734.187V1091.12H748.388V1107.05ZM748.388 1087.67H734.187V1071.73H748.388V1087.67ZM748.388 1067.64H734.187V1051.71H748.388V1067.64ZM748.388 1048.16H734.187V1032.23H748.388V1048.16ZM748.388 1028.04H734.187V1012.11H748.388V1028.04ZM748.388 1009.29H734.187V993.356H748.388V1009.29ZM748.388 989.168H734.187V973.238H748.388V989.168ZM748.388 969.779H734.187V953.848H748.388V969.779ZM748.388 949.661H734.187V933.73H748.388V949.661ZM748.388 930.271H734.187V914.34H748.388V930.271ZM748.388 910.153H734.187V894.222H748.388V910.153ZM748.388 890.672H734.187V874.741H748.388V890.672ZM748.388 870.645H734.187V854.714H748.388V870.645ZM748.388 851.801H734.187V835.871H748.388V851.801ZM748.388 831.774H734.187V815.844H748.388V831.774ZM748.388 812.293H734.187V796.363H748.388V812.293Z" fill="white"/>
<path d="M691.857 645.614V640.061V626.77H707.788C712.795 626.77 715.799 623.311 714.615 619.124L709.699 602.556C708.425 598.368 704.784 594.909 701.507 595H678.749C675.471 595 671.83 598.459 670.647 602.647L665.913 619.124C664.73 623.311 667.825 626.77 672.831 626.77H688.671V640.061V645.614H691.857ZM695.407 625.041L694.77 615.937H702.872L704.329 625.041H695.407ZM694.224 606.288H701.233L702.781 615.391H694.77L694.224 606.288ZM694.224 615.391H686.213L686.668 606.288H693.769L694.224 615.391ZM712.066 618.395C713.068 622.037 710.428 624.95 706.24 624.95H704.966L703.418 615.846H711.429L712.066 618.395ZM711.338 615.391H703.327L701.78 606.288H708.88L711.338 615.391ZM700.96 596.73C703.873 596.73 706.968 599.643 707.97 603.284L708.698 605.833H701.689L700.141 596.73H700.96ZM699.686 596.73L701.142 605.833H694.133L693.587 596.73H699.686ZM693.223 596.73L693.769 605.833H686.759L687.123 596.73H693.223ZM686.668 596.73L686.213 605.833H679.204L680.569 596.73H686.668ZM672.376 603.284C673.287 599.734 676.382 596.73 679.295 596.73H680.205L678.749 605.833H671.739L672.376 603.284ZM671.557 606.379H678.658L677.201 615.482H669.19L671.557 606.379ZM674.379 625.041C670.192 625.041 667.461 622.128 668.371 618.486L669.099 615.937H677.201L675.744 625.041H674.379ZM685.303 625.041H676.291L677.656 615.937H685.667L685.303 625.041ZM677.747 615.391L679.113 606.288H686.213L685.758 615.391H677.747ZM685.849 625.041L686.213 615.937H694.315L694.861 625.041H685.849Z" fill="white"/>
<path d="M742.653 645.614V640.061V626.77H758.584C763.59 626.77 766.594 623.311 765.32 619.124L760.404 602.556C759.13 598.368 755.489 594.909 752.211 595H729.453C726.267 595 722.626 598.459 721.352 602.647L716.709 619.124C715.526 623.311 718.621 626.77 723.627 626.77H739.467V640.061V645.614H742.653ZM746.112 625.041L745.475 615.937H753.577L755.033 625.041H746.112ZM744.929 606.288H752.029L753.577 615.391H745.566L744.929 606.288ZM745.02 615.391H737.009L737.373 606.288H744.474L745.02 615.391ZM762.862 618.395C763.863 622.037 761.224 624.95 756.945 624.95H755.671L754.123 615.846H762.134L762.862 618.395ZM762.043 615.391H754.032L752.484 606.288H759.585L762.043 615.391ZM751.756 596.73C754.669 596.73 757.764 599.643 758.766 603.284L759.494 605.833H752.484L750.937 596.73H751.756ZM750.482 596.73L751.938 605.833H744.929L744.383 596.73H750.482ZM743.927 596.73L744.474 605.833H737.373L737.737 596.73H743.927ZM737.464 596.73L737.009 605.833H730L731.365 596.73H737.464ZM723.081 603.284C723.991 599.734 727.087 596.73 730 596.73H730.91L729.544 605.833H722.535L723.081 603.284ZM722.353 606.379H729.453L727.997 615.482H719.986L722.353 606.379ZM725.175 625.041C720.987 625.041 718.256 622.128 719.167 618.486L719.804 615.937H727.906L726.449 625.041H725.175ZM736.008 625.041H726.996L728.361 615.937H736.372L736.008 625.041ZM728.543 615.391L729.909 606.288H737.009L736.554 615.391H728.543ZM736.554 625.041L736.918 615.937H745.02L745.566 625.041H736.554Z" fill="white"/>
</g>
<g clip-path="url(#clip2)">
<path d="M892.15 655.627V640.061H868.936V645.614H865.75V640.061H818.141V645.614H814.954V640.061H789.283V655.627H797.021V1199.73H791.923V1215.38H889.419V1199.73H884.412V655.627H892.15ZM860.379 659.269H874.58V675.108H860.379V659.269ZM860.379 678.749H874.58V694.68H860.379V678.749ZM860.379 698.23H874.58V714.161H860.379V698.23ZM860.379 717.802H874.58V733.733H860.379V717.802ZM860.379 737.283H874.58V753.123H860.379V737.283ZM860.379 756.764H874.58V772.694H860.379V756.764ZM821.054 1185.43H806.853V1169.5H821.054V1185.43ZM821.054 1166.68H806.853V1150.75H821.054V1166.68ZM821.054 1146.56H806.853V1130.63H821.054V1146.56ZM821.054 1127.08H806.853V1111.15H821.054V1127.08ZM821.054 1107.05H806.853V1091.12H821.054V1107.05ZM821.054 1087.67H806.853V1071.73H821.054V1087.67ZM821.054 1067.64H806.853V1051.71H821.054V1067.64ZM821.054 1048.16H806.853V1032.23H821.054V1048.16ZM821.054 1028.04H806.853V1012.11H821.054V1028.04ZM821.054 1009.29H806.853V993.356H821.054V1009.29ZM821.054 989.168H806.853V973.238H821.054V989.168ZM821.054 969.779H806.853V953.848H821.054V969.779ZM821.054 949.661H806.853V933.73H821.054V949.661ZM821.054 930.271H806.853V914.34H821.054V930.271ZM821.054 910.153H806.853V894.222H821.054V910.153ZM821.054 890.672H806.853V874.741H821.054V890.672ZM821.054 870.645H806.853V854.714H821.054V870.645ZM821.054 851.801H806.853V835.871H821.054V851.801ZM821.054 831.774H806.853V815.844H821.054V831.774ZM821.054 812.293H806.853V796.363H821.054V812.293ZM821.054 792.266H806.853V776.336H821.054V792.266ZM821.054 772.694H806.853V756.764H821.054V772.694ZM821.054 753.214H806.853V737.374H821.054V753.214ZM821.054 733.642H806.853V717.711H821.054V733.642ZM821.054 714.161H806.853V698.23H821.054V714.161ZM821.054 694.68H806.853V678.749H821.054V694.68ZM821.054 675.108H806.853V659.269H821.054V675.108ZM838.805 1185.43H824.604V1169.5H838.805V1185.43ZM838.805 1166.68H824.604V1150.75H838.805V1166.68ZM838.805 1146.56H824.604V1130.63H838.805V1146.56ZM838.805 1127.08H824.604V1111.15H838.805V1127.08ZM838.805 1107.05H824.604V1091.12H838.805V1107.05ZM838.805 1087.67H824.604V1071.73H838.805V1087.67ZM838.805 1067.64H824.604V1051.71H838.805V1067.64ZM838.805 1048.16H824.604V1032.23H838.805V1048.16ZM838.805 1028.04H824.604V1012.11H838.805V1028.04ZM838.805 1009.29H824.604V993.356H838.805V1009.29ZM838.805 989.168H824.604V973.238H838.805V989.168ZM838.805 969.779H824.604V953.848H838.805V969.779ZM838.805 949.661H824.604V933.73H838.805V949.661ZM838.805 930.271H824.604V914.34H838.805V930.271ZM838.805 910.153H824.604V894.222H838.805V910.153ZM838.805 890.672H824.604V874.741H838.805V890.672ZM838.805 870.645H824.604V854.714H838.805V870.645ZM838.805 851.801H824.604V835.871H838.805V851.801ZM838.805 831.774H824.604V815.844H838.805V831.774ZM838.805 812.293H824.604V796.363H838.805V812.293ZM838.896 792.266H824.695V776.336H838.896V792.266ZM838.896 772.694H824.695V756.764H838.896V772.694ZM838.896 753.214H824.695V737.374H838.896V753.214ZM838.896 733.642H824.695V717.711H838.896V733.642ZM838.896 714.161H824.695V698.23H838.896V714.161ZM838.896 694.68H824.695V678.749H838.896V694.68ZM838.896 675.108H824.695V659.269H838.896V675.108ZM856.556 1185.43H842.355V1169.5H856.556V1185.43ZM856.556 1166.68H842.355V1150.75H856.556V1166.68ZM856.556 1146.56H842.355V1130.63H856.556V1146.56ZM856.556 1127.08H842.355V1111.15H856.556V1127.08ZM856.556 1107.05H842.355V1091.12H856.556V1107.05ZM856.556 1087.67H842.355V1071.73H856.556V1087.67ZM856.556 1067.64H842.355V1051.71H856.556V1067.64ZM856.556 1048.16H842.355V1032.23H856.556V1048.16ZM856.556 1028.04H842.355V1012.11H856.556V1028.04ZM856.556 1009.29H842.355V993.356H856.556V1009.29ZM856.556 989.168H842.355V973.238H856.556V989.168ZM856.556 969.779H842.355V953.848H856.556V969.779ZM856.556 949.661H842.355V933.73H856.556V949.661ZM856.556 930.271H842.355V914.34H856.556V930.271ZM856.556 910.153H842.355V894.222H856.556V910.153ZM856.556 890.672H842.355V874.741H856.556V890.672ZM856.556 870.645H842.355V854.714H856.556V870.645ZM856.556 851.801H842.355V835.871H856.556V851.801ZM856.556 831.774H842.355V815.844H856.556V831.774ZM856.556 812.293H842.355V796.363H856.556V812.293ZM856.738 792.266H842.537V776.336H856.738V792.266ZM856.738 772.694H842.537V756.764H856.738V772.694ZM856.738 753.214H842.537V737.374H856.738V753.214ZM856.738 733.642H842.537V717.711H856.738V733.642ZM856.738 714.161H842.537V698.23H856.738V714.161ZM856.738 694.68H842.537V678.749H856.738V694.68ZM856.738 675.108H842.537V659.269H856.738V675.108ZM860.379 776.336H874.58V792.266H860.379V776.336ZM874.671 1185.43H860.47V1169.5H874.671V1185.43ZM874.671 1166.68H860.47V1150.75H874.671V1166.68ZM874.671 1146.56H860.47V1130.63H874.671V1146.56ZM874.671 1127.08H860.47V1111.15H874.671V1127.08ZM874.671 1107.05H860.47V1091.12H874.671V1107.05ZM874.671 1087.67H860.47V1071.73H874.671V1087.67ZM874.671 1067.64H860.47V1051.71H874.671V1067.64ZM874.671 1048.16H860.47V1032.23H874.671V1048.16ZM874.671 1028.04H860.47V1012.11H874.671V1028.04ZM874.671 1009.29H860.47V993.356H874.671V1009.29ZM874.671 989.168H860.47V973.238H874.671V989.168ZM874.671 969.779H860.47V953.848H874.671V969.779ZM874.671 949.661H860.47V933.73H874.671V949.661ZM874.671 930.271H860.47V914.34H874.671V930.271ZM874.671 910.153H860.47V894.222H874.671V910.153ZM874.671 890.672H860.47V874.741H874.671V890.672ZM874.671 870.645H860.47V854.714H874.671V870.645ZM874.671 851.801H860.47V835.871H874.671V851.801ZM874.671 831.774H860.47V815.844H874.671V831.774ZM874.671 812.293H860.47V796.363H874.671V812.293Z" fill="white"/>
<path d="M818.141 645.614V640.061V626.77H834.071C839.078 626.77 842.082 623.311 840.899 619.124L835.983 602.556C834.708 598.368 831.067 594.909 827.79 595H805.032C801.755 595 798.114 598.459 796.93 602.647L792.196 619.124C791.013 623.311 794.108 626.77 799.115 626.77H814.954V640.061V645.614H818.141ZM821.691 625.041L821.054 615.937H829.155L830.612 625.041H821.691ZM820.507 606.288H827.517L829.064 615.391H821.054L820.507 606.288ZM820.507 615.391H812.497L812.952 606.288H820.052L820.507 615.391ZM838.35 618.395C839.351 622.037 836.711 624.95 832.524 624.95H831.249L829.702 615.846H837.712L838.35 618.395ZM837.621 615.391H829.611L828.063 606.288H835.164L837.621 615.391ZM827.244 596.73C830.157 596.73 833.252 599.643 834.253 603.284L834.982 605.833H827.972L826.425 596.73H827.244ZM825.969 596.73L827.426 605.833H820.416L819.87 596.73H825.969ZM819.506 596.73L820.052 605.833H813.043L813.407 596.73H819.506ZM812.952 596.73L812.497 605.833H805.487L806.853 596.73H812.952ZM798.66 603.284C799.57 599.734 802.665 596.73 805.578 596.73H806.489L805.032 605.833H798.023L798.66 603.284ZM797.84 606.379H804.941L803.484 615.482H795.474L797.84 606.379ZM800.662 625.041C796.475 625.041 793.744 622.128 794.654 618.486L795.383 615.937H803.484L802.028 625.041H800.662ZM811.586 625.041H802.574L803.94 615.937H811.95L811.586 625.041ZM804.031 615.391L805.396 606.288H812.497L812.041 615.391H804.031ZM812.132 625.041L812.497 615.937H820.598L821.145 625.041H812.132Z" fill="white"/>
<path d="M868.936 645.614V640.061V626.77H884.867C889.874 626.77 892.878 623.311 891.603 619.124L886.688 602.556C885.413 598.368 881.772 594.909 878.495 595H855.737C852.551 595 848.909 598.459 847.635 602.647L842.992 619.124C841.809 623.311 844.904 626.77 849.911 626.77H865.75V640.061V645.614H868.936ZM872.396 625.041L871.758 615.937H879.86L881.317 625.041H872.396ZM871.212 606.288H878.313L879.86 615.391H871.85L871.212 606.288ZM871.303 615.391H863.293L863.657 606.288H870.757L871.303 615.391ZM889.146 618.395C890.147 622.037 887.507 624.95 883.229 624.95H881.954L880.407 615.846H888.417L889.146 618.395ZM888.326 615.391H880.315L878.768 606.288H885.868L888.326 615.391ZM878.04 596.73C880.953 596.73 884.048 599.643 885.049 603.284L885.777 605.833H878.768L877.22 596.73H878.04ZM876.765 596.73L878.222 605.833H871.212L870.666 596.73H876.765ZM870.211 596.73L870.757 605.833H863.657L864.021 596.73H870.211ZM863.748 596.73L863.293 605.833H856.283L857.649 596.73H863.748ZM849.365 603.284C850.275 599.734 853.37 596.73 856.283 596.73H857.193L855.828 605.833H848.818L849.365 603.284ZM848.636 606.379H855.737L854.28 615.482H846.27L848.636 606.379ZM851.458 625.041C847.271 625.041 844.54 622.128 845.45 618.486L846.087 615.937H854.189L852.733 625.041H851.458ZM862.291 625.041H853.279L854.644 615.937H862.655L862.291 625.041ZM854.827 615.391L856.192 606.288H863.293L862.837 615.391H854.827ZM862.837 625.041L863.201 615.937H871.303L871.85 625.041H862.837Z" fill="white"/>
</g>
<g clip-path="url(#clip3)">
<path d="M1018.43 655.627V640.061H995.22V645.614H992.034V640.061H944.424V645.614H941.238V640.061H915.567V655.627H923.305V1199.73H918.207V1215.38H1015.7V1199.73H1010.7V655.627H1018.43ZM986.663 659.269H1000.86V675.108H986.663V659.269ZM986.663 678.749H1000.86V694.68H986.663V678.749ZM986.663 698.23H1000.86V714.161H986.663V698.23ZM986.663 717.802H1000.86V733.733H986.663V717.802ZM986.663 737.283H1000.86V753.123H986.663V737.283ZM986.663 756.764H1000.86V772.694H986.663V756.764ZM947.337 1185.43H933.136V1169.5H947.337V1185.43ZM947.337 1166.68H933.136V1150.75H947.337V1166.68ZM947.337 1146.56H933.136V1130.63H947.337V1146.56ZM947.337 1127.08H933.136V1111.15H947.337V1127.08ZM947.337 1107.05H933.136V1091.12H947.337V1107.05ZM947.337 1087.67H933.136V1071.73H947.337V1087.67ZM947.337 1067.64H933.136V1051.71H947.337V1067.64ZM947.337 1048.16H933.136V1032.23H947.337V1048.16ZM947.337 1028.04H933.136V1012.11H947.337V1028.04ZM947.337 1009.29H933.136V993.356H947.337V1009.29ZM947.337 989.168H933.136V973.238H947.337V989.168ZM947.337 969.779H933.136V953.848H947.337V969.779ZM947.337 949.661H933.136V933.73H947.337V949.661ZM947.337 930.271H933.136V914.34H947.337V930.271ZM947.337 910.153H933.136V894.222H947.337V910.153ZM947.337 890.672H933.136V874.741H947.337V890.672ZM947.337 870.645H933.136V854.714H947.337V870.645ZM947.337 851.801H933.136V835.871H947.337V851.801ZM947.337 831.774H933.136V815.844H947.337V831.774ZM947.337 812.293H933.136V796.363H947.337V812.293ZM947.337 792.266H933.136V776.336H947.337V792.266ZM947.337 772.694H933.136V756.764H947.337V772.694ZM947.337 753.214H933.136V737.374H947.337V753.214ZM947.337 733.642H933.136V717.711H947.337V733.642ZM947.337 714.161H933.136V698.23H947.337V714.161ZM947.337 694.68H933.136V678.749H947.337V694.68ZM947.337 675.108H933.136V659.269H947.337V675.108ZM965.088 1185.43H950.887V1169.5H965.088V1185.43ZM965.088 1166.68H950.887V1150.75H965.088V1166.68ZM965.088 1146.56H950.887V1130.63H965.088V1146.56ZM965.088 1127.08H950.887V1111.15H965.088V1127.08ZM965.088 1107.05H950.887V1091.12H965.088V1107.05ZM965.088 1087.67H950.887V1071.73H965.088V1087.67ZM965.088 1067.64H950.887V1051.71H965.088V1067.64ZM965.088 1048.16H950.887V1032.23H965.088V1048.16ZM965.088 1028.04H950.887V1012.11H965.088V1028.04ZM965.088 1009.29H950.887V993.356H965.088V1009.29ZM965.088 989.168H950.887V973.238H965.088V989.168ZM965.088 969.779H950.887V953.848H965.088V969.779ZM965.088 949.661H950.887V933.73H965.088V949.661ZM965.088 930.271H950.887V914.34H965.088V930.271ZM965.088 910.153H950.887V894.222H965.088V910.153ZM965.088 890.672H950.887V874.741H965.088V890.672ZM965.088 870.645H950.887V854.714H965.088V870.645ZM965.088 851.801H950.887V835.871H965.088V851.801ZM965.088 831.774H950.887V815.844H965.088V831.774ZM965.088 812.293H950.887V796.363H965.088V812.293ZM965.179 792.266H950.978V776.336H965.179V792.266ZM965.179 772.694H950.978V756.764H965.179V772.694ZM965.179 753.214H950.978V737.374H965.179V753.214ZM965.179 733.642H950.978V717.711H965.179V733.642ZM965.179 714.161H950.978V698.23H965.179V714.161ZM965.179 694.68H950.978V678.749H965.179V694.68ZM965.179 675.108H950.978V659.269H965.179V675.108ZM982.84 1185.43H968.639V1169.5H982.84V1185.43ZM982.84 1166.68H968.639V1150.75H982.84V1166.68ZM982.84 1146.56H968.639V1130.63H982.84V1146.56ZM982.84 1127.08H968.639V1111.15H982.84V1127.08ZM982.84 1107.05H968.639V1091.12H982.84V1107.05ZM982.84 1087.67H968.639V1071.73H982.84V1087.67ZM982.84 1067.64H968.639V1051.71H982.84V1067.64ZM982.84 1048.16H968.639V1032.23H982.84V1048.16ZM982.84 1028.04H968.639V1012.11H982.84V1028.04ZM982.84 1009.29H968.639V993.356H982.84V1009.29ZM982.84 989.168H968.639V973.238H982.84V989.168ZM982.84 969.779H968.639V953.848H982.84V969.779ZM982.84 949.661H968.639V933.73H982.84V949.661ZM982.84 930.271H968.639V914.34H982.84V930.271ZM982.84 910.153H968.639V894.222H982.84V910.153ZM982.84 890.672H968.639V874.741H982.84V890.672ZM982.84 870.645H968.639V854.714H982.84V870.645ZM982.84 851.801H968.639V835.871H982.84V851.801ZM982.84 831.774H968.639V815.844H982.84V831.774ZM982.84 812.293H968.639V796.363H982.84V812.293ZM983.022 792.266H968.821V776.336H983.022V792.266ZM983.022 772.694H968.821V756.764H983.022V772.694ZM983.022 753.214H968.821V737.374H983.022V753.214ZM983.022 733.642H968.821V717.711H983.022V733.642ZM983.022 714.161H968.821V698.23H983.022V714.161ZM983.022 694.68H968.821V678.749H983.022V694.68ZM983.022 675.108H968.821V659.269H983.022V675.108ZM986.663 776.336H1000.86V792.266H986.663V776.336ZM1000.95 1185.43H986.754V1169.5H1000.95V1185.43ZM1000.95 1166.68H986.754V1150.75H1000.95V1166.68ZM1000.95 1146.56H986.754V1130.63H1000.95V1146.56ZM1000.95 1127.08H986.754V1111.15H1000.95V1127.08ZM1000.95 1107.05H986.754V1091.12H1000.95V1107.05ZM1000.95 1087.67H986.754V1071.73H1000.95V1087.67ZM1000.95 1067.64H986.754V1051.71H1000.95V1067.64ZM1000.95 1048.16H986.754V1032.23H1000.95V1048.16ZM1000.95 1028.04H986.754V1012.11H1000.95V1028.04ZM1000.95 1009.29H986.754V993.356H1000.95V1009.29ZM1000.95 989.168H986.754V973.238H1000.95V989.168ZM1000.95 969.779H986.754V953.848H1000.95V969.779ZM1000.95 949.661H986.754V933.73H1000.95V949.661ZM1000.95 930.271H986.754V914.34H1000.95V930.271ZM1000.95 910.153H986.754V894.222H1000.95V910.153ZM1000.95 890.672H986.754V874.741H1000.95V890.672ZM1000.95 870.645H986.754V854.714H1000.95V870.645ZM1000.95 851.801H986.754V835.871H1000.95V851.801ZM1000.95 831.774H986.754V815.844H1000.95V831.774ZM1000.95 812.293H986.754V796.363H1000.95V812.293Z" fill="white"/>
<path d="M944.424 645.614V640.061V626.77H960.355C965.361 626.77 968.365 623.311 967.182 619.124L962.266 602.556C960.992 598.368 957.351 594.909 954.073 595H931.315C928.038 595 924.397 598.459 923.214 602.647L918.48 619.124C917.297 623.311 920.392 626.77 925.398 626.77H941.238V640.061V645.614H944.424ZM947.974 625.041L947.337 615.937H955.439L956.895 625.041H947.974ZM946.791 606.288H953.8L955.348 615.391H947.337L946.791 606.288ZM946.791 615.391H938.78L939.235 606.288H946.336L946.791 615.391ZM964.633 618.395C965.634 622.037 962.995 624.95 958.807 624.95H957.533L955.985 615.846H963.996L964.633 618.395ZM963.905 615.391H955.894L954.347 606.288H961.447L963.905 615.391ZM953.527 596.73C956.44 596.73 959.535 599.643 960.537 603.284L961.265 605.833H954.255L952.708 596.73H953.527ZM952.253 596.73L953.709 605.833H946.7L946.154 596.73H952.253ZM945.79 596.73L946.336 605.833H939.326L939.69 596.73H945.79ZM939.235 596.73L938.78 605.833H931.771L933.136 596.73H939.235ZM924.943 603.284C925.854 599.734 928.949 596.73 931.862 596.73H932.772L931.315 605.833H924.306L924.943 603.284ZM924.124 606.379H931.224L929.768 615.482H921.757L924.124 606.379ZM926.946 625.041C922.758 625.041 920.027 622.128 920.938 618.486L921.666 615.937H929.768L928.311 625.041H926.946ZM937.87 625.041H928.858L930.223 615.937H938.234L937.87 625.041ZM930.314 615.391L931.68 606.288H938.78L938.325 615.391H930.314ZM938.416 625.041L938.78 615.937H946.882L947.428 625.041H938.416Z" fill="white"/>
<path d="M995.22 645.614V640.061V626.77H1011.15C1016.16 626.77 1019.16 623.311 1017.89 619.124L1012.97 602.556C1011.7 598.368 1008.06 594.909 1004.78 595H982.02C978.834 595 975.193 598.459 973.918 602.647L969.276 619.124C968.092 623.311 971.187 626.77 976.194 626.77H992.034V640.061V645.614H995.22ZM998.679 625.041L998.042 615.937H1006.14L1007.6 625.041H998.679ZM997.496 606.288H1004.6L1006.14 615.391H998.133L997.496 606.288ZM997.587 615.391H989.576L989.94 606.288H997.041L997.587 615.391ZM1015.43 618.395C1016.43 622.037 1013.79 624.95 1009.51 624.95H1008.24L1006.69 615.846H1014.7L1015.43 618.395ZM1014.61 615.391H1006.6L1005.05 606.288H1012.15L1014.61 615.391ZM1004.32 596.73C1007.24 596.73 1010.33 599.643 1011.33 603.284L1012.06 605.833H1005.05L1003.5 596.73H1004.32ZM1003.05 596.73L1004.51 605.833H997.496L996.95 596.73H1003.05ZM996.494 596.73L997.041 605.833H989.94L990.304 596.73H996.494ZM990.031 596.73L989.576 605.833H982.566L983.932 596.73H990.031ZM975.648 603.284C976.558 599.734 979.653 596.73 982.566 596.73H983.477L982.111 605.833H975.102L975.648 603.284ZM974.92 606.379H982.02L980.564 615.482H972.553L974.92 606.379ZM977.742 625.041C973.554 625.041 970.823 622.128 971.734 618.486L972.371 615.937H980.473L979.016 625.041H977.742ZM988.575 625.041H979.562L980.928 615.937H988.939L988.575 625.041ZM981.11 615.391L982.475 606.288H989.576L989.121 615.391H981.11ZM989.121 625.041L989.485 615.937H997.587L998.133 625.041H989.121Z" fill="white"/>
</g>
<g clip-path="url(#clip4)">
<path d="M1144.72 655.627V640.061H1121.5V645.614H1118.32V640.061H1070.71V645.614H1067.52V640.061H1041.85V655.627H1049.59V1199.73H1044.49V1215.38H1141.99V1199.73H1136.98V655.627H1144.72ZM1112.95 659.269H1127.15V675.108H1112.95V659.269ZM1112.95 678.749H1127.15V694.68H1112.95V678.749ZM1112.95 698.23H1127.15V714.161H1112.95V698.23ZM1112.95 717.802H1127.15V733.733H1112.95V717.802ZM1112.95 737.283H1127.15V753.123H1112.95V737.283ZM1112.95 756.764H1127.15V772.694H1112.95V756.764ZM1073.62 1185.43H1059.42V1169.5H1073.62V1185.43ZM1073.62 1166.68H1059.42V1150.75H1073.62V1166.68ZM1073.62 1146.56H1059.42V1130.63H1073.62V1146.56ZM1073.62 1127.08H1059.42V1111.15H1073.62V1127.08ZM1073.62 1107.05H1059.42V1091.12H1073.62V1107.05ZM1073.62 1087.67H1059.42V1071.73H1073.62V1087.67ZM1073.62 1067.64H1059.42V1051.71H1073.62V1067.64ZM1073.62 1048.16H1059.42V1032.23H1073.62V1048.16ZM1073.62 1028.04H1059.42V1012.11H1073.62V1028.04ZM1073.62 1009.29H1059.42V993.356H1073.62V1009.29ZM1073.62 989.168H1059.42V973.238H1073.62V989.168ZM1073.62 969.779H1059.42V953.848H1073.62V969.779ZM1073.62 949.661H1059.42V933.73H1073.62V949.661ZM1073.62 930.271H1059.42V914.34H1073.62V930.271ZM1073.62 910.153H1059.42V894.222H1073.62V910.153ZM1073.62 890.672H1059.42V874.741H1073.62V890.672ZM1073.62 870.645H1059.42V854.714H1073.62V870.645ZM1073.62 851.801H1059.42V835.871H1073.62V851.801ZM1073.62 831.774H1059.42V815.844H1073.62V831.774ZM1073.62 812.293H1059.42V796.363H1073.62V812.293ZM1073.62 792.266H1059.42V776.336H1073.62V792.266ZM1073.62 772.694H1059.42V756.764H1073.62V772.694ZM1073.62 753.214H1059.42V737.374H1073.62V753.214ZM1073.62 733.642H1059.42V717.711H1073.62V733.642ZM1073.62 714.161H1059.42V698.23H1073.62V714.161ZM1073.62 694.68H1059.42V678.749H1073.62V694.68ZM1073.62 675.108H1059.42V659.269H1073.62V675.108ZM1091.37 1185.43H1077.17V1169.5H1091.37V1185.43ZM1091.37 1166.68H1077.17V1150.75H1091.37V1166.68ZM1091.37 1146.56H1077.17V1130.63H1091.37V1146.56ZM1091.37 1127.08H1077.17V1111.15H1091.37V1127.08ZM1091.37 1107.05H1077.17V1091.12H1091.37V1107.05ZM1091.37 1087.67H1077.17V1071.73H1091.37V1087.67ZM1091.37 1067.64H1077.17V1051.71H1091.37V1067.64ZM1091.37 1048.16H1077.17V1032.23H1091.37V1048.16ZM1091.37 1028.04H1077.17V1012.11H1091.37V1028.04ZM1091.37 1009.29H1077.17V993.356H1091.37V1009.29ZM1091.37 989.168H1077.17V973.238H1091.37V989.168ZM1091.37 969.779H1077.17V953.848H1091.37V969.779ZM1091.37 949.661H1077.17V933.73H1091.37V949.661ZM1091.37 930.271H1077.17V914.34H1091.37V930.271ZM1091.37 910.153H1077.17V894.222H1091.37V910.153ZM1091.37 890.672H1077.17V874.741H1091.37V890.672ZM1091.37 870.645H1077.17V854.714H1091.37V870.645ZM1091.37 851.801H1077.17V835.871H1091.37V851.801ZM1091.37 831.774H1077.17V815.844H1091.37V831.774ZM1091.37 812.293H1077.17V796.363H1091.37V812.293ZM1091.46 792.266H1077.26V776.336H1091.46V792.266ZM1091.46 772.694H1077.26V756.764H1091.46V772.694ZM1091.46 753.214H1077.26V737.374H1091.46V753.214ZM1091.46 733.642H1077.26V717.711H1091.46V733.642ZM1091.46 714.161H1077.26V698.23H1091.46V714.161ZM1091.46 694.68H1077.26V678.749H1091.46V694.68ZM1091.46 675.108H1077.26V659.269H1091.46V675.108ZM1109.12 1185.43H1094.92V1169.5H1109.12V1185.43ZM1109.12 1166.68H1094.92V1150.75H1109.12V1166.68ZM1109.12 1146.56H1094.92V1130.63H1109.12V1146.56ZM1109.12 1127.08H1094.92V1111.15H1109.12V1127.08ZM1109.12 1107.05H1094.92V1091.12H1109.12V1107.05ZM1109.12 1087.67H1094.92V1071.73H1109.12V1087.67ZM1109.12 1067.64H1094.92V1051.71H1109.12V1067.64ZM1109.12 1048.16H1094.92V1032.23H1109.12V1048.16ZM1109.12 1028.04H1094.92V1012.11H1109.12V1028.04ZM1109.12 1009.29H1094.92V993.356H1109.12V1009.29ZM1109.12 989.168H1094.92V973.238H1109.12V989.168ZM1109.12 969.779H1094.92V953.848H1109.12V969.779ZM1109.12 949.661H1094.92V933.73H1109.12V949.661ZM1109.12 930.271H1094.92V914.34H1109.12V930.271ZM1109.12 910.153H1094.92V894.222H1109.12V910.153ZM1109.12 890.672H1094.92V874.741H1109.12V890.672ZM1109.12 870.645H1094.92V854.714H1109.12V870.645ZM1109.12 851.801H1094.92V835.871H1109.12V851.801ZM1109.12 831.774H1094.92V815.844H1109.12V831.774ZM1109.12 812.293H1094.92V796.363H1109.12V812.293ZM1109.31 792.266H1095.1V776.336H1109.31V792.266ZM1109.31 772.694H1095.1V756.764H1109.31V772.694ZM1109.31 753.214H1095.1V737.374H1109.31V753.214ZM1109.31 733.642H1095.1V717.711H1109.31V733.642ZM1109.31 714.161H1095.1V698.23H1109.31V714.161ZM1109.31 694.68H1095.1V678.749H1109.31V694.68ZM1109.31 675.108H1095.1V659.269H1109.31V675.108ZM1112.95 776.336H1127.15V792.266H1112.95V776.336ZM1127.24 1185.43H1113.04V1169.5H1127.24V1185.43ZM1127.24 1166.68H1113.04V1150.75H1127.24V1166.68ZM1127.24 1146.56H1113.04V1130.63H1127.24V1146.56ZM1127.24 1127.08H1113.04V1111.15H1127.24V1127.08ZM1127.24 1107.05H1113.04V1091.12H1127.24V1107.05ZM1127.24 1087.67H1113.04V1071.73H1127.24V1087.67ZM1127.24 1067.64H1113.04V1051.71H1127.24V1067.64ZM1127.24 1048.16H1113.04V1032.23H1127.24V1048.16ZM1127.24 1028.04H1113.04V1012.11H1127.24V1028.04ZM1127.24 1009.29H1113.04V993.356H1127.24V1009.29ZM1127.24 989.168H1113.04V973.238H1127.24V989.168ZM1127.24 969.779H1113.04V953.848H1127.24V969.779ZM1127.24 949.661H1113.04V933.73H1127.24V949.661ZM1127.24 930.271H1113.04V914.34H1127.24V930.271ZM1127.24 910.153H1113.04V894.222H1127.24V910.153ZM1127.24 890.672H1113.04V874.741H1127.24V890.672ZM1127.24 870.645H1113.04V854.714H1127.24V870.645ZM1127.24 851.801H1113.04V835.871H1127.24V851.801ZM1127.24 831.774H1113.04V815.844H1127.24V831.774ZM1127.24 812.293H1113.04V796.363H1127.24V812.293Z" fill="white"/>
<path d="M1070.71 645.614V640.061V626.77H1086.64C1091.64 626.77 1094.65 623.311 1093.47 619.124L1088.55 602.556C1087.28 598.368 1083.63 594.909 1080.36 595H1057.6C1054.32 595 1050.68 598.459 1049.5 602.647L1044.76 619.124C1043.58 623.311 1046.68 626.77 1051.68 626.77H1067.52V640.061V645.614H1070.71ZM1074.26 625.041L1073.62 615.937H1081.72L1083.18 625.041H1074.26ZM1073.07 606.288H1080.08L1081.63 615.391H1073.62L1073.07 606.288ZM1073.07 615.391H1065.06L1065.52 606.288H1072.62L1073.07 615.391ZM1090.92 618.395C1091.92 622.037 1089.28 624.95 1085.09 624.95H1083.82L1082.27 615.846H1090.28L1090.92 618.395ZM1090.19 615.391H1082.18L1080.63 606.288H1087.73L1090.19 615.391ZM1079.81 596.73C1082.72 596.73 1085.82 599.643 1086.82 603.284L1087.55 605.833H1080.54L1078.99 596.73H1079.81ZM1078.54 596.73L1079.99 605.833H1072.98L1072.44 596.73H1078.54ZM1072.07 596.73L1072.62 605.833H1065.61L1065.97 596.73H1072.07ZM1065.52 596.73L1065.06 605.833H1058.05L1059.42 596.73H1065.52ZM1051.23 603.284C1052.14 599.734 1055.23 596.73 1058.15 596.73H1059.06L1057.6 605.833H1050.59L1051.23 603.284ZM1050.41 606.379H1057.51L1056.05 615.482H1048.04L1050.41 606.379ZM1053.23 625.041C1049.04 625.041 1046.31 622.128 1047.22 618.486L1047.95 615.937H1056.05L1054.59 625.041H1053.23ZM1064.15 625.041H1055.14L1056.51 615.937H1064.52L1064.15 625.041ZM1056.6 615.391L1057.96 606.288H1065.06L1064.61 615.391H1056.6ZM1064.7 625.041L1065.06 615.937H1073.17L1073.71 625.041H1064.7Z" fill="white"/>
<path d="M1121.5 645.614V640.061V626.77H1137.43C1142.44 626.77 1145.44 623.311 1144.17 619.124L1139.25 602.556C1137.98 598.368 1134.34 594.909 1131.06 595H1108.3C1105.12 595 1101.48 598.459 1100.2 602.647L1095.56 619.124C1094.38 623.311 1097.47 626.77 1102.48 626.77H1118.32V640.061V645.614H1121.5ZM1124.96 625.041L1124.33 615.937H1132.43L1133.88 625.041H1124.96ZM1123.78 606.288H1130.88L1132.43 615.391H1124.42L1123.78 606.288ZM1123.87 615.391H1115.86L1116.22 606.288H1123.32L1123.87 615.391ZM1141.71 618.395C1142.71 622.037 1140.07 624.95 1135.8 624.95H1134.52L1132.97 615.846H1140.98L1141.71 618.395ZM1140.89 615.391H1132.88L1131.33 606.288H1138.44L1140.89 615.391ZM1130.61 596.73C1133.52 596.73 1136.61 599.643 1137.62 603.284L1138.34 605.833H1131.33L1129.79 596.73H1130.61ZM1129.33 596.73L1130.79 605.833H1123.78L1123.23 596.73H1129.33ZM1122.78 596.73L1123.32 605.833H1116.22L1116.59 596.73H1122.78ZM1116.31 596.73L1115.86 605.833H1108.85L1110.22 596.73H1116.31ZM1101.93 603.284C1102.84 599.734 1105.94 596.73 1108.85 596.73H1109.76L1108.39 605.833H1101.39L1101.93 603.284ZM1101.2 606.379H1108.3L1106.85 615.482H1098.84L1101.2 606.379ZM1104.03 625.041C1099.84 625.041 1097.11 622.128 1098.02 618.486L1098.65 615.937H1106.76L1105.3 625.041H1104.03ZM1114.86 625.041H1105.85L1107.21 615.937H1115.22L1114.86 625.041ZM1107.39 615.391L1108.76 606.288H1115.86L1115.4 615.391H1107.39ZM1115.4 625.041L1115.77 615.937H1123.87L1124.42 625.041H1115.4Z" fill="white"/>
</g>
<g clip-path="url(#clip5)">
<path d="M1271 655.627V640.061H1247.79V645.614H1244.6V640.061H1196.99V645.614H1193.8V640.061H1168.13V655.627H1175.87V1199.73H1170.77V1215.38H1268.27V1199.73H1263.26V655.627H1271ZM1239.23 659.269H1253.43V675.108H1239.23V659.269ZM1239.23 678.749H1253.43V694.68H1239.23V678.749ZM1239.23 698.23H1253.43V714.161H1239.23V698.23ZM1239.23 717.802H1253.43V733.733H1239.23V717.802ZM1239.23 737.283H1253.43V753.123H1239.23V737.283ZM1239.23 756.764H1253.43V772.694H1239.23V756.764ZM1199.9 1185.43H1185.7V1169.5H1199.9V1185.43ZM1199.9 1166.68H1185.7V1150.75H1199.9V1166.68ZM1199.9 1146.56H1185.7V1130.63H1199.9V1146.56ZM1199.9 1127.08H1185.7V1111.15H1199.9V1127.08ZM1199.9 1107.05H1185.7V1091.12H1199.9V1107.05ZM1199.9 1087.67H1185.7V1071.73H1199.9V1087.67ZM1199.9 1067.64H1185.7V1051.71H1199.9V1067.64ZM1199.9 1048.16H1185.7V1032.23H1199.9V1048.16ZM1199.9 1028.04H1185.7V1012.11H1199.9V1028.04ZM1199.9 1009.29H1185.7V993.356H1199.9V1009.29ZM1199.9 989.168H1185.7V973.238H1199.9V989.168ZM1199.9 969.779H1185.7V953.848H1199.9V969.779ZM1199.9 949.661H1185.7V933.73H1199.9V949.661ZM1199.9 930.271H1185.7V914.34H1199.9V930.271ZM1199.9 910.153H1185.7V894.222H1199.9V910.153ZM1199.9 890.672H1185.7V874.741H1199.9V890.672ZM1199.9 870.645H1185.7V854.714H1199.9V870.645ZM1199.9 851.801H1185.7V835.871H1199.9V851.801ZM1199.9 831.774H1185.7V815.844H1199.9V831.774ZM1199.9 812.293H1185.7V796.363H1199.9V812.293ZM1199.9 792.266H1185.7V776.336H1199.9V792.266ZM1199.9 772.694H1185.7V756.764H1199.9V772.694ZM1199.9 753.214H1185.7V737.374H1199.9V753.214ZM1199.9 733.642H1185.7V717.711H1199.9V733.642ZM1199.9 714.161H1185.7V698.23H1199.9V714.161ZM1199.9 694.68H1185.7V678.749H1199.9V694.68ZM1199.9 675.108H1185.7V659.269H1199.9V675.108ZM1217.66 1185.43H1203.45V1169.5H1217.66V1185.43ZM1217.66 1166.68H1203.45V1150.75H1217.66V1166.68ZM1217.66 1146.56H1203.45V1130.63H1217.66V1146.56ZM1217.66 1127.08H1203.45V1111.15H1217.66V1127.08ZM1217.66 1107.05H1203.45V1091.12H1217.66V1107.05ZM1217.66 1087.67H1203.45V1071.73H1217.66V1087.67ZM1217.66 1067.64H1203.45V1051.71H1217.66V1067.64ZM1217.66 1048.16H1203.45V1032.23H1217.66V1048.16ZM1217.66 1028.04H1203.45V1012.11H1217.66V1028.04ZM1217.66 1009.29H1203.45V993.356H1217.66V1009.29ZM1217.66 989.168H1203.45V973.238H1217.66V989.168ZM1217.66 969.779H1203.45V953.848H1217.66V969.779ZM1217.66 949.661H1203.45V933.73H1217.66V949.661ZM1217.66 930.271H1203.45V914.34H1217.66V930.271ZM1217.66 910.153H1203.45V894.222H1217.66V910.153ZM1217.66 890.672H1203.45V874.741H1217.66V890.672ZM1217.66 870.645H1203.45V854.714H1217.66V870.645ZM1217.66 851.801H1203.45V835.871H1217.66V851.801ZM1217.66 831.774H1203.45V815.844H1217.66V831.774ZM1217.66 812.293H1203.45V796.363H1217.66V812.293ZM1217.75 792.266H1203.55V776.336H1217.75V792.266ZM1217.75 772.694H1203.55V756.764H1217.75V772.694ZM1217.75 753.214H1203.55V737.374H1217.75V753.214ZM1217.75 733.642H1203.55V717.711H1217.75V733.642ZM1217.75 714.161H1203.55V698.23H1217.75V714.161ZM1217.75 694.68H1203.55V678.749H1217.75V694.68ZM1217.75 675.108H1203.55V659.269H1217.75V675.108ZM1235.41 1185.43H1221.21V1169.5H1235.41V1185.43ZM1235.41 1166.68H1221.21V1150.75H1235.41V1166.68ZM1235.41 1146.56H1221.21V1130.63H1235.41V1146.56ZM1235.41 1127.08H1221.21V1111.15H1235.41V1127.08ZM1235.41 1107.05H1221.21V1091.12H1235.41V1107.05ZM1235.41 1087.67H1221.21V1071.73H1235.41V1087.67ZM1235.41 1067.64H1221.21V1051.71H1235.41V1067.64ZM1235.41 1048.16H1221.21V1032.23H1235.41V1048.16ZM1235.41 1028.04H1221.21V1012.11H1235.41V1028.04ZM1235.41 1009.29H1221.21V993.356H1235.41V1009.29ZM1235.41 989.168H1221.21V973.238H1235.41V989.168ZM1235.41 969.779H1221.21V953.848H1235.41V969.779ZM1235.41 949.661H1221.21V933.73H1235.41V949.661ZM1235.41 930.271H1221.21V914.34H1235.41V930.271ZM1235.41 910.153H1221.21V894.222H1235.41V910.153ZM1235.41 890.672H1221.21V874.741H1235.41V890.672ZM1235.41 870.645H1221.21V854.714H1235.41V870.645ZM1235.41 851.801H1221.21V835.871H1235.41V851.801ZM1235.41 831.774H1221.21V815.844H1235.41V831.774ZM1235.41 812.293H1221.21V796.363H1235.41V812.293ZM1235.59 792.266H1221.39V776.336H1235.59V792.266ZM1235.59 772.694H1221.39V756.764H1235.59V772.694ZM1235.59 753.214H1221.39V737.374H1235.59V753.214ZM1235.59 733.642H1221.39V717.711H1235.59V733.642ZM1235.59 714.161H1221.39V698.23H1235.59V714.161ZM1235.59 694.68H1221.39V678.749H1235.59V694.68ZM1235.59 675.108H1221.39V659.269H1235.59V675.108ZM1239.23 776.336H1253.43V792.266H1239.23V776.336ZM1253.52 1185.43H1239.32V1169.5H1253.52V1185.43ZM1253.52 1166.68H1239.32V1150.75H1253.52V1166.68ZM1253.52 1146.56H1239.32V1130.63H1253.52V1146.56ZM1253.52 1127.08H1239.32V1111.15H1253.52V1127.08ZM1253.52 1107.05H1239.32V1091.12H1253.52V1107.05ZM1253.52 1087.67H1239.32V1071.73H1253.52V1087.67ZM1253.52 1067.64H1239.32V1051.71H1253.52V1067.64ZM1253.52 1048.16H1239.32V1032.23H1253.52V1048.16ZM1253.52 1028.04H1239.32V1012.11H1253.52V1028.04ZM1253.52 1009.29H1239.32V993.356H1253.52V1009.29ZM1253.52 989.168H1239.32V973.238H1253.52V989.168ZM1253.52 969.779H1239.32V953.848H1253.52V969.779ZM1253.52 949.661H1239.32V933.73H1253.52V949.661ZM1253.52 930.271H1239.32V914.34H1253.52V930.271ZM1253.52 910.153H1239.32V894.222H1253.52V910.153ZM1253.52 890.672H1239.32V874.741H1253.52V890.672ZM1253.52 870.645H1239.32V854.714H1253.52V870.645ZM1253.52 851.801H1239.32V835.871H1253.52V851.801ZM1253.52 831.774H1239.32V815.844H1253.52V831.774ZM1253.52 812.293H1239.32V796.363H1253.52V812.293Z" fill="white"/>
<path d="M1196.99 645.614V640.061V626.77H1212.92C1217.93 626.77 1220.93 623.311 1219.75 619.124L1214.83 602.556C1213.56 598.368 1209.92 594.909 1206.64 595H1183.88C1180.61 595 1176.96 598.459 1175.78 602.647L1171.05 619.124C1169.86 623.311 1172.96 626.77 1177.97 626.77H1193.8V640.061V645.614H1196.99ZM1200.54 625.041L1199.9 615.937H1208.01L1209.46 625.041H1200.54ZM1199.36 606.288H1206.37L1207.91 615.391H1199.9L1199.36 606.288ZM1199.36 615.391H1191.35L1191.8 606.288H1198.9L1199.36 615.391ZM1217.2 618.395C1218.2 622.037 1215.56 624.95 1211.37 624.95H1210.1L1208.55 615.846H1216.56L1217.2 618.395ZM1216.47 615.391H1208.46L1206.91 606.288H1214.01L1216.47 615.391ZM1206.09 596.73C1209.01 596.73 1212.1 599.643 1213.1 603.284L1213.83 605.833H1206.82L1205.27 596.73H1206.09ZM1204.82 596.73L1206.28 605.833H1199.27L1198.72 596.73H1204.82ZM1198.36 596.73L1198.9 605.833H1191.89L1192.26 596.73H1198.36ZM1191.8 596.73L1191.35 605.833H1184.34L1185.7 596.73H1191.8ZM1177.51 603.284C1178.42 599.734 1181.52 596.73 1184.43 596.73H1185.34L1183.88 605.833H1176.87L1177.51 603.284ZM1176.69 606.379H1183.79L1182.33 615.482H1174.32L1176.69 606.379ZM1179.51 625.041C1175.33 625.041 1172.59 622.128 1173.5 618.486L1174.23 615.937H1182.33L1180.88 625.041H1179.51ZM1190.44 625.041H1181.42L1182.79 615.937H1190.8L1190.44 625.041ZM1182.88 615.391L1184.25 606.288H1191.35L1190.89 615.391H1182.88ZM1190.98 625.041L1191.35 615.937H1199.45L1200 625.041H1190.98Z" fill="white"/>
<path d="M1247.79 645.614V640.061V626.77H1263.72C1268.72 626.77 1271.73 623.311 1270.45 619.124L1265.54 602.556C1264.26 598.368 1260.62 594.909 1257.35 595H1234.59C1231.4 595 1227.76 598.459 1226.49 602.647L1221.84 619.124C1220.66 623.311 1223.75 626.77 1228.76 626.77H1244.6V640.061V645.614H1247.79ZM1251.25 625.041L1250.61 615.937H1258.71L1260.17 625.041H1251.25ZM1250.06 606.288H1257.16L1258.71 615.391H1250.7L1250.06 606.288ZM1250.15 615.391H1242.14L1242.51 606.288H1249.61L1250.15 615.391ZM1268 618.395C1269 622.037 1266.36 624.95 1262.08 624.95H1260.8L1259.26 615.846H1267.27L1268 618.395ZM1267.18 615.391H1259.17L1257.62 606.288H1264.72L1267.18 615.391ZM1256.89 596.73C1259.8 596.73 1262.9 599.643 1263.9 603.284L1264.63 605.833H1257.62L1256.07 596.73H1256.89ZM1255.62 596.73L1257.07 605.833H1250.06L1249.52 596.73H1255.62ZM1249.06 596.73L1249.61 605.833H1242.51L1242.87 596.73H1249.06ZM1242.6 596.73L1242.14 605.833H1235.13L1236.5 596.73H1242.6ZM1228.22 603.284C1229.13 599.734 1232.22 596.73 1235.13 596.73H1236.04L1234.68 605.833H1227.67L1228.22 603.284ZM1227.49 606.379H1234.59L1233.13 615.482H1225.12L1227.49 606.379ZM1230.31 625.041C1226.12 625.041 1223.39 622.128 1224.3 618.486L1224.94 615.937H1233.04L1231.58 625.041H1230.31ZM1241.14 625.041H1232.13L1233.49 615.937H1241.51L1241.14 625.041ZM1233.68 615.391L1235.04 606.288H1242.14L1241.69 615.391H1233.68ZM1241.69 625.041L1242.05 615.937H1250.15L1250.7 625.041H1241.69Z" fill="white"/>
</g>
</g>
<defs>
<clipPath id="clip0">
<rect width="1920" height="1080" fill="white"/>
</clipPath>
<clipPath id="clip1">
<rect width="102.866" height="620.383" fill="white" transform="translate(663 595)"/>
</clipPath>
<clipPath id="clip2">
<rect width="102.866" height="620.383" fill="white" transform="translate(789.283 595)"/>
</clipPath>
<clipPath id="clip3">
<rect width="102.866" height="620.383" fill="white" transform="translate(915.567 595)"/>
</clipPath>
<clipPath id="clip4">
<rect width="102.866" height="620.383" fill="white" transform="translate(1041.85 595)"/>
</clipPath>
<clipPath id="clip5">
<rect width="102.866" height="620.383" fill="white" transform="translate(1168.13 595)"/>
</clipPath>
</defs>
</svg>
