<svg width="375" height="667" viewBox="0 0 375 667" fill="none" xmlns="http://www.w3.org/2000/svg">
<g clip-path="url(#clip0)">
<path d="M139.162 414.687H98.8299C98.5849 414.687 98.3865 414.492 98.3865 414.247C98.3865 414.002 98.5849 413.807 98.8299 413.807H139.162C139.407 413.807 139.606 414.002 139.606 414.247C139.606 414.492 139.407 414.687 139.162 414.687Z" fill="#F7F3E8"/>
<path d="M92.8002 414.687H83.538C83.2929 414.687 83.0984 414.492 83.0984 414.247C83.0984 414.002 83.2929 413.807 83.538 413.807H92.7535C92.9986 413.807 93.1931 414.002 93.1931 414.247C93.2437 414.492 93.0453 414.687 92.8002 414.687Z" fill="#F7F3E8"/>
<path d="M143.721 410.09H119.755C119.509 410.09 119.315 409.894 119.315 409.65C119.315 409.405 119.509 409.21 119.755 409.21H143.721C143.966 409.21 144.161 409.405 144.161 409.65C144.161 409.894 143.966 410.09 143.721 410.09Z" fill="#F7F3E8"/>
<path d="M250.414 447.309C250.364 447.309 250.313 447.309 250.313 447.309C250.169 447.26 250.068 447.162 250.021 447.064C247.423 441.391 242.23 437.429 236.052 436.5C235.908 436.5 235.807 436.402 235.76 436.304C235.71 436.207 235.663 436.06 235.71 435.962C236.2 434.152 236.496 432.245 236.496 430.386C236.496 418.845 227.086 409.503 215.567 409.503C209.786 409.503 204.196 411.9 200.275 416.155C200.178 416.301 199.983 416.35 199.836 416.301C194.74 414.785 189.399 414.443 183.809 415.47C183.665 415.518 183.563 415.47 183.466 415.372C183.369 415.274 183.318 415.176 183.272 415.03C183.174 413.807 183.027 412.633 182.782 411.557C182.731 411.362 182.828 411.166 182.976 411.068C185.917 409.259 187.683 406.128 187.683 402.656C187.683 397.227 183.272 392.777 177.83 392.777C174.694 392.777 171.707 394.293 169.843 396.836C169.746 396.983 169.548 397.081 169.353 396.983C167.342 396.347 165.237 396.005 163.129 396.005C152.003 396.005 142.936 405.053 142.936 416.155C142.936 423.001 146.417 429.359 152.198 433.076C152.396 433.174 152.443 433.419 152.396 433.614C152.346 433.81 152.151 433.957 151.906 433.908C151.12 433.81 150.436 433.81 149.798 433.81C143.426 433.81 137.497 436.647 133.525 441.586C133.382 441.782 133.086 441.831 132.891 441.635C132.693 441.489 132.646 441.195 132.841 441C137.007 435.864 143.181 432.881 149.848 432.881C150.043 432.881 150.191 432.881 150.385 432.881C145.141 428.919 142.056 422.757 142.056 416.155C142.056 404.515 151.513 395.075 163.18 395.075C165.284 395.075 167.342 395.369 169.353 396.005C171.36 393.364 174.546 391.847 177.88 391.847C183.809 391.847 188.663 396.689 188.663 402.607C188.663 406.275 186.851 409.601 183.762 411.606C183.956 412.487 184.104 413.416 184.201 414.394C189.644 413.465 194.837 413.807 199.886 415.274C204.002 411.019 209.736 408.574 215.664 408.574C227.724 408.574 237.476 418.355 237.476 430.386C237.476 432.196 237.231 434.006 236.787 435.717C242.864 436.793 247.964 440.706 250.706 446.233C253.254 444.423 256.246 443.494 259.381 443.494C259.626 443.494 259.824 443.689 259.824 443.934C259.824 444.179 259.626 444.374 259.381 444.374C256.246 444.374 253.305 445.352 250.803 447.26C250.609 447.309 250.512 447.309 250.414 447.309Z" fill="#F7F3E8"/>
<path d="M114.367 521.99H64.3754C64.1303 521.99 63.9358 521.794 63.9358 521.55C63.9358 521.305 64.1303 521.109 64.3754 521.109H114.367C114.612 521.109 114.806 521.305 114.806 521.55C114.806 521.794 114.612 521.99 114.367 521.99Z" fill="#F7F3E8"/>
<path d="M60.1118 521.99H56.0934C55.8483 521.99 55.6538 521.795 55.6538 521.55C55.6538 521.306 55.8483 521.11 56.0934 521.11H60.1118C60.3569 521.11 60.5553 521.306 60.5553 521.55C60.5553 521.795 60.3569 521.99 60.1118 521.99Z" fill="#F7F3E8"/>
<path d="M129.266 516.366H41.4396C41.1945 516.366 41 516.17 41 515.926C41 515.681 41.1945 515.486 41.4396 515.486H129.266C129.511 515.486 129.705 515.681 129.705 515.926C129.705 516.17 129.511 516.366 129.266 516.366Z" fill="#F7F3E8"/>
<path d="M280.551 541.505H229.093C228.848 541.505 228.653 541.309 228.653 541.065C228.653 540.82 228.848 540.624 229.093 540.624H280.551C280.796 540.624 280.994 540.82 280.994 541.065C280.994 541.309 280.796 541.505 280.551 541.505Z" fill="#F7F3E8"/>
<path d="M301.429 541.504H291.038C290.793 541.504 290.599 541.309 290.599 541.064C290.599 540.82 290.793 540.624 291.038 540.624H301.429C301.674 540.624 301.872 540.82 301.872 541.064C301.872 541.309 301.674 541.504 301.429 541.504Z" fill="#F7F3E8"/>
<path d="M313.387 541.504H307.606C307.361 541.504 307.163 541.309 307.163 541.064C307.163 540.82 307.361 540.624 307.606 540.624H313.387C313.632 540.624 313.83 540.82 313.83 541.064C313.83 541.309 313.632 541.504 313.387 541.504Z" fill="#F7F3E8"/>
<path d="M334.56 547.178H277.12C276.874 547.178 276.68 546.982 276.68 546.738C276.68 546.493 276.874 546.298 277.12 546.298H334.56C334.805 546.298 335 546.493 335 546.738C335 546.933 334.805 547.178 334.56 547.178Z" fill="#F7F3E8"/>
<path d="M270.899 547.178H220.274C220.029 547.178 219.831 546.982 219.831 546.738C219.831 546.493 220.029 546.298 220.274 546.298H270.899C271.145 546.298 271.339 546.493 271.339 546.738C271.339 546.933 271.145 547.178 270.899 547.178Z" fill="#F7F3E8"/>
<path d="M215.127 547.178H207.53C207.285 547.178 207.09 546.982 207.09 546.738C207.09 546.493 207.285 546.298 207.53 546.298H215.127C215.372 546.298 215.567 546.493 215.567 546.738C215.567 546.933 215.372 547.178 215.127 547.178Z" fill="#F7F3E8"/>
<path d="M218.702 630.81H192.974C192.728 630.81 192.534 630.614 192.534 630.369C192.534 630.124 192.728 629.929 192.974 629.929H218.702C218.948 629.929 219.146 630.124 219.146 630.369C219.146 630.614 218.948 630.81 218.702 630.81Z" fill="#F7F3E8"/>
<path d="M239.58 630.809H229.19C228.945 630.809 228.75 630.613 228.75 630.369C228.75 630.124 228.945 629.928 229.19 629.928H239.58C239.826 629.928 240.024 630.124 240.024 630.369C240.024 630.613 239.826 630.809 239.58 630.809Z" fill="#F7F3E8"/>
<path d="M251.539 630.809H245.758C245.513 630.809 245.314 630.613 245.314 630.369C245.314 630.124 245.513 629.928 245.758 629.928H251.539C251.784 629.928 251.982 630.124 251.982 630.369C251.982 630.613 251.784 630.809 251.539 630.809Z" fill="#F7F3E8"/>
<path d="M272.712 636.431H215.275C215.03 636.431 214.832 636.237 214.832 635.992C214.832 635.747 215.03 635.552 215.275 635.552H272.712C272.957 635.552 273.152 635.747 273.152 635.992C273.152 636.237 272.957 636.431 272.712 636.431Z" fill="#F7F3E8"/>
<path d="M209.051 636.431H184.155C183.91 636.431 183.711 636.237 183.711 635.992C183.711 635.747 183.91 635.552 184.155 635.552H209.051C209.296 635.552 209.491 635.747 209.491 635.992C209.491 636.237 209.296 636.431 209.051 636.431Z" fill="#F7F3E8"/>
<path d="M179.008 636.431H171.411C171.166 636.431 170.971 636.237 170.971 635.992C170.971 635.747 171.166 635.552 171.411 635.552H179.008C179.253 635.552 179.448 635.747 179.448 635.992C179.448 636.237 179.253 636.431 179.008 636.431Z" fill="#F7F3E8"/>
<path d="M94.3679 667.05H104.023L102.7 557.154H95.6439L94.3679 667.05Z" fill="#177D8F"/>
<path d="M95.7917 543.851C83.0479 543.851 75.0615 549.426 75.0615 549.426V554.561C75.0615 554.561 83.0479 560.137 95.7917 560.137C103.093 560.137 107.26 556.567 107.26 556.567V547.372C107.26 547.421 103.093 543.851 95.7917 543.851Z" fill="#177D8F"/>
<path d="M103.712 543.174L101.07 544.343L103.412 549.619L106.057 548.45L103.712 543.174Z" fill="#1E193D"/>
<path d="M75.8939 489.808L91.9171 538.96L99.0748 541.504L100.74 545.269L104.61 543.558L79.9123 487.999C79.4688 487.02 78.2941 486.58 77.3138 487.02L77.022 487.118C76.0884 487.558 75.5516 488.732 75.8939 489.808Z" fill="#51A8B7"/>
<path d="M102.992 553.523L99.5884 558.189L101.926 559.888L105.33 555.222L102.992 553.523Z" fill="#1E193D"/>
<path d="M67.1687 608.947L101.771 570.555L100.398 563.072L102.798 559.746L99.3668 557.252L63.5937 606.306C62.9557 607.186 63.1503 608.409 64.0333 609.045L64.2784 609.192C65.1614 609.876 66.4334 609.73 67.1687 608.947Z" fill="#51A8B7"/>
<path d="M109.244 550.763L108.94 553.632L114.69 554.243L114.993 551.373L109.244 550.763Z" fill="#1E193D"/>
<path d="M174.939 556.86L124.314 546.149L118.529 551.04L114.464 550.6L114.021 554.806L174.449 561.262C175.526 561.36 176.507 560.577 176.604 559.501L176.655 559.208C176.752 558.132 175.97 557.105 174.939 556.86Z" fill="#51A8B7"/>
<path d="M106.964 547.519C104.466 547.519 102.455 549.524 102.455 552.018C102.455 554.513 104.466 556.518 106.964 556.518C110.298 556.518 113.239 554.708 114.806 552.018C113.239 549.328 110.344 547.519 106.964 547.519Z" fill="#51A8B7"/>
<path d="M252.962 667.05H265.558L263.894 515.876H254.678L252.962 667.05Z" fill="#51A8B7"/>
<path d="M254.826 498.563C238.211 498.563 227.871 505.801 227.871 505.801V512.502C227.871 512.502 238.211 519.74 254.826 519.74C264.282 519.74 269.725 515.094 269.725 515.094V503.111C269.725 503.16 264.333 498.563 254.826 498.563Z" fill="#51A8B7"/>
<path d="M256.635 505.921L256.234 509.665L263.687 510.46L264.088 506.715L256.635 505.921Z" fill="#1E193D"/>
<path d="M178.323 502.476L244.14 516.414L251.686 510.007L256.981 510.594L257.568 505.165L178.957 496.802C177.538 496.655 176.312 497.683 176.164 499.052L176.118 499.443C175.919 500.813 176.95 502.182 178.323 502.476Z" fill="#AFDDDA"/>
<path d="M271.246 511.927L267.795 513.454L270.837 520.295L274.288 518.768L271.246 511.927Z" fill="#1E193D"/>
<path d="M307.019 589.678L286.187 525.805L276.878 522.479L274.719 517.588L269.721 519.789L301.775 591.927C302.362 593.199 303.833 593.786 305.155 593.248L305.498 593.101C306.774 592.563 307.458 590.998 307.019 589.678Z" fill="#AFDDDA"/>
<path d="M273.163 498.557L268.748 504.605L271.798 506.822L276.213 500.775L273.163 498.557Z" fill="#1E193D"/>
<path d="M318.339 434.837L273.35 484.771L275.112 494.455L271.977 498.758L276.439 501.986L322.995 438.211C323.828 437.086 323.583 435.472 322.458 434.641L322.163 434.396C320.988 433.614 319.272 433.761 318.339 434.837Z" fill="#AFDDDA"/>
<path d="M269.429 503.307C266.192 503.307 263.547 505.948 263.547 509.176C263.547 512.403 266.192 515.044 269.429 515.044C273.79 515.044 277.563 512.697 279.621 509.176C277.563 505.654 273.739 503.307 269.429 503.307Z" fill="#AFDDDA"/>
<path d="M194.397 667.05H210.914L208.658 460.073H196.653L194.397 667.05Z" fill="#AFDDDA"/>
<path d="M196.848 437.38C175.087 437.38 161.515 446.917 161.515 446.917V455.721C161.515 455.721 175.087 465.258 196.848 465.258C209.296 465.258 216.353 459.193 216.353 459.193V443.494C216.353 443.445 209.296 437.38 196.848 437.38Z" fill="#51A8B7"/>
<path d="M208.806 471.762L208.658 460.073H196.65L196.506 471.762H208.806Z" fill="#51A8B7"/>
<path d="M204.395 447.7C205.815 444.081 208.954 441.635 212.529 440.999C209.246 439.288 203.905 437.331 196.848 437.331C175.087 437.331 161.515 446.868 161.515 446.868V450.977H203.71C203.757 449.901 203.955 448.776 204.395 447.7Z" fill="#F7F3E8"/>
<path d="M186.555 455.966H163.619C163.471 455.966 163.323 455.819 163.323 455.672C163.323 455.525 163.471 455.379 163.619 455.379H186.555C188.811 455.379 190.67 453.52 190.67 451.27C190.67 449.021 188.811 447.162 186.555 447.162H163.619C163.471 447.162 163.323 447.015 163.323 446.869C163.323 446.722 163.471 446.575 163.619 446.575H186.555C189.153 446.575 191.258 448.678 191.258 451.27C191.258 453.862 189.153 455.966 186.555 455.966Z" fill="#1E193D"/>
<path d="M221.546 454.107C223.114 450.047 221.107 445.45 216.991 443.885C212.922 442.32 208.316 444.325 206.748 448.433C205.177 452.493 207.188 457.09 211.304 458.655C215.373 460.22 219.979 458.215 221.546 454.107Z" fill="#1E193D"/>
<path d="M213.513 435.815L212.47 445.59L217.395 446.112L218.434 436.337L213.513 435.815Z" fill="#E6E3E6"/>
<path d="M222.919 333.843L204.64 420.018L213.019 429.848L212.284 436.793L219.442 437.576L230.419 334.675C230.614 332.816 229.291 331.202 227.428 331.007L226.938 330.958C225.125 330.713 223.312 332.034 222.919 333.843Z" fill="#F7F3E8"/>
<path d="M204.64 420.019L213.019 429.849L216.353 398.499L204.64 420.019Z" fill="#AFDDDA"/>
<path d="M215.726 438.264L214.237 439.461L215.435 440.946L216.925 439.749L215.726 438.264Z" fill="#1E193D"/>
<path d="M208.534 450.948L199.528 454.933L201.536 459.448L210.541 455.463L208.534 450.948Z" fill="#E6E3E6"/>
<path d="M108.337 502.329L192.289 475.087L196.654 462.909L203.022 460.073L200.081 453.519L105.299 495.482C103.584 496.215 102.848 498.221 103.584 499.883L103.782 500.324C104.517 501.986 106.575 502.916 108.337 502.329Z" fill="#F7F3E8"/>
<path d="M192.242 475.087L196.603 462.909L167.688 475.674L192.242 475.087Z" fill="#AFDDDA"/>
<path d="M205.033 455.231L204.344 457.041L202.531 456.356L203.22 454.546L205.033 455.231Z" fill="#1E193D"/>
<path d="M220.091 452.243L217.177 456.235L225.137 462.024L228.05 458.032L220.091 452.243Z" fill="#E6E3E6"/>
<path d="M311.819 517.149L246.197 458.215L233.457 460.562L227.821 456.454L223.557 462.274L307.361 523.213C308.882 524.289 310.94 523.995 312.064 522.479L312.36 522.088C313.437 520.572 313.243 518.371 311.819 517.149Z" fill="#F7F3E8"/>
<path d="M246.198 458.215L233.458 460.562L259.039 479.147L246.198 458.215Z" fill="#AFDDDA"/>
<path d="M222.624 457.09L224.487 456.797L224.829 458.704L222.919 458.997L222.624 457.09Z" fill="#1E193D"/>
<path d="M215.96 443.591C211.696 443.591 208.265 447.015 208.265 451.27C208.265 455.525 211.696 458.948 215.96 458.948C221.647 458.948 226.646 455.867 229.291 451.27C226.646 446.673 221.647 443.591 215.96 443.591Z" fill="#F7F3E8"/>
<path d="M207.678 467.214H197.583C197.435 467.214 197.288 467.067 197.288 466.92C197.288 466.773 197.435 466.627 197.583 466.627H207.678C207.826 466.627 207.974 466.773 207.974 466.92C208.02 467.067 207.873 467.214 207.678 467.214Z" fill="#1E193D"/>
<path d="M207.678 469.61H197.583C197.435 469.61 197.288 469.464 197.288 469.317C197.288 469.17 197.435 469.024 197.583 469.024H207.678C207.826 469.024 207.974 469.17 207.974 469.317C208.02 469.464 207.873 469.61 207.678 469.61Z" fill="#1E193D"/>
<path d="M202.531 667.05H210.915L208.806 473.18L202.531 479.489V667.05Z" fill="#F7F3E8"/>
</g>
<defs>
<clipPath id="clip0">
<rect width="375" height="667" fill="white"/>
</clipPath>
</defs>
</svg>
