<svg width="753" height="549" viewBox="0 0 753 549" fill="none" xmlns="http://www.w3.org/2000/svg">
<g clip-path="url(#clip0)">
<path d="M228.271 421.372C144.826 421.372 77.0863 353.633 77.0863 270.187C77.0863 186.645 144.729 119.002 228.271 119.002C231.451 119.002 234.631 119.098 237.811 119.291V35.6522C190.788 35.6522 147.716 48.3714 108.306 74.0026C-1.83069 145.596 -33.1469 292.831 38.3505 402.968C109.848 513.104 257.179 544.421 367.316 472.923L315.764 393.428C291.097 411.062 260.937 421.372 228.271 421.372Z" fill="#00629D"/>
<path d="M380.998 83.5417L326.749 155.521C359.029 183.272 379.457 224.32 379.457 270.187C379.457 321.063 354.307 366.062 315.764 393.524L367.316 473.02C391.983 457.024 410.002 440.162 427.732 416.65C506.841 311.717 485.932 162.555 380.998 83.5417Z" fill="#2F3C61"/>
<path d="M326.749 155.522L380.998 83.5425C357.68 66.0054 335.325 54.5388 307.381 46.0593L282.039 128.831C298.516 135.094 313.644 144.151 326.749 155.522Z" fill="#AFE1F5"/>
<path d="M282.039 128.831L307.381 46.0594C296.204 42.6869 286.568 40.4706 275.005 38.6398L261.708 122.76C268.742 124.302 275.487 126.325 282.039 128.831Z" fill="#008C6A"/>
<path d="M261.708 122.76L275.101 38.5431C266.622 37.1941 258.913 36.4233 250.337 35.9415L245.905 119.965C251.301 120.64 256.601 121.507 261.708 122.76Z" fill="#414141"/>
<path d="M245.905 120.062L250.338 36.038C245.231 35.749 243.014 35.749 237.907 35.749V119.387C240.605 119.484 243.207 119.677 245.905 120.062Z" fill="#FFFF00"/>
<path d="M579.302 118.424C580.266 118.231 581.615 118.135 583.253 118.135C585.276 118.135 586.722 118.617 587.685 119.484C588.553 120.255 589.034 121.411 589.034 122.76C589.034 124.206 588.649 125.265 587.782 126.133C586.722 127.289 584.987 127.867 582.964 127.867C582.386 127.867 581.808 127.867 581.326 127.771V134.13H579.302V118.424ZM581.326 126.036C581.808 126.133 582.289 126.229 582.964 126.229C585.373 126.229 586.914 125.073 586.914 122.857C586.914 120.737 585.469 119.773 583.157 119.773C582.289 119.773 581.615 119.869 581.229 119.966V126.036H581.326Z" fill="white"/>
<path d="M591.732 118.232H593.756V132.3H600.501V134.035H591.732V118.232Z" fill="white"/>
<path d="M605.801 119.966H600.983V118.232H612.642V119.966H607.824V134.035H605.801V119.966Z" fill="white"/>
<path d="M614.376 118.424C615.244 118.231 616.689 118.135 618.134 118.135C620.158 118.135 621.507 118.52 622.471 119.291C623.241 119.869 623.82 120.833 623.82 122.086C623.82 123.627 622.856 124.976 621.122 125.555C622.663 125.94 624.398 127.193 624.398 129.505C624.398 130.854 623.82 131.914 623.049 132.685C621.989 133.649 620.158 134.13 617.556 134.13C616.111 134.13 615.051 134.034 614.376 133.938V118.424ZM616.496 124.88H618.327C620.447 124.88 621.7 123.724 621.7 122.278C621.7 120.448 620.254 119.677 618.231 119.677C617.267 119.677 616.785 119.773 616.4 119.773V124.88H616.496ZM616.496 132.492C616.882 132.589 617.46 132.589 618.231 132.589C620.351 132.589 622.278 131.818 622.278 129.505C622.278 127.385 620.447 126.422 618.231 126.422H616.593V132.492H616.496Z" fill="white"/>
<path d="M658.412 111.004L655.233 112.642L654.751 110.812L658.605 108.692H660.628V126.518H658.316V111.004H658.412Z" fill="white"/>
<path d="M667.759 123.82C668.433 124.302 670.071 124.976 671.709 124.976C674.793 124.976 675.757 122.953 675.757 121.508C675.757 119.002 673.444 117.942 671.131 117.942H669.782V116.112H671.131C672.866 116.112 675.082 115.244 675.082 113.124C675.082 111.679 674.215 110.426 671.902 110.426C670.457 110.426 669.108 111.101 668.337 111.583L667.663 109.848C668.626 109.174 670.457 108.499 672.288 108.499C675.853 108.499 677.395 110.619 677.395 112.739C677.395 114.57 676.335 116.112 674.118 116.979V117.075C676.335 117.557 678.069 119.195 678.069 121.7C678.069 124.591 675.853 127.096 671.517 127.096C669.493 127.096 667.759 126.422 666.892 125.844L667.759 123.82Z" fill="white"/>
<path d="M686.549 111.004L683.369 112.642L682.887 110.812L686.741 108.692H688.765V126.518H686.452V111.004H686.549Z" fill="white"/>
<path d="M711.505 120.833C711.409 119.002 711.312 116.786 711.312 115.148H711.216C710.734 116.689 710.253 118.327 709.578 120.158L707.265 126.518H706.013L703.893 120.255C703.218 118.424 702.737 116.689 702.351 115.148C702.351 116.786 702.255 119.002 702.062 121.026L701.677 126.711H700.039L701.002 113.51H703.218L705.435 119.869C706.013 121.507 706.398 122.953 706.784 124.302H706.88C707.169 122.953 707.651 121.507 708.229 119.869L710.542 113.51H712.758L713.625 126.711H711.987L711.505 120.833Z" fill="white"/>
<path d="M718.347 126.615L714.974 113.413H716.805L718.347 120.062C718.732 121.7 719.118 123.338 719.31 124.591C719.503 123.242 719.985 121.7 720.37 119.966L722.105 113.317H723.839L725.477 119.966C725.863 121.508 726.248 123.049 726.441 124.495C726.73 123.049 727.115 121.604 727.501 119.966L729.235 113.317H730.97L727.212 126.518H725.574L723.935 119.677C723.55 118.039 723.261 116.69 723.068 115.341C722.876 116.69 722.586 117.942 722.008 119.677L720.177 126.518H718.347V126.615Z" fill="white"/>
<path d="M656.967 136.539C655.521 138.466 654.558 140.971 654.558 144.44C654.558 147.909 655.618 150.414 656.967 152.341H655.618C654.365 150.703 653.113 148.294 653.113 144.44C653.113 140.586 654.462 138.177 655.618 136.539H656.967Z" fill="white"/>
<path d="M661.977 139.044L659.761 140.2L659.472 138.948L662.267 137.502H663.712V150.125H661.977V139.044Z" fill="white"/>
<path d="M667.663 152.438C668.048 151.281 668.626 149.258 668.819 147.812L670.746 147.62C670.264 149.258 669.493 151.378 668.915 152.341L667.663 152.438Z" fill="white"/>
<path d="M679.418 138.658C679.033 138.658 678.648 138.658 678.166 138.755C675.468 139.236 674.119 141.164 673.83 143.187H673.926C674.504 142.416 675.564 141.742 677.01 141.742C679.226 141.742 680.767 143.38 680.767 145.789C680.767 148.101 679.226 150.221 676.624 150.221C673.926 150.221 672.192 148.101 672.192 144.825C672.192 142.32 673.059 140.393 674.312 139.14C675.371 138.08 676.72 137.502 678.359 137.309C678.84 137.213 679.322 137.213 679.611 137.213V138.658H679.418ZM678.937 145.885C678.937 144.054 677.877 142.994 676.335 142.994C675.275 142.994 674.312 143.669 673.926 144.536C673.83 144.729 673.733 145.018 673.733 145.307C673.733 147.427 674.697 148.872 676.528 148.872C677.973 148.872 678.937 147.716 678.937 145.885Z" fill="white"/>
<path d="M687.416 150.029V146.56H681.538V145.5L687.127 137.502H688.958V145.307H690.692V146.656H688.958V150.125H687.416V150.029ZM687.416 145.211V140.971C687.416 140.297 687.416 139.622 687.512 138.948H687.416C687.031 139.719 686.741 140.2 686.356 140.778L683.273 145.018H687.416V145.211Z" fill="white"/>
<path d="M695.799 143.573C695.799 145.5 694.835 146.367 693.679 146.367C692.523 146.367 691.559 145.5 691.559 143.669C691.559 141.838 692.523 140.875 693.775 140.875C695.028 140.875 695.799 141.838 695.799 143.573ZM692.523 143.669C692.523 144.825 692.908 145.692 693.679 145.692C694.45 145.692 694.835 144.825 694.835 143.669C694.835 142.609 694.546 141.645 693.679 141.645C692.908 141.645 692.523 142.513 692.523 143.669ZM693.583 150.125L698.882 140.875H699.653L694.353 150.125H693.583ZM701.677 147.234C701.677 149.161 700.713 150.029 699.557 150.029C698.4 150.029 697.437 149.161 697.437 147.33C697.437 145.5 698.4 144.536 699.653 144.536C700.809 144.632 701.677 145.596 701.677 147.234ZM698.4 147.33C698.4 148.487 698.786 149.354 699.557 149.354C700.328 149.354 700.713 148.487 700.713 147.33C700.713 146.271 700.424 145.307 699.557 145.307C698.786 145.307 698.4 146.271 698.4 147.33Z" fill="white"/>
<path d="M700.713 152.341C702.062 150.414 703.122 147.909 703.122 144.44C703.122 140.971 702.062 138.466 700.713 136.539H702.062C703.315 138.08 704.567 140.586 704.567 144.44C704.567 148.198 703.315 150.703 702.062 152.341H700.713Z" fill="white"/>
<path d="M579.302 29.195C580.266 29.0023 581.615 28.9059 583.253 28.9059C585.276 28.9059 586.722 29.3877 587.685 30.255C588.553 31.0258 589.034 32.1821 589.034 33.5311C589.034 34.9765 588.649 36.0364 587.782 36.9036C586.722 38.0599 584.987 38.6381 582.964 38.6381C582.386 38.6381 581.808 38.6381 581.326 38.5417V44.9013H579.302V29.195ZM581.326 36.8073C581.808 36.9036 582.289 37 582.964 37C585.373 37 586.914 35.8437 586.914 33.6275C586.914 31.5076 585.469 30.544 583.157 30.544C582.289 30.544 581.615 30.6404 581.229 30.7367V36.8073H581.326Z" fill="white"/>
<path d="M591.732 29.003H593.756V43.0712H600.501V44.8056H591.732V29.003Z" fill="white"/>
<path d="M605.801 30.7374H600.983V29.003H612.642V30.7374H607.824V44.8056H605.801V30.7374Z" fill="white"/>
<path d="M614.183 42.3006C615.051 42.8787 616.4 43.3605 617.845 43.3605C619.965 43.3605 621.121 42.3006 621.121 40.6625C621.121 39.2171 620.254 38.3499 618.134 37.4827C615.532 36.6155 613.991 35.2665 613.991 33.0502C613.991 30.5449 616.014 28.8105 619.098 28.8105C620.736 28.8105 621.892 29.1959 622.567 29.5813L621.988 31.2194C621.507 30.9304 620.447 30.4486 619.001 30.4486C616.881 30.4486 616.014 31.7012 616.014 32.8575C616.014 34.3029 616.978 35.0737 619.194 35.941C621.892 37.0009 623.241 38.2535 623.241 40.5661C623.241 42.9751 621.41 45.0949 617.749 45.0949C616.207 45.0949 614.569 44.6131 613.702 44.1314L614.183 42.3006Z" fill="white"/>
<path d="M664.675 19.7533V21.3914L656.87 37.6758H654.365L662.074 21.8732V21.7768H653.305V19.7533H664.675V19.7533Z" fill="white"/>
<path d="M668.626 35.9412C669.108 36.0375 669.783 35.9412 670.554 35.8448C671.999 35.6521 673.252 35.0739 674.312 34.1104C675.468 33.0504 676.335 31.5087 676.72 29.3888H676.624C675.661 30.6415 674.215 31.316 672.384 31.316C669.205 31.316 667.085 28.907 667.085 25.8236C667.085 22.4511 669.494 19.464 673.155 19.464C676.817 19.464 679.033 22.4511 679.033 26.9799C679.033 30.9306 677.684 33.6286 675.95 35.363C674.601 36.712 672.673 37.5792 670.746 37.7719C669.879 37.8683 669.108 37.9647 668.53 37.8683V35.9412H668.626ZM669.494 25.6309C669.494 27.8471 670.843 29.3888 672.963 29.3888C674.601 29.3888 675.853 28.618 676.528 27.558C676.624 27.3653 676.72 27.0762 676.72 26.6908C676.72 23.6074 675.564 21.2948 673.059 21.2948C670.939 21.2948 669.494 23.1256 669.494 25.6309Z" fill="white"/>
<path d="M697.823 31.8943C697.726 30.0635 697.63 27.8473 697.63 26.2092C697.148 27.7509 696.666 29.389 695.992 31.2198L693.679 37.5794H692.427L690.307 31.3161C689.632 29.4854 689.15 27.7509 688.765 26.2092C688.765 27.8473 688.669 30.0635 688.476 32.087L688.09 37.7721H686.452L687.416 24.5711H689.632L691.848 30.9307C692.427 32.5688 692.812 34.0142 693.197 35.3632H693.294C693.583 34.0142 694.065 32.5688 694.643 30.9307L696.955 24.5711H699.172L700.039 37.7721H698.401L697.823 31.8943Z" fill="white"/>
<path d="M704.664 37.676L701.292 24.475H703.123L704.664 31.1237C705.05 32.7618 705.435 34.3999 705.628 35.6525C705.821 34.3035 706.302 32.7618 706.688 31.0273L708.422 24.3787H710.157L711.795 31.0273C712.18 32.5691 712.566 34.1108 712.758 35.5562C713.047 34.1108 713.433 32.6654 713.818 31.0273L715.553 24.3787H717.287L713.529 37.5797H711.795L710.157 30.7383C709.771 29.1002 709.482 27.7512 709.289 26.4022C709.097 27.7512 708.808 29.0038 708.23 30.7383L706.399 37.5797H704.664V37.676Z" fill="white"/>
<path d="M656.967 47.6003C655.521 49.5274 654.558 52.0327 654.558 55.5016C654.558 58.9705 655.618 61.4758 656.967 63.403H655.618C654.365 61.7649 653.113 59.3559 653.113 55.5016C653.113 51.6473 654.462 49.2384 655.618 47.6003H656.967V47.6003Z" fill="white"/>
<path d="M666.602 54.6341C666.602 58.8739 665.061 61.2828 662.266 61.2828C659.761 61.2828 658.123 58.9702 658.123 54.8269C658.123 50.5871 659.954 48.2745 662.459 48.2745C665.157 48.2745 666.602 50.5871 666.602 54.6341ZM659.761 54.8269C659.761 58.103 660.724 59.9338 662.363 59.9338C664.097 59.9338 664.964 57.9103 664.964 54.6341C664.964 51.5507 664.193 49.5272 662.363 49.5272C660.917 49.5272 659.761 51.358 659.761 54.8269Z" fill="white"/>
<path d="M667.663 63.4024C668.048 62.2461 668.626 60.2226 668.819 58.7773L670.746 58.5845C670.264 60.2226 669.493 62.3425 668.915 63.3061L667.663 63.4024Z" fill="white"/>
<path d="M673.251 59.8381C673.637 59.8381 674.022 59.8381 674.6 59.7418C675.564 59.6454 676.527 59.1636 677.202 58.4891C678.069 57.7182 678.647 56.6583 678.84 55.1166H678.744C678.069 55.9838 677.009 56.4656 675.756 56.4656C673.444 56.4656 671.999 54.7312 671.999 52.6113C671.999 50.2023 673.733 48.1788 676.335 48.1788C678.936 48.1788 680.478 50.2987 680.478 53.4785C680.478 56.2729 679.515 58.2 678.262 59.3563C677.298 60.3199 675.949 60.898 674.6 60.9944C674.022 61.0908 673.444 61.0908 673.058 61.0908V59.8381H673.251ZM673.829 52.6113C673.829 54.153 674.793 55.3093 676.238 55.3093C677.395 55.3093 678.262 54.7312 678.744 53.9603C678.84 53.7676 678.936 53.5749 678.936 53.3822C678.936 51.2623 678.165 49.6242 676.335 49.6242C674.889 49.5278 673.829 50.7805 673.829 52.6113Z" fill="white"/>
<path d="M683.176 59.8381C683.562 59.8381 683.947 59.8381 684.526 59.7418C685.489 59.6454 686.453 59.1636 687.127 58.4891C687.994 57.7182 688.573 56.6583 688.765 55.1166H688.669C687.994 55.9838 686.934 56.4656 685.682 56.4656C683.369 56.4656 681.924 54.7312 681.924 52.6113C681.924 50.2023 683.658 48.1788 686.26 48.1788C688.862 48.1788 690.403 50.2987 690.403 53.4785C690.403 56.2729 689.44 58.2 688.187 59.3563C687.224 60.3199 685.875 60.898 684.526 60.9944C683.947 61.0908 683.369 61.0908 682.984 61.0908V59.8381H683.176ZM683.755 52.6113C683.755 54.153 684.718 55.3093 686.164 55.3093C687.32 55.3093 688.187 54.7312 688.669 53.9603C688.765 53.7676 688.862 53.5749 688.862 53.3822C688.862 51.2623 688.091 49.6242 686.26 49.6242C684.815 49.5278 683.755 50.7805 683.755 52.6113Z" fill="white"/>
<path d="M695.799 54.6344C695.799 56.5616 694.835 57.4288 693.679 57.4288C692.523 57.4288 691.559 56.5616 691.559 54.7308C691.559 52.9 692.523 51.9364 693.775 51.9364C694.932 51.9364 695.799 52.9 695.799 54.6344ZM692.523 54.6344C692.523 55.7907 692.908 56.6579 693.679 56.6579C694.45 56.6579 694.835 55.7907 694.835 54.6344C694.835 53.5745 694.546 52.6109 693.679 52.6109C692.908 52.6109 692.523 53.5745 692.523 54.6344ZM693.486 61.1867L698.786 51.9364H699.557L694.257 61.1867H693.486ZM701.58 58.296C701.58 60.2232 700.617 61.0904 699.46 61.0904C698.304 61.0904 697.341 60.2232 697.341 58.3924C697.341 56.5616 698.304 55.598 699.557 55.598C700.809 55.598 701.58 56.5616 701.58 58.296ZM698.304 58.3924C698.304 59.5487 698.69 60.4159 699.46 60.4159C700.231 60.4159 700.617 59.5487 700.617 58.3924C700.617 57.3324 700.328 56.3689 699.46 56.3689C698.786 56.3689 698.304 57.2361 698.304 58.3924Z" fill="white"/>
<path d="M700.617 63.403C701.966 61.4758 703.026 58.9705 703.026 55.5016C703.026 52.0327 701.966 49.5274 700.617 47.6003H701.966C703.218 49.142 704.471 51.6473 704.471 55.5016C704.471 59.2596 703.218 61.7649 701.966 63.403H700.617Z" fill="white"/>
<path d="M579.302 208.807C580.266 208.614 581.615 208.518 583.253 208.518C585.276 208.518 586.722 208.999 587.685 209.867C588.553 210.638 589.034 211.794 589.034 213.143C589.034 214.588 588.649 215.648 587.782 216.515C586.722 217.672 584.987 218.25 582.964 218.25C582.386 218.25 581.808 218.25 581.326 218.153V224.513H579.302V208.807ZM581.326 216.419C581.808 216.515 582.289 216.612 582.964 216.612C585.373 216.612 586.914 215.455 586.914 213.239C586.914 211.119 585.469 210.156 583.157 210.156C582.289 210.156 581.615 210.252 581.229 210.349V216.419H581.326Z" fill="white"/>
<path d="M591.732 208.614H593.756V222.683H600.501V224.417H591.732V208.614Z" fill="white"/>
<path d="M605.801 210.349H600.983V208.614H612.642V210.349H607.824V224.417H605.801V210.349Z" fill="white"/>
<path d="M614.376 208.807C615.244 208.614 616.689 208.518 618.134 208.518C620.158 208.518 621.507 208.903 622.471 209.674C623.241 210.252 623.82 211.216 623.82 212.468C623.82 214.01 622.856 215.359 621.122 215.937C622.663 216.323 624.398 217.575 624.398 219.888C624.398 221.237 623.82 222.297 623.049 223.068C621.989 224.031 620.158 224.513 617.556 224.513C616.111 224.513 615.051 224.417 614.376 224.32V208.807ZM616.496 215.263H618.327C620.447 215.263 621.7 214.106 621.7 212.661C621.7 210.83 620.254 210.059 618.231 210.059C617.267 210.059 616.785 210.156 616.4 210.156V215.263H616.496ZM616.496 222.875C616.882 222.971 617.46 222.971 618.231 222.971C620.351 222.971 622.278 222.2 622.278 219.888C622.278 217.768 620.447 216.804 618.231 216.804H616.593V222.875H616.496Z" fill="white"/>
<path d="M634.997 220.273C634.901 218.924 634.804 217.383 634.901 216.226C634.611 217.286 634.226 218.443 633.744 219.792L632.106 224.32H631.143L629.601 219.888C629.119 218.539 628.83 217.383 628.541 216.226C628.541 217.383 628.445 218.924 628.348 220.37L628.059 224.417H626.903L627.577 215.07H629.119L630.757 219.599C631.143 220.755 631.432 221.815 631.721 222.779C631.913 221.815 632.299 220.852 632.684 219.599L634.322 215.07H635.864L636.442 224.417H635.286L634.997 220.273Z" fill="white"/>
<path d="M658.412 199.942L655.233 201.581L654.751 199.75L658.605 197.63H660.628V215.456H658.316V199.942H658.412Z" fill="white"/>
<path d="M678.84 197.726V199.364L671.035 215.648H668.53L676.238 199.845V199.749H667.47V197.726H678.84Z" fill="white"/>
<path d="M681.056 211.023C681.056 208.807 682.405 207.169 684.622 206.206V206.109C682.598 205.146 681.827 203.604 681.827 202.062C681.827 199.268 684.236 197.341 687.32 197.341C690.789 197.341 692.523 199.557 692.523 201.773C692.523 203.315 691.752 204.953 689.536 205.916V206.013C691.752 206.88 693.101 208.422 693.101 210.638C693.101 213.721 690.403 215.841 687.031 215.841C683.369 215.938 681.056 213.625 681.056 211.023ZM690.692 210.927C690.692 208.711 689.15 207.747 686.742 207.073C684.622 207.651 683.562 209.096 683.562 210.734C683.465 212.565 684.814 214.107 687.127 214.107C689.343 214.107 690.692 212.758 690.692 210.927ZM684.044 202.062C684.044 203.893 685.393 204.857 687.416 205.338C688.958 204.857 690.114 203.7 690.114 202.062C690.114 200.617 689.247 199.171 687.127 199.171C685.2 199.171 684.044 200.52 684.044 202.062Z" fill="white"/>
<path d="M711.505 209.77C711.409 207.939 711.312 205.723 711.312 204.085H711.216C710.734 205.626 710.253 207.265 709.578 209.095L707.265 215.455H706.013L703.893 209.192C703.218 207.361 702.737 205.626 702.351 204.085C702.351 205.723 702.255 207.939 702.062 209.963L701.677 215.648H700.039L701.002 202.447H703.218L705.435 208.806C706.013 210.444 706.398 211.89 706.784 213.239H706.88C707.169 211.89 707.651 210.444 708.229 208.806L710.542 202.447H712.758L713.625 215.648H711.987L711.505 209.77Z" fill="white"/>
<path d="M718.347 215.552L714.974 202.351H716.805L718.347 208.999C718.732 210.637 719.118 212.275 719.31 213.528C719.503 212.179 719.985 210.637 720.37 208.903L722.105 202.254H723.839L725.477 208.903C725.863 210.445 726.248 211.986 726.441 213.432C726.73 211.986 727.115 210.541 727.501 208.903L729.235 202.254H730.97L727.212 215.455H725.574L723.935 208.614C723.55 206.976 723.261 205.627 723.068 204.278C722.876 205.627 722.586 206.879 722.008 208.614L720.177 215.455H718.347V215.552Z" fill="white"/>
<path d="M656.967 225.574C655.521 227.501 654.558 230.006 654.558 233.475C654.558 236.944 655.618 239.449 656.967 241.376H655.618C654.365 239.738 653.113 237.329 653.113 233.475C653.113 229.621 654.462 227.212 655.618 225.574H656.967Z" fill="white"/>
<path d="M658.22 238.967V237.907L659.569 236.655C662.749 233.571 664.194 231.933 664.29 230.102C664.29 228.85 663.712 227.597 661.785 227.597C660.629 227.597 659.665 228.175 659.087 228.657L658.509 227.501C659.376 226.73 660.629 226.248 662.074 226.248C664.772 226.248 665.928 228.079 665.928 229.91C665.928 232.222 664.194 234.149 661.592 236.655L660.629 237.618H666.314V239.064H658.22V238.967Z" fill="white"/>
<path d="M667.663 241.376C668.048 240.22 668.626 238.196 668.819 236.751L670.746 236.558C670.264 238.196 669.493 240.316 668.915 241.279L667.663 241.376Z" fill="white"/>
<path d="M672.192 238.967V237.907L673.541 236.655C676.72 233.571 678.166 231.933 678.262 230.102C678.262 228.85 677.684 227.597 675.757 227.597C674.601 227.597 673.637 228.175 673.059 228.657L672.481 227.501C673.348 226.73 674.601 226.248 676.046 226.248C678.744 226.248 679.9 228.079 679.9 229.91C679.9 232.222 678.166 234.149 675.564 236.655L674.601 237.618H680.286V239.064H672.192V238.967Z" fill="white"/>
<path d="M682.598 237.04C683.08 237.329 684.236 237.811 685.392 237.811C687.609 237.811 688.283 236.462 688.283 235.402C688.283 233.667 686.645 232.897 685.007 232.897H684.043V231.644H685.007C686.26 231.644 687.801 230.969 687.801 229.524C687.801 228.561 687.127 227.597 685.585 227.597C684.621 227.597 683.562 228.079 683.08 228.464L682.598 227.212C683.272 226.73 684.525 226.248 685.874 226.248C688.379 226.248 689.439 227.693 689.439 229.235C689.439 230.488 688.668 231.644 687.127 232.222C688.668 232.511 689.921 233.667 689.921 235.498C689.921 237.522 688.379 239.256 685.296 239.256C683.851 239.256 682.598 238.774 682.02 238.389L682.598 237.04Z" fill="white"/>
<path d="M695.799 232.511C695.799 234.438 694.835 235.305 693.679 235.305C692.523 235.305 691.559 234.438 691.559 232.607C691.559 230.777 692.523 229.813 693.775 229.813C695.028 229.813 695.799 230.777 695.799 232.511ZM692.523 232.607C692.523 233.764 692.908 234.631 693.679 234.631C694.45 234.631 694.835 233.764 694.835 232.607C694.835 231.547 694.546 230.584 693.679 230.584C692.908 230.584 692.523 231.451 692.523 232.607ZM693.583 239.16L698.882 229.909H699.653L694.353 239.16H693.583ZM701.677 236.269C701.677 238.196 700.713 239.063 699.557 239.063C698.4 239.063 697.437 238.196 697.437 236.365C697.437 234.535 698.4 233.571 699.653 233.571C700.809 233.571 701.677 234.535 701.677 236.269ZM698.4 236.365C698.4 237.522 698.786 238.389 699.557 238.389C700.328 238.389 700.713 237.522 700.713 236.365C700.713 235.305 700.424 234.342 699.557 234.342C698.786 234.342 698.4 235.209 698.4 236.365Z" fill="white"/>
<path d="M700.713 241.376C702.062 239.449 703.122 236.944 703.122 233.475C703.122 230.006 702.062 227.501 700.713 225.574H702.062C703.315 227.115 704.567 229.621 704.567 233.475C704.567 237.233 703.315 239.738 702.062 241.376H700.713Z" fill="white"/>
<path d="M579.302 296.877C580.266 296.684 581.615 296.588 583.253 296.588C585.276 296.588 586.722 297.07 587.685 297.937C588.553 298.708 589.034 299.864 589.034 301.213C589.034 302.658 588.649 303.718 587.782 304.585C586.722 305.742 584.987 306.32 582.964 306.32C582.386 306.32 581.808 306.32 581.326 306.224V312.583H579.302V296.877ZM581.326 304.489C581.808 304.585 582.289 304.682 582.964 304.682C585.373 304.682 586.914 303.526 586.914 301.309C586.914 299.189 585.469 298.226 583.157 298.226C582.289 298.226 581.615 298.322 581.229 298.419V304.489H581.326Z" fill="white"/>
<path d="M591.732 296.685H593.756V310.753H600.501V312.487H591.732V296.685Z" fill="white"/>
<path d="M605.801 298.419H600.983V296.685H612.642V298.419H607.824V312.487H605.801V298.419Z" fill="white"/>
<path d="M627.674 305.55C627.577 303.334 627.385 300.732 627.481 298.709H627.385C626.806 300.539 626.228 302.563 625.361 304.683L622.567 312.295H621.025L618.52 304.779C617.749 302.563 617.171 300.539 616.689 298.612C616.689 300.539 616.496 303.237 616.4 305.55L616.014 312.295H614.087L615.147 296.492H617.749L620.447 304.105C621.121 306.032 621.603 307.766 622.085 309.404H622.181C622.567 307.766 623.145 306.128 623.819 304.105L626.614 296.492H629.215L630.179 312.295H628.155L627.674 305.55Z" fill="white"/>
<path d="M660.628 304.587V299.769H652.342V298.131L660.339 286.761H662.941V297.842H665.446V299.769H662.941V304.587H660.628ZM660.628 297.842V291.868C660.628 290.904 660.628 290.037 660.725 289.073H660.628C660.05 290.133 659.665 290.904 659.183 291.675L654.847 297.746V297.842H660.628V297.842Z" fill="white"/>
<path d="M674.696 304.587V299.769H666.409V298.131L674.407 286.761H677.009V297.842H679.514V299.769H677.009V304.587H674.696ZM674.696 297.842V291.868C674.696 290.904 674.696 290.037 674.793 289.073H674.696C674.118 290.133 673.733 290.904 673.251 291.675L668.915 297.746V297.842H674.696V297.842Z" fill="white"/>
<path d="M688.765 304.587V299.769H680.478V298.131L688.475 286.761H691.077V297.842H693.582V299.769H691.077V304.587H688.765ZM688.765 297.842V291.868C688.765 290.904 688.765 290.037 688.861 289.073H688.765C688.186 290.133 687.801 290.904 687.319 291.675L682.983 297.746V297.842H688.765V297.842Z" fill="white"/>
<path d="M711.505 298.805C711.409 296.974 711.312 294.758 711.312 293.12H711.216C710.734 294.662 710.253 296.3 709.578 298.131L707.265 304.49H706.013L703.893 298.227C703.218 296.396 702.737 294.662 702.351 293.12C702.351 294.758 702.255 296.974 702.062 298.998L701.677 304.683H700.039L701.002 291.482H703.218L705.435 297.842C706.013 299.48 706.398 300.925 706.784 302.274H706.88C707.169 300.925 707.651 299.48 708.229 297.842L710.542 291.482H712.758L713.625 304.683H711.987L711.505 298.805Z" fill="white"/>
<path d="M718.347 304.587L714.974 291.386H716.805L718.347 298.034C718.732 299.673 719.118 301.311 719.31 302.563C719.503 301.214 719.985 299.673 720.37 297.938L722.105 291.289H723.839L725.477 297.938C725.863 299.48 726.248 301.022 726.441 302.467C726.73 301.022 727.115 299.576 727.501 297.938L729.235 291.289H730.97L727.212 304.49H725.574L723.935 297.649C723.55 296.011 723.261 294.662 723.068 293.313C722.876 294.662 722.586 295.915 722.008 297.649L720.177 304.49H718.347V304.587Z" fill="white"/>
<path d="M656.967 314.511C655.521 316.438 654.558 318.944 654.558 322.412C654.558 325.881 655.618 328.387 656.967 330.314H655.618C654.365 328.676 653.113 326.267 653.113 322.412C653.113 318.558 654.462 316.149 655.618 314.511H656.967Z" fill="white"/>
<path d="M665.735 316.824H660.917L660.435 320.1C660.724 320.1 661.014 320.003 661.495 320.003C662.459 320.003 663.422 320.196 664.193 320.678C665.157 321.256 666.024 322.316 666.024 323.954C666.024 326.459 664.097 328.29 661.303 328.29C659.954 328.29 658.797 327.905 658.123 327.519L658.508 326.267C658.99 326.556 660.05 326.941 661.206 326.941C662.844 326.941 664.193 325.881 664.193 324.243C664.193 322.605 663.133 321.449 660.532 321.449C659.857 321.449 659.279 321.545 658.797 321.545L659.568 315.475H665.639V316.824H665.735Z" fill="white"/>
<path d="M667.663 330.313C668.048 329.157 668.626 327.133 668.819 325.688L670.746 325.495C670.264 327.133 669.493 329.253 668.915 330.217L667.663 330.313Z" fill="white"/>
<path d="M679.707 316.824H674.889L674.407 320.1C674.696 320.1 674.985 320.003 675.467 320.003C676.431 320.003 677.394 320.196 678.165 320.678C679.129 321.256 679.996 322.316 679.996 323.954C679.996 326.459 678.069 328.29 675.275 328.29C673.926 328.29 672.769 327.905 672.095 327.519L672.48 326.267C672.962 326.556 674.022 326.941 675.178 326.941C676.816 326.941 678.165 325.881 678.165 324.243C678.165 322.605 677.105 321.449 674.504 321.449C673.829 321.449 673.251 321.545 672.769 321.545L673.54 315.475H679.611V316.824H679.707Z" fill="white"/>
<path d="M689.343 316.535C688.958 316.535 688.572 316.535 688.09 316.631C685.392 317.113 684.043 319.04 683.754 321.064H683.851C684.429 320.293 685.489 319.618 686.934 319.618C689.15 319.618 690.692 321.256 690.692 323.665C690.692 325.978 689.15 328.098 686.549 328.098C683.851 328.098 682.116 325.978 682.116 322.702C682.116 320.197 682.983 318.269 684.236 317.017C685.296 315.957 686.645 315.379 688.283 315.186C688.765 315.09 689.247 315.09 689.536 315.09V316.535H689.343ZM688.861 323.858C688.861 322.027 687.801 320.967 686.26 320.967C685.2 320.967 684.236 321.642 683.851 322.509C683.754 322.702 683.658 322.991 683.658 323.28C683.658 325.4 684.622 326.845 686.452 326.845C687.898 326.845 688.861 325.593 688.861 323.858Z" fill="white"/>
<path d="M695.799 321.545C695.799 323.472 694.835 324.34 693.679 324.34C692.523 324.34 691.559 323.472 691.559 321.642C691.559 319.811 692.523 318.847 693.775 318.847C695.028 318.847 695.799 319.811 695.799 321.545ZM692.523 321.545C692.523 322.702 692.908 323.569 693.679 323.569C694.45 323.569 694.835 322.702 694.835 321.545C694.835 320.485 694.546 319.522 693.679 319.522C692.908 319.522 692.523 320.485 692.523 321.545ZM693.583 328.098L698.882 318.847H699.653L694.353 328.098H693.583ZM701.677 325.207C701.677 327.134 700.713 328.001 699.557 328.001C698.4 328.001 697.437 327.134 697.437 325.303C697.437 323.472 698.4 322.509 699.653 322.509C700.809 322.509 701.677 323.472 701.677 325.207ZM698.4 325.303C698.4 326.459 698.786 327.327 699.557 327.327C700.328 327.327 700.713 326.459 700.713 325.303C700.713 324.243 700.424 323.28 699.557 323.28C698.786 323.28 698.4 324.147 698.4 325.303Z" fill="white"/>
<path d="M700.713 330.314C702.062 328.387 703.122 325.881 703.122 322.412C703.122 318.944 702.062 316.438 700.713 314.511H702.062C703.315 316.053 704.567 318.558 704.567 322.412C704.567 326.17 703.315 328.676 702.062 330.314H700.713Z" fill="white"/>
<path d="M579.302 386.105C580.266 385.912 581.615 385.816 583.253 385.816C585.276 385.816 586.722 386.298 587.685 387.165C588.553 387.936 589.034 389.092 589.034 390.441C589.034 391.886 588.649 392.946 587.782 393.813C586.722 394.97 584.987 395.548 582.964 395.548C582.386 395.548 581.808 395.548 581.326 395.452V401.811H579.302V386.105ZM581.326 393.717C581.808 393.813 582.289 393.91 582.964 393.91C585.373 393.91 586.914 392.753 586.914 390.537C586.914 388.417 585.469 387.454 583.157 387.454C582.289 387.454 581.615 387.55 581.229 387.647V393.717H581.326Z" fill="white"/>
<path d="M591.732 385.913H593.756V399.981H600.501V401.715H591.732V385.913Z" fill="white"/>
<path d="M605.801 387.647H600.983V385.913H612.642V387.647H607.824V401.715H605.801V387.647Z" fill="white"/>
<path d="M614.376 386.105C615.34 385.912 616.689 385.816 618.327 385.816C620.351 385.816 621.796 386.298 622.76 387.165C623.627 387.936 624.109 389.092 624.109 390.441C624.109 391.886 623.723 392.946 622.856 393.813C621.796 394.97 620.062 395.548 618.038 395.548C617.46 395.548 616.882 395.548 616.4 395.452V401.811H614.376V386.105ZM616.496 393.717C616.978 393.813 617.46 393.91 618.134 393.91C620.64 393.91 622.085 392.753 622.085 390.537C622.085 388.417 620.64 387.454 618.327 387.454C617.46 387.454 616.785 387.55 616.4 387.647V393.717H616.496Z" fill="white"/>
<path d="M653.113 393.525V392.08L655.04 390.249C659.569 385.913 661.688 383.6 661.688 380.902C661.688 379.072 660.821 377.434 658.123 377.434C656.485 377.434 655.136 378.301 654.365 378.975L653.594 377.241C654.847 376.181 656.581 375.41 658.605 375.41C662.459 375.41 664.097 378.012 664.097 380.613C664.097 383.89 661.688 386.588 657.93 390.249L656.485 391.598V391.695H664.483V393.718H653.113V393.525Z" fill="white"/>
<path d="M667.374 392.08C667.374 391.02 668.048 390.345 669.012 390.345C669.975 390.345 670.65 391.02 670.65 392.08C670.65 393.043 669.975 393.814 669.012 393.814C668.048 393.814 667.374 393.14 667.374 392.08Z" fill="white"/>
<path d="M680.381 393.526V388.708H672.095V387.07L680.092 375.699H682.694V386.78H685.199V388.708H682.694V393.526H680.381ZM680.381 386.78V380.806C680.381 379.843 680.382 378.976 680.478 378.012H680.381C679.803 379.072 679.418 379.843 678.936 380.614L674.6 386.684V386.78H680.381V386.78Z" fill="white"/>
<path d="M694.45 393.526V388.708H686.163V387.07L694.161 375.699H696.763V386.78H699.268V388.708H696.763V393.526H694.45ZM694.45 386.78V380.806C694.45 379.843 694.45 378.976 694.546 378.012H694.45C693.872 379.072 693.487 379.843 693.005 380.614L688.669 386.684V386.78H694.45V386.78Z" fill="white"/>
<path d="M701.677 390.731C702.351 391.213 703.989 391.887 705.627 391.887C708.711 391.887 709.675 389.864 709.675 388.418C709.675 385.913 707.362 384.853 705.049 384.853H703.7V383.022H705.049C706.784 383.022 709 382.155 709 380.035C709 378.59 708.133 377.337 705.82 377.337C704.375 377.337 703.026 378.012 702.255 378.494L701.58 376.759C702.544 376.085 704.375 375.41 706.206 375.41C709.771 375.41 711.313 377.53 711.313 379.65C711.313 381.481 710.253 383.022 708.036 383.89V383.986C710.253 384.468 711.987 386.106 711.987 388.611C711.987 391.502 709.771 394.007 705.435 394.007C703.411 394.007 701.677 393.333 700.81 392.755L701.677 390.731Z" fill="white"/>
<path d="M732.512 387.744C732.415 385.913 732.319 383.697 732.319 382.059H732.222C731.741 383.6 731.259 385.238 730.584 387.069L728.272 393.429H727.019L724.899 387.165C724.225 385.335 723.743 383.6 723.358 382.059C723.358 383.697 723.261 385.913 723.068 387.936L722.683 393.621H721.045L722.008 380.42H724.225L726.441 386.78C727.019 388.418 727.405 389.864 727.79 391.213H727.886C728.175 389.864 728.657 388.418 729.235 386.78L731.548 380.42H733.764L734.631 393.621H732.993L732.512 387.744Z" fill="white"/>
<path d="M739.257 393.525L735.884 380.324H737.715L739.257 386.973C739.642 388.611 740.028 390.249 740.22 391.502C740.413 390.153 740.895 388.611 741.28 386.877L743.015 380.228H744.749L746.387 386.877C746.773 388.418 747.158 389.96 747.351 391.405C747.64 389.96 748.025 388.515 748.411 386.877L750.145 380.228H751.88L748.122 393.429H746.387L744.749 386.588C744.364 384.95 744.075 383.6 743.882 382.251C743.689 383.6 743.4 384.853 742.822 386.588L740.991 393.429H739.257V393.525Z" fill="white"/>
<path d="M656.967 403.45C655.521 405.377 654.558 407.882 654.558 411.351C654.558 414.82 655.618 417.325 656.967 419.252H655.618C654.365 417.614 653.113 415.205 653.113 411.351C653.113 407.497 654.462 405.088 655.618 403.45H656.967Z" fill="white"/>
<path d="M658.701 415.012C659.183 415.301 660.339 415.783 661.495 415.783C663.712 415.783 664.386 414.434 664.386 413.374C664.386 411.64 662.748 410.869 661.11 410.869H660.146V409.52H661.11C662.363 409.52 663.904 408.845 663.904 407.4C663.904 406.436 663.23 405.473 661.688 405.473C660.724 405.473 659.665 405.955 659.183 406.34L658.701 405.087C659.375 404.606 660.628 404.124 661.977 404.124C664.482 404.124 665.542 405.569 665.542 407.111C665.542 408.364 664.771 409.52 663.23 410.098C664.771 410.387 666.024 411.543 666.024 413.374C666.024 415.398 664.482 417.132 661.399 417.132C659.954 417.132 658.701 416.65 658.123 416.265L658.701 415.012Z" fill="white"/>
<path d="M676.624 410.483C676.624 414.723 675.082 417.132 672.288 417.132C669.782 417.132 668.144 414.82 668.144 410.676C668.144 406.436 669.975 404.124 672.48 404.124C675.082 404.124 676.624 406.533 676.624 410.483ZM669.782 410.676C669.782 413.952 670.746 415.783 672.384 415.783C674.118 415.783 674.986 413.76 674.986 410.483C674.986 407.4 674.215 405.376 672.384 405.376C670.842 405.473 669.782 407.304 669.782 410.676Z" fill="white"/>
<path d="M677.588 419.348C677.973 418.192 678.551 416.169 678.744 414.723L680.671 414.531C680.189 416.169 679.418 418.289 678.84 419.252L677.588 419.348Z" fill="white"/>
<path d="M689.343 405.569C688.958 405.569 688.572 405.569 688.09 405.666C685.392 406.147 684.043 408.074 683.754 410.098H683.851C684.429 409.327 685.489 408.653 686.934 408.653C689.15 408.653 690.692 410.291 690.692 412.7C690.692 415.012 689.15 417.132 686.549 417.132C683.851 417.132 682.116 415.012 682.116 411.736C682.116 409.231 682.983 407.304 684.236 406.051C685.296 404.991 686.645 404.413 688.283 404.22C688.765 404.124 689.247 404.124 689.536 404.124V405.569H689.343ZM688.861 412.796C688.861 410.965 687.801 409.905 686.26 409.905C685.2 409.905 684.236 410.58 683.851 411.447C683.754 411.64 683.658 411.929 683.658 412.218C683.658 414.338 684.622 415.783 686.452 415.783C687.898 415.879 688.861 414.627 688.861 412.796Z" fill="white"/>
<path d="M695.798 405.955L693.582 407.111L693.293 405.858L696.088 404.413H697.533V417.036H695.895V405.955H695.798Z" fill="white"/>
<path d="M705.435 410.483C705.435 412.411 704.471 413.278 703.315 413.278C702.158 413.278 701.195 412.411 701.195 410.58C701.195 408.749 702.158 407.785 703.411 407.785C704.567 407.785 705.435 408.749 705.435 410.483ZM702.158 410.58C702.158 411.736 702.544 412.603 703.315 412.603C704.086 412.603 704.471 411.736 704.471 410.58C704.471 409.52 704.182 408.556 703.315 408.556C702.544 408.556 702.158 409.423 702.158 410.58ZM703.218 417.132L708.518 407.882H709.289L703.989 417.132H703.218ZM711.216 414.241C711.216 416.169 710.252 417.036 709.096 417.036C707.94 417.036 706.976 416.169 706.976 414.338C706.976 412.507 707.94 411.543 709.193 411.543C710.445 411.543 711.216 412.507 711.216 414.241ZM707.94 414.241C707.94 415.398 708.325 416.265 709.096 416.265C709.867 416.265 710.252 415.398 710.252 414.241C710.252 413.181 709.963 412.218 709.096 412.218C708.422 412.218 707.94 413.181 707.94 414.241Z" fill="white"/>
<path d="M710.252 419.252C711.601 417.325 712.661 414.82 712.661 411.351C712.661 407.882 711.601 405.377 710.252 403.45H711.601C712.854 404.991 714.107 407.497 714.107 411.351C714.107 415.109 712.854 417.614 711.601 419.252H710.252Z" fill="white"/>
<path d="M579.302 475.333C580.266 475.14 581.615 475.044 583.253 475.044C585.276 475.044 586.722 475.525 587.685 476.393C588.553 477.163 589.034 478.32 589.034 479.669C589.034 481.114 588.649 482.174 587.782 483.041C586.722 484.198 584.987 484.776 582.964 484.776C582.386 484.776 581.808 484.776 581.326 484.679V491.039H579.302V475.333ZM581.326 482.849C581.808 482.945 582.289 483.041 582.964 483.041C585.373 483.041 586.914 481.885 586.914 479.669C586.914 477.549 585.469 476.585 583.157 476.585C582.289 476.585 581.615 476.682 581.229 476.778V482.849H581.326Z" fill="white"/>
<path d="M591.732 475.14H593.756V489.208H600.501V490.943H591.732V475.14Z" fill="white"/>
<path d="M605.801 476.875H600.983V475.14H612.642V476.875H607.824V490.943H605.801V476.875Z" fill="white"/>
<path d="M616.978 485.932L615.34 490.846H613.22L618.616 475.044H621.121L626.517 490.846H624.301L622.663 485.932H616.978ZM622.181 484.294L620.64 479.765C620.254 478.705 620.061 477.838 619.772 476.874C619.58 477.838 619.291 478.801 619.001 479.765L617.46 484.294H622.181Z" fill="white"/>
<path d="M660.628 482.559V477.741H652.342V476.103L660.339 464.733H662.941V475.814H665.446V477.741H662.941V482.559H660.628ZM660.628 475.718V469.744C660.628 468.78 660.628 467.913 660.725 466.949H660.628C660.05 468.009 659.665 468.78 659.183 469.551L654.847 475.621V475.718H660.628V475.718Z" fill="white"/>
<path d="M667.373 481.114C667.373 480.054 668.048 479.379 669.011 479.379C669.975 479.379 670.649 480.054 670.649 481.114C670.649 482.077 669.975 482.848 669.011 482.848C668.048 482.848 667.373 482.077 667.373 481.114Z" fill="white"/>
<path d="M684.525 464.636V466.274L676.72 482.559H674.215L681.923 466.756V466.66H673.155V464.636H684.525V464.636Z" fill="white"/>
<path d="M698.882 473.405C698.882 479.475 696.666 482.848 692.716 482.848C689.247 482.848 686.838 479.572 686.838 473.694C686.838 467.72 689.439 464.444 693.005 464.444C696.763 464.347 698.882 467.72 698.882 473.405ZM689.15 473.694C689.15 478.319 690.596 481.017 692.812 481.017C695.317 481.017 696.473 478.126 696.473 473.598C696.473 469.165 695.317 466.274 692.812 466.274C690.692 466.178 689.15 468.78 689.15 473.694Z" fill="white"/>
<path d="M712.662 464.636V466.274L704.857 482.559H702.448L710.156 466.756V466.66H701.388V464.636H712.662V464.636Z" fill="white"/>
<path d="M732.415 476.68C732.318 474.849 732.222 472.633 732.222 470.995H732.126C731.644 472.537 731.162 474.175 730.488 476.006L728.175 482.365H726.922L724.803 476.102C724.128 474.271 723.646 472.537 723.261 470.995C723.261 472.633 723.164 474.849 722.972 476.873L722.586 482.558H720.948L721.912 469.357H724.128L726.344 475.717C726.922 477.355 727.308 478.8 727.693 480.149H727.79C728.079 478.8 728.561 477.355 729.139 475.717L731.451 469.357H733.667L734.535 482.558H732.897L732.415 476.68Z" fill="white"/>
<path d="M739.16 482.559L735.788 469.358H737.618L739.16 476.007C739.546 477.645 739.931 479.283 740.124 480.535C740.316 479.186 740.798 477.645 741.184 475.91L742.918 469.262H744.652L746.291 475.91C746.676 477.452 747.061 478.994 747.254 480.439C747.543 478.994 747.929 477.548 748.314 475.91L750.049 469.262H751.783L748.025 482.463H746.291L744.652 475.621C744.267 473.983 743.978 472.634 743.785 471.285C743.593 472.634 743.303 473.887 742.725 475.621L740.895 482.463H739.16V482.559Z" fill="white"/>
<path d="M656.967 492.484C655.521 494.412 654.558 496.917 654.558 500.386C654.558 503.855 655.618 506.36 656.967 508.287H655.618C654.365 506.649 653.113 504.24 653.113 500.386C653.113 496.531 654.462 494.122 655.618 492.484H656.967V492.484Z" fill="white"/>
<path d="M665.735 494.797H660.917L660.435 498.073C660.724 498.073 661.014 497.977 661.495 497.977C662.459 497.977 663.422 498.169 664.193 498.651C665.157 499.229 666.024 500.289 666.024 501.927C666.024 504.433 664.097 506.263 661.303 506.263C659.954 506.263 658.797 505.878 658.123 505.492L658.508 504.24C658.99 504.529 660.05 504.914 661.206 504.914C662.844 504.914 664.193 503.854 664.193 502.216C664.193 500.578 663.133 499.422 660.532 499.422C659.857 499.422 659.279 499.518 658.797 499.518L659.568 493.448H665.639V494.797H665.735Z" fill="white"/>
<path d="M668.048 502.699C668.048 501.157 669.012 500.001 670.553 499.326V499.23C669.204 498.555 668.53 497.495 668.53 496.435C668.53 494.412 670.168 493.063 672.384 493.063C674.793 493.063 676.046 494.605 676.046 496.146C676.046 497.206 675.564 498.363 673.926 499.133V499.23C675.468 499.808 676.431 500.964 676.431 502.506C676.431 504.722 674.504 506.168 672.191 506.168C669.686 506.168 668.048 504.529 668.048 502.699ZM674.793 502.602C674.793 501.061 673.733 500.29 671.999 499.808C670.553 500.193 669.686 501.157 669.686 502.41C669.59 503.662 670.553 504.819 672.191 504.819C673.83 504.915 674.793 503.951 674.793 502.602ZM670.168 496.339C670.168 497.592 671.132 498.266 672.577 498.652C673.637 498.266 674.504 497.495 674.504 496.339C674.504 495.375 673.926 494.316 672.384 494.316C670.939 494.316 670.168 495.279 670.168 496.339Z" fill="white"/>
<path d="M677.588 508.286C677.973 507.13 678.551 505.107 678.744 503.661L680.671 503.469C680.189 505.107 679.418 507.226 678.84 508.19L677.588 508.286Z" fill="white"/>
<path d="M683.176 504.722C683.562 504.722 683.947 504.722 684.526 504.626C685.489 504.529 686.453 504.048 687.127 503.373C687.994 502.602 688.573 501.542 688.765 500.001H688.669C687.994 500.868 686.934 501.35 685.682 501.35C683.369 501.35 681.924 499.615 681.924 497.495C681.924 495.086 683.658 493.063 686.26 493.063C688.862 493.063 690.403 495.183 690.403 498.363C690.403 501.157 689.44 503.084 688.187 504.24C687.224 505.204 685.875 505.782 684.526 505.878C683.947 505.975 683.369 505.975 682.984 505.975V504.722H683.176ZM683.755 497.495C683.755 499.037 684.718 500.193 686.164 500.193C687.32 500.193 688.187 499.615 688.669 498.844C688.765 498.652 688.862 498.459 688.862 498.266C688.862 496.146 688.091 494.508 686.26 494.508C684.815 494.412 683.755 495.665 683.755 497.495Z" fill="white"/>
<path d="M700.231 493.351V494.507L694.739 505.974H693.004L698.497 494.796H692.33V493.351H700.231Z" fill="white"/>
<path d="M705.435 499.422C705.435 501.349 704.471 502.216 703.315 502.216C702.158 502.216 701.195 501.349 701.195 499.518C701.195 497.687 702.158 496.724 703.411 496.724C704.664 496.82 705.435 497.784 705.435 499.422ZM702.158 499.518C702.158 500.674 702.544 501.542 703.315 501.542C704.086 501.542 704.471 500.674 704.471 499.518C704.471 498.458 704.182 497.495 703.315 497.495C702.544 497.495 702.158 498.362 702.158 499.518ZM703.218 506.07L708.518 496.82H709.289L703.989 506.07H703.218ZM711.312 503.18C711.312 505.107 710.349 505.974 709.192 505.974C708.036 505.974 707.073 505.107 707.073 503.276C707.073 501.445 708.036 500.482 709.289 500.482C710.445 500.482 711.312 501.445 711.312 503.18ZM708.036 503.276C708.036 504.432 708.422 505.3 709.192 505.3C709.963 505.3 710.349 504.432 710.349 503.276C710.349 502.216 710.06 501.253 709.192 501.253C708.422 501.253 708.036 502.12 708.036 503.276Z" fill="white"/>
<path d="M710.349 508.287C711.698 506.36 712.758 503.855 712.758 500.386C712.758 496.917 711.698 494.412 710.349 492.484H711.698C712.95 494.026 714.203 496.531 714.203 500.386C714.203 504.144 712.95 506.649 711.698 508.287H710.349Z" fill="white"/>
<path d="M245.712 27.751L274.812 0.48175H446.714L479.476 33.2434H547.601" stroke="white" stroke-miterlimit="10"/>
<path d="M264.694 32.4722L272.307 24.7636H421.468L513.49 118.52H547.6" stroke="white" stroke-miterlimit="10"/>
<path d="M293.217 38.4469L297.167 34.4962H398.825L508.576 144.248L508.865 188.187L531.317 210.542H547.601" stroke="white" stroke-miterlimit="10"/>
<path d="M349.971 58.1036L357.294 50.7804H384.852L489.4 155.328V281.172L511.081 302.852H542.686" stroke="white" stroke-miterlimit="10"/>
<path d="M542.687 392.176H463.481" stroke="white" stroke-miterlimit="10"/>
<path d="M542.686 482.559H412.411L392.368 502.602H338.89" stroke="white" stroke-miterlimit="10"/>
<path d="M567.065 13.8751H555.116V55.0198H567.065V13.8751Z" fill="#FFFF00"/>
<path d="M567.065 103.295H555.116V144.44H567.065V103.295Z" fill="#414141"/>
<path d="M567.065 192.715H555.116V233.86H567.065V192.715Z" fill="#008C6A"/>
<path d="M567.065 282.135H555.116V323.28H567.065V282.135Z" fill="#AFE1F5"/>
<path d="M567.065 371.556H555.116V412.7H567.065V371.556Z" fill="#2F3C61"/>
<path d="M567.065 460.975H555.116V502.12H567.065V460.975Z" fill="#00629D"/>
<path d="M170.939 205.916C172.48 206.879 174.793 207.65 177.298 207.65C180.863 207.65 182.983 205.723 182.983 203.025C182.983 200.52 181.538 198.978 177.876 197.629C173.444 196.087 170.65 193.775 170.65 189.92C170.65 185.681 174.215 182.501 179.514 182.501C182.309 182.501 184.332 183.175 185.585 183.85L184.621 186.741C183.754 186.259 181.923 185.488 179.418 185.488C175.66 185.488 174.311 187.704 174.311 189.535C174.311 192.04 175.949 193.389 179.707 194.835C184.332 196.569 186.645 198.882 186.645 202.832C186.645 207.072 183.561 210.734 177.105 210.734C174.504 210.734 171.613 209.963 170.168 208.999L170.939 205.916Z" fill="white"/>
<path d="M194.835 182.886V199.074C194.835 205.145 197.533 207.746 201.195 207.746C205.242 207.746 207.844 205.048 207.844 199.074V182.886H211.409V198.785C211.409 207.168 206.976 210.637 201.098 210.637C195.51 210.637 191.27 207.457 191.27 198.978V182.886H194.835V182.886Z" fill="white"/>
<path d="M217.576 183.272C219.696 182.982 222.297 182.693 225.092 182.693C230.199 182.693 233.764 183.85 236.173 186.066C238.582 188.282 240.027 191.462 240.027 195.894C240.027 200.327 238.678 203.988 236.077 206.494C233.571 208.999 229.332 210.444 224.032 210.444C221.527 210.444 219.407 210.348 217.672 210.155V183.272H217.576ZM221.045 207.361C221.912 207.554 223.261 207.554 224.61 207.554C232.126 207.554 236.269 203.314 236.269 195.991C236.269 189.535 232.704 185.488 225.188 185.488C223.357 185.488 222.008 185.68 221.045 185.873V207.361V207.361Z" fill="white"/>
<path d="M248.314 201.579L245.52 210.155H241.858L251.108 182.886H255.348L264.695 210.155H260.937L258.046 201.579H248.314ZM257.275 198.881L254.577 190.98C253.999 189.245 253.517 187.607 253.132 185.969H253.035C252.65 187.607 252.168 189.246 251.686 190.884L248.988 198.785H257.275V198.881Z" fill="white"/>
<path d="M272.211 182.886V194.352H285.412V182.886H288.977V210.155H285.412V197.34H272.211V210.155H268.646V182.886H272.211Z" fill="white"/>
<path d="M128.445 231.547C129.987 231.258 132.395 230.969 134.901 230.969C138.466 230.969 140.682 231.547 142.417 232.993C143.862 234.052 144.729 235.691 144.729 237.81C144.729 240.412 142.995 242.725 140.104 243.785V243.881C142.706 244.555 145.693 246.675 145.693 250.722C145.693 253.035 144.729 254.866 143.38 256.215C141.453 257.949 138.37 258.72 133.937 258.72C131.528 258.72 129.601 258.527 128.445 258.431V231.547ZM132.01 242.725H135.19C138.948 242.725 141.068 240.797 141.068 238.196C141.068 235.016 138.659 233.763 135.093 233.763C133.455 233.763 132.588 233.86 132.01 234.052V242.725V242.725ZM132.01 255.829C132.685 255.926 133.744 256.022 134.997 256.022C138.659 256.022 142.031 254.673 142.031 250.722C142.031 246.964 138.851 245.423 134.997 245.423H132.106V255.829H132.01Z" fill="white"/>
<path d="M164.579 245.615H153.979V255.444H165.735V258.431H150.414V231.161H165.157V234.149H153.979V242.821H164.579V245.615Z" fill="white"/>
<path d="M170.36 231.547C172.095 231.162 174.696 230.969 177.105 230.969C180.863 230.969 183.272 231.644 185.007 233.185C186.356 234.438 187.127 236.269 187.127 238.389C187.127 241.954 184.814 244.363 182.02 245.326V245.423C184.14 246.194 185.392 248.121 186.067 250.915C186.934 254.769 187.608 257.371 188.187 258.431H184.525C184.043 257.66 183.465 255.347 182.694 251.879C181.923 248.121 180.382 246.675 177.202 246.579H173.926V258.431H170.36V231.547V231.547ZM173.829 243.977H177.394C181.152 243.977 183.561 241.954 183.561 238.774C183.561 235.209 181.056 233.667 177.298 233.667C175.564 233.667 174.407 233.86 173.829 233.956V243.977Z" fill="white"/>
<path d="M215.552 244.555C215.552 253.902 209.867 258.913 202.833 258.913C195.606 258.913 190.595 253.324 190.595 245.037C190.595 236.365 195.991 230.68 203.315 230.68C210.734 230.68 215.552 236.461 215.552 244.555ZM194.353 244.941C194.353 250.819 197.533 256.022 203.026 256.022C208.614 256.022 211.794 250.915 211.794 244.652C211.794 239.256 209 233.57 203.122 233.57C197.34 233.57 194.353 238.966 194.353 244.941Z" fill="white"/>
<path d="M220.177 231.451C221.912 231.162 224.128 230.969 226.922 230.969C230.391 230.969 232.993 231.74 234.535 233.282C236.076 234.534 236.944 236.558 236.944 238.967C236.944 241.472 236.173 243.399 234.824 244.845C232.993 246.868 229.91 247.832 226.441 247.832C225.381 247.832 224.417 247.832 223.646 247.543V258.431H220.081V231.451H220.177ZM223.646 244.652C224.417 244.844 225.381 244.941 226.537 244.941C230.777 244.941 233.378 242.917 233.378 239.063C233.378 235.498 230.873 233.763 226.922 233.763C225.381 233.763 224.224 233.86 223.646 234.052V244.652Z" fill="white"/>
<path d="M255.83 245.615H245.231V255.444H257.083V258.431H241.762V231.161H256.504V234.149H245.327V242.821H255.926V245.615H255.83Z" fill="white"/>
<path d="M261.611 231.547C263.346 231.162 265.947 230.969 268.356 230.969C272.114 230.969 274.523 231.644 276.258 233.185C277.607 234.438 278.378 236.269 278.378 238.389C278.378 241.954 276.065 244.363 273.271 245.326V245.423C275.39 246.194 276.643 248.121 277.318 250.915C278.185 254.769 278.859 257.371 279.437 258.431H275.776C275.294 257.66 274.716 255.347 273.945 251.879C273.174 248.121 271.633 246.675 268.453 246.579H265.177V258.431H261.611V231.547ZM265.177 243.977H268.742C272.5 243.977 274.909 241.954 274.909 238.774C274.909 235.209 272.403 233.667 268.645 233.667C266.911 233.667 265.755 233.86 265.177 233.956V243.977V243.977Z" fill="white"/>
<path d="M288.013 249.855L285.218 258.431H281.557L290.807 231.161H295.047L304.394 258.431H300.636L297.745 249.855H288.013ZM296.974 247.157L294.276 239.256C293.698 237.521 293.216 235.883 292.831 234.245H292.734C292.349 235.883 291.867 237.521 291.385 239.159L288.687 247.06H296.974V247.157Z" fill="white"/>
<path d="M307.863 254.191C309.404 255.155 311.717 255.926 314.222 255.926C317.787 255.926 319.907 253.999 319.907 251.301C319.907 248.795 318.462 247.254 314.8 245.905C310.368 244.363 307.574 242.05 307.574 238.196C307.574 233.956 311.139 230.777 316.438 230.777C319.233 230.777 321.256 231.451 322.509 232.126L321.545 235.016C320.678 234.534 318.847 233.764 316.342 233.764C312.584 233.764 311.235 235.98 311.235 237.811C311.235 240.316 312.873 241.665 316.631 243.11C321.256 244.845 323.569 247.157 323.569 251.108C323.569 255.348 320.485 259.009 314.03 259.009C311.428 259.009 308.537 258.238 307.092 257.275L307.863 254.191Z" fill="white"/>
<path d="M331.856 231.161V258.431H328.291V231.161H331.856V231.161Z" fill="white"/>
<path d="M137.599 279.725C139.333 279.436 141.549 279.243 144.344 279.243C147.813 279.243 150.414 280.014 151.956 281.556C153.498 282.809 154.365 284.832 154.365 287.241C154.365 289.746 153.594 291.674 152.245 293.119C150.414 295.143 147.331 296.106 143.862 296.106C142.802 296.106 141.839 296.106 141.068 295.817V306.705H137.502V279.725H137.599ZM141.164 292.926C141.935 293.119 142.898 293.215 144.055 293.215C148.294 293.215 150.896 291.192 150.896 287.338C150.896 283.772 148.391 282.038 144.44 282.038C142.898 282.038 141.742 282.134 141.164 282.327V292.926Z" fill="white"/>
<path d="M173.251 293.891H162.652V303.719H174.504V306.706H159.183V279.437H173.926V282.424H162.748V291.096H173.348V293.891H173.251Z" fill="white"/>
<path d="M179.033 279.822C180.767 279.436 183.369 279.243 185.778 279.243C189.536 279.243 191.945 279.918 193.679 281.46C195.028 282.712 195.799 284.543 195.799 286.663C195.799 290.228 193.486 292.637 190.692 293.601V293.697C192.812 294.468 194.065 296.395 194.739 299.19C195.606 303.044 196.281 305.645 196.859 306.705H193.197C192.715 305.935 192.137 303.622 191.366 300.153C190.596 296.395 189.054 294.95 185.874 294.853H182.598V306.705H179.033V279.822V279.822ZM182.598 292.252H186.163C189.921 292.252 192.33 290.228 192.33 287.048C192.33 283.483 189.825 281.942 186.067 281.942C184.332 281.942 183.176 282.134 182.598 282.231V292.252Z" fill="white"/>
<path d="M212.95 282.424H204.664V279.437H224.899V282.424H216.516V306.706H212.95V282.424Z" fill="white"/>
<path d="M229.331 298.13L226.537 306.706H222.875L232.126 279.437H236.366L245.712 306.706H241.858L238.967 298.13H229.331ZM238.196 295.432L235.498 287.531C234.92 285.797 234.535 284.159 234.053 282.521H233.957C233.571 284.159 233.089 285.797 232.608 287.435L229.91 295.336H238.196V295.432Z" fill="white"/>
<path d="M253.132 279.437V290.904H266.333V279.437H269.898V306.706H266.333V293.891H253.132V306.706H249.567V279.437H253.132Z" fill="white"/>
<path d="M279.63 279.437V295.625C279.63 301.696 282.328 304.297 285.99 304.297C290.037 304.297 292.638 301.599 292.638 295.625V279.437H296.203V295.336C296.203 303.719 291.771 307.188 285.893 307.188C280.304 307.188 276.065 304.008 276.065 295.529V279.437H279.63Z" fill="white"/>
<path d="M302.274 306.706V279.437H306.128L314.897 293.216C316.92 296.396 318.462 299.287 319.811 302.081H319.907C319.618 298.42 319.522 295.143 319.522 290.904V279.437H322.798V306.706H319.233L310.561 292.831C308.634 289.747 306.803 286.664 305.454 283.677H305.357C305.55 287.146 305.646 290.422 305.646 294.951V306.61H302.274V306.706Z" fill="white"/>
<path d="M190.5 354.981V352.765L193.294 350.067C200.039 343.707 203.026 340.238 203.122 336.288C203.122 333.59 201.87 331.181 197.919 331.181C195.51 331.181 193.583 332.433 192.33 333.397L191.174 330.892C193.005 329.35 195.606 328.194 198.594 328.194C204.279 328.194 206.688 332.048 206.688 335.806C206.688 340.624 203.122 344.575 197.63 349.971L195.51 351.898V351.994H207.362V354.981H190.5V354.981Z" fill="white"/>
<path d="M228.753 341.587C228.753 350.549 225.477 355.463 219.599 355.463C214.492 355.463 210.927 350.645 210.927 341.973C210.927 333.108 214.781 328.29 220.081 328.29C225.573 328.194 228.753 333.204 228.753 341.587ZM214.396 341.973C214.396 348.814 216.516 352.668 219.696 352.668C223.357 352.668 225.092 348.429 225.092 341.684C225.092 335.228 223.454 330.988 219.792 330.988C216.708 330.988 214.396 334.746 214.396 341.973Z" fill="white"/>
<path d="M239.738 331.952L235.113 334.457L234.438 331.759L240.22 328.675H243.303V354.981H239.834V331.952H239.738Z" fill="white"/>
<path d="M252.457 348.333C252.457 345.057 254.481 342.648 257.66 341.299V341.202C254.77 339.853 253.517 337.541 253.517 335.325C253.517 331.181 257.082 328.291 261.611 328.291C266.718 328.291 269.223 331.47 269.223 334.746C269.223 336.963 268.163 339.372 264.887 340.913V341.01C268.163 342.262 270.187 344.575 270.187 347.851C270.187 352.38 266.236 355.463 261.226 355.463C255.733 355.463 252.457 352.187 252.457 348.333ZM266.622 348.14C266.622 344.96 264.405 343.419 260.84 342.359C257.757 343.226 256.119 345.249 256.119 347.755C256.022 350.453 258.046 352.765 261.418 352.765C264.598 352.862 266.622 350.838 266.622 348.14ZM256.793 335.036C256.793 337.637 258.817 339.083 261.804 339.853C264.116 339.083 265.851 337.444 265.851 335.036C265.851 332.916 264.598 330.699 261.418 330.699C258.431 330.796 256.793 332.723 256.793 335.036Z" fill="white"/>
<path d="M559.838 533.821L558.297 535.941L560.802 535.652V536.809L558.297 536.519L559.935 538.543L558.875 539.121L557.911 536.809L556.851 539.121L555.888 538.543L557.429 536.519L554.924 536.809V535.652L557.429 535.941L555.888 533.918L556.948 533.34L558.007 535.652L559.067 533.34L559.838 533.821Z" fill="white"/>
<path d="M569.474 532.857V542.59C569.474 543.264 569.474 544.131 569.571 544.709H568.222L568.125 543.264C567.644 544.131 566.68 544.806 565.331 544.806C563.404 544.806 561.862 543.168 561.862 540.662C561.862 537.964 563.5 536.326 565.524 536.326C566.776 536.326 567.644 536.905 567.933 537.579V532.761H569.474V532.857ZM567.933 539.892C567.933 539.699 567.933 539.41 567.836 539.313C567.644 538.35 566.776 537.579 565.716 537.579C564.175 537.579 563.307 538.928 563.307 540.662C563.307 542.3 564.078 543.65 565.716 543.65C566.68 543.65 567.644 542.975 567.836 541.915C567.933 541.722 567.933 541.53 567.933 541.241V539.892Z" fill="white"/>
<path d="M576.315 544.71L576.219 543.65C575.737 544.324 574.87 544.806 573.714 544.806C572.076 544.806 571.208 543.65 571.208 542.494C571.208 540.566 572.943 539.506 576.026 539.506V539.314C576.026 538.639 575.834 537.483 574.196 537.483C573.425 537.483 572.654 537.676 572.076 538.061L571.787 537.098C572.461 536.616 573.425 536.423 574.485 536.423C576.99 536.423 577.568 538.157 577.568 539.699V542.686C577.568 543.361 577.568 544.035 577.664 544.613H576.315V544.71ZM576.123 540.566C574.485 540.566 572.654 540.855 572.654 542.397C572.654 543.361 573.328 543.843 574.003 543.843C575.063 543.843 575.737 543.168 575.93 542.494C576.026 542.301 576.026 542.204 576.026 542.012V540.566H576.123Z" fill="white"/>
<path d="M581.711 534.303V536.616H583.831V537.772H581.711V542.108C581.711 543.072 582.001 543.65 582.771 543.65C583.157 543.65 583.446 543.554 583.639 543.554L583.735 544.613C583.446 544.71 582.964 544.806 582.386 544.806C581.711 544.806 581.133 544.613 580.844 544.228C580.459 543.746 580.266 543.072 580.266 542.108V537.676H579.013V536.519H580.266V534.592L581.711 534.303Z" fill="white"/>
<path d="M589.902 544.71L589.806 543.65H589.709C589.228 544.324 588.36 544.806 587.204 544.806C585.566 544.806 584.699 543.65 584.699 542.494C584.699 540.566 586.433 539.506 589.517 539.506V539.314C589.517 538.639 589.324 537.483 587.686 537.483C586.915 537.483 586.144 537.676 585.566 538.061L585.277 537.098C585.951 536.616 586.915 536.423 587.975 536.423C590.48 536.423 591.058 538.157 591.058 539.699V542.686C591.058 543.361 591.058 544.035 591.155 544.613H589.902V544.71ZM589.709 540.566C588.071 540.566 586.24 540.855 586.24 542.397C586.24 543.361 586.915 543.843 587.589 543.843C588.649 543.843 589.324 543.168 589.517 542.494C589.613 542.301 589.613 542.204 589.613 542.012V540.566H589.709Z" fill="white"/>
<path d="M597.129 533.628C597.803 533.532 598.767 533.435 599.923 533.435C601.369 533.435 602.429 533.724 603.103 534.399C603.681 534.977 604.067 535.748 604.067 536.712C604.067 537.771 603.778 538.542 603.199 539.12C602.429 539.988 601.176 540.373 599.731 540.373C599.249 540.373 598.863 540.373 598.574 540.277V544.806H597.129V533.628V533.628ZM598.574 539.024C598.863 539.12 599.249 539.12 599.731 539.12C601.465 539.12 602.525 538.253 602.525 536.712C602.525 535.266 601.465 534.495 599.827 534.495C599.152 534.495 598.671 534.592 598.478 534.592V539.024H598.574Z" fill="white"/>
<path d="M605.994 533.435H607.439V543.457H612.257V544.709H605.994V533.435Z" fill="white"/>
<path d="M613.895 544.709V533.435H615.437L619.002 539.12C619.87 540.469 620.448 541.626 621.026 542.782C620.929 541.24 620.833 539.891 620.833 538.157V533.435H622.182V544.709H620.737L617.171 539.024C616.401 537.772 615.63 536.519 615.052 535.266H614.955C615.052 536.712 615.052 538.061 615.052 539.891V544.709H613.895Z" fill="white"/>
<path d="M628.349 539.313C628.349 538.253 628.349 537.482 628.252 536.711H629.601L629.698 538.06C630.276 537.097 631.239 536.519 632.588 536.519C634.515 536.519 636.057 538.157 636.057 540.662C636.057 543.553 634.323 544.998 632.396 544.998C631.336 544.998 630.372 544.516 629.89 543.745V548.178H628.445V539.313H628.349ZM629.794 541.433C629.794 541.626 629.794 541.818 629.89 542.011C630.179 543.071 631.047 543.745 632.106 543.745C633.648 543.745 634.515 542.493 634.515 540.662C634.515 539.024 633.648 537.675 632.106 537.675C631.143 537.675 630.179 538.349 629.89 539.506C629.794 539.699 629.794 539.891 629.794 540.084V541.433Z" fill="white"/>
<path d="M638.659 540.951C638.659 542.975 640.008 543.745 641.453 543.745C642.513 543.745 643.188 543.553 643.669 543.36L643.958 544.42C643.477 544.613 642.513 544.902 641.26 544.902C638.755 544.902 637.31 543.264 637.31 540.855C637.31 538.446 638.755 536.519 641.068 536.519C643.669 536.519 644.44 538.831 644.44 540.373C644.44 540.662 644.44 540.951 644.344 541.047H638.659V540.951ZM642.995 539.891C642.995 538.928 642.609 537.482 640.971 537.482C639.526 537.482 638.852 538.831 638.755 539.891H642.995Z" fill="white"/>
<path d="M646.272 539.121C646.272 538.157 646.272 537.387 646.175 536.616H647.428L647.524 538.157H647.621C648.006 537.098 648.873 536.423 649.837 536.423C650.03 536.423 650.126 536.423 650.222 536.519V537.868C650.03 537.868 649.933 537.772 649.741 537.772C648.681 537.772 648.006 538.543 647.813 539.699C647.813 539.892 647.717 540.181 647.717 540.374V544.71H646.272V539.121V539.121Z" fill="white"/>
<path d="M664.579 546.347C663.037 545.962 661.592 545.48 660.243 544.998C660.05 544.902 659.761 544.805 659.568 544.805C656.87 544.709 654.558 542.685 654.558 539.12C654.558 535.555 656.774 533.146 659.761 533.146C662.845 533.146 664.772 535.555 664.772 538.831C664.772 541.722 663.423 543.553 661.592 544.227V544.324C662.748 544.613 663.905 544.902 664.868 544.998L664.579 546.347ZM663.423 539.024C663.423 536.808 662.266 534.399 659.858 534.399C657.449 534.399 656.196 536.711 656.196 539.12C656.196 541.529 657.545 543.649 659.761 543.649C662.074 543.745 663.423 541.626 663.423 539.024Z" fill="white"/>
<path d="M666.313 544.709V543.842L667.47 542.686C670.264 540.084 671.517 538.639 671.517 537.001C671.517 535.941 670.939 534.881 669.397 534.881C668.433 534.881 667.566 535.363 667.084 535.844L666.603 534.785C667.373 534.11 668.433 533.725 669.686 533.725C671.999 533.725 673.059 535.363 673.059 536.904C673.059 538.928 671.613 540.566 669.301 542.782L668.433 543.553H673.348V544.806H666.313V544.709Z" fill="white"/>
<path d="M678.455 544.709V543.842L679.611 542.686C682.405 540.084 683.658 538.639 683.658 537.001C683.658 535.941 683.08 534.881 681.538 534.881C680.575 534.881 679.708 535.363 679.226 535.844L678.744 534.785C679.515 534.11 680.575 533.725 681.827 533.725C684.14 533.725 685.2 535.363 685.2 536.904C685.2 538.928 683.755 540.566 681.442 542.782L680.575 543.553H685.489V544.806H678.455V544.709Z" fill="white"/>
<path d="M694.258 539.217C694.258 542.878 692.908 544.998 690.5 544.998C688.38 544.998 686.934 542.975 686.934 539.409C686.934 535.748 688.476 533.724 690.692 533.724C692.908 533.628 694.258 535.748 694.258 539.217ZM688.283 539.313C688.283 542.108 689.151 543.746 690.5 543.746C692.041 543.746 692.716 542.011 692.716 539.217C692.716 536.519 692.041 534.784 690.5 534.784C689.247 534.784 688.283 536.422 688.283 539.313Z" fill="white"/>
<path d="M695.606 544.709V543.842L696.763 542.686C699.557 540.084 700.81 538.639 700.81 537.001C700.81 535.941 700.232 534.881 698.69 534.881C697.726 534.881 696.859 535.363 696.377 535.844L695.896 534.785C696.666 534.11 697.726 533.725 698.979 533.725C701.291 533.725 702.351 535.363 702.351 536.904C702.351 538.928 700.906 540.566 698.593 542.782L697.63 543.457H702.544V544.709H695.606Z" fill="white"/>
<path d="M711.409 539.217C711.409 542.878 710.06 544.998 707.651 544.998C705.531 544.998 704.086 542.975 704.086 539.409C704.086 535.748 705.628 533.724 707.844 533.724C710.06 533.628 711.409 535.748 711.409 539.217ZM705.435 539.313C705.435 542.108 706.302 543.746 707.651 543.746C709.193 543.746 709.867 542.011 709.867 539.217C709.867 536.519 709.193 534.784 707.651 534.784C706.399 534.784 705.435 536.422 705.435 539.313Z" fill="white"/>
</g>
<defs>
<clipPath id="clip0">
<rect width="752.168" height="548.853" fill="white"/>
</clipPath>
</defs>
</svg>
