<?xml version="1.0" encoding="UTF-8"?>
<svg fill="none" viewBox="0 0 1920 1080" xmlns="http://www.w3.org/2000/svg">
<g clip-path="url(#a)">
<path d="m498.77 858.35 0.996 7.206c0 1.068 0.633 2.135 1.992 3.025 5.342 3.647 20.009 4.359 35.764 2.224 3.984-0.534 7.968-1.245 11.861-2.224 15.754-3.648 25.623-9.075 25.623-13.434l-0.996-7.117c-0.271 4.359-10.05 9.697-25.623 13.256-3.984 0.889-7.968 1.69-11.952 2.224-15.754 2.135-30.422 1.423-35.764-2.224-1.268-0.89-1.901-1.869-1.901-2.936z" fill="#FBB54D"/>
<path d="m534.98 845.45-3.531 0.534 3.531-0.534zm0.543-0.089c1.178-0.178 2.355-0.267 3.441-0.445-1.086 0.178-2.263 0.267-3.441 0.445zm0.815-0.623c0.181 0 0.363-0.089 0.544-0.089 0.543-0.089 1.177-0.178 1.72-0.178 11.499-1.334 22.002-0.623 25.895 2.046 0.996 0.712 1.539 1.513 1.539 2.313v0.178 0.089c-0.09 0.979-0.815 2.047-2.082 3.025l-0.091 0.089c-3.169 2.58-9.507 5.249-18.108 7.206-3.079 0.712-6.338 1.335-9.417 1.691-12.404 1.69-24.084 1.156-28.249-1.779-3.622-2.492-0.724-6.139 6.7-9.253 0.091 0 0.091 0 0.181-0.089 0.091 0 0.181-0.089 0.181-0.089 3.169-1.334 7.153-2.58 11.68-3.648 1.54-0.355 3.169-0.711 4.709-0.978 1.358-0.267 2.806-0.445 4.165-0.712 0.181 0.267 0.452 0.178 0.633 0.178zm-0.181-2.135c-3.893 0.534-7.967 1.245-11.861 2.224-15.935 3.648-25.895 9.164-25.623 13.612 0.09 1.067 0.724 2.046 1.992 2.936 5.342 3.647 20.009 4.359 35.764 2.224 3.984-0.534 7.968-1.246 11.952-2.224 15.482-3.559 25.351-8.897 25.623-13.256 0.091-1.157-0.543-2.224-1.992-3.203-5.342-3.737-20.1-4.537-35.855-2.313z" fill="#FFF178"/>
<path d="m514.97 850.16c-0.09 0-0.09 0-0.181 0.089 0.091 0 0.091 0 0.181-0.089zm0.181-0.089c-0.09 0-0.181 0.089-0.181 0.089s0.091 0 0.181-0.089zm11.137 3.737c-0.815-0.534-0.815-1.157-0.181-1.691 0.634-0.622 1.992-1.156 3.984-1.69l-1.358-0.89 2.897-0.622 1.358 0.889c0.725-0.178 1.449-0.267 2.173-0.356 1.268-0.178 2.535-0.267 3.531-0.267 1.63 0 2.807 0.267 3.441 0.712 0.724 0.534 0.634 1.068-0.181 1.602-0.905 0.533-2.445 1.245-4.618 2.046-1.358 0.534-2.263 0.889-2.716 1.245-0.453 0.267-0.453 0.534-0.091 0.801 0.363 0.267 0.996 0.356 1.992 0.356 0.453 0 0.996 0 1.54-0.089 0.543-0.089 1.177-0.178 1.81-0.356 1.268-0.267 2.173-0.623 2.717-0.979 0.543-0.355 0.543-0.8 0-1.156l4.255-0.979h0.091c0.905 0.534 0.905 1.157 0 1.78-0.906 0.622-2.445 1.245-4.527 1.779l1.177 0.801-2.807 0.622-1.177-0.8c-0.906 0.178-1.72 0.267-2.445 0.444-1.267 0.178-2.354 0.267-3.44 0.267-1.63 0-2.898-0.267-3.532-0.711-0.724-0.534-0.633-0.979 0.181-1.602 0.815-0.534 2.355-1.245 4.528-2.046 1.448-0.534 2.444-0.89 2.806-1.245 0.453-0.267 0.453-0.534 0.091-0.801s-0.996-0.356-1.811-0.445c-0.453 0-0.996 0-1.539 0.089-0.453 0.089-0.996 0.178-1.539 0.267-1.177 0.267-1.902 0.623-2.354 0.979-0.363 0.355-0.272 0.711 0.181 1.067l-4.437 0.979zm9.235-8.452c-0.181 0-0.362 0.089-0.543 0.089l-3.531 0.534c-1.72 0.356-3.531 0.622-5.251 1.067-7.606 1.78-13.763 4.182-17.204 6.495 1.359-1.068 3.351-2.224 5.795-3.292-7.334 3.114-10.322 6.761-6.7 9.253 4.165 2.935 15.845 3.469 28.249 1.779 3.079-0.445 6.338-0.979 9.417-1.69 8.601-1.958 14.939-4.627 18.108-7.207l0.091-0.089c0.815-0.889 1.267-1.779 1.358-2.669 0-0.889-0.453-1.69-1.449-2.402-0.634-0.445-1.448-0.889-2.444-1.156-4.799-1.602-13.129-1.958-22.364-0.979-1.177 0-2.355 0.089-3.532 0.267zm-8.692 1.157c-4.527 1.067-8.511 2.313-11.68 3.647 3.169-1.423 7.153-2.669 11.68-3.647zm4.709-0.979c-1.63 0.267-3.169 0.623-4.709 0.979 1.54-0.356 3.169-0.712 4.709-0.979zm7.062-1.068c11.499-1.334 22.002-0.622 25.895 2.047-3.893-2.758-14.306-3.381-25.895-2.047zm-2.897 0.356c-1.359 0.178-2.807 0.445-4.165 0.712 1.448-0.267 2.806-0.534 4.165-0.712zm0.633-0.089c-0.181 0-0.362 0.089-0.633 0.089 0.181 0 0.452-0.089 0.633-0.089zc0.181 0 0.362-0.089 0.544-0.089-0.182 0-0.363 0.089-0.544 0.089z" fill="#FFD44F"/>
<path d="m536.34 844.74c-0.181 0-0.362 0.089-0.634 0.089-1.358 0.178-2.807 0.445-4.165 0.712-1.63 0.267-3.169 0.623-4.708 0.979-4.527 1.067-8.511 2.313-11.68 3.647-0.091 0-0.181 0.089-0.181 0.089-0.091 0-0.091 0-0.181 0.089-2.445 1.068-4.437 2.135-5.795 3.292 3.35-2.313 9.597-4.715 17.203-6.495 1.72-0.444 3.531-0.8 5.251-1.067 1.178-0.178 2.355-0.356 3.532-0.534 0.181 0 0.362-0.089 0.543-0.089 1.177-0.178 2.354-0.267 3.441-0.445 9.235-0.978 17.565-0.622 22.364 0.979 0.996 0.356 1.81 0.712 2.444 1.156 1.087 0.712 1.539 1.513 1.449 2.402 0 0.89-0.453 1.78-1.358 2.669 1.267-1.067 1.901-2.046 2.082-3.024v-0.089-0.178c0-0.89-0.543-1.602-1.539-2.313-3.893-2.669-14.396-3.381-25.895-2.047-0.543 0.089-1.177 0.178-1.72 0.178-0.091-0.089-0.272 0-0.453 0z" fill="#FBB54D"/>
<path d="m531.54 848.83-2.898 0.623 1.358 0.89c-1.901 0.534-3.259 1.156-3.984 1.69-0.633 0.623-0.543 1.157 0.182 1.691l4.346-0.979c-0.453-0.356-0.544-0.712-0.182-1.068 0.363-0.355 1.178-0.711 2.355-0.978 0.543-0.089 1.086-0.178 1.539-0.267 0.543-0.089 1.086-0.089 1.539-0.089 0.815 0 1.449 0.178 1.811 0.445s0.362 0.534-0.091 0.8c-0.452 0.356-1.358 0.712-2.806 1.246-2.264 0.801-3.803 1.423-4.528 2.046-0.814 0.534-0.905 1.068-0.181 1.602 0.634 0.533 1.902 0.711 3.531 0.711 0.996 0 2.174-0.089 3.441-0.267 0.815-0.089 1.63-0.266 2.445-0.444l1.177 0.8 2.807-0.622-1.177-0.801c2.082-0.534 3.531-1.157 4.527-1.78 0.996-0.622 0.996-1.245 0-1.779h-0.091l-4.255 0.979c0.543 0.356 0.543 0.801 0 1.156-0.544 0.356-1.449 0.623-2.717 0.979-0.633 0.178-1.267 0.267-1.81 0.356-0.544 0.089-1.087 0.089-1.54 0.089-0.996 0-1.629-0.089-1.992-0.356-0.362-0.267-0.271-0.534 0.091-0.801 0.453-0.356 1.358-0.711 2.716-1.245 2.264-0.801 3.803-1.424 4.618-2.046 0.815-0.534 0.905-1.068 0.181-1.602-0.634-0.445-1.811-0.712-3.441-0.712-1.086 0-2.263 0.089-3.531 0.267-0.724 0.089-1.358 0.178-2.173 0.356l-1.267-0.89z" fill="#FFF178"/>
<path d="m528.46 848.92 0.996 7.206c0 1.068 0.634 2.135 1.992 3.025 5.342 3.647 20.01 4.359 35.764 2.224 3.984-0.534 7.968-1.246 11.861-2.224 15.755-3.648 25.624-9.075 25.624-13.434l-0.996-7.117c-0.272 4.359-10.05 9.697-25.624 13.256-3.984 0.889-7.967 1.69-11.951 2.224-15.755 2.135-30.423 1.423-35.765-2.224-1.177-0.89-1.81-1.869-1.901-2.936z" fill="#FBB54D"/>
<path d="m564.68 836.02c-1.177 0.178-2.354 0.356-3.531 0.533 1.177-0.177 2.354-0.355 3.531-0.533zm0.634-0.089c1.177-0.178 2.354-0.267 3.441-0.445-1.177 0.089-2.264 0.267-3.441 0.445zm0.725-0.623c0.181 0 0.362-0.089 0.543-0.089 0.543-0.089 1.177-0.178 1.72-0.178 11.499-1.334 22.002-0.623 25.895 2.046 0.996 0.712 1.54 1.513 1.54 2.313v0.178 0.089c-0.091 0.979-0.815 2.047-2.083 3.025l-0.091 0.089c-3.169 2.58-9.507 5.249-18.108 7.206-3.079 0.712-6.338 1.335-9.416 1.691-12.405 1.69-24.085 1.156-28.25-1.78-3.621-2.491-0.724-6.138 6.7-9.252 0.091 0 0.091 0 0.181-0.089 0.091 0 0.182-0.089 0.182-0.089 3.169-1.334 7.152-2.58 11.68-3.648 1.539-0.355 3.169-0.711 4.708-0.978 1.358-0.267 2.807-0.445 4.165-0.712 0.271 0.267 0.452 0.178 0.634 0.178zm-0.091-2.135c-3.893 0.534-7.968 1.245-11.861 2.224-15.936 3.648-25.895 9.163-25.624 13.612 0.091 1.067 0.725 2.046 1.992 2.936 5.342 3.647 20.01 4.359 35.765 2.224 3.983-0.534 7.967-1.246 11.951-2.224 15.483-3.559 25.352-8.897 25.624-13.256 0.09-1.157-0.543-2.224-1.992-3.203-5.433-3.737-20.101-4.537-35.855-2.313z" fill="#FFF178"/>
<path d="m544.67 840.73c-0.09 0-0.09 0-0.181 0.089 0.091 0 0.181 0 0.181-0.089zm0.182-0.089c-0.091 0-0.182 0.089-0.182 0.089 0.091 0 0.182 0 0.182-0.089zm11.136 3.736c-0.815-0.533-0.905-1.156-0.181-1.69 0.634-0.623 1.992-1.156 3.984-1.69l-1.358-0.89 2.897-0.623 1.358 0.89c0.725-0.178 1.449-0.267 2.173-0.356 1.268-0.178 2.536-0.267 3.532-0.267 1.629 0 2.806 0.267 3.44 0.712 0.725 0.534 0.634 1.068-0.181 1.601-0.905 0.534-2.445 1.246-4.618 2.047-1.358 0.533-2.263 0.889-2.716 1.245-0.453 0.267-0.453 0.534-0.09 0.801 0.362 0.267 0.996 0.356 1.992 0.356 0.452 0 0.996 0 1.539-0.089s1.177-0.178 1.811-0.356c1.267-0.267 2.173-0.623 2.716-0.979s0.543-0.8 0-1.156l4.255-0.979h0.091c0.905 0.534 0.905 1.157 0 1.779-0.905 0.623-2.445 1.246-4.527 1.78l1.177 0.8-2.807 0.623-1.177-0.801c-0.905 0.178-1.72 0.267-2.445 0.445-1.267 0.178-2.354 0.267-3.44 0.267-1.63 0-2.898-0.267-3.531-0.712-0.725-0.533-0.634-0.978 0.181-1.601 0.815-0.534 2.354-1.245 4.527-2.046 1.448-0.534 2.444-0.89 2.807-1.246 0.452-0.267 0.452-0.533 0.09-0.8s-0.996-0.356-1.811-0.445c-0.452 0-0.996 0-1.539 0.089-0.453 0.089-0.996 0.178-1.539 0.267-1.177 0.267-1.902 0.622-2.354 0.978-0.362 0.356-0.272 0.712 0.181 1.068l-4.437 0.978zm9.326-8.451c-0.181 0-0.362 0.089-0.543 0.089l-3.531 0.534c-1.721 0.355-3.531 0.622-5.252 1.067-7.605 1.779-13.762 4.181-17.203 6.495 1.358-1.068 3.35-2.225 5.795-3.292-7.334 3.114-10.322 6.761-6.7 9.252 4.165 2.936 15.845 3.47 28.249 1.78 3.078-0.445 6.338-0.979 9.416-1.691 8.602-1.957 14.94-4.626 18.109-7.206l0.091-0.089c0.814-0.89 1.267-1.779 1.358-2.669 0-0.889-0.453-1.69-1.449-2.402-0.634-0.445-1.449-0.89-2.445-1.156-4.798-1.602-13.128-1.958-22.364-0.979-1.267-0.089-2.354 0.089-3.531 0.267zm-8.782 1.156c-4.528 1.068-8.511 2.313-11.68 3.648 3.169-1.424 7.152-2.669 11.68-3.648zm4.798-0.978c-1.629 0.267-3.169 0.623-4.708 0.978 1.539-0.355 3.079-0.711 4.708-0.978zm7.063-1.068c11.499-1.334 22.001-0.623 25.895 2.046-3.894-2.758-14.396-3.38-25.895-2.046zm-2.898 0.356c-1.358 0.178-2.807 0.445-4.165 0.712 1.358-0.267 2.717-0.534 4.165-0.712zm0.544-0.089c-0.182 0-0.363 0.089-0.634 0.089 0.271 0 0.452-0.089 0.634-0.089zc0.181 0 0.362-0.089 0.543-0.089-0.091 0-0.362 0.089-0.543 0.089z" fill="#FFD44F"/>
<path d="m566.04 835.31c-0.181 0-0.362 0.089-0.634 0.089-1.358 0.178-2.807 0.445-4.165 0.712-1.63 0.267-3.169 0.622-4.708 0.978-4.527 1.068-8.511 2.313-11.68 3.648-0.091 0-0.181 0.089-0.181 0.089-0.091 0-0.091 0-0.181 0.089-2.445 1.067-4.437 2.135-5.795 3.292 3.35-2.314 9.597-4.716 17.203-6.495 1.72-0.445 3.531-0.801 5.251-1.067 1.177-0.178 2.354-0.356 3.532-0.534 0.181 0 0.362-0.089 0.543-0.089 1.177-0.178 2.354-0.267 3.44-0.445 9.236-0.979 17.566-0.623 22.364 0.979 0.996 0.355 1.811 0.711 2.445 1.156 1.087 0.712 1.539 1.512 1.449 2.402 0 0.89-0.453 1.779-1.358 2.669 1.267-1.067 1.901-2.046 2.082-3.025v-0.089-0.178c0-0.889-0.543-1.601-1.539-2.313-3.893-2.669-14.396-3.38-25.895-2.046-0.544 0.089-1.177 0.178-1.721 0.178 0-0.089-0.271 0-0.452 0z" fill="#FBB54D"/>
<path d="m561.24 839.4-2.898 0.623 1.358 0.89c-1.901 0.534-3.259 1.156-3.983 1.69-0.634 0.623-0.544 1.157 0.181 1.69l4.346-0.978c-0.453-0.356-0.544-0.712-0.181-1.068 0.362-0.356 1.177-0.712 2.354-0.978 0.543-0.089 1.086-0.178 1.539-0.267 0.543-0.089 1.086-0.089 1.539-0.089 0.815 0 1.449 0.178 1.811 0.445 0.362 0.266 0.362 0.533-0.091 0.8-0.452 0.356-1.358 0.712-2.806 1.246-2.264 0.8-3.803 1.423-4.528 2.046-0.814 0.534-0.905 1.068-0.181 1.601 0.634 0.534 1.902 0.712 3.532 0.712 0.996 0 2.173-0.089 3.44-0.267 0.815-0.089 1.63-0.267 2.445-0.445l1.177 0.801 2.807-0.623-1.177-0.8c2.082-0.534 3.531-1.157 4.527-1.78 0.996-0.622 0.996-1.245 0-1.779h-0.091l-4.255 0.979c0.543 0.355 0.543 0.8 0 1.156-0.544 0.356-1.449 0.623-2.717 0.979-0.633 0.178-1.267 0.267-1.81 0.356-0.544 0.089-1.087 0.089-1.54 0.089-0.996 0-1.629-0.089-1.992-0.356-0.362-0.267-0.271-0.534 0.091-0.801 0.453-0.356 1.358-0.712 2.716-1.245 2.264-0.801 3.803-1.424 4.618-2.047 0.815-0.533 0.905-1.067 0.181-1.601-0.634-0.445-1.811-0.712-3.441-0.712-1.086 0-2.263 0.089-3.531 0.267-0.724 0.089-1.358 0.178-2.173 0.356l-1.267-0.89z" fill="#FFF178"/>
<path d="m562.05 849.72c8.951 0 16.207-2.788 16.207-6.227 0-3.44-7.256-6.228-16.207-6.228s-16.207 2.788-16.207 6.228c0 3.439 7.256 6.227 16.207 6.227z" fill="#FFD44F"/>
<path d="m650.52 850.96-0.996 7.206c0 1.068-0.634 2.135-1.992 3.025-5.342 3.648-20.01 4.359-35.765 2.224-3.984-0.534-7.967-1.245-11.861-2.224-15.754-3.648-25.623-9.074-25.623-13.434l0.996-7.117c0.271 4.359 10.05 9.697 25.623 13.256 3.984 0.889 7.968 1.69 11.952 2.224 15.754 2.135 30.422 1.423 35.764-2.224 1.177-0.89 1.811-1.868 1.902-2.936z" fill="#FBB54D"/>
<path d="m614.3 838.06 3.531 0.534-3.531-0.534zm-0.634-0.089c-1.177-0.178-2.354-0.267-3.44-0.445 1.177 0.178 2.263 0.356 3.44 0.445zm-0.724-0.534c0.181 0 0.362 0.089 0.634 0.089 1.358 0.178 2.807 0.445 4.165 0.712 1.629 0.267 3.169 0.623 4.708 0.978 4.527 1.068 8.511 2.314 11.68 3.648 0.09 0 0.181 0.089 0.181 0.089 0.09 0 0.09 0 0.181 0.089 7.334 3.114 10.322 6.761 6.7 9.252-4.165 2.936-15.845 3.47-28.249 1.78-3.079-0.445-6.338-0.979-9.417-1.691-8.601-1.957-14.939-4.626-18.108-7.206l-0.091-0.089c-1.267-1.067-1.901-2.046-2.082-3.025v-0.089-0.178c0-0.889 0.543-1.601 1.539-2.313 3.893-2.669 14.396-3.38 25.895-2.046 0.544 0.089 1.177 0.178 1.721 0.178 0.181-0.267 0.362-0.267 0.543-0.178zm0.09-2.224c-15.754-2.135-30.512-1.423-35.764 2.224-1.449 0.979-1.992 2.046-1.992 3.203 0.272 4.359 10.05 9.697 25.624 13.256 3.984 0.889 7.967 1.69 11.951 2.224 15.755 2.135 30.423 1.423 35.765-2.224 1.267-0.89 1.901-1.869 1.992-2.936 0.271-4.359-9.688-9.875-25.624-13.612-3.984-0.889-7.968-1.601-11.952-2.135z" fill="#FFF178"/>
<path d="m634.31 842.87c0.091 0 0.091 0 0.181 0.089-0.09-0.089-0.181-0.089-0.181-0.089zm-0.181-0.089c0.091 0 0.181 0.089 0.181 0.089-0.09 0-0.181-0.089-0.181-0.089zm-11.137 3.737-4.346-0.979c0.453-0.356 0.544-0.712 0.181-1.068-0.362-0.355-1.177-0.711-2.354-0.978-0.543-0.089-1.086-0.178-1.539-0.267-0.543-0.089-1.086-0.089-1.539-0.089-0.815 0-1.449 0.178-1.811 0.445s-0.362 0.533 0.091 0.8c0.452 0.356 1.358 0.712 2.806 1.246 2.264 0.801 3.803 1.423 4.527 2.046 0.815 0.534 0.906 1.068 0.182 1.601-0.634 0.534-1.902 0.712-3.532 0.712-0.996 0-2.173-0.089-3.44-0.267-0.815-0.089-1.63-0.267-2.445-0.445l-1.177 0.801-2.807-0.623 1.177-0.8c-2.082-0.534-3.531-1.157-4.527-1.78-0.996-0.622-0.996-1.245 0-1.779h0.091l4.255 0.979c-0.543 0.356-0.543 0.8 0 1.156 0.544 0.356 1.449 0.623 2.717 0.979 0.633 0.178 1.267 0.267 1.81 0.356 0.544 0.089 1.087 0.089 1.54 0.089 0.996 0 1.629-0.089 1.992-0.356 0.362-0.267 0.271-0.534-0.091-0.801-0.453-0.356-1.358-0.712-2.716-1.245-2.264-0.801-3.803-1.424-4.618-2.047-0.815-0.533-0.905-1.067-0.181-1.601 0.634-0.445 1.811-0.712 3.441-0.712 1.086 0 2.263 0.089 3.531 0.267 0.724 0.089 1.358 0.178 2.173 0.356l1.358-0.89 2.897 0.623-1.358 0.89c1.902 0.534 3.26 1.156 3.984 1.69 0.543 0.534 0.543 1.157-0.272 1.691zm-9.326-8.541c-1.177-0.178-2.354-0.267-3.44-0.445-9.235-0.979-17.565-0.623-22.364 0.979-0.996 0.356-1.811 0.711-2.445 1.156-1.086 0.712-1.539 1.513-1.448 2.402 0 0.89 0.452 1.78 1.358 2.669l0.09 0.089c3.169 2.58 9.507 5.249 18.109 7.206 3.078 0.712 6.338 1.335 9.416 1.691 12.404 1.69 24.084 1.156 28.249-1.78 3.622-2.491 0.725-6.138-6.7-9.252 2.445 1.068 4.437 2.135 5.795 3.292-3.35-2.313-9.598-4.715-17.203-6.495-1.72-0.445-3.531-0.8-5.252-1.067l-3.531-0.534c-0.181 0.178-0.362 0.178-0.634 0.089zm8.783 1.156c4.527 1.068 8.511 2.314 11.68 3.648-3.169-1.334-7.153-2.58-11.68-3.648zm-4.799-0.978c1.63 0.267 3.169 0.623 4.709 0.978-1.54-0.355-3.079-0.711-4.709-0.978zm-7.062-1.068c-11.499-1.334-22.002-0.622-25.895 2.046 3.893-2.668 14.396-3.38 25.895-2.046zm2.897 0.445c1.359 0.178 2.807 0.445 4.165 0.712-1.358-0.356-2.716-0.534-4.165-0.712zm-0.543-0.089c0.181 0 0.362 0.089 0.634 0.089-0.272-0.089-0.453-0.089-0.634-0.089zc-0.181 0-0.362-0.089-0.543-0.089 0.181 0 0.362 0 0.543 0.089z" fill="#FFD44F"/>
<path d="m612.94 837.44c0.181 0 0.362 0.089 0.634 0.089 1.358 0.178 2.807 0.445 4.165 0.712 1.63 0.267 3.169 0.623 4.708 0.978 4.527 1.068 8.511 2.314 11.68 3.648 0.091 0 0.181 0.089 0.181 0.089 0.091 0 0.091 0 0.181 0.089 2.445 1.068 4.437 2.135 5.795 3.292-3.35-2.313-9.597-4.715-17.203-6.495-1.72-0.445-3.531-0.801-5.251-1.067-1.177-0.178-2.355-0.356-3.532-0.534-0.181 0-0.362-0.089-0.543-0.089-1.177-0.178-2.354-0.267-3.44-0.445-9.236-0.979-17.566-0.623-22.364 0.979-0.996 0.355-1.811 0.711-2.445 1.156-1.087 0.712-1.539 1.513-1.449 2.402 0 0.89 0.453 1.78 1.358 2.669-1.267-1.067-1.901-2.046-2.082-3.025v-0.089-0.177c0-0.89 0.543-1.602 1.539-2.314 3.893-2.669 14.396-3.38 25.895-2.046 0.543 0.089 1.177 0.178 1.721 0.178 0.09-0.089 0.271-0.089 0.452 0z" fill="#FBB54D"/>
<path d="m617.74 841.53 2.898 0.623-1.358 0.89c1.901 0.534 3.259 1.156 3.983 1.69 0.634 0.623 0.544 1.157-0.181 1.691l-4.346-0.979c0.453-0.356 0.544-0.712 0.181-1.068-0.362-0.355-1.177-0.711-2.354-0.978-0.543-0.089-1.086-0.178-1.539-0.267-0.543-0.089-1.086-0.089-1.539-0.089-0.815 0-1.449 0.178-1.811 0.445s-0.362 0.534 0.091 0.8c0.452 0.356 1.358 0.712 2.806 1.246 2.264 0.801 3.803 1.423 4.527 2.046 0.815 0.534 0.906 1.068 0.182 1.602-0.634 0.533-1.902 0.711-3.532 0.711-0.996 0-2.173-0.089-3.44-0.267-0.815-0.088-1.63-0.266-2.445-0.444l-1.177 0.8-2.807-0.622 1.177-0.801c-2.082-0.534-3.531-1.157-4.527-1.779-0.996-0.623-0.996-1.246 0-1.78h0.091l4.255 0.979c-0.543 0.356-0.543 0.801 0 1.156 0.543 0.356 1.449 0.623 2.717 0.979 0.633 0.178 1.267 0.267 1.81 0.356 0.544 0.089 1.087 0.089 1.54 0.089 0.996 0 1.629-0.089 1.991-0.356 0.363-0.267 0.272-0.534-0.09-0.801-0.453-0.356-1.358-0.711-2.716-1.245-2.264-0.801-3.803-1.424-4.618-2.046-0.815-0.534-0.905-1.068-0.181-1.602 0.634-0.445 1.811-0.712 3.441-0.712 1.086 0 2.263 0.089 3.531 0.267 0.724 0.089 1.358 0.178 2.173 0.356l1.267-0.89z" fill="#FFF178"/>
<path d="m626.79 845.18c0 3.47-7.243 6.228-16.207 6.228s-16.207-2.758-16.207-6.228c0-3.469 7.243-6.227 16.207-6.227 8.873 0 16.207 2.758 16.207 6.227z" fill="#FFD44F"/>
<path d="m592.93 405.16h-7.696v449.81h7.696v-449.81z" fill="#A5D5A7"/>
<path d="m610.74 416.51c19.483-11.831 25.517-36.94 13.477-56.083-12.039-19.144-37.594-25.073-57.077-13.243s-25.517 36.939-13.477 56.083 37.594 25.073 57.077 13.243z" fill="#FFD54F"/>
<path d="m628.4 391c5.148-21.422-8.352-42.889-30.154-47.947-21.802-5.059-43.65 8.207-48.798 29.629s8.353 42.889 30.155 47.947c21.802 5.059 43.649-8.207 48.797-29.629z" fill="#FFF278"/>
<path d="m621 381.85c0 17.437-14.396 31.583-32.143 31.583-17.746 0-32.142-14.146-32.142-31.583s14.396-31.583 32.142-31.583c17.837 0 32.143 14.146 32.143 31.583z" fill="#FFD54F"/>
<path d="m590.21 351.96c8.602 0 16.931 3.469 22.636 8.896-5.795-7.829-15.755-13.078-26.348-13.078-17.747 0-32.143 14.146-32.143 31.583 0 8.986 4.074 17.437 10.231 23.131-3.893-5.249-6.519-12.01-6.519-18.95 0-17.437 14.397-31.582 32.143-31.582z" fill="#FCB64D"/>
<path d="m593.74 389.06c0-1.156-0.362-2.046-1.177-2.847-0.724-0.711-1.992-1.423-3.803-2.046-2.897-0.978-5.07-2.135-6.428-3.469-1.449-1.335-2.173-3.203-2.173-5.516 0-2.224 0.724-4.093 2.082-5.516 1.358-1.424 3.26-2.313 5.614-2.58v-4.359h3.259v4.448c2.354 0.356 4.165 1.334 5.433 2.936 1.358 1.601 1.992 3.736 1.992 6.405h-4.98c0-1.69-0.362-3.025-1.177-4.003-0.724-0.979-1.811-1.513-3.169-1.513s-2.445 0.356-3.169 1.068-1.087 1.69-1.087 2.936c0 1.156 0.363 2.135 1.087 2.847 0.724 0.711 2.082 1.423 3.893 2.046 2.898 0.978 4.98 2.224 6.429 3.558 1.358 1.335 2.082 3.203 2.082 5.516s-0.724 4.182-2.173 5.516c-1.448 1.424-3.35 2.224-5.885 2.491v3.915h-3.26v-3.915c-2.444-0.267-4.436-1.156-5.975-2.58-1.54-1.512-2.355-3.647-2.264-6.494v-0.089h4.799c0 1.868 0.452 3.291 1.448 4.092 0.906 0.801 2.173 1.246 3.532 1.246 1.539 0 2.716-0.356 3.531-1.068 1.086-0.712 1.539-1.69 1.539-3.025z" fill="#FFF278"/>
<path d="m642.93 465.19-5.442-5.347-51.538 50.641 5.442 5.347 51.538-50.641z" fill="#A5D5A7"/>
<path d="m664.06 484.2c20.013-5.391 31.789-25.703 26.302-45.368s-26.159-31.236-46.172-25.845c-20.013 5.392-31.79 25.704-26.303 45.368 5.487 19.665 26.159 31.236 46.173 25.845z" fill="#FFD54F"/>
<path d="m680.21 474.2c-14.396 14.146-37.666 14.146-52.062 0-14.396-14.145-14.396-37.009 0-51.155 14.396-14.145 37.666-14.145 52.062 0 14.306 14.146 14.306 37.01 0 51.155z" fill="#FFF278"/>
<path d="m674.78 468.77c-11.409 11.21-29.789 11.21-41.197 0-11.409-11.209-11.409-29.269 0-40.479 11.408-11.209 29.788-11.209 41.197 0 11.317 11.21 11.317 29.359 0 40.479z" fill="#FFD54F"/>
<path d="m674.51 430.25c5.523 5.427 8.601 12.9 8.692 20.018 1.358-8.719-1.539-18.327-8.33-25-11.408-11.209-29.789-11.209-41.197 0-5.795 5.694-8.692 13.79-8.601 21.263 0.905-5.783 3.712-11.743 8.239-16.192 11.408-11.298 29.788-11.298 41.197-0.089z" fill="#FCB64D"/>
<path d="m652.51 456.22c0.724-0.711 1.087-1.601 1.087-2.491 0-0.978-0.363-2.224-1.087-3.736-1.177-2.402-1.811-4.538-1.901-6.317 0-1.779 0.724-3.381 2.263-4.893 1.449-1.423 3.079-2.135 4.89-2.224 1.81-0.089 3.531 0.623 5.251 1.868l2.897-2.847 2.083 2.047-2.898 2.846c1.268 1.691 1.811 3.47 1.63 5.338-0.181 1.869-1.177 3.648-2.897 5.338l-3.169-3.113c1.086-1.068 1.72-2.136 1.901-3.292 0.181-1.157-0.181-2.046-1.086-2.936-0.906-0.89-1.811-1.335-2.717-1.246-0.905 0-1.81 0.445-2.625 1.246-0.725 0.712-1.177 1.601-1.177 2.491s0.362 2.224 1.177 3.825c1.177 2.492 1.811 4.538 1.811 6.317s-0.725 3.381-2.264 4.893c-1.539 1.513-3.169 2.224-4.98 2.224s-3.622-0.711-5.342-2.135l-2.535 2.491-2.083-2.046 2.536-2.491c-1.358-1.69-2.083-3.559-2.173-5.427 0-1.957 0.905-3.826 2.806-5.605h0.091l3.078 3.025c-1.267 1.246-1.81 2.402-1.72 3.559 0.091 1.156 0.543 2.135 1.449 3.024 0.996 0.979 1.992 1.424 2.988 1.513 0.996 0 1.901-0.445 2.716-1.246z" fill="#FFF278"/>
<path d="m586.64 536.59 5.442-5.347-51.539-50.641-5.442 5.348 51.539 50.64z" fill="#A5D5A7"/>
<path d="m499.76 496.7c14.397 14.146 37.666 14.146 52.062 0 14.397-14.145 14.397-37.009 0-51.155-14.396-14.145-37.665-14.145-52.062 0-14.396 14.146-14.396 37.099 0 51.155z" fill="#FFD54F"/>
<path d="m500.3 496.17c14.124 13.878 36.941 13.878 50.975 0 14.125-13.879 14.125-36.298 0-50.088-14.124-13.879-36.941-13.879-50.975 0-14.125 13.879-14.125 36.298 0 50.088z" fill="#FFF278"/>
<path d="m505.65 491.01c11.137 10.942 29.155 10.942 40.382 0 11.137-10.943 11.137-28.647 0-39.59s-29.155-10.943-40.291 0c-11.228 10.854-11.228 28.647-0.091 39.59z" fill="#FFD54F"/>
<path d="m505.83 453.2c-5.432 5.338-8.42 12.633-8.511 19.573-1.358-8.541 1.449-17.971 8.149-24.555 11.137-10.942 29.155-10.942 40.292 0 5.704 5.605 8.511 13.434 8.42 20.818-0.905-5.694-3.622-11.565-8.058-15.925-11.046-10.853-29.155-10.853-40.292 0.089z" fill="#FCB64D"/>
<path d="m530.1 479.8c0.996-0.089 1.992-0.534 2.898-1.512 0.905-0.89 1.358-1.869 1.448-2.936 0.091-1.068-0.543-2.224-1.72-3.47l2.988-2.936h0.091c1.901 1.779 2.806 3.648 2.716 5.516 0 1.868-0.725 3.648-2.083 5.338l2.536 2.491-2.083 2.046-2.535-2.491c-1.72 1.335-3.441 2.046-5.252 2.046-1.81 0-3.44-0.711-4.889-2.135-1.449-1.423-2.263-3.025-2.173-4.715 0-1.69 0.634-3.737 1.811-6.228 0.724-1.601 1.177-2.846 1.177-3.736s-0.362-1.69-1.087-2.491c-0.814-0.801-1.629-1.157-2.535-1.246-0.905 0-1.811 0.356-2.625 1.246-0.815 0.801-1.178 1.779-0.996 2.847 0.181 1.067 0.724 2.135 1.81 3.202l-3.259 3.114c-1.72-1.69-2.626-3.38-2.897-5.249-0.182-1.868 0.271-3.558 1.539-5.249l-2.807-2.758 2.082-2.046 2.807 2.758c1.63-1.245 3.35-1.868 5.161-1.868 1.811 0.089 3.35 0.801 4.799 2.135 1.539 1.512 2.263 3.114 2.173 4.804 0 1.779-0.634 3.826-1.811 6.139-0.724 1.512-1.086 2.669-1.086 3.647 0 0.979 0.362 1.78 1.086 2.491 0.815 0.89 1.72 1.246 2.716 1.246z" fill="#FFF278"/>
<path d="m587.62 804.33 4.098 4.026 26.185-25.729-4.097-4.026-26.186 25.729z" fill="#A5D5A7"/>
<path d="m605.6 790.65s30.513 3.203 47.354-13.256c16.841-16.547 13.491-46.529 13.491-46.529l-60.845 59.785z" fill="#81C785"/>
<path d="m619.18 744.21c-16.841 16.548-13.491 46.529-13.491 46.529l60.845-59.784c-0.091-0.089-30.603-3.292-47.354 13.255z" fill="#A5D5A7"/>
<path d="m757.9 547.29-5.442-5.347-165.95 163.06 5.442 5.347 165.95-163.06z" fill="#A5D5A7"/>
<path d="m801.18 556.76c-16.207 15.925-42.374 15.925-58.581 0s-16.207-41.636 0-57.561c16.207-15.924 42.374-15.924 58.581 0 16.117 15.925 16.117 41.725 0 57.561z" fill="#FFD54F"/>
<path d="m809.67 542.5c8.144-20.507-2.174-43.617-23.044-51.618-20.87-8.002-44.39 2.136-52.533 22.642-8.143 20.507 2.174 43.617 23.044 51.618 20.87 8.002 44.39-2.136 52.533-22.642z" fill="#FFF278"/>
<path d="m794.57 550.26c-12.495 12.277-32.867 12.277-45.362 0-12.495-12.278-12.495-32.295 0-44.572s32.867-12.277 45.362 0 12.495 32.294 0 44.572z" fill="#FFD54F"/>
<path d="m794.3 507.74c6.067 5.961 9.417 14.235 9.598 22.064 1.539-9.609-1.72-20.195-9.235-27.58-12.495-12.277-32.867-12.277-45.362 0-6.429 6.317-9.598 15.213-9.417 23.487 0.996-6.405 4.075-12.989 9.055-17.882 12.494-12.366 32.776-12.366 45.361-0.089z" fill="#FCB64D"/>
<path d="m770.03 536.47c0.815-0.801 1.267-1.779 1.267-2.758 0-1.067-0.362-2.402-1.177-4.092-1.358-2.669-1.992-4.982-2.082-6.94 0-1.957 0.815-3.736 2.445-5.426 1.629-1.602 3.44-2.403 5.432-2.403 1.992-0.088 3.893 0.623 5.795 2.047l3.169-3.114 2.354 2.313-3.169 3.114c1.358 1.868 1.992 3.825 1.72 5.872-0.271 2.046-1.267 4.003-3.259 5.871l-3.531-3.469c1.177-1.157 1.901-2.402 2.082-3.648s-0.181-2.313-1.177-3.203c-0.996-0.978-1.992-1.423-2.988-1.423s-1.992 0.534-2.897 1.334c-0.815 0.801-1.268 1.78-1.268 2.758 0 0.979 0.453 2.402 1.268 4.182 1.267 2.758 1.992 5.071 1.992 6.939 0 1.957-0.815 3.736-2.445 5.338-1.63 1.601-3.531 2.491-5.523 2.402-1.992 0-3.984-0.801-5.885-2.313l-2.807 2.758-2.264-2.224 2.807-2.758c-1.539-1.869-2.354-3.915-2.354-6.05-0.091-2.135 0.996-4.181 3.078-6.228h0.091l3.441 3.381c-1.359 1.335-1.992 2.669-1.902 3.915 0.091 1.245 0.634 2.313 1.63 3.291 1.086 1.068 2.173 1.602 3.259 1.691 0.996 0.089 1.992-0.267 2.898-1.157z" fill="#FFF278"/>
<path d="m658.88 635.8h7.696v-71.617h-7.696v71.617z" fill="#A5D5A7"/>
<path d="m629.96 549.19c0 17.882 14.758 32.384 32.957 32.384s32.958-14.502 32.958-32.384-14.759-32.383-32.958-32.383-32.957 14.501-32.957 32.383z" fill="#FFD54F"/>
<path d="m630.68 549.19c0 17.526 14.487 31.672 32.234 31.672 17.836 0 32.233-14.235 32.233-31.672 0-17.526-14.487-31.672-32.233-31.672-17.837 0-32.234 14.146-32.234 31.672z" fill="#FFF278"/>
<path d="m637.38 549.19c0 13.879 11.408 25.088 25.533 25.088s25.533-11.209 25.533-25.088c0-13.878-11.408-25.088-25.533-25.088-14.034 0-25.533 11.21-25.533 25.088z" fill="#FFD54F"/>
<path d="m661.92 525.44c-6.881 0-13.4 2.757-18.018 7.117 4.618-6.228 12.495-10.409 21.006-10.409 14.125 0 25.533 11.209 25.533 25.088 0 7.117-3.259 13.879-8.149 18.416 3.079-4.181 5.161-9.519 5.161-15.035 0-13.968-11.499-25.177-25.533-25.177z" fill="#FCB64D"/>
<path d="m660.11 557.29c0.634 0.534 1.63 0.89 2.807 0.89 1.086 0 2.082-0.356 2.806-0.979 0.725-0.623 1.087-1.779 1.087-3.292h3.803v0.089c0 2.313-0.543 4.004-1.811 5.16-1.268 1.157-2.807 1.869-4.799 2.047v3.113h-2.626v-3.113c-1.992-0.178-3.531-0.89-4.708-1.958-1.177-1.067-1.72-2.58-1.72-4.448s0.543-3.292 1.63-4.359c1.086-1.068 2.806-1.958 5.07-2.847 1.539-0.534 2.535-1.068 3.169-1.691 0.543-0.533 0.905-1.334 0.905-2.224 0-0.978-0.271-1.779-0.814-2.313-0.544-0.623-1.359-0.889-2.445-0.889-1.087 0-1.901 0.355-2.535 1.156s-0.906 1.868-0.906 3.203h-3.893c0-2.135 0.543-3.826 1.539-5.071 1.087-1.246 2.535-2.046 4.346-2.313v-3.47h2.626v3.47c1.901 0.178 3.35 0.889 4.437 2.046 1.086 1.156 1.629 2.58 1.629 4.359 0 1.869-0.543 3.292-1.72 4.449-1.177 1.067-2.897 2.046-5.161 2.757-1.449 0.534-2.445 1.068-2.988 1.602-0.634 0.623-0.905 1.334-0.905 2.224 0.181 1.068 0.543 1.868 1.177 2.402z" fill="#FFF278"/>
<path d="m696.48 598.51v7.563h72.886v-7.563h-72.886z" fill="#A5D5A7"/>
<path d="m774.47 580.15c-12.585 0-22.726 9.964-22.726 22.331 0 12.366 10.141 22.33 22.726 22.33s22.726-9.964 22.726-22.33c0-12.367-10.141-22.331-22.726-22.331z" fill="#FFD54F"/>
<path d="m774.47 624.37c12.301 0 22.274-9.798 22.274-21.886 0-12.087-9.973-21.885-22.274-21.885s-22.273 9.798-22.273 21.885c0 12.088 9.972 21.886 22.273 21.886z" fill="#FFF278"/>
<path d="m774.47 585.14c-9.778 0-17.656 7.74-17.656 17.348 0 9.609 7.878 17.349 17.656 17.349 9.779 0 17.656-7.74 17.656-17.349 0-9.608-7.877-17.348-17.656-17.348z" fill="#FFD54F"/>
<path d="m791.22 601.77c0-4.627-1.902-9.075-4.98-12.189 4.437 3.114 7.334 8.452 7.334 14.235 0 9.608-7.877 17.348-17.656 17.348-4.98 0-9.688-2.224-12.948-5.516 2.898 2.046 6.701 3.47 10.594 3.47 9.688 0 17.656-7.829 17.656-17.348z" fill="#FCB64D"/>
<path d="m768.76 600.53c-0.362 0.445-0.633 1.068-0.633 1.868 0 0.801 0.271 1.424 0.724 1.958 0.453 0.533 1.177 0.8 2.264 0.8v2.58h-0.091c-1.63 0-2.807-0.356-3.622-1.245-0.815-0.89-1.267-1.957-1.448-3.292h-2.173v-1.779h2.173c0.181-1.335 0.633-2.402 1.358-3.203 0.815-0.801 1.811-1.157 3.078-1.157 1.268 0 2.354 0.356 3.079 1.157 0.724 0.801 1.448 1.868 1.992 3.47 0.362 0.978 0.724 1.69 1.177 2.135 0.362 0.356 0.905 0.623 1.539 0.623 0.724 0 1.268-0.178 1.63-0.534 0.452-0.356 0.634-0.979 0.634-1.691 0-0.711-0.272-1.245-0.815-1.69-0.544-0.445-1.268-0.623-2.264-0.623v-2.669c1.449 0 2.716 0.356 3.622 1.068 0.905 0.712 1.449 1.69 1.63 2.936h2.444v1.779h-2.444c-0.181 1.246-0.634 2.313-1.449 3.025s-1.811 1.157-3.079 1.157c-1.267 0-2.354-0.356-3.078-1.157s-1.449-1.957-1.992-3.47c-0.362-0.978-0.724-1.601-1.177-2.046s-0.905-0.623-1.63-0.623c-0.453 0-0.996 0.178-1.449 0.623z" fill="#FFF278"/>
<path d="m442.43 545.63-5.442 5.347 149.36 146.76 5.442-5.347-149.36-146.76z" fill="#A5D5A7"/>
<path d="m445.51 566.05c19.169-12.314 24.55-37.566 12.017-56.401-12.532-18.835-38.231-24.122-57.4-11.808-19.17 12.314-24.55 37.565-12.018 56.401 12.532 18.835 38.231 24.122 57.401 11.808z" fill="#FFD54F"/>
<path d="m451.5 503.73c15.845 15.569 15.845 40.835 0 56.404s-41.559 15.569-57.404 0-15.845-40.835 0-56.404 41.559-15.569 57.404 0z" fill="#FFF278"/>
<path d="m445.53 509.6c12.495 12.278 12.495 32.295 0 44.572s-32.867 12.277-45.362 0-12.495-32.294 0-44.572c12.495-12.366 32.777-12.366 45.362 0z" fill="#FFD54F"/>
<path d="m402.24 509.87c6.067-5.96 14.487-9.252 22.455-9.43-9.779-1.512-20.553 1.69-28.068 9.075-12.495 12.277-12.495 32.294 0 44.571 6.428 6.317 15.483 9.431 23.903 9.253-6.519-0.979-13.219-4.004-18.199-8.897-12.676-12.277-12.676-32.294-0.091-44.572z" fill="#FCB64D"/>
<path d="m431.4 533.71c-0.815-0.801-1.811-1.245-2.807-1.245-1.087 0-2.445 0.355-4.165 1.156-2.717 1.335-5.071 1.957-7.063 2.046-1.992 0-3.802-0.8-5.523-2.402-1.629-1.601-2.444-3.38-2.444-5.338-0.091-1.957 0.633-3.825 2.082-5.693l-3.169-3.114 2.354-2.313 3.169 3.113c1.902-1.334 3.894-1.957 5.976-1.69 2.083 0.267 4.074 1.246 5.976 3.203l-3.531 3.47c-1.177-1.157-2.445-1.869-3.713-2.047-1.267-0.178-2.354 0.178-3.259 1.157-0.996 0.979-1.449 1.957-1.449 2.936 0 0.978 0.544 1.957 1.358 2.847 0.815 0.8 1.811 1.245 2.807 1.245s2.445-0.445 4.256-1.245c2.807-1.246 5.161-1.958 7.062-1.958 1.992 0 3.803 0.801 5.433 2.402 1.629 1.602 2.535 3.47 2.444 5.427 0 1.958-0.815 3.915-2.354 5.783l2.807 2.758-2.264 2.224-2.806-2.758c-1.902 1.513-3.984 2.313-6.157 2.313-2.173 0.089-4.256-0.978-6.338-3.024v-0.089l3.44-3.381c1.358 1.334 2.717 1.957 3.984 1.868 1.268-0.089 2.354-0.623 3.35-1.601 1.087-1.068 1.63-2.135 1.721-3.203 0.181-0.979-0.272-2.046-1.177-2.847z" fill="#FFF278"/>
<path d="m532.56 642.85v-7.562h-72.887v7.562h72.887z" fill="#A5D5A7"/>
<path d="m476.84 644.03c2.884-17.46-9.183-33.912-26.953-36.745-17.77-2.834-34.513 9.023-37.397 26.483s9.184 33.912 26.953 36.746c17.77 2.833 34.513-9.024 37.397-26.484z" fill="#FFD54F"/>
<path d="m476.21 643.93c2.828-17.12-9.005-33.252-26.429-36.031-17.424-2.778-33.841 8.848-36.669 25.969s9.005 33.252 26.429 36.031c17.424 2.778 33.841-8.848 36.669-25.969z" fill="#FFF278"/>
<path d="m444.71 663.78c13.944 0 25.262-11.121 25.262-24.822 0-13.7-11.318-24.821-25.262-24.821-13.943 0-25.261 11.121-25.261 24.821 0 13.701 11.318 24.822 25.261 24.822z" fill="#FFD54F"/>
<path d="m420.72 639.94c0 6.672 2.807 13.078 7.153 17.526-6.338-4.537-10.503-12.188-10.503-20.462 0-13.701 11.318-24.821 25.261-24.821 7.153 0 13.944 3.202 18.562 7.918-4.165-3.025-9.598-4.982-15.211-4.982-13.944-0.089-25.262 11.12-25.262 24.821z" fill="#FCB64D"/>
<path d="m452.86 641.63c0.543-0.623 0.905-1.512 0.905-2.758 0-1.067-0.362-2.046-0.996-2.758-0.633-0.711-1.72-1.067-3.259-1.067v-3.737h0.09c2.264 0 4.075 0.534 5.252 1.78 1.177 1.245 1.901 2.757 2.082 4.626h3.169v2.491h-3.169c-0.181 1.957-0.815 3.469-1.992 4.537-1.086 1.068-2.625 1.69-4.436 1.69-1.902 0-3.35-0.533-4.437-1.601-1.086-1.068-1.992-2.758-2.807-4.982-0.543-1.424-1.086-2.491-1.629-3.025-0.544-0.534-1.359-0.89-2.264-0.89-0.996 0-1.811 0.267-2.354 0.801s-0.906 1.335-0.906 2.402c0 1.068 0.363 1.868 1.178 2.402 0.814 0.623 1.901 0.89 3.169 0.89v3.825c-2.174 0-3.894-0.533-5.161-1.512-1.268-0.979-2.083-2.402-2.355-4.27h-3.531v-2.491h3.531c0.182-1.869 0.906-3.292 2.083-4.36 1.177-1.067 2.626-1.601 4.437-1.601 1.901 0 3.35 0.534 4.436 1.69 1.087 1.157 1.992 2.758 2.807 4.982 0.453 1.335 1.086 2.313 1.63 2.936 0.634 0.623 1.358 0.89 2.263 0.89 0.906 0.089 1.721-0.178 2.264-0.89z" fill="#FFF278"/>
<path d="m492.12 604.14h7.696v-52.579h-7.696v52.579z" fill="#A5D5A7"/>
<path d="m496.14 568.94c12.201 0 22.092-9.718 22.092-21.707s-9.891-21.708-22.092-21.708-22.093 9.719-22.093 21.708 9.892 21.707 22.093 21.707z" fill="#FFD54F"/>
<path d="m496.14 568.59c12.001 0 21.73-9.559 21.73-21.351 0-11.793-9.729-21.352-21.73-21.352s-21.73 9.559-21.73 21.352c0 11.792 9.729 21.351 21.73 21.351z" fill="#FFF278"/>
<path d="m496.14 564.05c9.451 0 17.113-7.528 17.113-16.814 0-9.287-7.662-16.815-17.113-16.815s-17.112 7.528-17.112 16.815c0 9.286 7.661 16.814 17.112 16.814z" fill="#FFD54F"/>
<path d="m495.42 531.22c-4.618 0-9.055 1.868-12.133 4.804 3.078-4.181 8.42-7.028 14.124-7.028 9.507 0 17.113 7.562 17.113 16.814 0 4.804-2.173 9.342-5.433 12.367 2.083-2.758 3.441-6.406 3.441-10.143 0.091-9.252-7.606-16.814-17.112-16.814z" fill="#FCB64D"/>
<path d="m494.24 552.66c0.453 0.356 1.087 0.622 1.902 0.622 0.724 0 1.358-0.177 1.901-0.622s0.725-1.157 0.725-2.224h2.535v0.089c0 1.512-0.362 2.669-1.177 3.469-0.815 0.801-1.902 1.246-3.26 1.424v2.046h-1.72v-2.135c-1.358-0.178-2.354-0.534-3.169-1.335-0.724-0.712-1.177-1.69-1.177-2.936 0-1.245 0.362-2.224 1.086-2.935 0.725-0.712 1.902-1.335 3.441-1.869 0.996-0.356 1.72-0.712 2.082-1.067 0.363-0.356 0.544-0.89 0.544-1.513s-0.181-1.156-0.544-1.601c-0.362-0.356-0.905-0.623-1.629-0.623-0.725 0-1.268 0.267-1.721 0.801-0.452 0.534-0.633 1.245-0.633 2.135h-2.445c0-1.423 0.362-2.58 1.086-3.47 0.725-0.889 1.721-1.423 2.898-1.601v-2.402h1.72v2.313c1.268 0.178 2.264 0.623 2.988 1.334 0.724 0.801 1.087 1.78 1.087 2.936 0 1.246-0.363 2.224-1.178 2.936-0.724 0.712-1.901 1.335-3.44 1.868-0.906 0.356-1.63 0.712-1.992 1.068-0.362 0.445-0.634 0.89-0.634 1.512 0 0.89 0.272 1.424 0.724 1.78z" fill="#FFF278"/>
<path d="m630.8 664.89v5.694h37.032v-5.694h-37.032z" fill="#A5D5A7"/>
<path d="m653.32 667.78s19.286 23.487 43.008 23.487 43.008-23.487 43.008-23.487h-86.016z" fill="#81C785"/>
<path d="m696.33 644.3c-23.722 0-43.008 23.487-43.008 23.487h86.016s-19.195-23.487-43.008-23.487z" fill="#A5D5A7"/>
<path d="m543.33 653.12h5.795v-36.387h-5.795v36.387z" fill="#A5D5A7"/>
<path d="m546.21 630.95s23.904-18.949 23.904-42.258-23.904-42.259-23.904-42.259v84.517z" fill="#81C785"/>
<path d="m522.31 588.7c0 23.309 23.903 42.258 23.903 42.258v-84.517s-23.903 18.95-23.903 42.259z" fill="#A5D5A7"/>
<path d="m588.92 778.35 4.097-4.026-26.185-25.73-4.098 4.026 26.186 25.73z" fill="#A5D5A7"/>
<path d="m575.09 760.66s3.259-29.981-13.491-46.529c-16.841-16.548-47.354-13.256-47.354-13.256l60.845 59.785z" fill="#81C785"/>
<path d="m527.74 747.32c16.841 16.548 47.353 13.256 47.353 13.256l-60.844-59.785c0 0.089-3.26 30.07 13.491 46.529z" fill="#A5D5A7"/>
<path d="m602.53 897.32c16.478-1.424 26.891-5.338 26.8-9.609v-8.007h-78.772v8.007c0 1.068 0.724 2.136 2.083 3.203 6.971 5.249 29.245 8.096 49.889 6.406z" fill="#FBB54D"/>
<path d="m602.52 889.22c-20.553 1.779-42.917-1.068-49.889-6.406-6.971-5.338 4.075-11.031 24.718-12.811 20.644-1.779 42.918 1.068 49.889 6.406 6.882 5.338-4.165 11.032-24.718 12.811z" fill="#FFF178"/>
<path d="m599.9 887.27c-16.297 1.423-33.953-0.89-39.476-5.071-5.523-4.182 3.259-8.719 19.557-10.142 16.298-1.424 33.953 0.889 39.477 5.071-5.524-4.182-23.179-6.495-39.477-5.071-8.783 0.711-15.302 2.402-18.652 4.448 3.531-1.779 10.05-3.292 18.018-3.915 16.298-1.423 33.954 0.89 39.477 5.071 2.173 1.691 1.901 3.47 0 5.071-3.35 2.047-9.96 3.737-18.924 4.538z" fill="#FFD44F"/>
<path d="m618.82 882.64c1.901-1.601 2.173-3.38 0-5.07-5.523-4.182-23.179-6.495-39.477-5.072-7.877 0.712-14.396 2.136-18.018 3.915 3.351-2.046 9.96-3.648 18.652-4.448 16.298-1.424 33.954 0.889 39.477 5.071 2.444 1.957 1.992 3.914-0.634 5.604z" fill="#FBB54D"/>
<path d="m597.27 884.15-2.988 0.267-1.267-0.979c-2.354 0.089-4.437 0.089-6.157-0.089-1.721-0.178-2.988-0.623-3.712-1.156-0.725-0.534-0.634-1.068 0.181-1.513 0.905-0.445 2.444-0.889 4.798-1.334 1.54-0.356 2.536-0.623 2.988-0.801 0.453-0.267 0.453-0.534 0.091-0.801s-0.996-0.533-1.902-0.622c-0.905-0.089-1.901-0.089-3.259 0-1.177 0.089-2.083 0.266-2.445 0.622-0.362 0.267-0.362 0.623 0.181 1.068l-4.527 0.356c-0.815-0.623-0.905-1.246-0.181-1.691 0.724-0.533 2.083-0.889 4.075-1.156l-1.359-1.068 2.988-0.267 1.358 1.068c2.264-0.089 4.256-0.089 5.976 0.178 1.721 0.267 2.898 0.623 3.622 1.156 0.724 0.534 0.634 1.068-0.272 1.513-0.905 0.445-2.535 0.89-4.889 1.334-1.449 0.267-2.354 0.534-2.807 0.801s-0.543 0.534-0.181 0.801 1.087 0.534 2.083 0.623c0.996 0.088 2.173 0.088 3.621 0 1.268-0.089 2.264-0.267 2.898-0.534 0.633-0.267 0.633-0.623 0-1.068l4.436-0.356h0.091c0.905 0.712 0.905 1.246 0 1.78-0.996 0.444-2.535 0.889-4.708 1.067l1.267 0.801z" fill="#FFF178"/>
<path d="m607.41 879.17c0 3.47-7.244 6.227-16.207 6.227-8.964 0-16.208-2.757-16.208-6.227s7.244-6.228 16.208-6.228c8.963 0 16.207 2.758 16.207 6.228z" fill="#FFD44F"/>
<path d="m518.32 859.59 0.996 7.207c0 1.067 0.633 2.135 1.992 3.024 5.342 3.648 20.009 4.36 35.764 2.225 3.984-0.534 7.968-1.246 11.861-2.225 15.754-3.647 25.624-9.074 25.624-13.433l-0.996-7.118c-0.272 4.36-10.141 9.698-25.624 13.256-3.984 0.89-7.968 1.691-11.952 2.224-15.754 2.136-30.422 1.424-35.764-2.224-1.177-0.889-1.811-1.868-1.901-2.936z" fill="#FBB54D"/>
<path d="m554.54 846.69-3.531 0.534 3.531-0.534zm0.634-0.089c1.177-0.177 2.354-0.266 3.44-0.444-1.177 0.178-2.263 0.267-3.44 0.444zm0.724-0.622c0.181 0 0.362-0.089 0.543-0.089 0.544-0.089 1.177-0.178 1.721-0.178 11.499-1.335 22.002-0.623 25.895 2.046 0.996 0.712 1.539 1.512 1.539 2.313v0.178 0.089c-0.09 0.979-0.815 2.046-2.082 3.025l-0.091 0.089c-3.169 2.58-9.507 5.249-18.108 7.206-3.079 0.712-6.338 1.334-9.417 1.69-12.404 1.691-24.084 1.157-28.249-1.779-3.622-2.491-0.724-6.139 6.7-9.252 0.091 0 0.091 0 0.181-0.089 0.091 0 0.181-0.089 0.181-0.089 3.169-1.335 7.153-2.58 11.68-3.648 1.539-0.356 3.169-0.712 4.708-0.978 1.359-0.267 2.807-0.445 4.165-0.712 0.272 0.267 0.453 0.178 0.634 0.178zm-0.09-2.135c-3.894 0.533-7.968 1.245-11.861 2.224-15.936 3.647-25.896 9.163-25.624 13.611 0.091 1.068 0.724 2.047 1.992 2.936 5.342 3.648 20.01 4.359 35.764 2.224 3.984-0.533 7.968-1.245 11.952-2.224 15.483-3.558 25.352-8.896 25.623-13.256 0.091-1.156-0.543-2.224-1.992-3.202-5.432-3.737-20.1-4.538-35.854-2.313z" fill="#FFF178"/>
<path d="m534.53 851.41c-0.09 0-0.09-1e-3 -0.181 0.088 0.091 0 0.181 0 0.181-0.088zm0.272 0c-0.091 0-0.181 0.088-0.181 0.088 0-0.089 0.09-0.088 0.181-0.088zm11.046 3.736c-0.815-0.534-0.815-1.157-0.181-1.69 0.634-0.623 1.992-1.157 3.984-1.691l-1.358-0.889 2.897-0.623 1.358 0.89c0.724-0.178 1.449-0.267 2.173-0.356 1.268-0.178 2.535-0.267 3.531-0.267 1.63 0 2.807 0.267 3.441 0.712 0.724 0.533 0.634 1.067-0.181 1.601-0.906 0.534-2.445 1.245-4.618 2.046-1.358 0.534-2.263 0.89-2.716 1.246-0.453 0.267-0.453 0.533-0.091 0.8s0.996 0.356 1.992 0.356c0.453 0 0.996 0 1.539-0.089 0.544-0.089 1.177-0.178 1.811-0.356 1.268-0.267 2.173-0.622 2.717-0.978 0.543-0.356 0.543-0.801 0-1.157l4.255-0.978h0.091c0.905 0.533 0.905 1.156 0 1.779-0.906 0.623-2.445 1.245-4.528 1.779l1.178 0.801-2.807 0.623-1.177-0.801c-0.906 0.178-1.721 0.267-2.445 0.445-1.268 0.178-2.354 0.267-3.441 0.267-1.629 0-2.897-0.267-3.531-0.712-0.724-0.534-0.634-0.979 0.181-1.601 0.815-0.534 2.354-1.246 4.527-2.047 1.449-0.533 2.445-0.889 2.807-1.245 0.453-0.267 0.453-0.534 0.091-0.801s-0.996-0.356-1.811-0.445c-0.453 0-0.996 0-1.539 0.089-0.453 0.089-0.996 0.178-1.54 0.267-1.177 0.267-1.901 0.623-2.354 0.979-0.362 0.356-0.271 0.712 0.181 1.067l-4.436 0.979zm9.326-8.541c-0.181 0-0.362 0.089-0.543 0.089-1.178 0.178-2.355 0.356-3.532 0.534-1.72 0.356-3.531 0.623-5.251 1.068-7.606 1.779-13.763 4.181-17.203 6.494 1.358-1.067 3.35-2.224 5.795-3.292-7.334 3.114-10.322 6.762-6.701 9.253 4.165 2.936 15.845 3.469 28.25 1.779 3.078-0.445 6.338-0.979 9.416-1.69 8.602-1.957 14.94-4.626 18.109-7.206l0.09-0.089c0.815-0.89 1.268-1.78 1.358-2.669 0-0.89-0.452-1.691-1.448-2.402-0.634-0.445-1.449-0.89-2.445-1.157-4.799-1.601-13.129-1.957-22.364-0.978-1.268 0-2.354 0.088-3.531 0.266zm-8.783 1.157c-4.527 1.068-8.511 2.313-11.68 3.648 3.169-1.335 7.153-2.58 11.68-3.648zm4.799-0.979c-1.63 0.267-3.169 0.623-4.708 0.979 1.539-0.356 3.078-0.712 4.708-0.979zm7.062-1.067c11.499-1.335 22.002-0.623 25.895 2.046-3.893-2.669-14.396-3.381-25.895-2.046zm-2.897 0.356c-1.358 0.178-2.807 0.444-4.165 0.711 1.358-0.267 2.807-0.533 4.165-0.711zm0.543-0.089c-0.181 0-0.362 0.089-0.634 0.089 0.272 0 0.453-0.089 0.634-0.089zc0.181 0 0.362-0.089 0.543-0.089-0.09 0.089-0.362 0.089-0.543 0.089z" fill="#FFD44F"/>
<path d="m555.89 845.98c-0.181 0-0.362 0.089-0.633 0.089-1.359 0.177-2.807 0.444-4.165 0.711-1.63 0.267-3.169 0.623-4.709 0.979-4.527 1.068-8.511 2.313-11.68 3.648-0.09 0-0.181 0.088-0.181 0.088-0.09 0-0.09 0-0.181 0.089-2.445 1.068-4.436 2.136-5.795 3.292 3.35-2.313 9.598-4.715 17.204-6.494 1.72-0.445 3.531-0.801 5.251-1.068l3.531-0.534c0.181 0 0.362-0.089 0.543-0.089 1.177-0.178 2.355-0.267 3.441-0.445 9.235-0.978 17.565-0.622 22.364 0.979 0.996 0.356 1.811 0.712 2.445 1.157 1.086 0.711 1.539 1.512 1.448 2.402 0 0.889-0.452 1.779-1.358 2.669 1.268-1.068 1.902-2.046 2.083-3.025v-0.089-0.178c0-0.89-0.543-1.601-1.539-2.313-3.894-2.669-14.397-3.381-25.896-2.046-0.543 0.089-1.177 0.178-1.72 0.178h-0.453z" fill="#FBB54D"/>
<path d="m551.1 850.08-2.897 0.623 1.358 0.89c-1.901 0.533-3.26 1.156-3.984 1.69-0.634 0.623-0.543 1.156 0.181 1.69l4.346-0.978c-0.452-0.356-0.543-0.712-0.181-1.068s1.177-0.712 2.354-0.979c0.544-0.089 1.087-0.177 1.54-0.266 0.543-0.089 1.086-0.089 1.539-0.089 0.815 0 1.448 0.178 1.811 0.444 0.362 0.267 0.362 0.534-0.091 0.801-0.453 0.356-1.358 0.712-2.807 1.246-2.263 0.8-3.803 1.423-4.527 2.046-0.815 0.534-0.905 1.067-0.181 1.601 0.634 0.534 1.901 0.712 3.531 0.712 0.996 0 2.173-0.089 3.441-0.267 0.815-0.089 1.63-0.267 2.444-0.445l1.177 0.801 2.807-0.623-1.177-0.801c2.083-0.533 3.531-1.156 4.527-1.779s0.996-1.245 0-1.779h-0.09l-4.256 0.978c0.544 0.356 0.544 0.801 0 1.157-0.543 0.356-1.448 0.623-2.716 0.979-0.634 0.178-1.268 0.266-1.811 0.355s-1.086 0.089-1.539 0.089c-0.996 0-1.63-0.089-1.992-0.355-0.362-0.267-0.272-0.534 0.091-0.801 0.452-0.356 1.358-0.712 2.716-1.246 2.263-0.8 3.803-1.423 4.618-2.046 0.814-0.534 0.905-1.067 0.181-1.601-0.634-0.445-1.811-0.712-3.441-0.712-1.086 0-2.264 0.089-3.531 0.267-0.724 0.089-1.358 0.178-2.173 0.356l-1.268-0.89z" fill="#FFF178"/>
<path d="m556.8 860.04c8.951 0 16.207-2.788 16.207-6.227 0-3.44-7.256-6.228-16.207-6.228s-16.207 2.788-16.207 6.228c0 3.439 7.256 6.227 16.207 6.227z" fill="#FFD44F"/>
<path d="m604.97 877.57c16.478-1.424 26.891-5.338 26.8-9.609v-8.007h-78.772v8.007c0 1.068 0.725 2.135 2.083 3.203 6.971 5.249 29.335 8.185 49.889 6.406z" fill="#FBB54D"/>
<path d="m604.97 869.56c-20.553 1.779-42.917-1.068-49.889-6.406-6.971-5.338 4.075-11.032 24.719-12.811 20.643-1.779 42.917 1.068 49.889 6.406 6.971 5.249-4.075 11.031-24.719 12.811z" fill="#FFF178"/>
<path d="m602.34 867.51c-16.297 1.424-33.953-0.889-39.476-5.071-5.523-4.181 3.259-8.718 19.557-10.142 16.298-1.423 33.954 0.89 39.477 5.071-5.523-4.181-23.179-6.494-39.477-5.071-8.783 0.712-15.302 2.402-18.652 4.449 3.531-1.78 10.05-3.292 18.018-3.915 16.298-1.423 33.954 0.89 39.477 5.071 2.173 1.69 1.901 3.47 0 5.071-3.26 2.046-9.96 3.737-18.924 4.537z" fill="#FFD44F"/>
<path d="m621.27 862.98c1.902-1.601 2.173-3.381 0-5.071-5.523-4.181-23.179-6.494-39.476-5.071-7.878 0.712-14.397 2.135-18.018 3.915 3.35-2.047 9.959-3.648 18.651-4.449 16.298-1.423 33.954 0.89 39.477 5.071 2.445 1.869 2.083 3.826-0.634 5.605z" fill="#FBB54D"/>
<path d="m599.81 864.4-2.988 0.267-1.268-0.979c-2.354 0.089-4.436 0.089-6.157-0.089-1.72-0.178-2.988-0.623-3.712-1.157-0.724-0.533-0.634-1.067 0.181-1.512 0.906-0.445 2.445-0.89 4.799-1.334 1.539-0.356 2.535-0.623 2.988-0.801 0.453-0.267 0.453-0.534 0.09-0.801-0.362-0.267-0.996-0.534-1.901-0.623s-1.901-0.089-3.26 0c-1.177 0.089-2.082 0.267-2.444 0.623-0.362 0.267-0.362 0.623 0.181 1.068l-4.527 0.356c-0.815-0.623-0.906-1.246-0.181-1.691 0.724-0.534 2.082-0.889 4.074-1.156l-1.358-1.068 2.988-0.267 1.358 1.068c2.264-0.089 4.256-0.089 5.976 0.178s2.897 0.622 3.622 1.156c0.724 0.534 0.633 1.068-0.272 1.513-0.906 0.445-2.535 0.889-4.889 1.334-1.449 0.267-2.355 0.534-2.807 0.801-0.453 0.267-0.543 0.534-0.181 0.801 0.362 0.266 1.086 0.533 2.082 0.622s2.173 0.089 3.622 0c1.267-0.089 2.263-0.267 2.897-0.533 0.634-0.267 0.634-0.623 0-1.068l4.437-0.356h0.09c0.906 0.712 0.906 1.246 0 1.779-0.996 0.445-2.535 0.89-4.708 1.068l1.268 0.801z" fill="#FFF178"/>
<path d="m532.08 891.18c16.479-1.423 26.891-5.338 26.801-9.608v-8.007h-78.772v8.007c0 1.067 0.724 2.135 2.082 3.203 6.972 5.248 29.336 8.184 49.889 6.405z" fill="#FBB54D"/>
<path d="m532.08 883.08c-20.553 1.78-42.917-1.067-49.889-6.405s4.074-11.032 24.718-12.811c20.644-1.78 42.917 1.067 49.889 6.405s-4.074 11.121-24.718 12.811z" fill="#FFF178"/>
<path d="m529.46 881.13c-16.298 1.423-33.954-0.89-39.477-5.071s3.26-8.719 19.557-10.142c16.298-1.424 33.954 0.89 39.477 5.071-5.523-4.181-23.179-6.495-39.477-5.071-8.782 0.712-15.301 2.402-18.651 4.448 3.531-1.779 10.05-3.292 18.018-3.914 16.297-1.424 33.953 0.889 39.476 5.071 2.173 1.69 1.902 3.469 0 5.071-3.259 2.046-9.959 3.736-18.923 4.537z" fill="#FFD44F"/>
<path d="m548.38 876.5c1.901-1.601 2.173-3.381 0-5.071-5.523-4.182-23.179-6.495-39.477-5.071-7.877 0.712-14.396 2.135-18.018 3.914 3.35-2.046 9.96-3.647 18.652-4.448 16.298-1.423 33.953 0.89 39.477 5.071 2.444 1.957 2.082 3.915-0.634 5.605z" fill="#FBB54D"/>
<path d="m526.92 878.01-2.988 0.267-1.267-0.978c-2.355 0.089-4.437 0.089-6.157-0.089-1.721-0.178-2.988-0.623-3.713-1.157-0.724-0.534-0.633-1.068 0.182-1.512 0.905-0.445 2.444-0.89 4.798-1.335 1.54-0.356 2.535-0.623 2.988-0.801 0.453-0.266 0.453-0.533 0.091-0.8s-0.996-0.534-1.902-0.623c-0.905-0.089-1.901-0.089-3.259 0-1.177 0.089-2.083 0.267-2.445 0.623-0.362 0.267-0.362 0.623 0.181 1.067l-4.527 0.356c-0.815-0.623-0.905-1.245-0.181-1.69 0.724-0.534 2.083-0.89 4.074-1.157l-1.358-1.067 2.988-0.267 1.358 1.067c2.264-0.089 4.256-0.089 5.976 0.178s2.898 0.623 3.622 1.157 0.634 1.067-0.272 1.512c-0.905 0.445-2.535 0.89-4.889 1.335-1.449 0.267-2.354 0.534-2.807 0.801-0.453 0.266-0.543 0.533-0.181 0.8s1.087 0.534 2.083 0.623c0.995 0.089 2.173 0.089 3.621 0 1.268-0.089 2.264-0.267 2.898-0.534 0.633-0.267 0.633-0.623 0-1.067l4.436-0.356h0.091c0.905 0.711 0.905 1.245 0 1.779-0.996 0.445-2.535 0.89-4.709 1.068l1.268 0.8z" fill="#FFF178"/>
<path d="m531.99 873.83c0 3.47-7.243 6.227-16.207 6.227s-16.207-2.757-16.207-6.227 7.243-6.228 16.207-6.228c8.873 0 16.207 2.758 16.207 6.228z" fill="#FFD44F"/>
<path d="m671.25 891.18c16.478-1.423 26.891-5.338 26.8-9.608v-8.007h-78.772v8.007c0 1.067 0.725 2.135 2.083 3.203 6.972 5.248 29.336 8.184 49.889 6.405z" fill="#FBB54D"/>
<path d="m671.25 883.08c-20.553 1.78-42.917-1.067-49.888-6.405-6.972-5.338 4.074-11.032 24.718-12.811 20.643-1.78 42.917 1.067 49.889 6.405 6.971 5.338-4.075 11.121-24.719 12.811z" fill="#FFF178"/>
<path d="m668.62 881.13c-16.297 1.423-33.953-0.89-39.476-5.071s3.259-8.719 19.557-10.142c16.298-1.424 33.954 0.89 39.477 5.071-5.523-4.181-23.179-6.495-39.477-5.071-8.783 0.712-15.302 2.402-18.652 4.448 3.531-1.779 10.051-3.292 18.018-3.914 16.298-1.424 33.954 0.889 39.477 5.071 2.173 1.69 1.901 3.469 0 5.071-3.26 2.046-9.96 3.736-18.924 4.537z" fill="#FFD44F"/>
<path d="m687.55 876.5c1.902-1.601 2.173-3.381 0-5.071-5.523-4.182-23.179-6.495-39.476-5.071-7.878 0.712-14.397 2.135-18.018 3.914 3.35-2.046 9.959-3.647 18.652-4.448 16.297-1.423 33.953 0.89 39.476 5.071 2.445 1.957 2.083 3.915-0.634 5.605z" fill="#FBB54D"/>
<path d="m666.09 878.01-2.988 0.267-1.268-0.978c-2.354 0.089-4.436 0.089-6.157-0.089-1.72-0.178-2.988-0.623-3.712-1.157s-0.634-1.068 0.181-1.512c0.906-0.445 2.445-0.89 4.799-1.335 1.539-0.356 2.535-0.623 2.988-0.801 0.452-0.266 0.453-0.533 0.09-0.8-0.362-0.267-0.996-0.534-1.901-0.623s-1.901-0.089-3.26 0c-1.177 0.089-2.082 0.267-2.444 0.623-0.362 0.267-0.362 0.623 0.181 1.067l-4.527 0.356c-0.815-0.623-0.906-1.245-0.181-1.69 0.724-0.534 2.082-0.89 4.074-1.157l-1.358-1.067 2.988-0.267 1.358 1.067c2.264-0.089 4.255-0.089 5.976 0.178 1.72 0.267 2.897 0.623 3.621 1.157 0.725 0.534 0.634 1.067-0.271 1.512-0.906 0.445-2.535 0.89-4.889 1.335-1.449 0.267-2.355 0.534-2.807 0.801-0.453 0.266-0.544 0.533-0.181 0.8 0.362 0.267 1.086 0.534 2.082 0.623s2.173 0.089 3.622 0c1.267-0.089 2.263-0.267 2.897-0.534s0.634-0.623 0-1.067l4.437-0.356h0.09c0.906 0.711 0.906 1.245 0 1.779-0.996 0.445-2.535 0.89-4.708 1.068l1.268 0.8z" fill="#FFF178"/>
<path d="m677.4 873.56c0 3.47-7.243 6.228-16.207 6.228-8.963 0-16.207-2.758-16.207-6.228s7.244-6.228 16.207-6.228c8.964 0 16.207 2.758 16.207 6.228z" fill="#FFD44F"/>
<path d="m685.1 854.97-0.996 7.206c0 1.068-0.633 2.136-1.992 3.025-5.342 3.648-20.009 4.36-35.764 2.224-3.984-0.533-7.968-1.245-11.861-2.224-15.754-3.647-25.623-9.074-25.623-13.434l0.995-7.117c0.272 4.36 10.051 9.697 25.624 13.256 3.984 0.89 7.968 1.69 11.952 2.224 15.754 2.135 30.422 1.424 35.764-2.224 1.177-0.89 1.811-1.868 1.901-2.936z" fill="#FBB54D"/>
<path d="m648.79 842.07 3.531 0.534-3.531-0.534zm-0.543-0.089c-1.177-0.178-2.354-0.267-3.441-0.445 1.087 0.178 2.264 0.267 3.441 0.445zm-0.815-0.623c0.181 0 0.362 0.089 0.634 0.089 1.358 0.178 2.807 0.445 4.165 0.712 1.63 0.267 3.169 0.623 4.708 0.979 4.527 1.067 8.511 2.313 11.68 3.647 0.091 0 0.181 0.089 0.181 0.089 0.091 0 0.091 0 0.181 0.089 7.334 3.114 10.322 6.762 6.7 9.253-4.165 2.936-15.845 3.469-28.249 1.779-3.078-0.445-6.338-0.979-9.416-1.69-8.602-1.958-14.94-4.627-18.109-7.207l-0.09-0.089c-1.268-1.067-1.902-2.046-2.083-3.024v-0.089-0.178c0-0.89 0.543-1.602 1.539-2.313 3.894-2.669 14.397-3.381 25.896-2.047 0.543 0.089 1.177 0.178 1.72 0.178 0.181-0.178 0.362-0.178 0.543-0.178zm0.181-2.135c-15.754-2.135-30.513-1.423-35.764 2.224-1.449 0.979-1.992 2.047-1.992 3.203 0.272 4.359 10.05 9.697 25.624 13.256 3.983 0.89 7.967 1.69 11.951 2.224 15.755 2.135 30.422 1.424 35.764-2.224 1.268-0.89 1.902-1.868 1.992-2.936 0.272-4.359-9.688-9.875-25.623-13.612-4.075-0.889-8.058-1.601-11.952-2.135z" fill="#FFF178"/>
<path d="m668.8 846.78c0.09 0 0.09 0 0.181 0.089-0.091 0-0.091 0-0.181-0.089zm-0.181-0.089c0.09 0 0.181 0.089 0.181 0.089s-0.091 0-0.181-0.089zm-11.137 3.826-4.346-0.979c0.452-0.356 0.543-0.712 0.181-1.067-0.362-0.356-1.177-0.712-2.354-0.979-0.543-0.089-1.087-0.178-1.539-0.267-0.544-0.089-1.087-0.089-1.54-0.089-0.815 0-1.448 0.178-1.811 0.445-0.362 0.267-0.362 0.534 0.091 0.801 0.453 0.355 1.358 0.711 2.807 1.245 2.263 0.801 3.803 1.424 4.527 2.046 0.815 0.534 0.905 1.068 0.181 1.602-0.634 0.534-1.901 0.712-3.531 0.712-0.996 0-2.173-0.089-3.441-0.267-0.815-0.089-1.63-0.267-2.444-0.445l-1.177 0.8-2.807-0.622 1.177-0.801c-2.083-0.534-3.531-1.157-4.527-1.779-0.996-0.623-0.996-1.246 0-1.78h0.09l4.256 0.979c-0.544 0.356-0.544 0.801 0 1.157 0.543 0.355 1.448 0.622 2.716 0.978 0.634 0.178 1.268 0.267 1.811 0.356s1.086 0.089 1.539 0.089c0.996 0 1.63-0.089 1.992-0.356s0.272-0.534-0.091-0.801c-0.452-0.355-1.358-0.711-2.716-1.245-2.263-0.801-3.803-1.424-4.618-2.046-0.814-0.534-0.905-1.068-0.181-1.602 0.634-0.445 1.811-0.711 3.441-0.711 1.087 0 2.264 0.089 3.531 0.266 0.725 0.089 1.358 0.178 2.173 0.356l1.358-0.889 2.898 0.622-1.358 0.89c1.901 0.534 3.259 1.157 3.983 1.69 0.634 0.534 0.544 1.068-0.271 1.691zm-9.236-8.541c-1.177-0.178-2.354-0.267-3.44-0.445-9.236-0.978-17.565-0.622-22.364 0.979-0.996 0.356-1.811 0.712-2.445 1.156-1.086 0.712-1.539 1.513-1.449 2.403 0 0.889 0.453 1.779 1.359 2.669l0.09 0.088c3.169 2.58 9.507 5.249 18.109 7.207 3.078 0.711 6.338 1.334 9.416 1.69 12.404 1.69 24.084 1.157 28.249-1.779 3.622-2.491 0.725-6.139-6.7-9.253 2.445 1.068 4.437 2.135 5.795 3.292-3.35-2.313-9.598-4.715-17.203-6.495-1.72-0.444-3.531-0.8-5.252-1.067l-3.531-0.534c-0.271 0.178-0.452 0.089-0.634 0.089zm8.693 1.157c4.527 1.067 8.511 2.313 11.68 3.647-3.169-1.334-7.153-2.669-11.68-3.647zm-4.709-0.979c1.63 0.267 3.169 0.623 4.709 0.979-1.54-0.356-3.169-0.712-4.709-0.979zm-7.062-1.068c-11.499-1.334-22.002-0.622-25.895 2.047 3.893-2.669 14.306-3.381 25.895-2.047zm2.897 0.356c1.359 0.178 2.807 0.445 4.165 0.712-1.448-0.267-2.806-0.534-4.165-0.712zm-0.633-0.089c0.181 0 0.362 0.089 0.633 0.089-0.181 0-0.452-0.089-0.633-0.089zc-0.182 0-0.363-0.089-0.544-0.089 0.181 0.089 0.362 0.089 0.544 0.089z" fill="#FFD44F"/>
<path d="m647.44 841.36c0.182 0 0.363 0.089 0.634 0.089 1.358 0.178 2.807 0.445 4.165 0.712 1.63 0.267 3.169 0.623 4.708 0.979 4.528 1.067 8.511 2.313 11.68 3.647 0.091 0 0.181 0.089 0.181 0.089 0.091 0 0.091 0 0.182 0.089 2.444 1.068 4.436 2.135 5.794 3.292-3.35-2.313-9.597-4.715-17.203-6.495-1.72-0.444-3.531-0.8-5.251-1.067l-3.531-0.534c-0.182 0-0.363-0.089-0.544-0.089-1.177-0.178-2.354-0.267-3.44-0.445-9.236-0.978-17.566-0.623-22.364 0.979-0.996 0.356-1.811 0.712-2.445 1.156-1.086 0.712-1.539 1.513-1.449 2.403 0 0.889 0.453 1.779 1.359 2.669-1.268-1.068-1.902-2.047-2.083-3.025v-0.089-0.178c0-0.89 0.543-1.602 1.539-2.313 3.894-2.669 14.397-3.381 25.895-2.047 0.544 0.089 1.177 0.178 1.721 0.178h0.452z" fill="#FBB54D"/>
<path d="m652.24 845.45 2.897 0.623-1.358 0.889c1.901 0.534 3.259 1.157 3.984 1.691 0.633 0.622 0.543 1.156-0.181 1.69l-4.346-0.979c0.452-0.355 0.543-0.711 0.181-1.067-0.363-0.356-1.177-0.712-2.354-0.979-0.544-0.089-1.087-0.178-1.54-0.267-0.543-0.089-1.086-0.089-1.539-0.089-0.815 0-1.449 0.178-1.811 0.445s-0.362 0.534 0.091 0.801c0.452 0.356 1.358 0.712 2.807 1.245 2.263 0.801 3.802 1.424 4.527 2.047 0.815 0.533 0.905 1.067 0.181 1.601-0.634 0.534-1.902 0.712-3.531 0.712-0.996 0-2.173-0.089-3.441-0.267-0.815-0.089-1.63-0.267-2.445-0.445l-1.177 0.801-2.806-0.623 1.177-0.801c-2.083-0.534-3.532-1.156-4.528-1.779s-0.996-1.246 0-1.779h0.091l4.255 0.978c-0.543 0.356-0.543 0.801 0 1.157 0.544 0.356 1.449 0.623 2.717 0.978 0.634 0.178 1.267 0.267 1.811 0.356 0.543 0.089 1.086 0.089 1.539 0.089 0.996 0 1.63-0.089 1.992-0.356s0.271-0.533-0.091-0.8c-0.452-0.356-1.358-0.712-2.716-1.246-2.264-0.801-3.803-1.423-4.618-2.046-0.815-0.534-0.905-1.068-0.181-1.601 0.634-0.445 1.811-0.712 3.441-0.712 1.086 0 2.263 0.089 3.531 0.267 0.724 0.089 1.358 0.178 2.173 0.356l1.268-0.89z" fill="#FFF178"/>
<path d="m514.52 872.14 0.996 7.207c0 1.067 0.633 2.135 1.992 3.024 5.342 3.648 20.009 4.36 35.764 2.225 3.984-0.534 7.968-1.246 11.861-2.225 15.754-3.647 25.623-9.074 25.623-13.433l-0.996-7.118c-0.271 4.36-10.05 9.698-25.623 13.256-3.984 0.89-7.968 1.691-11.952 2.224-15.754 2.136-30.422 1.424-35.764-2.224-1.177-0.889-1.811-1.868-1.901-2.936z" fill="#FBB54D"/>
<path d="m550.74 859.24c-1.177 0.177-2.354 0.355-3.531 0.533 1.177-0.178 2.354-0.356 3.531-0.533zm0.634-0.089c1.177-0.178 2.354-0.267 3.44-0.445-1.177 0.178-2.263 0.356-3.44 0.445zm0.724-0.534c0.181 0 0.362-0.089 0.543-0.089 0.544-0.089 1.177-0.178 1.721-0.178 11.499-1.335 22.001-0.623 25.895 2.046 0.996 0.712 1.539 1.513 1.539 2.313v0.178 0.089c-0.091 0.979-0.815 2.046-2.082 3.025l-0.091 0.089c-3.169 2.58-9.507 5.249-18.109 7.206-3.078 0.712-6.338 1.335-9.416 1.691-12.404 1.69-24.084 1.156-28.249-1.78-3.622-2.491-0.725-6.138 6.7-9.252 0.09 0 0.09 0 0.181-0.089 0.091 0 0.181-0.089 0.181-0.089 3.169-1.335 7.153-2.58 11.68-3.648 1.539-0.356 3.169-0.712 4.708-0.978 1.358-0.267 2.807-0.445 4.165-0.712 0.272 0.178 0.453 0.178 0.634 0.178zm-0.091-2.224c-3.893 0.533-7.967 1.245-11.861 2.224-15.935 3.647-25.895 9.163-25.623 13.612 0.09 1.067 0.724 2.046 1.992 2.935 5.342 3.648 20.01 4.36 35.764 2.225 3.984-0.534 7.968-1.246 11.952-2.225 15.483-3.558 25.352-8.896 25.623-13.256 0.091-1.156-0.543-2.224-1.992-3.202-5.432-3.737-20.1-4.449-35.855-2.313z" fill="#FFF178"/>
<path d="m530.72 864.04c-0.091 0-0.091 0-0.181 0.089 0.09-0.089 0.181-0.089 0.181-0.089zm0.181-0.089c-0.09 0-0.181 0.089-0.181 0.089 0.09 0 0.181-0.089 0.181-0.089zm11.137 3.736c-0.815-0.534-0.815-1.156-0.181-1.69 0.633-0.623 1.992-1.157 3.984-1.69l-1.359-0.89 2.898-0.623 1.358 0.89c0.724-0.178 1.449-0.267 2.173-0.356 1.268-0.178 2.535-0.267 3.531-0.267 1.63 0 2.807 0.267 3.441 0.712 0.724 0.534 0.634 1.067-0.181 1.601-0.906 0.534-2.445 1.246-4.618 2.046-1.358 0.534-2.264 0.89-2.716 1.246-0.453 0.267-0.453 0.534-0.091 0.8 0.362 0.267 0.996 0.356 1.992 0.356 0.453 0 0.996 0 1.539-0.089 0.544-0.089 1.177-0.178 1.811-0.355 1.268-0.267 2.173-0.623 2.716-0.979 0.544-0.356 0.544-0.801 0-1.157l4.256-0.978h0.09c0.906 0.534 0.906 1.156 0 1.779-0.905 0.623-2.444 1.246-4.527 1.779l1.177 0.801-2.806 0.623-1.177-0.801c-0.906 0.178-1.721 0.267-2.445 0.445-1.268 0.178-2.354 0.267-3.441 0.267-1.629 0-2.897-0.267-3.531-0.712-0.724-0.534-0.634-0.979 0.181-1.601 0.815-0.534 2.354-1.246 4.527-2.046 1.449-0.534 2.445-0.89 2.807-1.246 0.453-0.267 0.453-0.534 0.091-0.801s-0.996-0.356-1.811-0.444c-0.453 0-0.996-1e-3 -1.539 0.088-0.453 0.089-0.996 0.178-1.54 0.267-1.177 0.267-1.901 0.623-2.354 0.979-0.362 0.356-0.271 0.712 0.181 1.068l-4.436 0.978zm9.326-8.54c-0.181 0-0.363 0.088-0.544 0.088l-3.531 0.534c-1.72 0.356-3.531 0.623-5.251 1.068-7.606 1.779-13.763 4.181-17.203 6.494 1.358-1.067 3.35-2.224 5.794-3.291-7.334 3.113-10.321 6.761-6.7 9.252 4.165 2.936 15.845 3.47 28.25 1.779 3.078-0.445 6.338-0.978 9.416-1.69 8.602-1.957 14.939-4.626 18.108-7.206l0.091-0.089c0.815-0.89 1.268-1.779 1.358-2.669 0-0.89-0.453-1.691-1.449-2.402-0.633-0.445-1.448-0.89-2.444-1.157-4.799-1.601-13.129-1.957-22.364-0.978-1.268 0-2.354 0.178-3.531 0.267zm-8.783 1.156c-4.527 1.068-8.511 2.313-11.68 3.648 3.169-1.335 7.153-2.58 11.68-3.648zm4.799-0.979c-1.63 0.267-3.169 0.623-4.708 0.979 1.539-0.356 3.078-0.712 4.708-0.979zm7.062-1.067c11.499-1.335 22.002-0.623 25.895 2.046-3.893-2.669-14.396-3.381-25.895-2.046zm-2.897 0.356c-1.358 0.178-2.807 0.445-4.165 0.711 1.358-0.266 2.716-0.444 4.165-0.711zm0.543 0c-0.181 0-0.362 0.089-0.634 0.089 0.272-0.089 0.453-0.089 0.634-0.089zc0.181 0 0.362-0.089 0.543-0.089-0.09 0-0.362 0-0.543 0.089z" fill="#FFD44F"/>
<path d="m552.09 858.62c-0.181 0-0.362 0.089-0.634 0.089-1.358 0.178-2.806 0.445-4.164 0.712-1.63 0.266-3.169 0.622-4.709 0.978-4.527 1.068-8.511 2.313-11.68 3.648-0.09 0-0.181 0.089-0.181 0.089-0.09 0-0.09 0-0.181 0.089-2.445 1.067-4.436 2.135-5.795 3.291 3.35-2.313 9.598-4.715 17.204-6.494 1.72-0.445 3.531-0.801 5.251-1.068 1.177-0.178 2.354-0.356 3.531-0.533 0.181 0 0.362-0.089 0.543-0.089 1.177-0.178 2.355-0.267 3.441-0.445 9.235-0.979 17.565-0.623 22.364 0.978 0.996 0.356 1.811 0.712 2.445 1.157 1.086 0.712 1.539 1.512 1.448 2.402 0 0.89-0.452 1.779-1.358 2.669 1.268-1.068 1.902-2.046 2.083-3.025v-0.089-0.178c0-0.889-0.544-1.601-1.539-2.313-3.894-2.669-14.397-3.381-25.896-2.046-0.543 0.089-1.177 0.178-1.72 0.178 0-0.089-0.272-0.089-0.453 0z" fill="#FBB54D"/>
<path d="m547.3 862.71-2.897 0.623 1.358 0.89c-1.902 0.533-3.26 1.156-3.984 1.69-0.634 0.623-0.543 1.157 0.181 1.69l4.346-0.978c-0.453-0.356-0.543-0.712-0.181-1.068s1.177-0.712 2.354-0.979c0.543-0.088 1.087-0.177 1.539-0.266 0.544-0.089 1.087-0.089 1.54-0.089 0.814 0 1.448 0.178 1.81 0.444 0.363 0.267 0.363 0.534-0.09 0.801-0.453 0.356-1.358 0.712-2.807 1.246-2.263 0.8-3.803 1.423-4.527 2.046-0.815 0.534-0.905 1.067-0.181 1.601 0.634 0.534 1.901 0.712 3.531 0.712 0.996 0 2.173-0.089 3.441-0.267 0.815-0.089 1.629-0.267 2.444-0.445l1.177 0.801 2.807-0.623-1.177-0.801c2.083-0.533 3.531-1.156 4.527-1.779s0.996-1.245 0-1.779h-0.09l-4.256 0.978c0.543 0.356 0.543 0.801 0 1.157s-1.448 0.623-2.716 0.979c-0.634 0.178-1.268 0.267-1.811 0.355-0.543 0.089-1.086 0.089-1.539 0.089-0.996 0-1.63-0.088-1.992-0.355s-0.272-0.534 0.09-0.801c0.453-0.356 1.359-0.712 2.717-1.246 2.263-0.8 3.803-1.423 4.617-2.046 0.815-0.534 0.906-1.067 0.181-1.601-0.633-0.445-1.81-0.712-3.44-0.712-1.087 0-2.264 0.089-3.531 0.267-0.725 0.089-1.358 0.178-2.173 0.356l-1.268-0.89z" fill="#FFF178"/>
<path d="m659.75 866.44-0.996 7.206c0 1.068-0.634 2.135-1.992 3.025-5.342 3.647-20.01 4.359-35.764 2.224-3.984-0.534-7.968-1.246-11.861-2.224-15.755-3.648-25.624-9.075-25.624-13.434l0.996-7.117c0.272 4.359 10.05 9.697 25.624 13.256 3.984 0.889 7.967 1.69 11.951 2.224 15.755 2.135 30.423 1.423 35.765-2.224 1.177-0.89 1.811-1.869 1.901-2.936z" fill="#FBB54D"/>
<path d="m623.53 853.54 3.531 0.534-3.531-0.534zm-0.634 0c-1.177-0.178-2.354-0.267-3.441-0.445 1.177 0.089 2.354 0.267 3.441 0.445zm-0.725-0.623c0.182 0 0.363 0.089 0.634 0.089 1.358 0.178 2.807 0.445 4.165 0.712 1.63 0.267 3.169 0.622 4.708 0.978 4.528 1.068 8.511 2.313 11.68 3.648 0.091 0 0.182 0.089 0.182 0.089 0.09 0 0.09 0 0.181 0.089 7.334 3.114 10.321 6.761 6.7 9.252-4.165 2.936-15.845 3.47-28.25 1.78-3.078-0.445-6.338-0.979-9.416-1.691-8.602-1.957-14.94-4.626-18.109-7.206l-0.09-0.089c-1.268-1.068-1.901-2.046-2.083-3.025v-0.089-0.178c0-0.889 0.544-1.601 1.54-2.313 3.893-2.669 14.396-3.38 25.895-2.046 0.543 0.089 1.177 0.178 1.72 0.178 0.181-0.267 0.362-0.267 0.543-0.178zm0.091-2.224c-15.754-2.135-30.513-1.424-35.764 2.224-1.449 0.979-1.992 2.046-1.992 3.203 0.271 4.359 10.05 9.697 25.623 13.256 3.984 0.889 7.968 1.69 11.952 2.224 15.754 2.135 30.422 1.423 35.764-2.224 1.268-0.89 1.902-1.869 1.992-2.936 0.272-4.36-9.688-9.875-25.623-13.612-3.984-0.801-7.968-1.601-11.952-2.135z" fill="#FFF178"/>
<path d="m643.54 858.35c0.09 0 0.09 0 0.181 0.089-0.091-0.089-0.181-0.089-0.181-0.089zm-0.181-0.089c0.09 0 0.181 0.089 0.181 0.089-0.091 0-0.181-0.089-0.181-0.089zm-11.137 3.736-4.346-0.978c0.453-0.356 0.543-0.712 0.181-1.068s-1.177-0.711-2.354-0.978c-0.543-0.089-1.087-0.178-1.539-0.267-0.544-0.089-1.087-0.089-1.54-0.089-0.814 0-1.448 0.178-1.81 0.445-0.363 0.266-0.363 0.533 0.09 0.8 0.453 0.356 1.358 0.712 2.807 1.246 2.264 0.8 3.803 1.423 4.527 2.046 0.815 0.534 0.906 1.068 0.181 1.601-0.634 0.534-1.901 0.712-3.531 0.712-0.996 0-2.173-0.089-3.441-0.267-0.814-0.089-1.629-0.267-2.444-0.445l-1.177 0.801-2.807-0.623 1.177-0.8c-2.083-0.534-3.531-1.157-4.527-1.78-0.996-0.622-0.996-1.245 0-1.779h0.09l4.256 0.979c-0.543 0.355-0.543 0.8 0 1.156s1.449 0.623 2.716 0.979c0.634 0.178 1.268 0.267 1.811 0.356s1.086 0.089 1.539 0.089c0.996 0 1.63-0.089 1.992-0.356s0.272-0.534-0.09-0.801c-0.453-0.356-1.359-0.712-2.717-1.245-2.263-0.801-3.802-1.424-4.617-2.047-0.815-0.533-0.906-1.067-0.181-1.601 0.633-0.445 1.81-0.712 3.44-0.712 1.087 0 2.264 0.089 3.531 0.267 0.725 0.089 1.359 0.178 2.173 0.356l1.359-0.89 2.897 0.623-1.358 0.89c1.901 0.534 3.259 1.156 3.984 1.69 0.543 0.534 0.543 1.157-0.272 1.69zm-9.326-8.451c-1.177-0.178-2.354-0.267-3.441-0.445-9.235-0.979-17.565-0.623-22.364 0.979-0.995 0.355-1.81 0.711-2.444 1.156-1.087 0.712-1.539 1.512-1.449 2.402 0 0.89 0.453 1.779 1.358 2.669l0.091 0.089c3.169 2.58 9.507 5.249 18.108 7.206 3.079 0.712 6.338 1.335 9.417 1.691 12.404 1.69 24.084 1.156 28.249-1.78 3.622-2.491 0.724-6.138-6.7-9.252 2.445 1.067 4.436 2.135 5.795 3.292-3.35-2.313-9.598-4.716-17.203-6.495-1.721-0.445-3.532-0.801-5.252-1.067l-3.531-0.534c-0.181 0.089-0.362 0.089-0.634 0.089zm8.783 1.067c4.527 1.068 8.511 2.313 11.68 3.648-3.169-1.335-7.153-2.58-11.68-3.648zm-4.799-0.978c1.63 0.267 3.169 0.622 4.708 0.978-1.539-0.356-3.078-0.711-4.708-0.978zm-7.062-1.068c-11.499-1.334-22.002-0.623-25.896 2.046 3.984-2.669 14.397-3.38 25.896-2.046zm2.897 0.445c1.358 0.178 2.807 0.445 4.165 0.712-1.358-0.356-2.716-0.534-4.165-0.712zm-0.543-0.089c0.181 0 0.362 0.089 0.634 0.089-0.272-0.089-0.453-0.089-0.634-0.089zc-0.181 0-0.362-0.089-0.544-0.089 0.182 0 0.363 0 0.544 0.089z" fill="#FFD44F"/>
<path d="m622.17 852.92c0.181 0 0.362 0.089 0.634 0.089 1.358 0.178 2.806 0.445 4.165 0.712 1.629 0.266 3.169 0.622 4.708 0.978 4.527 1.068 8.511 2.313 11.68 3.648 0.09 0 0.181 0.089 0.181 0.089 0.09 0 0.09 0 0.181 0.089 2.445 1.067 4.437 2.135 5.795 3.291-3.35-2.313-9.598-4.715-17.203-6.494-1.721-0.445-3.532-0.801-5.252-1.068-1.177-0.178-2.354-0.355-3.531-0.533-0.181 0-0.362-0.089-0.543-0.089-1.177-0.178-2.354-0.267-3.441-0.445-9.235-0.979-17.565-0.623-22.364 0.978-0.996 0.356-1.811 0.712-2.445 1.157-1.086 0.712-1.539 1.512-1.448 2.402 0 0.89 0.452 1.779 1.358 2.669-1.268-1.068-1.902-2.046-2.083-3.025v-0.089-0.178c0-0.889 0.544-1.601 1.54-2.313 3.893-2.669 14.396-3.38 25.895-2.046 0.543 0.089 1.177 0.178 1.72 0.178 0.091-0.089 0.272-0.089 0.453 0z" fill="#FBB54D"/>
<path d="m626.97 857.01 2.897 0.623-1.358 0.89c1.901 0.533 3.26 1.156 3.984 1.69 0.634 0.623 0.543 1.157-0.181 1.69l-4.346-0.978c0.453-0.356 0.543-0.712 0.181-1.068s-1.177-0.712-2.354-0.978c-0.543-0.089-1.087-0.178-1.539-0.267-0.544-0.089-1.087-0.089-1.54-0.089-0.815 0-1.448 0.178-1.81 0.445-0.363 0.266-0.363 0.533 0.09 0.8 0.453 0.356 1.358 0.712 2.807 1.246 2.263 0.8 3.803 1.423 4.527 2.046 0.815 0.534 0.905 1.068 0.181 1.601-0.634 0.534-1.901 0.712-3.531 0.712-0.996 0-2.173-0.089-3.441-0.267-0.815-0.089-1.629-0.267-2.444-0.445l-1.177 0.801-2.807-0.623 1.177-0.8c-2.083-0.534-3.531-1.157-4.527-1.78s-0.996-1.245 0-1.779h0.09l4.256 0.979c-0.543 0.355-0.543 0.8 0 1.156s1.448 0.623 2.716 0.979c0.634 0.178 1.268 0.267 1.811 0.356 0.543 0.088 1.086 0.089 1.539 0.089 0.996 0 1.63-0.089 1.992-0.356s0.272-0.534-0.09-0.801c-0.453-0.356-1.359-0.712-2.717-1.246-2.263-0.8-3.803-1.423-4.617-2.046-0.815-0.534-0.906-1.067-0.182-1.601 0.634-0.445 1.811-0.712 3.441-0.712 1.087 0 2.264 0.089 3.531 0.267 0.725 0.089 1.358 0.178 2.173 0.356l1.268-0.89z" fill="#FFF178"/>
<path d="m663.86 470.89c11.503-4.682 16.966-17.641 12.201-28.944-4.765-11.304-17.954-16.671-29.457-11.989-11.504 4.682-16.967 17.641-12.202 28.944s17.954 16.671 29.458 11.989z" fill="#FFD54F"/>
<path d="m597.04 400.98c11.504-4.682 16.967-17.641 12.202-28.944-4.766-11.304-17.954-16.671-29.458-11.989s-16.966 17.641-12.201 28.944 17.953 16.671 29.457 11.989z" fill="#FFD54F"/>
<path d="m548.35 477.23c2.861-11.907-4.643-23.838-16.76-26.65-12.118-2.811-24.261 4.562-27.122 16.468-2.861 11.907 4.642 23.838 16.76 26.65 12.118 2.811 24.261-4.562 27.122-16.468z" fill="#FFD54F"/>
<path d="m422.8 554.09c12.451 0 22.545-9.918 22.545-22.152s-10.094-22.152-22.545-22.152c-12.452 0-22.545 9.918-22.545 22.152s10.093 22.152 22.545 22.152z" fill="#FFD54F"/>
<path d="m444.8 661.38c12.451 0 22.545-9.918 22.545-22.153 0-12.234-10.094-22.152-22.545-22.152s-22.545 9.918-22.545 22.152c0 12.235 10.094 22.153 22.545 22.153z" fill="#FFD54F"/>
<path d="m662.19 571.35c12.451 0 22.545-9.918 22.545-22.153 0-12.234-10.094-22.152-22.545-22.152-12.452 0-22.546 9.918-22.546 22.152 0 12.235 10.094 22.153 22.546 22.153z" fill="#FFD54F"/>
<path d="m772.11 549.64c12.452 0 22.545-9.918 22.545-22.152 0-12.235-10.093-22.153-22.545-22.153-12.451 0-22.545 9.918-22.545 22.153 0 12.234 10.094 22.152 22.545 22.152z" fill="#FFD54F"/>
<path d="m789.34 606.23c1.953-8.129-3.17-16.275-11.443-18.194-8.273-1.92-16.563 3.114-18.517 11.243-1.953 8.129 3.17 16.275 11.443 18.194 8.273 1.92 16.563-3.114 18.517-11.243z" fill="#FFD54F"/>
<path d="m501.33 560.58c7.392-3.009 10.902-11.336 7.84-18.599s-11.536-10.712-18.928-7.704c-7.392 3.009-10.902 11.336-7.841 18.599 3.062 7.263 11.537 10.712 18.929 7.704z" fill="#FFD54F"/>
<path d="m571.29 369.76c1.811-0.356 4.346-0.534 6.7-0.534 3.712 0 6.157 0.712 7.877 2.135 1.358 1.157 2.173 3.025 2.173 5.071 0 3.559-2.263 5.872-5.161 6.85v0.089c2.083 0.712 3.35 2.58 3.984 5.427 0.906 3.737 1.539 6.317 2.083 7.296h-3.622c-0.453-0.712-1.087-3.025-1.811-6.406-0.815-3.648-2.263-5.071-5.432-5.16h-3.351v11.566h-3.531v-26.334h0.091zm3.531 12.099h3.622c3.712 0 6.157-2.046 6.157-5.071 0-3.47-2.536-4.982-6.248-4.982-1.72 0-2.897 0.178-3.44 0.356v9.697h-0.091z" fill="#FFF278"/>
<path d="m592.93 369.66c1.72-0.267 3.893-0.534 6.7-0.534 3.441 0 5.976 0.801 7.605 2.224 1.449 1.246 2.355 3.203 2.355 5.605s-0.725 4.359-2.083 5.694c-1.811 1.957-4.889 2.936-8.33 2.936-1.086 0-1.992 0-2.807-0.267v10.676h-3.531v-26.334h0.091zm3.531 12.9c0.724 0.178 1.72 0.267 2.897 0.267 4.256 0 6.791-2.046 6.791-5.694 0-3.559-2.535-5.249-6.429-5.249-1.539 0-2.716 0.089-3.35 0.267v10.409h0.091z" fill="#FFF278"/>
<path d="m634.94 435.41c1.811-0.355 4.346-0.533 6.7-0.533 3.712 0 6.157 0.711 7.877 2.135 1.358 1.156 2.173 3.025 2.173 5.071 0 3.558-2.263 5.872-5.161 6.85v0.089c2.083 0.712 3.35 2.58 3.984 5.427 0.905 3.737 1.539 6.317 2.083 7.295h-3.622c-0.453-0.711-1.087-3.025-1.811-6.405-0.815-3.648-2.264-5.071-5.433-5.16h-3.35v11.565h-3.44v-26.334zm3.531 12.189h3.622c3.712 0 6.157-2.046 6.157-5.071 0-3.47-2.536-4.982-6.248-4.982-1.72 0-2.897 0.178-3.441 0.355v9.698h-0.09z" fill="#FFF278"/>
<path d="m656.67 435.41c1.72-0.266 3.893-0.533 6.7-0.533 3.441 0 5.976 0.8 7.606 2.224 1.448 1.245 2.354 3.203 2.354 5.605s-0.724 4.359-2.083 5.693c-1.81 1.958-4.889 2.936-8.329 2.936-1.087 0-1.992 0-2.807-0.267v10.676h-3.441v-26.334zm3.531 12.811c0.725 0.178 1.721 0.267 2.898 0.267 4.255 0 6.79-2.046 6.79-5.693 0-3.559-2.535-5.249-6.428-5.249-1.539 0-2.716 0.089-3.35 0.267v10.408h0.09z" fill="#FFF278"/>
<path d="m507.55 458.09c1.811-0.355 4.346-0.533 6.7-0.533 3.712 0 6.157 0.711 7.877 2.135 1.358 1.156 2.173 3.025 2.173 5.071 0 3.558-2.263 5.872-5.161 6.85v0.089c2.083 0.712 3.35 2.58 3.984 5.427 0.905 3.737 1.539 6.317 2.083 7.295h-3.622c-0.453-0.711-1.087-3.025-1.811-6.405-0.815-3.648-2.264-5.071-5.433-5.16h-3.35v11.565h-3.531v-26.334h0.091zm3.531 12.189h3.622c3.712 0 6.156-2.046 6.156-5.071 0-3.47-2.535-4.982-6.247-4.982-1.72 0-2.897 0.178-3.441 0.356v9.697h-0.09z" fill="#FFF278"/>
<path d="m529.27 458.09c1.72-0.266 3.893-0.533 6.7-0.533 3.441 0 5.976 0.8 7.606 2.224 1.448 1.245 2.354 3.203 2.354 5.605s-0.724 4.359-2.083 5.693c-1.81 1.958-4.889 2.936-8.33 2.936-1.086 0-1.991 0-2.806-0.267v10.676h-3.532v-26.334h0.091zm3.531 12.811c0.725 0.178 1.72 0.267 2.898 0.267 4.255 0 6.79-2.046 6.79-5.693 0-3.559-2.535-5.249-6.428-5.249-1.539 0-2.717 0.089-3.35 0.267v10.408h0.09z" fill="#FFF278"/>
<path d="m753.64 515.21c1.811-0.355 4.346-0.533 6.7-0.533 3.713 0 6.157 0.711 7.878 2.135 1.358 1.156 2.173 3.025 2.173 5.071 0 3.558-2.264 5.871-5.161 6.85v0.089c2.082 0.712 3.35 2.58 3.983 5.427 0.906 3.736 1.54 6.316 2.083 7.295h-3.622c-0.452-0.712-1.086-3.025-1.811-6.405-0.814-3.648-2.263-5.071-5.432-5.16h-3.26v11.565h-3.531v-26.334zm3.531 12.189h3.622c3.712 0 6.157-2.047 6.157-5.071 0-3.47-2.535-4.982-6.247-4.982-1.721 0-2.898 0.177-3.441 0.355v9.698h-0.091z" fill="#FFF278"/>
<path d="m775.28 515.12c1.72-0.266 3.893-0.533 6.7-0.533 3.441 0 5.976 0.8 7.606 2.224 1.448 1.245 2.354 3.203 2.354 5.605s-0.724 4.359-2.083 5.693c-1.81 1.958-4.889 2.936-8.33 2.936-1.086 0-1.992 0-2.806-0.267v10.676h-3.441v-26.334zm3.531 12.9c0.724 0.178 1.72 0.267 2.898 0.267 4.255 0 6.79-2.046 6.79-5.693 0-3.559-2.535-5.249-6.428-5.249-1.54 0-2.717 0.089-3.35 0.266v10.409h0.09z" fill="#FFF278"/>
<path d="m648.7 539.76c1.448-0.267 3.44-0.445 5.432-0.445 2.988 0 4.98 0.534 6.338 1.779 1.087 0.979 1.72 2.402 1.72 4.093 0 2.847-1.811 4.715-4.165 5.516v0.089c1.721 0.533 2.717 2.135 3.26 4.359 0.724 3.025 1.267 5.071 1.72 5.872h-2.897c-0.362-0.623-0.815-2.492-1.449-5.16-0.634-2.936-1.811-4.093-4.346-4.182h-2.626v9.342h-2.806v-21.263h-0.181zm2.897 9.786h2.897c2.988 0 4.98-1.601 4.98-4.092 0-2.758-2.082-4.004-5.07-4.004-1.358 0-2.354 0.089-2.807 0.267v7.829z" fill="#FFF278"/>
<path d="m666.18 539.76c1.358-0.267 3.169-0.445 5.433-0.445 2.806 0 4.798 0.623 6.156 1.779 1.177 0.979 1.902 2.58 1.902 4.538 0 1.957-0.543 3.469-1.72 4.626-1.54 1.601-3.894 2.402-6.701 2.402-0.815 0-1.629 0-2.263-0.178v8.63h-2.807v-21.352zm2.897 10.32c0.634 0.178 1.358 0.267 2.354 0.267 3.441 0 5.524-1.602 5.524-4.627 0-2.846-2.083-4.181-5.161-4.181-1.268 0-2.173 0.089-2.626 0.267v8.274h-0.091z" fill="#FFF278"/>
<path d="m485 539.68c1.086-0.178 2.535-0.356 3.984-0.356 2.263 0 3.712 0.445 4.708 1.334 0.815 0.712 1.267 1.78 1.267 3.025 0 2.135-1.358 3.47-3.078 4.093v0.089c1.268 0.444 1.992 1.512 2.354 3.202 0.543 2.225 0.906 3.737 1.268 4.36h-2.173c-0.272-0.445-0.634-1.78-1.087-3.826-0.453-2.224-1.358-3.025-3.259-3.114h-1.992v6.851h-2.083v-15.658h0.091zm2.082 7.206h2.173c2.264 0 3.622-1.246 3.622-3.025 0-2.046-1.539-2.936-3.712-2.936-0.996 0-1.721 0.089-2.083 0.178v5.783z" fill="#FFF278"/>
<path d="m497.86 539.59c0.996-0.178 2.354-0.267 3.984-0.267 2.082 0 3.531 0.445 4.527 1.334 0.906 0.712 1.449 1.869 1.449 3.292 0 1.424-0.453 2.58-1.268 3.381-1.086 1.156-2.897 1.779-4.98 1.779-0.633 0-1.177 0-1.72-0.178v6.406h-2.082v-15.747h0.09zm2.173 7.651c0.453 0.089 0.996 0.178 1.72 0.178 2.536 0 4.075-1.246 4.075-3.381s-1.539-3.114-3.803-3.114c-0.905 0-1.63 0.089-1.992 0.178v6.139z" fill="#FFF278"/>
<path d="m405.5 518.33c1.811-0.356 4.346-0.534 6.791-0.534 3.803 0 6.248 0.712 7.968 2.224 1.358 1.246 2.173 3.025 2.173 5.16 0 3.559-2.264 5.961-5.161 6.851v0.089c2.082 0.711 3.35 2.669 4.074 5.426 0.906 3.737 1.54 6.406 2.083 7.385h-3.622c-0.453-0.801-1.086-3.114-1.811-6.406-0.815-3.736-2.263-5.16-5.523-5.249h-3.35v11.655h-3.531v-26.601h-0.091zm3.532 12.277h3.621c3.803 0 6.157-2.046 6.157-5.16 0-3.469-2.535-4.982-6.338-5.071-1.72 0-2.897 0.178-3.531 0.356v9.875h0.091z" fill="#FFF278"/>
<path d="m427.42 518.23c1.72-0.267 3.984-0.534 6.791-0.534 3.531 0 6.066 0.801 7.696 2.225 1.539 1.245 2.445 3.202 2.445 5.604s-0.725 4.36-2.083 5.783c-1.901 1.957-4.889 2.936-8.42 2.936-1.087 0-2.083 0-2.807-0.267v10.943h-3.531v-26.69h-0.091zm3.531 13.078c0.815 0.178 1.721 0.267 2.898 0.267 4.255 0 6.881-2.046 6.881-5.783 0-3.558-2.535-5.249-6.519-5.249-1.539 0-2.716 0.089-3.35 0.267v10.498h0.09z" fill="#FFF278"/>
<path d="m429.95 627.04c1.539-0.267 3.712-0.445 5.795-0.445 3.259 0 5.342 0.623 6.791 1.868 1.177 1.068 1.81 2.58 1.81 4.36 0 3.024-1.992 5.071-4.436 5.871v0.089c1.811 0.623 2.897 2.224 3.44 4.627 0.725 3.202 1.359 5.426 1.811 6.316h-3.078c-0.362-0.623-0.906-2.669-1.539-5.516-0.725-3.203-1.992-4.359-4.709-4.448h-2.806v9.964h-3.079v-22.686zm3.079 10.498h3.078c3.26 0 5.342-1.78 5.342-4.36 0-3.024-2.173-4.27-5.433-4.359-1.448 0-2.535 0.178-2.987 0.267v8.452z" fill="#FFF278"/>
<path d="m448.69 626.95c1.448-0.267 3.35-0.445 5.794-0.445 2.988 0 5.161 0.712 6.61 1.957 1.268 1.068 2.082 2.758 2.082 4.804 0 2.047-0.633 3.737-1.81 4.893-1.63 1.691-4.256 2.491-7.153 2.491-0.906 0-1.721 0-2.445-0.177v9.252h-3.078v-22.775zm3.078 11.12c0.634 0.178 1.539 0.267 2.535 0.267 3.622 0 5.886-1.779 5.886-4.893 0-3.025-2.173-4.537-5.524-4.537-1.358 0-2.354 0.089-2.897 0.267v8.896z" fill="#FFF278"/>
<path d="m764.6 594.12c1.086-0.178 2.535-0.356 3.984-0.356 2.263 0 3.712 0.445 4.708 1.334 0.815 0.712 1.268 1.78 1.268 3.025 0 2.135-1.359 3.47-3.079 4.093v0.089c1.268 0.444 1.992 1.512 2.354 3.202 0.543 2.224 0.906 3.737 1.268 4.36h-2.173c-0.272-0.445-0.634-1.78-1.087-3.826-0.452-2.224-1.358-3.025-3.259-3.114h-1.992v6.851h-2.083v-15.658h0.091zm2.082 7.206h2.173c2.264 0 3.622-1.246 3.622-3.025 0-2.046-1.539-2.936-3.712-2.936-0.996 0-1.721 0.089-2.083 0.178v5.783z" fill="#FFF278"/>
<path d="m777.45 594.12c0.996-0.178 2.354-0.267 3.984-0.267 2.083 0 3.531 0.445 4.527 1.334 0.906 0.712 1.449 1.869 1.449 3.292 0 1.424-0.453 2.58-1.268 3.381-1.086 1.156-2.897 1.779-4.98 1.779-0.633 0-1.177 0-1.72-0.178v6.406h-2.082v-15.747h0.09zm2.083 7.651c0.452 0.089 0.996 0.178 1.72 0.178 2.535 0 4.074-1.246 4.074-3.381s-1.539-3.114-3.802-3.114c-0.906 0-1.63 0.089-1.992 0.178v6.139z" fill="#FFF278"/>
<path d="m622.36 867.87c8.951 0 16.207-2.788 16.207-6.227 0-3.44-7.256-6.228-16.207-6.228s-16.207 2.788-16.207 6.228c0 3.439 7.256 6.227 16.207 6.227z" fill="#FFD44F"/>
<path d="m662.92 849.45c0 3.47-7.244 6.228-16.207 6.228-8.964 0-16.207-2.758-16.207-6.228 0-3.469 7.243-6.227 16.207-6.227 8.963 0 16.207 2.758 16.207 6.227z" fill="#FFD44F"/>
<path d="m552.27 872.94c8.951 0 16.207-2.788 16.207-6.227 0-3.44-7.256-6.228-16.207-6.228s-16.207 2.788-16.207 6.228c0 3.439 7.256 6.227 16.207 6.227z" fill="#FFD44F"/>
</g>
<defs>
<clipPath id="a">
<rect width="1920" height="1080" fill="#fff"/>
</clipPath>
</defs>
</svg>
