<svg width="323" height="111" viewBox="0 0 323 111" fill="none" xmlns="http://www.w3.org/2000/svg">
<g clip-path="url(#clip0)">
<path d="M60.0312 62.2692C60.0312 62.1334 60.0312 61.9297 60.0312 61.7939L66.6183 58.0589L64.1736 48.8912L56.4999 49.095C55.2097 46.854 53.6478 44.8167 51.8143 43.0511L53.6478 35.717L45.5667 30.8955L40.2698 36.5319C39.9982 36.464 39.7265 36.3961 39.5228 36.3281C36.8744 35.5132 32.8678 35.5812 32.7998 35.5812C32.664 35.5812 28.997 28.994 28.997 28.994L19.6935 31.6425L19.8972 39.3161C17.7921 40.6064 15.8227 42.1004 14.125 43.866L6.72295 41.625L2.24098 50.2494L7.74158 55.4105C7.1304 57.5835 6.85877 59.8924 6.85877 62.2692C6.85877 62.5409 6.85877 62.8125 6.85877 63.0162L0 66.6154L2.58053 75.9189L10.39 75.6472C11.6124 77.7524 13.1743 79.7217 14.9399 81.4195L12.9026 88.8215L21.0517 93.7109L26.2127 87.8029C28.5216 88.4819 30.9663 88.8215 33.411 88.8215C33.5468 88.8215 33.6148 88.8215 33.7506 88.8215L37.5535 95.5444L46.7211 93.0318L46.4495 85.3581C48.6905 84.0679 50.7956 82.4381 52.5613 80.6045L60.0991 82.7776L64.5132 74.4249C64.5132 74.4249 60.6424 70.622 59.0805 69.0601C59.6917 66.887 60.0312 64.5781 60.0312 62.2692ZM50.6598 62.2692C50.6598 71.7764 42.9182 79.518 33.411 79.518C23.9038 79.518 16.1622 71.7764 16.1622 62.2692C16.1622 52.762 23.9038 45.0204 33.411 45.0204C42.9182 45.0204 50.6598 52.762 50.6598 62.2692Z" fill="#FFFF00"/>
<path d="M100.572 20.4375C100.504 20.3017 100.504 20.1659 100.437 20.098L104.375 15.616L100.165 9.43632L94.4606 11.5415C92.8987 10.1833 91.201 9.09678 89.3675 8.28187L88.96 2.23801L81.6259 0.744019L79.1132 6.31252C78.9095 6.31252 78.7058 6.31252 78.5021 6.38043C76.2611 6.44834 73.341 7.53488 73.2731 7.60279C73.2052 7.60279 68.7232 3.66409 68.7232 3.66409L62.4756 8.01024L64.6487 13.7146C63.3585 15.2085 62.3398 16.8384 61.5249 18.6719L55.3452 18.9435L54.1908 26.5493L59.6235 28.994C59.7593 30.7596 60.0988 32.5931 60.71 34.3588C60.7779 34.5625 60.8458 34.7662 60.9137 34.9699L56.7034 39.384L61.1175 45.5637L66.8897 43.3227C68.3837 44.613 70.0135 45.6316 71.7791 46.4465L72.1187 52.5583L79.4528 54.1202L81.7617 48.3479C83.6631 48.2121 85.5646 47.8726 87.466 47.1935C87.5339 47.1935 87.6697 47.1256 87.7376 47.1256L92.3554 51.2001L98.603 46.9219L96.4299 41.2854C97.7881 39.7236 98.9426 37.9579 99.7575 36.1244L105.937 35.7849L107.092 28.3828C107.092 28.3828 103.221 26.5493 101.591 25.7344C101.523 23.9688 101.184 22.2031 100.572 20.4375ZM93.5778 22.8822C96.0225 30.0126 92.2875 37.8221 85.1571 40.3347C78.0267 42.7794 70.2172 39.0445 67.7046 31.9141C65.2599 24.7837 68.9949 16.9742 76.1253 14.4616C83.2557 11.9489 91.1331 15.7518 93.5778 22.8822Z" fill="#FFFF00"/>
<path d="M130.656 47.3972C130.588 47.3293 130.588 47.2614 130.52 47.1256L132.829 43.3227L128.958 39.384L125.087 41.6929C123.797 40.9459 122.371 40.3347 120.945 39.9952L119.791 35.7169L114.222 35.5811L113.136 39.9952C113 40.0631 112.864 40.0631 112.66 40.131C111.03 40.4705 109.061 41.6929 108.993 41.6929C108.925 41.6929 105.122 39.4519 105.122 39.4519L101.116 43.4585L103.493 47.3293C102.746 48.6196 102.202 49.9777 101.863 51.3359L97.3808 52.3545L97.5845 58.0589L101.863 59.0775C102.202 60.3678 102.678 61.658 103.425 62.8804C103.493 63.0162 103.56 63.152 103.628 63.2878L101.184 67.0907L105.19 71.0973L109.129 68.6526C110.419 69.3996 111.71 69.9429 113.136 70.2824L114.222 74.6965L119.791 74.8323L120.741 70.3503C122.1 70.0108 123.458 69.4675 124.748 68.7884C124.816 68.7884 124.884 68.7205 124.952 68.6526L128.89 70.9615L132.829 67.0228L130.452 63.152C131.267 61.8617 131.81 60.4357 132.218 58.9417L136.7 57.8551L136.564 52.2866C136.564 52.2866 133.508 51.4717 132.218 51.1322C131.878 49.8419 131.335 48.5517 130.656 47.3972ZM125.902 50.1136C128.687 55.003 126.921 61.1827 122.1 63.9669C117.21 66.7512 111.03 64.9855 108.246 60.164C105.462 55.2746 107.228 49.0949 112.049 46.3107C116.938 43.5264 123.118 45.2241 125.902 50.1136Z" fill="#FFFF00"/>
</g>
<path d="M188.363 5.78V26H192.953V5.78H188.363ZM196.855 26H201.415V17.54C201.415 17.12 201.475 16.67 201.595 16.4C201.895 15.56 202.645 14.69 203.905 14.69C205.555 14.69 206.215 15.98 206.215 17.87V26H210.775V17.3C210.775 12.98 208.525 11 205.525 11C203.095 11 201.595 12.41 200.995 13.34H200.905L200.695 11.33H196.735C196.795 12.62 196.855 14.18 196.855 16.01V26ZM224.094 4.7V12.65H224.034C223.374 11.63 221.964 11 220.164 11C216.654 11 213.564 13.85 213.594 18.8C213.594 23.36 216.384 26.33 219.864 26.33C221.754 26.33 223.524 25.49 224.454 23.84H224.514L224.724 26H228.774C228.714 25.01 228.654 23.27 228.654 21.62V4.7H224.094ZM224.094 19.46C224.094 19.85 224.064 20.18 223.974 20.51C223.704 21.8 222.654 22.7 221.334 22.7C219.444 22.7 218.214 21.14 218.214 18.65C218.214 16.34 219.294 14.48 221.364 14.48C222.774 14.48 223.764 15.5 224.034 16.73C224.064 16.97 224.094 17.3 224.094 17.54V19.46ZM246.135 11.33H241.545V20.06C241.545 20.42 241.515 20.78 241.395 21.05C241.095 21.77 240.375 22.64 239.115 22.64C237.525 22.64 236.835 21.35 236.835 19.22V11.33H232.245V19.94C232.245 24.47 234.435 26.33 237.405 26.33C240.045 26.33 241.425 24.83 241.995 23.93H242.085L242.295 26H246.255C246.195 24.77 246.135 23.21 246.135 21.29V11.33ZM248.955 25.28C250.065 25.88 251.775 26.3 253.695 26.3C257.895 26.3 260.055 24.29 260.055 21.56C260.025 19.4 258.855 17.99 256.065 17.03C254.265 16.4 253.695 16.04 253.695 15.35C253.695 14.6 254.325 14.15 255.435 14.15C256.695 14.15 257.955 14.63 258.615 14.99L259.425 11.84C258.525 11.39 256.995 11 255.285 11C251.655 11 249.315 13.07 249.315 15.8C249.285 17.54 250.455 19.19 253.485 20.21C255.195 20.78 255.645 21.14 255.645 21.89C255.645 22.64 255.075 23.12 253.695 23.12C252.345 23.12 250.605 22.52 249.765 22.01L248.955 25.28ZM263.433 8.15V11.33H261.483V14.69H263.433V20.69C263.433 22.76 263.853 24.17 264.693 25.04C265.413 25.79 266.643 26.3 268.113 26.3C269.403 26.3 270.483 26.15 271.083 25.91L271.053 22.46C270.723 22.52 270.273 22.58 269.703 22.58C268.323 22.58 267.903 21.77 267.903 20V14.69H271.173V11.33H267.903V7.13L263.433 8.15ZM273.818 26H278.378V18.56C278.378 18.2 278.408 17.84 278.468 17.54C278.768 16.13 279.908 15.23 281.588 15.23C282.098 15.23 282.488 15.29 282.818 15.35V11.06C282.488 11 282.278 11 281.858 11C280.448 11 278.648 11.9 277.898 14.03H277.778L277.628 11.33H273.698C273.758 12.59 273.818 14 273.818 16.16V26ZM289.775 26V11.33H285.215V26H289.775ZM287.495 4.94C286.025 4.94 285.065 5.93 285.095 7.25C285.065 8.51 286.025 9.53 287.465 9.53C288.965 9.53 289.925 8.51 289.925 7.25C289.895 5.93 288.965 4.94 287.495 4.94Z" fill="white"/>
<path d="M184.41 80.27C182.79 82.61 181.02 86.57 180.99 92.39C180.99 98.18 182.79 102.17 184.41 104.48H187.59C185.91 101.69 184.56 97.7 184.56 92.42C184.56 87.05 185.88 83.03 187.59 80.27H184.41ZM203.714 101V97.25H196.364V97.19L198.164 95.69C200.984 93.17 203.354 90.56 203.354 87.29C203.354 83.75 200.924 81.17 196.514 81.17C193.874 81.17 191.594 82.07 190.124 83.18L191.414 86.45C192.434 85.67 193.904 84.83 195.584 84.83C197.834 84.83 198.794 86.09 198.794 87.68C198.734 89.96 196.664 92.15 192.404 95.96L189.884 98.24V101H203.714ZM213.455 101.33C217.985 101.33 220.955 98.96 220.955 95.42C220.955 92.9 219.275 91.28 217.385 90.56V90.47C219.305 89.51 220.205 87.86 220.205 86.18C220.205 83.81 218.315 81.17 213.755 81.17C209.855 81.17 206.885 83.36 206.885 86.66C206.885 88.37 207.815 89.96 209.705 90.92V91.01C207.575 91.94 206.225 93.56 206.225 95.9C206.225 98.54 208.505 101.33 213.455 101.33ZM213.635 98.18C211.925 98.18 210.845 96.86 210.875 95.45C210.875 94.04 211.745 92.96 213.245 92.54C215.045 93.02 216.305 94.04 216.305 95.75C216.305 97.13 215.255 98.18 213.635 98.18ZM213.545 84.26C215.225 84.26 215.915 85.46 215.915 86.66C215.915 87.89 214.985 88.85 213.935 89.15C212.375 88.67 211.175 87.83 211.175 86.51C211.175 85.28 211.985 84.26 213.545 84.26ZM224.995 104.3C226.435 101.96 227.785 98.81 228.775 95.75L224.125 96.05C223.705 98.78 222.895 101.9 221.965 104.57L224.995 104.3ZM237.888 101.33C242.418 101.33 245.388 98.96 245.388 95.42C245.388 92.9 243.708 91.28 241.818 90.56V90.47C243.738 89.51 244.638 87.86 244.638 86.18C244.638 83.81 242.748 81.17 238.188 81.17C234.288 81.17 231.318 83.36 231.318 86.66C231.318 88.37 232.248 89.96 234.138 90.92V91.01C232.008 91.94 230.658 93.56 230.658 95.9C230.658 98.54 232.938 101.33 237.888 101.33ZM238.068 98.18C236.358 98.18 235.278 96.86 235.308 95.45C235.308 94.04 236.178 92.96 237.678 92.54C239.478 93.02 240.738 94.04 240.738 95.75C240.738 97.13 239.688 98.18 238.068 98.18ZM237.978 84.26C239.658 84.26 240.348 85.46 240.348 86.66C240.348 87.89 239.418 88.85 238.368 89.15C236.808 88.67 235.608 87.83 235.608 86.51C235.608 85.28 236.418 84.26 237.978 84.26ZM259.989 101V96.35H262.329V92.93H259.989V81.5H254.409L247.029 93.38V96.35H255.669V101H259.989ZM251.289 92.93V92.87L253.899 88.61C254.559 87.38 255.069 86.24 255.699 84.98H255.819C255.729 86.24 255.669 87.44 255.669 88.61V92.93H251.289ZM269.249 81.17C265.919 81.17 263.789 83.81 263.789 87.29C263.789 90.95 266.129 93.17 269.099 93.17C271.919 93.17 274.499 91.04 274.499 86.96C274.499 83.63 272.609 81.17 269.249 81.17ZM269.159 83.66C270.569 83.66 271.109 85.19 271.109 87.17C271.109 89.36 270.479 90.68 269.189 90.68C267.869 90.68 267.179 89.21 267.179 87.17C267.179 85.22 267.809 83.66 269.159 83.66ZM271.769 101.33L282.989 81.17H280.529L269.339 101.33H271.769ZM283.289 89.27C279.959 89.27 277.829 91.91 277.829 95.39C277.859 99.05 280.199 101.27 283.139 101.27C285.959 101.27 288.539 99.14 288.539 95.06C288.539 91.73 286.649 89.27 283.289 89.27ZM283.229 91.76C284.639 91.76 285.149 93.29 285.149 95.27C285.149 97.46 284.519 98.78 283.229 98.78C281.909 98.78 281.219 97.31 281.249 95.27C281.249 93.32 281.849 91.76 283.229 91.76ZM293.606 104.48C295.196 102.14 296.996 98.21 297.026 92.36C297.026 86.51 295.196 82.58 293.606 80.27H290.426C292.106 83.06 293.456 87.05 293.456 92.36C293.456 97.67 292.076 101.72 290.426 104.48H293.606Z" fill="white"/>
<rect x="146.017" y="34.3271" width="176" height="35" fill="#FFFF00"/>
<path d="M160.205 59.9087C161.269 60.5807 163.257 61.1967 165.609 61.1967C170.229 61.1967 173.057 58.8447 173.057 55.6247C173.057 53.2447 171.293 51.5927 169.109 51.2007V51.1447C171.349 50.3607 172.441 48.8487 172.441 46.9167C172.441 44.4247 170.285 42.3807 166.393 42.3807C164.041 42.3807 161.857 43.0527 160.765 43.7527L161.633 46.8327C162.389 46.3847 163.957 45.7407 165.441 45.7407C167.233 45.7407 168.129 46.5527 168.129 47.6447C168.129 49.1847 166.309 49.7167 164.881 49.7447H163.229V52.7967H164.965C166.841 52.7967 168.633 53.6087 168.633 55.4007C168.633 56.7727 167.513 57.8367 165.301 57.8367C163.565 57.8367 161.829 57.1087 161.073 56.7167L160.205 59.9087ZM187.412 60.8887V56.5487H189.596V53.3567H187.412V42.6887H182.204L175.316 53.7767V56.5487H183.38V60.8887H187.412ZM179.292 53.3567V53.3007L181.728 49.3247C182.344 48.1767 182.82 47.1127 183.408 45.9367H183.52C183.436 47.1127 183.38 48.2327 183.38 49.3247V53.3567H179.292ZM194.095 61.1967C195.607 61.1967 196.615 60.1047 196.615 58.6207C196.615 57.0807 195.607 56.0167 194.123 56.0167C192.639 56.0167 191.603 57.1087 191.603 58.6207C191.603 60.1047 192.639 61.1967 194.095 61.1967ZM204.085 60.8887H208.201V42.6887H204.673L199.857 44.9287L200.557 48.1207L204.029 46.4687H204.085V60.8887ZM226.336 42.6887H216.312L215.108 52.2367C215.864 52.1247 216.564 52.0687 217.572 52.0687C221.212 52.0687 222.696 53.2167 222.696 55.0927C222.696 57.0247 220.82 57.8647 219.056 57.8647C217.404 57.8647 215.752 57.3607 214.94 56.9687L214.184 60.1607C215.192 60.6927 217.04 61.1967 219.252 61.1967C224.152 61.1967 227.064 58.2007 227.064 54.8127C227.064 52.6847 226.224 51.1727 224.852 50.2487C223.564 49.3247 221.8 48.9327 220.064 48.9327C219.616 48.9327 219.28 48.9327 218.888 48.9887L219.28 46.1887H226.336V42.6887ZM242.623 60.8887V57.3887H235.763V57.3327L237.443 55.9327C240.075 53.5807 242.287 51.1447 242.287 48.0927C242.287 44.7887 240.019 42.3807 235.903 42.3807C233.439 42.3807 231.311 43.2207 229.939 44.2567L231.143 47.3087C232.095 46.5807 233.467 45.7967 235.035 45.7967C237.135 45.7967 238.031 46.9727 238.031 48.4567C237.975 50.5847 236.043 52.6287 232.067 56.1847L229.715 58.3127V60.8887H242.623ZM267.342 50.0807H260.314V53.4127H263.226V57.3607C262.89 57.5287 262.106 57.6407 261.126 57.6407C257.626 57.6407 255.19 55.3447 255.19 51.4527C255.19 47.3647 257.878 45.3487 261.434 45.3487C263.506 45.3487 264.794 45.7127 265.83 46.1607L266.726 42.7447C265.802 42.2967 263.926 41.8207 261.49 41.8207C255.302 41.8207 250.738 45.4047 250.71 51.6767C250.682 54.4487 251.634 56.9127 253.37 58.5367C255.106 60.2167 257.598 61.0847 261.042 61.0847C263.534 61.0847 266.026 60.4687 267.342 60.0207V50.0807ZM278.392 60.8887L280.184 52.7687C280.632 50.8647 280.94 49.0727 281.276 46.9447H281.332C281.556 49.1007 281.864 50.8647 282.228 52.7687L283.824 60.8887H288.444L293.316 42.0167H288.976L287.436 49.7447C287.044 51.9847 286.624 54.1967 286.344 56.2967H286.288C286.008 54.1967 285.7 52.1807 285.28 49.9687L283.768 42.0167H279.232L277.636 49.7447C277.16 52.0687 276.712 54.3367 276.404 56.3807H276.348C276.04 54.4767 275.648 52.0407 275.228 49.8007L273.8 42.0167H269.236L273.716 60.8887H278.392ZM295.161 60.8887H299.417V52.7687C299.417 52.4607 299.445 52.0967 299.557 51.8167C299.865 51.0607 300.565 50.3327 301.685 50.3327C303.281 50.3327 303.897 51.5647 303.897 53.3567V60.8887H308.153V52.8807C308.153 48.7647 306.081 46.8887 303.365 46.8887C302.581 46.8887 301.769 47.0847 301.153 47.4207C300.481 47.7847 299.921 48.2327 299.473 48.8207H299.417V41.0087H295.161V60.8887Z" fill="#3E3E3E"/>
<defs>
<clipPath id="clip0">
<rect width="136.7" height="94.8683" fill="white" transform="translate(0 0.744019)"/>
</clipPath>
</defs>
</svg>
