<svg width="321" height="113" viewBox="0 0 321 113" fill="none" xmlns="http://www.w3.org/2000/svg">
<g clip-path="url(#clip0)">
<path d="M71.1 14.2C71.1 8.6 83.2 4 98.1 4C113 4 125.1 8.6 125.1 14.2C125.1 16.3 123.5 18.2 120.7 19.8C115.9 22.6 107.6 24.4 98.2 24.4C88.8 24.4 80.5 22.6 75.7 19.8C72.8 18.2 71.1 16.3 71.1 14.2ZM125.1 49.8V49.6L125.3 49.7L125.1 49.8ZM125.1 61.1C125.1 61.5 125 61.9 124.9 62.3C124.9 62.3 124.9 62.3 124.9 62.4C124.8 62.7 124.6 63 124.5 63.3C124.4 63.5 124.3 63.6 124.2 63.7C124 64 123.8 64.2 123.6 64.4C123.4 64.6 123.2 64.8 123 65C122.8 65.2 122.6 65.4 122.4 65.5C121.9 65.9 121.4 66.3 120.7 66.6C115.9 69.4 107.6 71.2 98.2 71.2C88.8 71.2 80.5 69.4 75.7 66.6L75.6 66.5C74.3 65.7 73.2 64.8 72.4 63.9C72.3 63.8 72.3 63.7 72.3 63.7C72 63.3 71.8 62.9 71.6 62.5C71.4 62 71.3 61.5 71.3 61C71.3 59.7 72 58.4 73.2 57.2C77.2 61 86.9 63.7 98.2 63.7C109.6 63.7 119.3 61 123.3 57.2C124.4 58.6 125.1 59.8 125.1 61.1ZM58.8 56C56.6 57.3 52.7 58.1 48.4 58.1C44.1 58.1 40.2 57.2 38 56C36.7 55.3 35.9 54.4 35.9 53.4C35.9 50.8 41.5 48.7 48.4 48.7C55.3 48.7 60.9 50.8 60.9 53.4C60.8 54.3 60.1 55.2 58.8 56ZM73.1 44.5C77.1 48.3 86.8 50.9 98.1 50.9C109.5 50.9 119.2 48.2 123.2 44.5C124.4 45.7 125.1 46.9 125.1 48.3C125.1 48.9 124.9 49.5 124.6 50.1C124.3 50.6 123.9 51.2 123.5 51.7C123.3 51.9 123.1 52.1 122.8 52.4C122.6 52.6 122.4 52.7 122.2 52.9C121.7 53.3 121.2 53.7 120.6 54C115.8 56.8 107.5 58.6 98.1 58.6C89.7 58.6 82.2 57.1 77.2 54.8C76.6 54.5 76.1 54.3 75.6 54C72.8 52.4 71.2 50.5 71.2 48.4C71.1 46.9 71.8 45.7 73.1 44.5ZM73.1 31.6C77.1 35.4 86.8 38 98.1 38C109.5 38 119.2 35.3 123.2 31.6C124.4 32.8 125.1 34 125.1 35.4C125.1 37.5 123.5 39.4 120.7 41C115.9 43.8 107.6 45.6 98.2 45.6C89.8 45.6 82.3 44.1 77.3 41.8C76.7 41.5 76.2 41.2 75.7 41C72.9 39.4 71.3 37.5 71.3 35.4C71.1 34 71.8 32.8 73.1 31.6ZM135.6 49.2C135.5 48 134.8 47 133.7 46.7L124.9 43.7L134.3 39.3C135.4 38.8 136 37.7 135.9 36.6C135.8 35.5 135.1 34.4 134 34.1L124 30.6C124.7 29.7 125 28.8 125 27.8V22.4C125 24.5 123.4 26.4 120.6 28C115.8 30.8 107.5 32.6 98.1 32.6C89.7 32.6 82.2 31.1 77.2 28.8C76.6 28.5 76.1 28.3 75.6 28C72.8 26.4 71.2 24.5 71.2 22.4C71.2 21.6 71.4 20.9 71.9 20.2L2.30002 52.5C1.30002 53 0.600016 54.1 0.700016 55.2C0.800016 56.4 1.50002 57.3 2.60002 57.7L11.4 60.7L2.00002 65.1C1.00002 65.6 0.300016 66.6 0.400016 67.8C0.400016 69 1.20002 70 2.30002 70.4L11.1 73.4L1.70002 77.7C0.700016 78.2 1.59293e-05 79.3 0.100016 80.4C0.200016 81.6 0.900016 82.6 2.00002 82.9L53.7 100.8C54 100.9 54.3 101 54.6 101C55 101 55.4 100.9 55.8 100.7L71.4 93.4C73 98.5 84.3 102.4 98.2 102.4C113.1 102.4 125.2 97.8 125.2 92.2V86.8C125.2 88.9 123.6 90.8 120.8 92.4C116 95.2 107.7 97 98.3 97C88.9 97 80.6 95.2 75.8 92.4C75.5 92.2 75.2 92 74.9 91.8C72.8 90.4 71.6 88.9 71.4 87.2C71.4 87.1 71.3 86.9 71.3 86.8V87.2L54.5 95L10.5 79.8L18.8 75.9L54 88.1C54.3 88.2 54.6 88.3 54.9 88.3C55.3 88.3 55.7 88.2 56.1 88L71.5 80.8C73.5 85.7 84.6 89.5 98.1 89.5C113 89.5 125.1 84.9 125.1 79.3V74C125.1 76.1 123.5 78 120.7 79.6C115.9 82.4 107.6 84.2 98.2 84.2C88.8 84.2 80.5 82.4 75.7 79.6C75.5 79.5 75.4 79.4 75.2 79.3C73.1 78 71.8 76.5 71.4 74.8C71.3 74.5 71.2 74.3 71.2 74V74.8L54.8 82.4L26.2 72.5L18.4 70L10.7 67.3L19.1 63.4L54.3 75.6C54.6 75.7 54.9 75.8 55.2 75.8C55.6 75.8 56 75.7 56.4 75.5L71.6 68.4C74 73.1 84.9 76.7 98.1 76.7C110.8 76.7 121.5 73.4 124.3 68.9L133.6 64.6C134.6 64.1 135.3 63.1 135.2 61.9C135.1 60.7 134.4 59.7 133.3 59.4L124.5 56.4L133.9 52C135.1 51.4 135.7 50.4 135.6 49.2Z" fill="#FFFF00"/>
</g>
<path d="M197.398 25.91C198.418 26.06 200.098 26.21 202.348 26.21C206.368 26.21 208.828 25.55 210.298 24.38C211.558 23.36 212.398 21.92 212.398 20.09C212.398 17.48 210.688 15.74 208.378 15.11V15.05C210.658 14.21 211.708 12.53 211.708 10.73C211.708 8.9 210.688 7.52 209.278 6.77C207.808 5.9 206.098 5.63 203.308 5.63C201.028 5.63 198.598 5.81 197.398 6.05V25.91ZM201.928 9.08C202.318 9.02 202.888 8.96 203.878 8.96C205.948 8.96 207.118 9.77 207.118 11.3C207.118 12.8 205.828 13.79 203.428 13.79H201.928V9.08ZM201.928 17.06H203.488C205.768 17.06 207.598 17.87 207.598 19.91C207.598 22.04 205.768 22.82 203.698 22.82C202.918 22.82 202.378 22.82 201.928 22.76V17.06ZM219.913 26V11.33H215.353V26H219.913ZM217.633 4.94C216.163 4.94 215.203 5.93 215.233 7.25C215.203 8.51 216.163 9.53 217.603 9.53C219.103 9.53 220.063 8.51 220.063 7.25C220.033 5.93 219.103 4.94 217.633 4.94ZM222.746 25.28C223.856 25.88 225.566 26.3 227.486 26.3C231.686 26.3 233.846 24.29 233.846 21.56C233.816 19.4 232.646 17.99 229.856 17.03C228.056 16.4 227.486 16.04 227.486 15.35C227.486 14.6 228.116 14.15 229.226 14.15C230.486 14.15 231.746 14.63 232.406 14.99L233.216 11.84C232.316 11.39 230.786 11 229.076 11C225.446 11 223.106 13.07 223.106 15.8C223.076 17.54 224.246 19.19 227.276 20.21C228.986 20.78 229.436 21.14 229.436 21.89C229.436 22.64 228.866 23.12 227.486 23.12C226.136 23.12 224.396 22.52 223.556 22.01L222.746 25.28ZM236.594 26H241.154V17.54C241.154 17.12 241.214 16.67 241.334 16.4C241.634 15.56 242.384 14.69 243.644 14.69C245.294 14.69 245.954 15.98 245.954 17.87V26H250.514V17.3C250.514 12.98 248.264 11 245.264 11C242.834 11 241.334 12.41 240.734 13.34H240.644L240.434 11.33H236.474C236.534 12.62 236.594 14.18 236.594 16.01V26ZM258.732 26V11.33H254.172V26H258.732ZM256.452 4.94C254.982 4.94 254.022 5.93 254.052 7.25C254.022 8.51 254.982 9.53 256.422 9.53C257.922 9.53 258.882 8.51 258.882 7.25C258.852 5.93 257.922 4.94 256.452 4.94ZM261.564 25.28C262.674 25.88 264.384 26.3 266.304 26.3C270.504 26.3 272.664 24.29 272.664 21.56C272.634 19.4 271.464 17.99 268.674 17.03C266.874 16.4 266.304 16.04 266.304 15.35C266.304 14.6 266.934 14.15 268.044 14.15C269.304 14.15 270.564 14.63 271.224 14.99L272.034 11.84C271.134 11.39 269.604 11 267.894 11C264.264 11 261.924 13.07 261.924 15.8C261.894 17.54 263.064 19.19 266.094 20.21C267.804 20.78 268.254 21.14 268.254 21.89C268.254 22.64 267.684 23.12 266.304 23.12C264.954 23.12 263.214 22.52 262.374 22.01L261.564 25.28Z" fill="white"/>
<path d="M183.41 82.27C181.79 84.61 180.02 88.57 179.99 94.39C179.99 100.18 181.79 104.17 183.41 106.48H186.59C184.91 103.69 183.56 99.7 183.56 94.42C183.56 89.05 184.88 85.03 186.59 82.27H183.41ZM194.704 103H199.114V83.5H195.334L190.174 85.9L190.924 89.32L194.644 87.55H194.704V103ZM217.975 83.23C217.525 83.2 216.985 83.2 216.145 83.26C213.085 83.41 210.565 84.37 208.615 86.14C206.515 88.09 205.165 91.15 205.165 94.81C205.165 99.46 207.715 103.33 212.905 103.33C217.135 103.33 220.105 100.15 220.105 96.28C220.105 92.23 217.345 89.92 214.075 89.92C212.245 89.92 210.895 90.49 209.935 91.48H209.845C210.355 89.2 212.155 87.13 216.205 86.8C216.925 86.74 217.465 86.71 217.975 86.74V83.23ZM212.845 99.97C210.775 99.97 209.785 98.11 209.695 96.04C209.695 95.5 209.755 95.14 209.875 94.9C210.325 93.91 211.345 93.16 212.575 93.16C214.525 93.16 215.485 94.72 215.485 96.52C215.485 98.5 214.465 99.97 212.845 99.97ZM223.995 106.3C225.435 103.96 226.785 100.81 227.775 97.75L223.125 98.05C222.705 100.78 221.895 103.9 220.965 106.57L223.995 106.3ZM231.398 103.27C231.908 103.3 232.688 103.33 233.468 103.27C236.498 103.15 239.048 102.22 240.908 100.54C243.038 98.59 244.328 95.62 244.328 91.57C244.328 87.01 241.958 83.17 236.948 83.17C232.658 83.17 229.598 86.38 229.598 90.19C229.598 93.97 232.388 96.28 235.688 96.28C237.458 96.28 238.718 95.77 239.588 94.87L239.678 94.9C239.318 96.37 238.478 97.63 237.218 98.5C236.168 99.22 234.758 99.61 233.378 99.7C232.478 99.76 231.968 99.76 231.398 99.7V103.27ZM236.828 86.5C238.898 86.5 239.678 88.54 239.678 90.61C239.678 91.18 239.588 91.48 239.438 91.75C239.018 92.44 238.148 93.04 236.918 93.04C235.058 93.04 234.158 91.6 234.158 89.92C234.128 87.88 235.268 86.5 236.828 86.5ZM259.619 83.5H248.879L247.589 93.73C248.399 93.61 249.149 93.55 250.229 93.55C254.129 93.55 255.719 94.78 255.719 96.79C255.719 98.86 253.709 99.76 251.819 99.76C250.049 99.76 248.279 99.22 247.409 98.8L246.599 102.22C247.679 102.79 249.659 103.33 252.029 103.33C257.279 103.33 260.399 100.12 260.399 96.49C260.399 94.21 259.499 92.59 258.029 91.6C256.649 90.61 254.759 90.19 252.899 90.19C252.419 90.19 252.059 90.19 251.639 90.25L252.059 87.25H259.619V83.5ZM268.249 83.17C264.919 83.17 262.789 85.81 262.789 89.29C262.789 92.95 265.129 95.17 268.099 95.17C270.919 95.17 273.499 93.04 273.499 88.96C273.499 85.63 271.609 83.17 268.249 83.17ZM268.159 85.66C269.569 85.66 270.109 87.19 270.109 89.17C270.109 91.36 269.479 92.68 268.189 92.68C266.869 92.68 266.179 91.21 266.179 89.17C266.179 87.22 266.809 85.66 268.159 85.66ZM270.769 103.33L281.989 83.17H279.529L268.339 103.33H270.769ZM282.289 91.27C278.959 91.27 276.829 93.91 276.829 97.39C276.859 101.05 279.199 103.27 282.139 103.27C284.959 103.27 287.539 101.14 287.539 97.06C287.539 93.73 285.649 91.27 282.289 91.27ZM282.229 93.76C283.639 93.76 284.149 95.29 284.149 97.27C284.149 99.46 283.519 100.78 282.229 100.78C280.909 100.78 280.219 99.31 280.249 97.27C280.249 95.32 280.849 93.76 282.229 93.76ZM292.606 106.48C294.196 104.14 295.996 100.21 296.026 94.36C296.026 88.51 294.196 84.58 292.606 82.27H289.426C291.106 85.06 292.456 89.05 292.456 94.36C292.456 99.67 291.076 103.72 289.426 106.48H292.606Z" fill="white"/>
<rect x="145" y="39" width="176" height="35" fill="#FFFF00"/>
<path d="M172.225 64.0663V60.5663H165.365V60.5103L167.045 59.1103C169.677 56.7583 171.889 54.3223 171.889 51.2703C171.889 47.9663 169.621 45.5583 165.505 45.5583C163.041 45.5583 160.913 46.3983 159.541 47.4343L160.745 50.4863C161.697 49.7583 163.069 48.9743 164.637 48.9743C166.737 48.9743 167.633 50.1503 167.633 51.6343C167.577 53.7623 165.645 55.8063 161.669 59.3623L159.317 61.4903V64.0663H172.225ZM181.512 45.5583C176.808 45.5583 174.568 49.7303 174.568 54.9943C174.596 60.1463 176.668 64.3743 181.372 64.3743C186.02 64.3743 188.288 60.5103 188.288 54.8823C188.288 49.8983 186.384 45.5583 181.512 45.5583ZM181.456 48.7783C183.164 48.7783 184.032 50.9063 184.032 54.9383C184.032 59.0823 183.136 61.1543 181.484 61.1543C179.832 61.1543 178.824 59.1663 178.852 54.9943C178.824 50.7663 179.888 48.7783 181.456 48.7783ZM193.095 64.3743C194.607 64.3743 195.615 63.2823 195.615 61.7983C195.615 60.2583 194.607 59.1943 193.123 59.1943C191.639 59.1943 190.603 60.2863 190.603 61.7983C190.603 63.2823 191.639 64.3743 193.095 64.3743ZM204.317 45.5583C199.613 45.5583 197.373 49.7303 197.373 54.9943C197.401 60.1463 199.473 64.3743 204.177 64.3743C208.825 64.3743 211.093 60.5103 211.093 54.8823C211.093 49.8983 209.189 45.5583 204.317 45.5583ZM204.261 48.7783C205.969 48.7783 206.837 50.9063 206.837 54.9383C206.837 59.0823 205.941 61.1543 204.289 61.1543C202.637 61.1543 201.629 59.1663 201.657 54.9943C201.629 50.7663 202.693 48.7783 204.261 48.7783ZM224.804 45.6143C224.384 45.5863 223.88 45.5863 223.096 45.6423C220.24 45.7823 217.888 46.6783 216.068 48.3303C214.108 50.1503 212.848 53.0063 212.848 56.4223C212.848 60.7623 215.228 64.3743 220.072 64.3743C224.02 64.3743 226.792 61.4063 226.792 57.7943C226.792 54.0143 224.216 51.8583 221.164 51.8583C219.456 51.8583 218.196 52.3903 217.3 53.3143H217.216C217.692 51.1863 219.372 49.2543 223.152 48.9463C223.824 48.8903 224.328 48.8623 224.804 48.8903V45.6143ZM220.016 61.2383C218.084 61.2383 217.16 59.5023 217.076 57.5703C217.076 57.0663 217.132 56.7303 217.244 56.5063C217.664 55.5823 218.616 54.8823 219.764 54.8823C221.584 54.8823 222.48 56.3383 222.48 58.0183C222.48 59.8663 221.528 61.2383 220.016 61.2383ZM230.059 64.3183C230.535 64.3463 231.263 64.3743 231.991 64.3183C234.819 64.2063 237.199 63.3383 238.935 61.7703C240.923 59.9503 242.127 57.1783 242.127 53.3983C242.127 49.1423 239.915 45.5583 235.239 45.5583C231.235 45.5583 228.379 48.5543 228.379 52.1103C228.379 55.6383 230.983 57.7943 234.063 57.7943C235.715 57.7943 236.891 57.3183 237.703 56.4783L237.787 56.5063C237.451 57.8783 236.667 59.0543 235.491 59.8663C234.511 60.5383 233.195 60.9023 231.907 60.9863C231.067 61.0423 230.591 61.0423 230.059 60.9863V64.3183ZM235.127 48.6663C237.059 48.6663 237.787 50.5703 237.787 52.5023C237.787 53.0343 237.703 53.3143 237.563 53.5663C237.171 54.2103 236.359 54.7703 235.211 54.7703C233.475 54.7703 232.635 53.4263 232.635 51.8583C232.607 49.9543 233.671 48.6663 235.127 48.6663ZM266.342 53.2583H259.314V56.5903H262.226V60.5383C261.89 60.7063 261.106 60.8183 260.126 60.8183C256.626 60.8183 254.19 58.5223 254.19 54.6303C254.19 50.5423 256.878 48.5263 260.434 48.5263C262.506 48.5263 263.794 48.8903 264.83 49.3383L265.726 45.9223C264.802 45.4743 262.926 44.9983 260.49 44.9983C254.302 44.9983 249.738 48.5823 249.71 54.8543C249.682 57.6263 250.634 60.0903 252.37 61.7143C254.106 63.3943 256.598 64.2623 260.042 64.2623C262.534 64.2623 265.026 63.6463 266.342 63.1983V53.2583ZM277.392 64.0663L279.184 55.9463C279.632 54.0423 279.94 52.2503 280.276 50.1223H280.332C280.556 52.2783 280.864 54.0423 281.228 55.9463L282.824 64.0663H287.444L292.316 45.1943H287.976L286.436 52.9223C286.044 55.1623 285.624 57.3743 285.344 59.4743H285.288C285.008 57.3743 284.7 55.3583 284.28 53.1463L282.768 45.1943H278.232L276.636 52.9223C276.16 55.2463 275.712 57.5143 275.404 59.5583H275.348C275.04 57.6543 274.648 55.2183 274.228 52.9783L272.8 45.1943H268.236L272.716 64.0663H277.392ZM294.161 64.0663H298.417V55.9463C298.417 55.6383 298.445 55.2743 298.557 54.9943C298.865 54.2383 299.565 53.5103 300.685 53.5103C302.281 53.5103 302.897 54.7423 302.897 56.5343V64.0663H307.153V56.0583C307.153 51.9423 305.081 50.0663 302.365 50.0663C301.581 50.0663 300.769 50.2623 300.153 50.5983C299.481 50.9623 298.921 51.4103 298.473 51.9983H298.417V44.1863H294.161V64.0663Z" fill="#3E3E3E"/>
<defs>
<clipPath id="clip0">
<rect width="136" height="98.5" fill="white" transform="translate(0 4)"/>
</clipPath>
</defs>
</svg>
