<svg width="329" height="123" viewBox="0 0 329 123" fill="none" xmlns="http://www.w3.org/2000/svg">
<g clip-path="url(#clip0)">
<path d="M45.572 74.7681C45.572 75.4272 45.572 75.8981 45.572 76.3689C45.572 86.539 45.572 96.709 45.572 106.879C45.572 110.834 43.4061 113 39.4511 113C31.1644 113 22.8777 113 14.6851 113C12.1426 113 11.0126 111.87 11.0126 109.327C11.0126 95.014 11.0126 80.7006 11.0126 66.3872C11.0126 65.2572 10.8242 64.7863 9.5059 64.8805C7.52838 64.9747 5.55087 64.8805 3.57336 64.8805C2.25501 64.8805 1.21917 64.5038 0.65417 63.2796C0.0891657 62.1496 0.465835 61.0196 1.50168 59.9838C6.11587 55.3696 10.8242 50.7554 15.4384 46.047C27.3977 33.9936 39.4511 21.846 51.5987 9.88679C52.352 9.13345 53.2937 8.47428 54.3295 8.19177C55.742 7.81511 56.7779 8.56844 57.8137 9.60428C68.8313 20.716 79.8489 31.7336 90.9606 42.7512C96.7048 48.4954 102.355 54.1454 108.099 59.8896C109.417 61.208 109.7 62.5263 108.947 63.7505C108.382 64.598 107.534 65.0688 106.498 65.0688C104.332 65.0688 102.167 65.163 99.9065 65.0688C98.8707 65.0688 98.5882 65.3513 98.5882 66.3872C98.6823 72.3197 98.5882 78.3464 98.5882 84.279C98.5882 92.6598 98.5882 101.041 98.5882 109.422C98.5882 112.152 97.5523 113.188 94.7273 113.188C86.5348 113.188 78.248 113.188 70.0555 113.188C66.2888 113.188 64.1229 111.022 64.1229 107.162C64.1229 96.8974 64.1229 86.6331 64.1229 76.3689C64.1229 75.8981 64.1229 75.4272 64.1229 74.8622C57.9079 74.7681 51.787 74.7681 45.572 74.7681Z" fill="#FFFF00"/>
</g>
<path d="M131.98 26H136.51V18.05H137.89C139.75 18.08 140.62 18.77 141.16 21.29C141.76 23.78 142.24 25.43 142.57 26H147.25C146.86 25.22 146.23 22.58 145.6 20.3C145.09 18.44 144.31 17.09 142.9 16.52V16.43C144.64 15.8 146.47 14.03 146.47 11.45C146.47 9.59 145.81 8.18 144.61 7.22C143.17 6.08 141.07 5.63 138.07 5.63C135.64 5.63 133.45 5.81 131.98 6.05V26ZM136.51 9.17C136.84 9.11 137.47 9.02 138.58 9.02C140.68 9.05 141.94 9.98 141.94 11.84C141.94 13.61 140.59 14.75 138.31 14.75H136.51V9.17ZM163.443 11.33H158.853V20.06C158.853 20.42 158.823 20.78 158.703 21.05C158.403 21.77 157.683 22.64 156.423 22.64C154.833 22.64 154.143 21.35 154.143 19.22V11.33H149.553V19.94C149.553 24.47 151.743 26.33 154.713 26.33C157.353 26.33 158.733 24.83 159.303 23.93H159.393L159.603 26H163.563C163.503 24.77 163.443 23.21 163.443 21.29V11.33ZM167.104 26H171.544V17.45C171.544 17.09 171.574 16.67 171.724 16.31C171.994 15.56 172.684 14.66 173.854 14.66C175.294 14.66 175.954 15.92 175.954 17.78V26H180.394V17.42C180.394 17.06 180.454 16.58 180.574 16.25C180.874 15.38 181.624 14.66 182.674 14.66C184.144 14.66 184.834 15.89 184.834 18.02V26H189.274V17.36C189.274 12.98 187.144 11 184.324 11C183.244 11 182.344 11.24 181.534 11.72C180.844 12.14 180.184 12.74 179.644 13.49H179.584C178.954 11.96 177.454 11 175.564 11C173.044 11 171.754 12.38 171.124 13.31H171.034L170.824 11.33H166.984C167.044 12.62 167.104 14.18 167.104 16.01V26ZM205.364 26C205.214 25.19 205.154 23.84 205.154 22.43V17.33C205.154 13.88 203.594 11 198.704 11C196.034 11 194.024 11.72 193.004 12.29L193.844 15.23C194.804 14.63 196.394 14.12 197.894 14.12C200.144 14.12 200.564 15.23 200.564 16.01V16.22C195.374 16.19 191.954 18.02 191.954 21.83C191.954 24.17 193.724 26.33 196.694 26.33C198.434 26.33 199.934 25.7 200.894 24.53H200.984L201.254 26H205.364ZM200.714 20.66C200.714 20.93 200.684 21.2 200.624 21.44C200.324 22.37 199.394 23.12 198.254 23.12C197.234 23.12 196.454 22.55 196.454 21.38C196.454 19.61 198.314 19.04 200.714 19.07V20.66ZM208.764 26H213.324V17.3C213.324 16.97 213.354 16.58 213.474 16.28C213.804 15.47 214.554 14.69 215.754 14.69C217.464 14.69 218.124 16.01 218.124 17.93V26H222.684V17.42C222.684 13.01 220.464 11 217.554 11C216.714 11 215.844 11.21 215.184 11.57C214.464 11.96 213.864 12.44 213.384 13.07H213.324V4.7H208.764V26ZM235.284 26H239.874V9.62H245.394V5.78H229.854V9.62H235.284V26ZM258.128 26C257.978 25.19 257.918 23.84 257.918 22.43V17.33C257.918 13.88 256.358 11 251.468 11C248.798 11 246.788 11.72 245.768 12.29L246.608 15.23C247.568 14.63 249.158 14.12 250.658 14.12C252.908 14.12 253.328 15.23 253.328 16.01V16.22C248.138 16.19 244.718 18.02 244.718 21.83C244.718 24.17 246.488 26.33 249.458 26.33C251.198 26.33 252.698 25.7 253.658 24.53H253.748L254.018 26H258.128ZM253.478 20.66C253.478 20.93 253.448 21.2 253.388 21.44C253.088 22.37 252.158 23.12 251.018 23.12C249.998 23.12 249.218 22.55 249.218 21.38C249.218 19.61 251.078 19.04 253.478 19.07V20.66ZM261.527 26H266.087V17.54C266.087 17.12 266.147 16.67 266.267 16.4C266.567 15.56 267.317 14.69 268.577 14.69C270.227 14.69 270.887 15.98 270.887 17.87V26H275.447V17.3C275.447 12.98 273.197 11 270.197 11C267.767 11 266.267 12.41 265.667 13.34H265.577L265.367 11.33H261.407C261.467 12.62 261.527 14.18 261.527 16.01V26ZM289.156 11.33L289.006 13.07H288.946C288.196 11.87 286.936 11 284.926 11C281.326 11 278.266 14 278.266 18.71C278.266 22.94 280.846 25.88 284.476 25.88C286.156 25.88 287.566 25.19 288.436 23.96H288.496V24.92C288.496 27.62 286.846 28.79 284.686 28.79C282.976 28.79 281.356 28.22 280.426 27.68L279.526 31.13C280.846 31.88 282.886 32.27 284.806 32.27C286.966 32.27 289.156 31.85 290.776 30.47C292.426 29 292.996 26.69 292.996 23.87V15.68C292.996 13.49 293.056 12.26 293.116 11.33H289.156ZM288.436 19.46C288.436 19.85 288.406 20.33 288.286 20.66C287.986 21.74 287.056 22.52 285.886 22.52C283.966 22.52 282.886 20.81 282.886 18.62C282.886 15.95 284.236 14.45 285.886 14.45C287.146 14.45 288.016 15.26 288.346 16.46C288.406 16.7 288.436 17 288.436 17.3V19.46ZM306.704 11.33L306.554 13.07H306.494C305.744 11.87 304.484 11 302.474 11C298.874 11 295.814 14 295.814 18.71C295.814 22.94 298.394 25.88 302.024 25.88C303.704 25.88 305.114 25.19 305.984 23.96H306.044V24.92C306.044 27.62 304.394 28.79 302.234 28.79C300.524 28.79 298.904 28.22 297.974 27.68L297.074 31.13C298.394 31.88 300.434 32.27 302.354 32.27C304.514 32.27 306.704 31.85 308.324 30.47C309.974 29 310.544 26.69 310.544 23.87V15.68C310.544 13.49 310.604 12.26 310.664 11.33H306.704ZM305.984 19.46C305.984 19.85 305.954 20.33 305.834 20.66C305.534 21.74 304.604 22.52 303.434 22.52C301.514 22.52 300.434 20.81 300.434 18.62C300.434 15.95 301.784 14.45 303.434 14.45C304.694 14.45 305.564 15.26 305.894 16.46C305.954 16.7 305.984 17 305.984 17.3V19.46ZM326.653 26C326.503 25.19 326.443 23.84 326.443 22.43V17.33C326.443 13.88 324.883 11 319.993 11C317.323 11 315.313 11.72 314.293 12.29L315.133 15.23C316.093 14.63 317.683 14.12 319.183 14.12C321.433 14.12 321.853 15.23 321.853 16.01V16.22C316.663 16.19 313.243 18.02 313.243 21.83C313.243 24.17 315.013 26.33 317.983 26.33C319.723 26.33 321.223 25.7 322.183 24.53H322.273L322.543 26H326.653ZM322.003 20.66C322.003 20.93 321.973 21.2 321.913 21.44C321.613 22.37 320.683 23.12 319.543 23.12C318.523 23.12 317.743 22.55 317.743 21.38C317.743 19.61 319.603 19.04 322.003 19.07V20.66Z" fill="white"/>
<path d="M166.411 92.27C164.791 94.61 163.021 98.57 162.991 104.39C162.991 110.18 164.791 114.17 166.411 116.48H169.591C167.911 113.69 166.561 109.7 166.561 104.42C166.561 99.05 167.881 95.03 169.591 92.27H166.411ZM184.274 113V108.35H186.614V104.93H184.274V93.5H178.694L171.314 105.38V108.35H179.954V113H184.274ZM175.574 104.93V104.87L178.184 100.61C178.844 99.38 179.354 98.24 179.984 96.98H180.104C180.014 98.24 179.954 99.44 179.954 100.61V104.93H175.574ZM200.975 93.23C200.525 93.2 199.985 93.2 199.145 93.26C196.085 93.41 193.565 94.37 191.615 96.14C189.515 98.09 188.165 101.15 188.165 104.81C188.165 109.46 190.715 113.33 195.905 113.33C200.135 113.33 203.105 110.15 203.105 106.28C203.105 102.23 200.345 99.92 197.075 99.92C195.245 99.92 193.895 100.49 192.935 101.48H192.845C193.355 99.2 195.155 97.13 199.205 96.8C199.925 96.74 200.465 96.71 200.975 96.74V93.23ZM195.845 109.97C193.775 109.97 192.785 108.11 192.695 106.04C192.695 105.5 192.755 105.14 192.875 104.9C193.325 103.91 194.345 103.16 195.575 103.16C197.525 103.16 198.485 104.72 198.485 106.52C198.485 108.5 197.465 109.97 195.845 109.97ZM206.995 116.3C208.435 113.96 209.785 110.81 210.775 107.75L206.125 108.05C205.705 110.78 204.895 113.9 203.965 116.57L206.995 116.3ZM225.408 93.23C224.958 93.2 224.418 93.2 223.578 93.26C220.518 93.41 217.998 94.37 216.048 96.14C213.948 98.09 212.598 101.15 212.598 104.81C212.598 109.46 215.148 113.33 220.338 113.33C224.568 113.33 227.538 110.15 227.538 106.28C227.538 102.23 224.778 99.92 221.508 99.92C219.678 99.92 218.328 100.49 217.368 101.48H217.278C217.788 99.2 219.588 97.13 223.638 96.8C224.358 96.74 224.898 96.71 225.408 96.74V93.23ZM220.278 109.97C218.208 109.97 217.218 108.11 217.128 106.04C217.128 105.5 217.188 105.14 217.308 104.9C217.758 103.91 218.778 103.16 220.008 103.16C221.958 103.16 222.918 104.72 222.918 106.52C222.918 108.5 221.898 109.97 220.278 109.97ZM241.989 113V108.35H244.329V104.93H241.989V93.5H236.409L229.029 105.38V108.35H237.669V113H241.989ZM233.289 104.93V104.87L235.899 100.61C236.559 99.38 237.069 98.24 237.699 96.98H237.819C237.729 98.24 237.669 99.44 237.669 100.61V104.93H233.289ZM251.25 93.17C247.92 93.17 245.79 95.81 245.79 99.29C245.79 102.95 248.13 105.17 251.1 105.17C253.92 105.17 256.5 103.04 256.5 98.96C256.5 95.63 254.61 93.17 251.25 93.17ZM251.16 95.66C252.57 95.66 253.11 97.19 253.11 99.17C253.11 101.36 252.48 102.68 251.19 102.68C249.87 102.68 249.18 101.21 249.18 99.17C249.18 97.22 249.81 95.66 251.16 95.66ZM253.77 113.33L264.99 93.17H262.53L251.34 113.33H253.77ZM265.29 101.27C261.96 101.27 259.83 103.91 259.83 107.39C259.86 111.05 262.2 113.27 265.14 113.27C267.96 113.27 270.54 111.14 270.54 107.06C270.54 103.73 268.65 101.27 265.29 101.27ZM265.23 103.76C266.64 103.76 267.15 105.29 267.15 107.27C267.15 109.46 266.52 110.78 265.23 110.78C263.91 110.78 263.22 109.31 263.25 107.27C263.25 105.32 263.85 103.76 265.23 103.76ZM275.606 116.48C277.196 114.14 278.996 110.21 279.026 104.36C279.026 98.51 277.196 94.58 275.606 92.27H272.426C274.106 95.06 275.456 99.05 275.456 104.36C275.456 109.67 274.076 113.72 272.426 116.48H275.606Z" fill="white"/>
<rect x="133" y="46" width="176" height="35" fill="#FFFF00"/>
<path d="M157.328 51.8H147.304L146.1 61.348C146.856 61.236 147.556 61.18 148.564 61.18C152.204 61.18 153.688 62.328 153.688 64.204C153.688 66.136 151.812 66.976 150.048 66.976C148.396 66.976 146.744 66.472 145.932 66.08L145.176 69.272C146.184 69.804 148.032 70.308 150.244 70.308C155.144 70.308 158.056 67.312 158.056 63.924C158.056 61.796 157.216 60.284 155.844 59.36C154.556 58.436 152.792 58.044 151.056 58.044C150.608 58.044 150.272 58.044 149.88 58.1L150.272 55.3H157.328V51.8ZM172.859 51.8H162.835L161.631 61.348C162.387 61.236 163.087 61.18 164.095 61.18C167.735 61.18 169.219 62.328 169.219 64.204C169.219 66.136 167.343 66.976 165.579 66.976C163.927 66.976 162.275 66.472 161.463 66.08L160.707 69.272C161.715 69.804 163.563 70.308 165.775 70.308C170.675 70.308 173.587 67.312 173.587 63.924C173.587 61.796 172.747 60.284 171.375 59.36C170.087 58.436 168.323 58.044 166.587 58.044C166.139 58.044 165.803 58.044 165.411 58.1L165.803 55.3H172.859V51.8ZM178.955 70.308C180.467 70.308 181.475 69.216 181.475 67.732C181.475 66.192 180.467 65.128 178.983 65.128C177.499 65.128 176.463 66.22 176.463 67.732C176.463 69.216 177.499 70.308 178.955 70.308ZM196.42 70V66.5H189.56V66.444L191.24 65.044C193.872 62.692 196.084 60.256 196.084 57.204C196.084 53.9 193.816 51.492 189.7 51.492C187.236 51.492 185.108 52.332 183.736 53.368L184.94 56.42C185.892 55.692 187.264 54.908 188.832 54.908C190.932 54.908 191.828 56.084 191.828 57.568C191.772 59.696 189.84 61.74 185.864 65.296L183.512 67.424V70H196.42ZM198.931 69.02C199.995 69.692 201.983 70.308 204.335 70.308C208.955 70.308 211.783 67.956 211.783 64.736C211.783 62.356 210.019 60.704 207.835 60.312V60.256C210.075 59.472 211.167 57.96 211.167 56.028C211.167 53.536 209.011 51.492 205.119 51.492C202.767 51.492 200.583 52.164 199.491 52.864L200.359 55.944C201.115 55.496 202.683 54.852 204.167 54.852C205.959 54.852 206.855 55.664 206.855 56.756C206.855 58.296 205.035 58.828 203.607 58.856H201.955V61.908H203.691C205.567 61.908 207.359 62.72 207.359 64.512C207.359 65.884 206.239 66.948 204.027 66.948C202.291 66.948 200.555 66.22 199.799 65.828L198.931 69.02ZM226.727 51.8H216.703L215.499 61.348C216.255 61.236 216.955 61.18 217.963 61.18C221.603 61.18 223.087 62.328 223.087 64.204C223.087 66.136 221.211 66.976 219.447 66.976C217.795 66.976 216.143 66.472 215.331 66.08L214.575 69.272C215.583 69.804 217.431 70.308 219.643 70.308C224.543 70.308 227.455 67.312 227.455 63.924C227.455 61.796 226.615 60.284 225.243 59.36C223.955 58.436 222.191 58.044 220.455 58.044C220.007 58.044 219.671 58.044 219.279 58.1L219.671 55.3H226.727V51.8ZM252.202 59.192H245.174V62.524H248.086V66.472C247.75 66.64 246.966 66.752 245.986 66.752C242.486 66.752 240.05 64.456 240.05 60.564C240.05 56.476 242.738 54.46 246.294 54.46C248.366 54.46 249.654 54.824 250.69 55.272L251.586 51.856C250.662 51.408 248.786 50.932 246.35 50.932C240.162 50.932 235.598 54.516 235.57 60.788C235.542 63.56 236.494 66.024 238.23 67.648C239.966 69.328 242.458 70.196 245.902 70.196C248.394 70.196 250.886 69.58 252.202 69.132V59.192ZM263.252 70L265.044 61.88C265.492 59.976 265.8 58.184 266.136 56.056H266.192C266.416 58.212 266.724 59.976 267.088 61.88L268.684 70H273.304L278.176 51.128H273.836L272.296 58.856C271.904 61.096 271.484 63.308 271.204 65.408H271.148C270.868 63.308 270.56 61.292 270.14 59.08L268.628 51.128H264.092L262.496 58.856C262.02 61.18 261.572 63.448 261.264 65.492H261.208C260.9 63.588 260.508 61.152 260.088 58.912L258.66 51.128H254.096L258.576 70H263.252ZM280.021 70H284.277V61.88C284.277 61.572 284.305 61.208 284.417 60.928C284.725 60.172 285.425 59.444 286.545 59.444C288.141 59.444 288.757 60.676 288.757 62.468V70H293.013V61.992C293.013 57.876 290.941 56 288.225 56C287.441 56 286.629 56.196 286.013 56.532C285.341 56.896 284.781 57.344 284.333 57.932H284.277V50.12H280.021V70Z" fill="#3E3E3E"/>
<defs>
<clipPath id="clip0">
<rect width="108.857" height="104.997" fill="white" transform="translate(0.371582 8.00342)"/>
</clipPath>
</defs>
</svg>
