<svg width="323" height="119" viewBox="0 0 323 119" fill="none" xmlns="http://www.w3.org/2000/svg">
<path d="M38.6195 19.0426L34.8649 12.0696C34.5967 11.5332 33.8815 11.2651 33.2557 11.6226C32.7193 11.8908 32.4511 12.606 32.8087 13.2318L36.2058 19.579C36.2952 19.7578 36.3846 20.026 36.3846 20.2942V41.3919C36.3846 41.5707 36.2952 41.6601 36.1164 41.6601H33.3451C33.1663 41.6601 33.0769 41.5707 33.0769 41.3919V23.5125C33.0769 22.8867 32.5405 22.3503 31.9148 22.3503H28.7859C28.6071 22.3503 28.5177 22.2609 28.5177 22.0821V7.51038C28.5177 7.33158 28.4283 7.24219 28.2495 7.24219H4.11227C3.93347 7.24219 3.84408 7.33158 3.84408 7.51038V46.6663C3.84408 46.8451 3.75468 46.9345 3.57588 46.9345H1.16216C0.536383 46.9345 0 47.4709 0 48.0967C0 48.7224 0.536383 49.2588 1.16216 49.2588H31.1996C31.8254 49.2588 32.3617 48.7224 32.3617 48.0967C32.3617 47.4709 31.8254 46.9345 31.1996 46.9345H28.7859C28.6071 46.9345 28.5177 46.8451 28.5177 46.6663V24.9428C28.5177 24.764 28.6071 24.6746 28.7859 24.6746H30.4844C30.6632 24.6746 30.7526 24.764 30.7526 24.9428V42.8222C30.7526 43.448 31.289 43.9844 31.9148 43.9844H37.5468C38.1726 43.9844 38.7089 43.448 38.7089 42.8222V19.579C38.7983 19.4002 38.7089 19.2214 38.6195 19.0426ZM8.31393 12.4272H24.0478C24.2266 12.4272 24.316 12.5166 24.316 12.6954V25.1216C24.316 25.3004 24.2266 25.3898 24.0478 25.3898H8.31393C8.13514 25.3898 8.04574 25.3004 8.04574 25.1216V12.7848C8.04574 12.606 8.13514 12.4272 8.31393 12.4272Z" fill="#FFFF00"/>
<path d="M85.3742 18.0592H84.659C84.3908 18.0592 84.212 17.8804 84.212 17.6122C84.1227 15.9137 83.3181 14.8409 82.6923 14.3045C81.4407 13.3212 79.8316 13.1424 78.6694 13.1424C78.4012 13.1424 78.2224 12.9636 78.2224 12.6954V10.2816C78.2224 8.6725 76.8815 7.33154 75.1829 7.33154H54.4428C52.7443 7.33154 51.4033 8.6725 51.4033 10.2816V13.1424C51.1351 13.1424 50.8669 13.1424 50.5987 13.1424C49.526 13.1424 48.0062 13.4105 46.9335 14.3045C46.2183 14.8409 45.5031 15.9137 45.4137 17.6122C45.4137 17.8804 45.2349 18.0592 44.9667 18.0592H44.2516C43.9834 18.0592 43.8046 18.238 43.8046 18.5062V27.1777C43.8046 27.4459 43.9834 27.6247 44.2516 27.6247H49.2578C49.526 27.6247 49.7048 27.4459 49.7048 27.1777V18.5062C49.7048 18.238 49.526 18.0592 49.2578 18.0592H48.4532C48.2744 18.0592 48.185 17.8804 48.185 17.7016C48.2744 16.8076 48.632 16.45 48.7214 16.3607C49.1684 16.0031 49.7942 15.9137 50.3306 15.8243C50.5987 15.8243 50.8669 15.8243 51.1351 15.8243C51.3139 15.8243 51.4927 16.0031 51.4927 16.1819V40.8555C51.4927 42.2858 52.5655 43.448 53.9064 43.7162C54.0852 43.7162 54.264 43.895 54.264 44.1631V47.2026C54.264 48.4542 55.2474 49.4376 56.5883 49.4376C57.8399 49.4376 58.9127 48.4542 58.9127 47.2026V44.1631C58.9127 43.895 59.0915 43.7162 59.3597 43.7162H70.5343C70.8025 43.7162 70.9813 43.895 70.9813 44.1631V47.2026C70.9813 48.4542 71.9646 49.4376 73.3056 49.4376C74.5572 49.4376 75.6299 48.4542 75.6299 47.2026V44.1631C75.6299 43.9844 75.8087 43.8056 75.9875 43.7162C77.3285 43.448 78.4012 42.2858 78.4012 40.8555V16.2713C78.4012 16.0031 78.58 15.8243 78.8482 15.8243C79.5634 15.8243 80.5468 15.9137 81.0831 16.3607C81.2619 16.45 81.6195 16.8076 81.6195 17.7016C81.6195 17.8804 81.5301 18.0592 81.3513 18.0592H80.5468C80.2786 18.0592 80.0998 18.238 80.0998 18.5062V27.1777C80.0998 27.4459 80.2786 27.6247 80.5468 27.6247H85.553C85.8212 27.6247 86 27.4459 86 27.1777V18.5062C85.8212 18.3274 85.553 18.0592 85.3742 18.0592ZM57.2141 40.3191C55.5156 40.3191 54.1746 38.9781 54.1746 37.369C54.1746 35.7598 55.5156 34.4189 57.2141 34.4189C58.9127 34.4189 60.2536 35.7598 60.2536 37.369C60.2536 39.0675 58.9127 40.3191 57.2141 40.3191ZM72.4116 40.3191C70.7131 40.3191 69.3721 38.9781 69.3721 37.369C69.3721 35.7598 70.7131 34.4189 72.4116 34.4189C74.1102 34.4189 75.4511 35.7598 75.4511 37.369C75.3617 39.0675 74.0208 40.3191 72.4116 40.3191ZM75.8981 28.5187C75.8981 28.6081 75.8981 28.6974 75.8087 28.6974C75.4511 29.3232 73.0374 32.8991 65.2599 32.8991C56.499 32.8991 54.0852 29.4126 53.7276 28.6974C53.7276 28.6081 53.6382 28.5187 53.6382 28.5187V13.2318C53.6382 12.606 54.1746 12.0696 54.8898 12.0696H74.6466C75.2723 12.0696 75.8981 12.606 75.8981 13.2318V28.5187V28.5187Z" fill="#FFFF00"/>
<path d="M57.4976 104.618C61.6906 104.618 65.0897 101.219 65.0897 97.0259C65.0897 92.8329 61.6906 89.4338 57.4976 89.4338C53.3046 89.4338 49.9055 92.8329 49.9055 97.0259C49.9055 101.219 53.3046 104.618 57.4976 104.618Z" fill="#FFFF00"/>
<path d="M26.3687 91.5594C29.4056 94.5963 29.4056 99.3034 26.3687 102.34C23.3319 105.377 18.6248 105.377 15.5879 102.34C12.5511 99.3034 12.5511 94.5963 15.5879 91.5594C18.6248 88.5226 23.4837 88.6744 26.3687 91.5594Z" fill="#FFFF00"/>
<path d="M34.2651 56.9393V55.269C34.2651 53.2951 32.7466 51.473 30.7727 51.1693C28.4951 50.8656 26.5211 52.6877 26.5211 54.9653V56.9393C26.5211 57.243 26.3693 57.3948 26.0656 57.3948H21.2066C20.9029 57.3948 20.5993 57.5467 20.2956 57.6985L2.98556 75.7677C2.83372 75.9196 2.68188 76.2232 2.68188 76.5269V96.7219C2.68188 97.0256 2.83372 97.1775 3.1374 97.1775H8.30004C8.60373 97.1775 8.75557 97.0256 8.75557 96.7219C8.75557 93.6851 9.97031 90.4964 12.3998 88.2188C14.8293 85.7893 17.8661 84.5746 21.2066 84.5746C24.5472 84.5746 27.7358 85.9411 30.0135 88.2188C32.443 90.6483 33.6577 93.6851 33.6577 96.7219C33.6577 97.0256 33.8095 97.1775 34.1132 97.1775H44.7422C45.0459 97.1775 45.1977 97.0256 45.1977 96.7219C45.1977 93.6851 46.4124 90.4964 48.8419 88.2188C51.2714 85.7893 54.3082 84.5746 57.6488 84.5746C60.9893 84.5746 64.178 85.9411 66.4556 88.2188C68.8851 90.6483 70.0998 93.6851 70.0998 96.7219C70.0998 97.0256 70.2517 97.1775 70.5553 97.1775H73.744C74.0477 97.1775 74.1996 97.0256 74.1996 96.7219V57.8503C74.1996 57.5467 74.0477 57.3948 73.744 57.3948H34.7206C34.4169 57.3948 34.2651 57.243 34.2651 56.9393ZM22.5732 77.8935H6.3261C6.02242 77.8935 5.71872 77.438 6.02241 77.1343L22.2695 61.039C22.5732 60.7353 23.0287 60.8872 23.0287 61.3427V77.438C23.0287 77.7417 22.7251 77.8935 22.5732 77.8935ZM56.5859 74.8567H54.0045C53.7009 74.8567 53.549 75.0085 53.549 75.3122V77.8935C53.549 79.1082 52.4861 80.1711 51.2714 80.1711C50.0567 80.1711 48.9938 79.1082 48.9938 77.8935V75.3122C48.9938 75.0085 48.8419 74.8567 48.5382 74.8567H45.9569C44.7422 74.8567 43.6793 73.7938 43.6793 72.579C43.6793 71.3643 44.7422 70.3014 45.9569 70.3014H48.5382C48.8419 70.3014 48.9938 70.1496 48.9938 69.8459V67.2646C48.9938 66.0498 50.0567 64.9869 51.2714 64.9869C52.4861 64.9869 53.549 66.0498 53.549 67.2646V69.8459C53.549 70.1496 53.7009 70.3014 54.0045 70.3014H56.5859C57.8006 70.3014 58.8635 71.3643 58.8635 72.579C58.8635 73.7938 57.9525 74.8567 56.5859 74.8567Z" fill="#FFFF00"/>
<path d="M183.263 26H195.893V22.16H187.853V5.78H183.263V26ZM211.003 26C210.853 25.19 210.793 23.84 210.793 22.43V17.33C210.793 13.88 209.233 11 204.343 11C201.673 11 199.663 11.72 198.643 12.29L199.483 15.23C200.443 14.63 202.033 14.12 203.533 14.12C205.783 14.12 206.203 15.23 206.203 16.01V16.22C201.013 16.19 197.593 18.02 197.593 21.83C197.593 24.17 199.363 26.33 202.333 26.33C204.073 26.33 205.573 25.7 206.533 24.53H206.623L206.893 26H211.003ZM206.353 20.66C206.353 20.93 206.323 21.2 206.263 21.44C205.963 22.37 205.033 23.12 203.893 23.12C202.873 23.12 202.093 22.55 202.093 21.38C202.093 19.61 203.953 19.04 206.353 19.07V20.66ZM218.962 26V11.33H214.402V26H218.962ZM216.682 4.94C215.212 4.94 214.252 5.93 214.282 7.25C214.252 8.51 215.212 9.53 216.652 9.53C218.152 9.53 219.112 8.51 219.112 7.25C219.082 5.93 218.152 4.94 216.682 4.94ZM222.635 26H227.195V17.54C227.195 17.12 227.255 16.67 227.375 16.4C227.675 15.56 228.425 14.69 229.685 14.69C231.335 14.69 231.995 15.98 231.995 17.87V26H236.555V17.3C236.555 12.98 234.305 11 231.305 11C228.875 11 227.375 12.41 226.775 13.34H226.685L226.475 11.33H222.515C222.575 12.62 222.635 14.18 222.635 16.01V26ZM240.213 26H244.773V17.54C244.773 17.12 244.833 16.67 244.953 16.4C245.253 15.56 246.003 14.69 247.263 14.69C248.913 14.69 249.573 15.98 249.573 17.87V26H254.133V17.3C254.133 12.98 251.883 11 248.883 11C246.453 11 244.953 12.41 244.353 13.34H244.263L244.053 11.33H240.093C240.153 12.62 240.213 14.18 240.213 16.01V26ZM255.584 11.33L260.954 24.74C261.134 25.1 261.164 25.34 261.164 25.49C261.164 25.7 261.074 25.94 260.924 26.15C260.474 26.9 259.724 27.62 259.034 27.98C258.344 28.4 257.624 28.67 257.054 28.76L258.014 32.63C259.154 32.48 260.834 32 262.424 30.62C264.074 29.15 265.484 26.81 267.584 20.99L271.004 11.33H266.114L264.314 18.53C264.104 19.37 263.864 20.48 263.654 21.26H263.564C263.384 20.48 263.084 19.4 262.844 18.53L260.654 11.33H255.584ZM285.182 26C285.032 25.19 284.972 23.84 284.972 22.43V17.33C284.972 13.88 283.412 11 278.522 11C275.852 11 273.842 11.72 272.822 12.29L273.662 15.23C274.622 14.63 276.212 14.12 277.712 14.12C279.962 14.12 280.382 15.23 280.382 16.01V16.22C275.192 16.19 271.772 18.02 271.772 21.83C271.772 24.17 273.542 26.33 276.512 26.33C278.252 26.33 279.752 25.7 280.712 24.53H280.802L281.072 26H285.182ZM280.532 20.66C280.532 20.93 280.502 21.2 280.442 21.44C280.142 22.37 279.212 23.12 278.072 23.12C277.052 23.12 276.272 22.55 276.272 21.38C276.272 19.61 278.132 19.04 280.532 19.07V20.66Z" fill="white"/>
<path d="M189.248 88.27C187.628 90.61 185.858 94.57 185.828 100.39C185.828 106.18 187.628 110.17 189.248 112.48H192.428C190.748 109.69 189.398 105.7 189.398 100.42C189.398 95.05 190.718 91.03 192.428 88.27H189.248ZM194.932 89.5V93.25H203.872V93.31L195.832 109H200.662L208.702 92.38V89.5H194.932ZM213.193 112.3C214.633 109.96 215.983 106.81 216.973 103.75L212.323 104.05C211.903 106.78 211.093 109.9 210.163 112.57L213.193 112.3ZM232.176 89.5H221.436L220.146 99.73C220.956 99.61 221.706 99.55 222.786 99.55C226.686 99.55 228.276 100.78 228.276 102.79C228.276 104.86 226.266 105.76 224.376 105.76C222.606 105.76 220.836 105.22 219.966 104.8L219.156 108.22C220.236 108.79 222.216 109.33 224.586 109.33C229.836 109.33 232.956 106.12 232.956 102.49C232.956 100.21 232.056 98.59 230.586 97.6C229.206 96.61 227.316 96.19 225.456 96.19C224.976 96.19 224.616 96.19 224.196 96.25L224.616 93.25H232.176V89.5ZM242.726 109.33C247.256 109.33 250.226 106.96 250.226 103.42C250.226 100.9 248.546 99.28 246.656 98.56V98.47C248.576 97.51 249.476 95.86 249.476 94.18C249.476 91.81 247.586 89.17 243.026 89.17C239.126 89.17 236.156 91.36 236.156 94.66C236.156 96.37 237.086 97.96 238.976 98.92V99.01C236.846 99.94 235.496 101.56 235.496 103.9C235.496 106.54 237.776 109.33 242.726 109.33ZM242.906 106.18C241.196 106.18 240.116 104.86 240.146 103.45C240.146 102.04 241.016 100.96 242.516 100.54C244.316 101.02 245.576 102.04 245.576 103.75C245.576 105.13 244.526 106.18 242.906 106.18ZM242.816 92.26C244.496 92.26 245.186 93.46 245.186 94.66C245.186 95.89 244.256 96.85 243.206 97.15C241.646 96.67 240.446 95.83 240.446 94.51C240.446 93.28 241.256 92.26 242.816 92.26ZM257.447 89.17C254.117 89.17 251.987 91.81 251.987 95.29C251.987 98.95 254.327 101.17 257.297 101.17C260.117 101.17 262.697 99.04 262.697 94.96C262.697 91.63 260.807 89.17 257.447 89.17ZM257.357 91.66C258.767 91.66 259.307 93.19 259.307 95.17C259.307 97.36 258.677 98.68 257.387 98.68C256.067 98.68 255.377 97.21 255.377 95.17C255.377 93.22 256.007 91.66 257.357 91.66ZM259.967 109.33L271.187 89.17H268.727L257.537 109.33H259.967ZM271.487 97.27C268.157 97.27 266.027 99.91 266.027 103.39C266.057 107.05 268.397 109.27 271.337 109.27C274.157 109.27 276.737 107.14 276.737 103.06C276.737 99.73 274.847 97.27 271.487 97.27ZM271.427 99.76C272.837 99.76 273.347 101.29 273.347 103.27C273.347 105.46 272.717 106.78 271.427 106.78C270.107 106.78 269.417 105.31 269.447 103.27C269.447 101.32 270.047 99.76 271.427 99.76ZM281.803 112.48C283.393 110.14 285.193 106.21 285.223 100.36C285.223 94.51 283.393 90.58 281.803 88.27H278.623C280.303 91.06 281.653 95.05 281.653 100.36C281.653 105.67 280.273 109.72 278.623 112.48H281.803Z" fill="white"/>
<rect x="146.018" y="38.2422" width="176" height="35" fill="#FFFF00"/>
<path d="M165.558 63.1514C169.786 63.1514 172.558 60.9394 172.558 57.6354C172.558 55.2834 170.99 53.7714 169.226 53.0994V53.0154C171.018 52.1194 171.858 50.5794 171.858 49.0114C171.858 46.7994 170.094 44.3354 165.838 44.3354C162.198 44.3354 159.426 46.3794 159.426 49.4594C159.426 51.0554 160.294 52.5394 162.058 53.4354V53.5194C160.07 54.3874 158.81 55.8994 158.81 58.0834C158.81 60.5474 160.938 63.1514 165.558 63.1514ZM165.726 60.2114C164.13 60.2114 163.122 58.9794 163.15 57.6634C163.15 56.3474 163.962 55.3394 165.362 54.9474C167.042 55.3954 168.218 56.3474 168.218 57.9434C168.218 59.2314 167.238 60.2114 165.726 60.2114ZM165.642 47.2194C167.21 47.2194 167.854 48.3394 167.854 49.4594C167.854 50.6074 166.986 51.5034 166.006 51.7834C164.55 51.3354 163.43 50.5514 163.43 49.3194C163.43 48.1714 164.186 47.2194 165.642 47.2194ZM177.337 63.1514C178.849 63.1514 179.857 62.0594 179.857 60.5754C179.857 59.0354 178.849 57.9714 177.365 57.9714C175.881 57.9714 174.845 59.0634 174.845 60.5754C174.845 62.0594 175.881 63.1514 177.337 63.1514ZM183.238 63.0954C183.714 63.1234 184.442 63.1514 185.17 63.0954C187.998 62.9834 190.378 62.1154 192.114 60.5474C194.102 58.7274 195.306 55.9554 195.306 52.1754C195.306 47.9194 193.094 44.3354 188.418 44.3354C184.414 44.3354 181.558 47.3314 181.558 50.8874C181.558 54.4154 184.162 56.5714 187.242 56.5714C188.894 56.5714 190.07 56.0954 190.882 55.2554L190.966 55.2834C190.63 56.6554 189.846 57.8314 188.67 58.6434C187.69 59.3154 186.374 59.6794 185.086 59.7634C184.246 59.8194 183.77 59.8194 183.238 59.7634V63.0954ZM188.306 47.4434C190.238 47.4434 190.966 49.3474 190.966 51.2794C190.966 51.8114 190.882 52.0914 190.742 52.3434C190.35 52.9874 189.538 53.5474 188.39 53.5474C186.654 53.5474 185.814 52.2034 185.814 50.6354C185.786 48.7314 186.85 47.4434 188.306 47.4434ZM203.894 63.1514C208.122 63.1514 210.894 60.9394 210.894 57.6354C210.894 55.2834 209.326 53.7714 207.562 53.0994V53.0154C209.354 52.1194 210.194 50.5794 210.194 49.0114C210.194 46.7994 208.43 44.3354 204.174 44.3354C200.534 44.3354 197.762 46.3794 197.762 49.4594C197.762 51.0554 198.63 52.5394 200.394 53.4354V53.5194C198.406 54.3874 197.146 55.8994 197.146 58.0834C197.146 60.5474 199.274 63.1514 203.894 63.1514ZM204.062 60.2114C202.466 60.2114 201.458 58.9794 201.486 57.6634C201.486 56.3474 202.298 55.3394 203.698 54.9474C205.378 55.3954 206.554 56.3474 206.554 57.9434C206.554 59.2314 205.574 60.2114 204.062 60.2114ZM203.978 47.2194C205.546 47.2194 206.19 48.3394 206.19 49.4594C206.19 50.6074 205.322 51.5034 204.342 51.7834C202.886 51.3354 201.766 50.5514 201.766 49.3194C201.766 48.1714 202.522 47.2194 203.978 47.2194ZM219.621 44.3354C214.917 44.3354 212.677 48.5074 212.677 53.7714C212.705 58.9234 214.777 63.1514 219.481 63.1514C224.129 63.1514 226.397 59.2874 226.397 53.6594C226.397 48.6754 224.493 44.3354 219.621 44.3354ZM219.565 47.5554C221.273 47.5554 222.141 49.6834 222.141 53.7154C222.141 57.8594 221.245 59.9314 219.593 59.9314C217.941 59.9314 216.933 57.9434 216.961 53.7714C216.933 49.5434 217.997 47.5554 219.565 47.5554ZM250.584 52.0354H243.556V55.3674H246.468V59.3154C246.132 59.4834 245.348 59.5954 244.368 59.5954C240.868 59.5954 238.432 57.2994 238.432 53.4074C238.432 49.3194 241.12 47.3034 244.676 47.3034C246.748 47.3034 248.036 47.6674 249.072 48.1154L249.968 44.6994C249.044 44.2514 247.168 43.7754 244.732 43.7754C238.544 43.7754 233.98 47.3594 233.952 53.6314C233.924 56.4034 234.876 58.8674 236.612 60.4914C238.348 62.1714 240.84 63.0394 244.284 63.0394C246.776 63.0394 249.268 62.4234 250.584 61.9754V52.0354ZM261.634 62.8434L263.426 54.7234C263.874 52.8194 264.182 51.0274 264.518 48.8994H264.574C264.798 51.0554 265.106 52.8194 265.47 54.7234L267.066 62.8434H271.686L276.558 43.9714H272.218L270.678 51.6994C270.286 53.9394 269.866 56.1514 269.586 58.2514H269.53C269.25 56.1514 268.942 54.1354 268.522 51.9234L267.01 43.9714H262.474L260.878 51.6994C260.402 54.0234 259.954 56.2914 259.646 58.3354H259.59C259.282 56.4314 258.89 53.9954 258.47 51.7554L257.042 43.9714H252.478L256.958 62.8434H261.634ZM278.403 62.8434H282.659V54.7234C282.659 54.4154 282.687 54.0514 282.799 53.7714C283.107 53.0154 283.807 52.2874 284.927 52.2874C286.523 52.2874 287.139 53.5194 287.139 55.3114V62.8434H291.395V54.8354C291.395 50.7194 289.323 48.8434 286.607 48.8434C285.823 48.8434 285.011 49.0394 284.395 49.3754C283.723 49.7394 283.163 50.1874 282.715 50.7754H282.659V42.9634H278.403V62.8434Z" fill="#3E3E3E"/>
</svg>
