<svg width="375" height="667" viewBox="0 0 375 667" fill="none" xmlns="http://www.w3.org/2000/svg">
<g clip-path="url(#clip0)">
<path d="M-117 562C-41.0304 562 -41.0304 590.864 34.9391 590.864C110.908 590.864 110.908 562 186.878 562C262.846 562 262.846 590.864 338.786 590.864C414.754 590.864 414.754 562 490.691 562V684.19H-117V562Z" fill="#597C56"/>
<path d="M34.5907 581.474C110.56 581.474 110.56 615.745 186.53 615.745C262.498 615.745 262.498 581.474 338.469 581.474C414.438 581.474 414.438 615.745 490.375 615.745C490.501 615.745 490.596 615.745 490.723 615.745V684.159H-116.969V615.745C-41.3784 615.65 -41.2521 581.474 34.5907 581.474Z" fill="#749171"/>
<path d="M-117 613.753C-41.0305 603.162 -41.0305 632.027 34.9386 632.027C110.908 632.027 110.908 603.162 186.878 603.162C262.846 603.162 262.846 632.027 338.786 632.027C414.754 632.027 414.754 603.162 490.691 603.162V684.222H-117V613.753Z" fill="#8CA088"/>
</g>
<defs>
<clipPath id="clip0">
<rect width="375" height="667" fill="white"/>
</clipPath>
</defs>
</svg>
