<svg width="1920" height="1080" viewBox="0 0 1920 1080" fill="none" xmlns="http://www.w3.org/2000/svg">
<g clip-path="url(#clip0)">
<path d="M-5.33305e-05 793C240.025 793 240.025 894.638 480.05 894.638C720.075 894.638 720.075 793 960.1 793C1200.12 793 1200.12 894.638 1440.05 894.638C1680.07 894.638 1680.07 793 1920 793V1223.26H-5.33305e-05V793V793Z" fill="#5CB654"/>
<path d="M478.951 861.575C718.976 861.575 718.976 982.249 959.001 982.249C1199.03 982.249 1198.93 861.575 1438.95 861.575C1678.98 861.575 1678.98 982.249 1918.9 982.249C1919.3 982.249 1919.6 982.249 1920 982.249V1223.15H-5.33305e-05V982.249C238.926 981.915 239.326 861.575 478.951 861.575Z" fill="#6EBF5F"/>
<path d="M-5.33305e-05 975.235C240.025 937.942 240.025 1039.58 480.05 1039.58C720.075 1039.58 720.075 937.942 960.1 937.942C1200.12 937.942 1200.12 1039.58 1440.05 1039.58C1680.07 1039.58 1680.07 937.942 1920 937.942V1223.37H-5.33305e-05V975.235V975.235Z" fill="#88C76C"/>
</g>
<defs>
<clipPath id="clip0">
<rect width="1920" height="1080" fill="white"/>
</clipPath>
</defs>
</svg>
