<svg width="1920" height="1080" viewBox="0 0 1920 1080" fill="none" xmlns="http://www.w3.org/2000/svg">
<g clip-path="url(#clip0)">
<path d="M1920 793C1679.98 793 1679.98 894.638 1439.95 894.638C1199.93 894.638 1199.93 793 959.9 793C719.875 793 719.875 894.638 479.95 894.638C239.925 894.638 239.925 793 0 793V1223.26H1920V793V793Z" fill="#5CB654"/>
<path d="M1441.05 861.575C1201.02 861.575 1201.02 982.249 960.999 982.249C720.974 982.249 721.074 861.575 481.049 861.575C241.024 861.575 241.024 982.249 1.09874 982.249C0.699199 982.249 0.399542 982.249 0 982.249V1223.15H1920V982.249C1681.07 981.915 1680.67 861.575 1441.05 861.575Z" fill="#6EBF5F"/>
<path d="M1920 975.235C1679.98 937.942 1679.98 1039.58 1439.95 1039.58C1199.93 1039.58 1199.93 937.942 959.9 937.942C719.875 937.942 719.875 1039.58 479.95 1039.58C239.925 1039.58 239.925 937.942 0 937.942V1223.37H1920V975.235V975.235Z" fill="#88C76C"/>
</g>
<defs>
<clipPath id="clip0">
<rect width="1920" height="1080" fill="white"/>
</clipPath>
</defs>
</svg>
