<svg width="375" height="667" viewBox="0 0 375 667" fill="none" xmlns="http://www.w3.org/2000/svg">
<g clip-path="url(#clip0)">
<g clip-path="url(#clip1)">
<path d="M334.001 43.5991C334.001 44.1377 333.899 44.6089 333.696 45.0465C331.968 48.8836 323.194 47.6719 323.194 47.6719C321.195 50.6339 315.605 49.2202 315.605 49.2202C307.814 52.4178 301.716 48.85 301.716 48.85C292.806 52.2495 285.183 47.6382 285.183 47.6382C278.205 51.0041 270.48 47.1333 270.48 47.1333C265.67 51.6437 257.234 47.4699 257.234 47.4699C256.523 47.8065 255.811 47.9412 255.134 47.9412C254.931 47.9412 254.727 47.9412 254.524 47.9075C254.49 47.9075 254.456 47.9075 254.423 47.8738C254.355 47.8738 254.253 47.8402 254.185 47.8402C254.084 47.8065 253.982 47.8065 253.88 47.7729C253.779 47.7392 253.677 47.7055 253.609 47.6719C253.542 47.6046 253.474 47.5709 253.372 47.5373C253.338 47.5373 253.338 47.5373 253.305 47.5036C253.135 47.4363 252.966 47.3353 252.83 47.2343C252.729 47.167 252.661 47.0997 252.559 47.0324C252.525 47.0324 252.525 46.9987 252.491 46.965C252.424 46.8977 252.356 46.8304 252.288 46.7631C252.187 46.6958 252.119 46.5948 252.051 46.5275C251.983 46.4602 251.916 46.3592 251.848 46.2919C251.611 45.9889 251.441 45.686 251.306 45.3494C251.272 45.2484 251.238 45.1811 251.204 45.0801C251.035 44.6089 251.001 44.1377 251.035 43.7001C251.34 41.243 253.677 40.8391 256.32 40.7381C256.32 40.7381 258.793 35.9249 265.026 37.6751C265.026 37.6751 265.907 31.8858 274.376 31.4819C274.376 31.4819 276.206 30.0682 277.764 31.4819C277.764 31.4819 280.745 18.6914 294.195 24.5144C294.195 24.5144 303.545 21.1822 305.578 29.3277C305.578 29.3277 314.386 26.0964 318.858 32.0204C318.858 32.0204 325.565 30.5058 326.717 37.8771C326.717 37.8771 331.46 37.9781 333.289 40.9064C333.73 41.6469 334.001 42.522 334.001 43.5991Z" fill="white"/>
<path d="M334 43.5994C334 44.1379 333.898 44.6091 333.695 45.0467C333.492 45.5179 333.153 45.9218 332.747 46.2584C329.901 48.5809 323.193 47.6721 323.193 47.6721C321.194 50.6341 315.605 49.2204 315.605 49.2204C307.813 52.418 301.715 48.8502 301.715 48.8502C292.805 52.2497 285.182 47.6384 285.182 47.6384C278.204 51.0043 270.48 47.1336 270.48 47.1336C265.669 51.6439 257.234 47.4701 257.234 47.4701C256.522 47.8067 255.811 47.9414 255.133 47.9414C255.065 47.9414 254.964 47.9414 254.896 47.9414C254.862 47.9414 254.828 47.9414 254.794 47.9414C254.693 47.9414 254.625 47.9414 254.523 47.9077C254.489 47.9077 254.456 47.9077 254.422 47.9077H254.388C254.32 47.9077 254.218 47.8741 254.151 47.8741C254.049 47.8404 253.947 47.8404 253.846 47.8067C253.744 47.7731 253.642 47.7394 253.575 47.7058C253.371 47.6384 253.202 47.5375 253.033 47.4365C252.931 47.4028 252.863 47.3355 252.796 47.3018C252.694 47.2345 252.626 47.1672 252.525 47.0999C252.491 47.0999 252.491 47.0662 252.457 47.0326C252.389 46.9653 252.321 46.8979 252.254 46.8306C252.152 46.7633 252.084 46.6623 252.016 46.595C251.949 46.5277 251.881 46.4267 251.813 46.3594C251.576 46.0565 251.407 45.7535 251.271 45.4169C251.237 45.316 251.203 45.2486 251.169 45.1477C251.305 45.2823 255.336 48.6482 258.351 43.2628C258.351 43.2628 262.349 47.3355 265.635 43.0945C265.635 43.0945 273.664 45.8882 273.596 37.4061C273.596 37.4061 274.409 41.3442 279.017 41.1422C279.017 41.1422 281.151 43.9359 284.674 41.6471C284.844 41.6135 291.484 45.5179 291.89 38.2476C291.89 38.6178 295.786 40.8057 297.751 36.6656C297.751 36.6656 296.464 42.9935 303.375 41.9837C303.375 41.9837 310.625 47.2682 313.369 39.1564C313.369 39.1564 313.403 41.7144 315.876 42.4213C315.876 42.4213 316.316 43.5657 317.705 42.8252C317.705 42.8252 321.093 45.114 323.735 43.5994C323.735 43.5994 329.969 46.5613 333.255 40.9403C333.729 41.6471 334 42.5223 334 43.5994Z" fill="#E4F2F7"/>
<path d="M332.747 46.2247C329.901 48.5472 323.193 47.6384 323.193 47.6384C321.194 50.6004 315.605 49.1867 315.605 49.1867C307.813 52.3843 301.715 48.8165 301.715 48.8165C292.805 52.216 285.183 47.6048 285.183 47.6048C278.204 50.9707 270.48 47.0999 270.48 47.0999C265.669 51.6102 257.234 47.4365 257.234 47.4365C256.522 47.773 255.811 47.9077 255.133 47.9077C255.065 47.9077 254.964 47.9077 254.896 47.9077C254.862 47.9077 254.828 47.9077 254.794 47.9077C254.693 47.9077 254.625 47.9077 254.523 47.874C254.49 47.874 254.456 47.874 254.422 47.874H254.388C254.32 47.874 254.219 47.8404 254.151 47.8404C254.049 47.8067 253.947 47.8067 253.846 47.773C253.744 47.7394 253.643 47.7057 253.575 47.6721C253.372 47.6048 253.202 47.5038 253.033 47.4028C252.931 47.3691 252.863 47.3018 252.796 47.2682C253.744 47.7394 256.387 47.773 258.555 45.5179C258.555 45.5179 263.128 48.9511 266.889 45.2486C266.889 45.2486 268.955 46.7296 270.209 44.5418C270.514 46.1238 275.223 48.6818 279.085 46.2247C279.085 46.2247 284.539 49.6243 286.301 44.0032C286.301 44.0032 289.824 48.8501 295.82 46.292C295.82 46.292 298.158 49.7253 301.918 47.0326C302.934 47.8404 308.05 50.2638 310.387 46.0564C311.065 46.7969 313.301 49.0858 317.129 47.0662C317.129 47.0662 321.533 48.6145 323.532 45.2486C323.735 45.1476 327.225 48.1096 332.747 46.2247Z" fill="#C7DFE5"/>
</g>
<g clip-path="url(#clip2)">
<path d="M520 567C436.866 567 436.866 590.622 353.733 590.622C270.599 590.622 270.599 567 187.5 567C104.366 567 104.366 590.622 21.2327 590.622C-61.8664 590.622 -61.8664 567 -145 567V667H520V567Z" fill="#5CB654"/>
<path d="M354.113 582.938C270.98 582.938 270.98 610.984 187.846 610.984C104.712 610.984 104.747 582.938 21.6133 582.938C-61.5204 582.938 -61.5204 610.984 -144.619 610.984C-144.758 610.984 -144.862 610.984 -145 610.984V666.974H520V611.01C437.247 610.907 437.109 582.938 354.113 582.938Z" fill="#6EBF5F"/>
<path d="M520 609.354C436.866 600.687 436.866 624.309 353.733 624.309C270.599 624.309 270.599 600.687 187.465 600.687C104.332 600.687 104.332 624.309 21.2327 624.309C-61.9009 624.309 -61.9009 600.687 -145 600.687V667.026H520V609.354V609.354Z" fill="#88C76C"/>
</g>
</g>
<defs>
<clipPath id="clip0">
<rect width="375" height="667" fill="white"/>
</clipPath>
<clipPath id="clip1">
<rect width="83" height="31" fill="white" transform="translate(251 23)"/>
</clipPath>
<clipPath id="clip2">
<rect width="665" height="100" fill="white" transform="translate(-145 567)"/>
</clipPath>
</defs>
</svg>
