<svg width="1920" height="1080" viewBox="0 0 1920 1080" fill="none" xmlns="http://www.w3.org/2000/svg">
<g clip-path="url(#clip0)">
<path d="M0.00131066 793C240.014 793 240.014 884.191 480.027 884.191C720.039 884.191 720.039 793 960.052 793C1200.06 793 1200.06 884.191 1439.98 884.191C1679.99 884.191 1679.99 793 1919.9 793V1179.04H0.00131066V793Z" fill="#597C56"/>
<path d="M478.925 854.526C718.938 854.526 718.938 962.797 958.951 962.797C1198.96 962.797 1198.96 854.526 1438.98 854.526C1678.99 854.526 1678.99 962.797 1918.9 962.797C1919.3 962.797 1919.6 962.797 1920 962.797V1178.94H0.0984786V962.797C238.913 962.497 239.312 854.526 478.925 854.526Z" fill="#749171"/>
<path d="M-3.21138e-05 956.504C240.013 923.044 240.013 1014.24 480.025 1014.24C720.038 1014.24 720.038 923.044 960.051 923.044C1200.06 923.044 1200.06 1014.24 1439.98 1014.24C1679.99 1014.24 1679.99 923.044 1919.9 923.044V1179.14H-3.21138e-05V956.504Z" fill="#8CA088"/>
</g>
<defs>
<clipPath id="clip0">
<rect width="1920" height="1080" fill="white"/>
</clipPath>
</defs>
</svg>
