<svg width="1920" height="1080" viewBox="0 0 1920 1080" fill="none" xmlns="http://www.w3.org/2000/svg">
<g opacity="0.5">
<path opacity="0.5" fill-rule="evenodd" clip-rule="evenodd" d="M936.638 423.387C940.426 423.387 943.43 426.393 943.43 430.184C943.43 433.975 940.426 436.981 936.638 436.981C932.85 436.981 929.845 433.975 929.845 430.184C929.845 426.524 932.85 423.387 936.638 423.387Z" fill="#1A1A1B"/>
<path opacity="0.5" fill-rule="evenodd" clip-rule="evenodd" d="M908.942 458.158C914.167 458.158 918.216 462.471 918.216 467.438C918.216 472.667 914.167 476.98 908.942 476.98C903.717 476.98 899.407 472.667 899.407 467.438C899.407 462.471 903.717 458.158 908.942 458.158Z" fill="#1A1A1B"/>
<path opacity="0.5" fill-rule="evenodd" clip-rule="evenodd" d="M926.189 448.224C928.932 448.224 931.022 450.315 931.022 453.06C931.022 455.805 928.932 457.897 926.189 457.897C923.446 457.897 921.356 455.805 921.356 453.06C921.356 450.446 923.577 448.224 926.189 448.224Z" fill="#1A1A1B"/>
<path opacity="0.5" fill-rule="evenodd" clip-rule="evenodd" d="M843.241 373.585C845.331 373.585 847.29 374.631 848.466 376.199C849.119 364.174 859.046 354.501 871.325 354.501C873.807 354.501 876.288 354.893 878.509 355.677C882.558 349.665 889.22 345.743 896.666 345.22C899.017 332.803 909.858 323.391 923.182 323.391C938.073 323.391 950.221 335.548 950.221 350.449C950.221 353.717 949.568 356.985 948.523 359.86C952.833 361.429 955.968 365.481 955.968 370.317C955.968 376.461 951.004 381.167 945.126 381.167C940.685 381.167 936.767 378.552 935.069 374.762C931.542 376.461 927.492 377.507 923.313 377.507C922.398 377.507 921.614 377.507 920.831 377.376C920.308 378.814 919.655 380.121 918.871 381.428C926.056 382.735 932.064 387.833 934.807 394.499C937.158 389.402 942.253 385.742 948.131 385.742C956.229 385.742 962.76 392.408 962.76 400.381C962.76 408.486 956.099 415.021 948.131 415.021C942.775 415.021 938.203 412.146 935.591 407.832C933.109 416.851 924.749 423.779 914.822 423.779C914.038 423.779 913.385 423.779 912.601 423.648C912.34 425.871 911.687 427.831 910.642 429.792C914.561 432.406 917.043 436.851 917.043 441.948C917.043 450.053 910.381 456.588 902.413 456.588C894.184 456.588 887.783 449.922 887.783 441.948C887.783 440.903 887.914 439.988 888.044 438.942C883.081 437.243 879.162 433.583 876.942 428.746C875.113 430.315 872.762 431.23 870.149 431.23C864.01 431.23 859.046 426.263 859.046 420.119C859.046 413.976 864.01 409.27 870.149 409.27C873.023 409.27 875.635 410.446 877.595 412.276C880.73 406.656 886.608 402.734 893.4 402.604C893.4 399.205 894.184 396.068 895.621 393.192C893.4 392.931 891.31 392.408 889.22 391.624C885.04 397.114 878.509 400.643 871.194 400.643C860.614 400.643 851.862 393.584 849.25 384.042C848.205 386.264 845.853 387.833 843.241 387.833C839.453 387.833 836.449 384.827 836.449 381.036C836.449 376.722 839.584 373.585 843.241 373.585Z" fill="#1A1A1B"/>
<path opacity="0.5" fill-rule="evenodd" clip-rule="evenodd" d="M874.329 440.118C877.072 440.118 879.162 442.21 879.162 444.824C879.162 447.438 877.072 449.66 874.329 449.66C871.586 449.66 869.496 447.569 869.496 444.824C869.626 442.21 871.716 440.118 874.329 440.118Z" fill="#1A1A1B"/>
<path opacity="0.5" fill-rule="evenodd" clip-rule="evenodd" d="M971.771 352.41C976.996 352.41 981.176 356.462 981.176 361.69C981.176 366.919 976.865 371.232 971.771 371.232C966.807 371.232 962.497 366.919 962.497 361.69C962.497 356.592 966.807 352.41 971.771 352.41Z" fill="#1A1A1B"/>
<path opacity="0.5" fill-rule="evenodd" clip-rule="evenodd" d="M870.279 347.836C866.491 347.836 863.356 344.829 863.356 341.039C863.356 337.248 866.621 334.242 870.279 334.242C874.067 334.242 877.071 337.248 877.071 341.039C877.071 344.699 874.067 347.836 870.279 347.836Z" fill="#1A1A1B"/>
<path opacity="0.5" fill-rule="evenodd" clip-rule="evenodd" d="M897.322 312.542C894.709 312.542 892.489 310.451 892.489 307.706C892.489 305.222 894.579 303 897.322 303C899.804 303 902.024 305.091 902.024 307.706C901.894 310.451 899.804 312.542 897.322 312.542Z" fill="#1A1A1B"/>
<path opacity="0.5" fill-rule="evenodd" clip-rule="evenodd" d="M918.741 478.547C920.7 478.547 922.267 480.116 922.267 482.338C922.267 484.299 920.7 486.129 918.741 486.129C916.651 486.129 914.953 484.299 914.953 482.338C914.953 480.116 916.52 478.547 918.741 478.547Z" fill="#1A1A1B"/>
</g>
<g opacity="0.5">
<path opacity="0.5" fill-rule="evenodd" clip-rule="evenodd" d="M1036.83 452.013C1033.82 452.013 1031.47 454.366 1031.47 457.373C1031.47 460.379 1033.82 462.732 1036.83 462.732C1039.83 462.732 1042.18 460.379 1042.18 457.373C1042.31 454.366 1039.83 452.013 1036.83 452.013Z" fill="#BAC0CB"/>
<path opacity="0.5" fill-rule="evenodd" clip-rule="evenodd" d="M1058.9 479.595C1054.72 479.595 1051.45 482.993 1051.45 487.045C1051.45 491.228 1054.72 494.627 1058.9 494.627C1063.08 494.627 1066.48 491.228 1066.48 487.045C1066.34 482.993 1062.95 479.595 1058.9 479.595Z" fill="#BAC0CB"/>
<path opacity="0.5" fill-rule="evenodd" clip-rule="evenodd" d="M1045.06 471.752C1042.97 471.752 1041.27 473.451 1041.27 475.543C1041.27 477.634 1042.97 479.333 1045.06 479.333C1047.15 479.333 1048.84 477.634 1048.84 475.543C1048.97 473.451 1047.28 471.752 1045.06 471.752Z" fill="#BAC0CB"/>
<path opacity="0.5" fill-rule="evenodd" clip-rule="evenodd" d="M1111.02 412.407C1109.32 412.407 1107.89 413.191 1106.84 414.498C1106.32 404.956 1098.48 397.244 1088.68 397.244C1086.72 397.244 1084.77 397.636 1082.94 398.159C1079.8 393.454 1074.45 390.186 1068.57 389.924C1066.74 380.121 1057.99 372.539 1047.54 372.539C1035.78 372.539 1026.12 382.212 1026.12 393.976C1026.12 396.591 1026.64 399.074 1027.42 401.427C1024.03 402.604 1021.54 405.871 1021.54 409.662C1021.54 414.498 1025.46 418.289 1030.16 418.289C1033.69 418.289 1036.83 416.198 1038.13 413.191C1041.01 414.498 1044.14 415.283 1047.41 415.283C1048.06 415.283 1048.71 415.283 1049.37 415.152C1049.76 416.328 1050.28 417.374 1050.93 418.42C1045.19 419.466 1040.48 423.518 1038.26 428.746C1036.43 424.694 1032.39 421.818 1027.68 421.818C1021.28 421.818 1016.06 427.047 1016.06 433.452C1016.06 439.857 1021.28 445.085 1027.68 445.085C1031.86 445.085 1035.65 442.863 1037.61 439.465C1039.57 446.654 1046.23 452.144 1054.07 452.144C1054.59 452.144 1055.24 452.144 1055.77 452.013C1056.03 453.713 1056.55 455.412 1057.33 456.85C1054.33 458.941 1052.24 462.47 1052.24 466.392C1052.24 472.797 1057.46 478.025 1063.87 478.025C1070.4 478.025 1075.49 472.797 1075.49 466.392C1075.49 465.607 1075.36 464.823 1075.23 464.039C1079.15 462.732 1082.28 459.725 1083.98 455.935C1085.42 457.111 1087.25 457.895 1089.34 457.895C1094.17 457.895 1098.09 453.974 1098.09 449.138C1098.09 444.301 1094.17 440.51 1089.34 440.51C1086.99 440.51 1084.9 441.425 1083.46 442.863C1080.98 438.419 1076.27 435.282 1070.92 435.151C1070.92 432.406 1070.27 429.923 1069.09 427.701C1070.92 427.57 1072.62 427.047 1074.18 426.393C1077.45 430.707 1082.68 433.583 1088.55 433.583C1096.91 433.583 1103.84 427.962 1106.06 420.381C1106.97 422.211 1108.8 423.387 1110.89 423.387C1113.89 423.387 1116.24 421.034 1116.24 418.028C1116.38 414.891 1114.02 412.407 1111.02 412.407Z" fill="#1A1A1B"/>
<path opacity="0.5" fill-rule="evenodd" clip-rule="evenodd" d="M1086.34 465.216C1084.25 465.216 1082.55 466.915 1082.55 468.876C1082.55 470.967 1084.25 472.666 1086.34 472.666C1088.43 472.666 1090.12 470.967 1090.12 468.876C1090.12 466.915 1088.43 465.216 1086.34 465.216Z" fill="#BAC0CB"/>
<path opacity="0.5" fill-rule="evenodd" clip-rule="evenodd" d="M1008.87 395.545C1004.69 395.545 1001.3 398.813 1001.3 402.995C1001.3 407.048 1004.69 410.577 1008.87 410.577C1012.79 410.577 1016.32 407.178 1016.32 402.995C1016.32 398.813 1012.92 395.545 1008.87 395.545Z" fill="#BAC0CB"/>
<path opacity="0.5" fill-rule="evenodd" clip-rule="evenodd" d="M1089.6 391.885C1092.6 391.885 1095.09 389.402 1095.09 386.526C1095.09 383.519 1092.47 381.167 1089.6 381.167C1086.6 381.167 1084.24 383.519 1084.24 386.526C1084.11 389.532 1086.6 391.885 1089.6 391.885Z" fill="#BAC0CB"/>
<path opacity="0.5" fill-rule="evenodd" clip-rule="evenodd" d="M1068.17 363.912C1070.26 363.912 1071.96 362.213 1071.96 360.122C1071.96 358.161 1070.26 356.462 1068.17 356.462C1066.21 356.462 1064.52 358.161 1064.52 360.122C1064.39 362.213 1066.08 363.912 1068.17 363.912Z" fill="#BAC0CB"/>
<path opacity="0.5" fill-rule="evenodd" clip-rule="evenodd" d="M1051.06 495.803C1049.49 495.803 1048.19 497.11 1048.19 498.809C1048.19 500.378 1049.49 501.816 1051.06 501.816C1052.76 501.816 1054.06 500.378 1054.06 498.809C1054.06 496.979 1052.76 495.803 1051.06 495.803Z" fill="#BAC0CB"/>
</g>
<path fill-rule="evenodd" clip-rule="evenodd" d="M936.634 578.414C935.72 578.414 934.936 579.199 934.936 580.114C934.936 581.029 935.72 581.813 936.634 581.813C937.548 581.813 938.332 581.029 938.332 580.114C938.332 579.199 937.548 578.414 936.634 578.414Z" fill="#BAC0CB"/>
<path fill-rule="evenodd" clip-rule="evenodd" d="M943.427 586.78C942.12 586.78 941.206 587.825 941.206 589.002C941.206 590.309 942.251 591.355 943.427 591.355C944.733 591.355 945.647 590.309 945.647 589.002C945.647 587.825 944.602 586.78 943.427 586.78Z" fill="#BAC0CB"/>
<path fill-rule="evenodd" clip-rule="evenodd" d="M939.115 584.426C938.462 584.426 937.94 584.949 937.94 585.603C937.94 586.256 938.462 586.779 939.115 586.779C939.769 586.779 940.291 586.256 940.291 585.603C940.291 584.949 939.769 584.426 939.115 584.426Z" fill="#BAC0CB"/>
<path fill-rule="evenodd" clip-rule="evenodd" d="M959.229 566.388C958.707 566.388 958.315 566.65 957.923 567.042C957.793 564.166 955.441 561.813 952.437 561.813C951.784 561.813 951.261 561.944 950.739 562.075C949.825 560.637 948.127 559.722 946.298 559.591C945.775 556.585 943.163 554.362 939.897 554.362C936.371 554.362 933.366 557.238 933.366 560.898C933.366 561.682 933.497 562.467 933.758 563.12C932.713 563.512 931.929 564.427 931.929 565.604C931.929 567.042 933.105 568.218 934.542 568.218C935.587 568.218 936.501 567.564 937.024 566.649C937.938 567.042 938.852 567.303 939.897 567.303C940.159 567.303 940.289 567.303 940.55 567.303C940.681 567.695 940.812 567.957 941.073 568.349C939.375 568.741 937.938 569.917 937.285 571.486C936.762 570.309 935.456 569.394 934.019 569.394C932.06 569.394 930.493 570.963 930.493 572.924C930.493 574.884 932.06 576.453 934.019 576.453C935.326 576.453 936.371 575.799 937.024 574.754C937.546 576.976 939.636 578.544 941.987 578.544C942.118 578.544 942.379 578.544 942.51 578.544C942.64 579.067 942.771 579.59 943.032 579.982C942.118 580.636 941.465 581.682 941.465 582.858C941.465 584.819 943.032 586.387 944.992 586.387C946.951 586.387 948.518 584.819 948.518 582.858C948.518 582.597 948.518 582.335 948.388 582.204C949.563 581.812 950.608 580.897 951 579.721C951.392 580.113 952.045 580.374 952.698 580.374C954.135 580.374 955.311 579.198 955.311 577.76C955.311 576.322 954.135 575.146 952.698 575.146C952.045 575.146 951.392 575.407 950.87 575.799C950.086 574.492 948.649 573.447 947.082 573.447C947.082 572.662 946.82 571.878 946.559 571.224C947.082 571.224 947.604 571.094 948.127 570.832C949.172 572.139 950.739 573.054 952.437 573.054C954.919 573.054 957.139 571.355 957.793 569.002C958.054 569.525 958.576 569.917 959.229 569.917C960.144 569.917 960.928 569.133 960.928 568.218C960.797 567.172 960.144 566.388 959.229 566.388Z" fill="#B2B2B2"/>
<path fill-rule="evenodd" clip-rule="evenodd" d="M951.657 582.466C951.004 582.466 950.482 582.989 950.482 583.642C950.482 584.296 951.004 584.819 951.657 584.819C952.31 584.819 952.833 584.296 952.833 583.642C952.833 582.989 952.31 582.466 951.657 582.466Z" fill="#BAC0CB"/>
<path fill-rule="evenodd" clip-rule="evenodd" d="M928.143 561.29C926.837 561.29 925.792 562.336 925.792 563.512C925.792 564.82 926.837 565.735 928.143 565.735C929.319 565.735 930.364 564.689 930.364 563.512C930.364 562.336 929.449 561.29 928.143 561.29Z" fill="#BAC0CB"/>
<path fill-rule="evenodd" clip-rule="evenodd" d="M952.701 560.244C953.615 560.244 954.399 559.46 954.399 558.545C954.399 557.63 953.615 556.846 952.701 556.846C951.786 556.846 951.003 557.63 951.003 558.545C951.003 559.46 951.786 560.244 952.701 560.244Z" fill="#BAC0CB"/>
<path fill-rule="evenodd" clip-rule="evenodd" d="M946.17 551.749C946.823 551.749 947.346 551.226 947.346 550.572C947.346 549.919 946.823 549.396 946.17 549.396C945.517 549.396 944.995 549.919 944.995 550.572C944.995 551.226 945.517 551.749 946.17 551.749Z" fill="#BAC0CB"/>
<path fill-rule="evenodd" clip-rule="evenodd" d="M940.945 591.746C940.422 591.746 940.03 592.138 940.03 592.661C940.03 593.183 940.422 593.576 940.945 593.576C941.467 593.576 941.859 593.183 941.859 592.661C941.859 592.138 941.467 591.746 940.945 591.746Z" fill="#BAC0CB"/>
</svg>
