<svg width="1920" height="1080" viewBox="0 0 1920 1080" fill="none" xmlns="http://www.w3.org/2000/svg">
<path d="M1329.02 711.437C1328.36 711.545 1327.75 711.761 1327.42 712.085C1326.82 712.626 1326.82 714.463 1327.42 715.004C1327.75 715.328 1328.41 715.544 1329.13 715.652C1328.41 715.814 1327.75 716.03 1327.42 716.3C1326.82 716.787 1326.82 718.678 1327.42 719.219C1327.75 719.543 1328.41 719.705 1329.13 719.867C1328.41 719.975 1327.75 720.191 1327.42 720.515C1326.82 721.002 1326.82 722.893 1327.42 723.434C1327.86 723.812 1328.74 724.082 1329.68 724.19V725.541H1331.66V724.244C1332.7 724.136 1333.58 723.92 1333.97 723.488C1334.46 722.893 1334.46 721.164 1333.97 720.57C1333.69 720.245 1333.14 720.029 1332.48 719.921C1333.14 719.813 1333.69 719.597 1333.97 719.273C1334.46 718.678 1334.46 716.949 1333.97 716.355C1333.69 716.03 1333.14 715.814 1332.48 715.706C1333.14 715.598 1333.69 715.382 1333.97 715.058C1334.46 714.517 1334.46 712.734 1333.97 712.14C1333.64 711.815 1333.03 711.599 1332.32 711.437V709.438H1335.56V710.086H1343.87L1343.81 796.71L1320.99 883.388H1324.4L1325.06 880.902L1345.74 862.745L1363.61 882.253V883.334H1366.91V882.253L1384.79 862.745L1405.46 880.848L1406.12 883.334H1409.53L1386.66 796.602V710.032H1394.91V709.384H1398.15V711.437C1397.49 711.545 1396.89 711.761 1396.56 712.085C1395.95 712.626 1395.95 714.463 1396.56 715.004C1396.89 715.328 1397.55 715.544 1398.26 715.652C1397.55 715.814 1396.89 716.03 1396.56 716.3C1395.95 716.787 1395.95 718.678 1396.56 719.219C1396.89 719.543 1397.55 719.705 1398.26 719.867C1397.55 719.975 1396.89 720.191 1396.56 720.515C1395.95 721.002 1395.95 722.893 1396.56 723.434C1397 723.812 1397.88 724.082 1398.81 724.19V725.541H1400.79V724.244C1401.83 724.136 1402.71 723.92 1403.1 723.488C1403.59 722.893 1403.59 721.164 1403.1 720.57C1402.82 720.245 1402.27 720.029 1401.61 719.921C1402.27 719.813 1402.82 719.597 1403.1 719.273C1403.59 718.678 1403.59 716.949 1403.1 716.355C1402.82 716.03 1402.27 715.814 1401.61 715.706C1402.27 715.598 1402.82 715.382 1403.1 715.058C1403.59 714.517 1403.59 712.734 1403.1 712.14C1402.77 711.815 1402.16 711.599 1401.45 711.437V709.438H1404.69V707.492H1401.45V707.006H1400.79V705.925H1398.81V707.006H1398.15V707.492H1394.91V706.844H1386.66V687.444H1394.91V686.795H1398.15V688.849C1397.49 689.011 1396.89 689.173 1396.56 689.497C1395.95 690.038 1395.95 691.875 1396.56 692.415C1396.89 692.74 1397.55 692.956 1398.26 693.064C1397.55 693.172 1396.89 693.388 1396.56 693.712C1395.95 694.253 1395.95 696.09 1396.56 696.63C1396.89 696.955 1397.55 697.117 1398.26 697.279C1397.55 697.387 1396.89 697.603 1396.56 697.927C1395.95 698.414 1395.95 700.305 1396.56 700.845C1397 701.224 1397.88 701.494 1398.81 701.602V702.953H1400.79V701.602C1401.83 701.494 1402.71 701.278 1403.1 700.845C1403.59 700.251 1403.59 698.522 1403.1 697.927C1402.82 697.603 1402.27 697.387 1401.61 697.279C1402.27 697.117 1402.82 696.955 1403.1 696.63C1403.59 696.036 1403.59 694.307 1403.1 693.712C1402.82 693.388 1402.27 693.172 1401.61 693.064C1402.27 692.956 1402.82 692.74 1403.1 692.415C1403.59 691.875 1403.59 690.092 1403.1 689.497C1402.77 689.173 1402.16 688.957 1401.45 688.849V686.849H1404.69V684.904H1401.45V684.364H1400.79V683.283H1398.81V684.364H1398.15V684.85H1394.91V684.202H1386.66V677.231L1369.77 623.841H1366.91V622.219H1363.61V623.841H1360.75L1343.92 676.744V684.202H1335.62V684.85H1332.37V684.364H1331.71V683.283H1329.73V684.364H1329.07V684.85H1325.77V686.795H1329.02V688.849C1328.36 689.011 1327.75 689.173 1327.42 689.497C1326.82 690.038 1326.82 691.875 1327.42 692.415C1327.75 692.74 1328.41 692.956 1329.13 693.064C1328.41 693.172 1327.75 693.388 1327.42 693.712C1326.82 694.253 1326.82 696.09 1327.42 696.63C1327.75 696.955 1328.41 697.117 1329.13 697.279C1328.41 697.387 1327.75 697.603 1327.42 697.927C1326.82 698.414 1326.82 700.305 1327.42 700.845C1327.86 701.224 1328.74 701.494 1329.68 701.602V702.953H1331.66V701.602C1332.7 701.494 1333.58 701.278 1333.97 700.845C1334.46 700.251 1334.46 698.522 1333.97 697.927C1333.69 697.603 1333.14 697.387 1332.48 697.279C1333.14 697.117 1333.69 696.955 1333.97 696.63C1334.46 696.036 1334.46 694.307 1333.97 693.712C1333.69 693.388 1333.14 693.172 1332.48 693.064C1333.14 692.956 1333.69 692.74 1333.97 692.415C1334.46 691.875 1334.46 690.092 1333.97 689.497C1333.64 689.173 1333.03 688.957 1332.32 688.849V686.849H1335.56V687.498H1343.87V706.898H1335.62V707.546H1332.37V707.06H1331.71V705.979H1329.73V707.06H1329.07V707.546H1325.77V709.492H1329.02V711.437ZM1404.58 877.497L1386.11 861.34L1397.11 849.289L1404.58 877.497ZM1395.79 844.102L1379.95 830.268L1389.41 819.946L1395.79 844.102ZM1388.31 815.731L1377.91 806.599L1384.13 799.844L1388.31 815.731ZM1382.92 775.851H1367.35L1375.11 768.232L1382.92 775.851ZM1376.54 766.827L1383.36 760.126V773.527L1376.54 766.827ZM1383.36 780.444V793.9L1376.54 787.145L1383.36 780.444ZM1381.98 779.093L1375.16 785.794L1368.29 779.093H1381.98ZM1381.98 795.251H1368.29L1375.11 788.55L1381.98 795.251ZM1382.7 798.493L1376.43 805.356L1368.62 798.493H1382.7ZM1383.36 754.236L1376.54 747.535L1383.36 740.834V754.236ZM1376.92 706.79L1383.36 700.467V706.79H1376.92ZM1383.36 710.032V713.923L1379.4 710.032H1383.36ZM1383.19 716.517H1367.08L1373.68 710.032H1376.65L1383.19 716.517ZM1382.37 719.759L1375.11 726.892L1367.85 719.759H1382.37ZM1383.36 721.542V734.944L1376.54 728.243L1383.36 721.542ZM1383.36 694.847L1376.54 688.146L1377.31 687.39H1383.41V694.847H1383.36ZM1383.36 684.148H1380.55L1383.36 681.392V684.148ZM1377.8 684.148H1372.52L1367.08 678.798H1383.3L1377.8 684.148ZM1369.28 675.555L1374.23 670.692L1380.28 675.555H1369.28ZM1382.59 674.961L1375.6 669.341L1379.56 665.45L1382.59 674.961ZM1377.91 660.263L1372.69 655.669L1375.44 652.643L1377.91 660.263ZM1371.59 640.43L1372.96 644.808L1370.82 641.998L1371.59 640.43ZM1366.91 627.083H1367.35L1370.71 637.674L1369.5 640.16L1366.86 636.648V627.083H1366.91ZM1366.91 639.944L1368.56 642.16L1366.91 645.564V639.944ZM1366.91 650.103L1369.88 643.943L1374.78 650.482L1371.26 654.372L1366.91 650.482V650.103ZM1366.91 653.075L1369.94 655.777L1366.91 659.074V653.075ZM1366.91 661.992L1371.42 657.074L1378.74 663.559L1374.12 668.098L1366.97 662.37V661.992H1366.91ZM1366.91 664.91L1372.63 669.503L1366.91 675.177V664.91ZM1366.91 681.446L1369.72 684.202H1366.91V681.446ZM1366.91 687.39H1372.96L1373.73 688.146L1366.91 694.847V687.39ZM1366.91 697.603L1375.16 689.497L1383.41 697.603V697.765L1375.16 705.871L1366.91 697.765V697.603ZM1366.91 700.521L1373.35 706.844H1366.91V700.521ZM1366.91 710.032H1370.87L1366.91 713.923V710.032ZM1366.91 721.542L1373.73 728.243L1366.91 734.944V721.542ZM1366.91 737.7L1375.16 729.594L1383.41 737.7V738.078L1375.16 746.184L1366.91 738.078V737.7ZM1366.91 740.834L1373.73 747.535L1366.91 754.236V740.834ZM1366.91 756.991L1375.16 748.886L1383.41 756.991V757.37L1375.16 765.476L1366.91 757.37V756.991ZM1366.91 760.126L1373.73 766.827L1366.91 773.527V760.126ZM1366.91 780.444L1373.73 787.145L1366.91 793.846V780.444ZM1366.91 799.574L1375.11 806.761L1366.91 815.677V799.574ZM1366.91 818.595L1376.59 808.058L1388.25 818.271L1378.46 828.917L1366.91 818.812V818.595ZM1366.91 821.405L1377.14 830.376L1366.91 841.562V821.405ZM1366.91 844.48L1378.63 831.673L1396.39 847.182L1384.68 859.989L1366.91 844.48ZM1366.91 847.128L1383.3 861.502L1366.91 879.389V847.128ZM1341.12 819.946L1350.58 830.268L1334.74 844.102L1341.12 819.946ZM1325.94 877.497L1333.42 849.289L1344.47 861.34L1325.94 877.497ZM1363.61 879.389L1347.22 861.502L1363.61 847.128V879.389ZM1363.61 844.48L1345.9 859.989L1334.19 847.182L1351.9 831.673L1363.61 844.48ZM1363.61 841.562L1353.38 830.376L1363.61 821.405V841.562ZM1363.61 818.812L1352.06 828.917L1342.27 818.271L1353.93 808.058L1363.61 818.595V818.812ZM1362.24 779.093L1355.42 785.794L1348.6 779.093H1362.24ZM1347.61 775.851L1355.36 768.232L1363.12 775.851H1347.61ZM1362.24 795.251H1348.54L1355.36 788.55L1362.24 795.251ZM1361.91 798.493L1354.1 805.356L1347.83 798.493H1361.91ZM1363.61 815.731L1355.42 806.815L1363.61 799.628V815.731ZM1363.61 793.846L1356.79 787.145L1363.61 780.444V793.846ZM1363.61 773.527L1356.79 766.827L1363.61 760.126V773.527ZM1363.61 754.236L1356.79 747.535L1363.61 740.834V754.236ZM1363.61 734.944L1356.79 728.243L1363.61 721.542V734.944ZM1362.62 719.759L1355.36 726.892L1348.1 719.759H1362.62ZM1347.33 716.517L1353.93 710.032H1356.9L1363.5 716.517H1347.33ZM1363.61 713.923L1359.65 710.032H1363.61V713.923ZM1363.61 706.79H1357.18L1363.61 700.467V706.79ZM1363.61 694.847L1356.79 688.146L1357.56 687.39H1363.67V694.847H1363.61ZM1363.61 684.148H1360.81L1363.61 681.392V684.148ZM1363.61 675.177L1357.89 669.503L1363.61 664.91V675.177ZM1361.25 675.555H1350.25L1356.3 670.692L1361.25 675.555ZM1363.61 659.074L1360.59 655.777L1363.61 653.075V659.074ZM1363.61 645.564L1361.96 642.106L1363.61 639.89V645.564ZM1363.17 627.083H1363.61V636.648L1360.97 640.16L1359.76 637.674L1363.17 627.083ZM1358.94 640.43L1359.65 641.943L1357.51 644.753L1358.94 640.43ZM1360.64 643.943L1363.61 650.103V650.482L1359.27 654.372L1355.75 650.482L1360.64 643.943ZM1355.03 652.643L1357.78 655.669L1352.61 660.263L1355.03 652.643ZM1359.1 657.074L1363.61 661.992V662.424L1356.46 668.152L1351.84 663.613L1359.1 657.074ZM1350.96 665.45L1354.92 669.341L1347.94 674.907L1350.96 665.45ZM1363.5 678.798L1358.06 684.148H1352.78L1347.33 678.798H1363.5ZM1347.17 681.446L1349.97 684.202H1347.17V681.446ZM1347.17 687.39H1353.27L1353.99 688.146L1347.17 694.847V687.39ZM1347.17 697.603L1355.42 689.497L1363.67 697.603V697.765L1355.42 705.871L1347.17 697.765V697.603ZM1347.17 700.521L1353.6 706.844H1347.17V700.521ZM1347.17 710.032H1351.13L1347.17 713.923V710.032ZM1347.17 721.542L1353.99 728.243L1347.17 734.944V721.542ZM1347.17 737.7L1355.42 729.594L1363.67 737.7V738.078L1355.42 746.184L1347.17 738.078V737.7ZM1347.17 740.834L1353.99 747.535L1347.17 754.236V740.834ZM1347.17 756.991L1355.42 748.886L1363.67 756.991V757.37L1355.42 765.476L1347.17 757.37V756.991ZM1347.17 760.126L1353.99 766.827L1347.17 773.527V760.126ZM1347.17 780.444L1353.99 787.145L1347.17 793.846V780.444ZM1346.4 799.844L1352.61 806.599L1342.22 815.677L1346.4 799.844Z" fill="#545454"/>
<path d="M523.89 771.033C523.392 771.115 522.936 771.28 522.687 771.527C522.231 771.938 522.231 773.338 522.687 773.75C522.936 773.997 523.434 774.162 523.973 774.244C523.434 774.367 522.936 774.532 522.687 774.738C522.231 775.109 522.231 776.55 522.687 776.961C522.936 777.208 523.434 777.332 523.973 777.455C523.434 777.538 522.936 777.702 522.687 777.949C522.231 778.32 522.231 779.761 522.687 780.173C523.019 780.461 523.683 780.667 524.388 780.749V781.778H525.882V780.79C526.67 780.708 527.334 780.543 527.624 780.214C527.998 779.761 527.998 778.444 527.624 777.991C527.417 777.744 527.002 777.579 526.504 777.497C527.002 777.414 527.417 777.25 527.624 777.002C527.998 776.55 527.998 775.232 527.624 774.779C527.417 774.532 527.002 774.367 526.504 774.285C527.002 774.203 527.417 774.038 527.624 773.791C527.998 773.379 527.998 772.021 527.624 771.568C527.375 771.321 526.919 771.156 526.38 771.033V769.509H528.828V770.003H535.093L535.051 836.002L517.833 902.042H520.405L520.903 900.149L536.503 886.315L549.988 901.178V902.001H552.477V901.178L565.962 886.315L581.562 900.107L582.06 902.001H584.633L567.372 835.92V769.962H573.596V769.468H576.044V771.033C575.546 771.115 575.09 771.28 574.841 771.527C574.384 771.938 574.384 773.338 574.841 773.75C575.09 773.997 575.588 774.162 576.127 774.244C575.588 774.367 575.09 774.532 574.841 774.738C574.384 775.109 574.384 776.55 574.841 776.961C575.09 777.208 575.588 777.332 576.127 777.455C575.588 777.538 575.09 777.702 574.841 777.949C574.384 778.32 574.384 779.761 574.841 780.173C575.173 780.461 575.837 780.667 576.542 780.749V781.778H578.036V780.79C578.824 780.708 579.488 780.543 579.778 780.214C580.152 779.761 580.152 778.444 579.778 777.991C579.571 777.744 579.156 777.579 578.658 777.497C579.156 777.414 579.571 777.25 579.778 777.002C580.152 776.55 580.152 775.232 579.778 774.779C579.571 774.532 579.156 774.367 578.658 774.285C579.156 774.203 579.571 774.038 579.778 773.791C580.152 773.379 580.152 772.021 579.778 771.568C579.529 771.321 579.073 771.156 578.533 771.033V769.509H580.981V768.027H578.533V767.656H578.036V766.833H576.542V767.656H576.044V768.027H573.596V767.533H567.372V752.752H573.596V752.258H576.044V753.823C575.546 753.946 575.09 754.07 574.841 754.317C574.384 754.728 574.384 756.128 574.841 756.54C575.09 756.787 575.588 756.952 576.127 757.034C575.588 757.116 575.09 757.281 574.841 757.528C574.384 757.94 574.384 759.34 574.841 759.751C575.09 759.998 575.588 760.122 576.127 760.245C575.588 760.328 575.09 760.492 574.841 760.739C574.384 761.11 574.384 762.551 574.841 762.963C575.173 763.251 575.837 763.457 576.542 763.539V764.568H578.036V763.539C578.824 763.457 579.488 763.292 579.778 762.963C580.152 762.51 580.152 761.192 579.778 760.739C579.571 760.492 579.156 760.328 578.658 760.245C579.156 760.122 579.571 759.998 579.778 759.751C580.152 759.298 580.152 757.981 579.778 757.528C579.571 757.281 579.156 757.116 578.658 757.034C579.156 756.952 579.571 756.787 579.778 756.54C580.152 756.128 580.152 754.769 579.778 754.317C579.529 754.07 579.073 753.905 578.533 753.823V752.299H580.981V750.817H578.533V750.405H578.036V749.582H576.542V750.405H576.044V750.776H573.596V750.282H567.372V744.971L554.635 704.292H552.477V703.057H549.988V704.292H547.83L535.134 744.6V750.282H528.869V750.776H526.421V750.405H525.923V749.582H524.43V750.405H523.932V750.776H521.442V752.258H523.89V753.823C523.392 753.946 522.936 754.07 522.687 754.317C522.231 754.728 522.231 756.128 522.687 756.54C522.936 756.787 523.434 756.952 523.973 757.034C523.434 757.116 522.936 757.281 522.687 757.528C522.231 757.94 522.231 759.34 522.687 759.751C522.936 759.998 523.434 760.122 523.973 760.245C523.434 760.328 522.936 760.492 522.687 760.739C522.231 761.11 522.231 762.551 522.687 762.963C523.019 763.251 523.683 763.457 524.388 763.539V764.568H525.882V763.539C526.67 763.457 527.334 763.292 527.624 762.963C527.998 762.51 527.998 761.192 527.624 760.739C527.417 760.492 527.002 760.328 526.504 760.245C527.002 760.122 527.417 759.998 527.624 759.751C527.998 759.298 527.998 757.981 527.624 757.528C527.417 757.281 527.002 757.116 526.504 757.034C527.002 756.952 527.417 756.787 527.624 756.54C527.998 756.128 527.998 754.769 527.624 754.317C527.375 754.07 526.919 753.905 526.38 753.823V752.299H528.828V752.793H535.093V767.574H528.869V768.068H526.421V767.698H525.923V766.874H524.43V767.698H523.932V768.068H521.442V769.55H523.89V771.033ZM580.898 897.555L566.958 885.244L575.256 876.063L580.898 897.555ZM574.26 872.11L562.311 861.57L569.447 853.706L574.26 872.11ZM568.617 850.495L560.775 843.537L565.464 838.39L568.617 850.495ZM564.551 820.11H552.809L558.659 814.305L564.551 820.11ZM559.738 813.234L564.883 808.129V818.339L559.738 813.234ZM564.883 823.609V833.861L559.738 828.715L564.883 823.609ZM563.846 822.58L558.701 827.685L553.515 822.58H563.846ZM563.846 834.891H553.515L558.659 829.785L563.846 834.891ZM564.385 837.361L559.655 842.59L553.763 837.361H564.385ZM564.883 803.641L559.738 798.536L564.883 793.43V803.641ZM560.029 767.492L564.883 762.675V767.492H560.029ZM564.883 769.962V772.926L561.896 769.962H564.883ZM564.758 774.903H552.602L557.581 769.962H559.821L564.758 774.903ZM564.136 777.373L558.659 782.808L553.183 777.373H564.136ZM564.883 778.732V788.942L559.738 783.837L564.883 778.732ZM564.883 758.393L559.738 753.287L560.319 752.711H564.924V758.393H564.883ZM564.883 750.241H562.767L564.883 748.141V750.241ZM560.692 750.241H556.709L552.602 746.164H564.841L560.692 750.241ZM554.261 743.694L557.996 739.989L562.559 743.694H554.261ZM564.302 743.241L559.033 738.959L562.02 735.995L564.302 743.241ZM560.775 732.042L556.834 728.543L558.908 726.237L560.775 732.042ZM556.004 716.932L557.041 720.267L555.423 718.126L556.004 716.932ZM552.477 706.763H552.809L555.34 714.832L554.427 716.726L552.436 714.05V706.763H552.477ZM552.477 716.562L553.722 718.25L552.477 720.844V716.562ZM552.477 724.302L554.718 719.608L558.41 724.59L555.755 727.555L552.477 724.59V724.302ZM552.477 726.567L554.759 728.625L552.477 731.137V726.567ZM552.477 733.36L555.879 729.613L561.398 734.554L557.913 738.012L552.519 733.648V733.36H552.477ZM552.477 735.583L556.792 739.083L552.477 743.406V735.583ZM552.477 748.182L554.593 750.282H552.477V748.182ZM552.477 752.711H557.041L557.622 753.287L552.477 758.393V752.711ZM552.477 760.492L558.701 754.317L564.924 760.492V760.616L558.701 766.792L552.477 760.616V760.492ZM552.477 762.716L557.332 767.533H552.477V762.716ZM552.477 769.962H555.465L552.477 772.926V769.962ZM552.477 778.732L557.622 783.837L552.477 788.942V778.732ZM552.477 791.042L558.701 784.866L564.924 791.042V791.33L558.701 797.506L552.477 791.33V791.042ZM552.477 793.43L557.622 798.536L552.477 803.641V793.43ZM552.477 805.741L558.701 799.565L564.924 805.741V806.029L558.701 812.205L552.477 806.029V805.741ZM552.477 808.129L557.622 813.234L552.477 818.339V808.129ZM552.477 823.609L557.622 828.715L552.477 833.82V823.609ZM552.477 838.184L558.659 843.66L552.477 850.454V838.184ZM552.477 852.677L559.78 844.648L568.576 852.43L561.19 860.541L552.477 852.842V852.677ZM552.477 854.818L560.195 861.653L552.477 870.175V854.818ZM552.477 872.398L561.315 862.641L574.716 874.457L565.879 884.215L552.477 872.398ZM552.477 874.416L564.841 885.368L552.477 898.996V874.416ZM533.018 853.706L540.155 861.57L528.205 872.11L533.018 853.706ZM521.567 897.555L527.209 876.063L535.549 885.244L521.567 897.555ZM549.988 898.996L537.624 885.368L549.988 874.416V898.996ZM549.988 872.398L536.628 884.215L527.79 874.457L541.15 862.641L549.988 872.398ZM549.988 870.175L542.271 861.653L549.988 854.818V870.175ZM549.988 852.842L541.275 860.541L533.889 852.43L542.685 844.648L549.988 852.677V852.842ZM548.951 822.58L543.806 827.685L538.661 822.58H548.951ZM537.914 820.11L543.764 814.305L549.614 820.11H537.914ZM548.951 834.891H538.619L543.764 829.785L548.951 834.891ZM548.702 837.361L542.81 842.59L538.08 837.361H548.702ZM549.988 850.495L543.806 843.701L549.988 838.226V850.495ZM549.988 833.82L544.843 828.715L549.988 823.609V833.82ZM549.988 818.339L544.843 813.234L549.988 808.129V818.339ZM549.988 803.641L544.843 798.536L549.988 793.43V803.641ZM549.988 788.942L544.843 783.837L549.988 778.732V788.942ZM549.241 777.373L543.764 782.808L538.287 777.373H549.241ZM537.707 774.903L542.685 769.962H544.926L549.905 774.903H537.707ZM549.988 772.926L547 769.962H549.988V772.926ZM549.988 767.492H545.133L549.988 762.675V767.492ZM549.988 758.393L544.843 753.287L545.424 752.711H550.029V758.393H549.988ZM549.988 750.241H547.872L549.988 748.141V750.241ZM549.988 743.406L545.673 739.083L549.988 735.583V743.406ZM548.204 743.694H539.906L544.47 739.989L548.204 743.694ZM549.988 731.137L547.706 728.625L549.988 726.567V731.137ZM549.988 720.844L548.743 718.209L549.988 716.521V720.844ZM549.656 706.763H549.988V714.05L547.996 716.726L547.083 714.832L549.656 706.763ZM546.461 716.932L547 718.085L545.382 720.226L546.461 716.932ZM547.747 719.608L549.988 724.302V724.59L546.71 727.555L544.055 724.59L547.747 719.608ZM543.515 726.237L545.59 728.543L541.69 732.042L543.515 726.237ZM546.586 729.613L549.988 733.36V733.689L544.594 738.054L541.109 734.595L546.586 729.613ZM540.445 735.995L543.432 738.959L538.163 743.2L540.445 735.995ZM549.905 746.164L545.797 750.241H541.814L537.707 746.164H549.905ZM537.582 748.182L539.698 750.282H537.582V748.182ZM537.582 752.711H542.188L542.727 753.287L537.582 758.393V752.711ZM537.582 760.492L543.806 754.317L550.029 760.492V760.616L543.806 766.792L537.582 760.616V760.492ZM537.582 762.716L542.437 767.533H537.582V762.716ZM537.582 769.962H540.569L537.582 772.926V769.962ZM537.582 778.732L542.727 783.837L537.582 788.942V778.732ZM537.582 791.042L543.806 784.866L550.029 791.042V791.33L543.806 797.506L537.582 791.33V791.042ZM537.582 793.43L542.727 798.536L537.582 803.641V793.43ZM537.582 805.741L543.806 799.565L550.029 805.741V806.029L543.806 812.205L537.582 806.029V805.741ZM537.582 808.129L542.727 813.234L537.582 818.339V808.129ZM537.582 823.609L542.727 828.715L537.582 833.82V823.609ZM537.001 838.39L541.69 843.537L533.848 850.454L537.001 838.39Z" fill="#545454"/>
<path d="M656.093 598.369C637.451 640.083 585.875 735.948 525.6 751.494" stroke="#878787" stroke-linecap="round"/>
<path d="M656.093 634.901C637.451 676.615 585.875 753.049 525.6 768.594" stroke="#878787" stroke-linecap="round"/>
<path d="M764.837 598.369C746.195 640.083 638.694 735.948 578.419 751.494" stroke="#878787" stroke-linecap="round"/>
<path d="M764.837 637.233C746.195 678.947 638.694 753.049 578.419 768.594" stroke="#878787" stroke-linecap="round"/>
<path d="M1293.8 600.701C1312.44 642.415 1339.16 670.656 1399.44 686.202" stroke="#878787" stroke-linecap="round"/>
<path d="M1293.02 636.456C1311.67 678.17 1339.94 693.198 1400.21 708.743" stroke="#878787" stroke-linecap="round"/>
<path d="M1185.06 600.701C1203.7 642.415 1269.25 670.656 1329.53 686.202" stroke="#878787" stroke-linecap="round"/>
<path d="M1187.39 637.233C1206.03 678.947 1270.03 693.198 1330.31 708.743" stroke="#878787" stroke-linecap="round"/>
<path d="M1182.84 640.669C1181.81 640.841 1180.86 641.183 1180.35 641.696C1179.4 642.552 1179.4 645.461 1180.35 646.316C1180.86 646.83 1181.89 647.172 1183.01 647.343C1181.89 647.6 1180.86 647.942 1180.35 648.37C1179.4 649.14 1179.4 652.135 1180.35 652.99C1180.86 653.504 1181.89 653.76 1183.01 654.017C1181.89 654.188 1180.86 654.53 1180.35 655.044C1179.4 655.814 1179.4 658.808 1180.35 659.664C1181.03 660.263 1182.41 660.691 1183.87 660.862V663.001H1186.96V660.947C1188.59 660.776 1189.96 660.434 1190.56 659.75C1191.34 658.808 1191.34 656.07 1190.56 655.129C1190.14 654.616 1189.28 654.274 1188.25 654.102C1189.28 653.931 1190.14 653.589 1190.56 653.076C1191.34 652.135 1191.34 649.397 1190.56 648.455C1190.14 647.942 1189.28 647.6 1188.25 647.429C1189.28 647.258 1190.14 646.915 1190.56 646.402C1191.34 645.546 1191.34 642.723 1190.56 641.782C1190.05 641.268 1189.1 640.926 1187.99 640.669V637.504H1193.05V638.53H1206.02L1205.94 775.685L1170.3 912.924H1175.62L1176.65 908.989L1208.94 880.24L1236.85 911.128V912.839H1242V911.128L1269.91 880.24L1302.2 908.903L1303.23 912.839H1308.56L1272.83 775.514V638.445H1285.72V637.418H1290.78V640.669C1289.75 640.841 1288.81 641.183 1288.29 641.696C1287.35 642.552 1287.35 645.461 1288.29 646.316C1288.81 646.83 1289.84 647.172 1290.95 647.343C1289.84 647.6 1288.81 647.942 1288.29 648.37C1287.35 649.14 1287.35 652.135 1288.29 652.99C1288.81 653.504 1289.84 653.76 1290.95 654.017C1289.84 654.188 1288.81 654.53 1288.29 655.044C1287.35 655.814 1287.35 658.808 1288.29 659.664C1288.98 660.263 1290.35 660.691 1291.81 660.862V663.001H1294.9V660.947C1296.54 660.776 1297.91 660.434 1298.51 659.75C1299.28 658.808 1299.28 656.07 1298.51 655.129C1298.08 654.616 1297.22 654.274 1296.19 654.102C1297.22 653.931 1298.08 653.589 1298.51 653.076C1299.28 652.135 1299.28 649.397 1298.51 648.455C1298.08 647.942 1297.22 647.6 1296.19 647.429C1297.22 647.258 1298.08 646.915 1298.51 646.402C1299.28 645.546 1299.28 642.723 1298.51 641.782C1298 641.268 1297.05 640.926 1295.93 640.669V637.504H1301V634.423H1295.93V633.653H1294.9V631.942H1291.81V633.653H1290.78V634.423H1285.72V633.397H1272.83V602.68H1285.72V601.654H1290.78V604.905C1289.75 605.162 1288.81 605.418 1288.29 605.932C1287.35 606.787 1287.35 609.696 1288.29 610.552C1288.81 611.065 1289.84 611.408 1290.95 611.579C1289.84 611.75 1288.81 612.092 1288.29 612.605C1287.35 613.461 1287.35 616.37 1288.29 617.226C1288.81 617.739 1289.84 617.996 1290.95 618.252C1289.84 618.424 1288.81 618.766 1288.29 619.279C1287.35 620.049 1287.35 623.044 1288.29 623.899C1288.98 624.498 1290.35 624.926 1291.81 625.097V627.236H1294.9V625.097C1296.54 624.926 1297.91 624.584 1298.51 623.899C1299.28 622.958 1299.28 620.22 1298.51 619.279C1298.08 618.766 1297.22 618.424 1296.19 618.252C1297.22 617.996 1298.08 617.739 1298.51 617.226C1299.28 616.285 1299.28 613.547 1298.51 612.605C1298.08 612.092 1297.22 611.75 1296.19 611.579C1297.22 611.408 1298.08 611.065 1298.51 610.552C1299.28 609.696 1299.28 606.873 1298.51 605.932C1298 605.418 1297.05 605.076 1295.93 604.905V601.739H1301V598.659H1295.93V597.803H1294.9V596.092H1291.81V597.803H1290.78V598.573H1285.72V597.547H1272.83V586.509L1246.47 501.975H1242V499.408H1236.85V501.975H1232.39L1206.11 585.739V597.547H1193.14V598.573H1188.07V597.803H1187.04V596.092H1183.95V597.803H1182.92V598.573H1177.77V601.654H1182.84V604.905C1181.81 605.162 1180.86 605.418 1180.35 605.932C1179.4 606.787 1179.4 609.696 1180.35 610.552C1180.86 611.065 1181.89 611.408 1183.01 611.579C1181.89 611.75 1180.86 612.092 1180.35 612.605C1179.4 613.461 1179.4 616.37 1180.35 617.226C1180.86 617.739 1181.89 617.996 1183.01 618.252C1181.89 618.424 1180.86 618.766 1180.35 619.279C1179.4 620.049 1179.4 623.044 1180.35 623.899C1181.03 624.498 1182.41 624.926 1183.87 625.097V627.236H1186.96V625.097C1188.59 624.926 1189.96 624.584 1190.56 623.899C1191.34 622.958 1191.34 620.22 1190.56 619.279C1190.14 618.766 1189.28 618.424 1188.25 618.252C1189.28 617.996 1190.14 617.739 1190.56 617.226C1191.34 616.285 1191.34 613.547 1190.56 612.605C1190.14 612.092 1189.28 611.75 1188.25 611.579C1189.28 611.408 1190.14 611.065 1190.56 610.552C1191.34 609.696 1191.34 606.873 1190.56 605.932C1190.05 605.418 1189.1 605.076 1187.99 604.905V601.739H1193.05V602.766H1206.02V633.482H1193.14V634.509H1188.07V633.739H1187.04V632.028H1183.95V633.739H1182.92V634.509H1177.77V637.589H1182.84V640.669ZM1300.83 903.598L1271.97 878.016L1289.15 858.936L1300.83 903.598ZM1287.09 850.722L1262.36 828.818L1277.13 812.476L1287.09 850.722ZM1275.41 805.802L1259.18 791.342L1268.88 780.647L1275.41 805.802ZM1266.99 742.658H1242.69L1254.8 730.594L1266.99 742.658ZM1257.03 728.369L1267.68 717.76V738.979L1257.03 728.369ZM1267.68 749.931V771.235L1257.03 760.54L1267.68 749.931ZM1265.53 747.792L1254.89 758.401L1244.15 747.792H1265.53ZM1265.53 773.375H1244.15L1254.8 762.765L1265.53 773.375ZM1266.65 778.508L1256.86 789.374L1244.67 778.508H1266.65ZM1267.68 708.434L1257.03 697.824L1267.68 687.215V708.434ZM1257.63 633.311L1267.68 623.301V633.311H1257.63ZM1267.68 638.445V644.605L1261.5 638.445H1267.68ZM1267.42 648.712H1242.26L1252.57 638.445H1257.2L1267.42 648.712ZM1266.14 653.846L1254.8 665.14L1243.46 653.846H1266.14ZM1267.68 656.669V677.888L1257.03 667.279L1267.68 656.669ZM1267.68 614.402L1257.03 603.793L1258.23 602.595H1267.77V614.402H1267.68ZM1267.68 597.461H1263.3L1267.68 593.097V597.461ZM1259.01 597.461H1250.76L1242.26 588.991H1267.6L1259.01 597.461ZM1245.7 583.857L1253.43 576.156L1262.87 583.857H1245.7ZM1266.48 582.916L1255.57 574.017L1261.76 567.857L1266.48 582.916ZM1259.18 559.643L1251.02 552.37L1255.31 547.579L1259.18 559.643ZM1249.3 528.242L1251.45 535.173L1248.1 530.724L1249.3 528.242ZM1242 507.109H1242.69L1247.93 523.879L1246.04 527.814L1241.92 522.253V507.109H1242ZM1242 527.472L1244.58 530.98L1242 536.371V527.472ZM1242 543.558L1246.64 533.804L1254.28 544.157L1248.79 550.317L1242 544.157V543.558ZM1242 548.264L1246.73 552.542L1242 557.761V548.264ZM1242 562.381L1249.05 554.595L1260.47 564.862L1253.25 572.049L1242.09 562.98V562.381H1242ZM1242 567.001L1250.94 574.274L1242 583.258V567.001ZM1242 593.183L1246.38 597.547H1242V593.183ZM1242 602.595H1251.45L1252.65 603.793L1242 614.402V602.595ZM1242 618.766L1254.89 605.932L1267.77 618.766V619.022L1254.89 631.857L1242 619.022V618.766ZM1242 623.386L1252.05 633.397H1242V623.386ZM1242 638.445H1248.19L1242 644.605V638.445ZM1242 656.669L1252.65 667.279L1242 677.888V656.669ZM1242 682.252L1254.89 669.418L1267.77 682.252V682.851L1254.89 695.685L1242 682.851V682.252ZM1242 687.215L1252.65 697.824L1242 708.434V687.215ZM1242 712.797L1254.89 699.963L1267.77 712.797V713.396L1254.89 726.23L1242 713.396V712.797ZM1242 717.76L1252.65 728.369L1242 738.979V717.76ZM1242 749.931L1252.65 760.54L1242 771.15V749.931ZM1242 780.219L1254.8 791.599L1242 805.717V780.219ZM1242 810.337L1257.12 793.652L1275.32 809.823L1260.04 826.679L1242 810.679V810.337ZM1242 814.786L1257.98 828.989L1242 846.7V814.786ZM1242 851.321L1260.3 831.043L1288.03 855.599L1269.74 875.877L1242 851.321ZM1242 855.513L1267.6 878.272L1242 906.593V855.513ZM1201.73 812.476L1216.5 828.818L1191.77 850.722L1201.73 812.476ZM1178.03 903.598L1189.71 858.936L1206.97 878.016L1178.03 903.598ZM1236.85 906.593L1211.26 878.272L1236.85 855.513V906.593ZM1236.85 851.321L1209.2 875.877L1190.91 855.599L1218.56 831.043L1236.85 851.321ZM1236.85 846.7L1220.88 828.989L1236.85 814.786V846.7ZM1236.85 810.679L1218.82 826.679L1203.53 809.823L1221.74 793.652L1236.85 810.337V810.679ZM1234.7 747.792L1224.06 758.401L1213.41 747.792H1234.7ZM1211.86 742.658L1223.97 730.594L1236.08 742.658H1211.86ZM1234.7 773.375H1213.32L1223.97 762.765L1234.7 773.375ZM1234.19 778.508L1222 789.374L1212.21 778.508H1234.19ZM1236.85 805.802L1224.06 791.685L1236.85 780.305V805.802ZM1236.85 771.15L1226.2 760.54L1236.85 749.931V771.15ZM1236.85 738.979L1226.2 728.369L1236.85 717.76V738.979ZM1236.85 708.434L1226.2 697.824L1236.85 687.215V708.434ZM1236.85 677.888L1226.2 667.279L1236.85 656.669V677.888ZM1235.31 653.846L1223.97 665.14L1212.63 653.846H1235.31ZM1211.43 648.712L1221.74 638.445H1226.37L1236.68 648.712H1211.43ZM1236.85 644.605L1230.67 638.445H1236.85V644.605ZM1236.85 633.311H1226.8L1236.85 623.301V633.311ZM1236.85 614.402L1226.2 603.793L1227.41 602.595H1236.94V614.402H1236.85ZM1236.85 597.461H1232.47L1236.85 593.097V597.461ZM1236.85 583.258L1227.92 574.274L1236.85 567.001V583.258ZM1233.16 583.857H1215.98L1225.43 576.156L1233.16 583.857ZM1236.85 557.761L1232.13 552.542L1236.85 548.264V557.761ZM1236.85 536.371L1234.28 530.895L1236.85 527.387V536.371ZM1236.16 507.109H1236.85V522.253L1232.73 527.814L1230.84 523.879L1236.16 507.109ZM1229.55 528.242L1230.67 530.638L1227.32 535.087L1229.55 528.242ZM1232.21 533.804L1236.85 543.558V544.157L1230.07 550.317L1224.57 544.157L1232.21 533.804ZM1223.45 547.579L1227.75 552.37L1219.68 559.643L1223.45 547.579ZM1229.81 554.595L1236.85 562.381V563.066L1225.69 572.135L1218.47 564.948L1229.81 554.595ZM1217.1 567.857L1223.28 574.017L1212.38 582.83L1217.1 567.857ZM1236.68 588.991L1228.18 597.461H1219.93L1211.43 588.991H1236.68ZM1211.17 593.183L1215.55 597.547H1211.17V593.183ZM1211.17 602.595H1220.71L1221.82 603.793L1211.17 614.402V602.595ZM1211.17 618.766L1224.06 605.932L1236.94 618.766V619.022L1224.06 631.857L1211.17 619.022V618.766ZM1211.17 623.386L1221.22 633.397H1211.17V623.386ZM1211.17 638.445H1217.36L1211.17 644.605V638.445ZM1211.17 656.669L1221.82 667.279L1211.17 677.888V656.669ZM1211.17 682.252L1224.06 669.418L1236.94 682.252V682.851L1224.06 695.685L1211.17 682.851V682.252ZM1211.17 687.215L1221.82 697.824L1211.17 708.434V687.215ZM1211.17 712.797L1224.06 699.963L1236.94 712.797V713.396L1224.06 726.23L1211.17 713.396V712.797ZM1211.17 717.76L1221.82 728.369L1211.17 738.979V717.76ZM1211.17 749.931L1221.82 760.54L1211.17 771.15V749.931ZM1209.97 780.647L1219.68 791.342L1203.45 805.717L1209.97 780.647Z" fill="#545454"/>
<path d="M653.096 640.669C652.066 640.841 651.121 641.183 650.606 641.696C649.661 642.552 649.661 645.461 650.606 646.316C651.121 646.83 652.151 647.172 653.268 647.343C652.151 647.6 651.121 647.942 650.606 648.37C649.661 649.14 649.661 652.135 650.606 652.99C651.121 653.504 652.151 653.76 653.268 654.017C652.151 654.188 651.121 654.53 650.606 655.044C649.661 655.814 649.661 658.808 650.606 659.664C651.293 660.263 652.667 660.691 654.127 660.862V663.001H657.218V660.947C658.85 660.776 660.224 660.434 660.825 659.749C661.598 658.808 661.598 656.07 660.825 655.129C660.396 654.616 659.537 654.274 658.506 654.102C659.537 653.931 660.396 653.589 660.825 653.076C661.598 652.135 661.598 649.397 660.825 648.455C660.396 647.942 659.537 647.6 658.506 647.429C659.537 647.258 660.396 646.915 660.825 646.402C661.598 645.546 661.598 642.723 660.825 641.782C660.31 641.268 659.365 640.926 658.249 640.669V637.504H663.315V638.53H676.283L676.197 775.685L640.558 912.924H645.882L646.913 908.989L679.202 880.24L707.112 911.128V912.839H712.265V911.128L740.174 880.24L772.464 908.903L773.494 912.839H778.819L743.094 775.514V638.445H755.976V637.418H761.042V640.669C760.012 640.841 759.067 641.183 758.552 641.696C757.607 642.552 757.607 645.461 758.552 646.316C759.067 646.83 760.098 647.172 761.214 647.343C760.098 647.6 759.067 647.942 758.552 648.37C757.607 649.14 757.607 652.135 758.552 652.99C759.067 653.504 760.098 653.76 761.214 654.017C760.098 654.188 759.067 654.53 758.552 655.044C757.607 655.814 757.607 658.808 758.552 659.664C759.239 660.263 760.613 660.691 762.073 660.862V663.001H765.164V660.947C766.796 660.776 768.17 660.434 768.771 659.749C769.544 658.808 769.544 656.07 768.771 655.129C768.342 654.616 767.483 654.274 766.452 654.102C767.483 653.931 768.342 653.589 768.771 653.076C769.544 652.135 769.544 649.397 768.771 648.455C768.342 647.942 767.483 647.6 766.452 647.429C767.483 647.258 768.342 646.915 768.771 646.402C769.544 645.546 769.544 642.723 768.771 641.782C768.256 641.268 767.311 640.926 766.195 640.669V637.504H771.262V634.423H766.195V633.653H765.164V631.942H762.073V633.653H761.042V634.423H755.976V633.397H743.094V602.68H755.976V601.654H761.042V604.905C760.012 605.162 759.067 605.418 758.552 605.932C757.607 606.787 757.607 609.696 758.552 610.552C759.067 611.065 760.098 611.408 761.214 611.579C760.098 611.75 759.067 612.092 758.552 612.605C757.607 613.461 757.607 616.37 758.552 617.226C759.067 617.739 760.098 617.996 761.214 618.252C760.098 618.424 759.067 618.766 758.552 619.279C757.607 620.049 757.607 623.044 758.552 623.899C759.239 624.498 760.613 624.926 762.073 625.097V627.236H765.164V625.097C766.796 624.926 768.17 624.584 768.771 623.899C769.544 622.958 769.544 620.22 768.771 619.279C768.342 618.766 767.483 618.424 766.452 618.252C767.483 617.996 768.342 617.739 768.771 617.226C769.544 616.285 769.544 613.547 768.771 612.605C768.342 612.092 767.483 611.75 766.452 611.579C767.483 611.408 768.342 611.065 768.771 610.552C769.544 609.696 769.544 606.873 768.771 605.932C768.256 605.418 767.311 605.076 766.195 604.905V601.739H771.262V598.659H766.195V597.803H765.164V596.092H762.073V597.803H761.042V598.573H755.976V597.547H743.094V586.509L716.73 501.975H712.265V499.408H707.112V501.975H702.647L676.368 585.739V597.547H663.401V598.573H658.335V597.803H657.304V596.092H654.212V597.803H653.182V598.573H648.029V601.654H653.096V604.905C652.066 605.162 651.121 605.418 650.606 605.932C649.661 606.787 649.661 609.696 650.606 610.552C651.121 611.065 652.151 611.408 653.268 611.579C652.151 611.75 651.121 612.092 650.606 612.605C649.661 613.461 649.661 616.37 650.606 617.226C651.121 617.739 652.151 617.996 653.268 618.252C652.151 618.424 651.121 618.766 650.606 619.279C649.661 620.049 649.661 623.044 650.606 623.899C651.293 624.498 652.667 624.926 654.127 625.097V627.236H657.218V625.097C658.85 624.926 660.224 624.584 660.825 623.899C661.598 622.958 661.598 620.22 660.825 619.279C660.396 618.766 659.537 618.424 658.506 618.252C659.537 617.996 660.396 617.739 660.825 617.226C661.598 616.285 661.598 613.547 660.825 612.605C660.396 612.092 659.537 611.75 658.506 611.579C659.537 611.408 660.396 611.065 660.825 610.552C661.598 609.696 661.598 606.873 660.825 605.932C660.31 605.418 659.365 605.076 658.249 604.905V601.739H663.315V602.766H676.283V633.482H663.401V634.509H658.335V633.739H657.304V632.028H654.212V633.739H653.182V634.509H648.029V637.589H653.096V640.669ZM771.09 903.598L742.235 878.016L759.411 858.936L771.09 903.598ZM757.35 850.722L732.617 828.818L747.388 812.476L757.35 850.722ZM745.67 805.802L729.44 791.342L739.144 780.647L745.67 805.802ZM737.255 742.658H712.952L725.06 730.594L737.255 742.658ZM727.293 728.369L737.942 717.76V738.979L727.293 728.369ZM737.942 749.931V771.235L727.293 760.54L737.942 749.931ZM735.795 747.792L725.146 758.401L714.412 747.792H735.795ZM735.795 773.375H714.412L725.06 762.765L735.795 773.375ZM736.911 778.508L727.121 789.374L714.927 778.508H736.911ZM737.942 708.434L727.293 697.824L737.942 687.215V708.434ZM727.894 633.311L737.942 623.301V633.311H727.894ZM737.942 638.445V644.605L731.759 638.445H737.942ZM737.684 648.712H712.522L722.827 638.445H727.465L737.684 648.712ZM736.396 653.846L725.06 665.14L713.725 653.846H736.396ZM737.942 656.669V677.888L727.293 667.279L737.942 656.669ZM737.942 614.402L727.293 603.793L728.495 602.595H738.028V614.402H737.942ZM737.942 597.461H733.562L737.942 593.097V597.461ZM729.268 597.461H721.024L712.522 588.991H737.856L729.268 597.461ZM715.957 583.857L723.686 576.156L733.133 583.857H715.957ZM736.739 582.916L725.833 574.017L732.016 567.857L736.739 582.916ZM729.44 559.643L721.282 552.37L725.575 547.579L729.44 559.643ZM719.564 528.242L721.711 535.173L718.362 530.724L719.564 528.242ZM712.265 507.109H712.952L718.19 523.879L716.301 527.814L712.179 522.253V507.109H712.265ZM712.265 527.472L714.841 530.98L712.265 536.371V527.472ZM712.265 543.558L716.902 533.804L724.545 544.157L719.049 550.317L712.265 544.157V543.558ZM712.265 548.264L716.988 552.542L712.265 557.761V548.264ZM712.265 562.381L719.307 554.595L730.728 564.862L723.514 572.049L712.351 562.98V562.381H712.265ZM712.265 567.001L721.196 574.274L712.265 583.258V567.001ZM712.265 593.183L716.644 597.547H712.265V593.183ZM712.265 602.595H721.711L722.913 603.793L712.265 614.402V602.595ZM712.265 618.766L725.146 605.932L738.028 618.766V619.022L725.146 631.857L712.265 619.022V618.766ZM712.265 623.386L722.312 633.397H712.265V623.386ZM712.265 638.445H718.448L712.265 644.605V638.445ZM712.265 656.669L722.913 667.279L712.265 677.888V656.669ZM712.265 682.252L725.146 669.418L738.028 682.252V682.851L725.146 695.685L712.265 682.851V682.252ZM712.265 687.215L722.913 697.824L712.265 708.434V687.215ZM712.265 712.797L725.146 699.963L738.028 712.797V713.396L725.146 726.23L712.265 713.396V712.797ZM712.265 717.76L722.913 728.369L712.265 738.979V717.76ZM712.265 749.931L722.913 760.54L712.265 771.15V749.931ZM712.265 780.219L725.06 791.599L712.265 805.717V780.219ZM712.265 810.337L727.379 793.652L745.585 809.823L730.299 826.679L712.265 810.679V810.337ZM712.265 814.786L728.238 828.989L712.265 846.7V814.786ZM712.265 851.321L730.556 831.043L758.294 855.599L740.003 875.877L712.265 851.321ZM712.265 855.513L737.856 878.272L712.265 906.593V855.513ZM671.989 812.476L686.759 828.818L662.027 850.722L671.989 812.476ZM648.287 903.598L659.966 858.936L677.227 878.016L648.287 903.598ZM707.112 906.593L681.521 878.272L707.112 855.513V906.593ZM707.112 851.321L679.46 875.877L661.168 855.599L688.821 831.043L707.112 851.321ZM707.112 846.7L691.139 828.989L707.112 814.786V846.7ZM707.112 810.679L689.078 826.679L673.792 809.823L691.998 793.652L707.112 810.337V810.679ZM704.965 747.792L694.317 758.401L683.668 747.792H704.965ZM682.122 742.658L694.231 730.594L706.339 742.658H682.122ZM704.965 773.375H683.582L694.231 762.765L704.965 773.375ZM704.45 778.508L692.256 789.374L682.466 778.508H704.45ZM707.112 805.802L694.317 791.685L707.112 780.305V805.802ZM707.112 771.15L696.463 760.54L707.112 749.931V771.15ZM707.112 738.979L696.463 728.369L707.112 717.76V738.979ZM707.112 708.434L696.463 697.824L707.112 687.215V708.434ZM707.112 677.888L696.463 667.279L707.112 656.669V677.888ZM705.566 653.846L694.231 665.14L682.895 653.846H705.566ZM681.693 648.712L691.998 638.445H696.635L706.94 648.712H681.693ZM707.112 644.605L700.929 638.445H707.112V644.605ZM707.112 633.311H697.065L707.112 623.301V633.311ZM707.112 614.402L696.463 603.793L697.666 602.595H707.198V614.402H707.112ZM707.112 597.461H702.732L707.112 593.097V597.461ZM707.112 583.258L698.181 574.274L707.112 567.001V583.258ZM703.419 583.857H686.244L695.691 576.156L703.419 583.857ZM707.112 557.761L702.389 552.542L707.112 548.264V557.761ZM707.112 536.371L704.536 530.895L707.112 527.387V536.371ZM706.425 507.109H707.112V522.253L702.99 527.814L701.101 523.879L706.425 507.109ZM699.813 528.242L700.929 530.638L697.58 535.087L699.813 528.242ZM702.475 533.804L707.112 543.558V544.157L700.328 550.317L694.832 544.157L702.475 533.804ZM693.715 547.579L698.009 552.37L689.937 559.643L693.715 547.579ZM700.07 554.595L707.112 562.381V563.066L695.948 572.135L688.735 564.948L700.07 554.595ZM687.361 567.857L693.544 574.017L682.637 582.83L687.361 567.857ZM706.94 588.991L698.439 597.461H690.195L681.693 588.991H706.94ZM681.435 593.183L685.815 597.547H681.435V593.183ZM681.435 602.595H690.967L692.084 603.793L681.435 614.402V602.595ZM681.435 618.766L694.317 605.932L707.198 618.766V619.022L694.317 631.857L681.435 619.022V618.766ZM681.435 623.386L691.483 633.397H681.435V623.386ZM681.435 638.445H687.618L681.435 644.605V638.445ZM681.435 656.669L692.084 667.279L681.435 677.888V656.669ZM681.435 682.252L694.317 669.418L707.198 682.252V682.851L694.317 695.685L681.435 682.851V682.252ZM681.435 687.215L692.084 697.824L681.435 708.434V687.215ZM681.435 712.797L694.317 699.963L707.198 712.797V713.396L694.317 726.23L681.435 713.396V712.797ZM681.435 717.76L692.084 728.369L681.435 738.979V717.76ZM681.435 749.931L692.084 760.54L681.435 771.15V749.931ZM680.233 780.647L689.937 791.342L673.706 805.717L680.233 780.647Z" fill="#545454"/>
<path d="M852.385 461.428L853.692 426.135C853.692 425.874 853.822 425.481 854.345 425.351C855.39 424.697 857.61 424.697 859.047 425.22C859.831 425.481 860.223 425.874 860.223 426.266L861.529 461.558H852.385V461.428Z" fill="#CBD2DE"/>
<path d="M856.825 427.831C854.997 427.831 853.429 428.354 853.429 429.008V427.308C853.429 426.655 854.866 426.132 856.825 426.132C858.654 426.132 860.221 426.655 860.221 427.308V429.008C860.221 428.354 858.785 427.831 856.825 427.831Z" fill="#F0F1F7"/>
<path d="M856.827 426.263C854.998 426.263 853.561 426.785 853.561 427.439V425.74C853.561 425.086 854.998 424.563 856.827 424.563C858.655 424.563 860.092 425.086 860.092 425.74V427.439C860.223 426.785 858.655 426.263 856.827 426.263Z" fill="#FF6B37"/>
<g opacity="0.2">
<path opacity="0.1" d="M860.485 461.423H857.35L857.48 426.523C857.48 425.869 857.48 425.347 858.395 425.347C859.309 425.347 859.309 425.869 859.309 426.523L860.485 461.423Z" fill="#404041"/>
</g>
<path opacity="0.3" d="M853.297 461.424H854.865L855.387 426.785C855.387 426.132 855.387 425.609 854.865 425.609C854.342 425.609 854.342 426.132 854.342 426.785L853.297 461.424Z" fill="white"/>
<path d="M976.348 607.431C969.817 552.532 969.817 465.738 969.817 465.738C969.817 448.484 940.819 434.367 905.159 434.367C869.369 434.367 840.501 448.353 840.501 465.738C840.501 465.738 840.37 552.532 833.709 607.431C822.998 696.186 803.143 755.399 803.143 755.399H1006.91C1006.78 755.268 986.929 696.186 976.348 607.431Z" fill="#93A4B3"/>
<path d="M840.501 471.75C840.501 453.581 869.499 438.81 905.421 438.81C941.211 438.81 970.209 453.581 970.209 471.881H970.34C970.34 464.43 969.817 462.339 969.817 462.339C969.817 445.085 940.819 430.968 905.159 430.968C869.369 430.968 840.501 444.954 840.501 462.339C840.501 462.339 839.979 464.692 839.979 471.881H840.501V471.75Z" fill="#FF6B37"/>
<path opacity="0.3" d="M881.254 436.589C857.35 441.164 840.5 452.536 840.369 465.738C840.369 465.738 840.238 552.532 833.577 607.432C822.866 696.186 803.011 755.399 803.011 755.399L881.254 436.589Z" fill="white"/>
<path opacity="0.1" d="M928.802 435.935L829.007 755.268H1006.91C1006.91 755.268 987.06 696.186 976.479 607.431C969.948 552.532 969.948 465.738 969.948 465.738C969.817 454.497 950.485 439.857 928.802 435.935Z" fill="#070041"/>
<path d="M1015.93 512.798L1016.97 483.649C1016.97 483.387 1017.1 483.126 1017.5 482.995C1018.41 482.472 1020.11 482.342 1021.41 482.864C1022.07 483.126 1022.46 483.387 1022.46 483.779L1023.5 512.929H1015.93V512.798Z" fill="#CBD2DE"/>
<path d="M1019.58 484.95C1018.02 484.95 1016.84 485.342 1016.84 485.996V484.558C1016.84 484.035 1018.02 483.643 1019.58 483.643C1021.15 483.643 1022.33 484.035 1022.33 484.558V485.996C1022.46 485.473 1021.15 484.95 1019.58 484.95Z" fill="#F0F1F7"/>
<path d="M1019.58 483.774C1018.02 483.774 1016.84 484.166 1016.84 484.82V483.382C1016.84 482.859 1018.02 482.467 1019.58 482.467C1021.02 482.467 1022.33 482.859 1022.33 483.382V484.82C1022.33 484.166 1021.15 483.774 1019.58 483.774Z" fill="#FF6B37"/>
<g opacity="0.2">
<path opacity="0.1" d="M1022.59 512.792H1020.11L1020.24 484.035C1020.24 483.512 1020.24 483.12 1021.02 483.12C1021.81 483.12 1021.81 483.512 1021.81 484.035L1022.59 512.792Z" fill="#404041"/>
</g>
<path opacity="0.3" d="M1016.71 512.793H1018.01L1018.41 484.167C1018.41 483.644 1018.41 483.252 1018.01 483.252C1017.62 483.252 1017.62 483.644 1017.62 484.167L1016.71 512.793Z" fill="white"/>
<path d="M1118.33 633.181C1112.98 587.824 1112.98 516.193 1112.98 516.193C1112.98 501.945 1089.07 490.311 1059.55 490.311C1030.03 490.311 1006.13 501.814 1006.13 516.193C1006.13 516.193 1006 587.824 1000.51 633.181C991.76 706.511 975.171 755.268 975.171 755.268H1143.28C1143.41 755.268 1126.95 706.511 1118.33 633.181Z" fill="#93A4B3"/>
<path d="M1006.13 521.289C1006.13 506.257 1030.16 494.101 1059.68 494.101C1089.2 494.101 1113.24 506.388 1113.24 521.42H1113.37C1113.37 515.276 1112.98 513.446 1112.98 513.446C1112.98 499.199 1089.07 487.565 1059.55 487.565C1030.03 487.565 1006.13 499.068 1006.13 513.446C1006.13 513.446 1005.74 515.407 1005.74 521.42H1006.13V521.289Z" fill="#FF6B37"/>
<path opacity="0.3" d="M1039.83 492.141C1020.1 495.932 1006.13 505.213 1006.13 516.193C1006.13 516.193 1006 587.824 1000.51 633.181C991.76 706.512 975.171 755.268 975.171 755.268L1039.83 492.141Z" fill="white"/>
<path opacity="0.1" d="M1079.02 491.618L996.593 755.136H1143.41C1143.41 755.136 1126.95 706.38 1118.33 633.181C1112.98 587.823 1112.98 516.192 1112.98 516.192C1112.85 507.042 1096.91 495.017 1079.02 491.618Z" fill="#070041"/>
<path d="M1079.01 633.966L991.105 655.796L990.975 755.138L1078.88 755.269L1079.01 633.966Z" fill="white"/>
<path d="M1135.05 755.269L1078.88 755.138L1079.02 633.966L1135.18 672.135L1135.05 755.269Z" fill="#AEB4BE"/>
<path d="M1118.99 716.708L1035.65 722.068V755.269H1118.99V716.708Z" fill="#CBD2DE"/>
<path d="M1172.28 755.269H1118.99V716.708L1172.28 722.068V755.269Z" fill="#BAC0CB"/>
<path d="M852.386 733.177L774.143 735.4V755.268H852.386V733.177Z" fill="white"/>
<path d="M887.656 711.35L836.974 716.055L836.844 755.269H887.525L887.656 711.35Z" fill="#CBD2DE"/>
<path d="M926.448 755.267L929.844 606.123C929.714 604.816 930.236 603.639 931.412 602.594C934.285 599.979 940.033 599.587 944.082 601.809C946.172 602.986 947.348 604.554 947.348 606.254L950.744 755.398H926.448V755.267Z" fill="#AEB4BE"/>
<path d="M938.728 613.182C933.764 613.182 929.584 615.535 929.584 618.28L929.715 611.221C929.715 608.476 933.764 606.254 938.597 606.254C943.561 606.254 947.61 608.476 947.61 611.221L947.741 618.28C947.741 615.404 943.691 613.182 938.728 613.182Z" fill="#F0F1F7"/>
<path d="M938.725 606.647C933.762 606.647 929.843 608.999 929.843 611.744L929.974 604.686C929.974 601.941 933.892 599.719 938.725 599.719C943.558 599.719 947.477 601.941 947.477 604.686L947.608 611.744C947.608 608.999 943.689 606.647 938.725 606.647Z" fill="#FF6B37"/>
<g opacity="0.2">
<path opacity="0.3" d="M948.395 755.268H940.166L940.427 607.823C940.427 605.209 940.427 603.117 942.778 603.117C945.129 603.117 945.129 605.209 945.129 607.823L948.395 755.268Z" fill="#404041"/>
</g>
<path opacity="0.3" d="M929.061 755.268H933.372L934.809 608.738C934.809 606.124 934.809 604.032 933.633 604.032C932.327 604.032 932.458 606.124 932.458 608.738L929.061 755.268Z" fill="white"/>
<path d="M1010.57 685.337C1010.57 661.809 986.013 642.724 955.578 642.724C925.143 642.724 900.455 661.678 900.455 685.206C900.455 708.735 925.012 727.819 955.447 727.819C985.882 727.819 1010.57 708.735 1010.57 685.337Z" fill="#CBD2DE"/>
<path d="M885.175 755.268H951.661V670.304L882.954 685.467L882.823 748.471H885.175V755.268Z" fill="#F0F1F7"/>
<path d="M1039.31 748.995L951.663 747.165V755.269H1039.31V748.995Z" fill="#30404B"/>
<path d="M885.175 755.269H951.661V747.165L885.175 748.472V755.269Z" fill="#485967"/>
<path opacity="0.2" d="M951.661 747.165L885.175 748.472V750.564L951.661 749.649V747.165Z" fill="#010101"/>
<path opacity="0.2" d="M951.663 749.649L1039.31 751.217V748.864L951.663 747.165V749.649Z" fill="#010101"/>
<path d="M1041.53 748.994L951.663 747.164V670.304L1041.53 690.173V748.994Z" fill="#CBD2DE"/>
<path d="M1018.8 716.969L1031.47 718.407V702.46L1018.8 700.368V716.969Z" fill="#F0F1F7"/>
<path d="M994.506 713.833L1008.87 715.663V698.539L994.506 696.056V713.833Z" fill="#F0F1F7"/>
<path d="M966.16 710.303L982.618 712.394V694.094L966.16 691.219V710.303Z" fill="#F0F1F7"/>
<path d="M1018.8 755.268H1031.34L1031.47 725.465L1018.8 724.289V755.268Z" fill="#F0F1F7"/>
<path d="M994.506 739.845L1008.87 740.498V723.375L994.506 721.937V739.845Z" fill="#F0F1F7"/>
<path d="M966.16 738.538L982.618 739.191V720.76L966.16 719.192V738.538Z" fill="#F0F1F7"/>
<path d="M966.16 719.192V720.499L980.92 721.937L982.618 720.76L966.16 719.192Z" fill="#404041"/>
<path d="M966.16 692.657V691.219L982.618 694.094L980.92 695.14L966.16 692.657Z" fill="#5B6F80"/>
<path d="M994.506 697.624V696.056L1008.87 698.539L1007.18 699.716L994.506 697.624Z" fill="#5B6F80"/>
<path d="M1008.87 723.375L1007.18 724.42L994.506 723.244V721.937L1008.87 723.375Z" fill="#404041"/>
<path d="M1031.47 725.465L1029.77 726.642L1018.8 725.596V724.289L1031.47 725.465Z" fill="#404041"/>
<path d="M1031.47 702.46L1029.77 703.636L1018.8 701.806V700.368L1031.47 702.46Z" fill="#5B6F80"/>
<path d="M935.595 704.29L897.062 709.519V755.268H935.595V704.29Z" fill="#25343E"/>
<path d="M900.849 711.218L935.595 706.643V755.268H900.719L900.849 711.218Z" fill="#5B6F80"/>
<path d="M900.85 711.218L897.062 709.519L935.595 704.29V706.643L900.85 711.218Z" fill="#25343E"/>
<path d="M982.618 720.76L966.16 719.192V710.303L982.618 712.395V720.76Z" fill="#404041"/>
<path d="M1008.87 723.375L994.506 721.937V713.833L1008.87 715.663V723.375Z" fill="#404041"/>
<path d="M1031.47 725.465L1018.8 724.289V716.969L1031.47 718.407V725.465Z" fill="#404041"/>
<path d="M935.593 700.63L916.914 698.147V701.937L935.593 704.29V700.63Z" fill="#CBD2DE"/>
<path d="M897.059 709.519L935.593 704.29L916.914 701.937L878.903 707.689L897.059 709.519Z" fill="#25343E"/>
<path d="M878.903 707.689L916.914 701.937V698.147L878.903 704.29V707.689Z" fill="white"/>
<path d="M1008.88 717.362L994.511 715.793V713.833L1008.88 715.663V717.362Z" fill="#5B6F80"/>
<path d="M1008.87 720.368L994.506 718.799V716.969L1008.87 718.538V720.368Z" fill="#5B6F80"/>
<path d="M1008.87 723.375L994.506 721.937V720.107L1008.87 721.545V723.375Z" fill="#5B6F80"/>
<path d="M1031.47 720.106L1018.8 718.668V716.969L1031.47 718.407V720.106Z" fill="#5B6F80"/>
<path d="M1031.47 722.851L1018.8 721.413V719.714L1031.47 721.152V722.851Z" fill="#5B6F80"/>
<path d="M1031.47 725.465L1018.8 724.289V722.59L1031.47 723.897V725.465Z" fill="#5B6F80"/>
<path d="M982.621 714.355L966.163 712.395V710.303L982.621 712.395V714.355Z" fill="#5B6F80"/>
<path d="M982.62 717.494L966.162 715.795V713.704L982.62 715.534V717.494Z" fill="#5B6F80"/>
<path d="M982.62 720.762L966.162 719.193V717.102L982.62 718.801V720.762Z" fill="#5B6F80"/>
<path opacity="0.1" d="M900.85 711.218L935.595 706.643V727.426L900.85 729.779L897.062 717.1V709.518L900.85 711.218Z" fill="#070041"/>
<path d="M882.954 685.468H875.508L951.661 664.423L1046.75 689.651L1041.53 690.174L951.661 670.305L882.954 685.468Z" fill="#25343E"/>
<path d="M1029.77 755.269H1018.8V725.597L1029.77 726.642V755.269Z" fill="#5B6F80"/>
<path fill-rule="evenodd" clip-rule="evenodd" d="M913.52 741.675L920.835 741.413V740.368L913.52 740.629V741.675Z" fill="#30404B"/>
<path fill-rule="evenodd" clip-rule="evenodd" d="M912.998 741.021L920.183 740.759V739.844L912.998 740.106V741.021Z" fill="url(#paint0_linear)"/>
<path fill-rule="evenodd" clip-rule="evenodd" d="M1024.68 742.328H1028.47V741.805H1024.68V742.328Z" fill="#30404B"/>
<path fill-rule="evenodd" clip-rule="evenodd" d="M1024.42 741.936L1028.07 742.066L1028.21 741.544H1024.42V741.936Z" fill="url(#paint1_linear)"/>
<path d="M994.505 739.845L1007.18 740.367V724.42L994.505 723.244V739.845ZM966.16 738.538L980.92 739.191V721.937L966.16 720.499V738.538ZM1018.8 716.97L1029.64 718.277V703.637L1018.8 701.807V716.97ZM994.505 713.833L1007.18 715.401V699.716L994.505 697.624V713.833ZM966.16 692.657V710.303L980.92 712.133V695.141L966.16 692.657Z" fill="url(#paint2_linear)"/>
<path opacity="0.1" d="M1041.53 748.994V690.173L1002.34 681.546L955.319 755.268H1039.31V748.994H1041.53Z" fill="#070041"/>
<path opacity="0.2" d="M882.954 685.467L951.661 670.304L895.102 755.268H885.175V748.471H882.823L882.954 685.467Z" fill="white"/>
<path d="M756.412 759.722C756.834 758.057 758.272 756.847 759.985 756.717L1001.41 738.306C1001.63 738.289 1001.86 738.291 1002.08 738.312L1183.24 755.14C1184.82 755.286 1186.16 756.346 1186.66 757.845L1226 874.468C1226.87 877.061 1224.94 879.746 1222.21 879.746H731.14C728.532 879.746 726.622 877.292 727.262 874.764L756.412 759.722Z" fill="#546A97"/>
<path d="M995.88 741.413C996.117 739.243 998.05 737.664 1000.22 737.865L1203.66 756.653C1205.46 756.819 1206.93 758.176 1207.23 759.96L1226.97 875.07C1227.39 877.514 1225.51 879.746 1223.03 879.746H985.233C982.852 879.746 980.998 877.679 981.256 875.312L995.88 741.413Z" fill="#334872"/>
<defs>
<linearGradient id="paint0_linear" x1="916.606" y1="739.9" x2="916.605" y2="741.173" gradientUnits="userSpaceOnUse">
<stop stop-color="white"/>
<stop offset="0.275" stop-color="#FCFCFC"/>
<stop offset="0.5026" stop-color="#F1F2F2"/>
<stop offset="0.7133" stop-color="#E0E1E2"/>
<stop offset="0.9127" stop-color="#C8CACB"/>
<stop offset="1" stop-color="#BBBDBF"/>
</linearGradient>
<linearGradient id="paint1_linear" x1="1026.28" y1="741.498" x2="1026.25" y2="742.153" gradientUnits="userSpaceOnUse">
<stop stop-color="white"/>
<stop offset="0.275" stop-color="#FCFCFC"/>
<stop offset="0.5026" stop-color="#F1F2F2"/>
<stop offset="0.7133" stop-color="#E0E1E2"/>
<stop offset="0.9127" stop-color="#C8CACB"/>
<stop offset="1" stop-color="#BBBDBF"/>
</linearGradient>
<linearGradient id="paint2_linear" x1="975.649" y1="744.014" x2="1006.72" y2="690.313" gradientUnits="userSpaceOnUse">
<stop stop-color="#002F51"/>
<stop offset="0.2193" stop-color="#2F5C7E"/>
<stop offset="0.4711" stop-color="#5E89AC"/>
<stop offset="0.6944" stop-color="#80AACD"/>
<stop offset="0.8783" stop-color="#94BEE1"/>
<stop offset="1" stop-color="#9CC5E8"/>
</linearGradient>
</defs>
</svg>
