<svg width="375" height="667" viewBox="0 0 375 667" fill="none" xmlns="http://www.w3.org/2000/svg">
<g clip-path="url(#clip0)">
<path d="M324.119 527.126C323.872 527.166 323.643 527.247 323.519 527.369C323.294 527.571 323.294 528.26 323.519 528.463C323.643 528.584 323.89 528.665 324.16 528.706C323.89 528.767 323.643 528.848 323.519 528.949C323.294 529.131 323.294 529.84 323.519 530.043C323.643 530.165 323.89 530.225 324.16 530.286C323.89 530.327 323.643 530.408 323.519 530.529C323.294 530.712 323.294 531.421 323.519 531.623C323.684 531.765 324.014 531.866 324.367 531.907V532.413H325.109V531.927C325.499 531.887 325.829 531.806 325.975 531.644C326.159 531.421 326.159 530.772 325.975 530.55C325.87 530.428 325.664 530.347 325.416 530.306C325.664 530.266 325.87 530.185 325.975 530.063C326.159 529.84 326.159 529.192 325.975 528.969C325.87 528.848 325.664 528.767 325.416 528.726C325.664 528.686 325.87 528.605 325.975 528.483C326.159 528.28 326.159 527.612 325.975 527.389C325.851 527.267 325.622 527.186 325.356 527.126V526.376H326.571V526.619H329.687L329.664 559.095L321.109 591.591H322.387L322.635 590.659L330.388 583.852L337.087 591.166V591.571H338.324V591.166L345.028 583.852L352.777 590.639L353.024 591.571H354.303L345.729 559.055V526.599H348.822V526.356H350.036V527.126C349.789 527.166 349.564 527.247 349.44 527.369C349.212 527.571 349.212 528.26 349.44 528.463C349.564 528.584 349.811 528.665 350.078 528.706C349.811 528.767 349.564 528.848 349.44 528.949C349.212 529.131 349.212 529.84 349.44 530.043C349.564 530.165 349.811 530.225 350.078 530.286C349.811 530.327 349.564 530.408 349.44 530.529C349.212 530.712 349.212 531.421 349.44 531.623C349.605 531.765 349.935 531.866 350.284 531.907V532.413H351.026V531.927C351.416 531.887 351.746 531.806 351.892 531.644C352.076 531.421 352.076 530.772 351.892 530.55C351.787 530.428 351.581 530.347 351.334 530.306C351.581 530.266 351.787 530.185 351.892 530.063C352.076 529.84 352.076 529.192 351.892 528.969C351.787 528.848 351.581 528.767 351.334 528.726C351.581 528.686 351.787 528.605 351.892 528.483C352.076 528.28 352.076 527.612 351.892 527.389C351.768 527.267 351.54 527.186 351.274 527.126V526.376H352.488V525.647H351.274V525.464H351.026V525.059H350.284V525.464H350.036V525.647H348.822V525.404H345.729V518.131H348.822V517.887H350.036V518.657C349.789 518.718 349.564 518.779 349.44 518.9C349.212 519.103 349.212 519.792 349.44 519.994C349.564 520.116 349.811 520.197 350.078 520.238C349.811 520.278 349.564 520.359 349.44 520.48C349.212 520.683 349.212 521.372 349.44 521.574C349.564 521.696 349.811 521.757 350.078 521.818C349.811 521.858 349.564 521.939 349.44 522.061C349.212 522.243 349.212 522.952 349.44 523.155C349.605 523.297 349.935 523.398 350.284 523.438V523.945H351.026V523.438C351.416 523.398 351.746 523.317 351.892 523.155C352.076 522.932 352.076 522.284 351.892 522.061C351.787 521.939 351.581 521.858 351.334 521.818C351.581 521.757 351.787 521.696 351.892 521.574C352.076 521.352 352.076 520.703 351.892 520.48C351.787 520.359 351.581 520.278 351.334 520.238C351.581 520.197 351.787 520.116 351.892 519.994C352.076 519.792 352.076 519.123 351.892 518.9C351.768 518.779 351.54 518.698 351.274 518.657V517.907H352.488V517.178H351.274V516.976H351.026V516.571H350.284V516.976H350.036V517.158H348.822V516.915H345.729V514.302L339.397 494.285H338.324V493.677H337.087V494.285H336.015L329.705 514.119V516.915H326.594V517.158H325.375V516.976H325.128V516.571H324.385V516.976H324.138V517.158H322.901V517.887H324.119V518.657C323.872 518.718 323.643 518.779 323.519 518.9C323.294 519.103 323.294 519.792 323.519 519.994C323.643 520.116 323.89 520.197 324.16 520.238C323.89 520.278 323.643 520.359 323.519 520.48C323.294 520.683 323.294 521.372 323.519 521.574C323.643 521.696 323.89 521.757 324.16 521.818C323.89 521.858 323.643 521.939 323.519 522.061C323.294 522.243 323.294 522.952 323.519 523.155C323.684 523.297 324.014 523.398 324.367 523.438V523.945H325.109V523.438C325.499 523.398 325.829 523.317 325.975 523.155C326.159 522.932 326.159 522.284 325.975 522.061C325.87 521.939 325.664 521.858 325.416 521.818C325.664 521.757 325.87 521.696 325.975 521.574C326.159 521.352 326.159 520.703 325.975 520.48C325.87 520.359 325.664 520.278 325.416 520.238C325.664 520.197 325.87 520.116 325.975 519.994C326.159 519.792 326.159 519.123 325.975 518.9C325.851 518.779 325.622 518.698 325.356 518.657V517.907H326.571V518.151H329.687V525.424H326.594V525.667H325.375V525.485H325.128V525.079H324.385V525.485H324.138V525.667H322.901V526.396H324.119V527.126ZM352.447 589.383L345.523 583.325L349.647 578.807L352.447 589.383ZM349.152 576.863L343.213 571.676L346.76 567.806L349.152 576.863ZM346.347 566.226L342.448 562.802L344.78 560.27L346.347 566.226ZM344.327 551.275H338.489L341.399 548.418L344.327 551.275ZM341.935 547.892L344.492 545.379V550.404L341.935 547.892ZM344.492 552.997V558.042L341.935 555.509L344.492 552.997ZM343.974 552.49L341.417 555.003L338.842 552.49H343.974ZM343.974 558.548H338.842L341.399 556.036L343.974 558.548ZM344.244 559.764L341.893 562.336L338.965 559.764H344.244ZM344.492 543.171L341.935 540.659L344.492 538.147V543.171ZM342.077 525.383L344.492 523.013V525.383H342.077ZM344.492 526.599V528.058L343.007 526.599H344.492ZM344.428 529.03H338.388L340.862 526.599H341.976L344.428 529.03ZM344.12 530.246L341.399 532.92L338.677 530.246H344.12ZM344.492 530.914V535.939L341.935 533.426L344.492 530.914ZM344.492 520.906L341.935 518.394L342.223 518.11H344.51V520.906H344.492ZM344.492 516.895H343.438L344.492 515.862V516.895ZM342.407 516.895H340.428L338.388 514.889H344.469L342.407 516.895ZM339.213 513.673L341.069 511.85L343.337 513.673H339.213ZM344.203 513.451L341.582 511.344L343.067 509.885L344.203 513.451ZM342.448 507.94L340.491 506.218L341.522 505.083L342.448 507.94ZM340.079 500.505L340.593 502.146L339.79 501.093L340.079 500.505ZM338.324 495.501H338.489L339.749 499.471L339.295 500.403L338.306 499.087V495.501H338.324ZM338.324 500.322L338.943 501.153L338.324 502.429V500.322ZM338.324 504.131L339.438 501.822L341.275 504.273L339.955 505.732L338.324 504.273V504.131ZM338.324 505.245L339.46 506.258L338.324 507.494V505.245ZM338.324 508.588L340.015 506.745L342.759 509.176L341.027 510.878L338.347 508.73V508.588H338.324ZM338.324 509.682L340.469 511.404L338.324 513.532V509.682ZM338.324 515.882L339.378 516.915H338.324V515.882ZM338.324 518.11H340.593L340.881 518.394L338.324 520.906V518.11ZM338.324 521.939L341.417 518.9L344.51 521.939V522L341.417 525.039L338.324 522V521.939ZM338.324 523.033L340.739 525.404H338.324V523.033ZM338.324 526.599H339.809L338.324 528.058V526.599ZM338.324 530.914L340.881 533.426L338.324 535.939V530.914ZM338.324 536.972L341.417 533.933L344.51 536.972V537.114L341.417 540.153L338.324 537.114V536.972ZM338.324 538.147L340.881 540.659L338.324 543.171V538.147ZM338.324 544.204L341.417 541.166L344.51 544.204V544.346L341.417 547.385L338.324 544.346V544.204ZM338.324 545.379L340.881 547.892L338.324 550.404V545.379ZM338.324 552.997L340.881 555.509L338.324 558.021V552.997ZM338.324 560.169L341.399 562.863L338.324 566.206V560.169ZM338.324 567.3L341.953 563.349L346.325 567.178L342.655 571.17L338.324 567.381V567.3ZM338.324 568.353L342.16 571.717L338.324 575.91V568.353ZM338.324 577.004L342.718 572.203L349.377 578.017L344.986 582.819L338.324 577.004ZM338.324 577.997L344.469 583.386L338.324 590.092V577.997ZM328.656 567.806L332.202 571.676L326.264 576.863L328.656 567.806ZM322.964 589.383L325.769 578.807L329.911 583.325L322.964 589.383ZM337.087 590.092L330.942 583.386L337.087 577.997V590.092ZM337.087 577.004L330.448 582.819L326.057 578.017L332.697 572.203L337.087 577.004ZM337.087 575.91L333.252 571.717L337.087 568.353V575.91ZM337.087 567.381L332.757 571.17L329.087 567.178L333.458 563.349L337.087 567.3V567.381ZM336.574 552.49L334.017 555.003L331.46 552.49H336.574ZM331.089 551.275L333.994 548.418L336.903 551.275H331.089ZM336.574 558.548H331.437L333.994 556.036L336.574 558.548ZM336.45 559.764L333.522 562.336L331.171 559.764H336.45ZM337.087 566.226L334.017 562.883L337.087 560.189V566.226ZM337.087 558.021L334.53 555.509L337.087 552.997V558.021ZM337.087 550.404L334.53 547.892L337.087 545.379V550.404ZM337.087 543.171L334.53 540.659L337.087 538.147V543.171ZM337.087 535.939L334.53 533.426L337.087 530.914V535.939ZM336.716 530.246L333.994 532.92L331.272 530.246H336.716ZM330.984 529.03L333.458 526.599H334.572L337.046 529.03H330.984ZM337.087 528.058L335.603 526.599H337.087V528.058ZM337.087 525.383H334.677L337.087 523.013V525.383ZM337.087 520.906L334.53 518.394L334.819 518.11H337.11V520.906H337.087ZM337.087 516.895H336.037L337.087 515.862V516.895ZM337.087 513.532L334.943 511.404L337.087 509.682V513.532ZM336.202 513.673H332.078L334.347 511.85L336.202 513.673ZM337.087 507.494L335.955 506.258L337.087 505.245V507.494ZM337.087 502.429L336.469 501.133L337.087 500.302V502.429ZM336.922 495.501H337.087V499.087L336.097 500.403L335.644 499.471L336.922 495.501ZM335.336 500.505L335.603 501.072L334.8 502.125L335.336 500.505ZM335.974 501.822L337.087 504.131V504.273L335.46 505.732L334.14 504.273L335.974 501.822ZM333.87 505.083L334.901 506.218L332.963 507.94L333.87 505.083ZM335.396 506.745L337.087 508.588V508.75L334.407 510.898L332.674 509.196L335.396 506.745ZM332.345 509.885L333.829 511.344L331.212 513.43L332.345 509.885ZM337.046 514.889L335.006 516.895H333.027L330.984 514.889H337.046ZM330.924 515.882L331.973 516.915H330.924V515.882ZM330.924 518.11H333.211L333.481 518.394L330.924 520.906V518.11ZM330.924 521.939L334.017 518.9L337.11 521.939V522L334.017 525.039L330.924 522V521.939ZM330.924 523.033L333.334 525.404H330.924V523.033ZM330.924 526.599H332.408L330.924 528.058V526.599ZM330.924 530.914L333.481 533.426L330.924 535.939V530.914ZM330.924 536.972L334.017 533.933L337.11 536.972V537.114L334.017 540.153L330.924 537.114V536.972ZM330.924 538.147L333.481 540.659L330.924 543.171V538.147ZM330.924 544.204L334.017 541.166L337.11 544.204V544.346L334.017 547.385L330.924 544.346V544.204ZM330.924 545.379L333.481 547.892L330.924 550.404V545.379ZM330.924 552.997L333.481 555.509L330.924 558.021V552.997ZM330.635 560.27L332.963 562.802L329.068 566.206L330.635 560.27Z" fill="#545454"/>
<path d="M22.2708 549.469C22.0841 549.499 21.9131 549.561 21.8198 549.654C21.6488 549.808 21.6488 550.333 21.8198 550.487C21.9131 550.58 22.0999 550.642 22.3019 550.672C22.0999 550.719 21.9131 550.78 21.8198 550.858C21.6488 550.997 21.6488 551.537 21.8198 551.691C21.9131 551.784 22.0999 551.83 22.3019 551.876C22.0999 551.907 21.9131 551.969 21.8198 552.061C21.6488 552.201 21.6488 552.741 21.8198 552.895C21.9443 553.003 22.1932 553.08 22.4575 553.111V553.497H23.0176V553.127C23.3131 553.096 23.562 553.034 23.6707 552.911C23.8109 552.741 23.8109 552.247 23.6707 552.077C23.5931 551.985 23.4375 551.923 23.2508 551.892C23.4375 551.861 23.5931 551.799 23.6707 551.706C23.8109 551.537 23.8109 551.043 23.6707 550.873C23.5931 550.78 23.4375 550.719 23.2508 550.688C23.4375 550.657 23.5931 550.595 23.6707 550.503C23.8109 550.348 23.8109 549.839 23.6707 549.669C23.5774 549.577 23.4064 549.515 23.2043 549.469V548.897H24.1221V549.082H26.4709L26.4551 573.826L20 598.585H20.9643L21.151 597.875L26.9995 592.689L32.0551 598.261V598.569H32.9883V598.261L38.0439 592.689L43.8924 597.859L44.0791 598.569H45.0437L38.5725 573.795V549.067H40.9059V548.882H41.8237V549.469C41.637 549.499 41.466 549.561 41.3727 549.654C41.2013 549.808 41.2013 550.333 41.3727 550.487C41.466 550.58 41.6527 550.642 41.8548 550.672C41.6527 550.719 41.466 550.78 41.3727 550.858C41.2013 550.997 41.2013 551.537 41.3727 551.691C41.466 551.784 41.6527 551.83 41.8548 551.876C41.6527 551.907 41.466 551.969 41.3727 552.061C41.2013 552.201 41.2013 552.741 41.3727 552.895C41.4971 553.003 41.7461 553.08 42.0104 553.111V553.497H42.5705V553.127C42.8659 553.096 43.1149 553.034 43.2236 552.911C43.3638 552.741 43.3638 552.247 43.2236 552.077C43.146 551.985 42.9904 551.923 42.8037 551.892C42.9904 551.861 43.146 551.799 43.2236 551.706C43.3638 551.537 43.3638 551.043 43.2236 550.873C43.146 550.78 42.9904 550.719 42.8037 550.688C42.9904 550.657 43.146 550.595 43.2236 550.503C43.3638 550.348 43.3638 549.839 43.2236 549.669C43.1302 549.577 42.9593 549.515 42.7568 549.469V548.897H43.6746V548.342H42.7568V548.203H42.5705V547.894H42.0104V548.203H41.8237V548.342H40.9059V548.156H38.5725V542.615H40.9059V542.43H41.8237V543.016C41.637 543.063 41.466 543.109 41.3727 543.202C41.2013 543.356 41.2013 543.881 41.3727 544.035C41.466 544.128 41.6527 544.19 41.8548 544.22C41.6527 544.251 41.466 544.313 41.3727 544.405C41.2013 544.56 41.2013 545.085 41.3727 545.239C41.466 545.331 41.6527 545.378 41.8548 545.424C41.6527 545.455 41.466 545.517 41.3727 545.609C41.2013 545.748 41.2013 546.289 41.3727 546.443C41.4971 546.551 41.7461 546.628 42.0104 546.659V547.045H42.5705V546.659C42.8659 546.628 43.1149 546.566 43.2236 546.443C43.3638 546.273 43.3638 545.779 43.2236 545.609C43.146 545.517 42.9904 545.455 42.8037 545.424C42.9904 545.378 43.146 545.331 43.2236 545.239C43.3638 545.069 43.3638 544.575 43.2236 544.405C43.146 544.313 42.9904 544.251 42.8037 544.22C42.9904 544.19 43.146 544.128 43.2236 544.035C43.3638 543.881 43.3638 543.371 43.2236 543.202C43.1302 543.109 42.9593 543.047 42.7568 543.016V542.445H43.6746V541.889H42.7568V541.735H42.5705V541.426H42.0104V541.735H41.8237V541.874H40.9059V541.689H38.5725V539.698L33.7973 524.447H32.9883V523.984H32.0551V524.447H31.2461L26.4862 539.559V541.689H24.1375V541.874H23.2197V541.735H23.033V541.426H22.4733V541.735H22.2866V541.874H21.353V542.43H22.2708V543.016C22.0841 543.063 21.9131 543.109 21.8198 543.202C21.6488 543.356 21.6488 543.881 21.8198 544.035C21.9131 544.128 22.0999 544.19 22.3019 544.22C22.0999 544.251 21.9131 544.313 21.8198 544.405C21.6488 544.56 21.6488 545.085 21.8198 545.239C21.9131 545.331 22.0999 545.378 22.3019 545.424C22.0999 545.455 21.9131 545.517 21.8198 545.609C21.6488 545.748 21.6488 546.289 21.8198 546.443C21.9443 546.551 22.1932 546.628 22.4575 546.659V547.045H23.0176V546.659C23.3131 546.628 23.562 546.566 23.6707 546.443C23.8109 546.273 23.8109 545.779 23.6707 545.609C23.5931 545.517 23.4375 545.455 23.2508 545.424C23.4375 545.378 23.5931 545.331 23.6707 545.239C23.8109 545.069 23.8109 544.575 23.6707 544.405C23.5931 544.313 23.4375 544.251 23.2508 544.22C23.4375 544.19 23.5931 544.128 23.6707 544.035C23.8109 543.881 23.8109 543.371 23.6707 543.202C23.5774 543.109 23.4064 543.047 23.2043 543.016V542.445H24.1221V542.63H26.4709V548.172H24.1375V548.357H23.2197V548.218H23.033V547.909H22.4733V548.218H22.2866V548.357H21.353V548.913H22.2708V549.469ZM43.6435 596.902L38.4173 592.287L41.5282 588.845L43.6435 596.902ZM41.1548 587.363L36.6751 583.411L39.3504 580.463L41.1548 587.363ZM39.0392 579.259L36.0992 576.651L37.8572 574.721L39.0392 579.259ZM37.5149 567.868H33.1127L35.3059 565.692L37.5149 567.868ZM35.7104 565.29L37.6393 563.376V567.204L35.7104 565.29ZM37.6393 569.18V573.023L35.7104 571.094L37.6393 569.18ZM37.2506 568.794L35.3217 570.708L33.3774 568.794H37.2506ZM37.2506 573.409H33.3774L35.3059 571.495L37.2506 573.409ZM37.4526 574.335L35.6793 576.296L33.4704 574.335H37.4526ZM37.6393 561.694L35.7104 559.78L37.6393 557.865V561.694ZM35.8195 548.141L37.6393 546.335V548.141H35.8195ZM37.6393 549.067V550.178L36.5195 549.067H37.6393ZM37.5925 550.919H33.0351L34.9018 549.067H35.7416L37.5925 550.919ZM37.3593 551.845L35.3059 553.883L33.2529 551.845H37.3593ZM37.6393 552.355V556.183L35.7104 554.269L37.6393 552.355ZM37.6393 544.73L35.7104 542.815L35.9283 542.6H37.6547V544.73H37.6393ZM37.6393 541.674H36.8461L37.6393 540.886V541.674ZM36.0681 541.674H34.5749L33.0351 540.145H37.6236L36.0681 541.674ZM33.6571 539.219L35.0574 537.83L36.7681 539.219H33.6571ZM37.4215 539.049L35.4462 537.444L36.566 536.333L37.4215 539.049ZM36.0992 534.851L34.6217 533.539L35.3993 532.674L36.0992 534.851ZM34.3106 529.186L34.6993 530.436L34.0927 529.633L34.3106 529.186ZM32.9883 525.373H33.1127L34.0616 528.398L33.7193 529.109L32.9729 528.105V525.373H32.9883ZM32.9883 529.047L33.455 529.68L32.9883 530.652V529.047ZM32.9883 531.949L33.8284 530.189L35.2126 532.057L34.2172 533.168L32.9883 532.057V531.949ZM32.9883 532.798L33.8438 533.57L32.9883 534.511V532.798ZM32.9883 535.345L34.2637 533.94L36.3328 535.792L35.0263 537.089L33.004 535.453V535.345H32.9883ZM32.9883 536.178L34.606 537.49L32.9883 539.111V536.178ZM32.9883 540.902L33.7816 541.689H32.9883V540.902ZM32.9883 542.6H34.6993L34.9172 542.815L32.9883 544.73V542.6ZM32.9883 545.517L35.3217 543.202L37.6547 545.517V545.563L35.3217 547.879L32.9883 545.563V545.517ZM32.9883 546.35L34.8084 548.156H32.9883V546.35ZM32.9883 549.067H34.1085L32.9883 550.178V549.067ZM32.9883 552.355L34.9172 554.269L32.9883 556.183V552.355ZM32.9883 556.97L35.3217 554.655L37.6547 556.97V557.078L35.3217 559.393L32.9883 557.078V556.97ZM32.9883 557.865L34.9172 559.78L32.9883 561.694V557.865ZM32.9883 562.481L35.3217 560.165L37.6547 562.481V562.589L35.3217 564.904L32.9883 562.589V562.481ZM32.9883 563.376L34.9172 565.29L32.9883 567.204V563.376ZM32.9883 569.18L34.9172 571.094L32.9883 573.008V569.18ZM32.9883 574.644L35.3059 576.697L32.9883 579.244V574.644ZM32.9883 580.077L35.7262 577.067L39.0239 579.985L36.2548 583.026L32.9883 580.139V580.077ZM32.9883 580.88L35.8818 583.443L32.9883 586.638V580.88ZM32.9883 587.471L36.3017 583.813L41.3258 588.243L38.0128 591.901L32.9883 587.471ZM32.9883 588.228L37.6236 592.334L32.9883 597.443V588.228ZM25.693 580.463L28.3687 583.411L23.8885 587.363L25.693 580.463ZM21.3999 596.902L23.5151 588.845L26.6418 592.287L21.3999 596.902ZM32.0551 597.443L27.4198 592.334L32.0551 588.228V597.443ZM32.0551 587.471L27.0464 591.901L23.7329 588.243L28.7417 583.813L32.0551 587.471ZM32.0551 586.638L29.162 583.443L32.0551 580.88V586.638ZM32.0551 580.139L28.7886 583.026L26.0195 579.985L29.3172 577.067L32.0551 580.077V580.139ZM31.6663 568.794L29.7375 570.708L27.8086 568.794H31.6663ZM27.5285 567.868L29.7217 565.692L31.9149 567.868H27.5285ZM31.6663 573.409H27.7928L29.7217 571.495L31.6663 573.409ZM31.573 574.335L29.364 576.296L27.5907 574.335H31.573ZM32.0551 579.259L29.7375 576.712L32.0551 574.66V579.259ZM32.0551 573.008L30.1262 571.094L32.0551 569.18V573.008ZM32.0551 567.204L30.1262 565.29L32.0551 563.376V567.204ZM32.0551 561.694L30.1262 559.78L32.0551 557.865V561.694ZM32.0551 556.183L30.1262 554.269L32.0551 552.355V556.183ZM31.7751 551.845L29.7217 553.883L27.6683 551.845H31.7751ZM27.4509 550.919L29.3172 549.067H30.1573L32.024 550.919H27.4509ZM32.0551 550.178L30.9349 549.067H32.0551V550.178ZM32.0551 548.141H30.2349L32.0551 546.335V548.141ZM32.0551 544.73L30.1262 542.815L30.344 542.6H32.0705V544.73H32.0551ZM32.0551 541.674H31.2618L32.0551 540.886V541.674ZM32.0551 539.111L30.4374 537.49L32.0551 536.178V539.111ZM31.3863 539.219H28.2753L29.9864 537.83L31.3863 539.219ZM32.0551 534.511L31.1996 533.57L32.0551 532.798V534.511ZM32.0551 530.652L31.5883 529.665L32.0551 529.032V530.652ZM31.9306 525.373H32.0551V528.105L31.3083 529.109L30.966 528.398L31.9306 525.373ZM30.7328 529.186L30.9349 529.618L30.3283 530.421L30.7328 529.186ZM31.215 530.189L32.0551 531.949V532.057L30.8262 533.168L29.8308 532.057L31.215 530.189ZM29.6284 532.674L30.4063 533.539L28.9441 534.851L29.6284 532.674ZM30.7797 533.94L32.0551 535.345V535.468L30.0329 537.105L28.7263 535.808L30.7797 533.94ZM28.4774 536.333L29.5972 537.444L27.6219 539.034L28.4774 536.333ZM32.024 540.145L30.4839 541.674H28.9906L27.4509 540.145H32.024ZM27.404 540.902L28.1973 541.689H27.404V540.902ZM27.404 542.6H29.1308L29.3329 542.815L27.404 544.73V542.6ZM27.404 545.517L29.7375 543.202L32.0705 545.517V545.563L29.7375 547.879L27.404 545.563V545.517ZM27.404 546.35L29.2242 548.156H27.404V546.35ZM27.404 549.067H28.5239L27.404 550.178V549.067ZM27.404 552.355L29.3329 554.269L27.404 556.183V552.355ZM27.404 556.97L29.7375 554.655L32.0705 556.97V557.078L29.7375 559.393L27.404 557.078V556.97ZM27.404 557.865L29.3329 559.78L27.404 561.694V557.865ZM27.404 562.481L29.7375 560.165L32.0705 562.481V562.589L29.7375 564.904L27.404 562.589V562.481ZM27.404 563.376L29.3329 565.29L27.404 567.204V563.376ZM27.404 569.18L29.3329 571.094L27.404 573.008V569.18ZM27.1862 574.721L28.9441 576.651L26.0041 579.244L27.1862 574.721Z" fill="#545454"/>
<path d="M71.8345 484.736C64.8455 500.375 45.5094 536.315 22.9119 542.143" stroke="#878787" stroke-linecap="round"/>
<path d="M71.8345 498.432C64.8455 514.071 45.5094 542.726 22.9119 548.554" stroke="#878787" stroke-linecap="round"/>
<path d="M112.603 484.736C105.614 500.375 65.3116 536.315 42.7141 542.143" stroke="#878787" stroke-linecap="round"/>
<path d="M112.603 499.306C105.614 514.945 65.3116 542.726 42.7141 548.554" stroke="#878787" stroke-linecap="round"/>
<path d="M310.915 485.61C317.903 501.249 327.921 511.837 350.52 517.665" stroke="#878787" stroke-linecap="round"/>
<path d="M310.623 499.015C317.615 514.654 328.213 520.288 350.809 526.116" stroke="#878787" stroke-linecap="round"/>
<path d="M270.148 485.61C277.136 501.249 301.711 511.837 324.31 517.665" stroke="#878787" stroke-linecap="round"/>
<path d="M271.021 499.306C278.009 514.945 302.004 520.288 324.603 526.116" stroke="#878787" stroke-linecap="round"/>
<path d="M269.315 500.594C268.929 500.659 268.573 500.787 268.382 500.979C268.026 501.3 268.026 502.391 268.382 502.711C268.573 502.904 268.959 503.032 269.379 503.096C268.959 503.193 268.573 503.321 268.382 503.481C268.026 503.77 268.026 504.893 268.382 505.214C268.573 505.406 268.959 505.502 269.379 505.599C268.959 505.663 268.573 505.791 268.382 505.984C268.026 506.272 268.026 507.395 268.382 507.716C268.637 507.94 269.154 508.101 269.701 508.165V508.967H270.86V508.197C271.471 508.133 271.985 508.004 272.21 507.748C272.502 507.395 272.502 506.368 272.21 506.015C272.052 505.823 271.73 505.695 271.344 505.63C271.73 505.566 272.052 505.438 272.21 505.246C272.502 504.893 272.502 503.867 272.21 503.513C272.052 503.321 271.73 503.193 271.344 503.129C271.73 503.065 272.052 502.936 272.21 502.744C272.502 502.423 272.502 501.364 272.21 501.012C272.018 500.819 271.662 500.691 271.246 500.594V499.408H273.143V499.792H278.006L277.976 551.213L264.614 602.664H266.608L266.995 601.189L279.1 590.411L289.564 601.991V602.633H291.495V601.991L301.958 590.411L314.064 601.157L314.45 602.633H316.449L303.053 551.149V499.761H307.886V499.376H309.783V500.594C309.397 500.659 309.044 500.787 308.849 500.979C308.497 501.3 308.497 502.391 308.849 502.711C309.044 502.904 309.43 503.032 309.846 503.096C309.43 503.193 309.044 503.321 308.849 503.481C308.497 503.77 308.497 504.893 308.849 505.214C309.044 505.406 309.43 505.502 309.846 505.599C309.43 505.663 309.044 505.791 308.849 505.984C308.497 506.272 308.497 507.395 308.849 507.716C309.108 507.94 309.622 508.101 310.169 508.165V508.967H311.327V508.197C311.942 508.133 312.456 508.004 312.681 507.748C312.969 507.395 312.969 506.368 312.681 506.015C312.52 505.823 312.197 505.695 311.811 505.63C312.197 505.566 312.52 505.438 312.681 505.246C312.969 504.893 312.969 503.867 312.681 503.513C312.52 503.321 312.197 503.193 311.811 503.129C312.197 503.065 312.52 502.936 312.681 502.744C312.969 502.423 312.969 501.364 312.681 501.012C312.49 500.819 312.133 500.691 311.714 500.594V499.408H313.614V498.253H311.714V497.964H311.327V497.323H310.169V497.964H309.783V498.253H307.886V497.868H303.053V486.352H307.886V485.967H309.783V487.186C309.397 487.283 309.044 487.378 308.849 487.571C308.497 487.892 308.497 488.982 308.849 489.303C309.044 489.496 309.43 489.624 309.846 489.688C309.43 489.752 309.044 489.881 308.849 490.073C308.497 490.394 308.497 491.484 308.849 491.805C309.044 491.998 309.43 492.094 309.846 492.19C309.43 492.255 309.044 492.383 308.849 492.575C308.497 492.864 308.497 493.987 308.849 494.307C309.108 494.532 309.622 494.692 310.169 494.756V495.558H311.327V494.756C311.942 494.692 312.456 494.564 312.681 494.307C312.969 493.954 312.969 492.928 312.681 492.575C312.52 492.383 312.197 492.255 311.811 492.19C312.197 492.094 312.52 491.998 312.681 491.805C312.969 491.453 312.969 490.426 312.681 490.073C312.52 489.881 312.197 489.752 311.811 489.688C312.197 489.624 312.52 489.496 312.681 489.303C312.969 488.982 312.969 487.924 312.681 487.571C312.49 487.378 312.133 487.25 311.714 487.186V485.999H313.614V484.844H311.714V484.524H311.327V483.882H310.169V484.524H309.783V484.812H307.886V484.428H303.053V480.289L293.171 448.597H291.495V447.635H289.564V448.597H287.892L278.039 480.001V484.428H273.177V484.812H271.276V484.524H270.89V483.882H269.731V484.524H269.345V484.812H267.415V485.967H269.315V487.186C268.929 487.283 268.573 487.378 268.382 487.571C268.026 487.892 268.026 488.982 268.382 489.303C268.573 489.496 268.959 489.624 269.379 489.688C268.959 489.752 268.573 489.881 268.382 490.073C268.026 490.394 268.026 491.484 268.382 491.805C268.573 491.998 268.959 492.094 269.379 492.19C268.959 492.255 268.573 492.383 268.382 492.575C268.026 492.864 268.026 493.987 268.382 494.307C268.637 494.532 269.154 494.692 269.701 494.756V495.558H270.86V494.756C271.471 494.692 271.985 494.564 272.21 494.307C272.502 493.954 272.502 492.928 272.21 492.575C272.052 492.383 271.73 492.255 271.344 492.19C271.73 492.094 272.052 491.998 272.21 491.805C272.502 491.453 272.502 490.426 272.21 490.073C272.052 489.881 271.73 489.752 271.344 489.688C271.73 489.624 272.052 489.496 272.21 489.303C272.502 488.982 272.502 487.924 272.21 487.571C272.018 487.378 271.662 487.25 271.246 487.186V485.999H273.143V486.384H278.006V497.9H273.177V498.285H271.276V497.996H270.89V497.355H269.731V497.996H269.345V498.285H267.415V499.44H269.315V500.594ZM313.551 599.168L302.731 589.577L309.172 582.424L313.551 599.168ZM308.399 579.345L299.128 571.133L304.665 565.006L308.399 579.345ZM304.02 562.504L297.936 557.083L301.572 553.073L304.02 562.504ZM300.864 538.831H291.753L296.294 534.308L300.864 538.831ZM297.13 533.474L301.122 529.496V537.451L297.13 533.474ZM301.122 541.557V549.544L297.13 545.535L301.122 541.557ZM300.316 540.755L296.327 544.733L292.301 540.755H300.316ZM300.316 550.347H292.301L296.294 546.369L300.316 550.347ZM300.736 552.271L297.066 556.345L292.496 552.271H300.736ZM301.122 526L297.13 522.022L301.122 518.045V526ZM297.355 497.836L301.122 494.083V497.836H297.355ZM301.122 499.761V502.07L298.805 499.761H301.122ZM301.025 503.61H291.592L295.458 499.761H297.193L301.025 503.61ZM300.545 505.534L296.294 509.769L292.042 505.534H300.545ZM301.122 506.593V514.548L297.13 510.571L301.122 506.593ZM301.122 490.747L297.13 486.769L297.58 486.32H301.156V490.747H301.122ZM301.122 484.395H299.48L301.122 482.759V484.395ZM297.872 484.395H294.779L291.592 481.22H301.092L297.872 484.395ZM292.882 479.295L295.78 476.408L299.319 479.295H292.882ZM300.672 478.942L296.582 475.606L298.903 473.297L300.672 478.942ZM297.936 470.217L294.876 467.49L296.485 465.694L297.936 470.217ZM294.232 458.445L295.038 461.043L293.782 459.375L294.232 458.445ZM291.495 450.522H291.753L293.718 456.809L293.009 458.284L291.465 456.199V450.522H291.495ZM291.495 458.156L292.462 459.471L291.495 461.492V458.156ZM291.495 464.187L293.234 460.53L296.099 464.411L294.04 466.721L291.495 464.411V464.187ZM291.495 465.951L293.268 467.555L291.495 469.512V465.951ZM291.495 471.244L294.138 468.325L298.419 472.174L295.712 474.868L291.529 471.468V471.244H291.495ZM291.495 472.976L294.846 475.702L291.495 479.071V472.976ZM291.495 482.791L293.137 484.428H291.495V482.791ZM291.495 486.32H295.038L295.488 486.769L291.495 490.747V486.32ZM291.495 492.383L296.327 487.571L301.156 492.383V492.479L296.327 497.291L291.495 492.479V492.383ZM291.495 494.115L295.263 497.868H291.495V494.115ZM291.495 499.761H293.815L291.495 502.07V499.761ZM291.495 506.593L295.488 510.571L291.495 514.548V506.593ZM291.495 516.184L296.327 511.373L301.156 516.184V516.409L296.327 521.22L291.495 516.409V516.184ZM291.495 518.045L295.488 522.022L291.495 526V518.045ZM291.495 527.636L296.327 522.824L301.156 527.636V527.86L296.327 532.672L291.495 527.86V527.636ZM291.495 529.496L295.488 533.474L291.495 537.451V529.496ZM291.495 541.557L295.488 545.535L291.495 549.512V541.557ZM291.495 552.913L296.294 557.179L291.495 562.472V552.913ZM291.495 564.204L297.163 557.949L303.987 564.011L298.258 570.331L291.495 564.332V564.204ZM291.495 565.872L297.486 571.197L291.495 577.837V565.872ZM291.495 579.569L298.356 571.967L308.752 581.173L301.895 588.775L291.495 579.569ZM291.495 581.141L301.092 589.673L291.495 600.291V581.141ZM276.397 565.006L281.935 571.133L272.663 579.345L276.397 565.006ZM267.512 599.168L271.891 582.424L278.362 589.577L267.512 599.168ZM289.564 600.291L279.97 589.673L289.564 581.141V600.291ZM289.564 579.569L279.198 588.775L272.341 581.173L282.707 571.967L289.564 579.569ZM289.564 577.837L283.577 571.197L289.564 565.872V577.837ZM289.564 564.332L282.804 570.331L277.072 564.011L283.899 557.949L289.564 564.204V564.332ZM288.758 540.755L284.769 544.733L280.776 540.755H288.758ZM280.195 538.831L284.735 534.308L289.275 538.831H280.195ZM288.758 550.347H280.742L284.735 546.369L288.758 550.347ZM288.567 552.271L283.997 556.345L280.326 552.271H288.567ZM289.564 562.504L284.769 557.211L289.564 552.945V562.504ZM289.564 549.512L285.571 545.535L289.564 541.557V549.512ZM289.564 537.451L285.571 533.474L289.564 529.496V537.451ZM289.564 526L285.571 522.022L289.564 518.045V526ZM289.564 514.548L285.571 510.571L289.564 506.593V514.548ZM288.987 505.534L284.735 509.769L280.484 505.534H288.987ZM280.034 503.61L283.899 499.761H285.635L289.5 503.61H280.034ZM289.564 502.07L287.247 499.761H289.564V502.07ZM289.564 497.836H285.796L289.564 494.083V497.836ZM289.564 490.747L285.571 486.769L286.025 486.32H289.598V490.747H289.564ZM289.564 484.395H287.922L289.564 482.759V484.395ZM289.564 479.071L286.216 475.702L289.564 472.976V479.071ZM288.181 479.295H281.74L285.283 476.408L288.181 479.295ZM289.564 469.512L287.794 467.555L289.564 465.951V469.512ZM289.564 461.492L288.601 459.439L289.564 458.124V461.492ZM289.305 450.522H289.564V456.199L288.019 458.284L287.311 456.809L289.305 450.522ZM286.827 458.445L287.247 459.343L285.991 461.011L286.827 458.445ZM287.824 460.53L289.564 464.187V464.411L287.022 466.721L284.96 464.411L287.824 460.53ZM284.54 465.694L286.152 467.49L283.127 470.217L284.54 465.694ZM286.925 468.325L289.564 471.244V471.5L285.38 474.9L282.673 472.206L286.925 468.325ZM282.16 473.297L284.477 475.606L280.39 478.91L282.16 473.297ZM289.5 481.22L286.314 484.395H283.221L280.034 481.22H289.5ZM279.936 482.791L281.579 484.428H279.936V482.791ZM279.936 486.32H283.513L283.929 486.769L279.936 490.747V486.32ZM279.936 492.383L284.769 487.571L289.598 492.383V492.479L284.769 497.291L279.936 492.479V492.383ZM279.936 494.115L283.704 497.868H279.936V494.115ZM279.936 499.761H282.257L279.936 502.07V499.761ZM279.936 506.593L283.929 510.571L279.936 514.548V506.593ZM279.936 516.184L284.769 511.373L289.598 516.184V516.409L284.769 521.22L279.936 516.409V516.184ZM279.936 518.045L283.929 522.022L279.936 526V518.045ZM279.936 527.636L284.769 522.824L289.598 527.636V527.86L284.769 532.672L279.936 527.86V527.636ZM279.936 529.496L283.929 533.474L279.936 537.451V529.496ZM279.936 541.557L283.929 545.535L279.936 549.512V541.557ZM279.487 553.073L283.127 557.083L277.042 562.472L279.487 553.073Z" fill="#545454"/>
<path d="M70.7111 500.594C70.3249 500.659 69.9706 500.787 69.7776 500.979C69.4233 501.3 69.4233 502.391 69.7776 502.711C69.9706 502.904 70.3568 503.032 70.7756 503.096C70.3568 503.193 69.9706 503.321 69.7776 503.481C69.4233 503.77 69.4233 504.893 69.7776 505.214C69.9706 505.406 70.3568 505.502 70.7756 505.599C70.3568 505.663 69.9706 505.791 69.7776 505.984C69.4233 506.272 69.4233 507.395 69.7776 507.716C70.0351 507.94 70.5503 508.101 71.0976 508.165V508.967H72.2565V508.197C72.8683 508.133 73.3834 508.004 73.6087 507.748C73.8985 507.395 73.8985 506.368 73.6087 506.015C73.4479 505.823 73.1258 505.695 72.7393 505.63C73.1258 505.566 73.4479 505.438 73.6087 505.246C73.8985 504.893 73.8985 503.867 73.6087 503.513C73.4479 503.321 73.1258 503.193 72.7393 503.129C73.1258 503.065 73.4479 502.936 73.6087 502.744C73.8985 502.423 73.8985 501.364 73.6087 501.012C73.4157 500.819 73.0614 500.691 72.643 500.594V499.408H74.5423V499.792H79.404L79.3718 551.213L66.0105 602.664H68.0065L68.393 601.189L80.4984 590.411L90.962 601.991V602.633H92.8939V601.991L103.357 590.411L115.463 601.157L115.849 602.633H117.845L104.452 551.149V499.761H109.281V499.376H111.181V500.594C110.795 500.659 110.44 500.787 110.247 500.979C109.893 501.3 109.893 502.391 110.247 502.711C110.44 502.904 110.827 503.032 111.245 503.096C110.827 503.193 110.44 503.321 110.247 503.481C109.893 503.77 109.893 504.893 110.247 505.214C110.44 505.406 110.827 505.502 111.245 505.599C110.827 505.663 110.44 505.791 110.247 505.984C109.893 506.272 109.893 507.395 110.247 507.716C110.505 507.94 111.02 508.101 111.567 508.165V508.967H112.726V508.197C113.338 508.133 113.853 508.004 114.078 507.748C114.368 507.395 114.368 506.368 114.078 506.015C113.918 505.823 113.596 505.695 113.209 505.63C113.596 505.566 113.918 505.438 114.078 505.246C114.368 504.893 114.368 503.867 114.078 503.513C113.918 503.321 113.596 503.193 113.209 503.129C113.596 503.065 113.918 502.936 114.078 502.744C114.368 502.423 114.368 501.364 114.078 501.012C113.885 500.819 113.531 500.691 113.113 500.594V499.408H115.012V498.253H113.113V497.964H112.726V497.323H111.567V497.964H111.181V498.253H109.281V497.868H104.452V486.352H109.281V485.967H111.181V487.186C110.795 487.283 110.44 487.378 110.247 487.571C109.893 487.892 109.893 488.982 110.247 489.303C110.44 489.496 110.827 489.624 111.245 489.688C110.827 489.752 110.44 489.881 110.247 490.073C109.893 490.394 109.893 491.484 110.247 491.805C110.44 491.998 110.827 492.094 111.245 492.19C110.827 492.255 110.44 492.383 110.247 492.575C109.893 492.864 109.893 493.987 110.247 494.307C110.505 494.532 111.02 494.692 111.567 494.756V495.558H112.726V494.756C113.338 494.692 113.853 494.564 114.078 494.307C114.368 493.954 114.368 492.928 114.078 492.575C113.918 492.383 113.596 492.255 113.209 492.19C113.596 492.094 113.918 491.998 114.078 491.805C114.368 491.453 114.368 490.426 114.078 490.073C113.918 489.881 113.596 489.752 113.209 489.688C113.596 489.624 113.918 489.496 114.078 489.303C114.368 488.982 114.368 487.924 114.078 487.571C113.885 487.378 113.531 487.25 113.113 487.186V485.999H115.012V484.844H113.113V484.524H112.726V483.882H111.567V484.524H111.181V484.812H109.281V484.428H104.452V480.289L94.5679 448.597H92.8939V447.635H90.962V448.597H89.2881L79.4359 480.001V484.428H74.5745V484.812H72.6752V484.524H72.2887V483.882H71.1295V484.524H70.7433V484.812H68.8114V485.967H70.7111V487.186C70.3249 487.283 69.9706 487.378 69.7776 487.571C69.4233 487.892 69.4233 488.982 69.7776 489.303C69.9706 489.496 70.3568 489.624 70.7756 489.688C70.3568 489.752 69.9706 489.881 69.7776 490.073C69.4233 490.394 69.4233 491.484 69.7776 491.805C69.9706 491.998 70.3568 492.094 70.7756 492.19C70.3568 492.255 69.9706 492.383 69.7776 492.575C69.4233 492.864 69.4233 493.987 69.7776 494.307C70.0351 494.532 70.5503 494.692 71.0976 494.756V495.558H72.2565V494.756C72.8683 494.692 73.3834 494.564 73.6087 494.307C73.8985 493.954 73.8985 492.928 73.6087 492.575C73.4479 492.383 73.1258 492.255 72.7393 492.19C73.1258 492.094 73.4479 491.998 73.6087 491.805C73.8985 491.453 73.8985 490.426 73.6087 490.073C73.4479 489.881 73.1258 489.752 72.7393 489.688C73.1258 489.624 73.4479 489.496 73.6087 489.303C73.8985 488.982 73.8985 487.924 73.6087 487.571C73.4157 487.378 73.0614 487.25 72.643 487.186V485.999H74.5423V486.384H79.404V497.9H74.5745V498.285H72.6752V497.996H72.2887V497.355H71.1295V497.996H70.7433V498.285H68.8114V499.44H70.7111V500.594ZM114.948 599.168L104.13 589.577L110.569 582.424L114.948 599.168ZM109.797 579.345L100.524 571.133L106.062 565.006L109.797 579.345ZM105.418 562.504L99.3329 557.083L102.971 553.073L105.418 562.504ZM102.263 538.831H93.1515L97.6909 534.308L102.263 538.831ZM98.528 533.474L102.52 529.496V537.451L98.528 533.474ZM102.52 541.557V549.544L98.528 545.535L102.52 541.557ZM101.715 540.755L97.7231 544.733L93.6988 540.755H101.715ZM101.715 550.347H93.6988L97.6909 546.369L101.715 550.347ZM102.134 552.271L98.4635 556.345L93.8919 552.271H102.134ZM102.52 526L98.528 522.022L102.52 518.045V526ZM98.7533 497.836L102.52 494.083V497.836H98.7533ZM102.52 499.761V502.07L100.202 499.761H102.52ZM102.424 503.61H92.9903L96.8537 499.761H98.5925L102.424 503.61ZM101.941 505.534L97.6909 509.769L93.4413 505.534H101.941ZM102.52 506.593V514.548L98.528 510.571L102.52 506.593ZM102.52 490.747L98.528 486.769L98.9787 486.32H102.553V490.747H102.52ZM102.52 484.395H100.878L102.52 482.759V484.395ZM99.2685 484.395H96.1777L92.9903 481.22H102.488L99.2685 484.395ZM94.2781 479.295L97.1757 476.408L100.717 479.295H94.2781ZM102.069 478.942L97.9807 475.606L100.299 473.297L102.069 478.942ZM99.3329 470.217L96.2744 467.49L97.8839 465.694L99.3329 470.217ZM95.6304 458.445L96.4353 461.043L95.1797 459.375L95.6304 458.445ZM92.8939 450.522H93.1515L95.1152 456.809L94.4071 458.284L92.8617 456.199V450.522H92.8939ZM92.8939 458.156L93.8597 459.471L92.8939 461.492V458.156ZM92.8939 464.187L94.6324 460.53L97.4978 464.411L95.4373 466.721L92.8939 464.411V464.187ZM92.8939 465.951L94.6646 467.555L92.8939 469.512V465.951ZM92.8939 471.244L95.534 468.325L99.8158 472.174L97.1112 474.868L92.9262 471.468V471.244H92.8939ZM92.8939 472.976L96.2422 475.702L92.8939 479.071V472.976ZM92.8939 482.791L94.5356 484.428H92.8939V482.791ZM92.8939 486.32H96.4353L96.8859 486.769L92.8939 490.747V486.32ZM92.8939 492.383L97.7231 487.571L102.553 492.383V492.479L97.7231 497.291L92.8939 492.479V492.383ZM92.8939 494.115L96.6606 497.868H92.8939V494.115ZM92.8939 499.761H95.212L92.8939 502.07V499.761ZM92.8939 506.593L96.8859 510.571L92.8939 514.548V506.593ZM92.8939 516.184L97.7231 511.373L102.553 516.184V516.409L97.7231 521.22L92.8939 516.409V516.184ZM92.8939 518.045L96.8859 522.022L92.8939 526V518.045ZM92.8939 527.636L97.7231 522.824L102.553 527.636V527.86L97.7231 532.672L92.8939 527.86V527.636ZM92.8939 529.496L96.8859 533.474L92.8939 537.451V529.496ZM92.8939 541.557L96.8859 545.535L92.8939 549.512V541.557ZM92.8939 552.913L97.6909 557.179L92.8939 562.472V552.913ZM92.8939 564.204L98.5603 557.949L105.386 564.011L99.655 570.331L92.8939 564.332V564.204ZM92.8939 565.872L98.8823 571.197L92.8939 577.837V565.872ZM92.8939 579.569L99.7513 571.967L110.15 581.173L103.293 588.775L92.8939 579.569ZM92.8939 581.141L102.488 589.673L92.8939 600.291V581.141ZM77.7942 565.006L83.3315 571.133L74.0594 579.345L77.7942 565.006ZM68.9082 599.168L73.2867 582.424L79.7579 589.577L68.9082 599.168ZM90.962 600.291L81.3678 589.673L90.962 581.141V600.291ZM90.962 579.569L80.5951 588.775L73.7373 581.173L84.1046 571.967L90.962 579.569ZM90.962 577.837L84.9736 571.197L90.962 565.872V577.837ZM90.962 564.332L84.201 570.331L78.4701 564.011L85.2957 557.949L90.962 564.204V564.332ZM90.1571 540.755L86.1651 544.733L82.1727 540.755H90.1571ZM81.5931 538.831L86.1329 534.308L90.6722 538.831H81.5931ZM90.1571 550.347H82.1405L86.1329 546.369L90.1571 550.347ZM89.964 552.271L85.3924 556.345L81.7221 552.271H89.964ZM90.962 562.504L86.1651 557.211L90.962 552.945V562.504ZM90.962 549.512L86.9697 545.535L90.962 541.557V549.512ZM90.962 537.451L86.9697 533.474L90.962 529.496V537.451ZM90.962 526L86.9697 522.022L90.962 518.045V526ZM90.962 514.548L86.9697 510.571L90.962 506.593V514.548ZM90.3824 505.534L86.1329 509.769L81.8829 505.534H90.3824ZM81.4323 503.61L85.2957 499.761H87.0341L90.8975 503.61H81.4323ZM90.962 502.07L88.644 499.761H90.962V502.07ZM90.962 497.836H87.1953L90.962 494.083V497.836ZM90.962 490.747L86.9697 486.769L87.4207 486.32H90.9943V490.747H90.962ZM90.962 484.395H89.3199L90.962 482.759V484.395ZM90.962 479.071L87.6138 475.702L90.962 472.976V479.071ZM89.5775 479.295H83.1385L86.6802 476.408L89.5775 479.295ZM90.962 469.512L89.1913 467.555L90.962 465.951V469.512ZM90.962 461.492L89.9963 459.439L90.962 458.124V461.492ZM90.7045 450.522H90.962V456.199L89.4167 458.284L88.7085 456.809L90.7045 450.522ZM88.2256 458.445L88.644 459.343L87.3884 461.011L88.2256 458.445ZM89.2236 460.53L90.962 464.187V464.411L88.4187 466.721L86.3582 464.411L89.2236 460.53ZM85.9394 465.694L87.5492 467.49L84.523 470.217L85.9394 465.694ZM88.3219 468.325L90.962 471.244V471.5L86.7766 474.9L84.0724 472.206L88.3219 468.325ZM83.5573 473.297L85.8753 475.606L81.7862 478.91L83.5573 473.297ZM90.8975 481.22L87.7105 484.395H84.6197L81.4323 481.22H90.8975ZM81.3356 482.791L82.9776 484.428H81.3356V482.791ZM81.3356 486.32H84.9092L85.3279 486.769L81.3356 490.747V486.32ZM81.3356 492.383L86.1651 487.571L90.9943 492.383V492.479L86.1651 497.291L81.3356 492.479V492.383ZM81.3356 494.115L85.1026 497.868H81.3356V494.115ZM81.3356 499.761H83.6536L81.3356 502.07V499.761ZM81.3356 506.593L85.3279 510.571L81.3356 514.548V506.593ZM81.3356 516.184L86.1651 511.373L90.9943 516.184V516.409L86.1651 521.22L81.3356 516.409V516.184ZM81.3356 518.045L85.3279 522.022L81.3356 526V518.045ZM81.3356 527.636L86.1651 522.824L90.9943 527.636V527.86L86.1651 532.672L81.3356 527.86V527.636ZM81.3356 529.496L85.3279 533.474L81.3356 537.451V529.496ZM81.3356 541.557L85.3279 545.535L81.3356 549.512V541.557ZM80.8849 553.073L84.523 557.083L78.4379 562.472L80.8849 553.073Z" fill="#545454"/>
<g opacity="0.5">
<path opacity="0.5" fill-rule="evenodd" clip-rule="evenodd" d="M177.013 419.134C178.433 419.134 179.559 420.261 179.559 421.682C179.559 423.103 178.433 424.23 177.013 424.23C175.593 424.23 174.466 423.103 174.466 421.682C174.466 420.31 175.593 419.134 177.013 419.134Z" fill="#1A1A1B"/>
<path opacity="0.5" fill-rule="evenodd" clip-rule="evenodd" d="M166.629 432.17C168.588 432.17 170.106 433.787 170.106 435.649C170.106 437.609 168.588 439.226 166.629 439.226C164.67 439.226 163.054 437.609 163.054 435.649C163.054 433.787 164.67 432.17 166.629 432.17Z" fill="#1A1A1B"/>
<path opacity="0.5" fill-rule="evenodd" clip-rule="evenodd" d="M173.095 428.445C174.124 428.445 174.907 429.229 174.907 430.258C174.907 431.288 174.124 432.072 173.095 432.072C172.067 432.072 171.283 431.288 171.283 430.258C171.283 429.278 172.116 428.445 173.095 428.445Z" fill="#1A1A1B"/>
<path opacity="0.5" fill-rule="evenodd" clip-rule="evenodd" d="M141.998 400.463C142.781 400.463 143.516 400.855 143.956 401.443C144.201 396.935 147.923 393.308 152.526 393.308C153.457 393.308 154.387 393.455 155.22 393.749C156.738 391.495 159.235 390.025 162.027 389.829C162.908 385.173 166.973 381.645 171.968 381.645C177.551 381.645 182.105 386.202 182.105 391.789C182.105 393.014 181.86 394.239 181.468 395.317C183.084 395.905 184.26 397.425 184.26 399.238C184.26 401.541 182.399 403.305 180.195 403.305C178.53 403.305 177.061 402.325 176.424 400.904C175.102 401.541 173.584 401.933 172.017 401.933C171.674 401.933 171.38 401.933 171.087 401.884C170.89 402.423 170.646 402.913 170.352 403.403C173.045 403.893 175.298 405.804 176.326 408.304C177.208 406.393 179.118 405.021 181.321 405.021C184.357 405.021 186.806 407.52 186.806 410.509C186.806 413.547 184.309 415.997 181.321 415.997C179.313 415.997 177.599 414.92 176.62 413.302C175.69 416.683 172.555 419.281 168.834 419.281C168.54 419.281 168.295 419.281 168.001 419.232C167.903 420.065 167.658 420.8 167.267 421.535C168.736 422.515 169.666 424.182 169.666 426.093C169.666 429.131 167.169 431.581 164.182 431.581C161.096 431.581 158.697 429.082 158.697 426.093C158.697 425.701 158.746 425.358 158.794 424.966C156.934 424.329 155.465 422.956 154.632 421.143C153.947 421.731 153.065 422.074 152.086 422.074C149.784 422.074 147.923 420.212 147.923 417.909C147.923 415.606 149.784 413.841 152.086 413.841C153.163 413.841 154.142 414.282 154.877 414.968C156.052 412.861 158.256 411.391 160.802 411.342C160.802 410.068 161.096 408.892 161.635 407.814C160.802 407.716 160.019 407.52 159.235 407.226C157.668 409.284 155.22 410.607 152.477 410.607C148.511 410.607 145.23 407.961 144.25 404.383C143.859 405.216 142.977 405.804 141.998 405.804C140.577 405.804 139.451 404.677 139.451 403.256C139.451 401.639 140.627 400.463 141.998 400.463Z" fill="#1A1A1B"/>
<path opacity="0.5" fill-rule="evenodd" clip-rule="evenodd" d="M153.653 425.406C154.681 425.406 155.465 426.191 155.465 427.171C155.465 428.151 154.681 428.984 153.653 428.984C152.624 428.984 151.841 428.2 151.841 427.171C151.89 426.191 152.673 425.406 153.653 425.406Z" fill="#1A1A1B"/>
<path opacity="0.5" fill-rule="evenodd" clip-rule="evenodd" d="M190.184 392.524C192.143 392.524 193.71 394.043 193.71 396.003C193.71 397.964 192.094 399.581 190.184 399.581C188.323 399.581 186.708 397.964 186.708 396.003C186.708 394.092 188.323 392.524 190.184 392.524Z" fill="#1A1A1B"/>
<path opacity="0.5" fill-rule="evenodd" clip-rule="evenodd" d="M152.134 390.809C150.714 390.809 149.539 389.682 149.539 388.261C149.539 386.84 150.763 385.713 152.134 385.713C153.554 385.713 154.681 386.84 154.681 388.261C154.681 389.633 153.554 390.809 152.134 390.809Z" fill="#1A1A1B"/>
<path opacity="0.5" fill-rule="evenodd" clip-rule="evenodd" d="M162.273 377.577C161.293 377.577 160.461 376.793 160.461 375.764C160.461 374.833 161.244 374 162.273 374C163.203 374 164.036 374.784 164.036 375.764C163.987 376.793 163.203 377.577 162.273 377.577Z" fill="#1A1A1B"/>
<path opacity="0.5" fill-rule="evenodd" clip-rule="evenodd" d="M170.303 439.814C171.037 439.814 171.625 440.402 171.625 441.235C171.625 441.97 171.037 442.656 170.303 442.656C169.519 442.656 168.883 441.97 168.883 441.235C168.883 440.402 169.47 439.814 170.303 439.814Z" fill="#1A1A1B"/>
</g>
<path d="M145.426 433.396L145.916 420.164C145.916 420.066 145.965 419.919 146.161 419.87C146.552 419.625 147.385 419.625 147.923 419.821C148.217 419.919 148.364 420.066 148.364 420.213L148.854 433.444H145.426V433.396Z" fill="#CBD2DE"/>
<path d="M147.09 420.8C146.405 420.8 145.817 420.996 145.817 421.241V420.604C145.817 420.359 146.356 420.163 147.09 420.163C147.776 420.163 148.364 420.359 148.364 420.604V421.241C148.364 420.996 147.825 420.8 147.09 420.8Z" fill="#F0F1F7"/>
<path d="M147.091 420.212C146.405 420.212 145.867 420.408 145.867 420.653V420.016C145.867 419.771 146.405 419.575 147.091 419.575C147.776 419.575 148.315 419.771 148.315 420.016V420.653C148.364 420.408 147.776 420.212 147.091 420.212Z" fill="#FF6B37"/>
<g opacity="0.2">
<path opacity="0.1" d="M148.462 433.394H147.287L147.336 420.31C147.336 420.064 147.336 419.869 147.679 419.869C148.022 419.869 148.022 420.064 148.022 420.31L148.462 433.394Z" fill="#404041"/>
</g>
<path opacity="0.3" d="M145.768 433.394H146.355L146.551 420.408C146.551 420.163 146.551 419.967 146.355 419.967C146.159 419.967 146.159 420.163 146.159 420.408L145.768 433.394Z" fill="white"/>
<path d="M191.9 488.133C189.452 467.551 189.452 435.012 189.452 435.012C189.452 428.543 178.58 423.25 165.211 423.25C151.793 423.25 140.97 428.494 140.97 435.012C140.97 435.012 140.921 467.551 138.424 488.133C134.408 521.408 126.965 543.607 126.965 543.607H203.358C203.309 543.558 195.867 521.408 191.9 488.133Z" fill="#93A4B3"/>
<path d="M140.97 437.265C140.97 430.454 151.842 424.916 165.309 424.916C178.727 424.916 189.599 430.454 189.599 437.315H189.648C189.648 434.521 189.452 433.737 189.452 433.737C189.452 427.269 178.58 421.976 165.211 421.976C151.793 421.976 140.97 427.219 140.97 433.737C140.97 433.737 140.775 434.619 140.775 437.315H140.97V437.265Z" fill="#FF6B37"/>
<path opacity="0.3" d="M156.249 424.083C147.287 425.799 140.97 430.062 140.921 435.012C140.921 435.012 140.872 467.551 138.374 488.134C134.359 521.408 126.915 543.607 126.915 543.607L156.249 424.083Z" fill="white"/>
<path opacity="0.1" d="M174.075 423.838L136.661 543.558H203.358C203.358 543.558 195.916 521.408 191.949 488.133C189.501 467.551 189.501 435.012 189.501 435.012C189.452 430.797 182.204 425.309 174.075 423.838Z" fill="#070041"/>
<g opacity="0.5">
<path opacity="0.5" fill-rule="evenodd" clip-rule="evenodd" d="M214.575 429.866C213.447 429.866 212.566 430.748 212.566 431.875C212.566 433.002 213.447 433.885 214.575 433.885C215.7 433.885 216.581 433.002 216.581 431.875C216.63 430.748 215.7 429.866 214.575 429.866Z" fill="#BAC0CB"/>
<path opacity="0.5" fill-rule="evenodd" clip-rule="evenodd" d="M222.849 440.207C221.282 440.207 220.056 441.481 220.056 443C220.056 444.568 221.282 445.842 222.849 445.842C224.417 445.842 225.691 444.568 225.691 443C225.639 441.481 224.368 440.207 222.849 440.207Z" fill="#BAC0CB"/>
<path opacity="0.5" fill-rule="evenodd" clip-rule="evenodd" d="M217.661 437.266C216.877 437.266 216.24 437.903 216.24 438.688C216.24 439.471 216.877 440.108 217.661 440.108C218.444 440.108 219.078 439.471 219.078 438.688C219.127 437.903 218.493 437.266 217.661 437.266Z" fill="#BAC0CB"/>
<path opacity="0.5" fill-rule="evenodd" clip-rule="evenodd" d="M242.39 415.017C241.752 415.017 241.216 415.311 240.823 415.801C240.628 412.224 237.688 409.333 234.014 409.333C233.279 409.333 232.548 409.48 231.862 409.676C230.685 407.912 228.679 406.687 226.475 406.588C225.789 402.913 222.508 400.071 218.591 400.071C214.182 400.071 210.56 403.697 210.56 408.108C210.56 409.088 210.755 410.019 211.048 410.901C209.777 411.342 208.843 412.567 208.843 413.988C208.843 415.801 210.313 417.223 212.075 417.223C213.398 417.223 214.575 416.439 215.063 415.311C216.142 415.801 217.316 416.096 218.542 416.096C218.786 416.096 219.029 416.096 219.277 416.047C219.423 416.487 219.618 416.88 219.862 417.272C217.71 417.664 215.944 419.183 215.112 421.143C214.425 419.624 212.911 418.546 211.145 418.546C208.746 418.546 206.789 420.506 206.789 422.907C206.789 425.309 208.746 427.269 211.145 427.269C212.712 427.269 214.133 426.436 214.868 425.162C215.603 427.857 218.099 429.915 221.039 429.915C221.234 429.915 221.477 429.915 221.676 429.866C221.774 430.503 221.969 431.14 222.261 431.679C221.136 432.463 220.353 433.786 220.353 435.257C220.353 437.658 222.31 439.618 224.713 439.618C227.161 439.618 229.069 437.658 229.069 435.257C229.069 434.962 229.021 434.669 228.972 434.375C230.441 433.885 231.615 432.757 232.252 431.336C232.792 431.777 233.478 432.071 234.262 432.071C236.073 432.071 237.542 430.601 237.542 428.788C237.542 426.975 236.073 425.553 234.262 425.553C233.381 425.553 232.597 425.896 232.057 426.436C231.127 424.77 229.362 423.593 227.356 423.544C227.356 422.515 227.112 421.584 226.67 420.751C227.356 420.702 227.993 420.506 228.578 420.261C229.804 421.878 231.765 422.956 233.966 422.956C237.1 422.956 239.698 420.849 240.53 418.007C240.871 418.693 241.557 419.134 242.341 419.134C243.466 419.134 244.347 418.252 244.347 417.125C244.399 415.949 243.514 415.017 242.39 415.017Z" fill="#1A1A1B"/>
<path opacity="0.5" fill-rule="evenodd" clip-rule="evenodd" d="M233.137 434.816C232.353 434.816 231.716 435.453 231.716 436.188C231.716 436.972 232.353 437.609 233.137 437.609C233.92 437.609 234.554 436.972 234.554 436.188C234.554 435.453 233.92 434.816 233.137 434.816Z" fill="#BAC0CB"/>
<path opacity="0.5" fill-rule="evenodd" clip-rule="evenodd" d="M204.093 408.696C202.526 408.696 201.255 409.921 201.255 411.489C201.255 413.008 202.526 414.331 204.093 414.331C205.563 414.331 206.886 413.057 206.886 411.489C206.886 409.921 205.611 408.696 204.093 408.696Z" fill="#BAC0CB"/>
<path opacity="0.5" fill-rule="evenodd" clip-rule="evenodd" d="M234.359 407.324C235.484 407.324 236.417 406.393 236.417 405.314C236.417 404.187 235.435 403.305 234.359 403.305C233.235 403.305 232.35 404.187 232.35 405.314C232.301 406.441 233.235 407.324 234.359 407.324Z" fill="#BAC0CB"/>
<path opacity="0.5" fill-rule="evenodd" clip-rule="evenodd" d="M226.325 396.836C227.108 396.836 227.746 396.199 227.746 395.415C227.746 394.68 227.108 394.043 226.325 394.043C225.59 394.043 224.956 394.68 224.956 395.415C224.908 396.199 225.541 396.836 226.325 396.836Z" fill="#BAC0CB"/>
<path opacity="0.5" fill-rule="evenodd" clip-rule="evenodd" d="M219.91 446.283C219.322 446.283 218.834 446.773 218.834 447.41C218.834 447.998 219.322 448.537 219.91 448.537C220.548 448.537 221.035 447.998 221.035 447.41C221.035 446.724 220.548 446.283 219.91 446.283Z" fill="#BAC0CB"/>
</g>
<path d="M206.74 452.655L207.13 441.726C207.13 441.628 207.178 441.53 207.328 441.481C207.67 441.285 208.307 441.236 208.794 441.432C209.042 441.53 209.188 441.628 209.188 441.775L209.578 452.704H206.74V452.655Z" fill="#CBD2DE"/>
<path d="M208.108 442.214C207.523 442.214 207.081 442.361 207.081 442.606V442.067C207.081 441.871 207.523 441.724 208.108 441.724C208.697 441.724 209.139 441.871 209.139 442.067V442.606C209.188 442.41 208.697 442.214 208.108 442.214Z" fill="#F0F1F7"/>
<path d="M208.108 441.773C207.523 441.773 207.081 441.92 207.081 442.165V441.626C207.081 441.43 207.523 441.283 208.108 441.283C208.648 441.283 209.139 441.43 209.139 441.626V442.165C209.139 441.92 208.697 441.773 208.108 441.773Z" fill="#FF6B37"/>
<g opacity="0.2">
<path opacity="0.1" d="M209.237 452.652H208.307L208.356 441.871C208.356 441.675 208.356 441.528 208.648 441.528C208.944 441.528 208.944 441.675 208.944 441.871L209.237 452.652Z" fill="#404041"/>
</g>
<path opacity="0.3" d="M207.032 452.653H207.52L207.67 441.921C207.67 441.725 207.67 441.578 207.52 441.578C207.373 441.578 207.373 441.725 207.373 441.921L207.032 452.653Z" fill="white"/>
<path d="M245.13 497.787C243.124 480.782 243.124 453.927 243.124 453.927C243.124 448.586 234.16 444.224 223.093 444.224C212.026 444.224 203.066 448.537 203.066 453.927C203.066 453.927 203.017 480.782 200.959 497.787C197.678 525.279 191.459 543.558 191.459 543.558H254.484C254.533 543.558 248.362 525.279 245.13 497.787Z" fill="#93A4B3"/>
<path d="M203.066 455.838C203.066 450.202 212.075 445.645 223.142 445.645C234.209 445.645 243.222 450.251 243.222 455.887H243.271C243.271 453.584 243.124 452.898 243.124 452.898C243.124 447.556 234.16 443.195 223.093 443.195C212.026 443.195 203.066 447.507 203.066 452.898C203.066 452.898 202.919 453.633 202.919 455.887H203.066V455.838Z" fill="#FF6B37"/>
<path opacity="0.3" d="M215.7 444.91C208.303 446.331 203.066 449.811 203.066 453.927C203.066 453.927 203.017 480.782 200.959 497.787C197.678 525.279 191.459 543.558 191.459 543.558L215.7 444.91Z" fill="white"/>
<path opacity="0.1" d="M230.393 444.714L199.49 543.509H254.533C254.533 543.509 248.362 525.23 245.13 497.787C243.124 480.782 243.124 453.927 243.124 453.927C243.076 450.497 237.1 445.988 230.393 444.714Z" fill="#070041"/>
<path d="M230.389 498.081L197.433 506.266L197.384 543.509L230.34 543.559L230.389 498.081Z" fill="white"/>
<path d="M251.399 543.559L230.34 543.509L230.393 498.081L251.447 512.391L251.399 543.559Z" fill="#AEB4BE"/>
<path d="M245.378 529.102L214.133 531.111V543.559H245.378V529.102Z" fill="#CBD2DE"/>
<path d="M265.356 543.559H245.378V529.102L265.356 531.111V543.559Z" fill="#BAC0CB"/>
<path d="M145.426 535.276L116.092 536.11V543.558H145.426V535.276Z" fill="white"/>
<path d="M158.649 527.093L139.648 528.857L139.599 543.559H158.6L158.649 527.093Z" fill="#CBD2DE"/>
<path fill-rule="evenodd" clip-rule="evenodd" d="M177.011 477.255C176.668 477.255 176.375 477.549 176.375 477.892C176.375 478.235 176.668 478.529 177.011 478.529C177.354 478.529 177.648 478.235 177.648 477.892C177.648 477.549 177.354 477.255 177.011 477.255Z" fill="#BAC0CB"/>
<path fill-rule="evenodd" clip-rule="evenodd" d="M179.558 480.391C179.068 480.391 178.725 480.783 178.725 481.224C178.725 481.714 179.117 482.106 179.558 482.106C180.048 482.106 180.39 481.714 180.39 481.224C180.39 480.783 179.999 480.391 179.558 480.391Z" fill="#BAC0CB"/>
<path fill-rule="evenodd" clip-rule="evenodd" d="M177.941 479.508C177.696 479.508 177.501 479.704 177.501 479.95C177.501 480.195 177.696 480.391 177.941 480.391C178.186 480.391 178.382 480.195 178.382 479.95C178.382 479.704 178.186 479.508 177.941 479.508Z" fill="#BAC0CB"/>
<path fill-rule="evenodd" clip-rule="evenodd" d="M185.482 472.746C185.287 472.746 185.14 472.844 184.993 472.991C184.944 471.913 184.062 471.031 182.936 471.031C182.691 471.031 182.495 471.08 182.299 471.129C181.957 470.59 181.32 470.247 180.634 470.198C180.438 469.071 179.459 468.237 178.235 468.237C176.913 468.237 175.786 469.315 175.786 470.688C175.786 470.982 175.835 471.276 175.933 471.521C175.541 471.668 175.247 472.011 175.247 472.452C175.247 472.991 175.688 473.432 176.227 473.432C176.619 473.432 176.961 473.187 177.158 472.844C177.5 472.991 177.843 473.089 178.235 473.089C178.333 473.089 178.382 473.089 178.479 473.089C178.529 473.236 178.578 473.334 178.676 473.481C178.039 473.628 177.5 474.069 177.255 474.657C177.059 474.216 176.57 473.873 176.031 473.873C175.296 473.873 174.709 474.461 174.709 475.196C174.709 475.931 175.296 476.519 176.031 476.519C176.521 476.519 176.913 476.274 177.158 475.882C177.353 476.715 178.137 477.303 179.018 477.303C179.067 477.303 179.165 477.303 179.214 477.303C179.263 477.499 179.312 477.695 179.41 477.842C179.067 478.088 178.822 478.48 178.822 478.921C178.822 479.656 179.41 480.244 180.145 480.244C180.879 480.244 181.467 479.656 181.467 478.921C181.467 478.823 181.467 478.724 181.418 478.675C181.858 478.528 182.25 478.185 182.397 477.744C182.544 477.891 182.789 477.989 183.034 477.989C183.573 477.989 184.013 477.548 184.013 477.009C184.013 476.47 183.573 476.029 183.034 476.029C182.789 476.029 182.544 476.127 182.348 476.274C182.055 475.784 181.516 475.392 180.928 475.392C180.928 475.098 180.83 474.804 180.732 474.559C180.928 474.559 181.124 474.51 181.32 474.412C181.712 474.902 182.299 475.245 182.936 475.245C183.866 475.245 184.699 474.608 184.944 473.726C185.042 473.922 185.237 474.069 185.482 474.069C185.825 474.069 186.119 473.775 186.119 473.432C186.07 473.04 185.825 472.746 185.482 472.746Z" fill="#B2B2B2"/>
<path fill-rule="evenodd" clip-rule="evenodd" d="M182.643 478.774C182.399 478.774 182.203 478.97 182.203 479.215C182.203 479.46 182.399 479.656 182.643 479.656C182.888 479.656 183.084 479.46 183.084 479.215C183.084 478.97 182.888 478.774 182.643 478.774Z" fill="#BAC0CB"/>
<path fill-rule="evenodd" clip-rule="evenodd" d="M173.828 470.835C173.338 470.835 172.947 471.227 172.947 471.668C172.947 472.158 173.338 472.501 173.828 472.501C174.269 472.501 174.661 472.109 174.661 471.668C174.661 471.227 174.318 470.835 173.828 470.835Z" fill="#BAC0CB"/>
<path fill-rule="evenodd" clip-rule="evenodd" d="M183.035 470.442C183.377 470.442 183.671 470.149 183.671 469.805C183.671 469.462 183.377 469.169 183.035 469.169C182.692 469.169 182.398 469.462 182.398 469.805C182.398 470.149 182.692 470.442 183.035 470.442Z" fill="#BAC0CB"/>
<path fill-rule="evenodd" clip-rule="evenodd" d="M180.586 467.258C180.831 467.258 181.027 467.062 181.027 466.816C181.027 466.572 180.831 466.375 180.586 466.375C180.341 466.375 180.146 466.572 180.146 466.816C180.146 467.062 180.341 467.258 180.586 467.258Z" fill="#BAC0CB"/>
<path fill-rule="evenodd" clip-rule="evenodd" d="M178.627 482.253C178.431 482.253 178.284 482.4 178.284 482.596C178.284 482.792 178.431 482.939 178.627 482.939C178.823 482.939 178.97 482.792 178.97 482.596C178.97 482.4 178.823 482.253 178.627 482.253Z" fill="#BAC0CB"/>
<path d="M173.192 543.558L174.466 487.643C174.417 487.153 174.613 486.712 175.053 486.32C176.131 485.339 178.285 485.192 179.803 486.025C180.587 486.467 181.028 487.055 181.028 487.692L182.301 543.607H173.192V543.558Z" fill="#AEB4BE"/>
<path d="M177.796 490.289C175.935 490.289 174.368 491.171 174.368 492.201L174.417 489.554C174.417 488.525 175.935 487.692 177.747 487.692C179.608 487.692 181.126 488.525 181.126 489.554L181.175 492.201C181.175 491.122 179.657 490.289 177.796 490.289Z" fill="#F0F1F7"/>
<path d="M177.795 487.839C175.935 487.839 174.465 488.721 174.465 489.75L174.514 487.104C174.514 486.075 175.983 485.242 177.795 485.242C179.607 485.242 181.076 486.075 181.076 487.104L181.126 489.75C181.126 488.721 179.656 487.839 177.795 487.839Z" fill="#FF6B37"/>
<g opacity="0.2">
<path opacity="0.3" d="M181.421 543.558H178.335L178.433 488.28C178.433 487.3 178.433 486.516 179.315 486.516C180.196 486.516 180.196 487.3 180.196 488.28L181.421 543.558Z" fill="#404041"/>
</g>
<path opacity="0.3" d="M174.172 543.558H175.788L176.327 488.623C176.327 487.643 176.327 486.859 175.886 486.859C175.397 486.859 175.446 487.643 175.446 488.623L174.172 543.558Z" fill="white"/>
<path d="M204.73 517.341C204.73 508.52 195.524 501.365 184.113 501.365C172.703 501.365 163.448 508.471 163.448 517.292C163.448 526.113 172.654 533.267 184.064 533.267C195.475 533.267 204.73 526.113 204.73 517.341Z" fill="#CBD2DE"/>
<path d="M157.719 543.558H182.645V511.705L156.886 517.389L156.837 541.01H157.719V543.558Z" fill="#F0F1F7"/>
<path d="M215.505 541.206L182.646 540.52V543.559H215.505V541.206Z" fill="#30404B"/>
<path d="M157.719 543.559H182.645V540.52L157.719 541.01V543.559Z" fill="#485967"/>
<path opacity="0.2" d="M182.645 540.52L157.719 541.01V541.795L182.645 541.452V540.52Z" fill="#010101"/>
<path opacity="0.2" d="M182.646 541.452L215.505 542.039V541.157L182.646 540.52V541.452Z" fill="#010101"/>
<path d="M216.337 541.206L182.646 540.52V511.705L216.337 519.154V541.206Z" fill="#CBD2DE"/>
<path d="M207.816 529.2L212.566 529.739V523.76L207.816 522.976V529.2Z" fill="#F0F1F7"/>
<path d="M198.708 528.024L204.093 528.71V522.29L198.708 521.359V528.024Z" fill="#F0F1F7"/>
<path d="M188.081 526.7L194.251 527.484V520.624L188.081 519.546V526.7Z" fill="#F0F1F7"/>
<path d="M207.816 543.558H212.517L212.566 532.385L207.816 531.944V543.558Z" fill="#F0F1F7"/>
<path d="M198.708 537.776L204.093 538.021V531.601L198.708 531.062V537.776Z" fill="#F0F1F7"/>
<path d="M188.081 537.286L194.251 537.531V530.621L188.081 530.033V537.286Z" fill="#F0F1F7"/>
<path d="M188.081 530.033V530.523L193.614 531.062L194.251 530.621L188.081 530.033Z" fill="#404041"/>
<path d="M188.081 520.085V519.546L194.251 520.624L193.614 521.016L188.081 520.085Z" fill="#5B6F80"/>
<path d="M198.708 521.947V521.359L204.093 522.29L203.459 522.731L198.708 521.947Z" fill="#5B6F80"/>
<path d="M204.093 531.601L203.459 531.993L198.708 531.552V531.062L204.093 531.601Z" fill="#404041"/>
<path d="M212.566 532.385L211.928 532.826L207.816 532.434V531.944L212.566 532.385Z" fill="#404041"/>
<path d="M212.566 523.76L211.928 524.201L207.816 523.515V522.976L212.566 523.76Z" fill="#5B6F80"/>
<path d="M176.622 524.446L162.175 526.407V543.558H176.622V524.446Z" fill="#25343E"/>
<path d="M163.595 527.044L176.622 525.328V543.558H163.546L163.595 527.044Z" fill="#5B6F80"/>
<path d="M163.595 527.044L162.175 526.407L176.622 524.446V525.328L163.595 527.044Z" fill="#25343E"/>
<path d="M194.251 530.621L188.081 530.033V526.701L194.251 527.485V530.621Z" fill="#404041"/>
<path d="M204.093 531.601L198.708 531.062V528.024L204.093 528.71V531.601Z" fill="#404041"/>
<path d="M212.566 532.385L207.816 531.944V529.2L212.566 529.739V532.385Z" fill="#404041"/>
<path d="M176.621 523.074L169.618 522.143V523.564L176.621 524.446V523.074Z" fill="#CBD2DE"/>
<path d="M162.174 526.407L176.621 524.446L169.618 523.564L155.367 525.721L162.174 526.407Z" fill="#25343E"/>
<path d="M155.367 525.721L169.618 523.564V522.143L155.367 524.446V525.721Z" fill="white"/>
<path d="M204.097 529.347L198.71 528.759V528.024L204.097 528.71V529.347Z" fill="#5B6F80"/>
<path d="M204.093 530.474L198.708 529.886V529.2L204.093 529.788V530.474Z" fill="#5B6F80"/>
<path d="M204.093 531.601L198.708 531.062V530.376L204.093 530.915V531.601Z" fill="#5B6F80"/>
<path d="M212.566 530.376L207.816 529.837V529.2L212.566 529.739V530.376Z" fill="#5B6F80"/>
<path d="M212.566 531.405L207.816 530.866V530.229L212.566 530.768V531.405Z" fill="#5B6F80"/>
<path d="M212.566 532.385L207.816 531.944V531.307L212.566 531.797V532.385Z" fill="#5B6F80"/>
<path d="M194.252 528.22L188.082 527.485V526.701L194.252 527.485V528.22Z" fill="#5B6F80"/>
<path d="M194.252 529.396L188.082 528.76V527.976L194.252 528.662V529.396Z" fill="#5B6F80"/>
<path d="M194.252 530.622L188.082 530.033V529.25L194.252 529.886V530.622Z" fill="#5B6F80"/>
<path opacity="0.1" d="M163.595 527.044L176.622 525.328V533.12L163.595 534.002L162.175 529.249V526.406L163.595 527.044Z" fill="#070041"/>
<path d="M156.886 517.39H154.095L182.645 509.5L218.294 518.958L216.337 519.154L182.645 511.705L156.886 517.39Z" fill="#25343E"/>
<path d="M211.928 543.559H207.816V532.434L211.928 532.826V543.559Z" fill="#5B6F80"/>
<path fill-rule="evenodd" clip-rule="evenodd" d="M168.346 538.462L171.088 538.364V537.972L168.346 538.07V538.462Z" fill="#30404B"/>
<path fill-rule="evenodd" clip-rule="evenodd" d="M168.15 538.217L170.844 538.119V537.776L168.15 537.874V538.217Z" fill="url(#paint0_linear)"/>
<path fill-rule="evenodd" clip-rule="evenodd" d="M210.02 538.707H211.441V538.511H210.02V538.707Z" fill="#30404B"/>
<path fill-rule="evenodd" clip-rule="evenodd" d="M209.923 538.56L211.291 538.609L211.343 538.413H209.923V538.56Z" fill="url(#paint1_linear)"/>
<path d="M198.707 537.776L203.459 537.972V531.993L198.707 531.552V537.776ZM188.081 537.286L193.614 537.531V531.062L188.081 530.523V537.286ZM207.816 529.2L211.88 529.69V524.201L207.816 523.515V529.2ZM198.707 528.024L203.459 528.612V522.731L198.707 521.947V528.024ZM188.081 520.085V526.701L193.614 527.387V521.016L188.081 520.085Z" fill="url(#paint2_linear)"/>
<path opacity="0.1" d="M216.337 541.206V519.154L201.645 515.919L184.016 543.558H215.505V541.206H216.337Z" fill="#070041"/>
<path opacity="0.2" d="M156.886 517.389L182.645 511.705L161.441 543.558H157.719V541.01H156.837L156.886 517.389Z" fill="white"/>
<path d="M109.445 545.228C109.603 544.604 110.142 544.15 110.784 544.101L201.296 537.199C201.379 537.193 201.465 537.193 201.547 537.201L269.465 543.51C270.058 543.565 270.56 543.962 270.748 544.524L285.496 588.247C285.823 589.219 285.099 590.226 284.076 590.226H99.9703C98.9925 590.226 98.2764 589.306 98.5164 588.358L109.445 545.228Z" fill="#546A97"/>
<path d="M199.223 538.364C199.312 537.55 200.036 536.958 200.85 537.034L277.121 544.077C277.796 544.14 278.347 544.648 278.459 545.317L285.86 588.473C286.017 589.389 285.313 590.226 284.383 590.226H195.231C194.339 590.226 193.643 589.451 193.74 588.563L199.223 538.364Z" fill="#334872"/>
</g>
<defs>
<linearGradient id="paint0_linear" x1="169.503" y1="537.797" x2="169.502" y2="538.274" gradientUnits="userSpaceOnUse">
<stop stop-color="white"/>
<stop offset="0.275" stop-color="#FCFCFC"/>
<stop offset="0.5026" stop-color="#F1F2F2"/>
<stop offset="0.7133" stop-color="#E0E1E2"/>
<stop offset="0.9127" stop-color="#C8CACB"/>
<stop offset="1" stop-color="#BBBDBF"/>
</linearGradient>
<linearGradient id="paint1_linear" x1="210.62" y1="538.396" x2="210.609" y2="538.641" gradientUnits="userSpaceOnUse">
<stop stop-color="white"/>
<stop offset="0.275" stop-color="#FCFCFC"/>
<stop offset="0.5026" stop-color="#F1F2F2"/>
<stop offset="0.7133" stop-color="#E0E1E2"/>
<stop offset="0.9127" stop-color="#C8CACB"/>
<stop offset="1" stop-color="#BBBDBF"/>
</linearGradient>
<linearGradient id="paint2_linear" x1="191.638" y1="539.339" x2="203.287" y2="519.206" gradientUnits="userSpaceOnUse">
<stop stop-color="#002F51"/>
<stop offset="0.2193" stop-color="#2F5C7E"/>
<stop offset="0.4711" stop-color="#5E89AC"/>
<stop offset="0.6944" stop-color="#80AACD"/>
<stop offset="0.8783" stop-color="#94BEE1"/>
<stop offset="1" stop-color="#9CC5E8"/>
</linearGradient>
<clipPath id="clip0">
<rect width="375" height="667" fill="white"/>
</clipPath>
</defs>
</svg>
