<svg width="1920" height="1080" viewBox="0 0 1920 1080" fill="none" xmlns="http://www.w3.org/2000/svg">
<g clip-path="url(#clip0)">
<g clip-path="url(#clip1)">
<path d="M1052.08 764.576H1044.44V794.901H1052.08V764.576Z" fill="#808080"/>
<rect x="1047.62" y="763.008" width="4.4257" height="31.8933" fill="#4B4848"/>
<rect x="1044.97" y="763.008" width="0.885139" height="31.8933" fill="#E4E4E4"/>
<path d="M1086.64 760.516H1009.32L1022.26 709.08H1073.77L1086.64 760.516Z" fill="#0071BC"/>
<path d="M1021.04 711.266H1074.51L1074.64 712.015H1020.85L1021.04 711.266Z" fill="#B3B3B3"/>
<path d="M1021.04 710.735H1074.51L1074.64 711.484H1020.85L1021.04 710.735Z" fill="#CCCCCC"/>
<path d="M1020.51 715.232H1075.17L1075.29 715.982H1020.35L1020.51 715.232Z" fill="#B3B3B3"/>
<path d="M1020.51 714.732H1075.17L1075.29 715.482H1020.35L1020.51 714.732Z" fill="#CCCCCC"/>
<path d="M1018.42 720.916H1077.23L1077.35 721.915H1018.2L1018.42 720.916Z" fill="#B3B3B3"/>
<path d="M1018.42 720.229H1077.23L1077.35 721.228H1018.2L1018.42 720.229Z" fill="#E6E6E6"/>
<path d="M1014.28 738.749H1081.21L1081.34 739.998H1014.06L1014.28 738.749Z" fill="#B3B3B3"/>
<path d="M1014.28 737.905H1081.21L1081.34 739.155H1014.06L1014.28 737.905Z" fill="#E6E6E6"/>
<path d="M1017.33 725.944H1078.29L1078.41 726.944H1017.15L1017.33 725.944Z" fill="#B3B3B3"/>
<path d="M1017.33 725.257H1078.29L1078.41 726.257H1017.15L1017.33 725.257Z" fill="#CCCCCC"/>
<path d="M1015.59 731.909H1080.4L1080.56 732.908H1015.37L1015.59 731.909Z" fill="#B3B3B3"/>
<path d="M1015.59 731.222H1080.4L1080.56 732.221H1015.37L1015.59 731.222Z" fill="#CCCCCC"/>
<path d="M1012.1 744.87H1083.68L1083.83 745.869H1011.85L1012.1 744.87Z" fill="#B3B3B3"/>
<path d="M1012.1 744.183H1083.68L1083.83 745.182H1011.85L1012.1 744.183Z" fill="#CCCCCC"/>
<path d="M1010.07 752.334H1085.42L1085.58 753.333H1009.82L1010.07 752.334Z" fill="#B3B3B3"/>
<path d="M1010.07 751.647H1085.42L1085.58 752.646H1009.82L1010.07 751.647Z" fill="#CCCCCC"/>
<path d="M1075.51 708.08H1020.92L1006.02 762.078H1089.22L1075.51 708.08ZM1022.26 709.08H1073.77L1086.61 760.516H1009.32L1022.26 709.08Z" fill="#E6E6E6"/>
<path d="M1038.4 708.205L1032.2 761.141L1033.97 761.422L1039.61 708.455L1038.4 708.205Z" fill="#E6E6E6"/>
<path d="M1055.63 708.205L1061.15 760.86L1062.92 761.11L1056.85 708.455L1055.63 708.205Z" fill="#E6E6E6"/>
<path d="M1074.8 762.078H1020.2H1006.02C1006.02 762.078 1006.74 766.232 1009.57 766.232C1010.26 766.232 1014.37 766.232 1020.2 766.232C1038.74 766.232 1074.8 766.232 1074.8 766.232C1080.65 766.232 1084.77 766.232 1085.42 766.232C1088.26 766.232 1088.97 762.078 1088.97 762.078H1074.8Z" fill="#F2F2F2"/>
</g>
<g clip-path="url(#clip2)">
<path d="M1114.54 758.891H1105.25V794.901H1114.54V758.891Z" fill="#808080"/>
<rect x="1109.12" y="757.028" width="5.38781" height="37.8733" fill="#4B4848"/>
<rect x="1105.89" y="757.028" width="1.07756" height="37.8733" fill="#E4E4E4"/>
<path d="M1156.62 754.069H1062.5L1078.24 692.988H1140.95L1156.62 754.069Z" fill="#0071BC"/>
<path d="M1076.76 695.584H1141.86L1142.01 696.474H1076.53L1076.76 695.584Z" fill="#B3B3B3"/>
<path d="M1076.76 694.954H1141.86L1142.01 695.844H1076.53L1076.76 694.954Z" fill="#CCCCCC"/>
<path d="M1076.11 700.294H1142.66L1142.81 701.184H1075.93L1076.11 700.294Z" fill="#B3B3B3"/>
<path d="M1076.11 699.701H1142.66L1142.81 700.591H1075.93L1076.11 699.701Z" fill="#CCCCCC"/>
<path d="M1073.57 707.044H1145.16L1145.31 708.231H1073.31L1073.57 707.044Z" fill="#B3B3B3"/>
<path d="M1073.57 706.228H1145.16L1145.31 707.415H1073.31L1073.57 706.228Z" fill="#E6E6E6"/>
<path d="M1068.53 728.22H1150.02L1150.17 729.704H1068.26L1068.53 728.22Z" fill="#B3B3B3"/>
<path d="M1068.53 727.219H1150.02L1150.17 728.702H1068.26L1068.53 727.219Z" fill="#E6E6E6"/>
<path d="M1072.25 713.015H1146.45L1146.6 714.202H1072.02L1072.25 713.015Z" fill="#B3B3B3"/>
<path d="M1072.25 712.199H1146.45L1146.6 713.386H1072.02L1072.25 712.199Z" fill="#CCCCCC"/>
<path d="M1070.12 720.098H1149.03L1149.22 721.285H1069.86L1070.12 720.098Z" fill="#B3B3B3"/>
<path d="M1070.12 719.282H1149.03L1149.22 720.469H1069.86L1070.12 719.282Z" fill="#CCCCCC"/>
<path d="M1065.87 735.489H1153.01L1153.2 736.676H1065.57L1065.87 735.489Z" fill="#B3B3B3"/>
<path d="M1065.87 734.673H1153.01L1153.2 735.86H1065.57L1065.87 734.673Z" fill="#CCCCCC"/>
<path d="M1063.41 744.353H1155.14L1155.33 745.539H1063.1L1063.41 744.353Z" fill="#B3B3B3"/>
<path d="M1063.41 743.537H1155.14L1155.33 744.724H1063.1L1063.41 743.537Z" fill="#CCCCCC"/>
<path d="M1143.07 691.802H1076.61L1058.47 755.924H1159.77L1143.07 691.802ZM1078.24 692.988H1140.95L1156.58 754.069H1062.5L1078.24 692.988Z" fill="#E6E6E6"/>
<path d="M1097.89 691.95L1090.34 754.811L1092.5 755.145L1099.37 692.247L1097.89 691.95Z" fill="#E6E6E6"/>
<path d="M1118.87 691.95L1125.58 754.477L1127.75 754.774L1120.35 692.247L1118.87 691.95Z" fill="#E6E6E6"/>
<path d="M1142.2 755.924H1075.74H1058.47C1058.47 755.924 1059.35 760.856 1062.8 760.856C1063.63 760.856 1068.64 760.856 1075.74 760.856C1098.31 760.856 1142.2 760.856 1142.2 760.856C1149.33 760.856 1154.34 760.856 1155.14 760.856C1158.59 760.856 1159.46 755.924 1159.46 755.924H1142.2Z" fill="#F2F2F2"/>
</g>
<path d="M970.264 664.623L974.912 665.725L985.553 669.032L988.244 668.909C988.244 668.909 990.323 666.705 990.568 663.889C990.812 661.072 987.999 659.97 987.999 659.97L971.61 656.051C971.61 656.051 969.408 657.766 969.408 659.358C969.408 660.95 970.264 664.623 970.264 664.623Z" fill="#9299A2"/>
<path opacity="0.3" d="M990.568 663.766C990.812 660.95 987.999 659.847 987.999 659.847L971.61 655.929C971.61 655.929 969.408 657.643 969.408 659.235C974.545 660.827 983.718 661.439 990.568 663.766Z" fill="white"/>
<path d="M971.977 660.705C971.61 662.786 970.509 664.378 969.408 664.256C968.307 664.133 967.696 662.297 968.063 660.215C968.43 658.133 969.53 656.541 970.631 656.664C971.732 656.664 972.344 658.5 971.977 660.705Z" fill="url(#paint0_linear)"/>
<path opacity="0.2" d="M970.264 664.623L974.912 665.725L985.553 669.032L988.244 668.909C988.244 668.909 986.776 664.501 969.408 659.358C969.408 660.95 970.264 664.623 970.264 664.623Z" fill="black"/>
<path d="M969.53 658.746L958.4 639.52L925.253 616.253L923.786 617.722L968.185 660.215L969.53 658.746Z" fill="#C9CCD4"/>
<path opacity="0.5" d="M925.221 616.155L923.784 617.659L968.158 660.15L969.595 658.646L925.221 616.155Z" fill="white"/>
<path d="M932.225 621.15L929.901 623.6L927.822 621.64L929.901 619.558L932.225 621.15Z" fill="#ED403B"/>
<path d="M927.577 617.844L925.865 619.681L923.786 617.722L925.253 616.253L927.577 617.844Z" fill="#ED403B"/>
<path d="M969.286 659.847H991.424L1028.24 642.581L1027.63 640.621L968.674 657.888L969.286 659.847Z" fill="#C9CCD4"/>
<path opacity="0.5" d="M1027.66 640.612L968.724 657.837L969.306 659.835L1028.24 642.61L1027.66 640.612Z" fill="white"/>
<path d="M1020.41 646.255L1019.43 643.071L1022.25 642.213L1022.98 645.03L1020.41 646.255Z" fill="#ED403B"/>
<path d="M1025.55 643.928L1024.82 641.479L1027.63 640.621L1028.24 642.581L1025.55 643.928Z" fill="#ED403B"/>
<path d="M968.43 658.99L957.422 678.216L953.875 718.75L955.831 719.24L970.387 659.48L968.43 658.99Z" fill="#C9CCD4"/>
<path opacity="0.5" d="M968.43 658.99L953.875 718.75L955.831 719.24L970.387 659.48L968.43 658.99Z" fill="white"/>
<path d="M954.608 710.178L957.911 710.912L957.177 713.729L954.364 712.994L954.608 710.178Z" fill="#ED403B"/>
<path d="M954.119 715.811L956.565 716.423L955.831 719.24L953.875 718.75L954.119 715.811Z" fill="#ED403B"/>
<path d="M970.509 660.215C970.754 658.011 970.264 655.684 968.674 656.174C967.084 656.664 964.271 658.623 964.393 659.358C964.516 660.092 966.595 662.052 968.185 662.664C969.653 663.521 970.264 661.929 970.509 660.215Z" fill="#9299A2"/>
<path opacity="0.5" d="M968.552 656.541C968.919 656.418 969.408 656.908 969.408 657.398C969.408 657.888 964.76 659.113 964.76 659.113C964.76 659.113 966.105 658.01 966.595 657.643C967.206 657.153 968.185 656.663 968.552 656.541Z" fill="white"/>
<path d="M986.043 794.307L982.373 668.787C982.496 667.685 982.006 666.46 980.661 665.725C978.582 664.623 977.358 664.746 975.891 664.991C973.445 665.48 972.466 667.317 972.344 668.664L968.674 794.184H986.043V794.307Z" fill="#C9CCD4"/>
<path d="M977.359 669.399C982.618 669.399 982.496 671.236 982.496 673.563L982.373 667.807C982.373 665.603 982.496 663.766 977.359 663.766C972.222 663.766 972.344 665.603 972.344 667.807L972.222 673.563C972.099 671.236 972.099 669.399 977.359 669.399Z" fill="#AEB3BC"/>
<g opacity="0.5">
<path opacity="0.2" d="M983.352 794.307H978.092L978.215 668.909C978.215 666.705 978.215 664.868 979.805 664.868C981.395 664.868 981.272 666.705 981.272 668.909L983.352 794.307Z" fill="black"/>
</g>
<path opacity="0.5" d="M970.998 794.307H973.689L974.545 669.644C974.545 667.44 974.545 665.603 973.811 665.603C972.955 665.603 973.077 667.44 973.077 669.644L970.998 794.307Z" fill="white"/>
<path d="M990.69 788.306H963.659V794.307H990.69V788.306Z" fill="#5C666E"/>
<path opacity="0.3" d="M971.365 788.306H967.206V794.307H971.365V788.306Z" fill="white"/>
<path opacity="0.3" d="M987.143 788.306H980.783V794.307H987.143V788.306Z" fill="black"/>
<path d="M755.363 464.404L767.35 467.098L794.38 475.425L801.107 474.935C801.107 474.935 806.367 469.302 806.978 462.077C807.468 454.852 800.618 452.158 800.618 452.158L758.788 441.994C758.788 441.994 753.284 446.28 753.284 450.443C753.161 454.852 755.363 464.404 755.363 464.404Z" fill="#9299A2"/>
<path opacity="0.3" d="M806.856 462.077C807.345 454.852 800.496 452.158 800.496 452.158L758.665 441.994C758.665 441.994 753.161 446.28 753.161 450.443C766.371 454.607 789.732 456.076 806.856 462.077Z" fill="white"/>
<path d="M759.889 454.24C759.032 459.628 756.219 463.546 753.406 463.179C750.593 462.812 749.003 458.036 749.859 452.77C750.715 447.382 753.528 443.463 756.342 443.831C759.032 444.198 760.622 448.851 759.889 454.24Z" fill="url(#paint1_linear)"/>
<path opacity="0.2" d="M755.363 464.404L767.35 467.098L794.38 475.425L801.107 474.935C801.107 474.935 797.316 463.791 753.284 450.566C753.161 454.852 755.363 464.404 755.363 464.404Z" fill="black"/>
<path d="M750.715 450.443L733.347 396.806L663.018 321.004L658.737 323.943L746.434 453.382L750.715 450.443Z" fill="#C9CCD4"/>
<path opacity="0.5" d="M663.122 320.984L658.769 323.94L746.455 453.359L750.808 450.403L663.122 320.984Z" fill="white"/>
<path d="M678.063 337.169L670.969 341.945L666.81 335.822L672.926 331.659L678.063 337.169Z" fill="#ED403B"/>
<path d="M668.155 326.515L662.896 330.066L658.737 323.943L663.018 321.004L668.155 326.515Z" fill="#ED403B"/>
<path d="M749.492 453.137L804.532 464.893L905.195 441.871L904.828 436.606L749.003 447.872L749.492 453.137Z" fill="#C9CCD4"/>
<path opacity="0.5" d="M904.805 436.594L749.02 447.909L749.4 453.161L905.186 441.846L904.805 436.594Z" fill="white"/>
<path d="M883.79 446.77L883.178 438.198L890.517 437.585L891.006 445.055L883.79 446.77Z" fill="#ED403B"/>
<path d="M897.978 443.463L897.489 437.095L904.827 436.606L905.194 441.871L897.978 443.463Z" fill="#ED403B"/>
<path d="M747.78 450.688L709.986 492.569L679.653 591.393L684.3 593.72L752.428 452.892L747.78 450.688Z" fill="#C9CCD4"/>
<path opacity="0.5" d="M747.727 450.649L679.612 591.375L684.345 593.671L752.46 452.946L747.727 450.649Z" fill="white"/>
<path d="M686.135 570.33L693.841 574.004L690.661 580.739L683.934 577.433L686.135 570.33Z" fill="#ED403B"/>
<path d="M681.854 584.29L687.603 586.984L684.3 593.72L679.653 591.393L681.854 584.29Z" fill="#ED403B"/>
<path d="M755.852 453.26C756.464 447.749 755.119 441.871 751.082 442.973C747.046 444.076 739.952 449.341 740.197 451.178C740.441 453.015 745.701 458.036 749.859 459.75C754.018 461.342 755.363 457.546 755.852 453.26Z" fill="#9299A2"/>
<path opacity="0.5" d="M751.204 443.831C752.183 443.708 753.284 444.81 753.284 445.912C753.284 447.014 741.542 450.198 741.542 450.198C741.542 450.198 744.966 447.259 746.19 446.402C747.657 445.422 750.226 443.953 751.204 443.831Z" fill="white"/>
<path d="M795.481 794.307L786.186 475.058C786.43 472.364 785.207 469.302 781.782 467.343C776.401 464.404 773.221 464.894 769.674 465.629C763.558 466.853 760.867 471.629 760.5 475.058L751.205 794.307H795.481Z" fill="#C9CCD4"/>
<path d="M773.343 476.405C786.675 476.405 786.553 481.181 786.553 487.059L786.186 472.364C786.186 466.608 786.553 461.955 773.343 461.955C760.256 461.955 760.501 466.608 760.501 472.364L760.134 487.059C760.134 481.181 760.011 476.405 773.343 476.405Z" fill="#AEB3BC"/>
<g opacity="0.5">
<path opacity="0.2" d="M788.632 794.307H775.178L775.545 475.425C775.545 469.792 775.423 465.139 779.459 465.139C783.373 465.139 783.373 469.67 783.373 475.425L788.632 794.307Z" fill="black"/>
</g>
<path opacity="0.5" d="M757.198 794.307H764.047L766.249 477.14C766.249 471.506 766.249 466.975 764.292 466.975C762.213 466.975 762.335 471.506 762.335 477.14L757.198 794.307Z" fill="white"/>
<path d="M807.468 779H738.607V794.307H807.468V779Z" fill="#5C666E"/>
<path opacity="0.3" d="M758.054 778.999H747.535V794.307H758.054V778.999Z" fill="white"/>
<path opacity="0.3" d="M798.417 778.999H782.271V794.307H798.417V778.999Z" fill="black"/>
<path d="M887.826 577.8L895.654 579.515L913.389 585.026L917.793 584.658C917.793 584.658 921.34 580.984 921.584 576.209C921.951 571.433 917.426 569.718 917.426 569.718L890.028 563.105C890.028 563.105 886.359 565.922 886.359 568.739C886.359 571.433 887.826 577.8 887.826 577.8Z" fill="#9299A2"/>
<path opacity="0.3" d="M921.707 576.209C922.074 571.433 917.548 569.718 917.548 569.718L890.151 563.105C890.151 563.105 886.481 565.922 886.481 568.739C895.043 571.31 910.332 572.29 921.707 576.209Z" fill="white"/>
<path d="M890.762 571.065C890.273 574.616 888.316 577.188 886.481 576.943C884.646 576.698 883.668 573.637 884.157 570.085C884.646 566.534 886.603 563.962 888.438 564.207C890.273 564.452 891.251 567.514 890.762 571.065Z" fill="url(#paint2_linear)"/>
<path opacity="0.2" d="M887.826 577.8L895.654 579.515L913.39 585.026L917.793 584.658C917.793 584.658 915.347 577.311 886.359 568.616C886.359 571.433 887.826 577.8 887.826 577.8Z" fill="black"/>
<path d="M914.123 794.307L908.008 584.78C908.13 583.066 907.396 580.984 905.072 579.76C901.525 577.923 899.446 578.168 897.122 578.657C893.086 579.392 891.373 582.576 891.129 584.903L885.013 794.429H914.123V794.307Z" fill="#C9CCD4"/>
<path d="M899.568 585.638C908.375 585.638 908.252 588.821 908.252 592.618L908.008 582.943C908.008 579.147 908.252 576.086 899.568 576.086C891.007 576.086 891.129 579.147 891.129 582.943L890.884 592.618C890.884 588.699 890.884 585.638 899.568 585.638Z" fill="#AEB3BC"/>
<g opacity="0.5">
<path opacity="0.2" d="M909.72 794.307H900.914L901.158 584.903C901.158 581.229 901.158 578.168 903.727 578.168C906.295 578.168 906.295 581.229 906.295 584.903L909.72 794.307Z" fill="black"/>
</g>
<path opacity="0.5" d="M889.049 794.307H893.575L895.043 586.128C895.043 582.454 895.043 579.392 893.697 579.392C892.352 579.392 892.352 582.331 892.352 586.128L889.049 794.307Z" fill="white"/>
<path d="M922.073 784.265H876.818V794.307H922.073V784.265Z" fill="#5C666E"/>
<path opacity="0.3" d="M889.661 784.265H882.689V794.307H889.661V784.265Z" fill="white"/>
<path opacity="0.3" d="M916.08 784.265H905.439V794.307H916.08V784.265Z" fill="black"/>
<path d="M884.524 570.453L917.304 587.597L985.064 590.781L985.676 587.352L885.136 567.146L884.524 570.453Z" fill="#C9CCD4"/>
<path opacity="0.5" d="M885.127 567.182L884.452 570.544L984.94 590.76L985.615 587.398L885.127 567.182Z" fill="white"/>
<path d="M970.509 590.046L971.732 584.535L976.38 585.515L975.524 590.291L970.509 590.046Z" fill="#ED403B"/>
<path d="M980.171 590.536L980.905 586.372L985.675 587.352L985.064 590.781L980.171 590.536Z" fill="#ED403B"/>
<path d="M883.79 568.616L852.601 588.454L816.03 645.642L818.721 647.969L886.481 570.943L883.79 568.616Z" fill="#C9CCD4"/>
<path opacity="0.5" d="M883.819 568.646L816.089 645.663L818.659 647.928L886.389 570.912L883.819 568.646Z" fill="white"/>
<path d="M823.858 633.519L828.139 637.193L824.959 640.866L821.289 637.56L823.858 633.519Z" fill="#ED403B"/>
<path d="M818.721 641.601L821.901 644.295L818.721 647.969L816.03 645.642L818.721 641.601Z" fill="#ED403B"/>
<path d="M885.748 568.983L884.157 532.001L852.968 471.751L849.788 472.853L882.567 570.085L885.748 568.983Z" fill="#C9CCD4"/>
<path opacity="0.5" d="M852.995 471.699L849.75 472.795L882.497 570.038L885.743 568.942L852.995 471.699Z" fill="white"/>
<path d="M859.695 484.609L854.313 486.446L852.723 481.793L857.371 480.201L859.695 484.609Z" fill="#ED403B"/>
<path d="M855.292 476.037L851.256 477.384L849.788 472.853L852.968 471.751L855.292 476.037Z" fill="#ED403B"/>
<path d="M888.194 570.453C888.561 566.902 887.704 562.983 885.136 563.718C882.567 564.452 877.797 567.881 877.92 569.106C878.042 570.33 881.589 573.637 884.28 574.739C886.848 575.719 887.827 573.269 888.194 570.453Z" fill="#9299A2"/>
<path opacity="0.5" d="M885.013 564.207C885.625 564.085 886.359 564.82 886.359 565.554C886.359 566.289 878.653 568.371 878.653 568.371C878.653 568.371 880.855 566.412 881.711 565.922C882.689 565.187 884.402 564.33 885.013 564.207Z" fill="white"/>
<path d="M898.589 679.073H894.431V707.973H898.589V679.073Z" fill="#F0F1F7"/>
<path d="M902.748 679.073H898.589V707.973H902.748V679.073Z" fill="#B3BDCC"/>
<path d="M889.049 659.113H884.891V702.585H889.049V659.113Z" fill="#B3BDCC"/>
<path d="M884.891 659.113H880.732V702.585H884.891V659.113Z" fill="#F0F1F7"/>
<path d="M968.796 781.938L880.365 778.877V794.307H968.796V781.938Z" fill="#30404B"/>
<path d="M786.797 782.184L880.365 778.877V695.116L786.797 715.811V736.996L788.876 737.609V759.774L786.797 760.753V782.184Z" fill="#F0F1F7"/>
<path d="M880.365 695.116V778.877L974.056 782.184V760.753L972.343 759.896V737.609L974.056 737.241V715.934L880.365 695.116Z" fill="#CBD2DE"/>
<path d="M972.343 737.608L880.365 723.036V750.956L972.343 759.896V737.608Z" fill="#30404B"/>
<path d="M788.876 737.608V759.773L880.365 750.956V723.036L788.876 737.608Z" fill="#485967"/>
<path d="M793.524 781.938L880.365 778.877V794.307H793.524V781.938Z" fill="#485967"/>
<path d="M788.876 737.609L786.797 736.996L880.365 720.342L974.056 737.241L972.343 737.609L880.365 723.036L788.876 737.609Z" fill="#25343E"/>
<path d="M844.161 780.101L828.26 780.714V731.363L844.161 733.2V780.101Z" fill="#CBD2DE"/>
<path d="M873.393 724.138L844.161 728.791V780.101L873.393 779.122V724.138Z" fill="#304650"/>
<path d="M873.394 736.261L861.529 737.853V778.265L873.394 777.775V736.261Z" fill="#152830"/>
<path d="M873.394 724.138L865.566 722.914L822.634 730.628L828.261 731.363L844.161 733.2L873.394 728.914V724.138Z" fill="#25343E"/>
<path d="M846.118 739.935V778.754L859.45 778.265V738.098L846.118 739.935Z" fill="#152830"/>
<path d="M854.068 721.199L809.425 728.914L828.261 731.363L873.393 724.138L854.068 721.199Z" fill="#25343E"/>
<path d="M865.566 719.24L854.068 717.403V721.199L865.566 722.914V719.24Z" fill="#CBD2DE"/>
<path d="M809.425 725.485L854.068 717.403V721.199L809.425 728.914V725.485Z" fill="#F0F1F7"/>
<path d="M822.39 787.327L864.587 786.592V778.877L822.267 780.346L822.39 787.327Z" fill="#F0F1F7"/>
<path d="M864.587 778.877V786.592L856.881 786.469V794.307H873.393V786.714V779.122L864.587 778.877Z" fill="#CBD2DE"/>
<path d="M815.54 787.326L856.881 786.469V794.307H815.54V787.326Z" fill="#F0F1F7"/>
<path d="M864.832 760.263C864.832 761.243 863.976 762.1 862.997 762.1C862.019 762.1 861.162 761.243 861.162 760.263C861.162 759.284 862.019 758.427 862.997 758.427C864.098 758.549 864.832 759.284 864.832 760.263Z" fill="#CBD2DE"/>
<path d="M859.083 760.753C859.083 761.733 858.227 762.59 857.249 762.59C856.27 762.59 855.414 761.733 855.414 760.753C855.414 759.773 856.27 758.916 857.249 758.916C858.227 758.916 859.083 759.773 859.083 760.753Z" fill="#CBD2DE"/>
<path d="M950.572 757.814L968.185 759.406V736.996L950.694 734.18V757.814H950.572ZM923.052 755.12L944.578 757.202V733.322L923.052 729.894V755.12ZM890.395 751.936L915.958 754.385V728.669L890.395 724.628V751.936Z" fill="url(#paint3_linear)"/>
<path opacity="0.2" d="M972.466 712.137H970.386V740.058H972.466V712.137Z" fill="#113442"/>
<path opacity="0.2" d="M970.264 712.137H968.185V740.058H970.264V712.137Z" fill="#F1F9FB"/>
<path opacity="0.2" d="M922.074 701.728H919.994V729.649H922.074V701.728Z" fill="#113442"/>
<path opacity="0.2" d="M919.872 701.728H917.793V729.649H919.872V701.728Z" fill="#F1F9FB"/>
<path opacity="0.2" d="M888.927 720.219H886.848V752.181H888.927V720.219Z" fill="#113442"/>
<path opacity="0.2" d="M886.848 720.22H884.769V752.181H886.848V720.22Z" fill="#F1F9FB"/>
<path opacity="0.2" d="M950.205 730.996H948.126V758.916H950.205V730.996Z" fill="#113442"/>
<path opacity="0.2" d="M948.126 730.996H946.047V758.916H948.126V730.996Z" fill="#F1F9FB"/>
<path d="M792.668 736.996V759.406L820.066 756.712V732.588L792.668 736.996Z" fill="url(#paint4_linear)"/>
<path opacity="0.1" d="M974.056 715.933V782.183L918.037 780.101L948.248 710.178L974.056 715.933Z" fill="#404041"/>
<path opacity="0.2" d="M786.797 715.811L834.621 706.014L786.797 782.183V715.811Z" fill="white"/>
<path opacity="0.1" d="M828.26 731.363L844.161 733.2V759.896L828.26 731.363Z" fill="#404041"/>
<path d="M1289.94 924.826C1290.95 928.634 1288.08 932.367 1284.14 932.367H701.643C697.703 932.367 694.833 928.634 695.845 924.826L729.349 798.766C730.047 796.137 732.427 794.307 735.147 794.307H1250.64C1253.36 794.307 1255.74 796.137 1256.43 798.766L1289.94 924.826Z" fill="#404041"/>
<g clip-path="url(#clip3)">
<path d="M1198.49 746.887H1186.37V794.901H1198.49V746.887Z" fill="#808080"/>
<rect x="1191.42" y="744.403" width="7.0234" height="50.4978" fill="#4B4848"/>
<rect x="1187.2" y="744.403" width="1.40468" height="50.4978" fill="#E4E4E4"/>
<path d="M1253.33 740.458H1130.64L1151.16 659.017H1232.91L1253.33 740.458Z" fill="#0071BC"/>
<path d="M1149.24 662.479H1234.1L1234.29 663.665H1148.94L1149.24 662.479Z" fill="#B3B3B3"/>
<path d="M1149.24 661.638H1234.1L1234.29 662.825H1148.94L1149.24 661.638Z" fill="#CCCCCC"/>
<path d="M1148.39 668.759H1235.14L1235.33 669.945H1148.15L1148.39 668.759Z" fill="#B3B3B3"/>
<path d="M1148.39 667.967H1235.14L1235.33 669.154H1148.15L1148.39 667.967Z" fill="#CCCCCC"/>
<path d="M1145.08 677.758H1238.4L1238.6 679.34H1144.74L1145.08 677.758Z" fill="#B3B3B3"/>
<path d="M1145.08 676.67H1238.4L1238.6 678.253H1144.74L1145.08 676.67Z" fill="#E6E6E6"/>
<path d="M1138.5 705.993H1244.73L1244.93 707.971H1138.16L1138.5 705.993Z" fill="#B3B3B3"/>
<path d="M1138.5 704.658H1244.73L1244.93 706.636H1138.16L1138.5 704.658Z" fill="#E6E6E6"/>
<path d="M1143.35 685.719H1240.08L1240.28 687.302H1143.05L1143.35 685.719Z" fill="#B3B3B3"/>
<path d="M1143.35 684.631H1240.08L1240.28 686.214H1143.05L1143.35 684.631Z" fill="#CCCCCC"/>
<path d="M1140.58 695.164H1243.44L1243.69 696.746H1140.23L1140.58 695.164Z" fill="#B3B3B3"/>
<path d="M1140.58 694.076H1243.44L1243.69 695.658H1140.23L1140.58 694.076Z" fill="#CCCCCC"/>
<path d="M1135.04 715.685H1248.64L1248.88 717.267H1134.65L1135.04 715.685Z" fill="#B3B3B3"/>
<path d="M1135.04 714.597H1248.64L1248.88 716.179H1134.65L1135.04 714.597Z" fill="#CCCCCC"/>
<path d="M1131.83 727.503H1251.4L1251.65 729.085H1131.43L1131.83 727.503Z" fill="#B3B3B3"/>
<path d="M1131.83 726.415H1251.4L1251.65 727.998H1131.43L1131.83 726.415Z" fill="#CCCCCC"/>
<path d="M1235.68 657.435H1149.04L1125.4 742.931H1257.44L1235.68 657.435ZM1151.16 659.017H1232.91L1253.28 740.458H1130.64L1151.16 659.017Z" fill="#E6E6E6"/>
<path d="M1176.78 657.633L1166.94 741.447L1169.76 741.893L1178.71 658.028L1176.78 657.633Z" fill="#E6E6E6"/>
<path d="M1204.13 657.633L1212.88 741.002L1215.7 741.398L1206.06 658.028L1204.13 657.633Z" fill="#E6E6E6"/>
<path d="M1234.54 742.931H1147.9H1125.4C1125.4 742.931 1126.54 749.508 1131.04 749.508C1132.12 749.508 1138.65 749.508 1147.9 749.508C1177.32 749.508 1234.54 749.508 1234.54 749.508C1243.84 749.508 1250.37 749.508 1251.41 749.508C1255.91 749.508 1257.04 742.931 1257.04 742.931H1234.54Z" fill="#F2F2F2"/>
</g>
<path d="M456.284 664.432C455.084 664.631 453.984 665.029 453.384 665.626C452.284 666.622 452.284 670.006 453.384 671.002C453.984 671.599 455.184 671.997 456.484 672.197C455.184 672.495 453.984 672.893 453.384 673.391C452.284 674.287 452.284 677.771 453.384 678.767C453.984 679.364 455.184 679.663 456.484 679.962C455.184 680.161 453.984 680.559 453.384 681.156C452.284 682.052 452.284 685.536 453.384 686.532C454.184 687.229 455.784 687.727 457.484 687.926V690.414H461.083V688.025C462.983 687.826 464.583 687.428 465.283 686.632C466.183 685.536 466.183 682.351 465.283 681.256C464.783 680.658 463.783 680.26 462.583 680.061C463.783 679.862 464.783 679.464 465.283 678.867C466.183 677.771 466.183 674.586 465.283 673.491C464.783 672.893 463.783 672.495 462.583 672.296C463.783 672.097 464.783 671.699 465.283 671.102C466.183 670.106 466.183 666.821 465.283 665.726C464.683 665.128 463.583 664.73 462.283 664.432V660.748H468.182V661.943H483.28L483.18 821.524L441.686 981.204H447.885L449.085 976.624L486.68 943.175L519.176 979.113V981.104H525.175V979.113L557.671 943.175L595.267 976.525L596.466 981.104H602.666L561.071 821.324V661.843H576.069V660.649H581.968V664.432C580.768 664.631 579.668 665.029 579.069 665.626C577.969 666.622 577.969 670.006 579.069 671.002C579.668 671.599 580.868 671.997 582.168 672.197C580.868 672.495 579.668 672.893 579.069 673.391C577.969 674.287 577.969 677.771 579.069 678.767C579.668 679.364 580.868 679.663 582.168 679.962C580.868 680.161 579.668 680.559 579.069 681.156C577.969 682.052 577.969 685.536 579.069 686.532C579.868 687.229 581.468 687.727 583.168 687.926V690.414H586.768V688.025C588.667 687.826 590.267 687.428 590.967 686.632C591.867 685.536 591.867 682.351 590.967 681.256C590.467 680.658 589.467 680.26 588.267 680.061C589.467 679.862 590.467 679.464 590.967 678.867C591.867 677.771 591.867 674.586 590.967 673.491C590.467 672.893 589.467 672.495 588.267 672.296C589.467 672.097 590.467 671.699 590.967 671.102C591.867 670.106 591.867 666.821 590.967 665.726C590.367 665.128 589.267 664.73 587.967 664.432V660.748H593.867V657.164H587.967V656.268H586.768V654.277H583.168V656.268H581.968V657.164H576.069V655.97H561.071V620.231H576.069V619.036H581.968V622.819C580.768 623.118 579.668 623.416 579.069 624.014C577.969 625.009 577.969 628.394 579.069 629.39C579.668 629.987 580.868 630.385 582.168 630.584C580.868 630.783 579.668 631.181 579.069 631.779C577.969 632.774 577.969 636.159 579.069 637.155C579.668 637.752 580.868 638.05 582.168 638.349C580.868 638.548 579.668 638.946 579.069 639.544C577.969 640.44 577.969 643.924 579.069 644.92C579.868 645.616 581.468 646.114 583.168 646.313V648.802H586.768V646.313C588.667 646.114 590.267 645.716 590.967 644.92C591.867 643.824 591.867 640.639 590.967 639.544C590.467 638.946 589.467 638.548 588.267 638.349C589.467 638.05 590.467 637.752 590.967 637.155C591.867 636.059 591.867 632.874 590.967 631.779C590.467 631.181 589.467 630.783 588.267 630.584C589.467 630.385 590.467 629.987 590.967 629.39C591.867 628.394 591.867 625.109 590.967 624.014C590.367 623.416 589.267 623.018 587.967 622.819V619.136H593.867V615.552H587.967V614.556H586.768V612.565H583.168V614.556H581.968V615.452H576.069V614.258H561.071V601.416L530.375 503.059H525.175V500.072H519.176V503.059H513.977L483.38 600.52V614.258H468.282V615.452H462.383V614.556H461.183V612.565H457.584V614.556H456.384V615.452H450.384V619.036H456.284V622.819C455.084 623.118 453.984 623.416 453.384 624.014C452.284 625.009 452.284 628.394 453.384 629.39C453.984 629.987 455.184 630.385 456.484 630.584C455.184 630.783 453.984 631.181 453.384 631.779C452.284 632.774 452.284 636.159 453.384 637.155C453.984 637.752 455.184 638.05 456.484 638.349C455.184 638.548 453.984 638.946 453.384 639.544C452.284 640.44 452.284 643.924 453.384 644.92C454.184 645.616 455.784 646.114 457.484 646.313V648.802H461.083V646.313C462.983 646.114 464.583 645.716 465.283 644.92C466.183 643.824 466.183 640.639 465.283 639.544C464.783 638.946 463.783 638.548 462.583 638.349C463.783 638.05 464.783 637.752 465.283 637.155C466.183 636.059 466.183 632.874 465.283 631.779C464.783 631.181 463.783 630.783 462.583 630.584C463.783 630.385 464.783 629.987 465.283 629.39C466.183 628.394 466.183 625.109 465.283 624.014C464.683 623.416 463.583 623.018 462.283 622.819V619.136H468.182V620.33H483.28V656.069H468.282V657.264H462.383V656.368H461.183V654.377H457.584V656.368H456.384V657.264H450.384V660.848H456.284V664.432ZM593.667 970.353L560.071 940.587L580.068 918.387L593.667 970.353ZM577.669 908.83L548.872 883.345L566.07 864.331L577.669 908.83ZM564.07 856.566L545.173 839.741L556.471 827.298L564.07 856.566ZM554.272 783.097H525.975L540.073 769.06L554.272 783.097ZM542.673 766.472L555.072 754.127V778.816L542.673 766.472ZM555.072 791.559V816.347L542.673 803.903L555.072 791.559ZM552.572 789.07L540.173 801.414L527.675 789.07H552.572ZM552.572 818.836H527.675L540.073 806.491L552.572 818.836ZM553.872 824.809L542.473 837.452L528.275 824.809H553.872ZM555.072 743.276L542.673 730.932L555.072 718.587V743.276ZM543.373 655.87L555.072 644.223V655.87H543.373ZM555.072 661.843V669.011L547.872 661.843H555.072ZM554.772 673.789H525.475L537.474 661.843H542.873L554.772 673.789ZM553.272 679.762L540.073 692.903L526.875 679.762H553.272ZM555.072 683.048V707.736L542.673 695.392L555.072 683.048ZM555.072 633.869L542.673 621.525L544.073 620.131H555.171V633.869H555.072ZM555.072 614.158H549.972L555.072 609.081V614.158ZM544.973 614.158H535.374L525.475 604.303H554.972L544.973 614.158ZM529.475 598.33L538.474 589.37L549.472 598.33H529.475ZM553.672 597.234L540.973 586.881L548.172 579.713L553.672 597.234ZM545.173 570.157L535.674 561.695L540.673 556.12L545.173 570.157ZM533.674 533.621L536.174 541.685L532.274 536.508L533.674 533.621ZM525.175 509.032H525.975L532.074 528.544L529.875 533.123L525.075 526.653V509.032H525.175ZM525.175 532.725L528.175 536.807L525.175 543.079V532.725ZM525.175 551.441L530.575 540.092L539.473 552.138L533.074 559.305L525.175 552.138V551.441ZM525.175 556.916L530.675 561.894L525.175 567.966V556.916ZM525.175 573.342L533.374 564.283L546.673 576.229L538.274 584.591L525.275 574.039V573.342H525.175ZM525.175 578.718L535.574 587.18L525.175 597.633V578.718ZM525.175 609.181L530.275 614.258H525.175V609.181ZM525.175 620.131H536.174L537.574 621.525L525.175 633.869V620.131ZM525.175 638.946L540.173 624.014L555.171 638.946V639.245L540.173 654.178L525.175 639.245V638.946ZM525.175 644.322L536.874 655.97H525.175V644.322ZM525.175 661.843H532.374L525.175 669.011V661.843ZM525.175 683.048L537.574 695.392L525.175 707.736V683.048ZM525.175 712.814L540.173 697.881L555.171 712.814V713.51L540.173 728.443L525.175 713.51V712.814ZM525.175 718.587L537.574 730.932L525.175 743.276V718.587ZM525.175 748.353L540.173 733.421L555.171 748.353V749.05L540.173 763.983L525.175 749.05V748.353ZM525.175 754.127L537.574 766.472L525.175 778.816V754.127ZM525.175 791.559L537.574 803.903L525.175 816.247V791.559ZM525.175 826.8L540.073 840.04L525.175 856.466V826.8ZM525.175 861.842L542.773 842.429L563.97 861.244L546.173 880.856L525.175 862.24V861.842ZM525.175 867.018L543.773 883.544L525.175 904.151V867.018ZM525.175 909.527L546.473 885.933L578.769 914.504L557.471 938.098L525.175 909.527ZM525.175 914.405L554.972 940.886L525.175 973.837V914.405ZM478.281 864.331L495.479 883.345L466.682 908.83L478.281 864.331ZM450.684 970.353L464.283 918.387L484.38 940.587L450.684 970.353ZM519.176 973.837L489.38 940.886L519.176 914.405V973.837ZM519.176 909.527L486.98 938.098L465.683 914.504L497.879 885.933L519.176 909.527ZM519.176 904.151L500.578 883.544L519.176 867.018V904.151ZM519.176 862.24L498.179 880.856L480.381 861.244L501.578 842.429L519.176 861.842V862.24ZM516.676 789.07L504.278 801.414L491.879 789.07H516.676ZM490.08 783.097L504.178 769.06L518.276 783.097H490.08ZM516.676 818.836H491.779L504.178 806.491L516.676 818.836ZM516.076 824.809L501.878 837.452L490.48 824.809H516.076ZM519.176 856.566L504.278 840.14L519.176 826.899V856.566ZM519.176 816.247L506.777 803.903L519.176 791.559V816.247ZM519.176 778.816L506.777 766.472L519.176 754.127V778.816ZM519.176 743.276L506.777 730.932L519.176 718.587V743.276ZM519.176 707.736L506.777 695.392L519.176 683.048V707.736ZM517.376 679.762L504.178 692.903L490.979 679.762H517.376ZM489.58 673.789L501.578 661.843H506.977L518.976 673.789H489.58ZM519.176 669.011L511.977 661.843H519.176V669.011ZM519.176 655.87H507.477L519.176 644.223V655.87ZM519.176 633.869L506.777 621.525L508.177 620.131H519.276V633.869H519.176ZM519.176 614.158H514.077L519.176 609.081V614.158ZM519.176 597.633L508.777 587.18L519.176 578.718V597.633ZM514.876 598.33H494.879L505.878 589.37L514.876 598.33ZM519.176 567.966L513.677 561.894L519.176 556.916V567.966ZM519.176 543.079L516.176 536.707L519.176 532.626V543.079ZM518.376 509.032H519.176V526.653L514.377 533.123L512.177 528.544L518.376 509.032ZM510.677 533.621L511.977 536.409L508.077 541.585L510.677 533.621ZM513.777 540.092L519.176 551.441V552.138L511.277 559.305L504.878 552.138L513.777 540.092ZM503.578 556.12L508.577 561.695L499.178 570.157L503.578 556.12ZM510.977 564.283L519.176 573.342V574.139L506.178 584.691L497.779 576.329L510.977 564.283ZM496.179 579.713L503.378 586.881L490.679 597.135L496.179 579.713ZM518.976 604.303L509.077 614.158H499.478L489.58 604.303H518.976ZM489.28 609.181L494.379 614.258H489.28V609.181ZM489.28 620.131H500.378L501.678 621.525L489.28 633.869V620.131ZM489.28 638.946L504.278 624.014L519.276 638.946V639.245L504.278 654.178L489.28 639.245V638.946V638.946ZM489.28 644.322L500.978 655.97H489.28V644.322ZM489.28 661.843H496.479L489.28 669.011V661.843ZM489.28 683.048L501.678 695.392L489.28 707.736V683.048ZM489.28 712.814L504.278 697.881L519.276 712.814V713.51L504.278 728.443L489.28 713.51V712.814V712.814ZM489.28 718.587L501.678 730.932L489.28 743.276V718.587ZM489.28 748.353L504.278 733.421L519.276 748.353V749.05L504.278 763.983L489.28 749.05V748.353V748.353ZM489.28 754.127L501.678 766.472L489.28 778.816V754.127ZM489.28 791.559L501.678 803.903L489.28 816.247V791.559ZM487.88 827.298L499.178 839.741L480.281 856.466L487.88 827.298Z" fill="white"/>
<path d="M305.846 761.848C305.266 761.944 304.735 762.135 304.445 762.423C303.914 762.902 303.914 764.53 304.445 765.009C304.735 765.297 305.315 765.488 305.943 765.584C305.315 765.728 304.735 765.92 304.445 766.159C303.914 766.59 303.914 768.267 304.445 768.746C304.735 769.033 305.315 769.177 305.943 769.321C305.315 769.417 304.735 769.608 304.445 769.896C303.914 770.327 303.914 772.003 304.445 772.482C304.832 772.818 305.604 773.057 306.426 773.153V774.351H308.165V773.201C309.083 773.105 309.856 772.914 310.194 772.53C310.629 772.003 310.629 770.471 310.194 769.944C309.952 769.656 309.469 769.465 308.889 769.369C309.469 769.273 309.952 769.081 310.194 768.794C310.629 768.267 310.629 766.734 310.194 766.207C309.952 765.92 309.469 765.728 308.889 765.632C309.469 765.536 309.952 765.345 310.194 765.057C310.629 764.578 310.629 762.997 310.194 762.47C309.904 762.183 309.373 761.991 308.745 761.848V760.075H311.595V760.65H318.889L318.841 837.441L298.793 914.279H301.788L302.368 912.076L320.532 895.98L336.232 913.273V914.232H339.131V913.273L354.831 895.98L372.995 912.028L373.575 914.232H376.57L356.473 837.345V760.602H363.72V760.027H366.57V761.848C365.99 761.944 365.459 762.135 365.169 762.423C364.638 762.902 364.638 764.53 365.169 765.009C365.459 765.297 366.039 765.488 366.667 765.584C366.039 765.728 365.459 765.92 365.169 766.159C364.638 766.59 364.638 768.267 365.169 768.746C365.459 769.033 366.039 769.177 366.667 769.321C366.039 769.417 365.459 769.608 365.169 769.896C364.638 770.327 364.638 772.003 365.169 772.482C365.555 772.818 366.328 773.057 367.15 773.153V774.351H368.889V773.201C369.807 773.105 370.58 772.914 370.918 772.53C371.353 772.003 371.353 770.471 370.918 769.944C370.676 769.656 370.193 769.465 369.613 769.369C370.193 769.273 370.676 769.081 370.918 768.794C371.353 768.267 371.353 766.734 370.918 766.207C370.676 765.92 370.193 765.728 369.613 765.632C370.193 765.536 370.676 765.345 370.918 765.057C371.353 764.578 371.353 762.997 370.918 762.47C370.628 762.183 370.097 761.991 369.468 761.848V760.075H372.319V758.351H369.468V757.92H368.889V756.961H367.15V757.92H366.57V758.351H363.72V757.776H356.473V740.578H363.72V740.003H366.57V741.824C365.99 741.967 365.459 742.111 365.169 742.399C364.638 742.878 364.638 744.506 365.169 744.985C365.459 745.273 366.039 745.464 366.667 745.56C366.039 745.656 365.459 745.848 365.169 746.135C364.638 746.614 364.638 748.243 365.169 748.722C365.459 749.009 366.039 749.153 366.667 749.297C366.039 749.393 365.459 749.584 365.169 749.872C364.638 750.303 364.638 751.979 365.169 752.458C365.555 752.794 366.328 753.033 367.15 753.129V754.327H368.889V753.129C369.807 753.033 370.58 752.842 370.918 752.458C371.353 751.932 371.353 750.399 370.918 749.872C370.676 749.584 370.193 749.393 369.613 749.297C370.193 749.153 370.676 749.009 370.918 748.722C371.353 748.195 371.353 746.662 370.918 746.135C370.676 745.848 370.193 745.656 369.613 745.56C370.193 745.464 370.676 745.273 370.918 744.985C371.353 744.506 371.353 742.925 370.918 742.399C370.628 742.111 370.097 741.919 369.468 741.824V740.051H372.319V738.327H369.468V737.848H368.889V736.89H367.15V737.848H366.57V738.279H363.72V737.704H356.473V731.524L341.643 684.195H339.131V682.758H336.232V684.195H333.72L318.938 731.093V737.704H311.643V738.279H308.793V737.848H308.213V736.89H306.474V737.848H305.894V738.279H302.996V740.003H305.846V741.824C305.266 741.967 304.735 742.111 304.445 742.399C303.914 742.878 303.914 744.506 304.445 744.985C304.735 745.273 305.315 745.464 305.943 745.56C305.315 745.656 304.735 745.848 304.445 746.135C303.914 746.614 303.914 748.243 304.445 748.722C304.735 749.009 305.315 749.153 305.943 749.297C305.315 749.393 304.735 749.584 304.445 749.872C303.914 750.303 303.914 751.979 304.445 752.458C304.832 752.794 305.604 753.033 306.426 753.129V754.327H308.165V753.129C309.083 753.033 309.856 752.842 310.194 752.458C310.629 751.932 310.629 750.399 310.194 749.872C309.952 749.584 309.469 749.393 308.889 749.297C309.469 749.153 309.952 749.009 310.194 748.722C310.629 748.195 310.629 746.662 310.194 746.135C309.952 745.848 309.469 745.656 308.889 745.56C309.469 745.464 309.952 745.273 310.194 744.985C310.629 744.506 310.629 742.925 310.194 742.399C309.904 742.111 309.373 741.919 308.745 741.824V740.051H311.595V740.626H318.889V757.824H311.643V758.399H308.793V757.967H308.213V757.009H306.474V757.967H305.894V758.399H302.996V760.123H305.846V761.848ZM372.222 909.058L355.99 894.734L365.652 884.052L372.222 909.058ZM364.493 879.453L350.58 867.189L358.889 858.04L364.493 879.453ZM357.923 854.303L348.792 846.207L354.251 840.219L357.923 854.303ZM353.188 818.95H339.517L346.329 812.195L353.188 818.95ZM347.585 810.95L353.575 805.01V816.89L347.585 810.95ZM353.575 823.022V834.95L347.585 828.962L353.575 823.022ZM352.367 821.824L346.377 827.764L340.338 821.824H352.367ZM352.367 836.147H340.338L346.329 830.207L352.367 836.147ZM352.995 839.022L347.488 845.106L340.628 839.022H352.995ZM353.575 799.788L347.585 793.848L353.575 787.908V799.788ZM347.923 757.728L353.575 752.123V757.728H347.923ZM353.575 760.602V764.051L350.097 760.602H353.575ZM353.43 766.351H339.276L345.073 760.602H347.681L353.43 766.351ZM352.705 769.225L346.329 775.548L339.952 769.225H352.705ZM353.575 770.806V782.686L347.585 776.746L353.575 770.806ZM353.575 747.141L347.585 741.201L348.261 740.53H353.623V747.141H353.575ZM353.575 737.656H351.111L353.575 735.213V737.656ZM348.696 737.656H344.058L339.276 732.913H353.527L348.696 737.656ZM341.208 730.039L345.556 725.728L350.87 730.039H341.208ZM352.899 729.512L346.763 724.53L350.242 721.081L352.899 729.512ZM348.792 716.482L344.203 712.41L346.619 709.728L348.792 716.482ZM343.237 698.901L344.445 702.782L342.561 700.291L343.237 698.901ZM339.131 687.069H339.517L342.464 696.458L341.401 698.662L339.082 695.548V687.069H339.131ZM339.131 698.47L340.58 700.434L339.131 703.452V698.47ZM339.131 707.476L341.739 702.015L346.039 707.812L342.947 711.261L339.131 707.812V707.476ZM339.131 710.111L341.788 712.506L339.131 715.428V710.111ZM339.131 718.015L343.092 713.656L349.517 719.404L345.459 723.428L339.179 718.351V718.015H339.131ZM339.131 720.602L344.155 724.674L339.131 729.704V720.602ZM339.131 735.261L341.594 737.704H339.131V735.261ZM339.131 740.53H344.445L345.121 741.201L339.131 747.141V740.53ZM339.131 749.584L346.377 742.399L353.623 749.584V749.728L346.377 756.914L339.131 749.728V749.584ZM339.131 752.171L344.783 757.776H339.131V752.171ZM339.131 760.602H342.609L339.131 764.051V760.602ZM339.131 770.806L345.121 776.746L339.131 782.686V770.806ZM339.131 785.129L346.377 777.944L353.623 785.129V785.465L346.377 792.65L339.131 785.465V785.129ZM339.131 787.908L345.121 793.848L339.131 799.788V787.908ZM339.131 802.231L346.377 795.045L353.623 802.231V802.566L346.377 809.752L339.131 802.566V802.231ZM339.131 805.01L345.121 810.95L339.131 816.89V805.01ZM339.131 823.022L345.121 828.962L339.131 834.902V823.022ZM339.131 839.98L346.329 846.351L339.131 854.255V839.98ZM339.131 856.842L347.633 847.501L357.874 856.555L349.275 865.992L339.131 857.034V856.842ZM339.131 859.333L348.116 867.285L339.131 877.201V859.333ZM339.131 879.788L349.42 868.435L365.024 882.184L354.734 893.537L339.131 879.788ZM339.131 882.136L353.527 894.878L339.131 910.735V882.136ZM316.474 858.04L324.783 867.189L310.87 879.453L316.474 858.04ZM303.141 909.058L309.711 884.052L319.421 894.734L303.141 909.058ZM336.232 910.735L321.836 894.878L336.232 882.136V910.735ZM336.232 879.788L320.677 893.537L310.387 882.184L325.942 868.435L336.232 879.788ZM336.232 877.201L327.247 867.285L336.232 859.333V877.201ZM336.232 857.034L326.087 865.992L317.488 856.555L327.73 847.501L336.232 856.842V857.034ZM335.024 821.824L329.034 827.764L323.044 821.824H335.024ZM322.174 818.95L328.986 812.195L335.797 818.95H322.174ZM335.024 836.147H322.996L328.986 830.207L335.024 836.147ZM334.735 839.022L327.875 845.106L322.368 839.022H334.735ZM336.232 854.303L329.034 846.399L336.232 840.028V854.303ZM336.232 834.902L330.242 828.962L336.232 823.022V834.902ZM336.232 816.89L330.242 810.95L336.232 805.01V816.89ZM336.232 799.788L330.242 793.848L336.232 787.908V799.788ZM336.232 782.686L330.242 776.746L336.232 770.806V782.686ZM335.363 769.225L328.986 775.548L322.609 769.225H335.363ZM321.933 766.351L327.73 760.602H330.339L336.136 766.351H321.933ZM336.232 764.051L332.754 760.602H336.232V764.051ZM336.232 757.728H330.58L336.232 752.123V757.728ZM336.232 747.141L330.242 741.201L330.918 740.53H336.28V747.141H336.232ZM336.232 737.656H333.768L336.232 735.213V737.656ZM336.232 729.704L331.208 724.674L336.232 720.602V729.704ZM334.155 730.039H324.493L329.807 725.728L334.155 730.039ZM336.232 715.428L333.575 712.506L336.232 710.111V715.428ZM336.232 703.452L334.783 700.386L336.232 698.422V703.452ZM335.846 687.069H336.232V695.548L333.913 698.662L332.851 696.458L335.846 687.069ZM332.126 698.901L332.754 700.243L330.87 702.734L332.126 698.901ZM333.623 702.015L336.232 707.476V707.812L332.416 711.261L329.324 707.812L333.623 702.015ZM328.696 709.728L331.111 712.41L326.57 716.482L328.696 709.728ZM332.271 713.656L336.232 718.015V718.398L329.952 723.476L325.894 719.452L332.271 713.656ZM325.121 721.081L328.599 724.53L322.464 729.464L325.121 721.081ZM336.136 732.913L331.353 737.656H326.715L321.933 732.913H336.136ZM321.788 735.261L324.252 737.704H321.788V735.261ZM321.788 740.53H327.15L327.778 741.201L321.788 747.141V740.53ZM321.788 749.584L329.034 742.399L336.28 749.584V749.728L329.034 756.914L321.788 749.728V749.584V749.584ZM321.788 752.171L327.44 757.776H321.788V752.171ZM321.788 760.602H325.266L321.788 764.051V760.602ZM321.788 770.806L327.778 776.746L321.788 782.686V770.806ZM321.788 785.129L329.034 777.944L336.28 785.129V785.465L329.034 792.65L321.788 785.465V785.129V785.129ZM321.788 787.908L327.778 793.848L321.788 799.788V787.908ZM321.788 802.231L329.034 795.045L336.28 802.231V802.566L329.034 809.752L321.788 802.566V802.231V802.231ZM321.788 805.01L327.778 810.95L321.788 816.89V805.01ZM321.788 823.022L327.778 828.962L321.788 834.902V823.022ZM321.112 840.219L326.57 846.207L317.44 854.255L321.112 840.219Z" fill="white"/>
<path d="M458.869 619.451C421.186 661.655 338.043 744.617 306.932 738.829" stroke="white"/>
<path d="M459.773 655.626C422.091 697.831 338.043 765.418 306.932 759.63" stroke="white"/>
<path d="M585.482 659.244C547.8 701.448 400.446 766.323 369.335 760.534" stroke="white"/>
<path d="M584.578 616.738C546.895 658.942 398.637 745.522 367.526 739.734" stroke="white"/>
<path d="M1357.05 664.432C1355.85 664.631 1354.75 665.029 1354.15 665.626C1353.05 666.622 1353.05 670.006 1354.15 671.002C1354.75 671.599 1355.95 671.997 1357.25 672.197C1355.95 672.495 1354.75 672.893 1354.15 673.391C1353.05 674.287 1353.05 677.771 1354.15 678.767C1354.75 679.364 1355.95 679.663 1357.25 679.962C1355.95 680.161 1354.75 680.559 1354.15 681.156C1353.05 682.052 1353.05 685.536 1354.15 686.532C1354.95 687.229 1356.55 687.727 1358.25 687.926V690.414H1361.85V688.025C1363.75 687.826 1365.35 687.428 1366.05 686.632C1366.95 685.536 1366.95 682.351 1366.05 681.256C1365.55 680.658 1364.55 680.26 1363.35 680.061C1364.55 679.862 1365.55 679.464 1366.05 678.867C1366.95 677.771 1366.95 674.586 1366.05 673.491C1365.55 672.893 1364.55 672.495 1363.35 672.296C1364.55 672.097 1365.55 671.699 1366.05 671.102C1366.95 670.106 1366.95 666.821 1366.05 665.726C1365.45 665.128 1364.35 664.73 1363.05 664.432V660.748H1368.95V661.943H1384.05L1383.95 821.524L1342.45 981.204H1348.65L1349.85 976.624L1387.44 943.175L1419.94 979.113V981.104H1425.94V979.113L1458.44 943.175L1496.03 976.525L1497.23 981.104H1503.43L1461.84 821.324V661.843H1476.83V660.649H1482.73V664.432C1481.53 664.631 1480.43 665.029 1479.83 665.626C1478.73 666.622 1478.73 670.006 1479.83 671.002C1480.43 671.599 1481.63 671.997 1482.93 672.197C1481.63 672.495 1480.43 672.893 1479.83 673.391C1478.73 674.287 1478.73 677.771 1479.83 678.767C1480.43 679.364 1481.63 679.663 1482.93 679.962C1481.63 680.161 1480.43 680.559 1479.83 681.156C1478.73 682.052 1478.73 685.536 1479.83 686.532C1480.63 687.229 1482.23 687.727 1483.93 687.926V690.414H1487.53V688.025C1489.43 687.826 1491.03 687.428 1491.73 686.632C1492.63 685.536 1492.63 682.351 1491.73 681.256C1491.23 680.658 1490.23 680.26 1489.03 680.061C1490.23 679.862 1491.23 679.464 1491.73 678.867C1492.63 677.771 1492.63 674.586 1491.73 673.491C1491.23 672.893 1490.23 672.495 1489.03 672.296C1490.23 672.097 1491.23 671.699 1491.73 671.102C1492.63 670.106 1492.63 666.821 1491.73 665.726C1491.13 665.128 1490.03 664.73 1488.73 664.432V660.748H1494.63V657.164H1488.73V656.268H1487.53V654.277H1483.93V656.268H1482.73V657.164H1476.83V655.97H1461.84V620.231H1476.83V619.036H1482.73V622.819C1481.53 623.118 1480.43 623.416 1479.83 624.014C1478.73 625.009 1478.73 628.394 1479.83 629.39C1480.43 629.987 1481.63 630.385 1482.93 630.584C1481.63 630.783 1480.43 631.181 1479.83 631.779C1478.73 632.774 1478.73 636.159 1479.83 637.155C1480.43 637.752 1481.63 638.05 1482.93 638.349C1481.63 638.548 1480.43 638.946 1479.83 639.544C1478.73 640.44 1478.73 643.924 1479.83 644.92C1480.63 645.616 1482.23 646.114 1483.93 646.313V648.802H1487.53V646.313C1489.43 646.114 1491.03 645.716 1491.73 644.92C1492.63 643.824 1492.63 640.639 1491.73 639.544C1491.23 638.946 1490.23 638.548 1489.03 638.349C1490.23 638.05 1491.23 637.752 1491.73 637.155C1492.63 636.059 1492.63 632.874 1491.73 631.779C1491.23 631.181 1490.23 630.783 1489.03 630.584C1490.23 630.385 1491.23 629.987 1491.73 629.39C1492.63 628.394 1492.63 625.109 1491.73 624.014C1491.13 623.416 1490.03 623.018 1488.73 622.819V619.136H1494.63V615.552H1488.73V614.556H1487.53V612.565H1483.93V614.556H1482.73V615.452H1476.83V614.258H1461.84V601.416L1431.14 503.059H1425.94V500.072H1419.94V503.059H1414.74L1384.15 600.52V614.258H1369.05V615.452H1363.15V614.556H1361.95V612.565H1358.35V614.556H1357.15V615.452H1351.15V619.036H1357.05V622.819C1355.85 623.118 1354.75 623.416 1354.15 624.014C1353.05 625.009 1353.05 628.394 1354.15 629.39C1354.75 629.987 1355.95 630.385 1357.25 630.584C1355.95 630.783 1354.75 631.181 1354.15 631.779C1353.05 632.774 1353.05 636.159 1354.15 637.155C1354.75 637.752 1355.95 638.05 1357.25 638.349C1355.95 638.548 1354.75 638.946 1354.15 639.544C1353.05 640.44 1353.05 643.924 1354.15 644.92C1354.95 645.616 1356.55 646.114 1358.25 646.313V648.802H1361.85V646.313C1363.75 646.114 1365.35 645.716 1366.05 644.92C1366.95 643.824 1366.95 640.639 1366.05 639.544C1365.55 638.946 1364.55 638.548 1363.35 638.349C1364.55 638.05 1365.55 637.752 1366.05 637.155C1366.95 636.059 1366.95 632.874 1366.05 631.779C1365.55 631.181 1364.55 630.783 1363.35 630.584C1364.55 630.385 1365.55 629.987 1366.05 629.39C1366.95 628.394 1366.95 625.109 1366.05 624.014C1365.45 623.416 1364.35 623.018 1363.05 622.819V619.136H1368.95V620.33H1384.05V656.069H1369.05V657.264H1363.15V656.368H1361.95V654.377H1358.35V656.368H1357.15V657.264H1351.15V660.848H1357.05V664.432ZM1494.43 970.353L1460.84 940.587L1480.83 918.387L1494.43 970.353ZM1478.43 908.83L1449.64 883.345L1466.83 864.331L1478.43 908.83ZM1464.84 856.566L1445.94 839.741L1457.24 827.298L1464.84 856.566ZM1455.04 783.097H1426.74L1440.84 769.06L1455.04 783.097ZM1443.44 766.472L1455.84 754.127V778.816L1443.44 766.472ZM1455.84 791.559V816.347L1443.44 803.903L1455.84 791.559ZM1453.34 789.07L1440.94 801.414L1428.44 789.07H1453.34ZM1453.34 818.836H1428.44L1440.84 806.491L1453.34 818.836ZM1454.64 824.809L1443.24 837.452L1429.04 824.809H1454.64ZM1455.84 743.276L1443.44 730.932L1455.84 718.587V743.276ZM1444.14 655.87L1455.84 644.223V655.87H1444.14ZM1455.84 661.843V669.011L1448.64 661.843H1455.84ZM1455.54 673.789H1426.24L1438.24 661.843H1443.64L1455.54 673.789ZM1454.04 679.762L1440.84 692.903L1427.64 679.762H1454.04ZM1455.84 683.048V707.736L1443.44 695.392L1455.84 683.048ZM1455.84 633.869L1443.44 621.525L1444.84 620.131H1455.94V633.869H1455.84ZM1455.84 614.158H1450.74L1455.84 609.081V614.158ZM1445.74 614.158H1436.14L1426.24 604.303H1455.74L1445.74 614.158ZM1430.24 598.33L1439.24 589.37L1450.24 598.33H1430.24ZM1454.44 597.234L1441.74 586.881L1448.94 579.713L1454.44 597.234ZM1445.94 570.157L1436.44 561.695L1441.44 556.12L1445.94 570.157ZM1434.44 533.621L1436.94 541.685L1433.04 536.508L1434.44 533.621ZM1425.94 509.032H1426.74L1432.84 528.544L1430.64 533.123L1425.84 526.653V509.032H1425.94ZM1425.94 532.725L1428.94 536.807L1425.94 543.079V532.725ZM1425.94 551.441L1431.34 540.092L1440.24 552.138L1433.84 559.305L1425.94 552.138V551.441ZM1425.94 556.916L1431.44 561.894L1425.94 567.966V556.916ZM1425.94 573.342L1434.14 564.283L1447.44 576.229L1439.04 584.591L1426.04 574.039V573.342H1425.94ZM1425.94 578.718L1436.34 587.18L1425.94 597.633V578.718ZM1425.94 609.181L1431.04 614.258H1425.94V609.181ZM1425.94 620.131H1436.94L1438.34 621.525L1425.94 633.869V620.131ZM1425.94 638.946L1440.94 624.014L1455.94 638.946V639.245L1440.94 654.178L1425.94 639.245V638.946ZM1425.94 644.322L1437.64 655.97H1425.94V644.322ZM1425.94 661.843H1433.14L1425.94 669.011V661.843ZM1425.94 683.048L1438.34 695.392L1425.94 707.736V683.048ZM1425.94 712.814L1440.94 697.881L1455.94 712.814V713.51L1440.94 728.443L1425.94 713.51V712.814ZM1425.94 718.587L1438.34 730.932L1425.94 743.276V718.587ZM1425.94 748.353L1440.94 733.421L1455.94 748.353V749.05L1440.94 763.983L1425.94 749.05V748.353ZM1425.94 754.127L1438.34 766.472L1425.94 778.816V754.127ZM1425.94 791.559L1438.34 803.903L1425.94 816.247V791.559ZM1425.94 826.8L1440.84 840.04L1425.94 856.466V826.8ZM1425.94 861.842L1443.54 842.429L1464.74 861.244L1446.94 880.856L1425.94 862.24V861.842ZM1425.94 867.018L1444.54 883.544L1425.94 904.151V867.018ZM1425.94 909.527L1447.24 885.933L1479.53 914.504L1458.24 938.098L1425.94 909.527ZM1425.94 914.405L1455.74 940.886L1425.94 973.837V914.405ZM1379.05 864.331L1396.24 883.345L1367.45 908.83L1379.05 864.331ZM1351.45 970.353L1365.05 918.387L1385.15 940.587L1351.45 970.353ZM1419.94 973.837L1390.14 940.886L1419.94 914.405V973.837ZM1419.94 909.527L1387.74 938.098L1366.45 914.504L1398.64 885.933L1419.94 909.527ZM1419.94 904.151L1401.34 883.544L1419.94 867.018V904.151ZM1419.94 862.24L1398.94 880.856L1381.15 861.244L1402.34 842.429L1419.94 861.842V862.24ZM1417.44 789.07L1405.04 801.414L1392.64 789.07H1417.44ZM1390.84 783.097L1404.94 769.06L1419.04 783.097H1390.84ZM1417.44 818.836H1392.54L1404.94 806.491L1417.44 818.836ZM1416.84 824.809L1402.64 837.452L1391.24 824.809H1416.84ZM1419.94 856.566L1405.04 840.14L1419.94 826.899V856.566ZM1419.94 816.247L1407.54 803.903L1419.94 791.559V816.247ZM1419.94 778.816L1407.54 766.472L1419.94 754.127V778.816ZM1419.94 743.276L1407.54 730.932L1419.94 718.587V743.276ZM1419.94 707.736L1407.54 695.392L1419.94 683.048V707.736ZM1418.14 679.762L1404.94 692.903L1391.74 679.762H1418.14ZM1390.34 673.789L1402.34 661.843H1407.74L1419.74 673.789H1390.34ZM1419.94 669.011L1412.74 661.843H1419.94V669.011ZM1419.94 655.87H1408.24L1419.94 644.223V655.87ZM1419.94 633.869L1407.54 621.525L1408.94 620.131H1420.04V633.869H1419.94ZM1419.94 614.158H1414.84L1419.94 609.081V614.158ZM1419.94 597.633L1409.54 587.18L1419.94 578.718V597.633ZM1415.64 598.33H1395.64L1406.64 589.37L1415.64 598.33ZM1419.94 567.966L1414.44 561.894L1419.94 556.916V567.966ZM1419.94 543.079L1416.94 536.707L1419.94 532.626V543.079ZM1419.14 509.032H1419.94V526.653L1415.14 533.123L1412.94 528.544L1419.14 509.032ZM1411.44 533.621L1412.74 536.409L1408.84 541.585L1411.44 533.621ZM1414.54 540.092L1419.94 551.441V552.138L1412.04 559.305L1405.64 552.138L1414.54 540.092ZM1404.34 556.12L1409.34 561.695L1399.94 570.157L1404.34 556.12ZM1411.74 564.283L1419.94 573.342V574.139L1406.94 584.691L1398.54 576.329L1411.74 564.283ZM1396.94 579.713L1404.14 586.881L1391.44 597.135L1396.94 579.713ZM1419.74 604.303L1409.84 614.158H1400.24L1390.34 604.303H1419.74ZM1390.04 609.181L1395.14 614.258H1390.04V609.181ZM1390.04 620.131H1401.14L1402.44 621.525L1390.04 633.869V620.131ZM1390.04 638.946L1405.04 624.014L1420.04 638.946V639.245L1405.04 654.178L1390.04 639.245V638.946V638.946ZM1390.04 644.322L1401.74 655.97H1390.04V644.322ZM1390.04 661.843H1397.24L1390.04 669.011V661.843ZM1390.04 683.048L1402.44 695.392L1390.04 707.736V683.048ZM1390.04 712.814L1405.04 697.881L1420.04 712.814V713.51L1405.04 728.443L1390.04 713.51V712.814V712.814ZM1390.04 718.587L1402.44 730.932L1390.04 743.276V718.587ZM1390.04 748.353L1405.04 733.421L1420.04 748.353V749.05L1405.04 763.983L1390.04 749.05V748.353V748.353ZM1390.04 754.127L1402.44 766.472L1390.04 778.816V754.127ZM1390.04 791.559L1402.44 803.903L1390.04 816.247V791.559ZM1388.64 827.298L1399.94 839.741L1381.05 856.466L1388.64 827.298Z" fill="white"/>
<path d="M1527.25 746.771C1526.48 746.896 1525.78 747.148 1525.39 747.525C1524.69 748.154 1524.69 750.292 1525.39 750.92C1525.78 751.298 1526.55 751.549 1527.38 751.675C1526.55 751.863 1525.78 752.115 1525.39 752.429C1524.69 752.995 1524.69 755.196 1525.39 755.825C1525.78 756.202 1526.55 756.39 1527.38 756.579C1526.55 756.705 1525.78 756.956 1525.39 757.334C1524.69 757.899 1524.69 760.1 1525.39 760.729C1525.91 761.169 1526.93 761.483 1528.02 761.609V763.181H1530.32V761.672C1531.54 761.546 1532.56 761.295 1533.01 760.792C1533.59 760.1 1533.59 758.088 1533.01 757.396C1532.69 757.019 1532.05 756.768 1531.28 756.642C1532.05 756.516 1532.69 756.265 1533.01 755.887C1533.59 755.196 1533.59 753.184 1533.01 752.492C1532.69 752.115 1532.05 751.863 1531.28 751.738C1532.05 751.612 1532.69 751.36 1533.01 750.983C1533.59 750.355 1533.59 748.28 1533.01 747.588C1532.63 747.211 1531.92 746.959 1531.09 746.771V744.444H1534.87V745.199H1544.54L1544.48 845.987L1517.9 946.837H1521.87L1522.64 943.945L1546.72 922.819L1567.53 945.517V946.774H1571.37V945.517L1592.18 922.819L1616.26 943.882L1617.03 946.774H1621L1594.36 845.861V745.136H1603.97V744.381H1607.74V746.771C1606.98 746.896 1606.27 747.148 1605.89 747.525C1605.18 748.154 1605.18 750.292 1605.89 750.92C1606.27 751.298 1607.04 751.549 1607.87 751.675C1607.04 751.863 1606.27 752.115 1605.89 752.429C1605.18 752.995 1605.18 755.196 1605.89 755.825C1606.27 756.202 1607.04 756.39 1607.87 756.579C1607.04 756.705 1606.27 756.956 1605.89 757.334C1605.18 757.899 1605.18 760.1 1605.89 760.729C1606.4 761.169 1607.42 761.483 1608.51 761.609V763.181H1610.82V761.672C1612.03 761.546 1613.06 761.295 1613.51 760.792C1614.08 760.1 1614.08 758.088 1613.51 757.396C1613.19 757.019 1612.55 756.768 1611.78 756.642C1612.55 756.516 1613.19 756.265 1613.51 755.887C1614.08 755.196 1614.08 753.184 1613.51 752.492C1613.19 752.115 1612.55 751.863 1611.78 751.738C1612.55 751.612 1613.19 751.36 1613.51 750.983C1614.08 750.355 1614.08 748.28 1613.51 747.588C1613.12 747.211 1612.42 746.959 1611.59 746.771V744.444H1615.36V742.181H1611.59V741.615H1610.82V740.357H1608.51V741.615H1607.74V742.181H1603.97V741.426H1594.36V718.854H1603.97V718.1H1607.74V720.489C1606.98 720.678 1606.27 720.866 1605.89 721.244C1605.18 721.872 1605.18 724.01 1605.89 724.639C1606.27 725.016 1607.04 725.268 1607.87 725.393C1607.04 725.519 1606.27 725.771 1605.89 726.148C1605.18 726.777 1605.18 728.914 1605.89 729.543C1606.27 729.92 1607.04 730.109 1607.87 730.298C1607.04 730.423 1606.27 730.675 1605.89 731.052C1605.18 731.618 1605.18 733.819 1605.89 734.447C1606.4 734.887 1607.42 735.202 1608.51 735.327V736.899H1610.82V735.327C1612.03 735.202 1613.06 734.95 1613.51 734.447C1614.08 733.756 1614.08 731.744 1613.51 731.052C1613.19 730.675 1612.55 730.423 1611.78 730.298C1612.55 730.109 1613.19 729.92 1613.51 729.543C1614.08 728.851 1614.08 726.839 1613.51 726.148C1613.19 725.771 1612.55 725.519 1611.78 725.393C1612.55 725.268 1613.19 725.016 1613.51 724.639C1614.08 724.01 1614.08 721.935 1613.51 721.244C1613.12 720.866 1612.42 720.615 1611.59 720.489V718.163H1615.36V715.899H1611.59V715.271H1610.82V714.013H1608.51V715.271H1607.74V715.836H1603.97V715.082H1594.36V706.971L1574.7 644.851H1571.37V642.965H1567.53V644.851H1564.2L1544.6 706.405V715.082H1534.93V715.836H1531.16V715.271H1530.39V714.013H1528.08V715.271H1527.31V715.836H1523.47V718.1H1527.25V720.489C1526.48 720.678 1525.78 720.866 1525.39 721.244C1524.69 721.872 1524.69 724.01 1525.39 724.639C1525.78 725.016 1526.55 725.268 1527.38 725.393C1526.55 725.519 1525.78 725.771 1525.39 726.148C1524.69 726.777 1524.69 728.914 1525.39 729.543C1525.78 729.92 1526.55 730.109 1527.38 730.298C1526.55 730.423 1525.78 730.675 1525.39 731.052C1524.69 731.618 1524.69 733.819 1525.39 734.447C1525.91 734.887 1526.93 735.202 1528.02 735.327V736.899H1530.32V735.327C1531.54 735.202 1532.56 734.95 1533.01 734.447C1533.59 733.756 1533.59 731.744 1533.01 731.052C1532.69 730.675 1532.05 730.423 1531.28 730.298C1532.05 730.109 1532.69 729.92 1533.01 729.543C1533.59 728.851 1533.59 726.839 1533.01 726.148C1532.69 725.771 1532.05 725.519 1531.28 725.393C1532.05 725.268 1532.69 725.016 1533.01 724.639C1533.59 724.01 1533.59 721.935 1533.01 721.244C1532.63 720.866 1531.92 720.615 1531.09 720.489V718.163H1534.87V718.917H1544.54V741.489H1534.93V742.244H1531.16V741.678H1530.39V740.42H1528.08V741.678H1527.31V742.244H1523.47V744.507H1527.25V746.771ZM1615.24 939.984L1593.72 921.185L1606.53 907.164L1615.24 939.984ZM1604.99 901.128L1586.55 885.032L1597.56 873.023L1604.99 901.128ZM1596.28 868.118L1584.18 857.493L1591.41 849.633L1596.28 868.118ZM1590.01 821.717H1571.88L1580.91 812.852L1590.01 821.717ZM1582.58 811.217L1590.52 803.421V819.013L1582.58 811.217ZM1590.52 827.061V842.717L1582.58 834.858L1590.52 827.061ZM1588.92 825.49L1580.98 833.286L1572.97 825.49H1588.92ZM1588.92 844.289H1572.97L1580.91 836.493L1588.92 844.289ZM1589.75 848.061L1582.45 856.047L1573.36 848.061H1589.75ZM1590.52 796.567L1582.58 788.771L1590.52 780.974V796.567ZM1583.03 741.363L1590.52 734.007V741.363H1583.03ZM1590.52 745.136V749.663L1585.91 745.136H1590.52ZM1590.33 752.681H1571.56L1579.25 745.136H1582.71L1590.33 752.681ZM1589.37 756.453L1580.91 764.753L1572.46 756.453H1589.37ZM1590.52 758.528V774.121L1582.58 766.325L1590.52 758.528ZM1590.52 727.468L1582.58 719.672L1583.47 718.791H1590.58V727.468H1590.52ZM1590.52 715.019H1587.25L1590.52 711.812V715.019ZM1584.05 715.019H1577.9L1571.56 708.794H1590.45L1584.05 715.019ZM1574.12 705.022L1579.89 699.363L1586.93 705.022H1574.12ZM1589.62 704.33L1581.49 697.791L1586.1 693.264L1589.62 704.33ZM1584.18 687.228L1578.1 681.884L1581.3 678.363L1584.18 687.228ZM1576.81 664.154L1578.42 669.246L1575.92 665.977L1576.81 664.154ZM1571.37 648.624H1571.88L1575.79 660.947L1574.38 663.839L1571.31 659.752V648.624H1571.37ZM1571.37 663.588L1573.29 666.166L1571.37 670.127V663.588ZM1571.37 675.408L1574.83 668.24L1580.53 675.848L1576.43 680.375L1571.37 675.848V675.408ZM1571.37 678.866L1574.89 682.01L1571.37 685.845V678.866ZM1571.37 689.24L1576.62 683.519L1585.14 691.064L1579.76 696.345L1571.44 689.681V689.24H1571.37ZM1571.37 692.636L1578.03 697.98L1571.37 704.582V692.636ZM1571.37 711.875L1574.64 715.082H1571.37V711.875ZM1571.37 718.791H1578.42L1579.31 719.672L1571.37 727.468V718.791ZM1571.37 730.675L1580.98 721.244L1590.58 730.675V730.863L1580.98 740.295L1571.37 730.863V730.675ZM1571.37 734.07L1578.86 741.426H1571.37V734.07ZM1571.37 745.136H1575.98L1571.37 749.663V745.136ZM1571.37 758.528L1579.31 766.325L1571.37 774.121V758.528ZM1571.37 777.328L1580.98 767.896L1590.58 777.328V777.768L1580.98 787.199L1571.37 777.768V777.328ZM1571.37 780.974L1579.31 788.771L1571.37 796.567V780.974ZM1571.37 799.774L1580.98 790.343L1590.58 799.774V800.214L1580.98 809.645L1571.37 800.214V799.774ZM1571.37 803.421L1579.31 811.217L1571.37 819.013V803.421ZM1571.37 827.061L1579.31 834.858L1571.37 842.654V827.061ZM1571.37 849.319L1580.91 857.681L1571.37 868.056V849.319ZM1571.37 871.451L1582.64 859.19L1596.22 871.074L1584.82 883.46L1571.37 871.702V871.451ZM1571.37 874.72L1583.28 885.157L1571.37 898.172V874.72ZM1571.37 901.568L1585.01 886.666L1605.7 904.711L1592.06 919.613L1571.37 901.568ZM1571.37 904.649L1590.45 921.373L1571.37 942.185V904.649ZM1541.34 873.023L1552.35 885.032L1533.91 901.128L1541.34 873.023ZM1523.66 939.984L1532.37 907.164L1545.24 921.185L1523.66 939.984ZM1567.53 942.185L1548.45 921.373L1567.53 904.649V942.185ZM1567.53 901.568L1546.91 919.613L1533.27 904.711L1553.89 886.666L1567.53 901.568ZM1567.53 898.172L1555.62 885.157L1567.53 874.72V898.172ZM1567.53 871.702L1554.08 883.46L1542.68 871.074L1556.26 859.19L1567.53 871.451V871.702ZM1565.93 825.49L1557.99 833.286L1550.05 825.49H1565.93ZM1548.89 821.717L1557.92 812.852L1566.95 821.717H1548.89ZM1565.93 844.289H1549.98L1557.92 836.493L1565.93 844.289ZM1565.54 848.061L1556.45 856.047L1549.15 848.061H1565.54ZM1567.53 868.118L1557.99 857.744L1567.53 849.382V868.118ZM1567.53 842.654L1559.59 834.858L1567.53 827.061V842.654ZM1567.53 819.013L1559.59 811.217L1567.53 803.421V819.013ZM1567.53 796.567L1559.59 788.771L1567.53 780.974V796.567ZM1567.53 774.121L1559.59 766.325L1567.53 758.528V774.121ZM1566.38 756.453L1557.92 764.753L1549.47 756.453H1566.38ZM1548.57 752.681L1556.26 745.136H1559.72L1567.4 752.681H1548.57ZM1567.53 749.663L1562.92 745.136H1567.53V749.663ZM1567.53 741.363H1560.04L1567.53 734.007V741.363ZM1567.53 727.468L1559.59 719.672L1560.49 718.791H1567.59V727.468H1567.53ZM1567.53 715.019H1564.26L1567.53 711.812V715.019ZM1567.53 704.582L1560.87 697.98L1567.53 692.636V704.582ZM1564.78 705.022H1551.97L1559.01 699.363L1564.78 705.022ZM1567.53 685.845L1564.01 682.01L1567.53 678.866V685.845ZM1567.53 670.127L1565.61 666.103L1567.53 663.525V670.127ZM1567.02 648.624H1567.53V659.752L1564.46 663.839L1563.05 660.947L1567.02 648.624ZM1562.09 664.154L1562.92 665.914L1560.42 669.184L1562.09 664.154ZM1564.07 668.24L1567.53 675.408V675.848L1562.47 680.375L1558.37 675.848L1564.07 668.24ZM1557.54 678.363L1560.74 681.884L1554.72 687.228L1557.54 678.363ZM1562.28 683.519L1567.53 689.24V689.743L1559.2 696.408L1553.83 691.127L1562.28 683.519ZM1552.8 693.264L1557.41 697.791L1549.28 704.267L1552.8 693.264ZM1567.4 708.794L1561.06 715.019H1554.91L1548.57 708.794H1567.4ZM1548.38 711.875L1551.65 715.082H1548.38V711.875ZM1548.38 718.791H1555.49L1556.32 719.672L1548.38 727.468V718.791ZM1548.38 730.675L1557.99 721.244L1567.59 730.675V730.863L1557.99 740.295L1548.38 730.863V730.675V730.675ZM1548.38 734.07L1555.87 741.426H1548.38V734.07ZM1548.38 745.136H1552.99L1548.38 749.663V745.136ZM1548.38 758.528L1556.32 766.325L1548.38 774.121V758.528ZM1548.38 777.328L1557.99 767.896L1567.59 777.328V777.768L1557.99 787.199L1548.38 777.768V777.328V777.328ZM1548.38 780.974L1556.32 788.771L1548.38 796.567V780.974ZM1548.38 799.774L1557.99 790.343L1567.59 799.774V800.214L1557.99 809.645L1548.38 800.214V799.774V799.774ZM1548.38 803.421L1556.32 811.217L1548.38 819.013V803.421ZM1548.38 827.061L1556.32 834.858L1548.38 842.654V827.061ZM1547.49 849.633L1554.72 857.493L1542.62 868.056L1547.49 849.633Z" fill="white"/>
<path d="M1609.24 717.124C1571.56 759.329 1496.2 695.419 1484.44 616.738" stroke="white"/>
<path d="M1608.34 743.351C1566.74 778.622 1497.1 739.734 1485.34 661.052" stroke="white"/>
<path d="M1529.66 746.969C1488.06 782.24 1370.49 734.307 1358.73 655.626" stroke="white"/>
<path d="M1528.75 717.124C1487.15 752.395 1370.49 694.515 1358.73 615.833" stroke="white"/>
</g>
<defs>
<linearGradient id="paint0_linear" x1="967.951" y1="664.97" x2="972.578" y2="654.843" gradientUnits="userSpaceOnUse">
<stop stop-color="#505B64"/>
<stop offset="0.3032" stop-color="#4E5861"/>
<stop offset="0.5276" stop-color="#465058"/>
<stop offset="0.7266" stop-color="#384148"/>
<stop offset="0.9098" stop-color="#262C31"/>
<stop offset="1" stop-color="#1A1F23"/>
</linearGradient>
<linearGradient id="paint1_linear" x1="749.517" y1="465.234" x2="761.287" y2="439.473" gradientUnits="userSpaceOnUse">
<stop stop-color="#505B64"/>
<stop offset="0.3032" stop-color="#4E5861"/>
<stop offset="0.5276" stop-color="#465058"/>
<stop offset="0.7266" stop-color="#384148"/>
<stop offset="0.9098" stop-color="#262C31"/>
<stop offset="1" stop-color="#1A1F23"/>
</linearGradient>
<linearGradient id="paint2_linear" x1="883.963" y1="578.277" x2="891.688" y2="561.371" gradientUnits="userSpaceOnUse">
<stop stop-color="#505B64"/>
<stop offset="0.3032" stop-color="#4E5861"/>
<stop offset="0.5276" stop-color="#465058"/>
<stop offset="0.7266" stop-color="#384148"/>
<stop offset="0.9098" stop-color="#262C31"/>
<stop offset="1" stop-color="#1A1F23"/>
</linearGradient>
<linearGradient id="paint3_linear" x1="947.826" y1="719.919" x2="908.301" y2="766.966" gradientUnits="userSpaceOnUse">
<stop stop-color="#9CC5E8"/>
<stop offset="0.1217" stop-color="#94BEE1"/>
<stop offset="0.3056" stop-color="#80AACD"/>
<stop offset="0.5289" stop-color="#5E89AC"/>
<stop offset="0.7807" stop-color="#2F5C7E"/>
<stop offset="1" stop-color="#002F51"/>
</linearGradient>
<linearGradient id="paint4_linear" x1="817.345" y1="759.124" x2="796.228" y2="733.988" gradientUnits="userSpaceOnUse">
<stop stop-color="#002F51"/>
<stop offset="0.1143" stop-color="#124063"/>
<stop offset="1" stop-color="#9CC5E8"/>
</linearGradient>
<clipPath id="clip0">
<rect width="1920" height="1080" fill="white"/>
</clipPath>
<clipPath id="clip1">
<rect width="83.2032" height="86.8207" fill="white" transform="translate(1006.02 708.08)"/>
</clipPath>
<clipPath id="clip2">
<rect width="101.291" height="103.1" fill="white" transform="translate(1058.47 691.802)"/>
</clipPath>
<clipPath id="clip3">
<rect width="132.04" height="137.466" fill="white" transform="translate(1125.4 657.435)"/>
</clipPath>
</defs>
</svg>
