<svg width="375" height="667" viewBox="0 0 375 667" fill="none" xmlns="http://www.w3.org/2000/svg">
<g clip-path="url(#clip0)">
<path d="M216.543 536.663H213.993V546.784H216.543V536.663Z" fill="#808080"/>
<path d="M216.532 536.14H215.054V546.784H216.532V536.14Z" fill="#4B4848"/>
<path d="M214.466 536.14H214.17V546.784H214.466V536.14Z" fill="#E4E4E4"/>
<path d="M228.078 535.308H202.272L206.591 518.141H223.783L228.078 535.308Z" fill="#0071BC"/>
<path d="M206.183 518.87H224.029L224.073 519.12H206.12L206.183 518.87Z" fill="#B3B3B3"/>
<path d="M206.183 518.693H224.029L224.073 518.943H206.12L206.183 518.693Z" fill="#CCCCCC"/>
<path d="M206.007 520.194H224.25L224.29 520.444H205.953L206.007 520.194Z" fill="#B3B3B3"/>
<path d="M206.007 520.027H224.25L224.29 520.277H205.953L206.007 520.027Z" fill="#CCCCCC"/>
<path d="M205.309 522.091H224.937L224.977 522.425H205.236L205.309 522.091Z" fill="#B3B3B3"/>
<path d="M205.309 521.862H224.937L224.977 522.195H205.236L205.309 521.862Z" fill="#E6E6E6"/>
<path d="M203.927 528.043H226.266L226.309 528.46H203.854L203.927 528.043Z" fill="#B3B3B3"/>
<path d="M203.927 527.761H226.266L226.309 528.179H203.854L203.927 527.761Z" fill="#E6E6E6"/>
<path d="M204.945 523.769H225.291L225.331 524.103H204.885L204.945 523.769Z" fill="#B3B3B3"/>
<path d="M204.945 523.54H225.291L225.331 523.874H204.885L204.945 523.54Z" fill="#CCCCCC"/>
<path d="M204.364 525.76H225.995L226.049 526.094H204.291L204.364 525.76Z" fill="#B3B3B3"/>
<path d="M204.364 525.531H225.995L226.049 525.864H204.291L204.364 525.531Z" fill="#CCCCCC"/>
<path d="M203.199 530.086H227.089L227.14 530.419H203.115L203.199 530.086Z" fill="#B3B3B3"/>
<path d="M203.199 529.857H227.089L227.14 530.19H203.115L203.199 529.857Z" fill="#CCCCCC"/>
<path d="M202.522 532.577H227.671L227.724 532.911H202.439L202.522 532.577Z" fill="#B3B3B3"/>
<path d="M202.522 532.348H227.671L227.724 532.681H202.439L202.522 532.348Z" fill="#CCCCCC"/>
<path d="M224.363 517.807H206.143L201.17 535.829H228.939L224.363 517.807ZM206.591 518.141H223.783L228.068 535.308H202.272L206.591 518.141Z" fill="#E6E6E6"/>
<path d="M211.977 517.849L209.908 535.517L210.498 535.61L212.381 517.932L211.977 517.849Z" fill="#E6E6E6"/>
<path d="M217.728 517.849L219.57 535.423L220.161 535.506L218.135 517.932L217.728 517.849Z" fill="#E6E6E6"/>
<path d="M224.126 535.829H205.903H201.17C201.17 535.829 201.411 537.216 202.355 537.216C202.586 537.216 203.957 537.216 205.903 537.216C212.091 537.216 224.126 537.216 224.126 537.216C226.079 537.216 227.454 537.216 227.671 537.216C228.619 537.216 228.856 535.829 228.856 535.829H224.126Z" fill="#F2F2F2"/>
<path d="M237.39 534.766H234.289V546.784H237.39V534.766Z" fill="#808080"/>
<path d="M237.379 534.144H235.581V546.785H237.379V534.144Z" fill="#4B4848"/>
<path d="M234.862 534.144H234.502V546.785H234.862V534.144Z" fill="#E4E4E4"/>
<path d="M251.434 533.156H220.021L225.274 512.77H246.204L251.434 533.156Z" fill="#0071BC"/>
<path d="M224.78 513.636H246.508L246.558 513.933H224.704L224.78 513.636Z" fill="#B3B3B3"/>
<path d="M224.78 513.426H246.508L246.558 513.723H224.704L224.78 513.426Z" fill="#CCCCCC"/>
<path d="M224.563 515.208H246.775L246.825 515.505H224.503L224.563 515.208Z" fill="#B3B3B3"/>
<path d="M224.563 515.01H246.775L246.825 515.307H224.503L224.563 515.01Z" fill="#CCCCCC"/>
<path d="M223.716 517.461H247.61L247.66 517.857H223.629L223.716 517.461Z" fill="#B3B3B3"/>
<path d="M223.716 517.189H247.61L247.66 517.585H223.629L223.716 517.189Z" fill="#E6E6E6"/>
<path d="M222.034 524.529H249.232L249.282 525.024H221.944L222.034 524.529Z" fill="#B3B3B3"/>
<path d="M222.034 524.195H249.232L249.282 524.69H221.944L222.034 524.195Z" fill="#E6E6E6"/>
<path d="M223.275 519.454H248.04L248.09 519.85H223.198L223.275 519.454Z" fill="#B3B3B3"/>
<path d="M223.275 519.182H248.04L248.09 519.578H223.198L223.275 519.182Z" fill="#CCCCCC"/>
<path d="M222.565 521.818H248.902L248.965 522.214H222.478L222.565 521.818Z" fill="#B3B3B3"/>
<path d="M222.565 521.546H248.902L248.965 521.942H222.478L222.565 521.546Z" fill="#CCCCCC"/>
<path d="M221.146 526.955H250.23L250.293 527.351H221.046L221.146 526.955Z" fill="#B3B3B3"/>
<path d="M221.146 526.683H250.23L250.293 527.079H221.046L221.146 526.683Z" fill="#CCCCCC"/>
<path d="M220.325 529.914H250.941L251.004 530.309H220.221L220.325 529.914Z" fill="#B3B3B3"/>
<path d="M220.325 529.641H250.941L251.004 530.037H220.221L220.325 529.641Z" fill="#CCCCCC"/>
<path d="M246.912 512.374H224.731L218.676 533.775H252.486L246.912 512.374ZM225.275 512.77H246.205L251.421 533.156H220.021L225.275 512.77Z" fill="#E6E6E6"/>
<path d="M231.833 512.424L229.313 533.404L230.034 533.515L232.327 512.523L231.833 512.424Z" fill="#E6E6E6"/>
<path d="M238.835 512.424L241.075 533.293L241.799 533.392L239.329 512.523L238.835 512.424Z" fill="#E6E6E6"/>
<path d="M246.622 533.775H224.44H218.676C218.676 533.775 218.97 535.422 220.121 535.422C220.398 535.422 222.07 535.422 224.44 535.422C231.973 535.422 246.622 535.422 246.622 535.422C249.001 535.422 250.674 535.422 250.941 535.422C252.092 535.422 252.382 533.775 252.382 533.775H246.622Z" fill="#F2F2F2"/>
<path d="M189.283 503.302L190.819 503.726L194.337 505L195.227 504.953C195.227 504.953 195.914 504.104 195.995 503.019C196.076 501.934 195.146 501.509 195.146 501.509L189.728 500C189.728 500 189 500.661 189 501.274C189 501.887 189.283 503.302 189.283 503.302Z" fill="#9299A2"/>
<path opacity="0.3" d="M195.995 503C196.076 501.922 195.146 501.5 195.146 501.5L189.728 500C189.728 500 189 500.656 189 501.266C190.698 501.875 193.731 502.109 195.995 503Z" fill="white"/>
<path d="M189.948 502.064C189.77 502.612 189.237 503.03 188.703 502.998C188.17 502.966 187.874 502.483 188.052 501.936C188.23 501.388 188.763 500.969 189.296 501.002C189.83 501.002 190.126 501.485 189.948 502.064Z" fill="url(#paint0_linear)"/>
<path opacity="0.2" d="M189.273 503.633L190.753 503.974L194.143 505L195 504.962C195 504.962 194.532 503.595 189 502C189 502.494 189.273 503.633 189.273 503.633Z" fill="black"/>
<path d="M189 501.499L185.35 494.939L174.481 487L174 487.501L188.559 502L189 501.499Z" fill="#C9CCD4"/>
<path opacity="0.5" d="M174.471 487L174 487.513L188.529 502L189 501.487L174.471 487Z" fill="white"/>
<path d="M177 488.788L175.944 490L175 489.03L175.944 488L177 488.788Z" fill="#ED403B"/>
<path d="M175 487.464L174.548 488L174 487.429L174.387 487L175 487.464Z" fill="#ED403B"/>
<path d="M189.205 502H196.639L209 495.714L208.795 495L189 501.287L189.205 502Z" fill="#C9CCD4"/>
<path opacity="0.5" d="M208.805 495L189 501.272L189.196 502L209 495.728L208.805 495Z" fill="white"/>
<path d="M206.276 497L206 496.212L206.794 496L207 496.697L206.276 497Z" fill="#ED403B"/>
<path d="M207.427 496L207 495.259L208.643 495L209 495.593L207.427 496Z" fill="#ED403B"/>
<path d="M188.407 501L185.074 507.701L184 521.829L184.592 522L189 501.171L188.407 501Z" fill="#C9CCD4"/>
<path opacity="0.5" d="M188.407 501L184 521.829L184.592 522L189 501.171L188.407 501Z" fill="white"/>
<path d="M184.069 519L185 519.207L184.793 520L184 519.793L184.069 519Z" fill="#ED403B"/>
<path d="M184.091 520L185 520.357L184.727 522L184 521.714L184.091 520Z" fill="#ED403B"/>
<path d="M188.981 501.813C189.06 500.84 188.901 499.813 188.387 500.029C187.872 500.245 186.962 501.11 187.001 501.435C187.041 501.759 187.714 502.624 188.229 502.894C188.704 503.273 188.901 502.57 188.981 501.813Z" fill="#9299A2"/>
<path d="M195 547L193.732 504.346C193.775 503.972 193.605 503.556 193.141 503.306C192.423 502.931 192 502.973 191.493 503.056C190.648 503.223 190.31 503.847 190.268 504.305L189 546.958H195V547Z" fill="#C9CCD4"/>
<path d="M191.504 504.725C193.035 504.725 193 505.287 193 506L192.964 504.237C192.964 503.563 193 503 191.504 503C190.009 503 190.044 503.563 190.044 504.237L190.009 506C189.973 505.287 189.973 504.725 191.504 504.725Z" fill="#AEB3BC"/>
<g opacity="0.5">
<path opacity="0.2" d="M193.605 546.586H191.849L191.89 504.733C191.89 503.998 191.89 503.385 192.421 503.385C192.952 503.385 192.911 503.998 192.911 504.733L193.605 546.586Z" fill="black"/>
</g>
<path opacity="0.5" d="M189 547H190.517L191 505.35C191 504.614 191 504 190.586 504C190.103 504 190.172 504.614 190.172 505.35L189 547Z" fill="white"/>
<path d="M197.263 547.719H189.557V549.43H197.263V547.719Z" fill="#5C666E"/>
<path opacity="0.3" d="M191.754 547.719H190.568V549.43H191.754V547.719Z" fill="white"/>
<path opacity="0.3" d="M196.252 547.719H194.438V549.43H196.252V547.719Z" fill="black"/>
<path d="M117.698 436.374L121.714 437.26L130.771 440L133.025 439.839C133.025 439.839 134.787 437.985 134.992 435.608C135.156 433.231 132.861 432.344 132.861 432.344L118.846 429C118.846 429 117.002 430.41 117.002 431.78C116.96 433.231 117.698 436.374 117.698 436.374Z" fill="#9299A2"/>
<path opacity="0.3" d="M134.992 436C135.155 433.482 132.861 432.543 132.861 432.543L118.844 429C118.844 429 117 430.494 117 431.945C121.426 433.396 129.254 433.908 134.992 436Z" fill="white"/>
<path d="M118.949 433.227C118.702 434.894 117.894 436.106 117.086 435.993C116.277 435.879 115.821 434.402 116.067 432.773C116.313 431.106 117.121 429.894 117.929 430.007C118.702 430.121 119.159 431.56 118.949 433.227Z" fill="url(#paint1_linear)"/>
<path opacity="0.2" d="M117.697 436.453L121.707 437.32L130.75 440L133 439.842C133 439.842 131.732 436.256 117.002 432C116.961 433.379 117.697 436.453 117.697 436.453Z" fill="black"/>
<path d="M116 432.023L110.146 414.195L86.4429 389L85 389.977L114.557 433L116 432.023Z" fill="#C9CCD4"/>
<path opacity="0.5" d="M86.4662 389L85 389.983L114.534 433L116 432.017L86.4662 389Z" fill="white"/>
<path d="M92 394.143L89.4784 396L88 393.619L90.174 392L92 394.143Z" fill="#ED403B"/>
<path d="M88 390.824L86.3248 392L85 389.973L86.3637 389L88 390.824Z" fill="#ED403B"/>
<path d="M115.166 432.844L133.842 437L168 428.861L167.875 427L115 430.983L115.166 432.844Z" fill="#C9CCD4"/>
<path opacity="0.5" d="M167.871 427L115 431.098L115.129 433L168 428.902L167.871 427Z" fill="white"/>
<path d="M160.235 431L160 428.2L162.813 428L163 430.44L160.235 431Z" fill="#ED403B"/>
<path d="M165.19 429L165 427.143L167.857 427L168 428.536L165.19 429Z" fill="#ED403B"/>
<path d="M115.403 432L102.42 446.055L92 479.219L93.5964 480L117 432.74L115.403 432Z" fill="#C9CCD4"/>
<path opacity="0.5" d="M115.376 432L92 479.229L93.6243 480L117 432.771L115.376 432Z" fill="white"/>
<path d="M94.6665 472L97 473.059L96.037 475L94 474.047L94.6665 472Z" fill="#ED403B"/>
<path d="M92.8306 476L95 477.143L93.7536 480L92 479.013L92.8306 476Z" fill="#ED403B"/>
<path d="M117.947 432.618C118.179 430.705 117.668 428.664 116.135 429.047C114.603 429.43 111.909 431.258 112.002 431.895C112.095 432.533 114.092 434.276 115.671 434.871C117.25 435.424 117.761 434.106 117.947 432.618Z" fill="#9299A2"/>
<path opacity="0.5" d="M116.291 430.003C116.625 429.964 117 430.31 117 430.656C117 431.001 113 432 113 432C113 432 114.166 431.078 114.583 430.809C115.083 430.502 115.958 430.041 116.291 430.003Z" fill="white"/>
<path d="M131 547L127.851 440.338C127.934 439.438 127.519 438.415 126.359 437.76C124.536 436.778 123.459 436.942 122.257 437.187C120.185 437.596 119.273 439.192 119.149 440.338L116 547H131Z" fill="#C9CCD4"/>
<path d="M123.5 440.605C128.042 440.605 128 442.127 128 444L127.875 439.317C127.875 437.483 128 436 123.5 436C119.042 436 119.125 437.483 119.125 439.317L119 444C119 442.127 118.958 440.605 123.5 440.605Z" fill="#AEB3BC"/>
<g opacity="0.5">
<path opacity="0.2" d="M128.615 546.586H124.125L124.247 440.156C124.247 438.276 124.207 436.723 125.554 436.723C126.86 436.723 126.86 438.235 126.86 440.156L128.615 546.586Z" fill="black"/>
</g>
<path opacity="0.5" d="M118 547H120.27L121 440.416C121 438.523 121 437 120.351 437C119.662 437 119.703 438.523 119.703 440.416L118 547Z" fill="white"/>
<path d="M135 541H112V547H135V541Z" fill="#5C666E"/>
<path opacity="0.3" d="M118 541H115V547H118V541Z" fill="white"/>
<path opacity="0.3" d="M132 541H126V547H132V541Z" fill="black"/>
<path d="M161.499 474.363L164.165 474.989L170.203 477L171.702 476.866C171.702 476.866 172.91 475.525 172.993 473.782C173.118 472.039 171.577 471.413 171.577 471.413L162.249 469C162.249 469 161 470.028 161 471.056C161 472.039 161.499 474.363 161.499 474.363Z" fill="#9299A2"/>
<path opacity="0.3" d="M172.993 474C173.118 472.178 171.577 471.523 171.577 471.523L162.249 469C162.249 469 161 470.075 161 471.15C163.915 472.131 169.12 472.505 172.993 474Z" fill="white"/>
<path d="M162.945 472.154C162.731 473.266 161.875 474.072 161.072 473.995C160.269 473.918 159.841 472.959 160.055 471.847C160.269 470.734 161.125 469.928 161.928 470.005C162.731 470.082 163.159 471.041 162.945 472.154Z" fill="url(#paint2_linear)"/>
<path opacity="0.2" d="M161.513 474.358L164.253 474.985L170.459 477L172 476.865C172 476.865 171.144 474.179 161 471C161 472.03 161.513 474.358 161.513 474.358Z" fill="black"/>
<path d="M170 546.959L168.109 476.187C168.147 475.608 167.92 474.905 167.202 474.491C166.105 473.871 165.462 473.954 164.744 474.119C163.496 474.367 162.966 475.443 162.891 476.229L161 547H170V546.959Z" fill="#C9CCD4"/>
<path d="M166 476.889C169.042 476.889 169 477.852 169 479L168.916 476.074C168.916 474.926 169 474 166 474C163.042 474 163.085 474.926 163.085 476.074L163 479C163 477.815 163 476.889 166 476.889Z" fill="#AEB3BC"/>
<g opacity="0.5">
<path opacity="0.2" d="M169.029 546.586H166.09L166.171 476.695C166.171 475.469 166.171 474.448 167.029 474.448C167.886 474.448 167.886 475.469 167.886 476.695L169.029 546.586Z" fill="black"/>
</g>
<path opacity="0.5" d="M162 547H163.51L164 477.257C164 476.026 164 475 163.551 475C163.102 475 163.102 475.985 163.102 477.257L162 547Z" fill="white"/>
<path d="M177.7 546.567H164.798V549.43H177.7V546.567Z" fill="#5C666E"/>
<path opacity="0.3" d="M168.459 546.567H166.471V549.43H168.459V546.567Z" fill="white"/>
<path opacity="0.3" d="M175.992 546.567H172.958V549.43H175.992V546.567Z" fill="black"/>
<path d="M161 472.119L171.694 477.922L193.8 479L194 477.839L161.2 471L161 472.119Z" fill="#C9CCD4"/>
<path opacity="0.5" d="M161.22 471L161 472.141L193.78 479L194 477.859L161.22 471Z" fill="white"/>
<path d="M189 477.957L189.417 477L191 477.17L190.708 478L189 477.957Z" fill="#ED403B"/>
<path d="M193 478.889L193.133 477L194 477.445L193.889 479L193 478.889Z" fill="#ED403B"/>
<path d="M160.121 471L149.939 477.75L138 497.208L138.879 498L161 471.792L160.121 471Z" fill="#C9CCD4"/>
<path opacity="0.5" d="M160.159 471L138 497.229L138.841 498L161 471.772L160.159 471Z" fill="white"/>
<path d="M140.75 493L142 494L141.072 495L140 494.1L140.75 493Z" fill="#ED403B"/>
<path d="M138.917 496L140 496.846L138.917 498L138 497.269L138.917 496Z" fill="#ED403B"/>
<path d="M161 471.63L160.469 459.219L150.061 439L149 439.37L159.938 472L161 471.63Z" fill="#C9CCD4"/>
<path opacity="0.5" d="M150.082 439L149 439.368L159.918 472L161 471.632L150.082 439Z" fill="white"/>
<path d="M152 443.412L150.456 444L150 442.51L151.333 442L152 443.412Z" fill="#ED403B"/>
<path d="M151 440.522L149.533 441L149 439.391L150.156 439L151 440.522Z" fill="#ED403B"/>
<path d="M161.969 471.807C162.11 470.867 161.78 469.829 160.788 470.024C159.796 470.218 157.953 471.126 158.001 471.45C158.048 471.774 159.418 472.65 160.457 472.942C161.449 473.201 161.827 472.553 161.969 471.807Z" fill="#9299A2"/>
<path opacity="0.5" d="M160.651 470.003C160.809 469.974 161 470.15 161 470.326C161 470.502 159 471 159 471C159 471 159.571 470.531 159.794 470.414C160.047 470.238 160.492 470.033 160.651 470.003Z" fill="white"/>
<path d="M165 508H164V518H165V508Z" fill="#F0F1F7"/>
<path d="M167 508H165V518H167V508Z" fill="#B3BDCC"/>
<path d="M162 501H161V516H162V501Z" fill="#B3BDCC"/>
<path d="M161 501H159V516H161V501Z" fill="#F0F1F7"/>
<path d="M189 542.19L159 541V547H189V542.19Z" fill="#30404B"/>
<path d="M128 543L159 541.861V513L128 520.131V527.43L128.689 527.641V535.278L128 535.616V543Z" fill="#F0F1F7"/>
<path d="M159 513V541.861L191 543V535.616L190.415 535.32V527.641L191 527.515V520.173L159 513Z" fill="#CBD2DE"/>
<path d="M190 527.744L159 523V532.09L190 535V527.744Z" fill="#30404B"/>
<path d="M129 527.76V535L159 532.12V523L129 527.76Z" fill="#485967"/>
<path d="M130 542.19L159 541V547H130V542.19Z" fill="#485967"/>
<path d="M128.699 528L128 527.787L159.479 522L191 527.872L190.424 528L159.479 522.936L128.699 528Z" fill="#25343E"/>
<path d="M147 541.801L142 542V526L147 526.596V541.801Z" fill="#CBD2DE"/>
<path d="M157 523L147 524.58V542L157 541.668V523Z" fill="#304650"/>
<path d="M157 527L153 527.531V541L157 540.837V527Z" fill="#152830"/>
<path d="M157 523.357L154.378 523L140 525.25L141.885 525.464L147.21 526L157 524.75V523.357Z" fill="#25343E"/>
<path d="M148 528.587V541L152 540.844V528L148 528.587Z" fill="#152830"/>
<path d="M150.656 522L136 525.036L142.184 526L157 523.157L150.656 522Z" fill="#25343E"/>
<path d="M154 521.667L150 521V522.378L154 523V521.667Z" fill="#CBD2DE"/>
<path d="M136 523.808L150 521V522.319L136 525V523.808Z" fill="#F0F1F7"/>
<path d="M140.041 544L154 543.739V541L140 541.522L140.041 544Z" fill="#F0F1F7"/>
<path d="M153.8 541V544L151 543.952V547H157V544.047V541.095L153.8 541Z" fill="#CBD2DE"/>
<path d="M147.327 547.44L159.114 547.195V549.43H147.327V547.44Z" fill="#F0F1F7"/>
<path d="M154 535.5C154 535.767 153.767 536 153.5 536C153.234 536 153 535.767 153 535.5C153 535.233 153.234 535 153.5 535C153.8 535.033 154 535.233 154 535.5Z" fill="#CBD2DE"/>
<path d="M152 535.5C152 535.767 151.767 536 151.5 536C151.233 536 151 535.767 151 535.5C151 535.233 151.233 535 151.5 535C151.767 535 152 535.233 152 535.5Z" fill="#CBD2DE"/>
<path d="M183.113 534.451L189 535V527.268L183.154 526.296V534.451H183.113ZM173.915 533.521L181.11 534.24V526L173.915 524.817V533.521ZM163 532.422L171.544 533.268V524.394L163 523V532.422Z" fill="url(#paint3_linear)"/>
<path opacity="0.2" d="M190 519H189V528H190V519Z" fill="#113442"/>
<path opacity="0.2" d="M173 516H172V525H173V516Z" fill="#113442"/>
<path opacity="0.2" d="M162 522H161V533H162V522Z" fill="#113442"/>
<path opacity="0.2" d="M183 525H182V535H183V525Z" fill="#113442"/>
<path opacity="0.2" d="M182 525H181V535H182V525Z" fill="#F1F9FB"/>
<path d="M130 527.479V535L139 534.096V526L130 527.479Z" fill="url(#paint4_linear)"/>
<path opacity="0.1" d="M191 520.918V543L172 542.306L182.247 519L191 520.918Z" fill="#404041"/>
<path opacity="0.2" d="M128 520.344L144 517L128 543V520.344Z" fill="white"/>
<path opacity="0.1" d="M142 526L147 526.579V535L142 526Z" fill="#404041"/>
<path d="M295.932 590.487C296.268 591.756 295.313 593 294 593H99.9992C98.687 593 97.7311 591.756 98.0681 590.487L109.227 548.486C109.459 547.61 110.252 547 111.158 547H282.843C283.749 547 284.542 547.61 284.772 548.486L295.932 590.487Z" fill="#404041"/>
<path d="M265.409 530.759H261.364V546.784H265.409V530.759Z" fill="#808080"/>
<path d="M265.393 529.93H263.049V546.784H265.393V529.93Z" fill="#4B4848"/>
<path d="M262.11 529.93H261.641V546.784H262.11V529.93Z" fill="#E4E4E4"/>
<path d="M283.713 528.614H242.764L249.612 501.432H276.897L283.713 528.614Z" fill="#0071BC"/>
<path d="M248.971 502.587H277.294L277.358 502.983H248.871L248.971 502.587Z" fill="#B3B3B3"/>
<path d="M248.971 502.307H277.294L277.358 502.703H248.871L248.971 502.307Z" fill="#CCCCCC"/>
<path d="M248.688 504.683H277.641L277.705 505.079H248.608L248.688 504.683Z" fill="#B3B3B3"/>
<path d="M248.688 504.419H277.641L277.705 504.815H248.608L248.688 504.419Z" fill="#CCCCCC"/>
<path d="M247.583 507.687H278.73L278.796 508.215H247.47L247.583 507.687Z" fill="#B3B3B3"/>
<path d="M247.583 507.324H278.73L278.796 507.852H247.47L247.583 507.324Z" fill="#E6E6E6"/>
<path d="M245.387 517.11H280.842L280.909 517.771H245.273L245.387 517.11Z" fill="#B3B3B3"/>
<path d="M245.387 516.665H280.842L280.909 517.325H245.273L245.387 516.665Z" fill="#E6E6E6"/>
<path d="M247.005 510.344H279.29L279.357 510.872H246.905L247.005 510.344Z" fill="#B3B3B3"/>
<path d="M247.005 509.981H279.29L279.357 510.509H246.905L247.005 509.981Z" fill="#CCCCCC"/>
<path d="M246.081 513.496H280.412L280.495 514.024H245.965L246.081 513.496Z" fill="#B3B3B3"/>
<path d="M246.081 513.133H280.412L280.495 513.661H245.965L246.081 513.133Z" fill="#CCCCCC"/>
<path d="M244.232 520.345H282.147L282.227 520.873H244.102L244.232 520.345Z" fill="#B3B3B3"/>
<path d="M244.232 519.982H282.147L282.227 520.51H244.102L244.232 519.982Z" fill="#CCCCCC"/>
<path d="M243.161 524.29H283.068L283.152 524.818H243.027L243.161 524.29Z" fill="#B3B3B3"/>
<path d="M243.161 523.927H283.068L283.152 524.455H243.027L243.161 523.927Z" fill="#CCCCCC"/>
<path d="M277.822 500.904H248.905L241.015 529.439H285.085L277.822 500.904ZM249.613 501.432H276.898L283.696 528.614H242.764L249.613 501.432Z" fill="#E6E6E6"/>
<path d="M258.163 500.97L254.879 528.944L255.82 529.092L258.808 501.102L258.163 500.97Z" fill="#E6E6E6"/>
<path d="M267.292 500.97L270.212 528.795L271.153 528.927L267.936 501.102L267.292 500.97Z" fill="#E6E6E6"/>
<path d="M277.441 529.439H248.524H241.015C241.015 529.439 241.395 531.634 242.897 531.634C243.258 531.634 245.437 531.634 248.524 531.634C258.343 531.634 277.441 531.634 277.441 531.634C280.545 531.634 282.725 531.634 283.072 531.634C284.574 531.634 284.951 529.439 284.951 529.439H277.441Z" fill="#F2F2F2"/>
<path d="M44.9015 512.402C44.5593 512.459 44.2457 512.572 44.0747 512.742C43.761 513.026 43.761 513.991 44.0747 514.275C44.2457 514.445 44.5879 514.559 44.9585 514.616C44.5879 514.701 44.2457 514.814 44.0747 514.956C43.761 515.212 43.761 516.205 44.0747 516.489C44.2457 516.659 44.5879 516.744 44.9585 516.83C44.5879 516.886 44.2457 517 44.0747 517.17C43.761 517.426 43.761 518.419 44.0747 518.703C44.3027 518.902 44.7589 519.044 45.2436 519.1V519.81H46.2697V519.129C46.8114 519.072 47.2675 518.958 47.4671 518.731C47.7237 518.419 47.7237 517.511 47.4671 517.199C47.3246 517.028 47.0395 516.915 46.6973 516.858C47.0395 516.801 47.3246 516.688 47.4671 516.518C47.7237 516.205 47.7237 515.297 47.4671 514.985C47.3246 514.814 47.0395 514.701 46.6973 514.644C47.0395 514.587 47.3246 514.474 47.4671 514.304C47.7237 514.02 47.7237 513.083 47.4671 512.771C47.2961 512.6 46.9824 512.487 46.6118 512.402V511.352H48.2936V511.692H52.5982L52.5696 557.19L40.7395 602.715H42.5069L42.849 601.41L53.5675 591.873L62.8323 602.119V602.687H64.5426V602.119L73.8074 591.873L84.5262 601.381L84.8681 602.687H86.6357L74.7768 557.133V511.664H79.0528V511.323H80.7346V512.402C80.3925 512.459 80.0789 512.572 79.9081 512.742C79.5945 513.026 79.5945 513.991 79.9081 514.275C80.0789 514.445 80.421 514.559 80.7916 514.616C80.421 514.701 80.0789 514.814 79.9081 514.956C79.5945 515.212 79.5945 516.205 79.9081 516.489C80.0789 516.659 80.421 516.744 80.7916 516.83C80.421 516.886 80.0789 517 79.9081 517.17C79.5945 517.426 79.5945 518.419 79.9081 518.703C80.1359 518.902 80.5921 519.044 81.0767 519.1V519.81H82.1031V519.129C82.6445 519.072 83.1007 518.958 83.3003 518.731C83.5569 518.419 83.5569 517.511 83.3003 517.199C83.1577 517.028 82.8726 516.915 82.5305 516.858C82.8726 516.801 83.1577 516.688 83.3003 516.518C83.5569 516.205 83.5569 515.297 83.3003 514.985C83.1577 514.814 82.8726 514.701 82.5305 514.644C82.8726 514.587 83.1577 514.474 83.3003 514.304C83.5569 514.02 83.5569 513.083 83.3003 512.771C83.1292 512.6 82.8156 512.487 82.4449 512.402V511.352H84.1271V510.33H82.4449V510.074H82.1031V509.507H81.0767V510.074H80.7346V510.33H79.0528V509.989H74.7768V499.8H79.0528V499.459H80.7346V500.538C80.3925 500.623 80.0789 500.708 79.9081 500.879C79.5945 501.162 79.5945 502.127 79.9081 502.411C80.0789 502.582 80.421 502.695 80.7916 502.752C80.421 502.809 80.0789 502.922 79.9081 503.093C79.5945 503.376 79.5945 504.341 79.9081 504.625C80.0789 504.795 80.421 504.88 80.7916 504.966C80.421 505.022 80.0789 505.136 79.9081 505.306C79.5945 505.562 79.5945 506.555 79.9081 506.839C80.1359 507.038 80.5921 507.179 81.0767 507.236V507.946H82.1031V507.236C82.6445 507.179 83.1007 507.066 83.3003 506.839C83.5569 506.527 83.5569 505.619 83.3003 505.306C83.1577 505.136 82.8726 505.022 82.5305 504.966C82.8726 504.88 83.1577 504.795 83.3003 504.625C83.5569 504.313 83.5569 503.405 83.3003 503.093C83.1577 502.922 82.8726 502.809 82.5305 502.752C82.8726 502.695 83.1577 502.582 83.3003 502.411C83.5569 502.127 83.5569 501.191 83.3003 500.879C83.1292 500.708 82.8156 500.595 82.4449 500.538V499.488H84.1271V498.466H82.4449V498.182H82.1031V497.615H81.0767V498.182H80.7346V498.438H79.0528V498.097H74.7768V494.436L66.0252 466.394H64.5426V465.542H62.8323V466.394H61.35L52.6267 494.18V498.097H48.3222V498.438H46.6403V498.182H46.2982V497.615H45.2721V498.182H44.93V498.438H43.2193V499.459H44.9015V500.538C44.5593 500.623 44.2457 500.708 44.0747 500.879C43.761 501.162 43.761 502.127 44.0747 502.411C44.2457 502.582 44.5879 502.695 44.9585 502.752C44.5879 502.809 44.2457 502.922 44.0747 503.093C43.761 503.376 43.761 504.341 44.0747 504.625C44.2457 504.795 44.5879 504.88 44.9585 504.966C44.5879 505.022 44.2457 505.136 44.0747 505.306C43.761 505.562 43.761 506.555 44.0747 506.839C44.3027 507.038 44.7589 507.179 45.2436 507.236V507.946H46.2697V507.236C46.8114 507.179 47.2675 507.066 47.4671 506.839C47.7237 506.527 47.7237 505.619 47.4671 505.306C47.3246 505.136 47.0395 505.022 46.6973 504.966C47.0395 504.88 47.3246 504.795 47.4671 504.625C47.7237 504.313 47.7237 503.405 47.4671 503.093C47.3246 502.922 47.0395 502.809 46.6973 502.752C47.0395 502.695 47.3246 502.582 47.4671 502.411C47.7237 502.127 47.7237 501.191 47.4671 500.879C47.2961 500.708 46.9824 500.595 46.6118 500.538V499.488H48.2936V499.828H52.5982V510.018H48.3222V510.358H46.6403V510.103H46.2982V509.535H45.2721V510.103H44.93V510.358H43.2193V511.38H44.9015V512.402ZM84.07 599.622L74.4917 591.135L80.1929 584.806L84.07 599.622ZM79.5089 582.081L71.2988 574.815L76.202 569.394L79.5089 582.081ZM75.6318 567.18L70.2442 562.384L73.4653 558.836L75.6318 567.18ZM72.8383 546.234H64.7707L68.7901 542.232L72.8383 546.234ZM69.5314 541.494L73.0664 537.975V545.014L69.5314 541.494ZM73.0664 548.647V555.714L69.5314 552.166L73.0664 548.647ZM72.3537 547.937L68.8186 551.456L65.2554 547.937H72.3537ZM72.3537 556.423H65.2554L68.7901 552.904L72.3537 556.423ZM72.7243 558.126L69.4744 561.731L65.4265 558.126H72.7243ZM73.0664 534.881L69.5314 531.362L73.0664 527.842V534.881ZM69.731 509.961L73.0664 506.64V509.961H69.731ZM73.0664 511.664V513.708L71.0137 511.664H73.0664ZM72.9809 515.07H64.6282L68.0491 511.664H69.5884L72.9809 515.07ZM72.5532 516.773L68.7901 520.519L65.0273 516.773H72.5532ZM73.0664 517.71V524.748L69.5314 521.229L73.0664 517.71ZM73.0664 503.688L69.5314 500.169L69.9306 499.772H73.0947V503.688H73.0664ZM73.0664 498.069H71.6124L73.0664 496.621V498.069ZM70.1872 498.069H67.4504L64.6282 495.259H73.0379L70.1872 498.069ZM65.7686 493.556L68.3342 491.001L71.4698 493.556H65.7686ZM72.6673 493.244L69.0467 490.292L71.0992 488.248L72.6673 493.244ZM70.2442 485.524L67.536 483.111L68.9612 481.522L70.2442 485.524ZM66.9657 475.107L67.6785 477.406L66.5666 475.93L66.9657 475.107ZM64.5426 468.097H64.7707L66.5096 473.66L65.8826 474.965L64.5141 473.121V468.097H64.5426ZM64.5426 474.852L65.3979 476.016L64.5426 477.804V474.852ZM64.5426 480.188L66.0822 476.952L68.6191 480.386L66.7947 482.43L64.5426 480.386V480.188ZM64.5426 481.749L66.1107 483.168L64.5426 484.899V481.749ZM64.5426 486.432L66.8802 483.849L70.6718 487.255L68.2772 489.639L64.5712 486.631V486.432H64.5426ZM64.5426 487.965L67.5074 490.377L64.5426 493.357V487.965ZM64.5426 496.65L65.9967 498.097H64.5426V496.65ZM64.5426 499.772H67.6785L68.0776 500.169L64.5426 503.688V499.772ZM64.5426 505.136L68.8186 500.879L73.0947 505.136V505.221L68.8186 509.479L64.5426 505.221V505.136ZM64.5426 506.669L67.8781 509.989H64.5426V506.669ZM64.5426 511.664H66.5951L64.5426 513.708V511.664ZM64.5426 517.71L68.0776 521.229L64.5426 524.748V517.71ZM64.5426 526.196L68.8186 521.939L73.0947 526.196V526.394L68.8186 530.652L64.5426 526.394V526.196ZM64.5426 527.842L68.0776 531.362L64.5426 534.881V527.842ZM64.5426 536.328L68.8186 532.071L73.0947 536.328V536.527L68.8186 540.785L64.5426 536.527V536.328ZM64.5426 537.975L68.0776 541.494L64.5426 545.014V537.975ZM64.5426 548.647L68.0776 552.166L64.5426 555.685V548.647ZM64.5426 558.694L68.7901 562.469L64.5426 567.152V558.694ZM64.5426 568.685L69.5599 563.15L75.6033 568.514L70.5293 574.106L64.5426 568.798V568.685ZM64.5426 570.16L69.845 574.872L64.5426 580.747V570.16ZM64.5426 582.28L70.6148 575.553L79.8226 583.699L73.7504 590.426L64.5426 582.28ZM64.5426 583.671L73.0379 591.22L64.5426 600.615V583.671ZM51.1729 569.394L56.0762 574.815L47.866 582.081L51.1729 569.394ZM43.3049 599.622L47.182 584.806L52.9118 591.135L43.3049 599.622ZM62.8323 600.615L54.3373 591.22L62.8323 583.671V600.615ZM62.8323 582.28L53.6531 590.426L47.5812 583.699L56.7604 575.553L62.8323 582.28ZM62.8323 580.747L57.5299 574.872L62.8323 570.16V580.747ZM62.8323 568.798L56.8459 574.106L51.7716 568.514L57.815 563.15L62.8323 568.685V568.798ZM62.1195 547.937L58.5848 551.456L55.0498 547.937H62.1195ZM54.5369 546.234L58.5563 542.232L62.5757 546.234H54.5369ZM62.1195 556.423H55.0213L58.5563 552.904L62.1195 556.423ZM61.9485 558.126L57.9005 561.731L54.6509 558.126H61.9485ZM62.8323 567.18L58.5848 562.497L62.8323 558.722V567.18ZM62.8323 555.685L59.2973 552.166L62.8323 548.647V555.685ZM62.8323 545.014L59.2973 541.494L62.8323 537.975V545.014ZM62.8323 534.881L59.2973 531.362L62.8323 527.842V534.881ZM62.8323 524.748L59.2973 521.229L62.8323 517.71V524.748ZM62.3191 516.773L58.5563 520.519L54.7932 516.773H62.3191ZM54.3943 515.07L57.815 511.664H59.3543L62.7753 515.07H54.3943ZM62.8323 513.708L60.7798 511.664H62.8323V513.708ZM62.8323 509.961H59.4968L62.8323 506.64V509.961ZM62.8323 503.688L59.2973 500.169L59.6964 499.772H62.8608V503.688H62.8323ZM62.8323 498.069H61.3785L62.8323 496.621V498.069ZM62.8323 493.357L59.8675 490.377L62.8323 487.965V493.357ZM61.6063 493.556H55.9051L59.041 491.001L61.6063 493.556ZM62.8323 484.899L61.2645 483.168L62.8323 481.749V484.899ZM62.8323 477.804L61.977 475.987L62.8323 474.823V477.804ZM62.6042 468.097H62.8323V473.121L61.4641 474.965L60.8368 473.66L62.6042 468.097ZM60.4092 475.107L60.7798 475.902L59.6679 477.378L60.4092 475.107ZM61.293 476.952L62.8323 480.188V480.386L60.5802 482.43L58.7559 480.386L61.293 476.952ZM58.3852 481.522L59.8105 483.111L57.1308 485.524L58.3852 481.522ZM60.4947 483.849L62.8323 486.432V486.659L59.1265 489.667L56.7319 487.283L60.4947 483.849ZM56.2757 488.248L58.3282 490.292L54.7076 493.215L56.2757 488.248ZM62.7753 495.259L59.953 498.069H57.2163L54.3943 495.259H62.7753ZM54.3088 496.65L55.7625 498.097H54.3088V496.65ZM54.3088 499.772H57.4729L57.8435 500.169L54.3088 503.688V499.772ZM54.3088 505.136L58.5848 500.879L62.8608 505.136V505.221L58.5848 509.479L54.3088 505.221V505.136ZM54.3088 506.669L57.6439 509.989H54.3088V506.669ZM54.3088 511.664H56.3613L54.3088 513.708V511.664ZM54.3088 517.71L57.8435 521.229L54.3088 524.748V517.71ZM54.3088 526.196L58.5848 521.939L62.8608 526.196V526.394L58.5848 530.652L54.3088 526.394V526.196ZM54.3088 527.842L57.8435 531.362L54.3088 534.881V527.842ZM54.3088 536.328L58.5848 532.071L62.8608 536.328V536.527L58.5848 540.785L54.3088 536.527V536.328ZM54.3088 537.975L57.8435 541.494L54.3088 545.014V537.975ZM54.3088 548.647L57.8435 552.166L54.3088 555.685V548.647ZM53.9096 558.836L57.1308 562.384L51.7431 567.152L53.9096 558.836Z" fill="white"/>
<path d="M2.01085 540.176C1.84549 540.203 1.6941 540.258 1.61142 540.34C1.46003 540.476 1.46003 540.94 1.61142 541.077C1.6941 541.159 1.85945 541.214 2.0385 541.241C1.85945 541.282 1.6941 541.337 1.61142 541.405C1.46003 541.528 1.46003 542.006 1.61142 542.142C1.6941 542.224 1.85945 542.265 2.0385 542.306C1.85945 542.334 1.6941 542.388 1.61142 542.47C1.46003 542.593 1.46003 543.071 1.61142 543.208C1.72175 543.303 1.94185 543.372 2.17621 543.399V543.741H2.67201V543.413C2.93373 543.385 3.15412 543.331 3.25048 543.221C3.3745 543.071 3.3745 542.634 3.25048 542.484C3.18149 542.402 3.04378 542.348 2.87842 542.32C3.04378 542.293 3.18149 542.238 3.25048 542.156C3.3745 542.006 3.3745 541.569 3.25048 541.419C3.18149 541.337 3.04378 541.282 2.87842 541.255C3.04378 541.227 3.18149 541.173 3.25048 541.091C3.3745 540.954 3.3745 540.503 3.25048 540.353C3.1678 540.271 3.01641 540.217 2.83736 540.176V539.67H3.64992V539.834H5.72947L5.71579 561.728L0 583.635H0.853888L1.01925 583.007L6.1979 578.418L10.674 583.348V583.621H11.5006V583.348L15.9767 578.418L21.1554 582.993L21.3207 583.621H22.1746L16.4449 561.7V539.821H18.511V539.657H19.3236V540.176C19.1582 540.203 19.0068 540.258 18.9241 540.34C18.7727 540.476 18.7727 540.94 18.9241 541.077C19.0068 541.159 19.1722 541.214 19.3512 541.241C19.1722 541.282 19.0068 541.337 18.9241 541.405C18.7727 541.528 18.7727 542.006 18.9241 542.142C19.0068 542.224 19.1722 542.265 19.3512 542.306C19.1722 542.334 19.0068 542.388 18.9241 542.47C18.7727 542.593 18.7727 543.071 18.9241 543.208C19.0342 543.303 19.2546 543.372 19.4889 543.399V543.741H19.9847V543.413C20.2465 543.385 20.4668 543.331 20.5632 543.221C20.6872 543.071 20.6872 542.634 20.5632 542.484C20.4942 542.402 20.3565 542.348 20.1911 542.32C20.3565 542.293 20.4942 542.238 20.5632 542.156C20.6872 542.006 20.6872 541.569 20.5632 541.419C20.4942 541.337 20.3565 541.282 20.1911 541.255C20.3565 541.227 20.4942 541.173 20.5632 541.091C20.6872 540.954 20.6872 540.503 20.5632 540.353C20.4805 540.271 20.3291 540.217 20.1498 540.176V539.67H20.9626V539.179H20.1498V539.056H19.9847V538.783H19.4889V539.056H19.3236V539.179H18.511V539.015H16.4449V534.112H18.511V533.948H19.3236V534.467C19.1582 534.508 19.0068 534.549 18.9241 534.631C18.7727 534.767 18.7727 535.232 18.9241 535.368C19.0068 535.45 19.1722 535.505 19.3512 535.532C19.1722 535.559 19.0068 535.614 18.9241 535.696C18.7727 535.833 18.7727 536.297 18.9241 536.434C19.0068 536.515 19.1722 536.556 19.3512 536.597C19.1722 536.625 19.0068 536.679 18.9241 536.761C18.7727 536.884 18.7727 537.362 18.9241 537.499C19.0342 537.595 19.2546 537.663 19.4889 537.69V538.032H19.9847V537.69C20.2465 537.663 20.4668 537.608 20.5632 537.499C20.6872 537.349 20.6872 536.912 20.5632 536.761C20.4942 536.679 20.3565 536.625 20.1911 536.597C20.3565 536.556 20.4942 536.515 20.5632 536.434C20.6872 536.283 20.6872 535.846 20.5632 535.696C20.4942 535.614 20.3565 535.559 20.1911 535.532C20.3565 535.505 20.4942 535.45 20.5632 535.368C20.6872 535.232 20.6872 534.781 20.5632 534.631C20.4805 534.549 20.3291 534.494 20.1498 534.467V533.961H20.9626V533.47H20.1498V533.333H19.9847V533.06H19.4889V533.333H19.3236V533.456H18.511V533.292H16.4449V531.53L12.2168 518.037H11.5006V517.627H10.674V518.037H9.95786L5.74344 531.407V533.292H3.6636V533.456H2.85105V533.333H2.68569V533.06H2.18989V533.333H2.02453V533.456H1.1983V533.948H2.01085V534.467C1.84549 534.508 1.6941 534.549 1.61142 534.631C1.46003 534.767 1.46003 535.232 1.61142 535.368C1.6941 535.45 1.85945 535.505 2.0385 535.532C1.85945 535.559 1.6941 535.614 1.61142 535.696C1.46003 535.833 1.46003 536.297 1.61142 536.434C1.6941 536.515 1.85945 536.556 2.0385 536.597C1.85945 536.625 1.6941 536.679 1.61142 536.761C1.46003 536.884 1.46003 537.362 1.61142 537.499C1.72175 537.595 1.94185 537.663 2.17621 537.69V538.032H2.67201V537.69C2.93373 537.663 3.15412 537.608 3.25048 537.499C3.3745 537.349 3.3745 536.912 3.25048 536.761C3.18149 536.679 3.04378 536.625 2.87842 536.597C3.04378 536.556 3.18149 536.515 3.25048 536.434C3.3745 536.283 3.3745 535.846 3.25048 535.696C3.18149 535.614 3.04378 535.559 2.87842 535.532C3.04378 535.505 3.18149 535.45 3.25048 535.368C3.3745 535.232 3.3745 534.781 3.25048 534.631C3.1678 534.549 3.01641 534.494 2.83736 534.467V533.961H3.64992V534.125H5.72947V539.029H3.6636V539.193H2.85105V539.069H2.68569V538.796H2.18989V539.069H2.02453V539.193H1.1983V539.684H2.01085V540.176ZM20.935 582.146L16.3071 578.062L19.0618 575.017L20.935 582.146ZM18.7314 573.706L14.7647 570.209L17.1337 567.601L18.7314 573.706ZM16.8583 566.535L14.255 564.227L15.8114 562.52L16.8583 566.535ZM15.5083 556.456H11.6106L13.5528 554.53L15.5083 556.456ZM13.9108 554.175L15.6186 552.482V555.869L13.9108 554.175ZM15.6186 557.617V561.018L13.9108 559.31L15.6186 557.617ZM15.2742 557.275L13.5664 558.969L11.8447 557.275H15.2742ZM15.2742 561.359H11.8447L13.5528 559.665L15.2742 561.359ZM15.4533 562.179L13.8832 563.913L11.9274 562.179H15.4533ZM15.6186 550.993L13.9108 549.299L15.6186 547.606V550.993ZM14.0072 539.001L15.6186 537.403V539.001H14.0072ZM15.6186 539.821V540.804L14.627 539.821H15.6186ZM15.5773 541.46H11.5419L13.1947 539.821H13.9382L15.5773 541.46ZM15.3706 542.279L13.5528 544.082L11.7346 542.279H15.3706ZM15.6186 542.73V546.117L13.9108 544.423L15.6186 542.73ZM15.6186 535.983L13.9108 534.289L14.1036 534.098H15.6323V535.983H15.6186ZM15.6186 533.279H14.9161L15.6186 532.582V533.279ZM14.2276 533.279H12.9053L11.5419 531.926H15.6049L14.2276 533.279ZM12.0927 531.107L13.3324 529.878L14.8474 531.107H12.0927ZM15.4259 530.957L13.6765 529.536L14.6684 528.553L15.4259 530.957ZM14.255 527.242L12.9466 526.081L13.6354 525.316L14.255 527.242ZM12.6712 522.229L13.0156 523.336L12.4785 522.626L12.6712 522.229ZM11.5006 518.856H11.6106L12.4508 521.533L12.1478 522.161L11.4866 521.273V518.856H11.5006ZM11.5006 522.106L11.9137 522.666L11.5006 523.527V522.106ZM11.5006 524.674L12.2441 523.117L13.4701 524.77L12.5885 525.753L11.5006 524.77V524.674ZM11.5006 525.425L12.2581 526.108L11.5006 526.941V525.425ZM11.5006 527.679L12.6299 526.436L14.4617 528.075L13.3047 529.222L11.5142 527.775V527.679H11.5006ZM11.5006 528.416L12.9329 529.577L11.5006 531.011V528.416ZM11.5006 532.596L12.2028 533.292H11.5006V532.596ZM11.5006 534.098H13.0156L13.2083 534.289L11.5006 535.983V534.098ZM11.5006 536.679L13.5664 534.631L15.6323 536.679V536.72L13.5664 538.769L11.5006 536.72V536.679ZM11.5006 537.417L13.112 539.015H11.5006V537.417ZM11.5006 539.821H12.4922L11.5006 540.804V539.821ZM11.5006 542.73L13.2083 544.423L11.5006 546.117V542.73ZM11.5006 546.813L13.5664 544.765L15.6323 546.813V546.909L13.5664 548.958L11.5006 546.909V546.813ZM11.5006 547.606L13.2083 549.299L11.5006 550.993V547.606ZM11.5006 551.689L13.5664 549.64L15.6323 551.689V551.785L13.5664 553.834L11.5006 551.785V551.689ZM11.5006 552.482L13.2083 554.175L11.5006 555.869V552.482ZM11.5006 557.617L13.2083 559.31L11.5006 561.004V557.617ZM11.5006 562.452L13.5528 564.268L11.5006 566.522V562.452ZM11.5006 567.259L13.9245 564.596L16.8443 567.177L14.3927 569.868L11.5006 567.314V567.259ZM11.5006 567.969L14.0622 570.236L11.5006 573.064V567.969ZM11.5006 573.801L14.434 570.564L18.8828 574.484L15.9491 577.721L11.5006 573.801ZM11.5006 574.471L15.6049 578.103L11.5006 582.624V574.471ZM5.04094 567.601L7.40988 570.209L3.44321 573.706L5.04094 567.601ZM1.23963 582.146L3.11278 575.017L5.88114 578.062L1.23963 582.146ZM10.674 582.624L6.56967 578.103L10.674 574.471V582.624ZM10.674 573.801L6.23924 577.721L3.30551 574.484L7.74031 570.564L10.674 573.801ZM10.674 573.064L8.11238 570.236L10.674 567.969V573.064ZM10.674 567.314L7.78166 569.868L5.33004 567.177L8.25009 564.596L10.674 567.259V567.314ZM10.3296 557.275L8.62186 558.969L6.91408 557.275H10.3296ZM6.66604 556.456L8.60817 554.53L10.55 556.456H6.66604ZM10.3296 561.359H6.9004L8.60817 559.665L10.3296 561.359ZM10.2472 562.179L8.29142 563.913L6.72135 562.179H10.2472ZM10.674 566.535L8.62186 564.282L10.674 562.465V566.535ZM10.674 561.004L8.96627 559.31L10.674 557.617V561.004ZM10.674 555.869L8.96627 554.175L10.674 552.482V555.869ZM10.674 550.993L8.96627 549.299L10.674 547.606V550.993ZM10.674 546.117L8.96627 544.423L10.674 542.73V546.117ZM10.4263 542.279L8.60817 544.082L6.79006 542.279H10.4263ZM6.59733 541.46L8.25009 539.821H8.99392L10.6467 541.46H6.59733ZM10.674 540.804L9.68245 539.821H10.674V540.804ZM10.674 539.001H9.06263L10.674 537.403V539.001ZM10.674 535.983L8.96627 534.289L9.159 534.098H10.6877V535.983H10.674ZM10.674 533.279H9.97155L10.674 532.582V533.279ZM10.674 531.011L9.24168 529.577L10.674 528.416V531.011ZM10.0819 531.107H7.3272L8.84225 529.878L10.0819 531.107ZM10.674 526.941L9.91653 526.108L10.674 525.425V526.941ZM10.674 523.527L10.2609 522.653L10.674 522.093V523.527ZM10.564 518.856H10.674V521.273L10.0129 522.161L9.71011 521.533L10.564 518.856ZM9.50341 522.229L9.68245 522.612L9.14531 523.322L9.50341 522.229ZM9.9302 523.117L10.674 524.674V524.77L9.58608 525.753L8.70454 524.77L9.9302 523.117ZM8.5255 525.316L9.21402 526.081L7.91936 527.242L8.5255 525.316ZM9.54474 526.436L10.674 527.679V527.788L8.88359 529.236L7.72663 528.089L9.54474 526.436ZM7.50625 528.553L8.49784 529.536L6.74872 530.943L7.50625 528.553ZM10.6467 531.926L9.28302 533.279H7.9607L6.59733 531.926H10.6467ZM6.55599 532.596L7.25849 533.292H6.55599V532.596ZM6.55599 534.098H8.08472L8.26377 534.289L6.55599 535.983V534.098ZM6.55599 536.679L8.62186 534.631L10.6877 536.679V536.72L8.62186 538.769L6.55599 536.72V536.679ZM6.55599 537.417L8.1674 539.015H6.55599V537.417ZM6.55599 539.821H7.54758L6.55599 540.804V539.821ZM6.55599 542.73L8.26377 544.423L6.55599 546.117V542.73ZM6.55599 546.813L8.62186 544.765L10.6877 546.813V546.909L8.62186 548.958L6.55599 546.909V546.813ZM6.55599 547.606L8.26377 549.299L6.55599 550.993V547.606ZM6.55599 551.689L8.62186 549.64L10.6877 551.689V551.785L8.62186 553.834L6.55599 551.785V551.689ZM6.55599 552.482L8.26377 554.175L6.55599 555.869V552.482ZM6.55599 557.617L8.26377 559.31L6.55599 561.004V557.617ZM6.36326 562.52L7.91936 564.227L5.31635 566.522L6.36326 562.52Z" fill="white"/>
<path d="M45.6383 499.578C34.8947 511.61 11.1902 535.263 2.32031 533.613" stroke="white"/>
<path d="M45.8961 509.891C35.1527 521.924 11.1902 541.194 2.32031 539.543" stroke="white"/>
<path d="M81.7364 510.923C70.9931 522.955 28.9817 541.452 20.1118 539.801" stroke="white"/>
<path d="M81.4788 498.804C70.7352 510.837 28.4661 535.521 19.5962 533.871" stroke="white"/>
<path d="M301.715 512.402C301.372 512.459 301.059 512.572 300.888 512.742C300.574 513.026 300.574 513.991 300.888 514.275C301.059 514.445 301.401 514.559 301.772 514.616C301.401 514.701 301.059 514.814 300.888 514.956C300.574 515.212 300.574 516.205 300.888 516.489C301.059 516.659 301.401 516.744 301.772 516.83C301.401 516.886 301.059 517 300.888 517.17C300.574 517.426 300.574 518.419 300.888 518.703C301.116 518.902 301.572 519.044 302.057 519.1V519.81H303.083V519.129C303.625 519.072 304.081 518.958 304.281 518.731C304.537 518.419 304.537 517.511 304.281 517.199C304.138 517.028 303.853 516.915 303.511 516.858C303.853 516.801 304.138 516.688 304.281 516.518C304.537 516.205 304.537 515.297 304.281 514.985C304.138 514.814 303.853 514.701 303.511 514.644C303.853 514.587 304.138 514.474 304.281 514.304C304.537 514.02 304.537 513.083 304.281 512.771C304.109 512.6 303.796 512.487 303.425 512.402V511.352H305.107V511.692H309.412L309.384 557.19L297.552 602.715H299.32L299.662 601.41L310.379 591.873L319.645 602.119V602.687H321.355V602.119L330.621 591.873L341.338 601.381L341.681 602.687H343.448L331.591 557.133V511.664H335.864V511.323H337.547V512.402C337.204 512.459 336.891 512.572 336.72 512.742C336.406 513.026 336.406 513.991 336.72 514.275C336.891 514.445 337.233 514.559 337.604 514.616C337.233 514.701 336.891 514.814 336.72 514.956C336.406 515.212 336.406 516.205 336.72 516.489C336.891 516.659 337.233 516.744 337.604 516.83C337.233 516.886 336.891 517 336.72 517.17C336.406 517.426 336.406 518.419 336.72 518.703C336.948 518.902 337.404 519.044 337.889 519.1V519.81H338.915V519.129C339.457 519.072 339.913 518.958 340.112 518.731C340.369 518.419 340.369 517.511 340.112 517.199C339.97 517.028 339.685 516.915 339.343 516.858C339.685 516.801 339.97 516.688 340.112 516.518C340.369 516.205 340.369 515.297 340.112 514.985C339.97 514.814 339.685 514.701 339.343 514.644C339.685 514.587 339.97 514.474 340.112 514.304C340.369 514.02 340.369 513.083 340.112 512.771C339.941 512.6 339.628 512.487 339.257 512.402V511.352H340.939V510.33H339.257V510.074H338.915V509.507H337.889V510.074H337.547V510.33H335.864V509.989H331.591V499.8H335.864V499.459H337.547V500.538C337.204 500.623 336.891 500.708 336.72 500.879C336.406 501.162 336.406 502.127 336.72 502.411C336.891 502.582 337.233 502.695 337.604 502.752C337.233 502.809 336.891 502.922 336.72 503.093C336.406 503.376 336.406 504.341 336.72 504.625C336.891 504.795 337.233 504.88 337.604 504.966C337.233 505.022 336.891 505.136 336.72 505.306C336.406 505.562 336.406 506.555 336.72 506.839C336.948 507.038 337.404 507.179 337.889 507.236V507.946H338.915V507.236C339.457 507.179 339.913 507.066 340.112 506.839C340.369 506.527 340.369 505.619 340.112 505.306C339.97 505.136 339.685 505.022 339.343 504.966C339.685 504.88 339.97 504.795 340.112 504.625C340.369 504.313 340.369 503.405 340.112 503.093C339.97 502.922 339.685 502.809 339.343 502.752C339.685 502.695 339.97 502.582 340.112 502.411C340.369 502.127 340.369 501.191 340.112 500.879C339.941 500.708 339.628 500.595 339.257 500.538V499.488H340.939V498.466H339.257V498.182H338.915V497.615H337.889V498.182H337.547V498.438H335.864V498.097H331.591V494.436L322.838 466.394H321.355V465.542H319.645V466.394H318.162L309.441 494.18V498.097H305.136V498.438H303.454V498.182H303.112V497.615H302.085V498.182H301.743V498.438H300.032V499.459H301.715V500.538C301.372 500.623 301.059 500.708 300.888 500.879C300.574 501.162 300.574 502.127 300.888 502.411C301.059 502.582 301.401 502.695 301.772 502.752C301.401 502.809 301.059 502.922 300.888 503.093C300.574 503.376 300.574 504.341 300.888 504.625C301.059 504.795 301.401 504.88 301.772 504.966C301.401 505.022 301.059 505.136 300.888 505.306C300.574 505.562 300.574 506.555 300.888 506.839C301.116 507.038 301.572 507.179 302.057 507.236V507.946H303.083V507.236C303.625 507.179 304.081 507.066 304.281 506.839C304.537 506.527 304.537 505.619 304.281 505.306C304.138 505.136 303.853 505.022 303.511 504.966C303.853 504.88 304.138 504.795 304.281 504.625C304.537 504.313 304.537 503.405 304.281 503.093C304.138 502.922 303.853 502.809 303.511 502.752C303.853 502.695 304.138 502.582 304.281 502.411C304.537 502.127 304.537 501.191 304.281 500.879C304.109 500.708 303.796 500.595 303.425 500.538V499.488H305.107V499.828H309.412V510.018H305.136V510.358H303.454V510.103H303.112V509.535H302.085V510.103H301.743V510.358H300.032V511.38H301.715V512.402ZM340.882 599.622L331.306 591.135L337.005 584.806L340.882 599.622ZM336.321 582.081L328.112 574.815L333.013 569.394L336.321 582.081ZM332.446 567.18L327.058 562.384L330.279 558.836L332.446 567.18ZM329.652 546.234H321.584L325.603 542.232L329.652 546.234ZM326.345 541.494L329.88 537.975V545.014L326.345 541.494ZM329.88 548.647V555.714L326.345 552.166L329.88 548.647ZM329.167 547.937L325.632 551.456L322.068 547.937H329.167ZM329.167 556.423H322.068L325.603 552.904L329.167 556.423ZM329.538 558.126L326.288 561.731L322.239 558.126H329.538ZM329.88 534.881L326.345 531.362L329.88 527.842V534.881ZM326.544 509.961L329.88 506.64V509.961H326.544ZM329.88 511.664V513.708L327.827 511.664H329.88ZM329.795 515.07H321.441L324.862 511.664H326.402L329.795 515.07ZM329.367 516.773L325.603 520.519L321.84 516.773H329.367ZM329.88 517.71V524.748L326.345 521.229L329.88 517.71ZM329.88 503.688L326.345 500.169L326.744 499.772H329.909V503.688H329.88ZM329.88 498.069H328.426L329.88 496.621V498.069ZM327.001 498.069H324.264L321.441 495.259H329.852L327.001 498.069ZM322.581 493.556L325.147 491.001L328.283 493.556H322.581ZM329.481 493.244L325.86 490.292L327.913 488.248L329.481 493.244ZM327.058 485.524L324.349 483.111L325.775 481.522L327.058 485.524ZM323.779 475.107L324.492 477.406L323.38 475.93L323.779 475.107ZM321.355 468.097H321.584L323.323 473.66L322.695 474.965L321.327 473.121V468.097H321.355ZM321.355 474.852L322.211 476.016L321.355 477.804V474.852ZM321.355 480.188L322.895 476.952L325.432 480.386L323.608 482.43L321.355 480.386V480.188ZM321.355 481.749L322.923 483.168L321.355 484.899V481.749ZM321.355 486.432L323.693 483.849L327.485 487.255L325.09 489.639L321.384 486.631V486.432H321.355ZM321.355 487.965L324.321 490.377L321.355 493.357V487.965ZM321.355 496.65L322.809 498.097H321.355V496.65ZM321.355 499.772H324.492L324.891 500.169L321.355 503.688V499.772ZM321.355 505.136L325.632 500.879L329.909 505.136V505.221L325.632 509.479L321.355 505.221V505.136ZM321.355 506.669L324.691 509.989H321.355V506.669ZM321.355 511.664H323.408L321.355 513.708V511.664ZM321.355 517.71L324.891 521.229L321.355 524.748V517.71ZM321.355 526.196L325.632 521.939L329.909 526.196V526.394L325.632 530.652L321.355 526.394V526.196ZM321.355 527.842L324.891 531.362L321.355 534.881V527.842ZM321.355 536.328L325.632 532.071L329.909 536.328V536.527L325.632 540.785L321.355 536.527V536.328ZM321.355 537.975L324.891 541.494L321.355 545.014V537.975ZM321.355 548.647L324.891 552.166L321.355 555.685V548.647ZM321.355 558.694L325.603 562.469L321.355 567.152V558.694ZM321.355 568.685L326.373 563.15L332.418 568.514L327.343 574.106L321.355 568.798V568.685ZM321.355 570.16L326.658 574.872L321.355 580.747V570.16ZM321.355 582.28L327.428 575.553L336.634 583.699L330.564 590.426L321.355 582.28ZM321.355 583.671L329.852 591.22L321.355 600.615V583.671ZM307.987 569.394L312.888 574.815L304.68 582.081L307.987 569.394ZM300.118 599.622L303.995 584.806L309.726 591.135L300.118 599.622ZM319.645 600.615L311.149 591.22L319.645 583.671V600.615ZM319.645 582.28L310.464 590.426L304.395 583.699L313.572 575.553L319.645 582.28ZM319.645 580.747L314.342 574.872L319.645 570.16V580.747ZM319.645 568.798L313.658 574.106L308.586 568.514L314.627 563.15L319.645 568.685V568.798ZM318.932 547.937L315.397 551.456L311.861 547.937H318.932ZM311.348 546.234L315.368 542.232L319.388 546.234H311.348ZM318.932 556.423H311.833L315.368 552.904L318.932 556.423ZM318.761 558.126L314.712 561.731L311.462 558.126H318.761ZM319.645 567.18L315.397 562.497L319.645 558.722V567.18ZM319.645 555.685L316.11 552.166L319.645 548.647V555.685ZM319.645 545.014L316.11 541.494L319.645 537.975V545.014ZM319.645 534.881L316.11 531.362L319.645 527.842V534.881ZM319.645 524.748L316.11 521.229L319.645 517.71V524.748ZM319.132 516.773L315.368 520.519L311.605 516.773H319.132ZM311.206 515.07L314.627 511.664H316.167L319.588 515.07H311.206ZM319.645 513.708L317.592 511.664H319.645V513.708ZM319.645 509.961H316.309L319.645 506.64V509.961ZM319.645 503.688L316.11 500.169L316.509 499.772H319.673V503.688H319.645ZM319.645 498.069H318.191L319.645 496.621V498.069ZM319.645 493.357L316.68 490.377L319.645 487.965V493.357ZM318.419 493.556H312.717L315.853 491.001L318.419 493.556ZM319.645 484.899L318.077 483.168L319.645 481.749V484.899ZM319.645 477.804L318.789 475.987L319.645 474.823V477.804ZM319.417 468.097H319.645V473.121L318.276 474.965L317.649 473.66L319.417 468.097ZM317.221 475.107L317.592 475.902L316.48 477.378L317.221 475.107ZM318.105 476.952L319.645 480.188V480.386L317.392 482.43L315.568 480.386L318.105 476.952ZM315.197 481.522L316.623 483.111L313.943 485.524L315.197 481.522ZM317.307 483.849L319.645 486.432V486.659L315.938 489.667L313.544 487.283L317.307 483.849ZM313.087 488.248L315.14 490.292L311.519 493.215L313.087 488.248ZM319.588 495.259L316.765 498.069H314.028L311.206 495.259H319.588ZM311.12 496.65L312.574 498.097H311.12V496.65ZM311.12 499.772H314.285L314.655 500.169L311.12 503.688V499.772ZM311.12 505.136L315.397 500.879L319.673 505.136V505.221L315.397 509.479L311.12 505.221V505.136ZM311.12 506.669L314.456 509.989H311.12V506.669ZM311.12 511.664H313.173L311.12 513.708V511.664ZM311.12 517.71L314.655 521.229L311.12 524.748V517.71ZM311.12 526.196L315.397 521.939L319.673 526.196V526.394L315.397 530.652L311.12 526.394V526.196ZM311.12 527.842L314.655 531.362L311.12 534.881V527.842ZM311.12 536.328L315.397 532.071L319.673 536.328V536.527L315.397 540.785L311.12 536.527V536.328ZM311.12 537.975L314.655 541.494L311.12 545.014V537.975ZM311.12 548.647L314.655 552.166L311.12 555.685V548.647ZM310.721 558.836L313.943 562.384L308.557 567.152L310.721 558.836Z" fill="white"/>
<path d="M350.239 535.877C350.02 535.913 349.82 535.985 349.709 536.092C349.509 536.272 349.509 536.881 349.709 537.06C349.82 537.168 350.04 537.239 350.276 537.275C350.04 537.329 349.82 537.401 349.709 537.49C349.509 537.652 349.509 538.279 349.709 538.459C349.82 538.566 350.04 538.62 350.276 538.674C350.04 538.709 349.82 538.781 349.709 538.889C349.509 539.05 349.509 539.677 349.709 539.857C349.857 539.982 350.148 540.072 350.459 540.108V540.556H351.114V540.126C351.462 540.09 351.753 540.018 351.881 539.875C352.047 539.677 352.047 539.104 351.881 538.906C351.79 538.799 351.608 538.727 351.388 538.692C351.608 538.656 351.79 538.584 351.881 538.476C352.047 538.279 352.047 537.706 351.881 537.508C351.79 537.401 351.608 537.329 351.388 537.293C351.608 537.257 351.79 537.186 351.881 537.078C352.047 536.899 352.047 536.307 351.881 536.11C351.773 536.003 351.571 535.931 351.334 535.877V535.214H352.412V535.429H355.169L355.152 564.164L347.573 592.917H348.705L348.925 592.093L355.79 586.069L361.723 592.541V592.899H362.818V592.541L368.751 586.069L375.616 592.075L375.836 592.899H376.968L369.373 564.128V535.411H372.112V535.196H373.187V535.877C372.971 535.913 372.768 535.985 372.66 536.092C372.457 536.272 372.457 536.881 372.66 537.06C372.768 537.168 372.988 537.239 373.224 537.275C372.988 537.329 372.768 537.401 372.66 537.49C372.457 537.652 372.457 538.279 372.66 538.459C372.768 538.566 372.988 538.62 373.224 538.674C372.988 538.709 372.768 538.781 372.66 538.889C372.457 539.05 372.457 539.677 372.66 539.857C372.805 539.982 373.096 540.072 373.407 540.108V540.556H374.065V540.126C374.41 540.09 374.704 540.018 374.832 539.875C374.995 539.677 374.995 539.104 374.832 538.906C374.741 538.799 374.559 538.727 374.339 538.692C374.559 538.656 374.741 538.584 374.832 538.476C374.995 538.279 374.995 537.706 374.832 537.508C374.741 537.401 374.559 537.329 374.339 537.293C374.559 537.257 374.741 537.186 374.832 537.078C374.995 536.899 374.995 536.307 374.832 536.11C374.721 536.003 374.522 535.931 374.285 535.877V535.214H375.36V534.569H374.285V534.407H374.065V534.049H373.407V534.407H373.187V534.569H372.112V534.353H369.373V527.918H372.112V527.703H373.187V528.384C372.971 528.438 372.768 528.492 372.66 528.599C372.457 528.778 372.457 529.388 372.66 529.567C372.768 529.675 372.988 529.747 373.224 529.782C372.988 529.818 372.768 529.89 372.66 529.998C372.457 530.177 372.457 530.786 372.66 530.965C372.768 531.073 372.988 531.127 373.224 531.181C372.988 531.216 372.768 531.288 372.66 531.396C372.457 531.557 372.457 532.185 372.66 532.364C372.805 532.489 373.096 532.579 373.407 532.614V533.063H374.065V532.614C374.41 532.579 374.704 532.507 374.832 532.364C374.995 532.167 374.995 531.593 374.832 531.396C374.741 531.288 374.559 531.216 374.339 531.181C374.559 531.127 374.741 531.073 374.832 530.965C374.995 530.768 374.995 530.195 374.832 529.998C374.741 529.89 374.559 529.818 374.339 529.782C374.559 529.747 374.741 529.675 374.832 529.567C374.995 529.388 374.995 528.796 374.832 528.599C374.721 528.492 374.522 528.42 374.285 528.384V527.721H375.36V527.075H374.285V526.896H374.065V526.538H373.407V526.896H373.187V527.057H372.112V526.843H369.373V524.53L363.767 506.819H362.818V506.282H361.723V506.819H360.774L355.186 524.369V526.843H352.429V527.057H351.354V526.896H351.134V526.538H350.476V526.896H350.256V527.057H349.162V527.703H350.239V528.384C350.02 528.438 349.82 528.492 349.709 528.599C349.509 528.778 349.509 529.388 349.709 529.567C349.82 529.675 350.04 529.747 350.276 529.782C350.04 529.818 349.82 529.89 349.709 529.998C349.509 530.177 349.509 530.786 349.709 530.965C349.82 531.073 350.04 531.127 350.276 531.181C350.04 531.216 349.82 531.288 349.709 531.396C349.509 531.557 349.509 532.185 349.709 532.364C349.857 532.489 350.148 532.579 350.459 532.614V533.063H351.114V532.614C351.462 532.579 351.753 532.507 351.881 532.364C352.047 532.167 352.047 531.593 351.881 531.396C351.79 531.288 351.608 531.216 351.388 531.181C351.608 531.127 351.79 531.073 351.881 530.965C352.047 530.768 352.047 530.195 351.881 529.998C351.79 529.89 351.608 529.818 351.388 529.782C351.608 529.747 351.79 529.675 351.881 529.567C352.047 529.388 352.047 528.796 351.881 528.599C351.773 528.492 351.571 528.42 351.334 528.384V527.721H352.412V527.936H355.169V534.371H352.429V534.587H351.354V534.425H351.134V534.067H350.476V534.425H350.256V534.587H349.162V535.232H350.239V535.877ZM375.326 590.963L369.19 585.604L372.842 581.606L375.326 590.963ZM372.403 579.885L367.146 575.296L370.285 571.872L372.403 579.885ZM369.92 570.474L366.47 567.445L368.532 565.204L369.92 570.474ZM368.132 557.245H362.963L365.538 554.717L368.132 557.245ZM366.014 554.251L368.278 552.028V556.474L366.014 554.251ZM368.278 558.768V563.232L366.014 560.991L368.278 558.768ZM367.822 558.32L365.558 560.543L363.274 558.32H367.822ZM367.822 563.68H363.274L365.538 561.457L367.822 563.68ZM368.058 564.756L365.977 567.032L363.385 564.756H368.058ZM368.278 550.074L366.014 547.852L368.278 545.629V550.074ZM366.142 534.335L368.278 532.238V534.335H366.142ZM368.278 535.411V536.702L366.963 535.411H368.278ZM368.224 537.562H362.872L365.065 535.411H366.051L368.224 537.562ZM367.95 538.638L365.538 541.004L363.129 538.638H367.95ZM368.278 539.229V543.675L366.014 541.452L368.278 539.229ZM368.278 530.374L366.014 528.151L366.268 527.9H368.295V530.374H368.278ZM368.278 526.825H367.346L368.278 525.91V526.825ZM366.433 526.825H364.68L362.872 525.05H368.258L366.433 526.825ZM363.602 523.974L365.247 522.361L367.254 523.974H363.602ZM368.021 523.777L365.703 521.913L367.018 520.622L368.021 523.777ZM366.47 518.901L364.737 517.378L365.649 516.374L366.47 518.901ZM364.369 512.323L364.828 513.774L364.115 512.842L364.369 512.323ZM362.818 507.895H362.963L364.078 511.408L363.676 512.233L362.801 511.068V507.895H362.818ZM362.818 512.161L363.365 512.896L362.818 514.026V512.161ZM362.818 515.531L363.804 513.488L365.43 515.657L364.261 516.947L362.818 515.657V515.531ZM362.818 516.517L363.822 517.414L362.818 518.507V516.517ZM362.818 519.475L364.315 517.844L366.744 519.995L365.21 521.501L362.838 519.601V519.475H362.818ZM362.818 520.443L364.717 521.967L362.818 523.849V520.443ZM362.818 525.928L363.75 526.843H362.818V525.928ZM362.818 527.9H364.828L365.082 528.151L362.818 530.374V527.9ZM362.818 531.288L365.558 528.599L368.295 531.288V531.342L365.558 534.031L362.818 531.342V531.288ZM362.818 532.256L364.953 534.353H362.818V532.256ZM362.818 535.411H364.132L362.818 536.702V535.411ZM362.818 539.229L365.082 541.452L362.818 543.675V539.229ZM362.818 544.589L365.558 541.9L368.295 544.589V544.715L365.558 547.403L362.818 544.715V544.589ZM362.818 545.629L365.082 547.852L362.818 550.074V545.629ZM362.818 550.989L365.558 548.3L368.295 550.989V551.114L365.558 553.803L362.818 551.114V550.989ZM362.818 552.028L365.082 554.251L362.818 556.474V552.028ZM362.818 558.768L365.082 560.991L362.818 563.214V558.768ZM362.818 565.114L365.538 567.498L362.818 570.456V565.114ZM362.818 571.424L366.031 567.928L369.903 571.317L366.653 574.848L362.818 571.496V571.424ZM362.818 572.356L366.214 575.332L362.818 579.042V572.356ZM362.818 580.011L366.707 575.762L372.606 580.907L368.717 585.155L362.818 580.011ZM362.818 580.889L368.258 585.657L362.818 591.591V580.889ZM354.256 571.872L357.395 575.296L352.138 579.885L354.256 571.872ZM349.216 590.963L351.699 581.606L355.368 585.604L349.216 590.963ZM361.723 591.591L356.283 585.657L361.723 580.889V591.591ZM361.723 580.011L355.844 585.155L351.956 580.907L357.834 575.762L361.723 580.011ZM361.723 579.042L358.328 575.332L361.723 572.356V579.042ZM361.723 571.496L357.889 574.848L354.638 571.317L358.51 567.928L361.723 571.424V571.496ZM361.267 558.32L359.003 560.543L356.74 558.32H361.267ZM356.409 557.245L358.983 554.717L361.558 557.245H356.409ZM361.267 563.68H356.72L358.983 561.457L361.267 563.68ZM361.156 564.756L358.564 567.032L356.483 564.756H361.156ZM361.723 570.474L359.003 567.516L361.723 565.132V570.474ZM361.723 563.214L359.459 560.991L361.723 558.768V563.214ZM361.723 556.474L359.459 554.251L361.723 552.028V556.474ZM361.723 550.074L359.459 547.852L361.723 545.629V550.074ZM361.723 543.675L359.459 541.452L361.723 539.229V543.675ZM361.395 538.638L358.983 541.004L356.574 538.638H361.395ZM356.318 537.562L358.51 535.411H359.497L361.686 537.562H356.318ZM361.723 536.702L360.409 535.411H361.723V536.702ZM361.723 534.335H359.588L361.723 532.238V534.335ZM361.723 530.374L359.459 528.151L359.716 527.9H361.74V530.374H361.723ZM361.723 526.825H360.791L361.723 525.91V526.825ZM361.723 523.849L359.824 521.967L361.723 520.443V523.849ZM360.939 523.974H357.287L359.294 522.361L360.939 523.974ZM361.723 518.507L360.72 517.414L361.723 516.517V518.507ZM361.723 514.026L361.176 512.878L361.723 512.143V514.026ZM361.578 507.895H361.723V511.068L360.848 512.233L360.446 511.408L361.578 507.895ZM360.172 512.323L360.409 512.824L359.696 513.757L360.172 512.323ZM360.737 513.488L361.723 515.531V515.657L360.281 516.947L359.112 515.657L360.737 513.488ZM358.875 516.374L359.787 517.378L358.071 518.901L358.875 516.374ZM360.226 517.844L361.723 519.475V519.618L359.348 521.518L357.817 520.013L360.226 517.844ZM357.524 520.622L358.838 521.913L356.52 523.759L357.524 520.622ZM361.686 525.05L359.879 526.825H358.125L356.318 525.05H361.686ZM356.263 525.928L357.196 526.843H356.263V525.928ZM356.263 527.9H358.291L358.527 528.151L356.263 530.374V527.9ZM356.263 531.288L359.003 528.599L361.74 531.288V531.342L359.003 534.031L356.263 531.342V531.288ZM356.263 532.256L358.399 534.353H356.263V532.256ZM356.263 535.411H357.578L356.263 536.702V535.411ZM356.263 539.229L358.527 541.452L356.263 543.675V539.229ZM356.263 544.589L359.003 541.9L361.74 544.589V544.715L359.003 547.403L356.263 544.715V544.589ZM356.263 545.629L358.527 547.852L356.263 550.074V545.629ZM356.263 550.989L359.003 548.3L361.74 550.989V551.114L359.003 553.803L356.263 551.114V550.989ZM356.263 552.028L358.527 554.251L356.263 556.474V552.028ZM356.263 558.768L358.527 560.991L356.263 563.214V558.768ZM356.01 565.204L358.071 567.445L354.621 570.456L356.01 565.204Z" fill="white"/>
<path d="M373.615 527.425C362.872 539.458 341.387 521.237 338.034 498.804" stroke="white"/>
<path d="M373.358 534.902C361.498 544.958 341.643 533.871 338.29 511.438" stroke="white"/>
<path d="M350.927 535.934C339.066 545.99 305.546 532.324 302.194 509.891" stroke="white"/>
<path d="M350.667 527.425C338.807 537.481 305.546 520.979 302.194 498.546" stroke="white"/>
<path d="M-117 562C-41.0304 562 -41.0304 590.864 34.9391 590.864C110.908 590.864 110.908 562 186.878 562C262.846 562 262.846 590.864 338.786 590.864C414.754 590.864 414.754 562 490.691 562V684.19H-117V562Z" fill="#597C56"/>
<path d="M34.5907 581.474C110.56 581.474 110.56 615.745 186.53 615.745C262.498 615.745 262.498 581.474 338.469 581.474C414.438 581.474 414.438 615.745 490.375 615.745C490.501 615.745 490.596 615.745 490.723 615.745V684.159H-116.969V615.745C-41.3784 615.65 -41.2521 581.474 34.5907 581.474Z" fill="#749171"/>
<path d="M-117 613.753C-41.0305 603.162 -41.0305 632.027 34.9386 632.027C110.908 632.027 110.908 603.162 186.878 603.162C262.846 603.162 262.846 632.027 338.786 632.027C414.754 632.027 414.754 603.162 490.691 603.162V684.222H-117V613.753Z" fill="#8CA088"/>
</g>
<defs>
<linearGradient id="paint0_linear" x1="187.997" y1="503.186" x2="188.749" y2="500.153" gradientUnits="userSpaceOnUse">
<stop stop-color="#505B64"/>
<stop offset="0.3032" stop-color="#4E5861"/>
<stop offset="0.5276" stop-color="#465058"/>
<stop offset="0.7266" stop-color="#384148"/>
<stop offset="0.9098" stop-color="#262C31"/>
<stop offset="1" stop-color="#1A1F23"/>
</linearGradient>
<linearGradient id="paint1_linear" x1="115.968" y1="436.628" x2="119.783" y2="428.872" gradientUnits="userSpaceOnUse">
<stop stop-color="#505B64"/>
<stop offset="0.3032" stop-color="#4E5861"/>
<stop offset="0.5276" stop-color="#465058"/>
<stop offset="0.7266" stop-color="#384148"/>
<stop offset="0.9098" stop-color="#262C31"/>
<stop offset="1" stop-color="#1A1F23"/>
</linearGradient>
<linearGradient id="paint2_linear" x1="159.97" y1="474.413" x2="161.862" y2="468.63" gradientUnits="userSpaceOnUse">
<stop stop-color="#505B64"/>
<stop offset="0.3032" stop-color="#4E5861"/>
<stop offset="0.5276" stop-color="#465058"/>
<stop offset="0.7266" stop-color="#384148"/>
<stop offset="0.9098" stop-color="#262C31"/>
<stop offset="1" stop-color="#1A1F23"/>
</linearGradient>
<linearGradient id="paint3_linear" x1="182.195" y1="521.375" x2="168.489" y2="537.179" gradientUnits="userSpaceOnUse">
<stop stop-color="#9CC5E8"/>
<stop offset="0.1217" stop-color="#94BEE1"/>
<stop offset="0.3056" stop-color="#80AACD"/>
<stop offset="0.5289" stop-color="#5E89AC"/>
<stop offset="0.7807" stop-color="#2F5C7E"/>
<stop offset="1" stop-color="#002F51"/>
</linearGradient>
<linearGradient id="paint4_linear" x1="138.106" y1="534.905" x2="130.995" y2="526.62" gradientUnits="userSpaceOnUse">
<stop stop-color="#002F51"/>
<stop offset="0.1143" stop-color="#124063"/>
<stop offset="1" stop-color="#9CC5E8"/>
</linearGradient>
<clipPath id="clip0">
<rect width="375" height="667" fill="white"/>
</clipPath>
</defs>
</svg>
