<svg width="1920" height="1080" viewBox="0 0 1920 1080" fill="none" xmlns="http://www.w3.org/2000/svg">
<g clip-path="url(#clip0)">
<path d="M302.494 832.219L327.588 857.313L271.882 913.02L246.787 888.001L302.494 832.219Z" fill="#001F33"/>
<path d="M259.334 900.548L246.786 888L302.493 832.294L315.04 844.841L259.334 900.548Z" fill="#045178"/>
<path d="M221.392 698.206C221.392 762.378 246.41 822.771 291.762 868.122C337.113 913.473 397.506 938.492 461.678 938.492C525.85 938.492 586.243 913.473 631.594 868.122C676.946 822.771 701.965 762.378 701.965 698.206C701.965 634.033 676.946 573.641 631.594 528.289C586.167 482.938 525.85 457.919 461.678 457.919C397.506 457.919 337.113 482.938 291.762 528.289C246.41 573.641 221.392 634.033 221.392 698.206ZM327.06 563.663C401.285 489.438 521.995 489.438 596.22 563.663C670.445 637.813 670.445 758.598 596.22 832.823C521.995 907.049 401.285 907.049 327.06 832.823C252.835 758.598 252.835 637.813 327.06 563.663Z" fill="#005C9E"/>
<path d="M221.541 869.785L290.097 938.341L82.7658 1145.67L14.2097 1077.12L221.541 869.785Z" fill="#003561"/>
<path d="M48.45 1111.36L14.2097 1077.12L221.541 869.785L255.781 904.025L48.45 1111.36Z" fill="#005C9E"/>
<path d="M0 1091.33L68.5561 1159.88L82.7662 1145.67L14.2101 1077.12L0 1091.33Z" fill="#FF5500"/>
<path d="M48.4504 1111.36L14.2101 1077.12L0 1091.33L34.2403 1125.57L48.4504 1111.36Z" fill="#FF9E6E"/>
<path d="M221.542 869.785L290.098 938.341L304.308 924.131L235.752 855.575L221.542 869.785Z" fill="#FF5500"/>
<path d="M270.069 889.815L235.829 855.575L221.619 869.785L255.859 904.026L270.069 889.815Z" fill="#FF9E6E"/>
<path d="M701.963 698.206C701.963 634.034 676.944 573.641 631.593 528.29L596.294 563.589C670.444 637.814 670.444 758.599 596.219 832.824C521.994 907.049 401.283 907.049 327.058 832.824L291.76 868.123C337.111 913.474 397.504 938.493 461.676 938.493C525.848 938.493 586.241 913.474 631.593 868.123C676.944 822.771 701.963 762.379 701.963 698.206Z" fill="#003561"/>
<circle cx="461.829" cy="698.399" r="214.663" fill="url(#paint0_radial)"/>
</g>
<defs>
<radialGradient id="paint0_radial" cx="0" cy="0" r="1" gradientUnits="userSpaceOnUse" gradientTransform="translate(461.829 698.399) rotate(90) scale(429.704)">
<stop offset="0.375" stop-color="white"/>
<stop offset="1" stop-color="#008BDA"/>
</radialGradient>
<clipPath id="clip0">
<rect width="1920" height="1080" fill="white"/>
</clipPath>
</defs>
</svg>
