<svg width="573" height="543" viewBox="0 0 573 543" fill="none" xmlns="http://www.w3.org/2000/svg">
<g clip-path="url(#clip0)">
<path d="M236.96 345.45L257.696 366.189L211.664 412.227L190.928 391.551L236.96 345.45Z" fill="#001F33"/>
<path d="M201.296 401.92L190.927 391.55L236.959 345.511L247.327 355.881L201.296 401.92Z" fill="#045178"/>
<path d="M169.943 234.695C169.943 287.73 190.616 337.641 228.092 375.121C265.567 412.602 315.471 433.279 368.499 433.279C421.526 433.279 471.43 412.602 508.905 375.121C546.381 337.641 567.055 287.73 567.055 234.695C567.055 181.659 546.381 131.748 508.905 94.2674C471.368 56.7872 421.526 36.1104 368.499 36.1104C315.471 36.1104 265.567 56.7872 228.092 94.2674C190.616 131.748 169.943 181.659 169.943 234.695ZM257.26 123.502C318.594 62.1592 418.34 62.1592 479.675 123.502C541.009 184.783 541.009 284.606 479.675 345.949C418.34 407.293 318.594 407.293 257.26 345.949C195.925 284.606 195.925 184.783 257.26 123.502Z" fill="#005C9E"/>
<path d="M170.066 376.496L226.716 433.154L55.3919 604.5L-1.25809 547.847L170.066 376.496Z" fill="#003561"/>
<path d="M27.0357 576.145L-1.25809 547.847L170.066 376.496L198.36 404.793L27.0357 576.145Z" fill="#005C9E"/>
<path d="M170.067 376.496L226.717 433.154L238.459 421.41L181.809 364.752L170.067 376.496Z" fill="#FF5500"/>
<path d="M210.166 393.05L181.873 364.752L170.131 376.496L198.424 404.794L210.166 393.05Z" fill="#FF9E6E"/>
<path d="M567.053 234.695C567.053 181.66 546.379 131.749 508.905 94.2683L479.736 123.441C541.008 184.784 541.008 284.607 479.674 345.95C418.34 407.293 318.592 407.293 257.258 345.95L228.09 375.122C265.565 412.603 315.47 433.279 368.497 433.279C421.524 433.279 471.429 412.603 508.905 375.122C546.379 337.641 567.053 287.731 567.053 234.695Z" fill="#003561"/>
<path d="M368.623 412.262C466.589 412.262 546.006 332.833 546.006 234.854C546.006 136.874 466.589 57.4463 368.623 57.4463C270.658 57.4463 191.241 136.874 191.241 234.854C191.241 332.833 270.658 412.262 368.623 412.262Z" fill="url(#paint0_radial)"/>
</g>
<defs>
<radialGradient id="paint0_radial" cx="0" cy="0" r="1" gradientUnits="userSpaceOnUse" gradientTransform="translate(368.623 234.854) rotate(90) scale(355.128 355.078)">
<stop offset="0.375" stop-color="white"/>
<stop offset="1" stop-color="#008BDA"/>
</radialGradient>
<clipPath id="clip0">
<rect width="573" height="543" fill="white"/>
</clipPath>
</defs>
</svg>
