<svg width="375" height="667" viewBox="0 0 375 667" fill="none" xmlns="http://www.w3.org/2000/svg">
<g clip-path="url(#clip0)">
<path d="M68.7484 487.486L87.4762 506.213L45.9028 547.787L27.175 529.116L68.7484 487.486Z" fill="#001F33"/>
<path d="M36.5384 538.479L27.1746 529.115L68.7479 487.542L78.1118 496.906L36.5384 538.479Z" fill="#045178"/>
<path d="M8.22266 387.473C8.22266 435.364 26.894 480.435 60.7394 514.28C94.5847 548.126 139.655 566.797 187.547 566.797C235.438 566.797 280.509 548.126 314.354 514.28C348.199 480.435 366.871 435.364 366.871 387.473C366.871 339.582 348.199 294.511 314.354 260.666C280.452 226.82 235.438 208.149 187.547 208.149C139.655 208.149 94.5847 226.82 60.7394 260.666C26.894 294.511 8.22266 339.582 8.22266 387.473ZM87.0823 287.065C142.476 231.672 232.561 231.672 287.955 287.065C343.348 342.402 343.348 432.544 287.955 487.937C232.561 543.331 142.476 543.331 87.0823 487.937C31.6888 432.544 31.6888 342.402 87.0823 287.065Z" fill="#005C9E"/>
<path d="M8.33418 515.521L59.4971 566.684L-95.2326 721.414L-146.396 670.251L8.33418 515.521Z" fill="#003561"/>
<path d="M-120.842 695.804L-146.396 670.251L8.33418 515.521L33.8874 541.074L-120.842 695.804Z" fill="#005C9E"/>
<path d="M8.33472 515.522L59.4976 566.684L70.1025 556.08L18.9396 504.917L8.33472 515.522Z" fill="#FF5500"/>
<path d="M44.5502 530.47L18.997 504.917L8.39209 515.522L33.9453 541.075L44.5502 530.47Z" fill="#FF9E6E"/>
<path d="M366.87 387.474C366.87 339.582 348.198 294.512 314.353 260.666L288.01 287.009C343.347 342.403 343.347 432.544 287.954 487.938C232.56 543.331 142.475 543.331 87.0815 487.938L60.7385 514.281C94.5839 548.126 139.655 566.798 187.546 566.798C235.437 566.798 280.508 548.126 314.353 514.281C348.198 480.436 366.87 435.365 366.87 387.474Z" fill="#003561"/>
<circle cx="187.659" cy="387.618" r="160.201" fill="url(#paint0_radial)"/>
</g>
<defs>
<radialGradient id="paint0_radial" cx="0" cy="0" r="1" gradientUnits="userSpaceOnUse" gradientTransform="translate(187.659 387.618) rotate(90) scale(320.685)">
<stop offset="0.375" stop-color="white"/>
<stop offset="1" stop-color="#008BDA"/>
</radialGradient>
<clipPath id="clip0">
<rect width="375" height="667" fill="white"/>
</clipPath>
</defs>
</svg>
