<svg width="375" height="667" viewBox="0 0 375 667" fill="none" xmlns="http://www.w3.org/2000/svg">
<g clip-path="url(#clip0)">
<path d="M106.919 521.828V600.126H144.995V521.828H106.919ZM126.855 591.766H116.438V567.809H126.855V591.766ZM126.855 560.033H116.438V536.076H126.855V560.033Z" fill="white"/>
<path d="M212.617 521.828V600.756H248.987V521.828H212.617ZM242.207 591.766H231.79V567.809H242.207V591.766ZM242.207 560.033H231.79V536.076H242.207V560.033Z" fill="white"/>
<path d="M205.881 382.804L205.836 400.559C205.836 400.559 200.178 400.694 192.41 397.907C184.598 395.12 180.377 395.21 179.479 395.884L179.614 377.815C179.614 377.815 186.753 378.175 194.296 380.917C201.795 383.704 205.252 383.074 205.881 382.804Z" fill="#FF5050"/>
<path d="M194.251 390.086C186.708 387.3 179.568 386.985 179.568 386.985L179.479 395.84C180.511 395.21 184.732 395.165 192.321 397.907C200.134 400.694 205.746 400.559 205.746 400.559V391.974C205.163 392.244 201.705 392.828 194.251 390.086Z" fill="white"/>
<path d="M179.793 372.961H176.605V417.279H179.793V372.961Z" fill="white"/>
<path d="M178.807 372.961H177.594V417.279H178.807V372.961Z" fill="white"/>
<path d="M251.906 509.647H212.617V521.873H251.906V509.647Z" fill="white"/>
<path d="M144.995 509.647H104V521.873H144.995V509.647Z" fill="white"/>
<path d="M219.891 434.135L182.174 420.785L179.614 422.089L137.317 434.135V600.351H161.07V564.438H196.946V600.351H219.936V434.135H219.891ZM157.208 559.494H146.791V547.403H157.208V559.494ZM157.208 543.492H146.791V531.402H157.208V543.492ZM157.208 521.019H146.791V508.928H157.208V521.019ZM157.208 505.017H146.791V492.926H157.208V505.017ZM157.208 475.711H146.791V463.62H157.208V475.711ZM157.208 459.71H146.791V447.619H157.208V459.71ZM175.079 559.494H164.662V547.403H175.079V559.494ZM175.079 543.492H164.662V531.402H175.079V543.492ZM175.079 521.019H164.662V508.928H175.079V521.019ZM175.079 505.017H164.662V492.926H175.079V505.017ZM175.079 475.711H164.662V463.62H175.079V475.711ZM175.079 459.71H164.662V447.619H175.079V459.71ZM191.378 559.494H180.961V547.403H191.378V559.494ZM191.378 543.492H180.961V531.402H191.378V543.492ZM191.378 521.019H180.961V508.928H191.378V521.019ZM191.378 505.017H180.961V492.926H191.378V505.017ZM191.378 475.711H180.961V463.62H191.378V475.711ZM191.378 459.71H180.961V447.619H191.378V459.71ZM209.249 559.494H198.832V547.403H209.249V559.494ZM209.249 543.492H198.832V531.402H209.249V543.492ZM209.249 521.019H198.832V508.928H209.249V521.019ZM209.249 505.017H198.832V492.926H209.249V505.017ZM209.249 475.711H198.832V463.62H209.249V475.711ZM209.249 459.71H198.832V447.619H209.249V459.71Z" fill="white"/>
<path d="M222.99 442.226L177.414 429.865L132.737 442.226V427.842L178.177 415.032L222.99 427.842V442.226Z" fill="white"/>
<path d="M285.229 465.9H189.521V503.589H285.229V465.9Z" fill="white" stroke="#63B9CD" stroke-width="4.61"/>
<path d="M278.172 472.44H226.914V496.525H278.172V472.44Z" fill="#45AC51"/>
<path d="M200.602 484.86V475.949H204.384C205.336 475.949 206.026 476.03 206.455 476.192C206.888 476.35 207.234 476.634 207.493 477.043C207.753 477.452 207.882 477.92 207.882 478.447C207.882 479.116 207.686 479.669 207.293 480.107C206.9 480.54 206.313 480.814 205.532 480.927C205.921 481.154 206.241 481.403 206.492 481.675C206.746 481.946 207.089 482.429 207.518 483.121L208.605 484.86H206.455L205.156 482.921C204.694 482.228 204.378 481.792 204.208 481.614C204.038 481.432 203.858 481.308 203.668 481.243C203.478 481.174 203.176 481.14 202.763 481.14H202.399V484.86H200.602ZM202.399 479.718H203.729C204.591 479.718 205.129 479.681 205.344 479.608C205.558 479.535 205.726 479.409 205.848 479.231C205.969 479.053 206.03 478.83 206.03 478.563C206.03 478.263 205.949 478.022 205.787 477.839C205.629 477.653 205.405 477.535 205.113 477.487C204.967 477.467 204.53 477.456 203.801 477.456H202.399V479.718ZM209.582 484.86V475.949H216.182V477.456H211.379V479.432H215.848V480.933H211.379V483.359H216.353V484.86H209.582Z" fill="black"/>
<path d="M249.077 483.574C249.077 483.688 249.071 483.785 249.059 483.866C249.047 483.943 249.029 484.006 249.004 484.054C248.984 484.099 248.96 484.131 248.931 484.152C248.903 484.172 248.871 484.182 248.834 484.182H244.499C244.467 484.182 244.436 484.172 244.408 484.152C244.379 484.131 244.353 484.099 244.329 484.054C244.309 484.006 244.292 483.943 244.28 483.866C244.268 483.785 244.262 483.688 244.262 483.574C244.262 483.457 244.266 483.36 244.274 483.282C244.286 483.201 244.302 483.137 244.323 483.088C244.347 483.039 244.374 483.005 244.402 482.985C244.43 482.96 244.463 482.948 244.499 482.948H245.962V477.83L244.699 478.529C244.606 478.574 244.529 478.602 244.469 478.614C244.412 478.623 244.365 478.61 244.329 478.578C244.296 478.542 244.274 478.481 244.262 478.396C244.25 478.31 244.244 478.191 244.244 478.037C244.244 477.94 244.246 477.861 244.25 477.8C244.254 477.735 244.264 477.68 244.28 477.636C244.296 477.591 244.319 477.555 244.347 477.526C244.375 477.498 244.414 477.468 244.463 477.435L246.151 476.341C246.171 476.325 246.195 476.313 246.223 476.305C246.256 476.292 246.296 476.284 246.345 476.28C246.393 476.272 246.456 476.268 246.533 476.268C246.614 476.264 246.717 476.262 246.843 476.262C246.997 476.262 247.12 476.266 247.213 476.274C247.31 476.278 247.383 476.288 247.432 476.305C247.48 476.317 247.513 476.335 247.529 476.359C247.545 476.384 247.553 476.414 247.553 476.451V482.948H248.834C248.871 482.948 248.903 482.96 248.931 482.985C248.964 483.005 248.99 483.039 249.01 483.088C249.035 483.137 249.051 483.201 249.059 483.282C249.071 483.36 249.077 483.457 249.077 483.574ZM255.611 480.219C255.611 480.847 255.56 481.414 255.459 481.921C255.358 482.427 255.192 482.859 254.961 483.216C254.734 483.572 254.437 483.846 254.068 484.036C253.704 484.226 253.257 484.322 252.726 484.322C252.188 484.322 251.743 484.231 251.391 484.048C251.038 483.862 250.759 483.596 250.553 483.252C250.346 482.903 250.201 482.48 250.116 481.982C250.035 481.479 249.994 480.912 249.994 480.28C249.994 479.656 250.044 479.091 250.146 478.584C250.251 478.073 250.417 477.64 250.644 477.283C250.875 476.927 251.172 476.653 251.536 476.463C251.905 476.272 252.352 476.177 252.878 476.177C253.417 476.177 253.862 476.27 254.214 476.457C254.57 476.639 254.852 476.904 255.058 477.253C255.264 477.597 255.408 478.021 255.489 478.523C255.57 479.021 255.611 479.587 255.611 480.219ZM254.002 480.298C254.002 479.925 253.992 479.597 253.971 479.313C253.951 479.026 253.918 478.776 253.874 478.566C253.833 478.355 253.781 478.177 253.716 478.031C253.655 477.885 253.581 477.77 253.492 477.685C253.402 477.595 253.301 477.532 253.188 477.496C253.074 477.46 252.949 477.441 252.811 477.441C252.573 477.441 252.374 477.5 252.217 477.617C252.063 477.731 251.939 477.903 251.846 478.134C251.757 478.365 251.694 478.653 251.658 478.997C251.621 479.342 251.603 479.743 251.603 480.201C251.603 480.76 251.625 481.224 251.67 481.593C251.714 481.957 251.783 482.249 251.876 482.468C251.973 482.683 252.097 482.835 252.247 482.924C252.397 483.009 252.577 483.052 252.787 483.052C252.945 483.052 253.085 483.027 253.206 482.979C253.328 482.926 253.433 482.849 253.522 482.748C253.615 482.646 253.692 482.518 253.753 482.365C253.813 482.211 253.862 482.033 253.898 481.83C253.939 481.627 253.965 481.398 253.977 481.143C253.994 480.888 254.002 480.606 254.002 480.298ZM261.913 480.219C261.913 480.847 261.863 481.414 261.761 481.921C261.661 482.427 261.494 482.859 261.264 483.216C261.037 483.572 260.739 483.846 260.371 484.036C260.007 484.226 259.56 484.322 259.029 484.322C258.491 484.322 258.046 484.231 257.693 484.048C257.341 483.862 257.062 483.596 256.855 483.252C256.649 482.903 256.503 482.48 256.418 481.982C256.337 481.479 256.297 480.912 256.297 480.28C256.297 479.656 256.347 479.091 256.449 478.584C256.554 478.073 256.72 477.64 256.946 477.283C257.177 476.927 257.475 476.653 257.839 476.463C258.207 476.272 258.655 476.177 259.181 476.177C259.719 476.177 260.165 476.27 260.517 476.457C260.873 476.639 261.154 476.904 261.361 477.253C261.567 477.597 261.711 478.021 261.792 478.523C261.873 479.021 261.913 479.587 261.913 480.219ZM260.304 480.298C260.304 479.925 260.294 479.597 260.274 479.313C260.254 479.026 260.221 478.776 260.177 478.566C260.136 478.355 260.084 478.177 260.019 478.031C259.958 477.885 259.883 477.77 259.794 477.685C259.705 477.595 259.604 477.532 259.491 477.496C259.377 477.46 259.252 477.441 259.114 477.441C258.875 477.441 258.677 477.5 258.519 477.617C258.365 477.731 258.242 477.903 258.149 478.134C258.06 478.365 257.997 478.653 257.961 478.997C257.924 479.342 257.906 479.743 257.906 480.201C257.906 480.76 257.928 481.224 257.973 481.593C258.017 481.957 258.086 482.249 258.179 482.468C258.276 482.683 258.4 482.835 258.549 482.924C258.699 483.009 258.879 483.052 259.09 483.052C259.248 483.052 259.388 483.027 259.509 482.979C259.63 482.926 259.736 482.849 259.825 482.748C259.918 482.646 259.995 482.518 260.055 482.365C260.116 482.211 260.164 482.033 260.201 481.83C260.242 481.627 260.268 481.398 260.28 481.143C260.296 480.888 260.304 480.606 260.304 480.298Z" fill="white"/>
</g>
<defs>
<clipPath id="clip0">
<rect width="375" height="667" fill="white"/>
</clipPath>
</defs>
</svg>
