<svg width="1920" height="1080" viewBox="0 0 1920 1080" fill="none" xmlns="http://www.w3.org/2000/svg">
<g clip-path="url(#clip0)">
<g clip-path="url(#clip1)">
<path d="M507.622 672.278V903.324H620.094V672.278H507.622ZM566.511 878.654H535.74V807.961H566.511V878.654ZM566.511 785.016H535.74V714.323H566.511V785.016Z" fill="white"/>
<path d="M819.838 672.278V905.181H927.27V672.278H819.838ZM907.243 878.654H876.472V807.961H907.243V878.654ZM907.243 785.016H876.472V714.323H907.243V785.016Z" fill="white"/>
<path d="M799.941 262.046L799.808 314.436C799.808 314.436 783.096 314.834 760.151 306.611C737.073 298.388 724.606 298.653 721.953 300.642L722.351 247.324C722.351 247.324 743.439 248.385 765.722 256.476C787.871 264.699 798.084 262.842 799.941 262.046Z" fill="#FF5050"/>
<path d="M765.589 283.533C743.307 275.31 722.218 274.381 722.218 274.381L721.953 300.51C725.003 298.653 737.471 298.52 759.886 306.611C782.964 314.834 799.543 314.436 799.543 314.436V289.103C797.819 289.899 787.606 291.623 765.589 283.533Z" fill="white"/>
<path d="M722.881 233H713.465V363.775H722.881V233Z" fill="white"/>
<path d="M719.967 233H716.386V363.775H719.967V233Z" fill="white"/>
<path d="M935.891 636.335H819.838V672.411H935.891V636.335Z" fill="white"/>
<path d="M620.093 636.335H499V672.411H620.093V636.335Z" fill="white"/>
<path d="M841.324 413.513L729.913 374.121L722.353 377.967L597.413 413.513V903.987H667.576V798.014H773.549V903.987H841.457V413.513H841.324ZM656.169 783.424H625.399V747.746H656.169V783.424ZM656.169 736.207H625.399V700.529H656.169V736.207ZM656.169 669.891H625.399V634.213H656.169V669.891ZM656.169 622.674H625.399V586.996H656.169V622.674ZM656.169 536.197H625.399V500.519H656.169V536.197ZM656.169 488.98H625.399V453.302H656.169V488.98ZM708.957 783.424H678.186V747.746H708.957V783.424ZM708.957 736.207H678.186V700.529H708.957V736.207ZM708.957 669.891H678.186V634.213H708.957V669.891ZM708.957 622.674H678.186V586.996H708.957V622.674ZM708.957 536.197H678.186V500.519H708.957V536.197ZM708.957 488.98H678.186V453.302H708.957V488.98ZM757.102 783.424H726.332V747.746H757.102V783.424ZM757.102 736.207H726.332V700.529H757.102V736.207ZM757.102 669.891H726.332V634.213H757.102V669.891ZM757.102 622.674H726.332V586.996H757.102V622.674ZM757.102 536.197H726.332V500.519H757.102V536.197ZM757.102 488.98H726.332V453.302H757.102V488.98ZM809.89 783.424H779.119V747.746H809.89V783.424ZM809.89 736.207H779.119V700.529H809.89V736.207ZM809.89 669.891H779.119V634.213H809.89V669.891ZM809.89 622.674H779.119V586.996H809.89V622.674ZM809.89 536.197H779.119V500.519H809.89V536.197ZM809.89 488.98H779.119V453.302H809.89V488.98Z" fill="white"/>
<path d="M850.477 437.387L715.855 400.913L583.885 437.387V394.944L718.109 357.144L850.477 394.944V437.387Z" fill="white"/>
</g>
<rect x="751.616" y="507.246" width="282.706" height="111.213" fill="white" stroke="#63B9CD" stroke-width="4.61"/>
<rect x="862.07" y="526.545" width="151.408" height="71.0689" fill="#45AC51"/>
<path d="M784.346 563.193V536.899H795.52C798.33 536.899 800.369 537.138 801.636 537.617C802.916 538.083 803.938 538.92 804.703 540.128C805.469 541.335 805.851 542.716 805.851 544.271C805.851 546.244 805.271 547.876 804.112 549.167C802.952 550.447 801.218 551.254 798.91 551.588C800.058 552.258 801.003 552.993 801.744 553.795C802.497 554.596 803.508 556.019 804.775 558.063L807.986 563.193H801.636L797.798 557.471C796.435 555.427 795.502 554.141 795 553.615C794.498 553.077 793.966 552.712 793.404 552.521C792.842 552.318 791.951 552.216 790.731 552.216H789.655V563.193H784.346ZM789.655 548.019H793.583C796.13 548.019 797.72 547.912 798.354 547.696C798.988 547.481 799.484 547.11 799.843 546.584C800.202 546.058 800.381 545.401 800.381 544.611C800.381 543.727 800.142 543.015 799.663 542.477C799.197 541.927 798.534 541.58 797.673 541.437C797.242 541.377 795.951 541.347 793.798 541.347H789.655V548.019ZM810.873 563.193V536.899H830.369V541.347H816.182V547.176H829.383V551.606H816.182V558.763H830.872V563.193H810.873Z" fill="black"/>
<path d="M927.536 559.399C927.536 559.734 927.518 560.021 927.482 560.26C927.446 560.487 927.392 560.673 927.321 560.816C927.261 560.948 927.189 561.043 927.105 561.103C927.022 561.163 926.926 561.193 926.818 561.193H914.012C913.917 561.193 913.827 561.163 913.743 561.103C913.659 561.043 913.582 560.948 913.51 560.816C913.45 560.673 913.402 560.487 913.367 560.26C913.331 560.021 913.313 559.734 913.313 559.399C913.313 559.053 913.325 558.766 913.349 558.538C913.384 558.299 913.432 558.108 913.492 557.964C913.564 557.821 913.642 557.719 913.725 557.66C913.809 557.588 913.905 557.552 914.012 557.552H918.335V542.45L914.604 544.513C914.329 544.644 914.102 544.728 913.923 544.764C913.755 544.788 913.618 544.752 913.51 544.656C913.414 544.549 913.349 544.369 913.313 544.118C913.277 543.867 913.259 543.514 913.259 543.06C913.259 542.773 913.265 542.54 913.277 542.36C913.289 542.169 913.319 542.008 913.367 541.876C913.414 541.745 913.48 541.637 913.564 541.553C913.647 541.47 913.761 541.38 913.905 541.284L918.891 538.056C918.95 538.008 919.022 537.972 919.106 537.948C919.202 537.912 919.321 537.888 919.465 537.876C919.608 537.853 919.793 537.841 920.021 537.841C920.26 537.829 920.565 537.823 920.935 537.823C921.39 537.823 921.754 537.835 922.029 537.858C922.316 537.87 922.532 537.9 922.675 537.948C922.819 537.984 922.914 538.038 922.962 538.11C923.01 538.181 923.034 538.271 923.034 538.379V557.552H926.818C926.926 557.552 927.022 557.588 927.105 557.66C927.201 557.719 927.279 557.821 927.338 557.964C927.41 558.108 927.458 558.299 927.482 558.538C927.518 558.766 927.536 559.053 927.536 559.399ZM946.835 549.499C946.835 551.352 946.685 553.026 946.386 554.521C946.087 556.015 945.597 557.289 944.915 558.341C944.246 559.393 943.367 560.2 942.279 560.762C941.203 561.324 939.881 561.605 938.315 561.605C936.725 561.605 935.41 561.336 934.369 560.798C933.329 560.248 932.504 559.465 931.894 558.449C931.284 557.42 930.854 556.171 930.603 554.7C930.364 553.217 930.244 551.543 930.244 549.678C930.244 547.837 930.393 546.169 930.692 544.674C931.003 543.167 931.494 541.888 932.163 540.836C932.845 539.784 933.724 538.976 934.8 538.414C935.888 537.853 937.209 537.572 938.763 537.572C940.354 537.572 941.669 537.847 942.709 538.397C943.762 538.935 944.593 539.718 945.202 540.746C945.812 541.762 946.237 543.012 946.476 544.495C946.715 545.965 946.835 547.633 946.835 549.499ZM942.082 549.732C942.082 548.632 942.052 547.663 941.992 546.826C941.932 545.977 941.836 545.242 941.705 544.62C941.585 543.998 941.43 543.472 941.239 543.042C941.059 542.611 940.838 542.271 940.575 542.02C940.312 541.757 940.013 541.571 939.678 541.464C939.343 541.356 938.973 541.302 938.566 541.302C937.861 541.302 937.275 541.476 936.809 541.822C936.354 542.157 935.989 542.665 935.714 543.347C935.451 544.028 935.266 544.877 935.158 545.894C935.051 546.91 934.997 548.094 934.997 549.445C934.997 551.095 935.063 552.464 935.194 553.552C935.326 554.628 935.529 555.489 935.804 556.135C936.091 556.769 936.456 557.217 936.898 557.48C937.341 557.731 937.873 557.857 938.494 557.857C938.961 557.857 939.373 557.785 939.732 557.642C940.091 557.486 940.402 557.259 940.665 556.96C940.94 556.661 941.167 556.284 941.346 555.83C941.526 555.376 941.669 554.85 941.777 554.252C941.896 553.654 941.974 552.978 942.01 552.225C942.058 551.472 942.082 550.641 942.082 549.732ZM965.452 549.499C965.452 551.352 965.302 553.026 965.003 554.521C964.705 556.015 964.214 557.289 963.533 558.341C962.863 559.393 961.984 560.2 960.896 560.762C959.82 561.324 958.499 561.605 956.932 561.605C955.342 561.605 954.027 561.336 952.987 560.798C951.946 560.248 951.121 559.465 950.511 558.449C949.902 557.42 949.471 556.171 949.22 554.7C948.981 553.217 948.861 551.543 948.861 549.678C948.861 547.837 949.011 546.169 949.31 544.674C949.621 543.167 950.111 541.888 950.78 540.836C951.462 539.784 952.341 538.976 953.417 538.414C954.505 537.853 955.826 537.572 957.381 537.572C958.971 537.572 960.286 537.847 961.327 538.397C962.379 538.935 963.21 539.718 963.82 540.746C964.43 541.762 964.854 543.012 965.093 544.495C965.332 545.965 965.452 547.633 965.452 549.499ZM960.699 549.732C960.699 548.632 960.669 547.663 960.609 546.826C960.549 545.977 960.454 545.242 960.322 544.62C960.203 543.998 960.047 543.472 959.856 543.042C959.677 542.611 959.455 542.271 959.192 542.02C958.929 541.757 958.63 541.571 958.296 541.464C957.961 541.356 957.59 541.302 957.183 541.302C956.478 541.302 955.892 541.476 955.426 541.822C954.971 542.157 954.607 542.665 954.332 543.347C954.069 544.028 953.883 544.877 953.776 545.894C953.668 546.91 953.614 548.094 953.614 549.445C953.614 551.095 953.68 552.464 953.812 553.552C953.943 554.628 954.146 555.489 954.421 556.135C954.708 556.769 955.073 557.217 955.515 557.48C955.958 557.731 956.49 557.857 957.112 557.857C957.578 557.857 957.991 557.785 958.349 557.642C958.708 557.486 959.019 557.259 959.282 556.96C959.557 556.661 959.784 556.284 959.964 555.83C960.143 555.376 960.286 554.85 960.394 554.252C960.514 553.654 960.591 552.978 960.627 552.225C960.675 551.472 960.699 550.641 960.699 549.732Z" fill="white"/>
</g>
<defs>
<clipPath id="clip0">
<rect width="1920" height="1080" fill="white"/>
</clipPath>
<clipPath id="clip1">
<rect width="436.891" height="672.313" fill="white" transform="translate(499 233)"/>
</clipPath>
</defs>
</svg>
