<svg width="1920" height="1080" viewBox="0 0 1920 1080" fill="none" xmlns="http://www.w3.org/2000/svg">
<g clip-path="url(#clip0)">
<path d="M252.866 864.898C278.121 857.478 269.846 837.645 262.426 812.39C255.006 787.135 251.296 766.018 226.04 773.438C192.223 783.283 168.109 810.393 160.261 842.354C184.09 865.041 219.049 874.886 252.866 864.898Z" fill="#F6921E"/>
<path d="M194.343 821.443L171.337 828.179L177.311 848.582L200.317 841.846L194.343 821.443Z" fill="#EE6A23"/>
<path d="M416.957 767.159C424.377 792.414 409.822 818.953 384.567 826.372L252.152 865.182C226.897 872.602 200.357 858.048 192.937 832.793C185.517 807.538 200.071 780.999 225.327 773.579L357.741 734.77C382.997 727.493 409.537 741.904 416.957 767.159Z" fill="#E34033"/>
<path d="M416.956 767.158C424.375 792.413 409.821 818.952 384.566 826.372L252.151 865.182C226.896 872.601 200.356 858.048 192.936 832.793L416.956 767.158Z" fill="#BF304A"/>
<path d="M416.957 767.16C409.538 741.905 382.998 727.351 357.742 734.771C332.486 742.19 317.932 768.587 325.352 793.985C332.772 819.24 359.169 833.793 384.567 826.374C409.823 818.954 424.377 792.558 416.957 767.16Z" fill="#1E193D"/>
<path d="M245.729 861.331C245.586 861.331 245.586 861.331 245.444 861.331C228.607 857.193 215.194 844.209 210.342 827.8C205.491 811.249 209.914 793.128 221.757 780.572C222.186 780.144 222.899 780.144 223.327 780.572C223.755 781 223.755 781.713 223.327 782.141C212.055 794.127 207.774 811.391 212.483 827.229C217.049 843.067 229.891 855.338 246.014 859.333C246.585 859.476 247.013 860.047 246.871 860.617C246.585 861.045 246.157 861.331 245.729 861.331Z" fill="#1E193D"/>
<path d="M352.037 782L333.915 780.002C333.344 780.002 332.916 779.432 332.916 778.718C332.916 778.147 333.487 777.719 334.201 777.719L352.322 779.717C352.893 779.717 353.321 780.288 353.321 781.001C353.178 781.572 352.607 782 352.037 782Z" fill="#A42B19"/>
<path d="M367.591 753.891C367.591 753.891 367.449 753.891 367.591 753.891L349.47 751.894C348.899 751.894 348.471 751.323 348.471 750.609C348.471 750.039 349.042 749.611 349.755 749.611L367.877 751.608C368.447 751.608 368.876 752.179 368.876 752.892C368.59 753.463 368.162 753.891 367.591 753.891Z" fill="#A42B19"/>
<path d="M361.169 812.82L343.048 810.822C342.477 810.822 342.049 810.252 342.049 809.538C342.049 808.825 342.62 808.539 343.333 808.539L361.455 810.537C362.026 810.537 362.454 811.108 362.454 811.821C362.311 812.392 361.74 812.82 361.169 812.82Z" fill="#A42B19"/>
<path d="M596.318 835.363C590.039 860.903 564.356 876.598 538.672 870.463L381.573 832.224C356.032 825.946 340.336 800.263 346.471 774.58C352.75 749.039 378.434 733.344 404.117 739.479L561.217 777.861C586.758 783.997 602.453 809.822 596.318 835.363Z" fill="#E34033"/>
<path d="M596.318 835.362C590.039 860.902 564.356 876.597 538.672 870.462L381.573 832.223C356.032 825.944 340.336 800.261 346.471 774.578L596.318 835.362Z" fill="#BF304A"/>
<path d="M596.321 835.363C602.599 809.822 586.903 783.997 561.219 777.719C535.678 771.44 509.852 787.136 503.574 812.819C497.295 838.359 512.991 864.185 538.675 870.463C564.216 876.598 590.042 861.046 596.321 835.363Z" fill="#1E193D"/>
<path d="M380.003 826.232C379.718 826.232 379.432 826.09 379.29 825.947C366.876 813.962 361.597 796.126 365.734 779.289C369.73 762.595 382.572 749.041 399.266 744.047C399.837 743.904 400.407 744.189 400.693 744.76C400.836 745.331 400.55 745.901 399.979 746.187C384.141 750.895 371.87 763.737 368.017 779.717C364.165 795.698 369.159 812.677 381.002 824.235C381.43 824.663 381.43 825.376 381.002 825.804C380.574 826.09 380.289 826.232 380.003 826.232Z" fill="#1E193D"/>
<path d="M498.006 854.91C497.721 854.91 497.436 854.768 497.293 854.625C484.879 842.64 479.6 824.804 483.738 807.968C487.876 791.274 500.575 777.719 517.269 772.867C517.84 772.725 518.411 773.01 518.696 773.581C518.839 774.152 518.553 774.722 517.983 775.008C502.144 779.716 489.873 792.558 486.021 808.538C482.168 824.519 487.162 841.498 499.005 853.055C499.433 853.484 499.433 854.197 499.005 854.625C498.577 854.768 498.292 854.91 498.006 854.91Z" fill="#1E193D"/>
<path d="M180.204 831.902L177.191 837.41L182.699 840.423L185.712 834.915L180.204 831.902Z" fill="#1E193D"/>
<path d="M514.694 838.786C514.266 838.786 513.838 838.501 513.696 837.93C513.553 837.359 513.838 836.788 514.409 836.503L531.817 831.366C532.388 831.224 532.958 831.509 533.244 832.08C533.387 832.651 533.101 833.221 532.53 833.507L515.123 838.643C514.98 838.786 514.837 838.786 514.694 838.786Z" fill="#A42B19"/>
<path d="M518.264 806.967C517.836 806.967 517.408 806.682 517.266 806.111C517.123 805.54 517.408 804.97 517.979 804.684L535.387 799.548C535.958 799.405 536.528 799.69 536.814 800.261C536.957 800.832 536.671 801.403 536.1 801.688L518.692 806.825C518.407 806.825 518.407 806.967 518.264 806.967Z" fill="#A42B19"/>
<path d="M534.957 863.757C534.529 863.757 534.101 863.472 533.958 862.901C533.816 862.33 534.101 861.759 534.672 861.474L552.08 856.337C552.651 856.195 553.221 856.48 553.507 857.051C553.649 857.621 553.364 858.192 552.793 858.478L535.385 863.614C535.1 863.757 535.1 863.757 534.957 863.757Z" fill="#A42B19"/>
<path d="M750.559 768.586C757.979 793.841 743.425 820.38 718.169 827.8L585.755 866.61C560.499 874.029 533.959 859.476 526.539 834.221C519.12 808.966 533.674 782.427 558.929 775.007L691.344 736.197C716.599 728.92 743.139 743.331 750.559 768.586Z" fill="#E34033"/>
<path d="M750.559 768.585C757.979 793.84 743.425 820.379 718.169 827.799L585.755 866.608C560.499 874.028 533.96 859.474 526.54 834.219L750.559 768.585Z" fill="#BF304A"/>
<path d="M691.346 736.339C666.09 743.759 651.536 770.298 658.956 795.553C666.376 820.808 692.916 835.362 718.171 827.942C751.988 817.954 776.103 790.987 783.95 759.026C760.121 736.197 725.306 726.352 691.346 736.339Z" fill="#F6921E"/>
<path d="M578.192 863.042C578.049 863.042 578.049 863.042 577.907 863.042C561.07 858.904 547.657 845.92 542.806 829.511C537.954 812.96 542.378 794.839 554.221 782.283C554.649 781.855 555.362 781.855 555.79 782.283C556.218 782.711 556.218 783.424 555.79 783.852C544.518 795.838 540.237 813.102 544.946 828.94C549.512 844.778 562.354 857.049 578.477 861.044C579.048 861.187 579.476 861.758 579.334 862.328C579.048 862.756 578.62 863.042 578.192 863.042Z" fill="#1E193D"/>
<path d="M676.363 834.363C676.221 834.363 676.221 834.363 676.078 834.363C659.241 830.225 645.828 817.241 640.977 800.832C636.125 784.281 640.549 766.16 652.392 753.604C652.82 753.176 653.533 753.176 653.961 753.604C654.389 754.032 654.389 754.746 653.961 755.174C642.689 767.159 638.408 784.424 643.117 800.262C647.683 816.1 660.525 828.37 676.506 832.365C677.077 832.508 677.505 833.079 677.362 833.65C677.362 833.935 676.934 834.363 676.363 834.363Z" fill="#1E193D"/>
<path d="M768.253 787.991C768.11 787.991 768.11 787.991 767.967 787.991C758.55 785.709 751.13 778.432 748.419 769.3C745.708 760.168 748.134 750.038 754.697 743.046C755.125 742.618 755.839 742.618 756.267 743.046C756.695 743.474 756.695 744.188 756.267 744.616C750.131 751.036 747.991 760.311 750.417 768.729C752.842 777.148 759.834 783.711 768.395 785.851C768.966 785.994 769.394 786.565 769.252 787.135C769.252 787.706 768.681 787.991 768.253 787.991Z" fill="#EE6A23"/>
<path d="M694.898 773.911L666.826 782.13L672.8 802.533L700.872 794.314L694.898 773.911Z" fill="#EE6A23"/>
<path d="M792.796 761.168L778.242 765.448L775.103 754.889L789.657 750.609L792.796 761.168Z" fill="#EE6A23"/>
<path d="M676.026 785.731L673.018 791.242L678.529 794.249L681.537 788.739L676.026 785.731Z" fill="#1E193D"/>
<path d="M478.028 1317.63C477.457 1317.63 476.886 1317.2 476.886 1316.49C476.886 1315.78 477.314 1315.35 478.028 1315.35C648.254 1315.35 786.804 1176.8 786.804 1006.58V759.739C786.804 759.168 787.232 758.597 787.945 758.597C788.659 758.597 789.087 759.025 789.087 759.739V1006.58C788.944 1178.09 649.396 1317.63 478.028 1317.63Z" fill="#1E193D"/>
<path d="M331.626 1012.57V1034.12C331.626 1038.69 327.917 1042.4 323.351 1042.4C318.785 1042.4 315.075 1038.69 315.075 1034.12V1012.57H331.626Z" fill="#939597"/>
<path d="M339.475 923.966H307.085V1019.71H339.475V923.966Z" fill="#1E193D"/>
<path d="M331.483 848.63H314.932V938.236H331.483V848.63Z" fill="#36364A"/>
<path d="M345.754 923.966H300.807V987.746H345.754V923.966Z" fill="#BF304A"/>
<path d="M323.355 646.161C322.499 646.161 321.643 645.448 321.643 644.449V546.425C321.643 545.569 322.357 544.713 323.355 544.713C324.211 544.713 325.068 545.427 325.068 546.425V644.449C324.925 645.448 324.211 646.161 323.355 646.161Z" fill="#F6921E"/>
<path d="M327.351 555.986H319.36V572.395H327.351V555.986Z" fill="#1E193D"/>
<path d="M327.351 588.803H319.36V605.211H327.351V588.803Z" fill="#1E193D"/>
<path d="M318.36 546.426V534.441C318.36 531.73 320.5 529.59 323.211 529.59C325.923 529.59 328.063 531.73 328.063 534.441V546.426H318.36Z" fill="#D9332D"/>
<path d="M297.857 643.69L265.889 771.298L269.072 772.095L301.041 644.487L297.857 643.69Z" fill="#EE6A23"/>
<path d="M348.727 643.74L345.543 644.538L377.498 772.158L380.682 771.361L348.727 643.74Z" fill="#F6921E"/>
<path d="M405.255 832.364L385.136 852.483H261.426L241.307 832.364V787.134L261.426 767.015H385.136L405.255 787.134V832.364Z" fill="#9BD2D8"/>
<path d="M357.883 715.791H288.679V767.015H357.883V715.791Z" fill="#F6921E"/>
<path d="M355.74 637.032H290.818V652.014H355.74V637.032Z" fill="#F6921E"/>
<path d="M305.659 715.791H288.679V767.015H305.659V715.791Z" fill="#EE6A23"/>
<path d="M385.136 852.482L405.255 832.364H241.307L261.426 852.482H385.136Z" fill="#51A8B7"/>
<path d="M261.426 767.015L241.307 787.134H405.255L385.136 767.015H261.426Z" fill="#F7F3E8"/>
<path d="M355.743 643.023C355.173 643.023 354.745 642.595 354.745 642.024V623.903H291.962V642.024C291.962 642.595 291.534 643.023 290.963 643.023C290.392 643.023 289.964 642.595 289.964 642.024V621.763H357.028V642.024C356.742 642.595 356.314 643.023 355.743 643.023Z" fill="#1E193D"/>
<path d="M307.088 643.023C306.518 643.023 306.089 642.595 306.089 642.024V622.762C306.089 622.191 306.518 621.763 307.088 621.763C307.659 621.763 308.087 622.191 308.087 622.762V641.881C308.087 642.595 307.659 643.023 307.088 643.023Z" fill="#1E193D"/>
<path d="M323.351 643.022C322.781 643.022 322.353 642.594 322.353 642.024V622.761C322.353 622.191 322.781 621.763 323.351 621.763C323.922 621.763 324.35 622.191 324.35 622.761V641.881C324.35 642.594 323.922 643.022 323.351 643.022Z" fill="#1E193D"/>
<path d="M339.476 643.022C338.905 643.022 338.477 642.594 338.477 642.024V622.761C338.477 622.191 338.905 621.763 339.476 621.763C340.047 621.763 340.475 622.191 340.475 622.761V641.881C340.617 642.594 340.047 643.022 339.476 643.022Z" fill="#1E193D"/>
<path d="M353.743 727.206H292.815C292.244 727.206 291.674 726.778 291.674 726.065C291.674 725.494 292.102 724.924 292.815 724.924H353.743C354.314 724.924 354.884 725.352 354.884 726.065C354.884 726.636 354.314 727.206 353.743 727.206Z" fill="#1E193D"/>
<path d="M341.615 934.24H304.944C304.373 934.24 303.802 933.812 303.802 933.098C303.802 932.528 304.23 931.957 304.944 931.957H341.615C342.185 931.957 342.756 932.385 342.756 933.098C342.756 933.812 342.185 934.24 341.615 934.24Z" fill="#1E193D"/>
<path d="M341.614 944.942H304.944C304.373 944.942 303.802 944.514 303.802 943.801C303.802 943.23 304.23 942.659 304.944 942.659H341.614C342.185 942.659 342.756 943.087 342.756 943.801C342.756 944.371 342.185 944.942 341.614 944.942Z" fill="#1E193D"/>
<path d="M323.352 982.039L319.356 978.187L323.352 974.335L327.204 978.187L323.352 982.039Z" fill="#1E193D"/>
<path d="M323.352 918.544L319.356 914.549L323.352 910.697L327.204 914.549L323.352 918.544Z" fill="#1E193D"/>
<path d="M323.35 1318.06C322.779 1318.06 322.208 1317.63 322.208 1316.92V1035.4C322.208 1034.83 322.636 1034.26 323.35 1034.26C323.92 1034.26 324.491 1034.69 324.491 1035.4V1317.06C324.349 1317.63 323.92 1318.06 323.35 1318.06Z" fill="#1E193D"/>
<path d="M1.59142 814.387C0.877978 814.387 0.164539 813.816 0.0218517 813.103C-0.120836 812.247 0.449915 811.39 1.30604 811.105C8.01237 809.821 15.1468 808.822 22.2811 808.251C23.1373 808.109 23.9934 808.822 24.1361 809.821C24.2788 810.677 23.5653 811.533 22.5665 811.676C15.4321 812.247 8.58312 813.245 1.87679 814.529C1.7341 814.387 1.59142 814.387 1.59142 814.387Z" fill="#F7F3E8"/>
<path d="M75.3631 813.815C75.2204 813.815 75.2204 813.815 75.0777 813.815C66.8018 812.388 58.2406 811.532 49.5366 811.104C48.6805 811.104 47.967 810.248 47.967 809.392C47.967 808.535 48.8232 807.679 49.6793 807.822C58.5259 808.25 67.2299 809.106 75.6485 810.533C76.5046 810.676 77.218 811.532 77.0754 812.388C76.9327 813.244 76.2192 813.815 75.3631 813.815Z" fill="#F7F3E8"/>
<path d="M120.165 828.653C119.88 828.653 119.737 828.653 119.452 828.511L109.464 823.945C103.756 821.376 97.3351 819.093 90.3434 817.096C89.4873 816.811 88.9165 815.954 89.2019 815.098C89.4873 814.242 90.3434 813.671 91.1996 813.957C98.3339 815.954 105.04 818.237 110.89 820.948L120.879 825.514C121.735 825.942 122.02 826.941 121.735 827.654C121.307 828.368 120.736 828.653 120.165 828.653Z" fill="#F7F3E8"/>
<path d="M208.488 852.197C183.375 851.769 159.831 846.917 142.138 838.927C141.282 838.499 140.997 837.5 141.282 836.787C141.71 835.931 142.709 835.645 143.422 835.931C160.688 843.921 183.803 848.487 208.488 848.915C209.344 848.915 210.2 849.628 210.058 850.627C210.058 851.483 209.344 852.197 208.488 852.197Z" fill="#F7F3E8"/>
<path d="M243.733 850.057C242.876 850.057 242.163 849.486 242.163 848.63C242.02 847.774 242.591 846.918 243.59 846.775C258.144 844.635 271.414 840.925 282.258 835.931L299.666 827.941C300.522 827.513 301.521 827.941 301.807 828.797C302.235 829.653 301.807 830.652 300.95 830.937L283.543 838.928C272.27 844.064 259 847.774 244.018 850.057C243.875 850.057 243.733 850.057 243.733 850.057Z" fill="#F7F3E8"/>
<path d="M315.503 824.088C314.932 824.088 314.219 823.66 313.934 823.089C313.506 822.233 313.934 821.234 314.79 820.949C339.76 809.534 376.716 804.968 411.104 809.106C411.96 809.249 412.674 810.105 412.531 810.961C412.388 811.817 411.675 812.53 410.676 812.388C376.859 808.25 340.616 812.816 316.217 823.945C315.931 824.088 315.646 824.088 315.503 824.088Z" fill="#F7F3E8"/>
<path d="M455.483 824.087C455.197 824.087 455.055 824.087 454.769 823.944C446.636 820.235 437.219 817.238 426.66 814.955C425.804 814.813 425.233 813.957 425.376 812.958C425.518 812.102 426.374 811.531 427.373 811.674C438.075 813.957 447.778 816.953 456.196 820.805C457.052 821.233 457.338 822.232 457.052 822.946C456.767 823.802 456.196 824.087 455.483 824.087Z" fill="#F7F3E8"/>
<path d="M558.217 852.34C531.677 852.34 506.279 847.631 487.587 838.928L480.167 835.503C479.311 835.075 479.025 834.077 479.311 833.363C479.739 832.507 480.738 832.222 481.451 832.507L488.871 835.931C509.275 845.206 537.67 849.914 566.636 848.773C567.492 848.773 568.348 849.486 568.348 850.342C568.348 851.199 567.634 852.055 566.778 852.055C563.925 852.197 561.071 852.34 558.217 852.34Z" fill="#F7F3E8"/>
<path d="M579.761 851.198C578.905 851.198 578.191 850.628 578.049 849.771C577.906 848.915 578.619 848.059 579.475 847.917C585.611 847.346 591.461 846.49 597.169 845.348C599.594 844.92 601.877 844.349 604.16 843.779C605.017 843.493 606.015 844.064 606.158 845.063C606.443 845.919 605.873 846.918 604.874 847.06C602.591 847.631 600.165 848.202 597.74 848.63C592.032 849.772 585.896 850.628 579.761 851.341C579.903 851.198 579.903 851.198 579.761 851.198Z" fill="#F7F3E8"/>
<path d="M628.276 839.068C627.705 839.068 626.991 838.64 626.706 838.07C626.278 837.213 626.706 836.215 627.562 835.929L660.238 820.947C672.937 815.097 688.918 810.96 706.183 808.962C707.039 808.819 707.895 809.533 708.038 810.389C708.181 811.245 707.467 812.101 706.611 812.244C689.631 814.241 674.078 818.236 661.664 823.944L628.989 838.926C628.704 839.068 628.418 839.068 628.276 839.068Z" fill="#F7F3E8"/>
<path d="M819.334 832.506C819.049 832.506 818.906 832.506 818.621 832.364L800.214 823.945C783.234 816.24 760.547 811.532 736.433 810.961C735.577 810.961 734.863 810.105 734.863 809.249C734.863 808.393 735.576 807.679 736.575 807.679C761.118 808.25 784.233 812.959 801.641 820.949L820.048 829.367C820.904 829.795 821.189 830.794 820.904 831.507C820.618 832.221 820.048 832.506 819.334 832.506Z" fill="#F7F3E8"/>
<path d="M885.401 851.482C885.401 851.482 885.258 851.482 885.401 851.482C874.842 850.626 864.854 848.914 855.579 846.631C847.303 844.491 839.598 841.922 832.892 838.783C832.036 838.355 831.75 837.357 832.036 836.643C832.464 835.787 833.462 835.502 834.176 835.787C840.74 838.783 848.159 841.352 856.293 843.349C865.282 845.632 875.127 847.202 885.401 848.058C886.257 848.201 886.97 848.914 886.97 849.913C886.97 850.912 886.257 851.482 885.401 851.482Z" fill="#F7F3E8"/>
<path d="M903.664 852.34C902.665 852.34 901.809 852.34 900.81 852.34C899.954 852.34 899.098 851.627 899.24 850.628C899.24 849.772 899.954 849.058 900.953 849.058C911.654 849.201 922.07 848.488 932.344 847.203C933.2 847.061 934.056 847.774 934.199 848.63C934.342 849.486 933.628 850.342 932.772 850.485C923.212 851.627 913.509 852.34 903.664 852.34Z" fill="#F7F3E8"/>
<path d="M1918.26 812.951C1919.04 812.951 1919.82 812.328 1919.98 811.549C1920.13 810.614 1919.51 809.679 1918.57 809.367C1911.25 807.965 1903.46 806.874 1895.67 806.251C1894.73 806.095 1893.8 806.874 1893.64 807.965C1893.48 808.9 1894.26 809.835 1895.35 809.991C1903.15 810.614 1910.63 811.705 1917.95 813.107C1918.11 812.951 1918.26 812.951 1918.26 812.951Z" fill="#F7F3E8"/>
<path d="M1837.7 812.327C1837.85 812.327 1837.85 812.327 1838.01 812.327C1847.05 810.768 1856.4 809.834 1865.9 809.366C1866.84 809.366 1867.62 808.431 1867.62 807.496C1867.62 806.561 1866.68 805.626 1865.75 805.782C1856.08 806.249 1846.58 807.184 1837.38 808.743C1836.45 808.899 1835.67 809.834 1835.83 810.768C1835.98 811.703 1836.76 812.327 1837.7 812.327Z" fill="#F7F3E8"/>
<path d="M1788.77 828.532C1789.08 828.532 1789.23 828.532 1789.55 828.376L1800.45 823.39C1806.69 820.585 1813.7 818.091 1821.34 815.91C1822.27 815.598 1822.89 814.663 1822.58 813.728C1822.27 812.793 1821.34 812.17 1820.4 812.482C1812.61 814.663 1805.28 817.156 1798.9 820.117L1787.99 825.104C1787.05 825.571 1786.74 826.662 1787.05 827.441C1787.52 828.22 1788.14 828.532 1788.77 828.532Z" fill="#F7F3E8"/>
<path d="M1692.31 854.244C1719.73 853.777 1745.45 848.478 1764.77 839.752C1765.7 839.285 1766.02 838.194 1765.7 837.415C1765.24 836.48 1764.15 836.168 1763.37 836.48C1744.51 845.206 1719.27 850.193 1692.31 850.66C1691.37 850.66 1690.44 851.439 1690.59 852.53C1690.59 853.465 1691.37 854.244 1692.31 854.244Z" fill="#F7F3E8"/>
<path d="M1653.82 851.907C1654.75 851.907 1655.53 851.284 1655.53 850.349C1655.69 849.414 1655.06 848.479 1653.97 848.323C1638.08 845.986 1623.58 841.934 1611.74 836.48L1592.73 827.754C1591.79 827.286 1590.7 827.754 1590.39 828.689C1589.92 829.624 1590.39 830.714 1591.33 831.026L1610.34 839.752C1622.65 845.362 1637.14 849.414 1653.5 851.907C1653.66 851.907 1653.82 851.907 1653.82 851.907Z" fill="#F7F3E8"/>
<path d="M1575.43 823.546C1576.06 823.546 1576.84 823.078 1577.15 822.455C1577.62 821.52 1577.15 820.429 1576.21 820.117C1548.94 807.651 1508.58 802.665 1471.03 807.184C1470.09 807.34 1469.31 808.275 1469.47 809.21C1469.62 810.145 1470.4 810.924 1471.49 810.768C1508.43 806.249 1548.01 811.235 1574.65 823.39C1574.97 823.546 1575.28 823.546 1575.43 823.546Z" fill="#F7F3E8"/>
<path d="M1422.56 823.545C1422.87 823.545 1423.03 823.545 1423.34 823.389C1432.22 819.338 1442.51 816.065 1454.04 813.572C1454.97 813.416 1455.6 812.481 1455.44 811.39C1455.28 810.455 1454.35 809.832 1453.26 809.988C1441.57 812.481 1430.97 815.753 1421.78 819.961C1420.84 820.428 1420.53 821.519 1420.84 822.298C1421.16 823.233 1421.78 823.545 1422.56 823.545Z" fill="#F7F3E8"/>
<path d="M1310.36 854.4C1339.35 854.4 1367.08 849.258 1387.5 839.753L1395.6 836.013C1396.54 835.545 1396.85 834.455 1396.54 833.675C1396.07 832.741 1394.98 832.429 1394.2 832.741L1386.1 836.48C1363.81 846.609 1332.8 851.751 1301.17 850.505C1300.23 850.505 1299.3 851.284 1299.3 852.219C1299.3 853.154 1300.08 854.089 1301.01 854.089C1304.13 854.245 1307.25 854.4 1310.36 854.4Z" fill="#F7F3E8"/>
<path d="M1286.83 853.153C1287.77 853.153 1288.55 852.53 1288.7 851.595C1288.86 850.66 1288.08 849.725 1287.14 849.569C1280.44 848.946 1274.05 848.011 1267.82 846.765C1265.17 846.297 1262.68 845.674 1260.19 845.05C1259.25 844.739 1258.16 845.362 1258 846.453C1257.69 847.388 1258.32 848.479 1259.41 848.634C1261.9 849.258 1264.55 849.881 1267.2 850.349C1273.43 851.595 1280.13 852.53 1286.83 853.309C1286.68 853.153 1286.68 853.153 1286.83 853.153Z" fill="#F7F3E8"/>
<path d="M1233.85 839.906C1234.47 839.906 1235.25 839.439 1235.56 838.815C1236.03 837.88 1235.56 836.79 1234.63 836.478L1198.94 820.116C1185.07 813.727 1167.62 809.208 1148.76 807.027C1147.83 806.871 1146.89 807.65 1146.74 808.585C1146.58 809.52 1147.36 810.455 1148.3 810.611C1166.84 812.792 1183.83 817.155 1197.38 823.388L1233.07 839.75C1233.38 839.906 1233.69 839.906 1233.85 839.906Z" fill="#F7F3E8"/>
<path d="M1025.19 832.74C1025.5 832.74 1025.66 832.74 1025.97 832.584L1046.07 823.391C1064.62 814.976 1089.39 809.834 1115.73 809.21C1116.66 809.21 1117.44 808.275 1117.44 807.34C1117.44 806.406 1116.66 805.626 1115.57 805.626C1088.77 806.25 1063.53 811.392 1044.51 820.118L1024.41 829.312C1023.48 829.78 1023.17 830.87 1023.48 831.65C1023.79 832.429 1024.41 832.74 1025.19 832.74Z" fill="#F7F3E8"/>
<path d="M953.038 853.464C953.038 853.464 953.194 853.464 953.038 853.464C964.57 852.529 975.478 850.659 985.607 848.166C994.646 845.828 1003.06 843.023 1010.38 839.595C1011.32 839.128 1011.63 838.037 1011.32 837.258C1010.85 836.323 1009.76 836.011 1008.98 836.323C1001.81 839.595 993.711 842.4 984.828 844.582C975.011 847.075 964.258 848.789 953.038 849.724C952.103 849.88 951.324 850.659 951.324 851.75C951.324 852.84 952.103 853.464 953.038 853.464Z" fill="#F7F3E8"/>
<path d="M933.094 854.401C934.184 854.401 935.119 854.401 936.21 854.401C937.145 854.401 938.08 853.622 937.924 852.531C937.924 851.596 937.145 850.817 936.054 850.817C924.367 850.973 912.991 850.194 901.771 848.791C900.836 848.635 899.901 849.414 899.746 850.349C899.59 851.284 900.369 852.219 901.304 852.375C911.745 853.622 922.341 854.401 933.094 854.401Z" fill="#F7F3E8"/>
<path d="M845.163 1006.44H821.905C821.049 1006.44 820.193 1005.72 820.193 1004.73C820.193 1003.73 820.906 1003.01 821.905 1003.01H845.163C846.019 1003.01 846.875 1003.73 846.875 1004.73C846.875 1005.72 846.162 1006.44 845.163 1006.44Z" fill="#F7F3E8"/>
<path d="M875.268 960.493H844.305C843.449 960.493 842.593 959.779 842.593 958.781C842.593 957.782 843.306 957.068 844.305 957.068H875.268C876.124 957.068 876.98 957.782 876.98 958.781C876.98 959.779 876.124 960.493 875.268 960.493Z" fill="#F7F3E8"/>
<path d="M234.173 960.493H203.21C202.354 960.493 201.497 959.779 201.497 958.781C201.497 957.782 202.211 957.068 203.21 957.068H234.173C235.029 957.068 235.885 957.782 235.885 958.781C235.885 959.779 235.172 960.493 234.173 960.493Z" fill="#F7F3E8"/>
<path d="M652.818 918.259H639.263C638.407 918.259 637.551 917.545 637.551 916.547C637.551 915.691 638.264 914.834 639.263 914.834H652.818C653.674 914.834 654.531 915.548 654.531 916.547C654.388 917.545 653.674 918.259 652.818 918.259Z" fill="#F7F3E8"/>
<path d="M689.202 918.259H667.085C666.229 918.259 665.373 917.545 665.373 916.547C665.373 915.691 666.087 914.834 667.085 914.834H689.202C690.058 914.834 690.914 915.548 690.914 916.547C690.771 917.545 690.058 918.259 689.202 918.259Z" fill="#F7F3E8"/>
<path d="M893.248 980.327H873.414C872.558 980.327 871.702 979.613 871.702 978.615C871.702 977.759 872.415 976.902 873.414 976.902H893.248C894.104 976.902 894.96 977.616 894.96 978.615C894.817 979.613 894.104 980.327 893.248 980.327Z" fill="#F7F3E8"/>
<path d="M539.094 1014.14H509.13C508.273 1014.14 507.417 1013.43 507.417 1012.43C507.417 1011.57 508.131 1010.72 509.13 1010.72H539.094C539.95 1010.72 540.806 1011.43 540.806 1012.43C540.806 1013.43 540.093 1014.14 539.094 1014.14Z" fill="#F7F3E8"/>
<path d="M112.174 981.468H79.0704C78.2143 981.468 77.3582 980.755 77.3582 979.756C77.3582 978.757 78.0716 978.044 79.0704 978.044H112.174C113.03 978.044 113.886 978.757 113.886 979.756C113.886 980.755 113.173 981.468 112.174 981.468Z" fill="#F7F3E8"/>
<path d="M134.003 957.925H115.169C114.312 957.925 113.456 957.211 113.456 956.212C113.456 955.356 114.17 954.5 115.169 954.5H134.003C134.859 954.5 135.716 955.214 135.716 956.212C135.716 957.211 135.002 957.925 134.003 957.925Z" fill="#F7F3E8"/>
<path d="M211.485 989.457H186.229C185.373 989.457 184.517 988.743 184.517 987.744C184.517 986.888 185.23 986.032 186.229 986.032H211.485C212.341 986.032 213.197 986.746 213.197 987.744C213.054 988.6 212.341 989.457 211.485 989.457Z" fill="#F7F3E8"/>
<path d="M123.732 892.719H96.6214C95.7653 892.719 94.9092 892.005 94.9092 891.007C94.9092 890.151 95.6226 889.294 96.6214 889.294H123.732C124.588 889.294 125.444 890.008 125.444 891.007C125.302 892.005 124.588 892.719 123.732 892.719Z" fill="#F7F3E8"/>
<path d="M554.219 1036.97H528.964C528.107 1036.97 527.251 1036.26 527.251 1035.26C527.251 1034.4 527.965 1033.55 528.964 1033.55H554.219C555.075 1033.55 555.932 1034.26 555.932 1035.26C555.789 1036.26 555.075 1036.97 554.219 1036.97Z" fill="#F7F3E8"/>
<path d="M441.927 973.478H414.816C413.96 973.478 413.104 972.764 413.104 971.766C413.104 970.909 413.817 970.053 414.816 970.053H441.927C442.783 970.053 443.639 970.767 443.639 971.766C443.639 972.764 442.926 973.478 441.927 973.478Z" fill="#F7F3E8"/>
<path d="M377.574 874.455H358.596C357.74 874.455 356.884 873.741 356.884 872.742C356.884 871.886 357.597 871.03 358.596 871.03H377.574C378.43 871.03 379.286 871.744 379.286 872.742C379.286 873.741 378.573 874.455 377.574 874.455Z" fill="#F7F3E8"/>
<path d="M418.526 874.455H396.552C395.695 874.455 394.839 873.741 394.839 872.742C394.839 871.886 395.553 871.03 396.552 871.03H418.383C419.239 871.03 420.095 871.744 420.095 872.742C420.095 873.741 419.382 874.455 418.526 874.455Z" fill="#F7F3E8"/>
<path d="M386.136 857.19H368.157C367.301 857.19 366.445 856.477 366.445 855.478C366.445 854.622 367.159 853.766 368.157 853.766H386.136C386.992 853.766 387.848 854.479 387.848 855.478C387.706 856.477 386.992 857.19 386.136 857.19Z" fill="#F7F3E8"/>
<path d="M1773.45 1006.44H1750.19C1749.33 1006.44 1748.48 1005.72 1748.48 1004.73C1748.48 1003.73 1749.19 1003.01 1750.19 1003.01H1773.45C1774.3 1003.01 1775.16 1003.73 1775.16 1004.73C1775.16 1005.72 1774.45 1006.44 1773.45 1006.44Z" fill="#F7F3E8"/>
<path d="M1803.55 960.493H1772.59C1771.73 960.493 1770.88 959.779 1770.88 958.781C1770.88 957.782 1771.59 957.068 1772.59 957.068H1803.55C1804.41 957.068 1805.26 957.782 1805.26 958.781C1805.26 959.779 1804.41 960.493 1803.55 960.493Z" fill="#F7F3E8"/>
<path d="M1162.46 960.493H1131.49C1130.64 960.493 1129.78 959.779 1129.78 958.781C1129.78 957.782 1130.5 957.068 1131.49 957.068H1162.46C1163.31 957.068 1164.17 957.782 1164.17 958.781C1164.17 959.779 1163.46 960.493 1162.46 960.493Z" fill="#F7F3E8"/>
<path d="M1581.1 918.259H1567.55C1566.69 918.259 1565.84 917.545 1565.84 916.547C1565.84 915.691 1566.55 914.834 1567.55 914.834H1581.1C1581.96 914.834 1582.82 915.548 1582.82 916.547C1582.67 917.545 1581.96 918.259 1581.1 918.259Z" fill="#F7F3E8"/>
<path d="M1617.49 918.259H1595.37C1594.51 918.259 1593.66 917.545 1593.66 916.547C1593.66 915.691 1594.37 914.834 1595.37 914.834H1617.49C1618.34 914.834 1619.2 915.548 1619.2 916.547C1619.06 917.545 1618.34 918.259 1617.49 918.259Z" fill="#F7F3E8"/>
<path d="M1821.53 980.327H1801.7C1800.84 980.327 1799.99 979.613 1799.99 978.615C1799.99 977.759 1800.7 976.902 1801.7 976.902H1821.53C1822.39 976.902 1823.24 977.616 1823.24 978.615C1823.1 979.613 1822.39 980.327 1821.53 980.327Z" fill="#F7F3E8"/>
<path d="M1467.38 1014.14H1437.41C1436.56 1014.14 1435.7 1013.43 1435.7 1012.43C1435.7 1011.57 1436.42 1010.72 1437.41 1010.72H1467.38C1468.23 1010.72 1469.09 1011.43 1469.09 1012.43C1469.09 1013.43 1468.38 1014.14 1467.38 1014.14Z" fill="#F7F3E8"/>
<path d="M1040.46 981.468H1007.35C1006.5 981.468 1005.64 980.755 1005.64 979.756C1005.64 978.757 1006.36 978.044 1007.35 978.044H1040.46C1041.31 978.044 1042.17 978.757 1042.17 979.756C1042.17 980.755 1041.46 981.468 1040.46 981.468Z" fill="#F7F3E8"/>
<path d="M1062.29 957.925H1043.45C1042.6 957.925 1041.74 957.211 1041.74 956.212C1041.74 955.356 1042.45 954.5 1043.45 954.5H1062.29C1063.14 954.5 1064 955.214 1064 956.212C1064 957.211 1063.29 957.925 1062.29 957.925Z" fill="#F7F3E8"/>
<path d="M1139.77 989.457H1114.51C1113.66 989.457 1112.8 988.743 1112.8 987.744C1112.8 986.888 1113.51 986.032 1114.51 986.032H1139.77C1140.63 986.032 1141.48 986.746 1141.48 987.744C1141.34 988.6 1140.63 989.457 1139.77 989.457Z" fill="#F7F3E8"/>
<path d="M1052.02 892.719H1024.91C1024.05 892.719 1023.19 892.005 1023.19 891.007C1023.19 890.151 1023.91 889.294 1024.91 889.294H1052.02C1052.87 889.294 1053.73 890.008 1053.73 891.007C1053.59 892.005 1052.87 892.719 1052.02 892.719Z" fill="#F7F3E8"/>
<path d="M1482.5 1036.97H1457.25C1456.39 1036.97 1455.54 1036.26 1455.54 1035.26C1455.54 1034.4 1456.25 1033.55 1457.25 1033.55H1482.5C1483.36 1033.55 1484.22 1034.26 1484.22 1035.26C1484.07 1036.26 1483.36 1036.97 1482.5 1036.97Z" fill="#F7F3E8"/>
<path d="M1370.21 973.478H1343.1C1342.24 973.478 1341.39 972.764 1341.39 971.766C1341.39 970.909 1342.1 970.053 1343.1 970.053H1370.21C1371.07 970.053 1371.92 970.767 1371.92 971.766C1371.92 972.764 1371.21 973.478 1370.21 973.478Z" fill="#F7F3E8"/>
<path d="M1305.86 874.455H1286.88C1286.02 874.455 1285.17 873.741 1285.17 872.742C1285.17 871.886 1285.88 871.03 1286.88 871.03H1305.86C1306.71 871.03 1307.57 871.744 1307.57 872.742C1307.57 873.741 1306.86 874.455 1305.86 874.455Z" fill="#F7F3E8"/>
<path d="M1346.81 874.455H1324.84C1323.98 874.455 1323.12 873.741 1323.12 872.742C1323.12 871.886 1323.84 871.03 1324.84 871.03H1346.67C1347.52 871.03 1348.38 871.744 1348.38 872.742C1348.38 873.741 1347.67 874.455 1346.81 874.455Z" fill="#F7F3E8"/>
<path d="M1314.42 857.19H1296.44C1295.59 857.19 1294.73 856.477 1294.73 855.478C1294.73 854.622 1295.44 853.766 1296.44 853.766H1314.42C1315.28 853.766 1316.13 854.479 1316.13 855.478C1315.99 856.477 1315.28 857.19 1314.42 857.19Z" fill="#F7F3E8"/>
</g>
<defs>
<clipPath id="clip0">
<rect width="1920" height="1080" fill="white"/>
</clipPath>
</defs>
</svg>
