<svg width="375" height="667" viewBox="0 0 375 667" fill="none" xmlns="http://www.w3.org/2000/svg">
<g clip-path="url(#clip0)">
<path d="M53.2947 527.016C63.0121 524.161 59.8281 516.53 56.9731 506.812C54.1181 497.095 52.6907 488.97 42.973 491.825C29.9613 495.613 20.683 506.044 17.6633 518.341C26.832 527.071 40.2831 530.859 53.2947 527.016Z" fill="#F6921E"/>
<path d="M30.777 510.296L21.925 512.887L24.2237 520.738L33.0756 518.146L30.777 510.296Z" fill="#EE6A23"/>
<path d="M116.432 489.409C119.287 499.126 113.686 509.338 103.969 512.192L53.0199 527.125C43.3026 529.98 33.0908 524.38 30.2359 514.663C27.3809 504.945 32.9808 494.734 42.6985 491.879L93.6471 476.947C103.365 474.147 113.577 479.692 116.432 489.409Z" fill="#E34033"/>
<path d="M116.431 489.409C119.286 499.126 113.686 509.337 103.969 512.192L53.0196 527.125C43.3023 529.98 33.0906 524.38 30.2356 514.663L116.431 489.409Z" fill="#BF304A"/>
<path d="M116.432 489.409C113.577 479.692 103.365 474.092 93.6477 476.947C83.93 479.802 78.3301 489.958 81.1851 499.731C84.0401 509.448 94.1968 515.047 103.969 512.193C113.687 509.338 119.287 499.181 116.432 489.409Z" fill="#1E193D"/>
<path d="M50.5486 525.643C50.4935 525.643 50.4935 525.643 50.4389 525.643C43.9606 524.051 38.7997 519.055 36.9328 512.742C35.0663 506.373 36.7681 499.401 41.3249 494.57C41.49 494.405 41.7643 494.405 41.929 494.57C42.0937 494.734 42.0937 495.009 41.929 495.173C37.5919 499.785 35.9447 506.428 37.7566 512.522C39.5134 518.616 44.4546 523.337 50.6582 524.874C50.8779 524.93 51.0426 525.149 50.988 525.369C50.8779 525.533 50.7132 525.643 50.5486 525.643Z" fill="#1E193D"/>
<path d="M91.4526 495.119L84.4799 494.35C84.2601 494.35 84.0955 494.131 84.0955 493.856C84.0955 493.637 84.3152 493.472 84.5899 493.472L91.5623 494.241C91.782 494.241 91.9467 494.461 91.9467 494.735C91.8916 494.955 91.6719 495.119 91.4526 495.119Z" fill="#A42B19"/>
<path d="M97.4371 484.304C97.4371 484.304 97.3824 484.304 97.4371 484.304L90.4647 483.535C90.245 483.535 90.0803 483.316 90.0803 483.041C90.0803 482.822 90.3 482.657 90.5744 482.657L97.5471 483.425C97.7664 483.425 97.9315 483.645 97.9315 483.919C97.8215 484.139 97.6568 484.304 97.4371 484.304Z" fill="#A42B19"/>
<path d="M94.9661 506.978L87.9938 506.209C87.7741 506.209 87.6094 505.99 87.6094 505.715C87.6094 505.441 87.8291 505.331 88.1034 505.331L95.0762 506.099C95.2959 506.099 95.4606 506.319 95.4606 506.593C95.4055 506.813 95.1858 506.978 94.9661 506.978Z" fill="#A42B19"/>
<path d="M185.444 515.652C183.028 525.479 173.146 531.518 163.264 529.157L102.817 514.444C92.9897 512.028 86.9504 502.146 89.3109 492.264C91.7269 482.437 101.609 476.398 111.491 478.759L171.938 493.527C181.766 495.888 187.805 505.824 185.444 515.652Z" fill="#E34033"/>
<path d="M185.444 515.651C183.028 525.478 173.146 531.517 163.264 529.156L102.817 514.443C92.9897 512.027 86.9504 502.145 89.3109 492.263L185.444 515.651Z" fill="#BF304A"/>
<path d="M185.445 515.652C187.861 505.824 181.821 495.888 171.939 493.472C162.112 491.056 152.175 497.095 149.759 506.977C147.343 516.804 153.382 526.741 163.265 529.157C173.092 531.517 183.029 525.534 185.445 515.652Z" fill="#1E193D"/>
<path d="M102.213 512.138C102.104 512.138 101.993 512.084 101.939 512.029C97.1623 507.417 95.1312 500.554 96.7229 494.076C98.2605 487.653 103.202 482.438 109.625 480.516C109.845 480.461 110.064 480.571 110.174 480.79C110.229 481.01 110.119 481.229 109.899 481.34C103.805 483.151 99.0839 488.092 97.6014 494.241C96.1192 500.39 98.0408 506.923 102.598 511.37C102.762 511.535 102.762 511.809 102.598 511.974C102.433 512.084 102.323 512.138 102.213 512.138Z" fill="#1E193D"/>
<path d="M147.617 523.173C147.507 523.173 147.397 523.118 147.342 523.063C142.566 518.452 140.535 511.589 142.127 505.111C143.719 498.688 148.605 493.472 155.028 491.605C155.248 491.551 155.468 491.66 155.577 491.88C155.632 492.1 155.522 492.319 155.303 492.429C149.209 494.24 144.487 499.182 143.005 505.33C141.523 511.479 143.444 518.012 148.001 522.459C148.166 522.624 148.166 522.898 148.001 523.063C147.836 523.118 147.727 523.173 147.617 523.173Z" fill="#1E193D"/>
<path d="M25.3366 514.32L24.1772 516.439L26.2966 517.599L27.4559 515.479L25.3366 514.32Z" fill="#1E193D"/>
<path d="M154.038 516.969C153.873 516.969 153.708 516.859 153.654 516.639C153.599 516.42 153.708 516.2 153.928 516.09L160.626 514.114C160.846 514.059 161.065 514.169 161.175 514.388C161.23 514.608 161.12 514.827 160.9 514.938L154.203 516.914C154.148 516.969 154.093 516.969 154.038 516.969Z" fill="#A42B19"/>
<path d="M155.411 504.726C155.247 504.726 155.082 504.616 155.027 504.396C154.972 504.177 155.082 503.957 155.302 503.847L162 501.871C162.219 501.816 162.439 501.926 162.549 502.145C162.604 502.365 162.494 502.585 162.274 502.695L155.576 504.671C155.466 504.671 155.466 504.726 155.411 504.726Z" fill="#A42B19"/>
<path d="M161.834 526.577C161.67 526.577 161.505 526.467 161.45 526.247C161.395 526.028 161.505 525.808 161.725 525.698L168.423 523.722C168.642 523.667 168.862 523.777 168.972 523.996C169.026 524.216 168.917 524.435 168.697 524.545L161.999 526.522C161.889 526.577 161.889 526.577 161.834 526.577Z" fill="#A42B19"/>
<path d="M244.791 489.958C247.646 499.675 242.046 509.887 232.328 512.742L181.379 527.674C171.662 530.529 161.45 524.929 158.595 515.212C155.74 505.495 161.34 495.283 171.058 492.429L222.007 477.496C231.724 474.696 241.936 480.241 244.791 489.958Z" fill="#E34033"/>
<path d="M244.791 489.958C247.646 499.675 242.046 509.886 232.328 512.741L181.379 527.674C171.662 530.529 161.45 524.929 158.595 515.211L244.791 489.958Z" fill="#BF304A"/>
<path d="M222.008 477.55C212.29 480.405 206.69 490.617 209.545 500.334C212.4 510.051 222.612 515.651 232.329 512.796C245.341 508.953 254.619 498.577 257.639 486.28C248.47 477.496 235.074 473.708 222.008 477.55Z" fill="#F6921E"/>
<path d="M178.47 526.302C178.415 526.302 178.415 526.302 178.36 526.302C171.882 524.709 166.721 519.714 164.854 513.4C162.987 507.032 164.69 500.059 169.246 495.228C169.411 495.063 169.685 495.063 169.85 495.228C170.015 495.393 170.015 495.667 169.85 495.832C165.513 500.444 163.866 507.086 165.678 513.18C167.435 519.274 172.376 523.996 178.579 525.533C178.799 525.588 178.964 525.808 178.909 526.027C178.799 526.192 178.634 526.302 178.47 526.302Z" fill="#1E193D"/>
<path d="M216.243 515.267C216.188 515.267 216.188 515.267 216.133 515.267C209.655 513.675 204.494 508.679 202.627 502.365C200.76 495.997 202.463 489.025 207.019 484.193C207.184 484.029 207.458 484.029 207.623 484.193C207.788 484.358 207.788 484.633 207.623 484.798C203.286 489.409 201.639 496.052 203.451 502.146C205.208 508.24 210.149 512.961 216.298 514.498C216.517 514.553 216.682 514.773 216.627 514.993C216.627 515.102 216.462 515.267 216.243 515.267Z" fill="#1E193D"/>
<path d="M251.599 497.424C251.544 497.424 251.544 497.424 251.489 497.424C247.865 496.546 245.01 493.746 243.967 490.233C242.924 486.719 243.858 482.821 246.383 480.131C246.548 479.966 246.822 479.966 246.987 480.131C247.152 480.296 247.152 480.57 246.987 480.735C244.626 483.205 243.803 486.774 244.736 490.013C245.669 493.252 248.359 495.778 251.653 496.601C251.873 496.656 252.038 496.876 251.983 497.095C251.983 497.315 251.763 497.424 251.599 497.424Z" fill="#EE6A23"/>
<path d="M223.374 492.007L212.573 495.169L214.872 503.02L225.673 499.857L223.374 492.007Z" fill="#EE6A23"/>
<path d="M261.042 487.104L255.442 488.751L254.235 484.688L259.835 483.041L261.042 487.104Z" fill="#EE6A23"/>
<path d="M216.113 496.555L214.956 498.675L217.076 499.832L218.233 497.712L216.113 496.555Z" fill="#1E193D"/>
<path d="M139.93 701.212C139.71 701.212 139.49 701.047 139.49 700.774C139.49 700.501 139.655 700.335 139.93 700.335C205.427 700.335 258.737 647.026 258.737 581.53V486.554C258.737 486.334 258.901 486.115 259.176 486.115C259.45 486.115 259.615 486.279 259.615 486.554V581.53C259.56 647.522 205.867 701.212 139.93 701.212Z" fill="#1E193D"/>
<path d="M83.599 583.835V592.127C83.599 593.885 82.1719 595.313 80.4151 595.313C78.6582 595.313 77.2307 593.885 77.2307 592.127V583.835H83.599Z" fill="#939597"/>
<path d="M86.6189 549.743H74.1562V586.582H86.6189V549.743Z" fill="#1E193D"/>
<path d="M83.5441 520.756H77.1758V555.234H83.5441V520.756Z" fill="#36364A"/>
<path d="M89.0351 549.743H71.741V574.284H89.0351V549.743Z" fill="#BF304A"/>
<path d="M80.4168 442.853C80.0874 442.853 79.7581 442.578 79.7581 442.194V404.478C79.7581 404.148 80.0328 403.819 80.4168 403.819C80.7461 403.819 81.0759 404.094 81.0759 404.478V442.194C81.0209 442.578 80.7461 442.853 80.4168 442.853Z" fill="#F6921E"/>
<path d="M81.9541 408.156H78.8794V414.47H81.9541V408.156Z" fill="#1E193D"/>
<path d="M81.9541 420.783H78.8794V427.097H81.9541V420.783Z" fill="#1E193D"/>
<path d="M78.4946 404.478V399.866C78.4946 398.823 79.318 398 80.3611 398C81.4046 398 82.228 398.823 82.228 399.866V404.478H78.4946Z" fill="#D9332D"/>
<path d="M70.6057 441.902L58.3054 491.002L59.5301 491.308L71.8308 442.209L70.6057 441.902Z" fill="#EE6A23"/>
<path d="M90.179 441.921L88.9539 442.228L101.249 491.332L102.474 491.026L90.179 441.921Z" fill="#F6921E"/>
<path d="M111.929 514.498L104.188 522.239H56.5883L48.8472 514.498V497.095L56.5883 489.354H104.188L111.929 497.095V514.498Z" fill="#9BD2D8"/>
<path d="M93.7017 469.644H67.0742V489.354H93.7017V469.644Z" fill="#F6921E"/>
<path d="M92.8771 439.34H67.8972V445.105H92.8771V439.34Z" fill="#F6921E"/>
<path d="M73.6076 469.644H67.0742V489.354H73.6076V469.644Z" fill="#EE6A23"/>
<path d="M104.188 522.238L111.929 514.498H48.8472L56.5883 522.238H104.188Z" fill="#51A8B7"/>
<path d="M56.5883 489.354L48.8472 497.095H111.929L104.188 489.354H56.5883Z" fill="#F7F3E8"/>
<path d="M92.8783 441.645C92.6589 441.645 92.4942 441.481 92.4942 441.261V434.289H68.3374V441.261C68.3374 441.481 68.1727 441.645 67.953 441.645C67.7333 441.645 67.5686 441.481 67.5686 441.261V433.465H93.3727V441.261C93.2626 441.481 93.098 441.645 92.8783 441.645Z" fill="#1E193D"/>
<path d="M74.1576 441.645C73.9383 441.645 73.7732 441.481 73.7732 441.261V433.85C73.7732 433.63 73.9383 433.465 74.1576 433.465C74.3773 433.465 74.542 433.63 74.542 433.85V441.206C74.542 441.481 74.3773 441.645 74.1576 441.645Z" fill="#1E193D"/>
<path d="M80.415 441.645C80.1957 441.645 80.031 441.48 80.031 441.261V433.849C80.031 433.63 80.1957 433.465 80.415 433.465C80.6347 433.465 80.7994 433.63 80.7994 433.849V441.206C80.7994 441.48 80.6347 441.645 80.415 441.645Z" fill="#1E193D"/>
<path d="M86.6195 441.645C86.3998 441.645 86.2351 441.48 86.2351 441.261V433.849C86.2351 433.63 86.3998 433.465 86.6195 433.465C86.8392 433.465 87.0039 433.63 87.0039 433.849V441.206C87.0585 441.48 86.8392 441.645 86.6195 441.645Z" fill="#1E193D"/>
<path d="M92.1087 474.036H68.6656C68.4459 474.036 68.2266 473.872 68.2266 473.597C68.2266 473.378 68.3912 473.158 68.6656 473.158H92.1087C92.3284 473.158 92.5477 473.323 92.5477 473.597C92.5477 473.817 92.3284 474.036 92.1087 474.036Z" fill="#1E193D"/>
<path d="M87.4425 553.696H73.3327C73.113 553.696 72.8933 553.532 72.8933 553.257C72.8933 553.037 73.058 552.818 73.3327 552.818H87.4425C87.6618 552.818 87.8816 552.982 87.8816 553.257C87.8816 553.532 87.6618 553.696 87.4425 553.696Z" fill="#1E193D"/>
<path d="M87.4422 557.814H73.3327C73.113 557.814 72.8933 557.649 72.8933 557.375C72.8933 557.155 73.058 556.936 73.3327 556.936H87.4422C87.6619 556.936 87.8816 557.1 87.8816 557.375C87.8816 557.594 87.6619 557.814 87.4422 557.814Z" fill="#1E193D"/>
<path d="M80.4155 572.088L78.8779 570.606L80.4155 569.124L81.8976 570.606L80.4155 572.088Z" fill="#1E193D"/>
<path d="M80.4155 547.657L78.8779 546.12L80.4155 544.638L81.8976 546.12L80.4155 547.657Z" fill="#1E193D"/>
<path d="M80.4145 701.378C80.1948 701.378 79.9751 701.212 79.9751 700.939V592.619C79.9751 592.4 80.1398 592.181 80.4145 592.181C80.6338 592.181 80.8535 592.346 80.8535 592.619V700.993C80.7989 701.212 80.6338 701.378 80.4145 701.378Z" fill="#1E193D"/>
<path d="M2.23563 513.07C2.12597 513.07 2.07095 513.07 1.96129 513.015L-1.88177 511.258C-4.07803 510.27 -6.54858 509.391 -9.23876 508.623C-9.56816 508.513 -9.78779 508.184 -9.67798 507.854C-9.56816 507.525 -9.23876 507.305 -8.90933 507.415C-6.16428 508.184 -3.58399 509.062 -1.33309 510.105L2.51035 511.862C2.83971 512.027 2.94937 512.411 2.83971 512.685C2.67503 512.96 2.45533 513.07 2.23563 513.07Z" fill="#F7F3E8"/>
<path d="M36.2194 522.129C26.5567 521.964 17.4978 520.097 10.6901 517.023C10.3607 516.858 10.251 516.474 10.3607 516.199C10.5254 515.87 10.9098 515.76 11.1841 515.87C17.8275 518.944 26.7214 520.701 36.2194 520.866C36.5488 520.866 36.8781 521.14 36.8235 521.525C36.8235 521.854 36.5488 522.129 36.2194 522.129Z" fill="#F7F3E8"/>
<path d="M49.7807 521.305C49.4509 521.305 49.1766 521.086 49.1766 520.756C49.1216 520.427 49.3413 520.098 49.7257 520.043C55.3256 519.219 60.4314 517.792 64.6039 515.87L71.3019 512.796C71.6312 512.631 72.0156 512.796 72.1257 513.125C72.2904 513.455 72.1257 513.839 71.7959 513.949L65.0983 517.023C60.7608 518.999 55.6549 520.427 49.8903 521.305C49.8353 521.305 49.7807 521.305 49.7807 521.305Z" fill="#F7F3E8"/>
<path d="M77.3954 511.313C77.1757 511.313 76.9013 511.149 76.7917 510.929C76.627 510.6 76.7917 510.215 77.121 510.106C86.7287 505.713 100.948 503.957 114.18 505.549C114.509 505.604 114.784 505.933 114.729 506.262C114.674 506.592 114.399 506.866 114.015 506.812C101.003 505.219 87.058 506.976 77.6701 511.258C77.56 511.313 77.4504 511.313 77.3954 511.313Z" fill="#F7F3E8"/>
<path d="M131.255 511.313C131.145 511.313 131.091 511.313 130.981 511.258C127.851 509.831 124.228 508.678 120.165 507.799C119.836 507.745 119.616 507.415 119.671 507.031C119.726 506.702 120.055 506.482 120.439 506.537C124.557 507.415 128.291 508.568 131.53 510.05C131.859 510.215 131.969 510.599 131.859 510.874C131.749 511.203 131.53 511.313 131.255 511.313Z" fill="#F7F3E8"/>
<path d="M170.784 522.184C160.572 522.184 150.8 520.372 143.608 517.023L140.753 515.705C140.423 515.541 140.313 515.157 140.423 514.882C140.588 514.553 140.972 514.443 141.247 514.553L144.102 515.87C151.953 519.439 162.878 521.25 174.023 520.811C174.353 520.811 174.682 521.086 174.682 521.415C174.682 521.745 174.407 522.074 174.078 522.074C172.98 522.129 171.882 522.184 170.784 522.184Z" fill="#F7F3E8"/>
<path d="M179.073 521.744C178.744 521.744 178.469 521.525 178.415 521.195C178.36 520.866 178.634 520.537 178.963 520.482C181.324 520.262 183.575 519.933 185.772 519.494C186.705 519.329 187.583 519.109 188.461 518.89C188.791 518.78 189.175 518.999 189.23 519.384C189.34 519.713 189.121 520.098 188.736 520.152C187.858 520.372 186.924 520.592 185.991 520.756C183.795 521.196 181.434 521.525 179.073 521.799C179.128 521.744 179.128 521.744 179.073 521.744Z" fill="#F7F3E8"/>
<path d="M197.74 517.077C197.521 517.077 197.246 516.913 197.136 516.693C196.971 516.363 197.136 515.979 197.466 515.869L210.038 510.105C214.924 507.854 221.073 506.262 227.716 505.493C228.046 505.438 228.375 505.713 228.43 506.042C228.485 506.372 228.21 506.701 227.881 506.756C221.348 507.525 215.363 509.062 210.587 511.258L198.015 517.023C197.905 517.077 197.795 517.077 197.74 517.077Z" fill="#F7F3E8"/>
<path d="M271.253 514.552C271.144 514.552 271.089 514.552 270.979 514.498L263.897 511.258C257.363 508.294 248.634 506.482 239.356 506.263C239.026 506.263 238.752 505.933 238.752 505.604C238.752 505.274 239.026 505 239.41 505C248.854 505.219 257.748 507.031 264.446 510.106L271.528 513.345C271.858 513.509 271.967 513.894 271.858 514.168C271.747 514.443 271.528 514.552 271.253 514.552Z" fill="#F7F3E8"/>
<path d="M296.674 521.854C296.674 521.854 296.619 521.854 296.674 521.854C292.611 521.524 288.768 520.866 285.199 519.987C282.015 519.164 279.05 518.175 276.47 516.967C276.141 516.803 276.031 516.419 276.141 516.144C276.305 515.815 276.689 515.705 276.964 515.815C279.49 516.967 282.344 517.956 285.474 518.724C288.933 519.603 292.721 520.207 296.674 520.536C297.003 520.591 297.277 520.866 297.277 521.25C297.277 521.634 297.003 521.854 296.674 521.854Z" fill="#F7F3E8"/>
<path d="M303.701 522.184C303.316 522.184 302.987 522.184 302.603 522.184C302.273 522.184 301.944 521.909 301.999 521.525C301.999 521.196 302.273 520.921 302.658 520.921C306.775 520.976 310.783 520.702 314.736 520.207C315.065 520.153 315.395 520.427 315.45 520.756C315.505 521.086 315.23 521.415 314.901 521.47C311.222 521.909 307.489 522.184 303.701 522.184Z" fill="#F7F3E8"/>
<path d="M350.46 514.642C350.579 514.642 350.641 514.642 350.76 514.582L358.494 511.045C365.631 507.807 375.162 505.829 385.297 505.589C385.655 505.589 385.955 505.229 385.955 504.869C385.955 504.51 385.655 504.21 385.235 504.21C374.924 504.45 365.212 506.428 357.894 509.786L350.16 513.323C349.802 513.503 349.683 513.923 349.802 514.223C349.921 514.523 350.16 514.642 350.46 514.642Z" fill="#F7F3E8"/>
<path d="M322.698 522.616C322.698 522.616 322.758 522.616 322.698 522.616C327.135 522.257 331.332 521.537 335.23 520.578C338.707 519.678 341.945 518.599 344.761 517.28C345.123 517.1 345.242 516.68 345.123 516.381C344.942 516.021 344.523 515.901 344.223 516.021C341.464 517.28 338.348 518.359 334.93 519.199C331.153 520.158 327.015 520.817 322.698 521.177C322.338 521.237 322.039 521.537 322.039 521.957C322.039 522.376 322.338 522.616 322.698 522.616Z" fill="#F7F3E8"/>
<path d="M315.024 522.977C315.444 522.977 315.804 522.977 316.223 522.977C316.583 522.977 316.943 522.677 316.883 522.257C316.883 521.897 316.583 521.598 316.163 521.598C311.667 521.658 307.289 521.358 302.972 520.818C302.613 520.758 302.253 521.058 302.193 521.418C302.133 521.777 302.433 522.137 302.793 522.197C306.81 522.677 310.887 522.977 315.024 522.977Z" fill="#F7F3E8"/>
<path d="M281.191 581.476H272.242C271.913 581.476 271.584 581.199 271.584 580.819C271.584 580.434 271.858 580.157 272.242 580.157H281.191C281.521 580.157 281.85 580.434 281.85 580.819C281.85 581.199 281.576 581.476 281.191 581.476Z" fill="#F7F3E8"/>
<path d="M292.775 563.798H280.861C280.532 563.798 280.203 563.523 280.203 563.139C280.203 562.754 280.477 562.48 280.861 562.48H292.775C293.104 562.48 293.434 562.754 293.434 563.139C293.434 563.523 293.104 563.798 292.775 563.798Z" fill="#F7F3E8"/>
<path d="M46.1025 563.798H34.1889C33.8595 563.798 33.5298 563.523 33.5298 563.139C33.5298 562.754 33.8045 562.48 34.1889 562.48H46.1025C46.4318 562.48 46.7612 562.754 46.7612 563.139C46.7612 563.523 46.4868 563.798 46.1025 563.798Z" fill="#F7F3E8"/>
<path d="M207.183 547.547H201.968C201.638 547.547 201.309 547.272 201.309 546.888C201.309 546.559 201.583 546.229 201.968 546.229H207.183C207.513 546.229 207.842 546.504 207.842 546.888C207.787 547.272 207.513 547.547 207.183 547.547Z" fill="#F7F3E8"/>
<path d="M221.183 547.547H212.673C212.343 547.547 212.014 547.272 212.014 546.888C212.014 546.559 212.289 546.229 212.673 546.229H221.183C221.512 546.229 221.841 546.504 221.841 546.888C221.786 547.272 221.512 547.547 221.183 547.547Z" fill="#F7F3E8"/>
<path d="M299.693 571.429H292.062C291.732 571.429 291.403 571.154 291.403 570.77C291.403 570.441 291.677 570.111 292.062 570.111H299.693C300.022 570.111 300.352 570.386 300.352 570.77C300.297 571.154 300.022 571.429 299.693 571.429Z" fill="#F7F3E8"/>
<path d="M163.426 584.439H151.897C151.567 584.439 151.238 584.166 151.238 583.781C151.238 583.45 151.512 583.123 151.897 583.123H163.426C163.755 583.123 164.085 583.396 164.085 583.781C164.085 584.166 163.81 584.439 163.426 584.439Z" fill="#F7F3E8"/>
<path d="M7.55988 562.809H0.313159C-0.0165871 562.809 -0.345947 562.535 -0.345947 562.15C-0.345947 561.821 -0.0712241 561.492 0.313159 561.492H7.55988C7.88924 561.492 8.21898 561.766 8.21898 562.15C8.21898 562.535 7.94426 562.809 7.55988 562.809Z" fill="#F7F3E8"/>
<path d="M37.3725 574.942H27.6548C27.3255 574.942 26.9961 574.667 26.9961 574.283C26.9961 573.954 27.2704 573.624 27.6548 573.624H37.3725C37.7019 573.624 38.0312 573.899 38.0312 574.283C37.9762 574.612 37.7019 574.942 37.3725 574.942Z" fill="#F7F3E8"/>
<path d="M3.60815 537.72H-6.82314C-7.15254 537.72 -7.48193 537.446 -7.48193 537.062C-7.48193 536.732 -7.20744 536.403 -6.82314 536.403H3.60815C3.93751 536.403 4.26687 536.677 4.26687 537.062C4.21223 537.446 3.93751 537.72 3.60815 537.72Z" fill="#F7F3E8"/>
<path d="M169.246 593.223H159.528C159.199 593.223 158.869 592.95 158.869 592.566C158.869 592.235 159.144 591.908 159.528 591.908H169.246C169.575 591.908 169.905 592.181 169.905 592.566C169.85 592.95 169.575 593.223 169.246 593.223Z" fill="#F7F3E8"/>
<path d="M126.039 568.794H115.608C115.278 568.794 114.949 568.519 114.949 568.135C114.949 567.805 115.223 567.476 115.608 567.476H126.039C126.368 567.476 126.698 567.751 126.698 568.135C126.698 568.519 126.424 568.794 126.039 568.794Z" fill="#F7F3E8"/>
<path d="M101.278 530.693H93.9761C93.6467 530.693 93.3174 530.418 93.3174 530.034C93.3174 529.704 93.5917 529.375 93.9761 529.375H101.278C101.608 529.375 101.937 529.65 101.937 530.034C101.937 530.418 101.663 530.693 101.278 530.693Z" fill="#F7F3E8"/>
<path d="M117.035 530.693H108.58C108.251 530.693 107.921 530.418 107.921 530.034C107.921 529.704 108.196 529.375 108.58 529.375H116.98C117.31 529.375 117.639 529.65 117.639 530.034C117.639 530.418 117.365 530.693 117.035 530.693Z" fill="#F7F3E8"/>
<path d="M104.573 524.05H97.6551C97.3257 524.05 96.9963 523.776 96.9963 523.391C96.9963 523.062 97.2711 522.732 97.6551 522.732H104.573C104.902 522.732 105.232 523.007 105.232 523.391C105.177 523.776 104.902 524.05 104.573 524.05Z" fill="#F7F3E8"/>
<path d="M356.336 571.868H343.596C343.269 571.868 342.938 571.594 342.938 571.209C342.938 570.825 343.215 570.551 343.596 570.551H356.336C356.663 570.551 356.994 570.825 356.994 571.209C356.994 571.594 356.72 571.868 356.336 571.868Z" fill="#F7F3E8"/>
<path d="M364.735 562.809H357.486C357.159 562.809 356.828 562.535 356.828 562.15C356.828 561.821 357.101 561.492 357.486 561.492H364.735C365.062 561.492 365.393 561.766 365.393 562.15C365.393 562.535 365.12 562.809 364.735 562.809Z" fill="#F7F3E8"/>
<path d="M360.783 537.72H350.352C350.021 537.72 349.69 537.446 349.69 537.062C349.69 536.732 349.967 536.403 350.352 536.403H360.783C361.11 536.403 361.441 536.677 361.441 537.062C361.387 537.446 361.11 537.72 360.783 537.72Z" fill="#F7F3E8"/>
</g>
<defs>
<clipPath id="clip0">
<rect width="375" height="667" fill="white"/>
</clipPath>
</defs>
</svg>
