<svg width="375" height="667" viewBox="0 0 375 667" fill="none" xmlns="http://www.w3.org/2000/svg">
<g clip-path="url(#clip0)">
<mask id="mask0" mask-type="alpha" maskUnits="userSpaceOnUse" x="-76" y="426" width="506" height="241">
<path d="M429.366 426H-76V667H429.366V426Z" fill="#C4C4C4"/>
</mask>
<g mask="url(#mask0)">
<path d="M315.152 679.34C316.066 684.397 318.771 760.356 318.771 760.356L324.142 832.643L324.979 837.882C324.979 837.882 334.439 842.689 339.774 840.939C345.109 839.194 345.109 839.194 345.109 839.194L347.666 748.855V714.316C347.666 714.316 356.687 689.931 358.04 681.161C359.388 672.422 358.04 651.241 358.04 651.241L353.982 637.884L316.03 640.178L305.181 641.561L315.152 679.34Z" fill="#1A1A1A"/>
<path d="M293.455 641.124L287.135 671.949L295.282 725.817L301.164 761.704L303.609 819.031V826.453C303.609 826.453 309.786 829.947 315.116 829.947C320.451 829.947 324.576 825.145 324.576 825.145L331.886 699.539L331.447 662.706L320.124 624.089L295.721 627.329L293.455 641.124Z" fill="#1A1A1A"/>
<path d="M336.048 678.867C336.048 678.867 331.08 688.73 317.235 681.741C303.39 674.752 320.635 631.988 320.635 631.988L334.552 641.668L336.048 678.867Z" fill="#1A1A1A"/>
<path d="M329.288 516.392L330.973 524.399C330.973 524.399 327.685 529.385 327.721 530.332C327.757 531.278 328.523 533.608 325.857 535.209C323.228 536.81 316.286 537.72 316.286 537.72C316.286 537.72 313.293 533.826 312.707 533.498C311.721 532.916 308.76 527.274 309.016 523.162C309.235 519.777 309.71 516.537 309.71 516.537L329.288 516.392Z" fill="#FFC587"/>
<path d="M326.041 537.211H311.39L306.754 552.17L312.814 584.635C312.814 584.635 321.253 584.635 321.217 582.852C321.217 582.379 326.587 574.663 326.879 574.044C327.17 573.425 330.641 559.776 330.932 557.484C331.228 555.191 328.558 544.017 328.558 544.017L326.041 537.211Z" fill="#FCDBE9"/>
<path d="M291.847 638.209L284.506 637.482L282.168 637.227V640.65C282.168 640.65 282.423 644.725 282.678 645.488C282.934 646.256 285.093 649.893 285.093 649.893C285.093 649.893 287.39 649.059 287.905 648.55C288.38 648.037 291.081 645.488 291.081 644.654C291.045 643.743 291.847 638.209 291.847 638.209Z" fill="#A57C52"/>
<path d="M286.114 625.145L289.401 640.941L287.722 643.163C287.722 643.163 284.909 644.252 282.132 641.052C279.391 637.848 282.459 626.455 282.459 626.455L286.114 625.145Z" fill="#FCDBE9"/>
<path d="M282.168 547.074C282.459 546.528 282.826 546.019 283.229 545.545C284.945 547.511 286.915 549.877 287.502 552.643C288.815 558.83 294.042 585.109 293.894 595.008C293.746 604.908 287.502 635.299 287.502 635.299C287.502 635.299 286.624 638.611 283.74 635.299C280.855 631.988 280.416 622.706 280.416 622.706C280.416 622.706 278.808 563.38 279.977 556.937C280.743 552.533 281.693 548.93 282.168 547.074Z" fill="#1A1A1A"/>
<path d="M320.415 541.833L323.483 556.465L324.944 564.763L317.71 580.268L312.814 557.52L317.051 542.161L320.415 541.833Z" fill="#CA464B"/>
<path d="M318.879 545.072C320.536 545.072 321.876 543.312 321.876 541.141C321.876 538.97 320.536 537.211 318.879 537.211C317.226 537.211 315.887 538.97 315.887 541.141C315.887 543.312 317.226 545.072 318.879 545.072Z" fill="#CA464B"/>
<path d="M318.879 537.065C318.879 537.065 310.588 543.289 310.843 546.637C311.134 550.022 306.897 531.678 306.897 531.678C306.897 531.678 306.606 529.495 307.484 527.092L309.051 523.708C309.051 523.708 313.548 532.334 315.371 533.935C317.163 535.5 318.879 537.065 318.879 537.065Z" fill="#E6DAEB"/>
<path d="M243.996 636.21C246.738 635.955 248.892 632.497 248.892 628.275C248.892 624.053 246.738 620.595 243.996 620.341V620.304H339.958C346.023 620.304 350.954 623.907 350.954 628.348C350.954 632.787 346.023 636.393 339.958 636.393H243.996V636.21Z" fill="#B3B3B3"/>
<path d="M249.841 628.348C249.841 632.751 247.212 636.393 244.323 636.393C241.439 636.393 239.392 632.751 239.392 628.348C239.392 623.944 241.586 620.304 244.471 620.304C247.32 620.304 249.841 623.944 249.841 628.348Z" fill="#808080"/>
<path d="M242.205 618.739C244.946 618.484 247.1 615.027 247.1 610.805C247.1 606.583 244.946 603.125 242.205 602.87V602.834H338.166C344.231 602.834 349.162 606.437 349.162 610.877C349.162 615.318 344.231 618.921 338.166 618.921H242.205V618.739Z" fill="#CCCCCC"/>
<path d="M248.05 610.877C248.05 615.281 245.421 618.921 242.536 618.921C239.651 618.921 237.604 615.281 237.604 610.877C237.604 606.473 239.795 602.834 242.679 602.834C245.533 602.834 248.05 606.473 248.05 610.877Z" fill="#999999"/>
<path d="M251.01 626.783C253.747 626.528 255.906 623.071 255.906 618.849C255.906 614.626 253.747 611.169 251.01 610.914V610.878H346.972C353.032 610.878 357.964 614.481 357.964 618.921C357.964 623.361 353.032 626.965 346.972 626.965H251.01V626.783Z" fill="#E6E6E6"/>
<path d="M256.856 618.885C256.856 623.289 254.222 626.928 251.337 626.928C248.453 626.928 246.406 623.289 246.406 618.885C246.406 614.481 248.601 610.841 251.485 610.841C254.334 610.877 256.856 614.481 256.856 618.885Z" fill="#999999"/>
<path d="M277.787 648.983C279.686 649.13 281.402 651.348 281.402 651.348C281.402 651.348 281.402 649.456 282.718 648.367C284.031 647.274 287.211 645.529 287.211 645.529C287.211 645.529 288.084 643.159 288.084 642.686C288.084 642.213 287.502 635.3 287.502 635.3C287.502 635.3 293.016 604.763 293.164 594.863C293.312 584.963 288.523 558.976 287.211 552.788C286.624 550.059 284.945 547.511 283.229 545.545C283.372 545.364 283.52 545.218 283.668 545.036L297.768 535.9L295.171 548.639L303.721 547.001L300.03 555.409L315.739 579.977L317.235 572.952L320.635 587.074V648.764C320.635 648.764 288.962 673.114 284.506 672.061C280.049 671.039 275.888 648.84 277.787 648.983Z" fill="#333333"/>
<path d="M330.677 521.633C330.677 521.633 320.635 536.192 318.879 537.065C318.879 537.065 325.746 543.762 326.184 548.13C326.623 552.497 334.552 529.968 334.552 529.968C334.552 529.968 331.846 521.196 330.677 521.633Z" fill="#E6DAEB"/>
<path d="M299.52 556.064L303.283 547.438L294.481 549.586L297.769 535.937L306.897 530.041L317.235 572.989L315.627 581.724C315.555 582.124 315.081 582.234 314.861 581.869L299.52 556.064Z" fill="#666666"/>
<path d="M342.403 533.28L342.296 532.552C342.439 532.625 342.587 532.697 342.771 532.77L342.403 533.28Z" fill="#333333"/>
<path d="M315.887 604.617C314.973 599.885 315.192 588.53 315.519 580.668L339.555 553.334L335.501 546.528L346.278 549.804L343.904 533.28C350.878 536.446 360.123 540.523 365.673 543.799C364.396 545.436 363.115 547.511 362.022 550.204C357.566 560.905 353.91 593.625 354.094 601.196C354.278 608.766 352.338 637.701 352.338 642.726C352.338 647.747 350.587 673.552 350.587 673.552V677.193C343.317 676.136 331.008 674.025 326.041 671.659C318.807 668.2 317.347 655.28 315.264 645.529C313.145 635.773 317.347 612.188 315.887 604.617Z" fill="#333333"/>
<path d="M334.551 544.927L335.465 546.492L333.745 545.982L342.403 533.28L344.522 548.275L334.551 544.927Z" fill="black"/>
<path d="M335.465 546.492L334.515 544.927L344.486 548.275L342.367 533.28L342.735 532.77C343.097 532.952 343.828 533.28 344.195 533.425L346.896 550.277L335.465 546.492Z" fill="#333333"/>
<path d="M334.26 528.985C334.807 529.64 338.569 530.841 342.771 532.77L345.472 548.712L336.124 545.582L340.836 553.626L315.336 582.124C315.52 577.429 315.958 572.115 315.958 572.115L334.26 528.985Z" fill="#666666"/>
<path d="M328.415 577.21L350.735 578.229L350.878 573.498L328.599 572.479L328.415 577.21Z" fill="#1A1A1A"/>
<path d="M315.009 602.797C315.009 604.18 316.03 605.309 317.271 605.309C318.516 605.309 319.537 604.18 319.537 602.797C319.537 601.414 318.516 600.286 317.271 600.286C316.03 600.286 315.009 601.414 315.009 602.797Z" fill="#1A1A1A"/>
<path d="M315.448 629.221C315.448 630.604 316.469 631.734 317.71 631.734C318.955 631.734 319.976 630.604 319.976 629.221C319.976 627.838 318.955 626.71 317.71 626.71C316.469 626.71 315.448 627.838 315.448 629.221Z" fill="#1A1A1A"/>
<path d="M312.124 515.336C313.253 514.39 314.861 514.172 316.362 514.063C318.879 513.881 321.401 513.917 323.922 514.172C325.235 514.281 326.695 514.536 327.465 515.518C328.415 516.719 327.976 518.394 327.465 519.813C326.44 522.798 325.311 525.891 322.973 528.112C320.599 530.332 316.617 531.424 313.804 529.676C312.38 528.767 311.466 527.274 311.027 525.709C310.588 524.145 310.516 522.543 310.48 520.905C310.48 518.94 310.552 516.683 312.124 515.336Z" fill="#BF9465"/>
<path d="M351.353 643.525C351.353 638.504 353.471 608.475 353.288 600.941C353.108 593.407 356.759 560.723 361.18 550.022C362.277 547.365 364.36 545.436 365.637 543.798C366.954 544.599 368.082 545.327 368.924 545.982C375.684 551.442 374.734 613.971 373.565 618.994C372.396 624.017 367.388 674.609 365.82 676.283C364.284 677.957 356.177 677.957 356.177 677.957C356.177 677.957 353.691 677.631 350.367 677.158L350.04 673.444C350.004 673.444 351.353 648.546 351.353 643.525Z" fill="#1A1A1A"/>
<path d="M296.707 500.814C297.473 504.345 299.847 506.528 302.042 505.728C304.232 504.927 305.401 501.433 304.671 497.902C303.905 494.372 301.531 492.188 299.336 492.989C297.11 493.79 295.941 497.284 296.707 500.814Z" fill="#FFC587"/>
<path d="M298.279 499.941C298.678 502.124 299.959 503.69 301.128 503.398C302.297 503.107 302.915 501.105 302.517 498.885C302.113 496.701 300.837 495.136 299.668 495.427C298.458 495.755 297.876 497.757 298.279 499.941Z" fill="#BF8365"/>
<path d="M339.846 500.887C339.08 504.417 336.706 506.601 334.516 505.8C332.321 505 331.152 501.506 331.886 497.975C332.652 494.445 335.026 492.261 337.216 493.062C339.411 493.862 340.576 497.393 339.846 500.887Z" fill="#FFC587"/>
<path d="M337.947 499.868C337.548 502.052 336.267 503.617 335.098 503.325C333.929 503.034 333.311 501.032 333.709 498.812C334.112 496.629 335.389 495.063 336.558 495.354C337.768 495.682 338.386 497.684 337.947 499.868Z" fill="#BF8365"/>
<path d="M318.655 522.288C328.518 522.251 336.473 510.716 336.415 496.524C336.361 482.333 328.321 470.859 318.453 470.896C308.59 470.934 300.635 482.469 300.693 496.661C300.747 510.852 308.787 522.326 318.655 522.288Z" fill="#FFC587"/>
<path d="M313.549 498.084C313.401 498.084 313.253 498.012 313.181 497.902C312.196 496.592 311.211 495.937 310.221 495.937C308.617 495.973 307.412 497.83 307.412 497.866C307.264 498.084 307.009 498.121 306.79 498.012C306.57 497.866 306.534 497.611 306.642 497.393C306.718 497.284 308.102 495.136 310.185 495.063C311.466 494.991 312.742 495.791 313.911 497.393C314.059 497.611 314.023 497.866 313.804 498.012C313.728 498.048 313.656 498.084 313.549 498.084Z" fill="#42210B"/>
<path d="M313.692 493.826L305.768 493.971C305.034 493.971 304.451 493.389 304.416 492.661V492.479C304.416 491.751 304.962 491.169 305.692 491.132L313.62 490.987C314.35 490.987 314.932 491.569 314.973 492.297V492.479C315.009 493.207 314.422 493.826 313.692 493.826Z" fill="#42210B"/>
<path d="M331.264 494.081L323.336 493.717C322.606 493.68 322.059 493.062 322.095 492.334V492.152C322.131 491.424 322.753 490.841 323.448 490.878L331.371 491.242C332.101 491.278 332.652 491.897 332.616 492.625V492.807C332.616 493.571 331.994 494.117 331.264 494.081Z" fill="#42210B"/>
<path d="M330.13 498.557C329.983 498.557 329.839 498.485 329.768 498.375C328.778 497.065 327.792 496.374 326.807 496.41C325.199 496.446 323.994 498.303 323.994 498.339C323.846 498.557 323.591 498.594 323.371 498.485C323.152 498.339 323.116 498.084 323.228 497.866C323.3 497.757 324.688 495.609 326.771 495.536C328.083 495.5 329.329 496.264 330.498 497.866C330.641 498.084 330.605 498.339 330.386 498.485C330.314 498.557 330.242 498.557 330.13 498.557Z" fill="#42210B"/>
<path d="M319.246 493.68C319.246 493.68 314.095 505.473 315.887 506.019C317.71 506.565 320.048 506.674 320.048 506.674L317.092 504.563L319.063 494.7L319.246 493.68Z" fill="#BF8365"/>
<path d="M312.89 509.84H324.213C324.178 509.84 318.735 523.016 312.89 509.84Z" fill="white"/>
<path d="M327.174 476.246L336.267 493.535L339.228 487.02C339.483 486.146 339.483 485.2 339.228 484.29C338.421 481.196 337.109 473.699 335.389 471.041C333.821 468.603 330.861 467.912 329.329 467.729C329.329 467.693 329.329 467.693 329.329 467.657C329.548 462.852 303.354 457.211 298.897 473.699C296.814 481.415 295.865 485.928 298.06 489.568C298.351 492.042 300.908 500.85 300.908 500.85C300.944 500.195 300.796 494.081 300.873 492.152L327.174 476.246Z" fill="#603813"/>
<path d="M335.098 491.351L336.124 501.142L337.691 489.568L335.501 488.658L335.098 491.351Z" fill="#603813"/>
<path d="M319.685 493.571C337.508 494.081 341.163 485.601 341.163 485.601C341.163 485.601 340.177 487.857 334.914 489.786C329.656 491.679 325.929 492.079 318.915 492.079C311.905 492.079 308.066 490.732 304.523 490.041C300.98 489.349 296.743 487.129 296.743 487.129C301.858 493.68 316.689 493.644 318.659 493.571H319.685Z" fill="#BCA730"/>
<path d="M340.979 478.721C340.836 478.576 340.724 478.503 340.724 478.503C338.058 477.047 337.292 478.976 337.292 478.976C337.292 478.976 337.803 480.396 338.421 481.742C335.684 483.416 330.059 485.091 318.552 485.127C307.045 485.164 301.164 483.307 298.203 481.633C298.826 480.323 299.3 478.976 299.3 478.976C299.3 478.976 298.534 477.011 295.865 478.503C295.865 478.503 295.609 478.612 295.354 479.086C290.315 484.472 297.948 488.767 302.552 490.805C307.193 492.843 324.76 492.479 324.76 492.479C347.554 491.642 341.051 477.811 340.979 478.721Z" fill="#FCE566"/>
<path d="M319.318 454.372C297.437 453.317 296.671 476.028 296.671 476.028L296.778 479.813C296.778 479.813 315.152 490.441 337.727 482.689L340.141 481.124V476.392C340.141 476.392 342.148 454.3 319.318 454.372Z" fill="#FBDF40"/>
<path d="M308.214 457.538L307.484 461.615L305.585 462.925L306.315 456.629C306.315 456.629 307.336 455.319 308.362 456.301L308.214 457.538Z" fill="#FDE9B3"/>
<path d="M316.286 453.79L315.994 463.799L320.523 463.945L320.339 453.935C320.339 453.935 318.991 451.06 316.286 453.79Z" fill="#FDEC8C"/>
<path d="M329.472 461.797L331.336 463.18L331.044 456.229C331.044 456.229 330.314 455.027 329.109 456.083L329.472 461.797Z" fill="#FDF2B3"/>
<path d="M305.62 462.925C305.62 462.925 305.549 460.669 306.422 460.851C307.3 460.996 307.555 461.615 307.555 461.615L305.62 462.925Z" fill="#BC9630"/>
<path d="M329.472 461.797C329.472 461.797 330.202 460.378 330.753 461.033C331.299 461.688 331.371 463.18 331.371 463.18L329.472 461.797Z" fill="#BC9630"/>
<path d="M315.994 463.799C315.994 463.799 318.333 459.213 320.523 463.945L315.994 463.799Z" fill="#BC9630"/>
<path d="M296.304 478.284C296.304 478.284 296.125 484.618 311.905 484.945C327.685 485.236 328.523 483.671 328.523 483.671C328.523 483.671 301.347 481.16 301.567 474.972C301.746 468.785 303.721 461.433 303.721 461.433L304.084 459.14C304.084 459.14 297.294 463.507 296.304 478.284Z" fill="#BCA730"/>
<path d="M303.39 483.963L302.149 484.654C302.149 484.654 301.786 483.271 301.858 481.961C301.965 480.65 302.552 479.486 302.736 479.922C303.211 480.796 303.39 483.963 303.39 483.963Z" fill="#FDF2B3"/>
<path d="M302.66 479.813L299.265 478.321C299.265 478.321 298.279 480.359 298.167 481.67C298.167 481.67 298.423 482.943 302.149 484.654C302.149 484.618 301.674 481.233 302.66 479.813Z" fill="#FBDF40"/>
<path d="M332.142 484.181L333.311 484.982C333.311 484.982 333.857 483.635 333.893 482.325C333.929 481.014 333.49 479.777 333.235 480.214C332.688 481.051 332.142 484.181 332.142 484.181Z" fill="#BC9630"/>
<path d="M333.311 480.141L336.853 478.976C336.853 478.976 337.727 481.378 337.691 482.688C337.691 482.688 337.145 483.635 333.311 484.982C333.311 484.982 334.148 481.67 333.311 480.141Z" fill="#FDEC8C"/>
<path d="M340.652 483.999C339.886 483.526 338.86 483.781 338.13 484.326C337.4 484.836 336.854 485.601 336.195 486.183C334.771 487.384 332.836 487.748 330.973 488.039C326.914 488.621 322.825 488.876 318.736 488.803C317.49 488.767 316.066 488.803 315.3 489.75C316.469 490.259 317.786 490.296 319.027 490.368C324.98 490.623 331.192 490.878 336.706 488.694C337.727 488.294 338.753 487.784 339.519 487.02C340.321 486.146 340.836 485.054 340.652 483.999Z" fill="#FDF2B3"/>
<path d="M28.2211 474.609C28.2211 474.609 17.3353 474.754 18.6141 487.821C18.6141 487.821 9.51828 495.573 16.4588 501.943C16.4588 501.943 7.72842 500.232 7.36337 510.241C6.99787 520.25 14.3034 518.758 14.3034 518.758C14.3034 518.758 10.6144 526.183 17.7739 529.058C24.9334 531.897 32.1296 532.916 32.1296 532.916H59.599C59.599 532.916 72.0918 534.991 74.2472 526.146C74.2472 526.146 81.6992 523.344 81.1877 518.758C81.1877 518.758 91.927 512.17 82.8316 503.872C82.8316 503.872 90.3566 502.634 84.8042 494.081C84.8042 494.081 89.2605 483.781 76.6216 479.631C76.6216 479.631 74.9415 472.534 65.4071 471.515C55.8732 470.496 48.0194 462.962 48.0194 462.962H36.9147L28.2211 474.609Z" fill="#42210B"/>
<path d="M31.5451 496.338C32.0199 500.195 30.5588 503.653 28.2942 504.054C25.9928 504.454 23.7644 501.652 23.2534 497.757C22.7786 493.899 24.2397 490.441 26.5043 490.041C28.8057 489.64 31.0703 492.479 31.5451 496.338Z" fill="#FFC587"/>
<path d="M29.6092 497.029C29.6092 499.213 28.6229 500.996 27.3808 500.996C26.1754 500.996 25.1528 499.213 25.1528 497.029C25.1528 494.845 26.1387 493.062 27.3808 493.062C28.6229 493.062 29.6092 494.845 29.6092 497.029Z" fill="#B2814D"/>
<path d="M36.8054 530.15L49.5903 557.047C49.5903 557.047 51.4532 561.488 51.5992 562.07C51.7457 562.689 58.7955 566.656 58.7955 566.656L61.7177 561.306L59.9645 546.601L56.1657 534.591L54.8507 531.533L50.5767 530.114H36.8054V530.15Z" fill="#FFC587"/>
<path d="M37.974 520.214L36.8054 532.479C36.8054 532.479 42.9423 538.558 48.166 538.303C53.3896 538.084 54.6679 531.788 54.6679 531.788L53.2798 520.687L37.974 520.214Z" fill="#FFC587"/>
<path d="M49.2617 550.496L59.4169 549.658V560.359L54.3393 562.47L50.029 556.064L49.2617 550.496Z" fill="white"/>
<g opacity="0.72">
<g opacity="0.72">
<g opacity="0.72">
<path opacity="0.72" d="M52.5858 521.342C51.3074 527.092 49.6273 542.488 42.7231 540.232C37.3171 538.484 36.6596 524.654 40.8601 520.941C44.1841 518.03 48.86 521.524 52.6955 521.087L52.5858 521.342Z" fill="#B2814D"/>
</g>
</g>
</g>
<path d="M69.8641 500.086C68.695 503.726 65.8458 505.837 63.5081 504.782C61.17 503.726 60.2204 499.904 61.389 496.265C62.5581 492.625 65.4073 490.514 67.7454 491.569C70.0831 492.589 71.0327 496.41 69.8641 500.086Z" fill="#FFC587"/>
<g opacity="0.71">
<g opacity="0.71">
<g opacity="0.71">
<path opacity="0.71" d="M64.7497 501.615C66.5051 501.615 67.9277 499.887 67.9277 497.757C67.9277 495.626 66.5051 493.899 64.7497 493.899C62.9948 493.899 61.5718 495.626 61.5718 497.757C61.5718 499.887 62.9948 501.615 64.7497 501.615Z" fill="#B2814D"/>
</g>
</g>
<g opacity="0.71">
<g opacity="0.71">
<path opacity="0.71" d="M67.9277 497.757C67.9277 499.904 66.5033 501.615 64.7497 501.615C62.9966 501.615 61.5718 499.868 61.5718 497.757C61.5718 495.61 62.9966 493.899 64.7497 493.899C66.5033 493.899 67.9277 495.61 67.9277 497.757C67.9277 499.868 67.9277 495.61 67.9277 497.757Z" fill="#B2814D"/>
</g>
</g>
<g opacity="0.71">
<g opacity="0.71">
<path opacity="0.71" d="M67.7453 491.533C70.083 492.589 71.0326 496.41 69.864 500.05C68.6949 503.726 65.4072 490.478 67.7453 491.533Z" fill="#FFC587"/>
</g>
</g>
<g opacity="0.71">
<g opacity="0.71">
<path opacity="0.71" d="M67.9277 497.757C67.9277 499.904 66.5033 501.615 64.7497 501.615C62.9966 501.615 61.5718 499.868 61.5718 497.757C61.5718 495.61 62.9966 493.899 64.7497 493.899C66.5033 493.899 67.9277 495.61 67.9277 497.757C67.9277 499.868 67.9277 495.61 67.9277 497.757Z" fill="#B2814D"/>
</g>
</g>
<g opacity="0.71">
<g opacity="0.71">
<g opacity="0.71">
<path opacity="0.71" d="M69.8641 500.086C68.695 503.726 65.8458 505.837 63.5081 504.782C61.17 503.726 60.2204 499.904 61.389 496.265C62.5581 492.625 65.4073 490.514 67.7454 491.569C70.0831 492.589 71.0327 496.41 69.8641 500.086Z" fill="#FFC587"/>
</g>
</g>
</g>
<g opacity="0.71">
<g opacity="0.71">
<path opacity="0.71" d="M67.9277 497.757C67.9277 499.904 66.5033 501.615 64.7497 501.615C62.9966 501.615 61.5718 499.868 61.5718 497.757C61.5718 495.61 62.9966 493.899 64.7497 493.899C66.5033 493.899 67.9277 495.61 67.9277 497.757C67.9277 499.868 67.9277 495.61 67.9277 497.757Z" fill="#B2814D"/>
</g>
</g>
</g>
<path d="M65.3713 495.5C65.3713 512.17 57.1887 525.71 47.0703 525.71C36.9881 525.71 28.7693 512.17 28.7693 495.5C28.7693 478.831 36.9518 465.291 47.0703 465.291C57.1887 465.291 65.3713 478.795 65.3713 495.5Z" fill="#FFC587"/>
<path d="M42.0656 498.667C42.0656 500.487 41.262 501.979 40.3125 501.979C39.3261 501.979 38.5588 500.487 38.5588 498.667C38.5588 496.847 39.3624 495.355 40.3125 495.355C41.2988 495.355 42.0656 496.847 42.0656 498.667Z" fill="black"/>
<path d="M41.6273 497.065C41.6273 497.466 41.3715 497.757 41.0428 497.757C40.714 497.757 40.4583 497.429 40.4583 497.065C40.4583 496.665 40.714 496.374 41.0428 496.374C41.3715 496.374 41.6273 496.665 41.6273 497.065Z" fill="white"/>
<path d="M55.6176 498.922C55.6176 500.741 54.8507 502.234 53.8644 502.234C52.8781 502.234 52.1108 500.741 52.1108 498.922C52.1108 497.102 52.8781 495.609 53.8644 495.609C54.8507 495.609 55.6176 497.102 55.6176 498.922Z" fill="black"/>
<path d="M55.1796 497.32C55.1796 497.721 54.9238 498.012 54.595 498.012C54.2663 498.012 54.0105 497.684 54.0105 497.32C54.0105 496.92 54.2663 496.629 54.595 496.629C54.9238 496.629 55.1796 496.92 55.1796 497.32Z" fill="white"/>
<path d="M38.5588 511.588H54.8142C54.8142 511.588 46.8511 525.528 38.5588 511.588Z" fill="white"/>
<path d="M50.5769 492.115C50.5769 492.115 56.312 486.401 61.7184 491.496C61.7184 491.496 54.7049 488.694 51.4172 492.916L50.5769 492.115Z" fill="#603813"/>
<path d="M44.1111 492.698C44.1111 492.698 38.9243 487.275 33.8467 491.824C33.8467 491.824 40.3854 489.422 43.3443 493.389L44.1111 492.698Z" fill="#603813"/>
<path d="M60.9508 486.692C58.8684 486.183 56.8595 485.346 54.8869 484.509C53.2798 483.817 51.6726 483.162 50.2111 482.216C49.2982 481.633 48.4579 480.942 47.4716 480.469C46.4853 479.996 43.5264 474.9 42.5401 475.264C42.4671 475.555 42.6865 476.028 42.7595 476.283C42.9786 476.902 43.2343 477.484 43.4901 478.066C44.0016 479.195 44.4764 480.432 45.2432 481.415C45.6087 482.179 46.3756 482.835 46.9238 483.417C47.5446 484.072 48.2022 484.691 48.8597 485.273C50.2111 486.437 51.7089 487.457 53.3528 488.148C56.5675 489.531 64.9323 491.278 67.9275 489.458C67.4164 488.694 61.8641 486.911 60.9508 486.692Z" fill="#B2814D"/>
<path d="M40.3122 465.437C40.3122 465.437 41.0791 481.561 52.0015 484.654C62.9235 487.748 66.978 491.643 66.978 491.643L71.5078 495.901C71.5078 495.901 71.8729 473.699 65.4802 467.366C59.1243 461.069 38.7047 457.429 40.3122 465.437Z" fill="#42210B"/>
<path d="M46.6682 533.717C46.6682 533.717 45.7916 537.684 46.0469 537.975C46.2297 538.193 48.0563 540.122 48.9328 541.105C49.2616 541.469 49.5174 541.906 49.6634 542.415C50.4307 545.036 52.8781 553.808 52.9511 556.901C52.9511 557.411 53.0971 557.884 53.3162 558.321L53.5356 558.757C54.7042 561.087 57.6632 560.76 58.4305 558.212C58.5398 557.847 58.5765 557.447 58.5765 557.047L57.9557 542.379C57.919 541.833 57.9557 541.287 58.065 540.778L58.5035 538.011C58.5765 537.538 58.5765 537.029 58.4668 536.592L58.211 535.464C58.1017 535.064 57.9557 534.699 57.7362 534.372L54.741 531.496L66.6493 548.203C66.8321 548.494 66.9781 548.821 67.0511 549.149L74.4301 569.094C74.5761 569.604 74.7951 572.006 74.0283 572.115L71.9096 587.22C71.9459 587.656 71.9459 588.13 71.8729 588.567L71.2884 612.697C71.1791 613.862 70.4848 614.845 69.5352 615.245L66.686 616.446C65.809 616.81 64.8227 616.992 63.8731 616.919L51.563 616.009C51.0882 615.973 50.5767 615.864 50.1019 615.718L42.1384 613.098C40.9698 612.697 40.1662 611.46 40.1662 610.077V563.707C40.1662 563.234 40.1295 562.761 40.0197 562.252L38.2299 552.752C37.9741 551.369 38.0839 549.913 38.5954 548.567L43.1614 536.483C43.4172 535.791 43.892 535.245 44.4765 534.918L46.6682 533.717Z" fill="#DDC4A7"/>
<path d="M74.3572 663.068L72.2018 667.91L70.0464 679.483C70.0464 679.483 71.727 682.652 73.0053 677.118C74.2842 671.588 74.3204 671.151 74.3204 671.151L74.7952 672.458L75.0147 674.899C75.0147 674.899 72.2748 686.762 72.0558 687.021C71.8367 687.275 72.092 688.873 72.092 688.873C72.092 688.873 84.4026 682.58 82.0645 666.563L74.3572 663.068Z" fill="#FFC587"/>
<path d="M23.4721 603.962C23.4721 603.962 62.156 604.472 68.2561 607.784C74.3568 611.096 72.7859 660.377 70.9593 670.133C69.1332 679.885 57.8089 748.895 57.8089 748.895C57.8089 748.895 45.4258 763.744 14.7785 752.751L12.3311 622.67L19.3445 603.926H23.4721V603.962Z" fill="#1A1A1A"/>
<path d="M33.664 528.148L8.31323 539.759C8.31323 539.759 20.3313 552.06 17.5551 588.93C17.5551 588.93 18.7605 597.702 18.4317 600.541C18.0662 603.38 14.9612 614.99 14.9612 614.99L9.88409 667.29C9.88409 667.29 32.8972 670.53 38.9974 664.818C45.0976 659.105 45.2803 585.218 45.2803 585.218C45.2803 585.218 52.7323 562.434 33.664 528.148Z" fill="#272727"/>
<path d="M18.5409 564.472C18.5409 564.472 20.4043 587.147 18.3586 596.173C18.3586 596.173 22.8881 573.753 18.5409 564.472Z" fill="#1A1A1A"/>
<path d="M14.377 620.741L15.5456 667.874C15.5456 667.91 18.8332 629.44 14.377 620.741Z" fill="#1A1A1A"/>
<path d="M28.5864 530.478L28.8059 540.487L33.664 542.379L30.7051 547.184C30.7051 547.184 45.9012 565.127 46.5587 570.077C47.18 574.845 47.0702 557.629 41.4811 545.218C35.9287 532.807 34.5406 527.566 34.5406 527.566L28.5864 530.478Z" fill="#999999"/>
<path d="M46.6682 533.717C46.6682 533.717 40.7503 545.509 41.0791 546.528C41.4446 547.547 33.5908 528.621 33.6638 528.112C33.7368 527.602 37.5724 524.326 37.5724 524.326L46.6682 533.717Z" fill="#E8D7C5"/>
<path d="M54.4124 529.531L59.49 535.136L57.9191 541.579L54.6681 531.824L54.4124 529.531Z" fill="#E8D7C5"/>
<path d="M54.4124 529.531L56.9328 532.261L56.312 536.738L54.6681 531.824L54.4124 529.531Z" fill="#877A5E"/>
<path d="M59.49 535.136L64.202 544.381C64.202 544.381 59.1612 541.214 58.5037 538.994L59.49 535.136Z" fill="#C7B299"/>
<path d="M40.4583 475.992C39.3622 477.885 37.9378 479.559 36.5498 481.197C35.4174 482.543 34.2851 483.89 32.97 485.018C32.1297 485.71 31.2531 486.329 30.5226 487.129C29.792 487.93 29.2075 488.949 29.2438 490.041C29.7553 490.405 30.4496 490.15 30.9974 489.859C34.1386 488.294 37.2436 486.474 39.5087 483.781C41.8096 481.087 43.1615 477.411 42.4309 473.917C41.4809 474.208 40.9331 475.155 40.4583 475.992Z" fill="#B2814D"/>
<path d="M42.9785 472.243C42.9785 472.243 44.2206 472.207 41.4807 477.484C39.1067 482.143 31.3623 489.313 29.5724 490.987C29.3166 491.206 28.9516 491.351 28.6228 491.424L22.9607 493.098C22.9607 493.098 25.2258 488.185 25.1891 484.108C25.1161 473.917 26.9059 456.956 40.4581 462.525C59.4165 470.277 42.9785 472.243 42.9785 472.243Z" fill="#42210B"/>
<path d="M42.1021 466.383C44.2937 472.753 48.2752 478.212 53.3161 481.742C58.3207 485.273 64.3478 486.838 70.1927 486.146C69.9002 484.363 68.7679 482.871 67.4165 481.924C66.1014 480.978 64.5673 480.469 63.0695 479.886C55.4348 476.975 48.2752 472.352 42.1021 466.383Z" fill="#603813"/>
<path d="M75.1239 589.95C74.0646 592.243 74.0283 667.509 74.0283 667.509C74.0283 667.509 81.8817 668.384 83.9273 667.509L74.9412 581.214L75.1239 589.95Z" fill="#333333"/>
<path d="M74.4302 667.91C73.0053 667.656 70.5579 666.857 70.5579 666.857L69.9004 646.435L67.0512 610.914C67.0512 610.914 67.1972 609.167 67.0512 608.584C66.9052 607.966 68.3663 604.872 68.3663 604.435C68.3663 604.035 68.2565 601.56 68.1835 600.723C68.1105 600.177 68.3295 598.539 68.4393 597.593C68.5123 597.119 68.5853 596.683 68.7313 596.21L70.1561 591.223C70.4849 590.095 71.3615 587.074 71.2522 585.909L72.7863 572.916C73.2611 569.859 72.6036 566.728 70.9234 564.144L61.0603 548.821L58.9417 537.429L67.1242 545.691C67.1242 545.691 72.165 552.934 72.4938 554.026C72.8593 555.154 72.2385 558.284 72.2385 558.612C72.2385 558.94 74.6492 564.362 74.6492 564.362L75.5625 570.732C75.5625 570.841 75.5988 570.95 75.6355 571.023C75.8182 571.824 76.6948 575.682 77.3886 578.23C78.1559 581.069 75.197 590.35 75.197 590.35C75.197 590.35 82.8317 664.38 74.4302 667.91Z" fill="#272727"/>
<path d="M15.4359 547.111C15.4359 547.111 24.1666 568.803 23.9839 579.213C23.8011 589.622 20.1117 624.344 20.9882 626.491C21.8653 628.639 23.5454 670.494 23.5454 670.494C23.5454 670.494 7.29009 674.788 8.56889 672.717C9.84724 670.642 4.7334 615.536 4.7334 615.536C4.7334 615.536 4.8427 539.577 8.4959 539.649C12.1487 539.686 15.4359 547.111 15.4359 547.111Z" fill="#1A1A1A"/>
<path d="M47.9833 496.01L44.3301 507.038L49.4444 508.458L46.4492 506.165L47.9833 496.01Z" fill="#BF8365"/>
<path d="M127.506 620.559C127.653 621.323 118.228 666.018 122.831 713.152L115.562 841.667C115.562 841.667 131.269 851.677 137.771 847.491C144.273 843.269 163.158 687.418 163.158 687.418L168.272 737.573C168.272 737.573 177.843 835.807 181.897 840.757C185.989 845.706 193.148 848.33 193.148 848.33L203.778 846.036C205.421 845.67 206.555 844.144 206.443 842.47L200.087 747.985L199.832 686.909C199.832 686.909 201.148 652.808 193.441 633.041C185.733 613.28 155.159 620.195 155.159 620.195L127.506 620.559Z" fill="#1A1A1A"/>
<path d="M121.516 602.215L118.885 587.729L118.192 536.92L147.049 527.274L150.117 527.238L155.998 529.604L170.72 529.713L200.638 540.741L198.443 608.075L192.673 633.153L155.122 632.608C155.122 632.608 146.611 631.368 142.593 630.968C139.305 630.641 131.415 625.509 125.716 622.561L121.516 602.215Z" fill="#D5D9F1"/>
<path d="M174.92 514.754L176.783 527.675C176.783 527.675 174.007 537.538 172.436 537.175C169.952 536.556 170.062 535.864 167.067 538.739C163.998 541.651 160.71 537.866 160.71 537.866C160.71 537.866 160.345 536.519 159.615 535.937C158.373 534.99 146.574 539.358 148.985 525.127C149.898 519.813 150.081 514.463 150.081 514.463L174.92 514.754Z" fill="#FFC587"/>
<path d="M171.633 530.66C171.998 529.932 172.363 529.167 172.582 528.294C172.801 527.384 172.874 526.401 172.911 525.418C173.057 522.725 173.24 519.995 173.386 517.302C172.546 516.101 171.304 515.846 170.135 515.664C165.934 514.973 161.697 514.645 157.459 514.645C156.948 514.645 156.4 514.645 155.962 515.009C155.268 515.519 154.866 516.72 154.172 517.266C153.989 517.411 153.807 517.521 153.734 517.775C153.661 517.994 153.734 518.249 153.77 518.467C154.793 522.288 156.181 525.892 157.898 529.094C158.811 530.842 159.871 532.516 161.259 533.462C161.879 533.899 162.537 534.154 163.231 534.408C164.838 535.027 166.592 535.646 168.199 534.882C169.624 534.19 170.72 532.48 171.633 530.66Z" fill="#BF8365"/>
<path d="M173.861 562.07H193.075L192.673 581.033H173.861V562.07Z" fill="#BABED3"/>
<path d="M184.345 570.15H182.592V581.033H184.345V570.15Z" fill="white"/>
<path d="M173.861 562.07H193.075V567.857L184.089 570.368C183.687 570.477 183.249 570.477 182.847 570.368L173.861 567.748V562.07Z" fill="#E8EAF7"/>
<path d="M184.637 568.548C184.637 569.167 184.126 569.677 183.468 569.677C182.811 569.677 182.299 569.167 182.299 568.548C182.299 567.93 182.811 567.42 183.468 567.42C184.126 567.42 184.637 567.93 184.637 568.548Z" fill="#B3B3B3"/>
<path d="M183.943 569.313C184.089 568.73 183.833 568.075 183.322 567.748C183.724 567.675 184.126 567.93 184.309 568.293C184.418 568.621 184.272 569.094 183.943 569.313Z" fill="#E6E6E6"/>
<path d="M137.113 562.07H156.364L155.925 581.033H137.113V562.07Z" fill="#BABED3"/>
<path d="M147.597 570.15H145.844V581.033H147.597V570.15Z" fill="white"/>
<path d="M137.113 562.07H156.327V567.857L147.341 570.368C146.939 570.477 146.501 570.477 146.099 570.368L137.113 567.748V562.07Z" fill="#E8EAF7"/>
<path d="M147.889 568.548C147.889 569.167 147.378 569.677 146.72 569.677C146.099 569.677 145.551 569.167 145.551 568.548C145.551 567.93 146.063 567.42 146.72 567.42C147.378 567.42 147.889 567.93 147.889 568.548Z" fill="#B3B3B3"/>
<path d="M147.232 569.313C147.378 568.73 147.122 568.075 146.611 567.748C147.012 567.675 147.414 567.93 147.597 568.293C147.707 568.621 147.561 569.094 147.232 569.313Z" fill="#E6E6E6"/>
<path d="M162.647 534.699L153.734 546.128C153.734 546.128 144.163 532.552 145.442 529.094C146.72 525.6 149.715 519.085 149.715 519.085C149.715 519.085 159.542 535.646 162.647 534.699Z" fill="#9CA2D1"/>
<path d="M165.496 534.663L174.92 547.766C174.92 547.766 177.587 535.973 177.696 532.224C177.806 528.475 176.162 522.252 176.162 522.252C176.162 522.252 174.482 528.803 165.496 534.663Z" fill="#9CA2D1"/>
<path d="M126.264 623.58L125.68 629.731C125.68 629.731 159.249 642.253 193.514 636.647L194.721 636.5L193.769 630.277C193.769 630.24 180.655 631.658 126.264 623.58Z" fill="#603813"/>
<path d="M168.82 640.142C168.784 640.142 168.747 640.142 168.711 640.142L155.597 638.723C155.085 638.647 154.683 638.174 154.756 637.665L155.889 626.892C155.925 626.637 156.035 626.419 156.254 626.237C156.437 626.091 156.693 626.018 156.948 626.018L170.062 627.438C170.574 627.511 170.975 627.984 170.902 628.493L169.77 639.267C169.733 639.521 169.624 639.74 169.405 639.923C169.259 640.066 169.039 640.142 168.82 640.142ZM156.802 636.937L167.98 638.138L168.893 629.294L157.715 628.093L156.802 636.937Z" fill="#B3B3B3"/>
<path d="M166.702 544.708L170.574 541.76L165.496 534.663L162.647 534.699L157.679 541.069L162.793 544.781L162.574 644.069L172.108 654.405L179.194 643.453L166.702 544.708Z" fill="#333333"/>
<path d="M140.51 593.08C140.51 593.08 143.652 598.211 146.136 598.648C148.62 599.085 159.615 596.537 159.615 596.537L153.734 577.247L143.834 568.294L139.634 564.108C139.634 564.108 137.332 561.633 136.93 561.524C136.529 561.415 132.182 561.706 131.78 561.888C131.378 562.106 129.917 563.016 129.734 564.035C129.551 565.054 129.04 564.763 129.771 566.328C130.502 567.93 136.894 579.468 136.894 579.468C136.894 579.468 138.355 584.454 138.976 586.747C139.561 589.076 140.51 593.08 140.51 593.08Z" fill="#FFC587"/>
<path d="M184.637 574.335L198.662 577.356C198.662 577.356 201.511 582.233 201.511 582.852C201.511 583.471 195.339 587.765 195.339 587.765L185.879 585.473L184.71 580.486L184.637 574.335Z" fill="#FFC587"/>
<path d="M200.674 540.741C200.674 540.741 223.759 571.897 206.483 604.654C206.483 604.654 180.327 616.956 151.798 600.468L156.327 583.107C156.327 583.107 167.249 587.329 174.555 587.511C181.861 587.693 195.196 582.088 195.196 582.088L195.706 564.181L200.674 540.741Z" fill="#DDE1F4"/>
<path d="M118.228 536.92C118.228 536.92 106.064 566.437 114.94 582.306C123.78 598.175 133.753 597.447 133.753 597.447L154.903 596.246L188.363 585.109C188.363 585.109 187.011 572.333 184.929 572.333C182.847 572.37 162.757 573.243 162.757 573.243L136.346 568.658L118.228 536.92Z" fill="#DDE1F4"/>
<path d="M188.326 585.073L154.866 596.21L152.857 596.319C152.857 596.319 162.829 602.652 188.326 585.073Z" fill="#9CA2D1"/>
<path d="M197.238 557.775C197.238 557.775 194.427 566.255 195.303 576.628C195.339 576.628 198.407 561.997 197.238 557.775Z" fill="#9CA2D1"/>
<path d="M118.301 587.547C118.301 587.547 119.251 589.112 121.442 591.223C123.561 593.298 126.849 595.882 132.328 597.447L143.432 596.865L143.177 625.982L128.748 623.907L126.264 623.544C126.264 623.544 125.789 623.143 125.168 621.796C124.401 619.03 121.515 617.647 121.296 602.361L118.301 587.547Z" fill="#9CA2D1"/>
<path d="M179.194 495.573C178.172 500.087 179.815 504.527 182.884 505.437C185.952 506.347 189.276 503.435 190.299 498.922C191.322 494.409 189.678 489.968 186.61 489.058C183.578 488.148 180.254 491.06 179.194 495.573Z" fill="#FFC587"/>
<path d="M182.92 497.284C182.518 500.123 183.358 502.598 184.747 502.78C186.135 502.998 187.596 500.851 187.998 498.012C188.399 495.173 187.56 492.698 186.171 492.516C184.747 492.298 183.322 494.445 182.92 497.284Z" fill="#BF8365"/>
<path d="M138.027 498.412C139.195 502.889 142.593 505.619 145.624 504.491C148.656 503.398 150.19 498.886 149.058 494.445C147.889 489.968 144.492 487.239 141.46 488.367C138.392 489.422 136.858 493.936 138.027 498.412Z" fill="#FFC587"/>
<path d="M140.181 497.248C140.802 500.05 142.629 501.979 144.273 501.579C145.88 501.178 146.683 498.594 146.063 495.792C145.442 492.989 143.615 491.06 141.971 491.461C140.327 491.861 139.524 494.445 140.181 497.248Z" fill="#BF8365"/>
<path d="M147.89 508.166C149.058 508.931 154.136 506.965 154.136 506.965L172.327 507.22L176.016 509.295C176.016 509.295 184.016 500.05 184.747 495.646C184.783 495.027 184.82 494.409 184.82 493.754C185.185 476.829 176.235 462.926 164.839 462.671C153.442 462.453 143.908 475.955 143.542 492.916C143.542 493.28 143.542 493.644 143.542 494.008C143.725 494.518 146.72 507.438 147.89 508.166Z" fill="#FFC587"/>
<path d="M174.429 496.868C174.467 495.139 173.534 493.717 172.344 493.691C171.154 493.665 170.158 495.045 170.12 496.773C170.081 498.501 171.015 499.924 172.205 499.95C173.395 499.976 174.391 498.596 174.429 496.868Z" fill="black"/>
<path d="M170.647 495.682C170.647 496.119 170.939 496.447 171.268 496.447C171.633 496.447 171.925 496.119 171.925 495.682C171.925 495.246 171.633 494.918 171.304 494.918C170.975 494.918 170.683 495.246 170.647 495.682Z" fill="white"/>
<path d="M153.953 496.628C153.916 498.376 154.866 499.795 156.035 499.795C157.24 499.832 158.227 498.448 158.263 496.701C158.3 494.954 157.35 493.535 156.181 493.535C154.976 493.499 153.989 494.882 153.953 496.628Z" fill="black"/>
<path d="M154.574 495.355C154.574 495.791 154.866 496.119 155.195 496.119C155.56 496.119 155.852 495.791 155.852 495.355C155.852 494.918 155.56 494.59 155.231 494.59C154.903 494.59 154.61 494.918 154.574 495.355Z" fill="white"/>
<path d="M179.742 459.65C177.112 459.286 175.286 457.757 175.651 456.665C175.651 456.665 173.788 457.321 174.19 458.412C174.19 458.412 172.619 456.447 172.729 455.173C172.729 455.173 170.829 456.993 170.281 457.539C169.733 458.085 158.483 450.041 158.483 450.041C158.483 450.041 156.62 449.204 153.88 449.823L145.332 451.206C145.113 451.679 145.807 455.501 146.209 457.612C144.821 459.65 140.62 466.602 141.497 473.517C142.556 481.779 143.981 488.257 143.981 488.257L143.615 494.008L146.026 484.4L150.446 471.843C151.652 473.663 153.149 475.118 155.122 475.701C162.537 478.03 179.45 473.19 179.45 473.19L184.345 489.058L184.82 494.845L186.025 486.656L189.532 467.184C189.532 467.184 182.336 460.014 179.742 459.65Z" fill="#42210B"/>
<path d="M145.88 456.046C145.88 456.046 146.903 464.272 148.985 465.437C151.067 466.565 165.423 463.034 173.971 467.22C182.555 471.406 188.363 466.492 178.464 462.962C168.528 459.432 159.944 462.016 155.232 457.138L145.88 456.046Z" fill="#603813"/>
<path d="M145.88 456.046C145.88 456.046 146.903 464.272 148.985 465.437C151.067 466.565 165.423 463.034 173.971 467.22C182.555 471.406 188.363 466.492 178.464 462.962C168.528 459.432 159.944 462.016 155.232 457.138L145.88 456.046Z" fill="#603813"/>
<path d="M163.56 523.999C174.518 524.217 183.797 510.896 184.82 494.845C184.089 499.213 175.98 508.858 175.98 508.858L172.327 506.893L154.135 506.638C154.135 506.638 149.204 508.713 148.035 507.948C146.903 507.22 143.725 494.19 143.615 493.717C143.652 510.132 152.419 523.744 163.56 523.999Z" fill="#42210B"/>
<path d="M157.167 510.096L169.989 510.35C169.989 510.387 163.998 516.538 157.167 510.096Z" fill="white"/>
<path d="M169.186 490.514C168.966 490.514 168.747 490.405 168.601 490.223C168.309 489.895 168.345 489.386 168.711 489.131C168.966 488.913 174.701 484.254 180.4 487.129C180.801 487.311 180.948 487.821 180.728 488.185C180.509 488.585 180.035 488.731 179.633 488.512C174.884 486.11 169.77 490.296 169.733 490.332C169.587 490.441 169.368 490.514 169.186 490.514Z" fill="black"/>
<path d="M160.09 490.696C160.309 490.696 160.528 490.623 160.711 490.442C161.003 490.114 161.003 489.64 160.674 489.313C160.455 489.095 154.866 484.181 149.095 486.838C148.693 487.02 148.51 487.493 148.693 487.894C148.876 488.294 149.35 488.476 149.752 488.257C154.574 486.074 159.542 490.442 159.578 490.478C159.688 490.623 159.871 490.696 160.09 490.696Z" fill="black"/>
<path d="M163.962 494.408C163.962 494.408 162.062 500.45 161.807 502.306C161.515 504.163 164.693 504.818 164.693 504.818L162.83 502.671L163.962 494.408Z" fill="#A67C52"/>
<path d="M161.77 502.307C161.478 504.163 164.656 504.818 164.656 504.818L161.77 502.307Z" fill="#A67C52"/>
<path d="M154.939 502.707C150.848 502.707 147.122 501.87 145.259 501.397C144.602 501.215 144.127 500.633 144.163 499.941L144.492 490.696C144.529 489.896 145.186 489.277 145.99 489.277L160.893 489.786C161.295 489.786 161.661 489.969 161.917 490.259C162.172 490.551 162.318 490.915 162.318 491.315L161.99 500.633C161.953 501.251 161.515 501.834 160.93 501.979C159.14 502.452 157.131 502.707 154.939 502.707ZM145.99 489.896C145.515 489.896 145.113 490.259 145.113 490.696L144.785 499.941C144.785 500.341 145.04 500.669 145.405 500.778C147.232 501.251 150.922 502.089 154.939 502.089C157.058 502.089 159.031 501.834 160.711 501.397C161.04 501.287 161.295 500.996 161.295 500.633L161.624 491.315C161.624 491.097 161.551 490.878 161.405 490.733C161.259 490.587 161.04 490.478 160.82 490.478L145.99 489.896Z" fill="black"/>
<path d="M177.295 503.472C173.204 503.472 169.477 502.634 167.615 502.161C166.957 501.979 166.482 501.397 166.519 500.706L166.847 491.46C166.884 490.66 167.542 490.041 168.345 490.041L183.249 490.551C184.053 490.587 184.71 491.242 184.673 492.043L184.345 501.361C184.308 501.979 183.87 502.562 183.285 502.707C181.496 503.253 179.487 503.472 177.295 503.472ZM168.382 490.696C167.907 490.696 167.505 491.06 167.505 491.497L167.176 500.742C167.176 501.142 167.432 501.47 167.797 501.579C169.623 502.052 173.313 502.889 177.331 502.889C179.45 502.889 181.423 502.634 183.103 502.198C183.431 502.089 183.687 501.797 183.687 501.433L184.016 492.116C184.016 491.643 183.651 491.279 183.212 491.242L168.382 490.696Z" fill="black"/>
<path d="M166.957 496.847L161.332 496.629L161.369 495.537L167.03 495.756L166.957 496.847Z" fill="black"/>
<path d="M167.468 491.024L161.733 490.805C161.441 490.805 161.186 490.551 161.186 490.259V490.005C161.186 489.714 161.441 489.495 161.77 489.495L167.505 489.714C167.797 489.714 168.053 489.968 168.053 490.259V490.514C168.016 490.805 167.76 491.024 167.468 491.024Z" fill="#666666"/>
<path d="M184.965 494.045H184.746C184.418 494.045 184.162 493.79 184.199 493.463L184.272 491.497C184.272 491.206 184.564 490.951 184.856 490.951H185.075C185.404 490.951 185.66 491.206 185.623 491.534L185.55 493.499C185.55 493.826 185.294 494.081 184.965 494.045Z" fill="#666666"/>
<path d="M144.456 492.407H144.236C143.907 492.407 143.652 492.153 143.688 491.825L143.761 489.86C143.761 489.568 144.054 489.314 144.346 489.314H144.565C144.894 489.314 145.149 489.568 145.113 489.896L145.04 491.861C145.076 492.189 144.784 492.444 144.456 492.407Z" fill="#666666"/>
</g>
</g>
<defs>
<clipPath id="clip0">
<rect width="375" height="667" fill="white"/>
</clipPath>
</defs>
</svg>
