<svg width="1920" height="1080" viewBox="0 0 1920 1080" fill="none" xmlns="http://www.w3.org/2000/svg">
<g clip-path="url(#clip0)">
<mask id="mask0" mask-type="alpha" maskUnits="userSpaceOnUse" x="396" y="540" width="1129" height="540">
<rect x="396" y="540" width="1128.26" height="540" fill="#C4C4C4"/>
</mask>
<g mask="url(#mask0)">
<path d="M1269.27 1107.65C1271.31 1118.98 1277.35 1289.18 1277.35 1289.18L1289.34 1451.15L1291.21 1462.89C1291.21 1462.89 1312.33 1473.66 1324.24 1469.74C1336.15 1465.83 1336.15 1465.83 1336.15 1465.83L1341.86 1263.41V1186.02C1341.86 1186.02 1362 1131.38 1365.02 1111.73C1368.03 1092.15 1365.02 1044.69 1365.02 1044.69L1355.96 1014.76L1271.23 1019.9L1247.01 1023L1269.27 1107.65Z" fill="#1A1A1A"/>
<path d="M1220.83 1022.02L1206.72 1091.09L1224.91 1211.79L1238.04 1292.2L1243.5 1420.65V1437.28C1243.5 1437.28 1257.29 1445.11 1269.19 1445.11C1281.1 1445.11 1290.31 1434.35 1290.31 1434.35L1306.63 1152.91L1305.65 1070.38L1280.37 983.852L1225.89 991.11L1220.83 1022.02Z" fill="#1A1A1A"/>
<path d="M1315.92 1106.59C1315.92 1106.59 1304.83 1128.69 1273.92 1113.03C1243.01 1097.37 1281.51 1001.55 1281.51 1001.55L1312.58 1023.24L1315.92 1106.59Z" fill="#1A1A1A"/>
<path d="M1300.83 742.538L1304.59 760.48C1304.59 760.48 1297.25 771.652 1297.33 773.773C1297.41 775.893 1299.12 781.113 1293.17 784.701C1287.3 788.289 1271.8 790.328 1271.8 790.328C1271.8 790.328 1265.12 781.602 1263.81 780.868C1261.61 779.563 1255 766.922 1255.57 757.707C1256.06 750.123 1257.12 742.864 1257.12 742.864L1300.83 742.538Z" fill="#FFC587"/>
<path d="M1293.58 789.186H1260.87L1250.52 822.704L1264.05 895.449C1264.05 895.449 1282.89 895.449 1282.81 891.453C1282.81 890.392 1294.8 873.103 1295.45 871.717C1296.1 870.331 1303.85 839.748 1304.5 834.611C1305.16 829.473 1299.2 804.436 1299.2 804.436L1293.58 789.186Z" fill="#FCDBE9"/>
<path d="M1217.24 1015.49L1200.85 1013.86L1195.63 1013.29V1020.96C1195.63 1020.96 1196.2 1030.09 1196.77 1031.8C1197.34 1033.52 1202.16 1041.67 1202.16 1041.67C1202.16 1041.67 1207.29 1039.8 1208.44 1038.66C1209.5 1037.51 1215.53 1031.8 1215.53 1029.93C1215.45 1027.89 1217.24 1015.49 1217.24 1015.49Z" fill="#A57C52"/>
<path d="M1204.44 986.217L1211.78 1021.61L1208.03 1026.59C1208.03 1026.59 1201.75 1029.03 1195.55 1021.86C1189.43 1014.68 1196.28 989.153 1196.28 989.153L1204.44 986.217Z" fill="#FCDBE9"/>
<path d="M1195.63 811.287C1196.28 810.063 1197.1 808.922 1198 807.861C1201.83 812.265 1206.23 817.566 1207.54 823.764C1210.47 837.628 1222.14 896.509 1221.81 918.691C1221.48 940.873 1207.54 1008.97 1207.54 1008.97C1207.54 1008.97 1205.58 1016.39 1199.14 1008.97C1192.7 1001.55 1191.72 980.752 1191.72 980.752C1191.72 980.752 1188.13 847.822 1190.74 833.387C1192.45 823.519 1194.57 815.446 1195.63 811.287Z" fill="#1A1A1A"/>
<path d="M1281.02 799.543L1287.87 832.327L1291.13 850.921L1274.98 885.662L1264.05 834.692L1273.51 800.277L1281.02 799.543Z" fill="#CA464B"/>
<path d="M1277.59 806.801C1281.29 806.801 1284.28 802.858 1284.28 797.993C1284.28 793.129 1281.29 789.186 1277.59 789.186C1273.9 789.186 1270.91 793.129 1270.91 797.993C1270.91 802.858 1273.9 806.801 1277.59 806.801Z" fill="#CA464B"/>
<path d="M1277.59 788.86C1277.59 788.86 1259.08 802.805 1259.65 810.308C1260.3 817.892 1250.84 776.79 1250.84 776.79C1250.84 776.79 1250.19 771.897 1252.15 766.514L1255.65 758.93C1255.65 758.93 1265.69 778.258 1269.76 781.846C1273.76 785.353 1277.59 788.86 1277.59 788.86Z" fill="#E6DAEB"/>
<path d="M1110.41 1011.01C1116.53 1010.44 1121.34 1002.69 1121.34 993.23C1121.34 983.77 1116.53 976.023 1110.41 975.452V975.37H1324.65C1338.19 975.37 1349.2 983.444 1349.2 993.393C1349.2 1003.34 1338.19 1011.42 1324.65 1011.42H1110.41V1011.01Z" fill="#B3B3B3"/>
<path d="M1123.46 993.394C1123.46 1003.26 1117.59 1011.42 1111.14 1011.42C1104.7 1011.42 1100.13 1003.26 1100.13 993.394C1100.13 983.526 1105.03 975.371 1111.47 975.371C1117.83 975.371 1123.46 983.526 1123.46 993.394Z" fill="#808080"/>
<path d="M1106.41 971.863C1112.53 971.293 1117.34 963.545 1117.34 954.085C1117.34 944.625 1112.53 936.877 1106.41 936.307V936.225H1320.65C1334.19 936.225 1345.2 944.299 1345.2 954.248C1345.2 964.198 1334.19 972.271 1320.65 972.271H1106.41V971.863Z" fill="#CCCCCC"/>
<path d="M1119.46 954.248C1119.46 964.116 1113.59 972.271 1107.15 972.271C1100.71 972.271 1096.14 964.116 1096.14 954.248C1096.14 944.38 1101.03 936.225 1107.47 936.225C1113.84 936.225 1119.46 944.38 1119.46 954.248Z" fill="#999999"/>
<path d="M1126.07 989.887C1132.18 989.316 1137 981.569 1137 972.109C1137 962.648 1132.18 954.901 1126.07 954.33V954.249H1340.31C1353.84 954.249 1364.85 962.322 1364.85 972.272C1364.85 982.221 1353.84 990.295 1340.31 990.295H1126.07V989.887Z" fill="#E6E6E6"/>
<path d="M1139.12 972.19C1139.12 982.058 1133.24 990.213 1126.8 990.213C1120.36 990.213 1115.79 982.058 1115.79 972.19C1115.79 962.322 1120.69 954.167 1127.13 954.167C1133.49 954.248 1139.12 962.322 1139.12 972.19Z" fill="#999999"/>
<path d="M1185.85 1039.63C1190.09 1039.96 1193.92 1044.93 1193.92 1044.93C1193.92 1044.93 1193.92 1040.69 1196.86 1038.25C1199.79 1035.8 1206.89 1031.89 1206.89 1031.89C1206.89 1031.89 1208.84 1026.58 1208.84 1025.52C1208.84 1024.46 1207.54 1008.97 1207.54 1008.97C1207.54 1008.97 1219.85 940.547 1220.18 918.365C1220.51 896.183 1209.82 837.954 1206.89 824.09C1205.58 817.974 1201.83 812.265 1198 807.861C1198.32 807.454 1198.65 807.127 1198.98 806.72L1230.46 786.25L1224.66 814.793L1243.75 811.123L1235.51 829.962L1270.58 885.01L1273.92 869.27L1281.51 900.913V1039.14C1281.51 1039.14 1210.8 1093.7 1200.85 1091.34C1190.9 1089.05 1181.61 1039.31 1185.85 1039.63Z" fill="#333333"/>
<path d="M1303.93 754.282C1303.93 754.282 1281.51 786.903 1277.59 788.86C1277.59 788.86 1292.92 803.865 1293.9 813.652C1294.88 823.438 1312.58 772.957 1312.58 772.957C1312.58 772.957 1306.54 753.303 1303.93 754.282Z" fill="#E6DAEB"/>
<path d="M1234.37 831.43L1242.77 812.102L1223.12 816.914L1230.46 786.332L1250.84 773.12L1273.92 869.352L1270.33 888.925C1270.17 889.822 1269.11 890.067 1268.62 889.251L1234.37 831.43Z" fill="#666666"/>
<path d="M1330.11 780.378L1329.87 778.747C1330.19 778.91 1330.52 779.073 1330.93 779.236L1330.11 780.378Z" fill="#333333"/>
<path d="M1270.91 940.221C1268.87 929.619 1269.36 904.175 1270.09 886.559L1323.75 825.313L1314.7 810.063L1338.76 817.403L1333.46 780.378C1349.03 787.473 1369.67 796.607 1382.06 803.947C1379.21 807.617 1376.35 812.265 1373.91 818.3C1363.96 842.276 1355.8 915.592 1356.21 932.555C1356.62 949.518 1352.29 1014.35 1352.29 1025.61C1352.29 1036.86 1348.38 1094.68 1348.38 1094.68V1102.84C1332.15 1100.47 1304.67 1095.74 1293.58 1090.44C1277.43 1082.69 1274.17 1053.74 1269.52 1031.89C1264.79 1010.03 1274.17 957.184 1270.91 940.221Z" fill="#333333"/>
<path d="M1312.58 806.475L1314.62 809.982L1310.78 808.84L1330.11 780.378L1334.84 813.978L1312.58 806.475Z" fill="black"/>
<path d="M1314.62 809.982L1312.5 806.475L1334.76 813.978L1330.03 780.378L1330.85 779.236C1331.66 779.644 1333.29 780.378 1334.11 780.704L1340.14 818.463L1314.62 809.982Z" fill="#333333"/>
<path d="M1311.93 770.755C1313.15 772.223 1321.55 774.914 1330.93 779.236L1336.96 814.956L1316.09 807.943L1326.61 825.966L1269.68 889.822C1270.09 879.301 1271.07 867.395 1271.07 867.395L1311.93 770.755Z" fill="#666666"/>
<path d="M1298.88 878.812L1348.71 881.095L1349.03 870.494L1299.29 868.21L1298.88 878.812Z" fill="#1A1A1A"/>
<path d="M1268.95 936.144C1268.95 939.243 1271.23 941.771 1274 941.771C1276.78 941.771 1279.06 939.243 1279.06 936.144C1279.06 933.045 1276.78 930.517 1274 930.517C1271.23 930.517 1268.95 933.045 1268.95 936.144Z" fill="#1A1A1A"/>
<path d="M1269.93 995.35C1269.93 998.449 1272.21 1000.98 1274.98 1000.98C1277.76 1000.98 1280.04 998.449 1280.04 995.35C1280.04 992.251 1277.76 989.723 1274.98 989.723C1272.21 989.723 1269.93 992.251 1269.93 995.35Z" fill="#1A1A1A"/>
<path d="M1262.51 740.173C1265.03 738.052 1268.62 737.563 1271.97 737.319C1277.59 736.911 1283.22 736.992 1288.85 737.563C1291.78 737.808 1295.04 738.379 1296.76 740.581C1298.88 743.272 1297.9 747.023 1296.76 750.204C1294.47 756.891 1291.95 763.823 1286.73 768.798C1281.43 773.772 1272.54 776.219 1266.26 772.304C1263.08 770.266 1261.04 766.922 1260.06 763.415C1259.08 759.909 1258.92 756.32 1258.84 752.65C1258.84 748.247 1259 743.19 1262.51 740.173Z" fill="#BF9465"/>
<path d="M1350.09 1027.4C1350.09 1016.15 1354.82 948.866 1354.41 931.984C1354.01 915.103 1362.16 841.869 1372.03 817.892C1374.48 811.939 1379.13 807.617 1381.98 803.947C1384.92 805.741 1387.44 807.372 1389.32 808.84C1404.41 821.073 1402.29 961.18 1399.68 972.434C1397.07 983.689 1385.89 1097.05 1382.39 1100.8C1378.96 1104.55 1360.86 1104.55 1360.86 1104.55C1360.86 1104.55 1355.31 1103.82 1347.89 1102.76L1347.16 1094.44C1347.08 1094.44 1350.09 1038.65 1350.09 1027.4Z" fill="#1A1A1A"/>
<path d="M1228.09 707.633C1229.8 715.544 1235.1 720.437 1240 718.643C1244.89 716.849 1247.5 709.02 1245.87 701.109C1244.16 693.198 1238.86 688.305 1233.96 690.099C1228.99 691.894 1226.38 699.723 1228.09 707.633Z" fill="#FFC587"/>
<path d="M1231.6 705.676C1232.49 710.569 1235.35 714.076 1237.96 713.423C1240.57 712.771 1241.95 708.285 1241.06 703.311C1240.16 698.418 1237.31 694.911 1234.7 695.563C1232 696.297 1230.7 700.783 1231.6 705.676Z" fill="#BF8365"/>
<path d="M1324.4 707.796C1322.69 715.707 1317.39 720.6 1312.5 718.806C1307.6 717.012 1304.99 709.183 1306.63 701.272C1308.34 693.362 1313.64 688.469 1318.53 690.263C1323.43 692.057 1326.03 699.967 1324.4 707.796Z" fill="#FFC587"/>
<path d="M1320.16 705.513C1319.27 710.406 1316.41 713.913 1313.8 713.26C1311.19 712.608 1309.81 708.122 1310.7 703.148C1311.6 698.255 1314.45 694.748 1317.06 695.4C1319.76 696.134 1321.14 700.62 1320.16 705.513Z" fill="#BF8365"/>
<path d="M1277.09 755.75C1299.11 755.666 1316.87 729.82 1316.74 698.021C1316.62 666.223 1298.67 640.514 1276.64 640.598C1254.62 640.682 1236.86 666.528 1236.99 698.327C1237.11 730.125 1255.06 755.834 1277.09 755.75Z" fill="#FFC587"/>
<path d="M1265.69 701.517C1265.36 701.517 1265.03 701.354 1264.87 701.109C1262.67 698.173 1260.47 696.705 1258.26 696.705C1254.68 696.787 1251.99 700.946 1251.99 701.027C1251.66 701.517 1251.09 701.598 1250.6 701.354C1250.11 701.027 1250.03 700.457 1250.27 699.967C1250.44 699.723 1253.53 694.911 1258.18 694.748C1261.04 694.585 1263.89 696.379 1266.5 699.967C1266.83 700.457 1266.75 701.027 1266.26 701.354C1266.09 701.435 1265.93 701.517 1265.69 701.517Z" fill="#42210B"/>
<path d="M1266.01 691.975L1248.32 692.301C1246.68 692.301 1245.38 690.996 1245.3 689.365V688.958C1245.3 687.327 1246.52 686.022 1248.15 685.94L1265.85 685.614C1267.48 685.614 1268.78 686.919 1268.87 688.55V688.958C1268.95 690.589 1267.64 691.975 1266.01 691.975Z" fill="#42210B"/>
<path d="M1305.24 692.546L1287.54 691.731C1285.91 691.649 1284.69 690.263 1284.77 688.632V688.224C1284.85 686.593 1286.24 685.288 1287.79 685.37L1305.48 686.185C1307.11 686.267 1308.34 687.653 1308.26 689.284V689.692C1308.26 691.404 1306.87 692.628 1305.24 692.546Z" fill="#42210B"/>
<path d="M1302.71 702.577C1302.38 702.577 1302.06 702.414 1301.9 702.169C1299.69 699.233 1297.49 697.684 1295.29 697.765C1291.7 697.847 1289.01 702.006 1289.01 702.088C1288.68 702.577 1288.11 702.658 1287.62 702.414C1287.13 702.088 1287.05 701.517 1287.3 701.027C1287.46 700.783 1290.56 695.971 1295.21 695.808C1298.14 695.726 1300.92 697.439 1303.53 701.027C1303.85 701.517 1303.77 702.088 1303.28 702.414C1303.12 702.577 1302.96 702.577 1302.71 702.577Z" fill="#42210B"/>
<path d="M1278.41 691.649C1278.41 691.649 1266.91 718.072 1270.91 719.295C1274.98 720.519 1280.2 720.763 1280.2 720.763L1273.6 716.033L1278 693.933L1278.41 691.649Z" fill="#BF8365"/>
<path d="M1264.22 727.858H1289.5C1289.42 727.858 1277.27 757.38 1264.22 727.858Z" fill="white"/>
<path d="M1296.11 652.585L1316.41 691.323L1323.02 676.725C1323.59 674.768 1323.59 672.647 1323.02 670.608C1321.22 663.676 1318.29 646.877 1314.45 640.923C1310.95 635.459 1304.34 633.91 1300.92 633.502C1300.92 633.421 1300.92 633.421 1300.92 633.339C1301.41 622.574 1242.93 609.933 1232.98 646.877C1228.33 664.166 1226.21 674.278 1231.11 682.434C1231.76 687.979 1237.47 707.715 1237.47 707.715C1237.55 706.247 1237.22 692.546 1237.39 688.224L1296.11 652.585Z" fill="#603813"/>
<path d="M1313.8 686.43L1316.09 708.367L1319.59 682.434L1314.7 680.395L1313.8 686.43Z" fill="#603813"/>
<path d="M1279.39 691.405C1319.18 692.546 1327.34 673.545 1327.34 673.545C1327.34 673.545 1325.14 678.601 1313.39 682.923C1301.65 687.164 1293.33 688.061 1277.67 688.061C1262.02 688.061 1253.45 685.043 1245.54 683.494C1237.63 681.944 1228.17 676.97 1228.17 676.97C1239.59 691.649 1272.7 691.568 1277.1 691.405H1279.39Z" fill="#BCA730"/>
<path d="M1326.93 658.131C1326.61 657.805 1326.36 657.642 1326.36 657.642C1320.41 654.38 1318.7 658.702 1318.7 658.702C1318.7 658.702 1319.84 661.883 1321.22 664.9C1315.11 668.651 1302.55 672.403 1276.86 672.484C1251.17 672.566 1238.04 668.407 1231.43 664.655C1232.82 661.719 1233.88 658.702 1233.88 658.702C1233.88 658.702 1232.17 654.298 1226.21 657.642C1226.21 657.642 1225.64 657.886 1225.07 658.947C1213.82 671.016 1230.86 680.64 1241.14 685.207C1251.5 689.773 1290.72 688.958 1290.72 688.958C1341.61 687.082 1327.09 656.092 1326.93 658.131Z" fill="#FCE566"/>
<path d="M1278.57 603.573C1229.72 601.208 1228.01 652.096 1228.01 652.096L1228.25 660.578C1228.25 660.578 1269.27 684.391 1319.67 667.02L1325.06 663.514V652.912C1325.06 652.912 1329.54 603.41 1278.57 603.573Z" fill="#FBDF40"/>
<path d="M1253.78 610.667L1252.15 619.801L1247.91 622.737L1249.54 608.629C1249.54 608.629 1251.82 605.693 1254.11 607.895L1253.78 610.667Z" fill="#FDE9B3"/>
<path d="M1271.8 602.268L1271.15 624.695L1281.26 625.021L1280.85 602.594C1280.85 602.594 1277.84 596.151 1271.8 602.268Z" fill="#FDEC8C"/>
<path d="M1301.24 620.209L1305.4 623.308L1304.75 607.732C1304.75 607.732 1303.12 605.04 1300.43 607.405L1301.24 620.209Z" fill="#FDF2B3"/>
<path d="M1247.99 622.737C1247.99 622.737 1247.83 617.681 1249.78 618.089C1251.74 618.415 1252.31 619.801 1252.31 619.801L1247.99 622.737Z" fill="#BC9630"/>
<path d="M1301.24 620.209C1301.24 620.209 1302.87 617.029 1304.1 618.497C1305.32 619.965 1305.48 623.308 1305.48 623.308L1301.24 620.209Z" fill="#BC9630"/>
<path d="M1271.15 624.695C1271.15 624.695 1276.37 614.419 1281.26 625.021L1271.15 624.695Z" fill="#BC9630"/>
<path d="M1227.19 657.152C1227.19 657.152 1226.79 671.343 1262.02 672.077C1297.25 672.729 1299.12 669.222 1299.12 669.222C1299.12 669.222 1238.45 663.595 1238.94 649.731C1239.34 635.867 1243.75 619.394 1243.75 619.394L1244.56 614.256C1244.56 614.256 1229.4 624.042 1227.19 657.152Z" fill="#BCA730"/>
<path d="M1243.01 669.875L1240.24 671.424C1240.24 671.424 1239.43 668.325 1239.59 665.389C1239.83 662.453 1241.14 659.844 1241.55 660.822C1242.61 662.779 1243.01 669.875 1243.01 669.875Z" fill="#FDF2B3"/>
<path d="M1241.38 660.578L1233.8 657.234C1233.8 657.234 1231.6 661.801 1231.35 664.737C1231.35 664.737 1231.92 667.591 1240.24 671.424C1240.24 671.343 1239.18 663.758 1241.38 660.578Z" fill="#FBDF40"/>
<path d="M1307.2 670.364L1309.81 672.158C1309.81 672.158 1311.03 669.14 1311.11 666.205C1311.19 663.269 1310.21 660.496 1309.64 661.475C1308.42 663.35 1307.2 670.364 1307.2 670.364Z" fill="#BC9630"/>
<path d="M1309.81 661.312L1317.72 658.702C1317.72 658.702 1319.67 664.084 1319.59 667.02C1319.59 667.02 1318.37 669.141 1309.81 672.158C1309.81 672.158 1311.68 664.737 1309.81 661.312Z" fill="#FDEC8C"/>
<path d="M1326.2 669.956C1324.49 668.896 1322.2 669.467 1320.57 670.69C1318.94 671.832 1317.72 673.545 1316.25 674.849C1313.07 677.541 1308.75 678.356 1304.59 679.009C1295.53 680.313 1286.4 680.884 1277.27 680.721C1274.49 680.64 1271.31 680.721 1269.6 682.842C1272.21 683.983 1275.15 684.065 1277.92 684.228C1291.21 684.799 1305.08 685.37 1317.39 680.477C1319.67 679.579 1321.96 678.438 1323.67 676.725C1325.46 674.768 1326.61 672.321 1326.2 669.956Z" fill="#FDF2B3"/>
<path d="M628.68 648.916C628.68 648.916 604.377 649.242 607.232 678.52C607.232 678.52 586.925 695.89 602.42 710.162C602.42 710.162 582.929 706.329 582.114 728.756C581.298 751.183 597.608 747.839 597.608 747.839C597.608 747.839 589.372 764.476 605.356 770.919C621.34 777.28 637.406 779.563 637.406 779.563H698.733C698.733 779.563 726.624 784.212 731.436 764.394C731.436 764.394 748.073 758.115 746.931 747.839C746.931 747.839 770.907 733.078 750.601 714.484C750.601 714.484 767.401 711.711 755.005 692.547C755.005 692.547 764.954 669.467 736.737 660.17C736.737 660.17 732.986 644.268 711.7 641.984C690.415 639.701 672.881 622.819 672.881 622.819H648.089L628.68 648.916Z" fill="#42210B"/>
<path d="M636.101 697.603C637.161 706.247 633.899 713.995 628.843 714.892C623.705 715.789 618.73 709.51 617.589 700.783C616.529 692.139 619.791 684.391 624.847 683.494C629.985 682.597 635.041 688.958 636.101 697.603Z" fill="#FFC587"/>
<path d="M631.779 699.152C631.779 704.045 629.577 708.041 626.804 708.041C624.113 708.041 621.83 704.045 621.83 699.152C621.83 694.259 624.031 690.263 626.804 690.263C629.577 690.263 631.779 694.259 631.779 699.152Z" fill="#B2814D"/>
<path d="M647.845 773.365L676.388 833.632C676.388 833.632 680.547 843.582 680.873 844.887C681.2 846.273 696.939 855.162 696.939 855.162L703.463 843.174L699.549 810.227L691.068 783.315L688.132 776.464L678.59 773.284H647.845V773.365Z" fill="#FFC587"/>
<path d="M650.454 751.101L647.845 778.584C647.845 778.584 661.546 792.204 673.208 791.633C684.87 791.143 687.724 777.035 687.724 777.035L684.625 752.161L650.454 751.101Z" fill="#FFC587"/>
<path d="M675.654 818.953L698.326 817.077V841.053L686.99 845.784L677.367 831.43L675.654 818.953Z" fill="white"/>
<g opacity="0.72">
<g opacity="0.72">
<g opacity="0.72">
<path opacity="0.72" d="M683.075 753.629C680.221 766.514 676.47 801.011 661.056 795.955C648.987 792.04 647.519 761.05 656.897 752.732C664.318 746.208 674.757 754.037 683.32 753.058L683.075 753.629Z" fill="#B2814D"/>
</g>
</g>
</g>
<path d="M721.65 706.003C719.04 714.158 712.679 718.888 707.46 716.523C702.24 714.158 700.12 705.595 702.729 697.44C705.339 689.284 711.7 684.554 716.92 686.919C722.139 689.203 724.259 697.766 721.65 706.003Z" fill="#FFC587"/>
<g opacity="0.71">
<g opacity="0.71">
<g opacity="0.71">
<path opacity="0.71" d="M710.232 709.428C714.151 709.428 717.327 705.557 717.327 700.783C717.327 696.009 714.151 692.139 710.232 692.139C706.314 692.139 703.137 696.009 703.137 700.783C703.137 705.557 706.314 709.428 710.232 709.428Z" fill="#B2814D"/>
</g>
</g>
<g opacity="0.71">
<g opacity="0.71">
<path opacity="0.71" d="M717.327 700.783C717.327 705.595 714.147 709.428 710.232 709.428C706.318 709.428 703.137 705.513 703.137 700.783C703.137 695.972 706.318 692.139 710.232 692.139C714.147 692.139 717.327 695.972 717.327 700.783C717.327 695.972 717.327 705.513 717.327 700.783Z" fill="#B2814D"/>
</g>
</g>
<g opacity="0.71">
<g opacity="0.71">
<path opacity="0.71" d="M716.92 686.838C722.139 689.203 724.259 697.766 721.65 705.921C719.04 714.158 711.7 684.473 716.92 686.838Z" fill="#FFC587"/>
</g>
</g>
<g opacity="0.71">
<g opacity="0.71">
<path opacity="0.71" d="M717.327 700.783C717.327 705.595 714.147 709.428 710.232 709.428C706.318 709.428 703.137 705.513 703.137 700.783C703.137 695.972 706.318 692.139 710.232 692.139C714.147 692.139 717.327 695.972 717.327 700.783C717.327 695.972 717.327 705.513 717.327 700.783Z" fill="#B2814D"/>
</g>
</g>
<g opacity="0.71">
<g opacity="0.71">
<g opacity="0.71">
<path opacity="0.71" d="M721.65 706.003C719.04 714.158 712.679 718.888 707.46 716.523C702.24 714.158 700.12 705.595 702.729 697.44C705.339 689.284 711.7 684.554 716.92 686.919C722.139 689.203 724.259 697.766 721.65 706.003Z" fill="#FFC587"/>
</g>
</g>
</g>
<g opacity="0.71">
<g opacity="0.71">
<path opacity="0.71" d="M717.327 700.783C717.327 705.595 714.147 709.428 710.232 709.428C706.318 709.428 703.137 705.513 703.137 700.783C703.137 695.972 706.318 692.139 710.232 692.139C714.147 692.139 717.327 695.972 717.327 700.783C717.327 695.972 717.327 705.513 717.327 700.783Z" fill="#B2814D"/>
</g>
</g>
</g>
<path d="M711.619 695.727C711.619 733.078 693.351 763.416 670.761 763.416C648.252 763.416 629.903 733.078 629.903 695.727C629.903 658.376 648.171 628.039 670.761 628.039C693.351 628.039 711.619 658.295 711.619 695.727Z" fill="#FFC587"/>
<path d="M659.588 702.822C659.588 706.9 657.794 710.243 655.674 710.243C653.472 710.243 651.759 706.9 651.759 702.822C651.759 698.745 653.553 695.401 655.674 695.401C657.876 695.401 659.588 698.745 659.588 702.822Z" fill="black"/>
<path d="M658.61 699.234C658.61 700.131 658.039 700.783 657.305 700.783C656.571 700.783 656 700.049 656 699.234C656 698.337 656.571 697.684 657.305 697.684C658.039 697.684 658.61 698.337 658.61 699.234Z" fill="white"/>
<path d="M689.844 703.393C689.844 707.47 688.132 710.814 685.93 710.814C683.728 710.814 682.015 707.47 682.015 703.393C682.015 699.315 683.728 695.971 685.93 695.971C688.132 695.971 689.844 699.315 689.844 703.393Z" fill="black"/>
<path d="M688.866 699.805C688.866 700.702 688.295 701.354 687.561 701.354C686.827 701.354 686.256 700.62 686.256 699.805C686.256 698.908 686.827 698.255 687.561 698.255C688.295 698.255 688.866 698.908 688.866 699.805Z" fill="white"/>
<path d="M651.759 731.773H688.05C688.05 731.773 670.272 763.008 651.759 731.773Z" fill="white"/>
<path d="M678.59 688.143C678.59 688.143 691.394 675.339 703.464 686.756C703.464 686.756 687.806 680.477 680.466 689.937L678.59 688.143Z" fill="#603813"/>
<path d="M664.155 689.447C664.155 689.447 652.575 677.296 641.239 687.49C641.239 687.49 655.837 682.108 662.443 690.997L664.155 689.447Z" fill="#603813"/>
<path d="M701.751 675.991C697.102 674.85 692.617 672.974 688.213 671.098C684.625 669.549 681.037 668.081 677.774 665.96C675.736 664.655 673.86 663.106 671.658 662.046C669.456 660.986 662.85 649.568 660.648 650.384C660.485 651.036 660.975 652.096 661.138 652.667C661.627 654.054 662.198 655.359 662.769 656.663C663.911 659.191 664.971 661.964 666.683 664.166C667.499 665.879 669.211 667.347 670.435 668.652C671.821 670.12 673.289 671.506 674.757 672.811C677.774 675.42 681.118 677.704 684.788 679.253C691.965 682.352 710.64 686.267 717.327 682.189C716.186 680.477 703.79 676.481 701.751 675.991Z" fill="#B2814D"/>
<path d="M655.674 628.365C655.674 628.365 657.386 664.493 681.771 671.425C706.155 678.356 715.207 687.083 715.207 687.083L725.32 696.624C725.32 696.624 726.135 646.877 711.863 632.687C697.673 618.579 652.085 610.423 655.674 628.365Z" fill="#42210B"/>
<path d="M669.864 781.357C669.864 781.357 667.907 790.246 668.477 790.899C668.885 791.388 672.963 795.71 674.92 797.912C675.654 798.728 676.225 799.706 676.551 800.848C678.264 806.72 683.728 826.374 683.891 833.306C683.891 834.448 684.217 835.508 684.706 836.487L685.196 837.465C687.805 842.685 694.411 841.951 696.124 836.242C696.368 835.426 696.45 834.529 696.45 833.632L695.064 800.767C694.982 799.543 695.064 798.32 695.308 797.178L696.287 790.98C696.45 789.92 696.45 788.778 696.205 787.8L695.634 785.272C695.39 784.375 695.064 783.559 694.574 782.825L687.887 776.382L714.473 813.815C714.881 814.467 715.207 815.201 715.37 815.935L731.844 860.626C732.17 861.768 732.659 867.15 730.947 867.395L726.217 901.239C726.298 902.218 726.298 903.278 726.135 904.257L724.83 958.326C724.586 960.936 723.036 963.138 720.916 964.035L714.555 966.726C712.597 967.541 710.395 967.949 708.275 967.786L680.792 965.747C679.732 965.666 678.59 965.421 677.53 965.095L659.751 959.223C657.142 958.326 655.348 955.553 655.348 952.454V848.556C655.348 847.496 655.266 846.436 655.021 845.294L651.025 824.009C650.454 820.91 650.699 817.648 651.841 814.631L662.035 787.555C662.606 786.006 663.666 784.782 664.971 784.048L669.864 781.357Z" fill="#DDC4A7"/>
<path d="M731.681 1071.19L726.869 1082.04L722.057 1107.97C722.057 1107.97 725.809 1115.07 728.663 1102.67C731.518 1090.28 731.599 1089.3 731.599 1089.3L732.659 1092.23L733.149 1097.7C733.149 1097.7 727.032 1124.28 726.543 1124.86C726.054 1125.43 726.624 1129.01 726.624 1129.01C726.624 1129.01 754.108 1114.91 748.888 1079.02L731.681 1071.19Z" fill="#FFC587"/>
<path d="M618.078 938.753C618.078 938.753 704.442 939.895 718.061 947.316C731.681 954.738 728.174 1065.16 724.096 1087.02C720.019 1108.87 694.737 1263.5 694.737 1263.5C694.737 1263.5 667.091 1296.77 598.669 1272.14L593.205 980.671L608.863 938.672H618.078V938.753Z" fill="#1A1A1A"/>
<path d="M640.831 768.879L584.234 794.895C584.234 794.895 611.065 822.459 604.867 905.072C604.867 905.072 607.558 924.726 606.824 931.087C606.008 937.448 599.076 963.464 599.076 963.464L587.741 1080.65C587.741 1080.65 639.119 1087.91 652.738 1075.11C666.357 1062.31 666.765 896.754 666.765 896.754C666.765 896.754 683.402 845.702 640.831 768.879Z" fill="#272727"/>
<path d="M607.068 850.269C607.068 850.269 611.228 901.076 606.661 921.301C606.661 921.301 616.773 871.065 607.068 850.269Z" fill="#1A1A1A"/>
<path d="M597.772 976.349L600.381 1081.96C600.381 1082.04 607.721 995.84 597.772 976.349Z" fill="#1A1A1A"/>
<path d="M629.495 774.099L629.985 796.526L640.831 800.767L634.225 811.532C634.225 811.532 668.151 851.737 669.619 862.828C671.006 873.512 670.761 834.937 658.283 807.128C645.887 779.319 642.788 767.575 642.788 767.575L629.495 774.099Z" fill="#999999"/>
<path d="M669.864 781.357C669.864 781.357 656.652 807.78 657.386 810.063C658.202 812.347 640.668 769.94 640.831 768.798C640.994 767.656 649.557 760.316 649.557 760.316L669.864 781.357Z" fill="#E8D7C5"/>
<path d="M687.153 771.979L698.489 784.538L694.982 798.973L687.724 777.117L687.153 771.979Z" fill="#E8D7C5"/>
<path d="M687.153 771.979L692.78 778.095L691.394 788.126L687.724 777.117L687.153 771.979Z" fill="#877A5E"/>
<path d="M698.489 784.538L709.009 805.252C709.009 805.252 697.755 798.157 696.287 793.182L698.489 784.538Z" fill="#C7B299"/>
<path d="M656 652.015C653.553 656.256 650.373 660.007 647.274 663.677C644.746 666.694 642.218 669.712 639.282 672.24C637.406 673.789 635.449 675.176 633.818 676.97C632.187 678.764 630.882 681.048 630.963 683.494C632.105 684.31 633.655 683.739 634.878 683.086C641.891 679.58 648.823 675.502 653.88 669.467C659.017 663.432 662.035 655.195 660.404 647.366C658.283 648.019 657.06 650.139 656 652.015Z" fill="#B2814D"/>
<path d="M661.627 643.615C661.627 643.615 664.4 643.534 658.283 655.359C652.983 665.797 635.693 681.863 631.697 685.615C631.126 686.104 630.311 686.43 629.577 686.593L616.936 690.345C616.936 690.345 621.993 679.335 621.911 670.201C621.748 647.366 625.744 609.363 656 621.841C698.326 639.211 661.627 643.615 661.627 643.615Z" fill="#42210B"/>
<path d="M659.67 630.485C664.563 644.757 673.452 656.99 684.706 664.9C695.879 672.811 709.335 676.318 722.384 674.768C721.731 670.772 719.203 667.428 716.186 665.308C713.25 663.188 709.825 662.046 706.481 660.741C689.436 654.217 673.452 643.86 659.67 630.485Z" fill="#603813"/>
<path d="M733.393 907.356C731.028 912.494 730.947 1081.14 730.947 1081.14C730.947 1081.14 748.48 1083.1 753.047 1081.14L732.985 887.783L733.393 907.356Z" fill="#333333"/>
<path d="M731.844 1082.04C728.663 1081.47 723.199 1079.68 723.199 1079.68L721.731 1033.92L715.37 954.33C715.37 954.33 715.696 950.415 715.37 949.11C715.044 947.724 718.306 940.792 718.306 939.813C718.306 938.916 718.061 933.371 717.898 931.495C717.735 930.272 718.224 926.602 718.469 924.482C718.632 923.421 718.795 922.443 719.121 921.383L722.302 910.21C723.036 907.682 724.993 900.913 724.749 898.303L728.174 869.189C729.234 862.339 727.766 855.325 724.015 849.535L701.995 815.201L697.265 789.675L715.533 808.188C715.533 808.188 726.787 824.417 727.521 826.863C728.337 829.391 726.951 836.405 726.951 837.139C726.951 837.873 732.333 850.024 732.333 850.024L734.372 864.296C734.372 864.54 734.453 864.785 734.535 864.948C734.943 866.742 736.9 875.387 738.449 881.096C740.162 887.457 733.556 908.253 733.556 908.253C733.556 908.253 750.601 1074.13 731.844 1082.04Z" fill="#272727"/>
<path d="M600.136 811.369C600.136 811.369 619.628 859.974 619.22 883.298C618.812 906.622 610.575 984.423 612.532 989.234C614.49 994.046 618.241 1087.83 618.241 1087.83C618.241 1087.83 581.95 1097.45 584.805 1092.81C587.659 1088.16 576.242 964.687 576.242 964.687C576.242 964.687 576.486 794.487 584.642 794.65C592.797 794.732 600.136 811.369 600.136 811.369Z" fill="#1A1A1A"/>
<path d="M672.8 696.869L664.644 721.579L676.062 724.76L669.375 719.622L672.8 696.869Z" fill="#BF8365"/>
<path d="M850.339 975.941C850.666 977.654 829.625 1077.8 839.901 1183.41L823.672 1471.37C823.672 1471.37 858.739 1493.8 873.256 1484.42C887.772 1474.96 929.935 1125.75 929.935 1125.75L941.352 1238.13C941.352 1238.13 962.719 1458.24 971.771 1469.33C980.905 1480.42 996.889 1486.3 996.889 1486.3L1020.62 1481.16C1024.29 1480.34 1026.82 1476.92 1026.57 1473.17L1012.38 1261.46L1011.81 1124.61C1011.81 1124.61 1014.75 1048.2 997.542 1003.91C980.334 959.631 912.075 975.126 912.075 975.126L850.339 975.941Z" fill="#1A1A1A"/>
<path d="M836.965 934.839L831.093 902.381L829.544 788.534L893.97 766.922L900.82 766.841L913.95 772.142L946.816 772.386L1013.61 797.097L1008.71 947.969L995.829 1004.16L911.993 1002.94C911.993 1002.94 892.991 1000.16 884.021 999.265C876.681 998.531 859.066 987.032 846.343 980.427L836.965 934.839Z" fill="#D5D9F1"/>
<path d="M956.194 738.868L960.354 767.819C960.354 767.819 954.156 789.92 950.649 789.105C945.103 787.718 945.348 786.169 938.661 792.611C931.81 799.135 924.47 790.654 924.47 790.654C924.47 790.654 923.655 787.637 922.024 786.332C919.251 784.211 892.91 793.998 898.292 762.111C900.331 750.204 900.739 738.216 900.739 738.216L956.194 738.868Z" fill="#FFC587"/>
<path d="M948.855 774.507C949.67 772.876 950.486 771.163 950.975 769.206C951.464 767.167 951.627 764.965 951.709 762.763C952.035 756.729 952.443 750.612 952.769 744.577C950.893 741.886 948.121 741.315 945.511 740.907C936.132 739.358 926.672 738.624 917.212 738.624C916.071 738.624 914.847 738.624 913.869 739.439C912.319 740.581 911.422 743.272 909.873 744.496C909.465 744.822 909.057 745.067 908.894 745.637C908.731 746.127 908.894 746.698 908.975 747.187C911.259 755.75 914.358 763.824 918.191 771C920.23 774.915 922.595 778.666 925.694 780.787C927.08 781.765 928.548 782.336 930.098 782.907C933.686 784.293 937.6 785.68 941.189 783.967C944.369 782.418 946.816 778.585 948.855 774.507Z" fill="#BF8365"/>
<path d="M953.829 844.887H996.726L995.829 887.376H953.829V844.887Z" fill="#BABED3"/>
<path d="M977.235 862.991H973.321V887.376H977.235V862.991Z" fill="white"/>
<path d="M953.829 844.887H996.726V857.854L976.664 863.481C975.767 863.725 974.788 863.725 973.891 863.481L953.829 857.609V844.887Z" fill="#E8EAF7"/>
<path d="M977.887 859.403C977.887 860.789 976.746 861.931 975.278 861.931C973.81 861.931 972.668 860.789 972.668 859.403C972.668 858.017 973.81 856.875 975.278 856.875C976.746 856.875 977.887 858.017 977.887 859.403Z" fill="#B3B3B3"/>
<path d="M976.338 861.116C976.664 859.811 976.093 858.343 974.952 857.609C975.849 857.446 976.746 858.017 977.154 858.832C977.398 859.566 977.072 860.626 976.338 861.116Z" fill="#E6E6E6"/>
<path d="M871.788 844.887H914.766L913.787 887.376H871.788V844.887Z" fill="#BABED3"/>
<path d="M895.193 862.991H891.279V887.376H895.193V862.991Z" fill="white"/>
<path d="M871.788 844.887H914.684V857.854L894.622 863.481C893.725 863.725 892.747 863.725 891.85 863.481L871.788 857.609V844.887Z" fill="#E8EAF7"/>
<path d="M895.846 859.403C895.846 860.789 894.704 861.931 893.236 861.931C891.849 861.931 890.626 860.789 890.626 859.403C890.626 858.017 891.768 856.875 893.236 856.875C894.704 856.875 895.846 858.017 895.846 859.403Z" fill="#B3B3B3"/>
<path d="M894.378 861.116C894.704 859.811 894.133 858.343 892.991 857.609C893.888 857.446 894.785 858.017 895.193 858.832C895.438 859.566 895.112 860.626 894.378 861.116Z" fill="#E6E6E6"/>
<path d="M928.793 783.559L908.894 809.167C908.894 809.167 887.527 778.748 890.382 771C893.236 763.171 899.923 748.573 899.923 748.573C899.923 748.573 921.861 785.679 928.793 783.559Z" fill="#9CA2D1"/>
<path d="M935.154 783.477L956.194 812.836C956.194 812.836 962.148 786.413 962.392 778.013C962.637 769.613 958.967 755.668 958.967 755.668C958.967 755.668 955.216 770.347 935.154 783.477Z" fill="#9CA2D1"/>
<path d="M847.567 982.71L846.262 996.493C846.262 996.493 921.208 1024.55 997.705 1011.99L1000.4 1011.66L998.275 997.716C998.275 997.634 968.998 1000.81 847.567 982.71Z" fill="#603813"/>
<path d="M942.575 1019.82C942.494 1019.82 942.412 1019.82 942.331 1019.82L913.053 1016.64C911.911 1016.47 911.014 1015.41 911.177 1014.27L913.706 990.131C913.787 989.56 914.032 989.071 914.521 988.663C914.929 988.337 915.5 988.174 916.071 988.174L945.348 991.355C946.49 991.518 947.387 992.578 947.224 993.72L944.696 1017.86C944.614 1018.43 944.369 1018.92 943.88 1019.33C943.554 1019.65 943.064 1019.82 942.575 1019.82ZM915.744 1012.64L940.699 1015.33L942.738 995.514L917.783 992.823L915.744 1012.64Z" fill="#B3B3B3"/>
<path d="M937.845 805.986L946.49 799.38L935.154 783.477L928.793 783.559L917.702 797.831L929.119 806.149L928.63 1028.62L949.915 1051.78L965.736 1027.24L937.845 805.986Z" fill="#333333"/>
<path d="M879.372 914.369C879.372 914.369 886.386 925.868 891.931 926.847C897.477 927.826 922.024 922.117 922.024 922.117L908.894 878.894L886.793 858.832L877.415 849.454C877.415 849.454 872.277 843.908 871.38 843.663C870.483 843.419 860.778 844.071 859.881 844.479C858.984 844.968 855.722 847.007 855.314 849.291C854.906 851.574 853.765 850.922 855.396 854.428C857.027 858.017 871.298 883.869 871.298 883.869C871.298 883.869 874.561 895.041 875.947 900.179C877.252 905.399 879.372 914.369 879.372 914.369Z" fill="#FFC587"/>
<path d="M977.887 872.37L1009.2 879.138C1009.2 879.138 1015.56 890.066 1015.56 891.453C1015.56 892.839 1001.78 902.462 1001.78 902.462L980.66 897.325L978.051 886.152L977.887 872.37Z" fill="#FFC587"/>
<path d="M1013.69 797.097C1013.69 797.097 1065.23 866.906 1026.66 940.303C1026.66 940.303 968.264 967.868 904.572 930.924L914.684 892.024C914.684 892.024 939.068 901.484 955.379 901.892C971.689 902.299 1001.46 889.74 1001.46 889.74L1002.6 849.617L1013.69 797.097Z" fill="#DDE1F4"/>
<path d="M829.625 788.534C829.625 788.534 802.468 854.673 822.285 890.23C842.021 925.787 864.285 924.156 864.285 924.156L911.504 921.464L986.206 896.509C986.206 896.509 983.188 867.884 978.54 867.884C973.891 867.966 929.038 869.923 929.038 869.923L870.075 859.648L829.625 788.534Z" fill="#DDE1F4"/>
<path d="M986.124 896.428L911.422 921.383L906.937 921.627C906.937 921.627 929.201 935.817 986.124 896.428Z" fill="#9CA2D1"/>
<path d="M1006.02 835.263C1006.02 835.263 999.744 854.265 1001.7 877.507C1001.78 877.507 1008.63 844.723 1006.02 835.263Z" fill="#9CA2D1"/>
<path d="M829.788 901.973C829.788 901.973 831.909 905.48 836.802 910.21C841.532 914.859 848.872 920.649 861.104 924.156L885.896 922.851L885.325 988.093L853.112 983.444L847.567 982.629C847.567 982.629 846.507 981.732 845.12 978.714C843.408 972.516 836.965 969.417 836.476 935.165L829.788 901.973Z" fill="#9CA2D1"/>
<path d="M965.736 695.89C963.453 706.003 967.122 715.952 973.973 717.991C980.823 720.03 988.244 713.506 990.528 703.393C992.811 693.281 989.142 683.331 982.291 681.292C975.522 679.253 968.101 685.778 965.736 695.89Z" fill="#FFC587"/>
<path d="M974.054 699.723C973.157 706.085 975.033 711.63 978.132 712.038C981.231 712.527 984.493 707.716 985.39 701.354C986.287 694.993 984.412 689.448 981.313 689.04C978.132 688.551 974.951 693.362 974.054 699.723Z" fill="#BF8365"/>
<path d="M873.827 702.252C876.436 712.283 884.021 718.399 890.789 715.871C897.558 713.424 900.983 703.312 898.455 693.362C895.846 683.331 888.261 677.215 881.492 679.743C874.642 682.108 871.217 692.221 873.827 702.252Z" fill="#FFC587"/>
<path d="M878.638 699.642C880.024 705.921 884.102 710.244 887.772 709.347C891.36 708.449 893.154 702.659 891.768 696.38C890.382 690.1 886.304 685.778 882.634 686.675C878.964 687.572 877.17 693.362 878.638 699.642Z" fill="#BF8365"/>
<path d="M895.846 724.107C898.455 725.82 909.791 721.416 909.791 721.416L950.404 721.987L958.641 726.636C958.641 726.636 976.501 705.921 978.132 696.053C978.214 694.667 978.295 693.281 978.295 691.813C979.111 653.891 959.13 622.738 933.686 622.167C908.242 621.678 886.957 651.933 886.141 689.937C886.141 690.752 886.141 691.568 886.141 692.384C886.549 693.525 893.236 722.476 895.846 724.107Z" fill="#FFC587"/>
<path d="M955.098 698.791C955.183 694.918 953.099 691.731 950.442 691.673C947.785 691.614 945.562 694.706 945.477 698.579C945.391 702.451 947.476 705.638 950.133 705.697C952.789 705.756 955.013 702.664 955.098 698.791Z" fill="black"/>
<path d="M946.653 696.135C946.653 697.114 947.305 697.848 948.039 697.848C948.855 697.848 949.507 697.114 949.507 696.135C949.507 695.156 948.855 694.422 948.121 694.422C947.387 694.422 946.734 695.156 946.653 696.135Z" fill="white"/>
<path d="M909.383 698.255C909.302 702.17 911.422 705.35 914.032 705.35C916.723 705.432 918.925 702.333 919.007 698.418C919.088 694.504 916.968 691.323 914.358 691.323C911.667 691.242 909.465 694.341 909.383 698.255Z" fill="black"/>
<path d="M910.77 695.401C910.77 696.379 911.422 697.113 912.156 697.113C912.972 697.113 913.624 696.379 913.624 695.401C913.624 694.422 912.972 693.688 912.238 693.688C911.504 693.688 910.851 694.422 910.77 695.401Z" fill="white"/>
<path d="M966.959 615.398C961.088 614.583 957.01 611.157 957.826 608.711C957.826 608.711 953.666 610.179 954.563 612.625C954.563 612.625 951.057 608.221 951.301 605.367C951.301 605.367 947.061 609.445 945.837 610.668C944.614 611.891 919.496 593.868 919.496 593.868C919.496 593.868 915.337 591.993 909.22 593.379L890.137 596.478C889.648 597.538 891.197 606.101 892.094 610.831C888.995 615.398 879.617 630.975 881.574 646.47C883.939 664.982 887.12 679.498 887.12 679.498L886.304 692.384L891.686 670.854L901.554 642.718C904.246 646.796 907.589 650.058 911.993 651.363C928.548 656.582 966.307 645.736 966.307 645.736L977.235 681.292L978.295 694.259L980.986 675.91L988.815 632.279C988.815 632.279 972.75 616.214 966.959 615.398Z" fill="#42210B"/>
<path d="M891.36 607.324C891.36 607.324 893.644 625.755 898.292 628.365C902.941 630.893 934.991 622.982 954.074 632.361C973.239 641.739 986.206 630.73 964.105 622.819C941.923 614.909 922.758 620.699 912.238 609.771L891.36 607.324Z" fill="#603813"/>
<path d="M891.36 607.324C891.36 607.324 893.644 625.755 898.292 628.365C902.941 630.893 934.991 622.982 954.074 632.361C973.239 641.739 986.206 630.73 964.105 622.819C941.923 614.909 922.758 620.699 912.238 609.771L891.36 607.324Z" fill="#603813"/>
<path d="M930.832 759.583C955.297 760.072 976.012 730.224 978.295 694.259C976.664 704.045 958.56 725.657 958.56 725.657L950.404 721.253L909.791 720.682C909.791 720.682 898.782 725.331 896.172 723.618C893.644 721.987 886.549 692.791 886.304 691.731C886.386 728.511 905.958 759.012 930.832 759.583Z" fill="#42210B"/>
<path d="M916.56 728.43L945.185 729C945.185 729.082 931.81 742.864 916.56 728.43Z" fill="white"/>
<path d="M943.391 684.554C942.901 684.554 942.412 684.31 942.086 683.902C941.434 683.168 941.515 682.026 942.331 681.455C942.901 680.966 955.705 670.527 968.427 676.97C969.324 677.378 969.651 678.52 969.161 679.335C968.672 680.232 967.612 680.558 966.715 680.069C956.113 674.687 944.696 684.065 944.614 684.147C944.288 684.391 943.799 684.554 943.391 684.554Z" fill="black"/>
<path d="M923.084 684.962C923.574 684.962 924.063 684.799 924.471 684.392C925.123 683.658 925.123 682.597 924.389 681.863C923.9 681.374 911.422 670.365 898.537 676.318C897.64 676.726 897.232 677.786 897.64 678.683C898.048 679.58 899.108 679.988 900.005 679.498C910.77 674.605 921.861 684.392 921.942 684.473C922.187 684.799 922.595 684.962 923.084 684.962Z" fill="black"/>
<path d="M931.729 693.28C931.729 693.28 927.488 706.818 926.917 710.977C926.265 715.137 933.36 716.604 933.36 716.604L929.201 711.793L931.729 693.28Z" fill="#A67C52"/>
<path d="M926.836 710.978C926.183 715.137 933.278 716.605 933.278 716.605L926.836 710.978Z" fill="#A67C52"/>
<path d="M911.585 711.875C902.451 711.875 894.133 709.999 889.974 708.939C888.506 708.531 887.446 707.227 887.527 705.677L888.261 684.963C888.343 683.169 889.811 681.782 891.605 681.782L924.878 682.924C925.775 682.924 926.591 683.332 927.162 683.984C927.733 684.637 928.059 685.452 928.059 686.349L927.325 707.227C927.243 708.613 926.265 709.918 924.96 710.244C920.964 711.304 916.478 711.875 911.585 711.875ZM891.605 683.169C890.545 683.169 889.648 683.984 889.648 684.963L888.914 705.677C888.914 706.574 889.485 707.308 890.3 707.553C894.378 708.613 902.615 710.489 911.585 710.489C916.315 710.489 920.719 709.918 924.471 708.939C925.205 708.694 925.775 708.042 925.775 707.227L926.509 686.349C926.509 685.86 926.346 685.37 926.02 685.044C925.694 684.718 925.205 684.473 924.715 684.473L891.605 683.169Z" fill="black"/>
<path d="M961.495 713.588C952.362 713.588 944.043 711.712 939.884 710.652C938.416 710.244 937.356 708.939 937.437 707.39L938.171 686.675C938.253 684.881 939.721 683.495 941.515 683.495L974.788 684.637C976.583 684.718 978.051 686.186 977.969 687.98L977.235 708.858C977.153 710.244 976.175 711.549 974.87 711.875C970.874 713.098 966.389 713.588 961.495 713.588ZM941.597 684.963C940.536 684.963 939.639 685.778 939.639 686.757L938.905 707.471C938.905 708.368 939.476 709.102 940.292 709.347C944.369 710.407 952.606 712.283 961.577 712.283C966.307 712.283 970.711 711.712 974.462 710.733C975.196 710.489 975.767 709.836 975.767 709.021L976.501 688.143C976.501 687.083 975.686 686.268 974.707 686.186L941.597 684.963Z" fill="black"/>
<path d="M938.416 698.745L925.857 698.256L925.939 695.809L938.579 696.299L938.416 698.745Z" fill="black"/>
<path d="M939.558 685.697L926.754 685.207C926.102 685.207 925.531 684.637 925.531 683.984V683.413C925.531 682.761 926.102 682.272 926.836 682.272L939.639 682.761C940.292 682.761 940.863 683.332 940.863 683.984V684.555C940.781 685.207 940.21 685.697 939.558 685.697Z" fill="#666666"/>
<path d="M978.621 692.466H978.132C977.398 692.466 976.827 691.895 976.909 691.161L977.072 686.757C977.072 686.105 977.724 685.534 978.377 685.534H978.866C979.6 685.534 980.171 686.105 980.089 686.839L979.926 691.242C979.926 691.976 979.355 692.547 978.621 692.466Z" fill="#666666"/>
<path d="M888.18 688.796H887.69C886.956 688.796 886.386 688.226 886.467 687.492L886.63 683.088C886.63 682.435 887.283 681.865 887.935 681.865H888.424C889.158 681.865 889.729 682.435 889.648 683.169L889.485 687.573C889.566 688.307 888.914 688.878 888.18 688.796Z" fill="#666666"/>
</g>
</g>
<defs>
<clipPath id="clip0">
<rect width="1920" height="1080" fill="white"/>
</clipPath>
</defs>
</svg>
