<svg width="375" height="667" viewBox="0 0 375 667" fill="none" xmlns="http://www.w3.org/2000/svg">
<g clip-path="url(#clip0)">
<path d="M179.422 464.947C179.136 464.947 178.851 464.947 178.566 464.889C178.223 464.889 177.938 464.547 177.992 464.204C177.992 463.861 178.335 463.575 178.678 463.632C183.991 464.032 188.676 460.032 189.077 454.717C189.134 454.316 189.134 453.916 189.077 453.459C189.077 453.288 189.134 453.116 189.246 453.002C189.362 452.888 189.531 452.773 189.705 452.773C195.646 452.487 200.5 447.744 200.959 441.857C201.414 436.256 197.815 431.055 192.39 429.512C192.217 429.455 192.047 429.341 191.989 429.112C191.932 428.941 191.932 428.712 192.047 428.541C195.473 423.283 196.046 416.653 193.531 410.881C193.419 410.595 193.477 410.309 193.704 410.138C193.931 409.966 194.274 409.966 194.502 410.138C196.216 411.51 198.158 412.424 200.273 412.881C202.045 413.281 203.814 413.281 205.586 412.996C205.929 412.938 206.272 413.167 206.33 413.51C206.384 413.853 206.156 414.196 205.813 414.253C203.872 414.596 201.93 414.539 199.988 414.138C198.331 413.795 196.786 413.167 195.361 412.309C197.075 417.739 196.389 423.626 193.477 428.541C199.017 430.541 202.615 436.028 202.157 441.971C201.645 448.315 196.617 453.402 190.333 454.031C190.333 454.316 190.333 454.602 190.333 454.888C189.932 460.603 185.078 464.947 179.422 464.947ZM169.139 453.859C169.081 453.859 169.081 453.859 169.139 453.859C168.741 453.859 168.453 453.516 168.51 453.174C168.853 448.659 171.939 444.829 176.224 443.515C175.996 442.315 175.939 441.114 175.996 439.914C176.05 439.343 176.108 438.771 176.224 438.257C169.481 438.2 163.313 434.828 159.657 429.112C154.744 421.454 155.546 411.624 161.656 404.88C159.541 403.28 157.715 401.336 156.286 399.108C153.088 394.135 152.001 388.134 153.257 382.362C154.517 376.532 157.942 371.56 162.97 368.36C165.027 367.045 167.197 366.074 169.539 365.502C169.882 365.445 170.225 365.616 170.283 365.959C170.398 366.302 170.167 366.645 169.824 366.702C167.655 367.274 165.54 368.188 163.656 369.389C158.971 372.418 155.715 377.104 154.517 382.59C153.315 388.077 154.344 393.678 157.372 398.421C158.855 400.708 160.743 402.651 162.97 404.251C163.143 404.365 163.197 404.537 163.255 404.708C163.255 404.88 163.197 405.051 163.086 405.223C156.971 411.51 156 421.054 160.743 428.37C164.342 433.913 170.452 437.113 177.021 436.885C177.195 436.885 177.422 436.942 177.538 437.113C177.649 437.285 177.707 437.457 177.649 437.685C177.422 438.428 177.31 439.171 177.252 439.914C177.137 441.171 177.252 442.486 177.595 443.686C177.649 443.858 177.595 444.029 177.538 444.143C177.422 444.315 177.31 444.372 177.137 444.429C173.08 445.458 170.109 448.887 169.767 453.116C169.712 453.573 169.424 453.859 169.139 453.859ZM212.04 411.567C211.87 411.567 211.639 411.452 211.527 411.338C211.296 411.052 211.354 410.652 211.639 410.424C214.382 408.366 216.266 405.451 217.01 402.08C217.237 400.936 217.353 399.679 217.295 398.479C217.295 398.307 217.353 398.136 217.468 398.022C217.58 397.907 217.753 397.85 217.923 397.85C226.607 398.079 234.948 394.478 240.774 388.02C241.001 387.734 241.402 387.734 241.687 387.963C241.972 388.192 241.972 388.591 241.745 388.877C235.804 395.392 227.408 399.108 218.666 399.108H218.609C218.609 400.251 218.497 401.336 218.266 402.365C217.468 406.023 215.411 409.223 212.44 411.452C212.325 411.51 212.213 411.567 212.04 411.567ZM246.029 382.19C245.914 382.19 245.859 382.19 245.744 382.133C245.459 381.962 245.286 381.619 245.459 381.276C247.173 377.79 248.202 374.075 248.541 370.188C248.541 369.846 248.884 369.56 249.227 369.617C249.57 369.617 249.859 369.96 249.801 370.303C249.458 374.361 248.429 378.247 246.599 381.848C246.487 382.076 246.256 382.19 246.029 382.19ZM188.106 370.588C187.99 370.588 187.821 370.531 187.705 370.474C184.164 367.731 179.765 366.245 175.253 366.131C174.91 366.131 174.625 365.845 174.625 365.502C174.625 365.159 174.968 364.873 175.253 364.873C179.537 364.931 183.821 366.302 187.362 368.702C187.304 367.617 187.362 366.531 187.42 365.445C187.647 362.473 188.275 359.558 189.362 356.758C189.477 356.415 189.874 356.243 190.163 356.415C190.506 356.529 190.676 356.929 190.506 357.215C189.477 359.901 188.849 362.701 188.676 365.559C188.561 366.988 188.561 368.474 188.676 369.96C188.676 370.188 188.561 370.417 188.333 370.588C188.333 370.588 188.218 370.588 188.106 370.588ZM194.105 350.185C193.989 350.185 193.816 350.128 193.704 350.071C193.419 349.842 193.361 349.442 193.588 349.157C200.046 340.526 210.325 335.84 221.067 336.697C221.41 336.697 221.695 337.04 221.637 337.383C221.579 337.726 221.294 338.012 220.951 337.955C210.668 337.155 200.786 341.613 194.617 349.899C194.502 350.071 194.274 350.185 194.105 350.185Z" fill="#F7F3E8"/>
<path d="M97.5644 469.062C97.5644 474.72 92.9372 479.35 87.2813 479.35C81.6255 479.35 76.9983 474.72 76.9983 469.062C76.9983 463.404 81.6255 458.775 87.2813 458.775C92.9914 458.775 97.5644 463.347 97.5644 469.062Z" fill="#ECE6E1"/>
<path d="M88.7108 480.378C88.7108 485.064 84.8812 488.894 80.1963 488.894C75.5149 488.894 71.686 485.064 71.686 480.378C71.686 475.691 75.4571 471.862 80.1963 471.862C84.8812 471.862 88.7108 475.691 88.7108 480.378Z" fill="#ECE6E1"/>
<path d="M132.009 407.28C132.009 421.168 120.755 432.427 106.873 432.427C92.9914 432.427 81.741 421.168 81.741 407.28C81.741 393.392 92.9914 382.134 106.873 382.134C120.755 382.134 132.009 393.392 132.009 407.28Z" fill="#ECE6E1"/>
<path d="M61.5744 411.738C69.4002 405.794 80.5391 407.28 86.4801 415.11C92.4211 422.94 90.88 434.084 83.109 440.028C75.2839 445.972 64.1449 444.429 58.2039 436.656C52.2059 428.827 53.7481 417.682 61.5744 411.738Z" fill="#ECE6E1"/>
<path d="M108.245 435.513C107.332 442.143 101.275 446.772 94.6519 445.858C88.0251 444.943 83.3978 438.885 84.311 432.255C85.2242 425.626 91.2807 420.996 97.9076 421.911C104.477 422.825 109.104 428.941 108.245 435.513Z" fill="#ECE6E1"/>
<path d="M65.8589 438.714C72.8279 433.399 82.766 434.771 88.079 441.743C93.392 448.716 92.0204 458.66 85.0543 463.975C78.0846 469.291 68.144 467.919 62.8314 460.946C57.5188 453.974 58.8896 444.029 65.8589 438.714Z" fill="#ECE6E1"/>
<path d="M133.095 471.748C133.095 476.663 129.096 480.664 124.184 480.664C119.271 480.664 115.272 476.663 115.272 471.748C115.272 466.833 119.271 462.833 124.184 462.833C129.096 462.833 133.095 466.833 133.095 471.748Z" fill="#ECE6E1"/>
<path d="M128.464 485.351C128.464 490.266 124.469 494.266 119.556 494.266C114.64 494.266 110.645 490.266 110.645 485.351C110.645 480.436 114.64 476.435 119.556 476.435C124.469 476.435 128.464 480.436 128.464 485.351Z" fill="#ECE6E1"/>
<path d="M169.196 408.081C169.196 422.712 157.372 434.542 142.747 434.542C128.125 434.542 116.301 422.712 116.301 408.081C116.301 393.45 128.125 381.62 142.747 381.62C157.372 381.62 169.196 393.45 169.196 408.081Z" fill="#ECE6E1"/>
<path d="M125.609 463.233C123.155 470.663 115.157 474.664 107.729 472.206C100.304 469.748 96.305 461.747 98.763 454.317C101.217 446.888 109.216 442.887 116.64 445.345C124.011 447.802 128.067 455.803 125.609 463.233Z" fill="#ECE6E1"/>
<path d="M108.53 440.486C105.043 433.514 107.844 424.998 114.814 421.455C121.783 417.968 130.294 420.769 133.835 427.742C137.322 434.714 134.521 443.23 127.551 446.773C120.527 450.259 112.013 447.459 108.53 440.486Z" fill="#ECE6E1"/>
<path d="M154.686 456.603C151.543 466.091 141.263 471.292 131.778 468.091C122.296 464.948 117.098 454.66 120.296 445.173C123.44 435.686 133.719 430.485 143.205 433.685C152.687 436.829 157.884 447.116 154.686 456.603Z" fill="#ECE6E1"/>
<path d="M160.628 471.519C160.628 476.434 156.628 480.435 151.716 480.435C146.804 480.435 142.804 476.434 142.804 471.519C142.804 466.604 146.804 462.604 151.716 462.604C156.628 462.604 160.628 466.604 160.628 471.519Z" fill="#F7F3E8"/>
<path d="M169.539 478.263C169.539 483.179 165.54 487.179 160.628 487.179C155.715 487.179 151.716 483.179 151.716 478.263C151.716 473.348 155.715 469.348 160.628 469.348C165.54 469.348 169.539 473.348 169.539 478.263Z" fill="#F7F3E8"/>
<path d="M205.243 407.452C205.243 422.083 193.419 433.913 178.794 433.913C164.168 433.913 152.344 422.083 152.344 407.452C152.344 392.821 164.168 380.99 178.794 380.99C193.419 380.99 205.243 392.878 205.243 407.452Z" fill="#F7F3E8"/>
<path d="M194.047 456.032C191.589 463.461 183.591 467.462 176.166 465.005C168.738 462.547 164.739 454.546 167.197 447.116C169.655 439.686 177.65 435.686 185.078 438.143C192.502 440.601 196.501 448.602 194.047 456.032Z" fill="#F7F3E8"/>
<path d="M148.977 464.947C145.49 457.974 148.291 449.458 155.26 445.915C162.227 442.429 170.741 445.229 174.282 452.202C177.765 459.174 174.968 467.69 167.998 471.233C160.97 474.777 152.46 471.919 148.977 464.947Z" fill="#F7F3E8"/>
<path d="M177.48 437.4C174.567 446.144 165.143 450.887 156.401 447.973C147.663 445.058 142.92 435.628 145.833 426.884C148.749 418.139 158.173 413.396 166.912 416.311C175.596 419.225 180.339 428.655 177.48 437.4Z" fill="#F7F3E8"/>
<path d="M185.135 383.619C185.078 383.619 185.02 383.619 184.962 383.619C184.619 383.505 184.449 383.162 184.507 382.819C185.247 380.076 185.648 377.275 185.648 374.417C185.648 374.075 185.933 373.789 186.276 373.789C186.619 373.789 186.904 374.075 186.904 374.417C186.904 377.389 186.507 380.361 185.705 383.162C185.705 383.448 185.42 383.619 185.135 383.619Z" fill="#F7F3E8"/>
<path d="M171.539 402.136C171.308 402.136 171.138 402.022 171.023 401.851C170.853 401.565 170.911 401.165 171.196 400.993C174.109 399.107 176.679 396.821 178.794 394.078C179.021 393.792 179.422 393.735 179.707 393.964C179.992 394.192 180.05 394.592 179.822 394.878C177.592 397.678 174.91 400.136 171.882 402.079C171.766 402.079 171.651 402.136 171.539 402.136Z" fill="#F7F3E8"/>
<path d="M168.796 420.597C168.511 420.597 168.283 420.425 168.168 420.139C166.341 414.367 162.169 409.566 156.686 407.051C156.401 406.937 156.286 406.651 156.343 406.366C156.401 406.08 156.628 405.851 156.914 405.851C160.285 405.565 163.54 404.708 166.684 403.394C167.027 403.279 167.37 403.394 167.54 403.737C167.655 404.079 167.54 404.422 167.197 404.594C164.627 405.737 161.884 406.48 159.144 406.88C164.057 409.738 167.767 414.31 169.481 419.796C169.597 420.139 169.424 420.482 169.081 420.597C168.911 420.597 168.853 420.597 168.796 420.597Z" fill="#F7F3E8"/>
<path d="M165.486 440.257C165.37 440.257 165.197 440.2 165.085 440.143C164.8 439.914 164.742 439.514 164.97 439.228C166.284 437.456 167.312 435.456 168.056 433.285C168.168 432.942 168.51 432.77 168.853 432.884C169.196 432.999 169.37 433.342 169.254 433.685C168.51 435.971 167.37 438.085 165.998 439.971C165.883 440.143 165.656 440.257 165.486 440.257Z" fill="#F7F3E8"/>
<path d="M125.898 479.978C125.555 479.978 125.27 479.692 125.27 479.349C125.27 479.006 125.555 478.72 125.898 478.72C131.554 478.72 136.123 474.148 136.123 468.49C136.123 466.375 135.495 464.375 134.293 462.661C134.182 462.489 134.124 462.261 134.239 462.089C134.294 461.917 134.467 461.746 134.636 461.689C138.921 460.317 141.779 456.431 141.779 451.916C141.779 450.544 141.494 449.23 140.978 447.972C140.863 447.744 140.92 447.515 141.094 447.287C141.263 447.115 141.494 447.058 141.722 447.115C148.063 448.944 154.744 447.858 160.115 444.029C160.4 443.801 160.801 443.915 160.97 444.201C161.201 444.486 161.086 444.886 160.801 445.058C155.43 448.83 148.803 450.144 142.465 448.601C142.75 449.63 142.92 450.773 142.92 451.859C142.92 456.603 140.065 460.832 135.665 462.546C136.751 464.318 137.264 466.318 137.264 468.433C137.38 474.834 132.24 479.978 125.898 479.978Z" fill="#F7F3E8"/>
<path d="M114.987 469.118C114.644 469.118 114.359 468.833 114.359 468.49C114.359 463.746 117.214 459.517 121.614 457.802C120.87 456.545 120.358 455.173 120.127 453.687C117.156 454.259 114.074 454.03 111.215 453.116C107.046 451.744 103.563 448.886 101.391 445.115C101.221 444.829 101.333 444.428 101.622 444.257C101.907 444.086 102.304 444.2 102.477 444.486C104.534 448.029 107.732 450.658 111.616 451.915C114.474 452.887 117.557 453.001 120.527 452.315C120.701 452.258 120.87 452.315 121.044 452.43C121.213 452.544 121.271 452.716 121.329 452.887C121.498 454.659 122.126 456.316 123.097 457.802C123.213 457.974 123.27 458.202 123.155 458.374C123.097 458.545 122.928 458.717 122.754 458.774C118.47 460.145 115.615 464.032 115.615 468.547C115.615 468.833 115.33 469.118 114.987 469.118Z" fill="#F7F3E8"/>
<path d="M99.6762 438.142C99.3333 438.142 99.0482 437.913 99.0482 437.57C98.8786 435.17 99.1637 432.827 99.9036 430.541C102.076 423.911 108.017 419.224 114.872 418.425C113.673 417.167 112.645 415.738 111.843 414.138C109.501 409.452 109.331 403.965 111.389 399.107C111.501 398.764 111.901 398.65 112.244 398.764C112.587 398.878 112.702 399.278 112.587 399.621C110.645 404.136 110.815 409.223 113.045 413.566C113.958 415.395 115.215 417.053 116.814 418.482C116.987 418.653 117.099 418.939 116.987 419.167C116.871 419.396 116.644 419.567 116.413 419.567C109.501 419.796 103.333 424.368 101.163 430.941C100.477 433.055 100.192 435.284 100.362 437.456C100.362 437.799 100.077 438.085 99.6762 438.142C99.734 438.142 99.734 438.142 99.6762 438.142Z" fill="#F7F3E8"/>
<path d="M120.127 391.335C119.899 391.335 119.668 391.221 119.557 390.992C119.383 390.706 119.499 390.306 119.842 390.135C121.325 389.392 122.87 388.877 124.527 388.534C122.412 384.077 121.325 379.333 121.325 374.418C121.325 369.16 122.527 364.13 124.927 359.444C125.097 359.158 125.497 358.987 125.783 359.158C126.068 359.33 126.241 359.672 126.068 360.016C123.783 364.473 122.585 369.331 122.585 374.418C122.585 379.447 123.725 384.305 126.01 388.763C126.126 388.934 126.126 389.163 126.01 389.334C125.898 389.506 125.725 389.62 125.555 389.678C123.725 389.906 122.011 390.477 120.412 391.278C120.3 391.335 120.185 391.335 120.127 391.335Z" fill="#F7F3E8"/>
<path d="M134.922 349.214C134.748 349.214 134.521 349.099 134.406 348.985C134.178 348.699 134.236 348.299 134.521 348.07C140.235 343.841 146.973 341.555 154.116 341.555C156.914 341.555 159.714 341.898 162.4 342.641C162.743 342.755 162.912 343.098 162.855 343.441C162.743 343.784 162.4 343.955 162.057 343.898C159.483 343.213 156.802 342.87 154.059 342.87C147.204 342.87 140.689 345.041 135.207 349.099C135.207 349.214 135.037 349.214 134.922 349.214Z" fill="#F7F3E8"/>
<path d="M181.479 358.072C181.251 358.072 181.078 357.958 180.966 357.786C178.967 354.528 176.393 351.728 173.368 349.442C173.083 349.213 173.026 348.813 173.253 348.528C173.48 348.242 173.881 348.184 174.166 348.413C177.31 350.814 179.937 353.728 182.049 357.1C182.222 357.386 182.164 357.786 181.822 357.958C181.706 358.015 181.594 358.072 181.479 358.072Z" fill="#F7F3E8"/>
<path d="M123.043 409.909C122.812 409.909 122.585 409.794 122.469 409.566C122.3 409.28 122.415 408.88 122.7 408.708C132.64 403.108 138.809 392.591 138.809 381.161C138.809 370.302 133.326 360.358 124.184 354.528C123.898 354.357 123.783 353.957 124.014 353.671C124.184 353.385 124.584 353.271 124.869 353.499C134.409 359.558 140.065 369.902 140.065 381.218C140.065 393.049 133.665 404.022 123.328 409.851C123.27 409.908 123.155 409.909 123.043 409.909Z" fill="#F7F3E8"/>
<path d="M125.841 440.942C125.783 440.942 125.725 440.942 125.671 440.885C125.328 440.771 125.155 440.428 125.27 440.085C126.642 435.856 126.357 431.398 124.357 427.397C122.358 423.454 118.929 420.482 114.76 419.11C111.847 418.139 108.703 418.024 105.675 418.767C105.448 418.824 105.22 418.767 105.047 418.539C104.877 418.367 104.877 418.081 104.935 417.91L104.989 417.738C105.047 417.681 105.047 417.567 105.105 417.51C105.22 417.167 105.563 416.995 105.906 417.11C106.076 417.167 106.191 417.281 106.249 417.395C109.219 416.824 112.302 417.053 115.16 417.967C119.672 419.453 123.386 422.654 125.498 426.883C127.613 431.169 128.013 435.97 126.469 440.542C126.357 440.771 126.126 440.942 125.841 440.942Z" fill="#F7F3E8"/>
<path d="M85.1664 478.892C80.0844 478.892 75.6268 475.52 74.1419 470.662C73.8564 470.604 73.6279 470.319 73.6279 470.033C73.6279 469.69 73.9134 469.404 74.2563 469.404H74.5989C74.8847 469.404 75.1684 469.576 75.2262 469.862C76.3703 474.434 80.4273 477.577 85.1664 477.577C90.8223 477.577 95.3918 473.005 95.3918 467.347C95.3918 464.489 94.2512 461.86 92.1939 459.917C92.0206 459.745 91.9665 459.574 92.0206 459.346C92.0784 459.117 92.1939 458.946 92.4212 458.888C92.9374 458.717 93.3922 458.488 93.8506 458.26C97.2759 456.545 100.019 453.687 101.56 450.201C101.618 450.03 101.733 449.915 101.903 449.858C102.076 449.801 102.246 449.801 102.419 449.858C103.105 450.201 103.733 450.43 104.303 450.601C106.989 451.516 109.844 451.687 112.645 451.173C112.988 451.116 113.33 451.344 113.388 451.687C113.442 452.03 113.215 452.373 112.872 452.43C109.902 453.002 106.819 452.773 103.903 451.859C103.448 451.687 102.932 451.516 102.477 451.287C100.763 454.773 97.9617 457.631 94.4786 459.403C94.2512 459.517 94.0202 459.631 93.7928 459.745C95.6769 461.86 96.7633 464.546 96.7633 467.404C96.6478 473.748 91.5081 478.892 85.1664 478.892Z" fill="#F7F3E8"/>
<path d="M63.4609 459.859C63.118 459.859 62.8325 459.573 62.8325 459.23C62.8325 454.772 65.4031 450.772 69.4019 448.829C67.1168 441.628 69.6304 433.798 75.6267 429.226C70.6584 426.254 67.1739 421.339 65.9741 415.68C65.9171 415.338 66.1456 414.995 66.4884 414.938C66.831 414.88 67.1739 415.109 67.2309 415.452C68.4307 421.11 72.0296 425.911 77.1715 428.654C77.3411 428.768 77.5144 428.94 77.5144 429.168C77.5144 429.397 77.3989 429.625 77.2292 429.74C70.9442 433.969 68.3162 441.856 70.8298 449C70.9442 449.343 70.7728 449.686 70.4873 449.8C66.6599 451.4 64.2034 455.116 64.2034 459.23C64.0893 459.573 63.8034 459.859 63.4609 459.859Z" fill="#F7F3E8"/>
<path d="M67.1159 405.508C67.0588 405.508 67.0018 405.508 66.9448 405.451C66.6019 405.337 66.4304 404.994 66.5448 404.651C68.2586 399.507 71.8001 395.278 76.5977 392.763C75.2261 389.049 74.4852 385.162 74.4852 381.219C74.4852 373.96 76.8287 367.045 81.225 361.33C81.456 361.044 81.853 360.987 82.1381 361.215C82.4269 361.444 82.481 361.844 82.2536 362.13C78.0271 367.674 75.8001 374.303 75.8001 381.276C75.8001 385.276 76.54 389.163 78.027 392.935C78.1425 393.22 78.0271 393.563 77.7419 393.735C72.9999 396.078 69.458 400.136 67.8016 405.165C67.6302 405.337 67.4017 405.508 67.1159 405.508Z" fill="#F7F3E8"/>
<path d="M114.702 350.528C114.644 350.528 114.586 350.528 114.532 350.528C112.19 349.956 109.732 349.67 107.277 349.67C106.935 349.67 106.649 349.384 106.649 349.042C106.649 348.699 106.935 348.413 107.277 348.413C109.847 348.413 112.359 348.699 114.817 349.27C115.16 349.327 115.388 349.67 115.272 350.013C115.218 350.299 114.987 350.528 114.702 350.528Z" fill="#F7F3E8"/>
<path d="M137.037 665.953H133.207V570.45C133.207 559.762 141.891 551.075 152.575 551.075H186.85C197.53 551.075 206.214 559.762 206.214 570.45V665.953H202.388V570.45C202.388 561.877 195.418 554.904 186.85 554.904H152.575C144.006 554.904 137.037 561.877 137.037 570.45V665.953Z" fill="#1E193D"/>
<path d="M158.743 665.953H154.917V570.45C154.917 559.762 163.598 551.075 174.282 551.075H208.556C219.24 551.075 227.921 559.762 227.921 570.45V665.953H224.095V570.45C224.095 561.877 217.125 554.904 208.556 554.904H174.282C165.713 554.904 158.743 561.877 158.743 570.45V665.953Z" fill="#177D8F"/>
<path d="M180.45 665.953H176.624V570.45C176.624 559.762 185.305 551.075 195.989 551.075H230.263C240.947 551.075 249.628 559.762 249.628 570.45V665.953H245.802V570.45C245.802 561.877 238.832 554.904 230.263 554.904H195.989C187.42 554.904 180.45 561.877 180.45 570.45V665.953Z" fill="#177D8F"/>
<path d="M340.4 665.953H336.574V597.597C336.574 589.024 329.604 582.052 321.035 582.052H313.892C305.324 582.052 298.358 589.024 298.358 597.597V641.433H294.528V597.597C294.528 586.91 303.212 578.223 313.892 578.223H321.035C331.715 578.223 340.4 586.91 340.4 597.597V665.953Z" fill="#BF304A"/>
<path d="M346.799 657.719H330.232V665.953H346.799V657.719Z" fill="#1E193D"/>
<path d="M334.516 657.719H330.232V665.953H334.516V657.719Z" fill="#1E193D"/>
<path d="M365.019 665.953H361.193V597.597C361.193 589.024 354.224 582.052 345.655 582.052H338.516C329.947 582.052 322.977 589.024 322.977 597.597V641.433H319.151V597.597C319.151 586.91 327.832 578.223 338.458 578.223H345.597C356.281 578.223 364.965 586.91 364.965 597.597V665.953H365.019Z" fill="#BF304A"/>
<path d="M355.653 649.093C355.653 655.036 350.852 659.836 344.911 659.836H317.036C311.095 659.836 306.298 655.036 306.298 649.093C306.298 643.149 311.095 638.346 317.036 638.346H344.911C350.852 638.346 355.653 643.149 355.653 649.093Z" fill="#E36647"/>
<path d="M279.448 665.953H219.583V613.485L271.107 597.483H330.976L279.448 665.953Z" fill="#51A8B7"/>
<path d="M330.976 597.483L279.448 613.486V665.953H330.976V597.483Z" fill="#F7F3E8"/>
<path d="M326.063 603.998L284.249 617.029V665.949H326.063V603.998Z" fill="#E0D8C0"/>
<path d="M318.52 637.832H293.673V665.953H318.52V637.832Z" fill="#F2B120"/>
<path d="M300.015 653.379H293.673V659.666H300.015V653.379Z" fill="#1E193D"/>
<path d="M309.265 653.379H302.927V659.666H309.265V653.379Z" fill="#1E193D"/>
<path d="M318.523 653.379H312.182V659.666H318.523V653.379Z" fill="#1E193D"/>
<path d="M279.448 613.371H219.583V665.949H279.448V613.371Z" fill="#1E193D"/>
<path d="M255.969 663.208C255.742 663.208 255.569 663.035 255.569 662.808V619.258H243.575V662.808C243.575 663.035 243.401 663.208 243.174 663.208C242.947 663.208 242.773 663.035 242.773 662.808V618.401H256.485V662.808C256.37 663.035 256.197 663.208 255.969 663.208Z" fill="#F2B120"/>
<path d="M237.291 663.208C237.06 663.208 236.89 663.035 236.89 662.808V619.258H224.892V662.808C224.892 663.035 224.723 663.208 224.492 663.208C224.264 663.208 224.095 663.035 224.095 662.808V618.401H237.803V662.808C237.688 663.035 237.518 663.208 237.291 663.208Z" fill="#F2B120"/>
<path d="M274.593 663.208C274.366 663.208 274.193 663.039 274.193 662.808V619.258H262.199V662.808C262.199 663.039 262.025 663.208 261.798 663.208C261.567 663.208 261.397 663.039 261.397 662.808V618.401H275.106V662.808C275.052 663.039 274.821 663.208 274.593 663.208Z" fill="#F2B120"/>
<path d="M387.87 665.953H384.044V597.597C384.044 589.024 377.074 582.052 368.506 582.052H361.363C352.794 582.052 345.828 589.024 345.828 597.597V641.433H341.999V597.597C341.999 586.91 350.683 578.223 361.363 578.223H368.506C379.186 578.223 387.87 586.91 387.87 597.597V665.953Z" fill="#E36647"/>
<path d="M40.7811 661.605C39.7531 661.605 38.8962 660.749 38.8962 659.72V655.491C38.8962 649.147 44.0374 643.947 50.378 643.947H70.3719C71.4002 643.947 72.257 644.803 72.257 645.832C72.257 646.861 71.4002 647.72 70.3719 647.72H50.378C46.1511 647.72 42.6662 651.205 42.6662 655.434V659.662C42.7233 660.749 41.8664 661.605 40.7811 661.605Z" fill="#1E193D"/>
<path d="M47.9789 657.719H33.0693V665.953H47.9789V657.719Z" fill="#1E193D"/>
<path d="M109.104 630.402C108.075 630.402 107.216 629.545 107.216 628.516V598.511C107.216 594.282 103.733 590.795 99.5063 590.795H84.9966C83.9679 590.795 83.1089 589.939 83.1089 588.91C83.1089 587.881 83.9679 587.024 84.9966 587.024H99.5063C105.848 587.024 110.988 592.167 110.988 598.511V628.516C110.988 629.545 110.132 630.402 109.104 630.402Z" fill="#1E193D"/>
<path d="M103.733 620.686H79.3408V665.949H103.733V620.686Z" fill="#1E193D"/>
<path d="M91.5079 620.686H67.1157V657.719H91.5079V620.686Z" fill="#51A8B7"/>
<path d="M84.9966 620.686H67.1157V657.719H84.9966V620.686Z" fill="#1E193D"/>
<path d="M91.5079 657.719H67.1157V666.007H91.5079V657.719Z" fill="#1E193D"/>
<path d="M67.1157 620.686H91.5079L87.2813 600.111H71.343L67.1157 620.686Z" fill="#AFDDDA"/>
<path d="M87.3393 502.096H71.3433V600.569H87.3393V502.096Z" fill="#AFDDDA"/>
<path d="M91.8509 485.35H66.7722V502.095H91.8509V485.35Z" fill="#89562C"/>
<path d="M76.3704 585.366V600.569H71.3433V502.096H87.2816V573.993L76.3704 585.366Z" fill="#1E193D"/>
<path d="M103.733 620.686L168.853 631.602V665.949H103.733V620.686Z" fill="#AFDDDA"/>
<path d="M93.5654 646.233H74.7129C74.4844 646.233 74.313 646.063 74.313 645.835C74.313 645.604 74.4844 645.435 74.7129 645.435H93.5654C93.7928 645.435 93.9625 645.604 93.9625 645.835C93.9625 646.063 93.7928 646.233 93.5654 646.233Z" fill="#1E193D"/>
<path d="M93.5654 633.946H74.7129C74.4844 633.946 74.313 633.774 74.313 633.546C74.313 633.317 74.4844 633.146 74.7129 633.146H93.5654C93.7928 633.146 93.9625 633.317 93.9625 633.546C93.9625 633.774 93.7928 633.946 93.5654 633.946Z" fill="#1E193D"/>
<path d="M85.5092 595.996H73.1143C72.8858 595.996 72.7144 595.825 72.7144 595.596C72.7144 595.367 72.8858 595.196 73.1143 595.196H85.5669C85.7943 595.196 85.9676 595.367 85.9676 595.596C85.9676 595.825 85.7402 595.996 85.5092 595.996Z" fill="#51A8B7"/>
<path d="M85.5092 574.449H73.1143C72.8858 574.449 72.7144 574.278 72.7144 574.049C72.7144 573.82 72.8858 573.649 73.1143 573.649H85.5669C85.7943 573.649 85.9676 573.82 85.9676 574.049C85.9676 574.221 85.7402 574.449 85.5092 574.449Z" fill="#51A8B7"/>
<path d="M85.5092 552.846H73.1143C72.8858 552.846 72.7144 552.674 72.7144 552.446C72.7144 552.217 72.8858 552.046 73.1143 552.046H85.5669C85.7943 552.046 85.9676 552.217 85.9676 552.446C85.9676 552.674 85.7402 552.846 85.5092 552.846Z" fill="#51A8B7"/>
<path d="M85.5092 531.299H73.1143C72.8858 531.299 72.7144 531.128 72.7144 530.899C72.7144 530.671 72.8858 530.499 73.1143 530.499H85.5669C85.7943 530.499 85.9676 530.671 85.9676 530.899C85.9676 531.071 85.7402 531.299 85.5092 531.299Z" fill="#51A8B7"/>
<path d="M85.5092 509.696H73.1143C72.8858 509.696 72.7144 509.524 72.7144 509.296C72.7144 509.067 72.8858 508.896 73.1143 508.896H85.5669C85.7943 508.896 85.9676 509.067 85.9676 509.296C85.9676 509.524 85.7402 509.696 85.5092 509.696Z" fill="#51A8B7"/>
<path d="M81.0552 661.605C80.0265 661.605 79.1675 660.749 79.1675 659.72V655.491C79.1675 649.147 84.3108 643.947 90.7066 643.947H110.703C111.731 643.947 112.587 644.803 112.587 645.832C112.587 646.861 111.731 647.717 110.703 647.717H90.7066C86.4801 647.717 82.997 651.205 82.997 655.434V659.662C82.9393 660.749 82.0803 661.605 81.0552 661.605Z" fill="#177D8F"/>
<path d="M88.2523 657.719H73.342V665.949H88.2523V657.719Z" fill="#E0D8C0"/>
<path d="M77.168 657.719H73.342V665.949H77.168V657.719Z" fill="#939597"/>
<path d="M149.373 630.401C148.345 630.401 147.489 629.544 147.489 628.515V598.511C147.489 594.281 144.003 590.795 139.776 590.795H125.266C124.238 590.795 123.382 589.938 123.382 588.909C123.382 587.88 124.238 587.023 125.266 587.023H139.776C146.118 587.023 151.258 592.167 151.258 598.511V628.515C151.258 629.544 150.402 630.401 149.373 630.401Z" fill="#51A8B7"/>
<path d="M143.945 620.686H119.553V665.949H143.945V620.686Z" fill="#1E193D"/>
<path d="M131.778 620.686H107.386V657.72H131.778V620.686Z" fill="#AFDDDA"/>
<path d="M125.267 620.686H107.386V657.72H125.267V620.686Z" fill="#51A8B7"/>
<path d="M131.778 657.719H107.386V666.007H131.778V657.719Z" fill="#1E193D"/>
<path d="M107.332 620.686H131.781L127.555 600.111H111.558L107.332 620.686Z" fill="#F7F3E8"/>
<path d="M127.551 502.096H111.558V600.569H127.551V502.096Z" fill="#AFDDDA"/>
<path d="M132.067 485.349H106.989V502.095H132.067V485.349Z" fill="#89562C"/>
<path d="M116.64 512.498V600.569H111.558V502.096H127.151L116.64 512.498Z" fill="#51A8B7"/>
<path d="M144.003 620.686L209.069 631.602V665.949H144.003V620.686Z" fill="#F7F3E8"/>
<path d="M151.203 663.895C150.861 663.895 150.575 663.609 150.575 663.266V626.459C150.575 626.116 150.861 625.831 151.203 625.831C151.546 625.831 151.832 626.116 151.832 626.459V663.266C151.832 663.609 151.546 663.895 151.203 663.895Z" fill="#E0D8C0"/>
<path d="M158.458 663.895C158.115 663.895 157.83 663.609 157.83 663.266V627.659C157.83 627.316 158.115 627.031 158.458 627.031C158.801 627.031 159.086 627.316 159.086 627.659V663.266C159.086 663.609 158.801 663.895 158.458 663.895Z" fill="#E0D8C0"/>
<path d="M165.655 663.895C165.312 663.895 165.027 663.609 165.027 663.266V628.859C165.027 628.516 165.312 628.23 165.655 628.23C165.998 628.23 166.283 628.516 166.283 628.859V663.266C166.283 663.609 165.998 663.895 165.655 663.895Z" fill="#E0D8C0"/>
<path d="M172.91 663.894C172.567 663.894 172.282 663.609 172.282 663.266V630.06C172.282 629.717 172.567 629.431 172.91 629.431C173.253 629.431 173.538 629.717 173.538 630.06V663.266C173.538 663.609 173.253 663.894 172.91 663.894Z" fill="#E0D8C0"/>
<path d="M180.165 663.895C179.822 663.895 179.537 663.606 179.537 663.263V631.259C179.537 630.916 179.822 630.63 180.165 630.63C180.508 630.63 180.793 630.916 180.793 631.259V663.263C180.793 663.606 180.508 663.895 180.165 663.895Z" fill="#E0D8C0"/>
<path d="M187.362 663.894C187.019 663.894 186.734 663.609 186.734 663.266V632.46C186.734 632.117 187.019 631.831 187.362 631.831C187.705 631.831 187.99 632.117 187.99 632.46V663.266C187.99 663.609 187.705 663.894 187.362 663.894Z" fill="#E0D8C0"/>
<path d="M194.617 663.895C194.274 663.895 193.989 663.609 193.989 663.266V633.717C193.989 633.374 194.274 633.089 194.617 633.089C194.96 633.089 195.245 633.374 195.245 633.717V663.266C195.245 663.609 194.96 663.895 194.617 663.895Z" fill="#E0D8C0"/>
<path d="M201.872 663.895C201.529 663.895 201.244 663.609 201.244 663.266V634.918C201.244 634.575 201.529 634.289 201.872 634.289C202.215 634.289 202.5 634.575 202.5 634.918V663.266C202.5 663.609 202.215 663.895 201.872 663.895Z" fill="#E0D8C0"/>
<path d="M133.777 646.233H114.929C114.698 646.233 114.529 646.063 114.529 645.835C114.529 645.604 114.698 645.435 114.929 645.435H133.777C134.008 645.435 134.178 645.604 134.178 645.835C134.236 646.063 134.063 646.233 133.777 646.233Z" fill="#1E193D"/>
<path d="M133.777 633.945H114.926C114.698 633.945 114.529 633.774 114.529 633.545C114.529 633.317 114.698 633.145 114.926 633.145H133.777C134.005 633.145 134.178 633.317 134.178 633.545C134.236 633.774 134.063 633.945 133.777 633.945Z" fill="#1E193D"/>
<path d="M125.779 595.997H113.327C113.099 595.997 112.926 595.826 112.926 595.597C112.926 595.369 113.099 595.197 113.327 595.197H125.779C126.01 595.197 126.18 595.369 126.18 595.597C126.18 595.826 126.01 595.997 125.779 595.997Z" fill="#1E193D"/>
<path d="M125.779 574.449H113.327C113.099 574.449 112.926 574.278 112.926 574.049C112.926 573.821 113.099 573.649 113.327 573.649H125.779C126.01 573.649 126.18 573.821 126.18 574.049C126.18 574.221 126.01 574.449 125.779 574.449Z" fill="#1E193D"/>
<path d="M125.779 552.846H113.327C113.099 552.846 112.926 552.675 112.926 552.446C112.926 552.218 113.099 552.046 113.327 552.046H125.779C126.01 552.046 126.18 552.218 126.18 552.446C126.18 552.675 126.01 552.846 125.779 552.846Z" fill="#1E193D"/>
<path d="M125.779 531.301H113.327C113.099 531.301 112.926 531.129 112.926 530.901C112.926 530.672 113.099 530.5 113.327 530.5H125.779C126.01 530.5 126.18 530.672 126.18 530.901C126.18 531.072 126.01 531.301 125.779 531.301Z" fill="#1E193D"/>
<path d="M125.779 509.697H113.327C113.099 509.697 112.926 509.526 112.926 509.297C112.926 509.068 113.099 508.897 113.327 508.897H125.779C126.01 508.897 126.18 509.068 126.18 509.297C126.18 509.526 126.01 509.697 125.779 509.697Z" fill="#1E193D"/>
<path d="M121.267 661.605C120.238 661.605 119.383 660.749 119.383 659.72V655.491C119.383 649.147 124.523 643.947 130.864 643.947H150.86C151.885 643.947 152.745 644.803 152.745 645.832C152.745 646.861 151.885 647.717 150.86 647.717H130.864C126.638 647.717 123.155 651.205 123.155 655.434V659.662C123.155 660.749 122.296 661.605 121.267 661.605Z" fill="#177D8F"/>
<path d="M129.266 657.719H112.702V665.949H129.266V657.719Z" fill="#E0D8C0"/>
<path d="M116.987 657.719H112.702V665.949H116.987V657.719Z" fill="#939597"/>
<path d="M189.535 630.401C188.506 630.401 187.647 629.544 187.647 628.515V598.511C187.647 594.281 184.164 590.795 179.938 590.795H165.428C164.399 590.795 163.544 589.938 163.544 588.909C163.544 587.88 164.399 587.023 165.428 587.023H179.938C186.279 587.023 191.477 592.167 191.477 598.511V628.515C191.477 629.544 190.618 630.401 189.535 630.401Z" fill="#51A8B7"/>
<path d="M184.164 620.686H159.772V665.949H184.164V620.686Z" fill="#1E193D"/>
<path d="M171.94 620.686H147.547V657.72H171.94V620.686Z" fill="#AFDDDA"/>
<path d="M164.569 620.686H147.547V657.72H164.569V620.686Z" fill="#51A8B7"/>
<path d="M171.94 657.719H147.547V666.007H171.94V657.719Z" fill="#1E193D"/>
<path d="M147.547 620.685H171.997L167.771 600.111H151.774L147.547 620.685Z" fill="#F7F3E8"/>
<path d="M167.767 502.096H151.774V600.569H167.767V502.096Z" fill="#AFDDDA"/>
<path d="M172.282 485.349H147.204V502.095H172.282V485.349Z" fill="#89562C"/>
<path d="M156.86 512.497V600.569H151.774V502.096H167.37L156.86 512.497Z" fill="#51A8B7"/>
<path d="M184.164 620.686L249.284 631.602V665.949H184.164V620.686Z" fill="#F7F3E8"/>
<path d="M191.419 663.895C191.076 663.895 190.791 663.609 190.791 663.266V626.459C190.791 626.116 191.076 625.83 191.419 625.83C191.762 625.83 192.047 626.116 192.047 626.459V663.266C192.047 663.609 191.762 663.895 191.419 663.895Z" fill="#E0D8C0"/>
<path d="M198.674 663.895C198.331 663.895 198.046 663.609 198.046 663.266V627.659C198.046 627.316 198.331 627.031 198.674 627.031C199.017 627.031 199.302 627.316 199.302 627.659V663.266C199.302 663.609 199.017 663.895 198.674 663.895Z" fill="#E0D8C0"/>
<path d="M205.871 663.895C205.528 663.895 205.243 663.609 205.243 663.266V628.859C205.243 628.516 205.528 628.23 205.871 628.23C206.214 628.23 206.499 628.516 206.499 628.859V663.266C206.499 663.609 206.214 663.895 205.871 663.895Z" fill="#E0D8C0"/>
<path d="M213.126 663.894C212.783 663.894 212.498 663.609 212.498 663.266V630.06C212.498 629.717 212.783 629.431 213.126 629.431C213.469 629.431 213.754 629.717 213.754 630.06V663.266C213.754 663.609 213.469 663.894 213.126 663.894Z" fill="#E0D8C0"/>
<path d="M220.323 663.895C219.98 663.895 219.695 663.606 219.695 663.263V631.259C219.695 630.916 219.98 630.63 220.323 630.63C220.666 630.63 220.951 630.916 220.951 631.259V663.263C221.009 663.606 220.724 663.895 220.323 663.895Z" fill="#E0D8C0"/>
<path d="M227.578 663.894C227.235 663.894 226.95 663.609 226.95 663.266V632.46C226.95 632.117 227.235 631.831 227.578 631.831C227.921 631.831 228.206 632.117 228.206 632.46V663.266C228.206 663.609 227.921 663.894 227.578 663.894Z" fill="#E0D8C0"/>
<path d="M234.833 663.895C234.49 663.895 234.205 663.609 234.205 663.266V633.717C234.205 633.374 234.49 633.088 234.833 633.088C235.175 633.088 235.461 633.374 235.461 633.717V663.266C235.461 663.609 235.175 663.895 234.833 663.895Z" fill="#E0D8C0"/>
<path d="M242.03 663.895C241.691 663.895 241.402 663.609 241.402 663.266V634.917C241.402 634.574 241.691 634.289 242.03 634.289C242.373 634.289 242.661 634.574 242.661 634.917V663.266C242.661 663.609 242.373 663.895 242.03 663.895Z" fill="#E0D8C0"/>
<path d="M173.997 646.233H155.087C154.86 646.233 154.687 646.063 154.687 645.835C154.687 645.604 154.86 645.435 155.087 645.435H173.997C174.224 645.435 174.394 645.604 174.394 645.835C174.451 646.063 174.224 646.233 173.997 646.233Z" fill="#1E193D"/>
<path d="M173.993 633.945H155.087C154.856 633.945 154.687 633.774 154.687 633.545C154.687 633.317 154.856 633.145 155.087 633.145H173.993C174.224 633.145 174.394 633.317 174.394 633.545C174.452 633.774 174.224 633.945 173.993 633.945Z" fill="#1E193D"/>
<path d="M165.998 595.997H153.542C153.315 595.997 153.145 595.825 153.145 595.597C153.145 595.368 153.315 595.197 153.542 595.197H165.998C166.226 595.197 166.395 595.368 166.395 595.597C166.395 595.825 166.226 595.997 165.998 595.997Z" fill="#1E193D"/>
<path d="M165.998 574.449H153.542C153.315 574.449 153.142 574.278 153.142 574.049C153.142 573.82 153.315 573.649 153.542 573.649H165.998C166.226 573.649 166.395 573.82 166.395 574.049C166.395 574.221 166.226 574.449 165.998 574.449Z" fill="#1E193D"/>
<path d="M165.998 552.846H153.542C153.315 552.846 153.142 552.674 153.142 552.446C153.142 552.217 153.315 552.046 153.542 552.046H165.998C166.226 552.046 166.395 552.217 166.395 552.446C166.395 552.674 166.226 552.846 165.998 552.846Z" fill="#1E193D"/>
<path d="M165.998 531.3H153.542C153.315 531.3 153.145 531.129 153.145 530.9C153.145 530.672 153.315 530.5 153.542 530.5H165.998C166.226 530.5 166.395 530.672 166.395 530.9C166.395 531.072 166.226 531.3 165.998 531.3Z" fill="#1E193D"/>
<path d="M165.998 509.697H153.542C153.315 509.697 153.145 509.525 153.145 509.297C153.145 509.068 153.315 508.896 153.542 508.896H165.998C166.226 508.896 166.395 509.068 166.395 509.297C166.395 509.525 166.226 509.697 165.998 509.697Z" fill="#1E193D"/>
<path d="M371.419 657.719H354.852V665.953H371.419V657.719Z" fill="#E0D8C0"/>
<path d="M359.136 657.719H354.852V665.953H359.136V657.719Z" fill="#939597"/>
<path d="M406.379 666.408H0.394071C0.165598 666.408 -0.00585938 666.238 -0.00585938 666.007C-0.00585938 665.78 0.165598 665.61 0.394071 665.61H406.379C406.607 665.61 406.78 665.78 406.78 666.007C406.838 666.18 406.664 666.408 406.379 666.408Z" fill="#1E193D"/>
<path d="M346.741 637.204H341.143C340.912 637.204 340.743 637.032 340.743 636.804C340.743 636.575 340.912 636.403 341.143 636.403H346.741C346.969 636.403 347.142 636.575 347.142 636.804C347.142 637.032 346.969 637.204 346.741 637.204Z" fill="#1E193D"/>
<path d="M346.741 632.117H341.143C340.912 632.117 340.743 631.945 340.743 631.717C340.743 631.488 340.912 631.316 341.143 631.316H346.741C346.969 631.316 347.142 631.488 347.142 631.717C347.142 631.945 346.969 632.117 346.741 632.117Z" fill="#1E193D"/>
</g>
<defs>
<clipPath id="clip0">
<rect width="375" height="667" fill="white"/>
</clipPath>
</defs>
</svg>
