<svg width="1920" height="1080" viewBox="0 0 1920 1080" fill="none" xmlns="http://www.w3.org/2000/svg">
<g clip-path="url(#clip0)">
<g clip-path="url(#clip1)">
<path d="M1289.48 520.468C1288.69 520.468 1287.9 520.468 1287.11 520.309C1286.16 520.309 1285.37 519.36 1285.52 518.41C1285.52 517.461 1286.47 516.669 1287.42 516.828C1302.14 517.935 1315.12 506.857 1316.23 492.138C1316.39 491.03 1316.39 489.922 1316.23 488.656C1316.23 488.181 1316.39 487.706 1316.7 487.39C1317.02 487.073 1317.49 486.757 1317.97 486.757C1334.43 485.965 1347.88 472.829 1349.15 456.528C1350.41 441.017 1340.44 426.615 1325.41 422.342C1324.93 422.184 1324.46 421.867 1324.3 421.234C1324.14 420.759 1324.14 420.126 1324.46 419.651C1333.95 405.091 1335.54 386.732 1328.57 370.747C1328.26 369.955 1328.42 369.164 1329.05 368.689C1329.68 368.214 1330.63 368.214 1331.26 368.689C1336.01 372.488 1341.39 375.02 1347.25 376.286C1352.16 377.394 1357.06 377.394 1361.97 376.603C1362.92 376.444 1363.87 377.077 1364.03 378.027C1364.18 378.977 1363.55 379.926 1362.6 380.084C1357.22 381.034 1351.84 380.876 1346.46 379.768C1341.87 378.818 1337.59 377.077 1333.64 374.703C1338.39 389.739 1336.49 406.04 1328.42 419.651C1343.77 425.191 1353.74 440.384 1352.47 456.844C1351.05 474.412 1337.12 488.498 1319.71 490.239C1319.71 491.03 1319.71 491.821 1319.71 492.613C1318.6 508.439 1305.15 520.468 1289.48 520.468ZM1260.99 489.764C1260.83 489.764 1260.83 489.764 1260.99 489.764C1259.89 489.764 1259.09 488.814 1259.25 487.865C1260.2 475.362 1268.75 464.758 1280.62 461.117C1279.99 457.794 1279.83 454.47 1279.99 451.147C1280.14 449.564 1280.3 447.981 1280.62 446.557C1261.94 446.399 1244.85 437.061 1234.72 421.234C1221.11 400.026 1223.33 372.804 1240.26 354.129C1234.4 349.697 1229.34 344.316 1225.38 338.144C1216.52 324.374 1213.51 307.756 1216.99 291.771C1220.48 275.628 1229.97 261.859 1243.9 252.996C1249.6 249.356 1255.61 246.665 1262.1 245.082C1263.05 244.924 1264 245.399 1264.16 246.348C1264.48 247.298 1263.84 248.248 1262.89 248.406C1256.88 249.989 1251.02 252.521 1245.8 255.845C1232.82 264.233 1223.8 277.211 1220.48 292.404C1217.15 307.598 1220 323.108 1228.39 336.244C1232.5 342.575 1237.73 347.956 1243.9 352.388C1244.38 352.704 1244.53 353.179 1244.69 353.654C1244.69 354.129 1244.53 354.603 1244.22 355.078C1227.28 372.488 1224.59 398.918 1237.73 419.177C1247.7 434.529 1264.63 443.391 1282.83 442.758C1283.31 442.758 1283.94 442.917 1284.26 443.391C1284.57 443.866 1284.73 444.341 1284.57 444.974C1283.94 447.032 1283.63 449.089 1283.47 451.147C1283.15 454.628 1283.47 458.269 1284.42 461.592C1284.57 462.067 1284.42 462.542 1284.26 462.858C1283.94 463.333 1283.63 463.491 1283.15 463.65C1271.91 466.499 1263.68 475.995 1262.73 487.706C1262.58 488.972 1261.78 489.764 1260.99 489.764ZM1379.85 372.646C1379.38 372.646 1378.74 372.329 1378.43 372.013C1377.79 371.222 1377.95 370.114 1378.74 369.481C1386.34 363.783 1391.56 355.711 1393.62 346.374C1394.25 343.208 1394.57 339.726 1394.41 336.403C1394.41 335.928 1394.57 335.453 1394.89 335.137C1395.2 334.82 1395.68 334.662 1396.15 334.662C1420.21 335.295 1443.32 325.324 1459.46 307.44C1460.09 306.648 1461.2 306.648 1461.99 307.281C1462.78 307.915 1462.78 309.022 1462.15 309.814C1445.69 327.856 1422.43 338.144 1398.21 338.144H1398.05C1398.05 341.309 1397.74 344.316 1397.1 347.165C1394.89 357.294 1389.19 366.157 1380.96 372.329C1380.64 372.488 1380.33 372.646 1379.85 372.646ZM1474.02 291.296C1473.7 291.296 1473.55 291.296 1473.23 291.138C1472.44 290.663 1471.96 289.714 1472.44 288.764C1477.19 279.11 1480.04 268.822 1480.98 258.06C1480.98 257.111 1481.93 256.319 1482.88 256.478C1483.83 256.478 1484.63 257.427 1484.47 258.377C1483.52 269.614 1480.67 280.376 1475.6 290.347C1475.29 290.98 1474.65 291.296 1474.02 291.296ZM1313.54 259.168C1313.22 259.168 1312.75 259.01 1312.43 258.852C1302.62 251.255 1290.43 247.14 1277.93 246.823C1276.98 246.823 1276.19 246.032 1276.19 245.082C1276.19 244.133 1277.14 243.341 1277.93 243.341C1289.8 243.5 1301.67 247.298 1311.48 253.945C1311.32 250.938 1311.48 247.931 1311.64 244.924C1312.27 236.694 1314.01 228.622 1317.02 220.867C1317.34 219.918 1318.44 219.443 1319.24 219.918C1320.19 220.234 1320.66 221.342 1320.19 222.134C1317.34 229.572 1315.6 237.327 1315.12 245.241C1314.8 249.197 1314.8 253.312 1315.12 257.427C1315.12 258.06 1314.8 258.693 1314.17 259.168C1314.17 259.168 1313.85 259.168 1313.54 259.168ZM1330.16 202.667C1329.84 202.667 1329.36 202.508 1329.05 202.35C1328.26 201.717 1328.1 200.609 1328.73 199.818C1346.62 175.919 1375.1 162.941 1404.86 165.316C1405.81 165.316 1406.6 166.265 1406.44 167.215C1406.28 168.164 1405.49 168.956 1404.54 168.797C1376.05 166.582 1348.67 178.927 1331.58 201.875C1331.26 202.35 1330.63 202.667 1330.16 202.667Z" fill="#F7F3E8"/>
<path d="M1062.69 531.865C1062.69 547.533 1049.87 560.353 1034.2 560.353C1018.53 560.353 1005.71 547.533 1005.71 531.865C1005.71 516.196 1018.53 503.376 1034.2 503.376C1050.02 503.376 1062.69 516.038 1062.69 531.865Z" fill="#ECE6E1"/>
<path d="M1038.16 563.2C1038.16 576.178 1027.55 586.782 1014.57 586.782C1001.6 586.782 990.992 576.178 990.992 563.2C990.992 550.222 1001.44 539.618 1014.57 539.618C1027.55 539.618 1038.16 550.222 1038.16 563.2Z" fill="#ECE6E1"/>
<path d="M1158.12 360.776C1158.12 399.235 1126.94 430.414 1088.48 430.414C1050.02 430.414 1018.85 399.235 1018.85 360.776C1018.85 322.317 1050.02 291.139 1088.48 291.139C1126.94 291.139 1158.12 322.317 1158.12 360.776Z" fill="#ECE6E1"/>
<path d="M962.977 373.121C984.659 356.661 1015.52 360.776 1031.98 382.458C1048.44 404.141 1044.17 435.003 1022.64 451.463C1000.96 467.923 970.099 463.65 953.639 442.125C937.021 420.443 941.294 389.58 962.977 373.121Z" fill="#ECE6E1"/>
<path d="M1092.28 438.959C1089.75 457.318 1072.97 470.138 1054.62 467.606C1036.26 465.074 1023.44 448.297 1025.97 429.938C1028.5 411.579 1045.28 398.759 1063.64 401.292C1081.84 403.824 1094.66 420.759 1092.28 438.959Z" fill="#ECE6E1"/>
<path d="M974.848 447.823C994.156 433.105 1021.69 436.903 1036.41 456.212C1051.13 475.52 1047.33 503.059 1028.03 517.778C1008.72 532.497 981.179 528.698 966.46 509.39C951.741 490.081 955.539 462.542 974.848 447.823Z" fill="#ECE6E1"/>
<path d="M1161.13 539.303C1161.13 552.914 1150.05 563.993 1136.44 563.993C1122.83 563.993 1111.75 552.914 1111.75 539.303C1111.75 525.692 1122.83 514.614 1136.44 514.614C1150.05 514.614 1161.13 525.692 1161.13 539.303Z" fill="#ECE6E1"/>
<path d="M1148.3 576.971C1148.3 590.582 1137.23 601.661 1123.62 601.661C1110 601.661 1098.93 590.582 1098.93 576.971C1098.93 563.36 1110 552.281 1123.62 552.281C1137.23 552.281 1148.3 563.36 1148.3 576.971Z" fill="#ECE6E1"/>
<path d="M1261.15 362.994C1261.15 403.51 1228.39 436.271 1187.87 436.271C1147.36 436.271 1114.6 403.51 1114.6 362.994C1114.6 322.477 1147.36 289.716 1187.87 289.716C1228.39 289.716 1261.15 322.477 1261.15 362.994Z" fill="#ECE6E1"/>
<path d="M1140.39 515.722C1133.59 536.297 1111.43 547.376 1090.85 540.57C1070.28 533.765 1059.2 511.607 1066.01 491.033C1072.81 470.458 1094.97 459.379 1115.54 466.185C1135.96 472.99 1147.2 495.148 1140.39 515.722Z" fill="#ECE6E1"/>
<path d="M1093.07 452.731C1083.41 433.423 1091.17 409.841 1110.48 400.028C1129.79 390.374 1153.37 398.129 1163.18 417.438C1172.84 436.746 1165.08 460.328 1145.77 470.141C1126.31 479.795 1102.72 472.04 1093.07 452.731Z" fill="#ECE6E1"/>
<path d="M1220.95 497.363C1212.24 523.636 1183.76 538.038 1157.48 529.175C1131.21 520.47 1116.81 491.982 1125.67 465.71C1134.38 439.437 1162.86 425.035 1189.14 433.898C1215.41 442.603 1229.81 471.091 1220.95 497.363Z" fill="#ECE6E1"/>
<path d="M1237.41 538.669C1237.41 552.28 1226.33 563.359 1212.72 563.359C1199.11 563.359 1188.03 552.28 1188.03 538.669C1188.03 525.058 1199.11 513.979 1212.72 513.979C1226.33 513.979 1237.41 525.058 1237.41 538.669Z" fill="#F7F3E8"/>
<path d="M1262.1 557.344C1262.1 570.956 1251.02 582.034 1237.41 582.034C1223.8 582.034 1212.72 570.956 1212.72 557.344C1212.72 543.733 1223.8 532.655 1237.41 532.655C1251.02 532.655 1262.1 543.733 1262.1 557.344Z" fill="#F7F3E8"/>
<path d="M1361.02 361.251C1361.02 401.768 1328.26 434.529 1287.74 434.529C1247.22 434.529 1214.46 401.768 1214.46 361.251C1214.46 320.735 1247.22 287.973 1287.74 287.973C1328.26 287.973 1361.02 320.893 1361.02 361.251Z" fill="#F7F3E8"/>
<path d="M1330 495.78C1323.19 516.355 1301.03 527.434 1280.46 520.628C1259.88 513.823 1248.8 491.665 1255.61 471.091C1262.42 450.516 1284.57 439.437 1305.15 446.243C1325.72 453.048 1336.8 475.206 1330 495.78Z" fill="#F7F3E8"/>
<path d="M1205.13 520.468C1195.47 501.159 1203.23 477.577 1222.54 467.765C1241.84 458.11 1265.43 465.865 1275.24 485.174C1284.89 504.483 1277.14 528.065 1257.83 537.877C1238.36 547.69 1214.78 539.776 1205.13 520.468Z" fill="#F7F3E8"/>
<path d="M1284.1 444.183C1276.03 468.398 1249.92 481.534 1225.7 473.463C1201.49 465.391 1188.35 439.277 1196.42 415.062C1204.5 390.847 1230.61 377.711 1254.82 385.783C1278.88 393.854 1292.02 419.968 1284.1 444.183Z" fill="#F7F3E8"/>
<path d="M1305.31 295.253C1305.15 295.253 1304.99 295.253 1304.83 295.253C1303.88 294.936 1303.41 293.986 1303.57 293.037C1305.62 285.44 1306.73 277.685 1306.73 269.771C1306.73 268.822 1307.52 268.031 1308.47 268.031C1309.42 268.031 1310.21 268.822 1310.21 269.771C1310.21 278.001 1309.11 286.231 1306.89 293.986C1306.89 294.778 1306.1 295.253 1305.31 295.253Z" fill="#F7F3E8"/>
<path d="M1267.64 346.531C1267 346.531 1266.53 346.215 1266.21 345.74C1265.74 344.949 1265.9 343.841 1266.69 343.366C1274.76 338.143 1281.88 331.812 1287.74 324.216C1288.37 323.424 1289.48 323.266 1290.27 323.899C1291.06 324.532 1291.22 325.64 1290.59 326.431C1284.41 334.186 1276.98 340.992 1268.59 346.373C1268.27 346.373 1267.95 346.531 1267.64 346.531Z" fill="#F7F3E8"/>
<path d="M1260.04 397.652C1259.25 397.652 1258.62 397.177 1258.3 396.385C1253.24 380.4 1241.68 367.106 1226.49 360.142C1225.7 359.826 1225.38 359.034 1225.54 358.243C1225.7 357.452 1226.33 356.818 1227.12 356.818C1236.46 356.027 1245.48 353.653 1254.19 350.013C1255.14 349.696 1256.09 350.013 1256.56 350.963C1256.88 351.912 1256.56 352.862 1255.61 353.337C1248.49 356.502 1240.89 358.559 1233.3 359.667C1246.91 367.581 1257.19 380.242 1261.94 395.436C1262.26 396.385 1261.78 397.335 1260.83 397.652C1260.36 397.652 1260.2 397.652 1260.04 397.652Z" fill="#F7F3E8"/>
<path d="M1250.87 452.096C1250.55 452.096 1250.07 451.938 1249.76 451.78C1248.97 451.147 1248.81 450.039 1249.44 449.248C1253.08 444.341 1255.93 438.802 1257.99 432.788C1258.3 431.838 1259.25 431.363 1260.2 431.68C1261.15 431.996 1261.63 432.946 1261.31 433.896C1259.25 440.226 1256.09 446.082 1252.29 451.305C1251.97 451.78 1251.34 452.096 1250.87 452.096Z" fill="#F7F3E8"/>
<path d="M1141.19 562.092C1140.24 562.092 1139.45 561.301 1139.45 560.351C1139.45 559.401 1140.24 558.61 1141.19 558.61C1156.86 558.61 1169.52 545.949 1169.52 530.28C1169.52 524.424 1167.78 518.885 1164.45 514.137C1164.14 513.662 1163.98 513.029 1164.3 512.554C1164.45 512.079 1164.93 511.605 1165.4 511.446C1177.27 507.648 1185.19 496.886 1185.19 484.383C1185.19 480.584 1184.4 476.944 1182.97 473.462C1182.65 472.829 1182.81 472.196 1183.29 471.563C1183.76 471.088 1184.4 470.93 1185.03 471.088C1202.6 476.153 1221.11 473.146 1235.99 462.542C1236.78 461.909 1237.89 462.225 1238.36 463.017C1239 463.808 1238.68 464.916 1237.89 465.391C1223.01 475.836 1204.65 479.476 1187.09 475.203C1187.88 478.052 1188.35 481.217 1188.35 484.224C1188.35 497.361 1180.44 509.072 1168.25 513.82C1171.26 518.727 1172.68 524.266 1172.68 530.122C1173 547.848 1158.76 562.092 1141.19 562.092Z" fill="#F7F3E8"/>
<path d="M1110.96 532.02C1110.01 532.02 1109.22 531.229 1109.22 530.279C1109.22 517.143 1117.13 505.431 1129.32 500.683C1127.26 497.201 1125.84 493.403 1125.2 489.288C1116.97 490.87 1108.43 490.237 1100.51 487.705C1088.96 483.907 1079.31 475.993 1073.29 465.548C1072.82 464.756 1073.13 463.648 1073.93 463.174C1074.72 462.699 1075.82 463.015 1076.3 463.807C1082 473.619 1090.86 480.899 1101.62 484.381C1109.54 487.072 1118.08 487.388 1126.31 485.489C1126.79 485.331 1127.26 485.489 1127.74 485.806C1128.21 486.122 1128.37 486.597 1128.53 487.072C1129 491.978 1130.74 496.568 1133.43 500.683C1133.75 501.158 1133.91 501.791 1133.59 502.266C1133.43 502.74 1132.96 503.215 1132.48 503.373C1120.61 507.172 1112.7 517.934 1112.7 530.437C1112.7 531.229 1111.91 532.02 1110.96 532.02Z" fill="#F7F3E8"/>
<path d="M1068.54 446.239C1067.59 446.239 1066.8 445.606 1066.8 444.656C1066.33 438.009 1067.12 431.52 1069.17 425.189C1075.19 406.83 1091.65 393.852 1110.64 391.637C1107.32 388.155 1104.47 384.198 1102.25 379.767C1095.76 366.789 1095.29 351.595 1100.99 338.142C1101.3 337.193 1102.41 336.876 1103.36 337.193C1104.31 337.509 1104.63 338.617 1104.31 339.567C1098.93 352.07 1099.4 366.156 1105.58 378.184C1108.11 383.248 1111.59 387.838 1116.02 391.795C1116.5 392.27 1116.81 393.061 1116.5 393.694C1116.18 394.327 1115.55 394.802 1114.91 394.802C1095.76 395.435 1078.67 408.096 1072.66 426.297C1070.76 432.153 1069.97 438.326 1070.44 444.34C1070.44 445.289 1069.65 446.081 1068.54 446.239C1068.7 446.239 1068.7 446.239 1068.54 446.239Z" fill="#F7F3E8"/>
<path d="M1125.2 316.62C1124.57 316.62 1123.93 316.303 1123.62 315.67C1123.14 314.879 1123.46 313.771 1124.41 313.296C1128.52 311.238 1132.8 309.814 1137.39 308.864C1131.53 296.52 1128.52 283.383 1128.52 269.772C1128.52 255.212 1131.85 241.284 1138.5 228.306C1138.97 227.515 1140.08 227.04 1140.87 227.515C1141.66 227.99 1142.14 228.939 1141.66 229.889C1135.33 242.234 1132.01 255.686 1132.01 269.772C1132.01 283.7 1135.17 297.153 1141.5 309.497C1141.82 309.972 1141.82 310.605 1141.5 311.08C1141.19 311.555 1140.71 311.871 1140.24 312.03C1135.17 312.663 1130.42 314.245 1125.99 316.461C1125.68 316.62 1125.36 316.62 1125.2 316.62Z" fill="#F7F3E8"/>
<path d="M1166.19 199.976C1165.71 199.976 1165.08 199.659 1164.76 199.343C1164.13 198.551 1164.29 197.443 1165.08 196.81C1180.91 185.099 1199.58 178.768 1219.37 178.768C1227.12 178.768 1234.88 179.717 1242.32 181.775C1243.27 182.091 1243.74 183.041 1243.58 183.991C1243.27 184.94 1242.32 185.415 1241.37 185.257C1234.24 183.358 1226.81 182.408 1219.21 182.408C1200.22 182.408 1182.17 188.422 1166.98 199.659C1166.98 199.976 1166.51 199.976 1166.19 199.976Z" fill="#F7F3E8"/>
<path d="M1295.18 224.506C1294.55 224.506 1294.07 224.19 1293.76 223.715C1288.22 214.694 1281.09 206.939 1272.71 200.608C1271.92 199.975 1271.76 198.867 1272.39 198.076C1273.02 197.284 1274.13 197.126 1274.92 197.759C1283.63 204.407 1290.91 212.478 1296.76 221.816C1297.24 222.607 1297.08 223.715 1296.13 224.19C1295.81 224.348 1295.5 224.506 1295.18 224.506Z" fill="#F7F3E8"/>
<path d="M1133.28 368.055C1132.64 368.055 1132.01 367.738 1131.69 367.105C1131.22 366.314 1131.54 365.206 1132.33 364.731C1159.87 349.221 1176.96 320.099 1176.96 288.446C1176.96 258.375 1161.77 230.837 1136.44 214.693C1135.65 214.218 1135.33 213.111 1135.97 212.319C1136.44 211.528 1137.55 211.211 1138.34 211.844C1164.77 228.621 1180.44 257.267 1180.44 288.604C1180.44 321.366 1162.71 351.753 1134.07 367.896C1133.91 368.054 1133.59 368.055 1133.28 368.055Z" fill="#F7F3E8"/>
<path d="M1141.03 453.993C1140.87 453.993 1140.71 453.993 1140.56 453.835C1139.61 453.519 1139.13 452.569 1139.45 451.619C1143.25 439.908 1142.46 427.563 1136.92 416.484C1131.38 405.564 1121.88 397.334 1110.33 393.535C1102.26 390.845 1093.55 390.528 1085.16 392.586C1084.53 392.744 1083.9 392.586 1083.42 391.953C1082.95 391.478 1082.95 390.686 1083.11 390.212L1083.26 389.737C1083.42 389.579 1083.42 389.262 1083.58 389.104C1083.9 388.154 1084.85 387.679 1085.8 387.996C1086.27 388.154 1086.59 388.471 1086.75 388.787C1094.98 387.205 1103.52 387.838 1111.44 390.37C1123.94 394.485 1134.23 403.348 1140.08 415.06C1145.94 426.93 1147.05 440.224 1142.77 452.886C1142.46 453.519 1141.82 453.993 1141.03 453.993Z" fill="#F7F3E8"/>
<path d="M1028.34 559.084C1014.26 559.084 1001.91 549.746 997.796 536.294C997.005 536.135 996.372 535.344 996.372 534.553C996.372 533.603 997.163 532.812 998.113 532.812H999.062C999.854 532.812 1000.64 533.286 1000.8 534.078C1003.97 546.739 1015.21 555.444 1028.34 555.444C1044.01 555.444 1056.67 542.783 1056.67 527.114C1056.67 519.201 1053.51 511.92 1047.81 506.539C1047.33 506.064 1047.18 505.59 1047.33 504.957C1047.49 504.324 1047.81 503.849 1048.44 503.69C1049.87 503.216 1051.13 502.583 1052.4 501.95C1061.89 497.201 1069.49 489.288 1073.76 479.634C1073.92 479.159 1074.24 478.842 1074.71 478.684C1075.19 478.526 1075.66 478.526 1076.14 478.684C1078.04 479.634 1079.78 480.267 1081.36 480.742C1088.8 483.274 1096.71 483.749 1104.47 482.324C1105.42 482.166 1106.37 482.799 1106.53 483.749C1106.68 484.698 1106.05 485.648 1105.1 485.806C1096.87 487.389 1088.33 486.756 1080.25 484.224C1078.99 483.749 1077.56 483.274 1076.3 482.641C1071.55 492.295 1063.79 500.209 1054.14 505.115C1053.51 505.431 1052.87 505.748 1052.24 506.064C1057.46 511.92 1060.47 519.359 1060.47 527.272C1060.15 544.84 1045.91 559.084 1028.34 559.084Z" fill="#F7F3E8"/>
<path d="M968.204 506.379C967.254 506.379 966.463 505.588 966.463 504.638C966.463 492.293 973.585 481.214 984.664 475.833C978.333 455.892 985.297 434.209 1001.91 421.548C988.145 413.318 978.491 399.707 975.167 384.038C975.009 383.089 975.642 382.139 976.592 381.981C977.541 381.822 978.491 382.456 978.649 383.405C981.973 399.074 991.944 412.368 1006.19 419.965C1006.66 420.281 1007.14 420.756 1007.14 421.389C1007.14 422.022 1006.82 422.655 1006.35 422.972C988.937 434.684 981.656 456.525 988.62 476.308C988.937 477.258 988.462 478.207 987.671 478.524C977.067 482.955 970.261 493.243 970.261 504.638C969.945 505.588 969.153 506.379 968.204 506.379Z" fill="#F7F3E8"/>
<path d="M978.33 355.869C978.172 355.869 978.014 355.869 977.856 355.711C976.906 355.394 976.431 354.445 976.748 353.495C981.496 339.251 991.308 327.539 1004.6 320.575C1000.8 310.288 998.747 299.526 998.747 288.605C998.747 268.505 1005.24 249.355 1017.42 233.528C1018.06 232.737 1019.16 232.579 1019.95 233.212C1020.75 233.845 1020.9 234.953 1020.27 235.744C1008.56 251.096 1002.39 269.455 1002.39 288.764C1002.39 299.842 1004.44 310.604 1008.56 321.05C1008.88 321.841 1008.56 322.791 1007.77 323.266C994.632 329.755 984.819 340.992 980.23 354.919C979.755 355.394 979.122 355.869 978.33 355.869Z" fill="#F7F3E8"/>
<path d="M1110.17 203.615C1110.01 203.615 1109.85 203.615 1109.7 203.615C1103.21 202.032 1096.4 201.241 1089.6 201.241C1088.65 201.241 1087.86 200.449 1087.86 199.5C1087.86 198.55 1088.65 197.759 1089.6 197.759C1096.72 197.759 1103.68 198.55 1110.49 200.133C1111.44 200.291 1112.07 201.241 1111.75 202.19C1111.6 202.982 1110.96 203.615 1110.17 203.615Z" fill="#F7F3E8"/>
<path d="M1172.05 1077.1H1161.44V812.63C1161.44 783.034 1185.5 758.977 1215.1 758.977H1310.06C1339.65 758.977 1363.71 783.034 1363.71 812.63V1077.1H1353.11V812.63C1353.11 788.89 1333.8 769.581 1310.06 769.581H1215.1C1191.36 769.581 1172.05 788.89 1172.05 812.63V1077.1V1077.1Z" fill="#1E193D"/>
<path d="M1232.19 1077.1H1221.59V812.63C1221.59 783.034 1245.64 758.977 1275.24 758.977H1370.2C1399.8 758.977 1423.85 783.034 1423.85 812.63V1077.1H1413.25V812.63C1413.25 788.89 1393.94 769.581 1370.2 769.581H1275.24C1251.5 769.581 1232.19 788.89 1232.19 812.63V1077.1Z" fill="#177D8F"/>
<path d="M1292.33 1077.1H1281.73V812.63C1281.73 783.034 1305.78 758.977 1335.38 758.977H1430.34C1459.94 758.977 1483.99 783.034 1483.99 812.63V1077.1H1473.39V812.63C1473.39 788.89 1454.08 769.581 1430.34 769.581H1335.38C1311.64 769.581 1292.33 788.89 1292.33 812.63V1077.1Z" fill="#177D8F"/>
<path d="M1735.48 1077.1H1724.88V887.807C1724.88 864.067 1705.57 844.758 1681.83 844.758H1662.04C1638.3 844.758 1619 864.067 1619 887.807V1009.2H1608.39V887.807C1608.39 858.211 1632.45 834.155 1662.04 834.155H1681.83C1711.42 834.155 1735.48 858.211 1735.48 887.807V1077.1Z" fill="#BF304A"/>
<path d="M1753.21 1054.3H1707.31V1077.1H1753.21V1054.3Z" fill="#1E193D"/>
<path d="M1719.18 1054.3H1707.31V1077.1H1719.18V1054.3Z" fill="#1E193D"/>
<path d="M1803.69 1077.1H1793.09V887.807C1793.09 864.067 1773.78 844.758 1750.04 844.758H1730.26C1706.52 844.758 1687.21 864.067 1687.21 887.807V1009.2H1676.61V887.807C1676.61 858.211 1700.66 834.155 1730.1 834.155H1749.88C1779.48 834.155 1803.54 858.211 1803.54 887.807V1077.1H1803.69Z" fill="#BF304A"/>
<path d="M1777.74 1030.41C1777.74 1046.87 1764.44 1060.16 1747.98 1060.16H1670.75C1654.29 1060.16 1641 1046.87 1641 1030.41C1641 1013.95 1654.29 1000.65 1670.75 1000.65H1747.98C1764.44 1000.65 1777.74 1013.95 1777.74 1030.41Z" fill="#E36647"/>
<path d="M1566.61 1077.1H1400.75V931.806L1543.5 887.492H1709.37L1566.61 1077.1Z" fill="#51A8B7"/>
<path d="M1709.37 887.491L1566.61 931.806V1077.1H1709.37V887.491Z" fill="#F7F3E8"/>
<path d="M1695.76 905.533L1579.91 941.618V1077.09H1695.76V905.533Z" fill="#E0D8C0"/>
<path d="M1674.86 999.228H1606.02V1077.1H1674.86V999.228Z" fill="#F2B120"/>
<path d="M1623.59 1042.28H1606.02V1059.69H1623.59V1042.28Z" fill="#1E193D"/>
<path d="M1649.22 1042.28H1631.66V1059.69H1649.22V1042.28Z" fill="#1E193D"/>
<path d="M1674.87 1042.28H1657.3V1059.69H1674.87V1042.28Z" fill="#1E193D"/>
<path d="M1566.61 931.488H1400.75V1077.09H1566.61V931.488Z" fill="#1E193D"/>
<path d="M1501.56 1069.5C1500.93 1069.5 1500.45 1069.02 1500.45 1068.39V947.791H1467.22V1068.39C1467.22 1069.02 1466.74 1069.5 1466.11 1069.5C1465.48 1069.5 1465 1069.02 1465 1068.39V945.417H1502.99V1068.39C1502.67 1069.02 1502.19 1069.5 1501.56 1069.5Z" fill="#F2B120"/>
<path d="M1449.81 1069.5C1449.17 1069.5 1448.7 1069.02 1448.7 1068.39V947.791H1415.46V1068.39C1415.46 1069.02 1414.99 1069.5 1414.35 1069.5C1413.72 1069.5 1413.25 1069.02 1413.25 1068.39V945.417H1451.23V1068.39C1450.91 1069.02 1450.44 1069.5 1449.81 1069.5Z" fill="#F2B120"/>
<path d="M1553.16 1069.5C1552.53 1069.5 1552.05 1069.03 1552.05 1068.39V947.792H1518.82V1068.39C1518.82 1069.03 1518.34 1069.5 1517.71 1069.5C1517.07 1069.5 1516.6 1069.03 1516.6 1068.39V945.418H1554.58V1068.39C1554.43 1069.03 1553.79 1069.5 1553.16 1069.5Z" fill="#F2B120"/>
<path d="M1867 1077.1H1856.4V887.807C1856.4 864.067 1837.09 844.758 1813.35 844.758H1793.56C1769.82 844.758 1750.52 864.067 1750.52 887.807V1009.2H1739.91V887.807C1739.91 858.211 1763.97 834.155 1793.56 834.155H1813.35C1842.94 834.155 1867 858.211 1867 887.807V1077.1V1077.1Z" fill="#E36647"/>
<path d="M905.368 1065.06C902.52 1065.06 900.146 1062.69 900.146 1059.84V1048.13C900.146 1030.56 914.39 1016.16 931.957 1016.16H987.351C990.2 1016.16 992.574 1018.53 992.574 1021.38C992.574 1024.23 990.2 1026.61 987.351 1026.61H931.957C920.246 1026.61 910.591 1036.26 910.591 1047.97V1059.68C910.749 1062.69 908.375 1065.06 905.368 1065.06Z" fill="#1E193D"/>
<path d="M925.31 1054.3H884.002V1077.1H925.31V1054.3Z" fill="#1E193D"/>
<path d="M1094.66 978.652C1091.81 978.652 1089.43 976.278 1089.43 973.429V890.339C1089.43 878.627 1079.78 868.972 1068.07 868.972H1027.87C1025.02 868.972 1022.64 866.599 1022.64 863.75C1022.64 860.901 1025.02 858.527 1027.87 858.527H1068.07C1085.64 858.527 1099.88 872.771 1099.88 890.339V973.429C1099.88 976.278 1097.51 978.652 1094.66 978.652Z" fill="#1E193D"/>
<path d="M1079.78 951.746H1012.2V1077.09H1079.78V951.746Z" fill="#1E193D"/>
<path d="M1045.91 951.746H978.33V1054.3H1045.91V951.746Z" fill="#51A8B7"/>
<path d="M1027.87 951.746H978.33V1054.3H1027.87V951.746Z" fill="#1E193D"/>
<path d="M1045.91 1054.3H978.33V1077.25H1045.91V1054.3Z" fill="#1E193D"/>
<path d="M978.33 951.746H1045.91L1034.2 894.77H990.042L978.33 951.746Z" fill="#AFDDDA"/>
<path d="M1034.36 623.343H990.042V896.038H1034.36V623.343Z" fill="#AFDDDA"/>
<path d="M1046.86 576.969H977.378V623.341H1046.86V576.969Z" fill="#89562C"/>
<path d="M1003.97 853.938V896.038H990.042V623.343H1034.2V822.443L1003.97 853.938Z" fill="#1E193D"/>
<path d="M1079.78 951.746L1260.2 981.975V1077.09H1079.78V951.746Z" fill="#AFDDDA"/>
<path d="M1051.61 1022.49H999.378C998.745 1022.49 998.27 1022.02 998.27 1021.39C998.27 1020.75 998.745 1020.28 999.378 1020.28H1051.61C1052.24 1020.28 1052.71 1020.75 1052.71 1021.39C1052.71 1022.02 1052.24 1022.49 1051.61 1022.49Z" fill="#1E193D"/>
<path d="M1051.61 988.465H999.378C998.745 988.465 998.27 987.99 998.27 987.357C998.27 986.724 998.745 986.249 999.378 986.249H1051.61C1052.24 986.249 1052.71 986.724 1052.71 987.357C1052.71 987.99 1052.24 988.465 1051.61 988.465Z" fill="#1E193D"/>
<path d="M1029.29 883.374H994.949C994.316 883.374 993.841 882.9 993.841 882.266C993.841 881.633 994.316 881.158 994.949 881.158H1029.45C1030.08 881.158 1030.56 881.633 1030.56 882.266C1030.56 882.9 1029.93 883.374 1029.29 883.374Z" fill="#51A8B7"/>
<path d="M1029.29 823.705H994.949C994.316 823.705 993.841 823.23 993.841 822.597C993.841 821.964 994.316 821.489 994.949 821.489H1029.45C1030.08 821.489 1030.56 821.964 1030.56 822.597C1030.56 823.072 1029.93 823.705 1029.29 823.705Z" fill="#51A8B7"/>
<path d="M1029.29 763.881H994.949C994.316 763.881 993.841 763.406 993.841 762.773C993.841 762.14 994.316 761.665 994.949 761.665H1029.45C1030.08 761.665 1030.56 762.14 1030.56 762.773C1030.56 763.406 1029.93 763.881 1029.29 763.881Z" fill="#51A8B7"/>
<path d="M1029.29 704.214H994.949C994.316 704.214 993.841 703.739 993.841 703.106C993.841 702.473 994.316 701.998 994.949 701.998H1029.45C1030.08 701.998 1030.56 702.473 1030.56 703.106C1030.56 703.581 1029.93 704.214 1029.29 704.214Z" fill="#51A8B7"/>
<path d="M1029.29 644.389H994.949C994.316 644.389 993.841 643.914 993.841 643.281C993.841 642.648 994.316 642.173 994.949 642.173H1029.45C1030.08 642.173 1030.56 642.648 1030.56 643.281C1030.56 643.914 1029.93 644.389 1029.29 644.389Z" fill="#51A8B7"/>
<path d="M1016.95 1065.06C1014.1 1065.06 1011.72 1062.69 1011.72 1059.84V1048.13C1011.72 1030.56 1025.97 1016.16 1043.69 1016.16H1099.09C1101.94 1016.16 1104.31 1018.53 1104.31 1021.38C1104.31 1024.23 1101.94 1026.6 1099.09 1026.6H1043.69C1031.98 1026.6 1022.33 1036.26 1022.33 1047.97V1059.68C1022.17 1062.69 1019.79 1065.06 1016.95 1065.06Z" fill="#177D8F"/>
<path d="M1036.89 1054.3H995.58V1077.09H1036.89V1054.3Z" fill="#E0D8C0"/>
<path d="M1006.18 1054.3H995.58V1077.09H1006.18V1054.3Z" fill="#939597"/>
<path d="M1206.23 978.65C1203.38 978.65 1201.01 976.276 1201.01 973.427V890.337C1201.01 878.625 1191.35 868.971 1179.64 868.971H1139.44C1136.59 868.971 1134.22 866.597 1134.22 863.748C1134.22 860.899 1136.59 858.525 1139.44 858.525H1179.64C1197.21 858.525 1211.45 872.769 1211.45 890.337V973.427C1211.45 976.276 1209.08 978.65 1206.23 978.65Z" fill="#51A8B7"/>
<path d="M1191.19 951.746H1123.61V1077.09H1191.19V951.746Z" fill="#1E193D"/>
<path d="M1157.48 951.745H1089.9V1054.3H1157.48V951.745Z" fill="#AFDDDA"/>
<path d="M1139.44 951.745H1089.9V1054.3H1139.44V951.745Z" fill="#51A8B7"/>
<path d="M1157.48 1054.3H1089.9V1077.25H1157.48V1054.3Z" fill="#1E193D"/>
<path d="M1089.75 951.745H1157.49L1145.78 894.769H1101.46L1089.75 951.745Z" fill="#F7F3E8"/>
<path d="M1145.77 623.343H1101.46V896.038H1145.77V623.343Z" fill="#AFDDDA"/>
<path d="M1158.28 576.967H1088.8V623.34H1158.28V576.967Z" fill="#89562C"/>
<path d="M1115.54 652.148V896.038H1101.46V623.343H1144.66L1115.54 652.148Z" fill="#51A8B7"/>
<path d="M1191.35 951.746L1371.62 981.975V1077.09H1191.35V951.746Z" fill="#F7F3E8"/>
<path d="M1211.3 1071.4C1210.35 1071.4 1209.56 1070.61 1209.56 1069.66V967.733C1209.56 966.783 1210.35 965.992 1211.3 965.992C1212.25 965.992 1213.04 966.783 1213.04 967.733V1069.66C1213.04 1070.61 1212.25 1071.4 1211.3 1071.4Z" fill="#E0D8C0"/>
<path d="M1231.4 1071.4C1230.45 1071.4 1229.66 1070.61 1229.66 1069.66V971.057C1229.66 970.107 1230.45 969.316 1231.4 969.316C1232.35 969.316 1233.14 970.107 1233.14 971.057V1069.66C1233.14 1070.61 1232.35 1071.4 1231.4 1071.4Z" fill="#E0D8C0"/>
<path d="M1251.34 1071.4C1250.39 1071.4 1249.6 1070.61 1249.6 1069.66V974.379C1249.6 973.43 1250.39 972.638 1251.34 972.638C1252.29 972.638 1253.08 973.43 1253.08 974.379V1069.66C1253.08 1070.61 1252.29 1071.4 1251.34 1071.4Z" fill="#E0D8C0"/>
<path d="M1271.44 1071.4C1270.49 1071.4 1269.7 1070.61 1269.7 1069.66V977.704C1269.7 976.755 1270.49 975.963 1271.44 975.963C1272.39 975.963 1273.18 976.755 1273.18 977.704V1069.66C1273.18 1070.61 1272.39 1071.4 1271.44 1071.4Z" fill="#E0D8C0"/>
<path d="M1291.54 1071.4C1290.59 1071.4 1289.8 1070.6 1289.8 1069.65V981.025C1289.8 980.075 1290.59 979.284 1291.54 979.284C1292.49 979.284 1293.28 980.075 1293.28 981.025V1069.65C1293.28 1070.6 1292.49 1071.4 1291.54 1071.4Z" fill="#E0D8C0"/>
<path d="M1311.48 1071.4C1310.53 1071.4 1309.74 1070.61 1309.74 1069.66V984.351C1309.74 983.401 1310.53 982.61 1311.48 982.61C1312.43 982.61 1313.22 983.401 1313.22 984.351V1069.66C1313.22 1070.61 1312.43 1071.4 1311.48 1071.4Z" fill="#E0D8C0"/>
<path d="M1331.58 1071.4C1330.63 1071.4 1329.84 1070.61 1329.84 1069.66V987.833C1329.84 986.883 1330.63 986.092 1331.58 986.092C1332.53 986.092 1333.32 986.883 1333.32 987.833V1069.66C1333.32 1070.61 1332.53 1071.4 1331.58 1071.4Z" fill="#E0D8C0"/>
<path d="M1351.68 1071.4C1350.73 1071.4 1349.94 1070.61 1349.94 1069.66V991.156C1349.94 990.207 1350.73 989.416 1351.68 989.416C1352.63 989.416 1353.42 990.207 1353.42 991.156V1069.66C1353.42 1070.61 1352.63 1071.4 1351.68 1071.4Z" fill="#E0D8C0"/>
<path d="M1163.02 1022.49H1110.8C1110.16 1022.49 1109.69 1022.02 1109.69 1021.39C1109.69 1020.75 1110.16 1020.28 1110.8 1020.28H1163.02C1163.66 1020.28 1164.13 1020.75 1164.13 1021.39C1164.29 1022.02 1163.81 1022.49 1163.02 1022.49Z" fill="#1E193D"/>
<path d="M1163.02 988.464H1110.79C1110.16 988.464 1109.69 987.989 1109.69 987.356C1109.69 986.723 1110.16 986.248 1110.79 986.248H1163.02C1163.65 986.248 1164.13 986.723 1164.13 987.356C1164.29 987.989 1163.81 988.464 1163.02 988.464Z" fill="#1E193D"/>
<path d="M1140.86 883.377H1106.36C1105.73 883.377 1105.25 882.902 1105.25 882.269C1105.25 881.636 1105.73 881.161 1106.36 881.161H1140.86C1141.5 881.161 1141.97 881.636 1141.97 882.269C1141.97 882.902 1141.5 883.377 1140.86 883.377Z" fill="#1E193D"/>
<path d="M1140.86 823.706H1106.36C1105.73 823.706 1105.25 823.231 1105.25 822.598C1105.25 821.965 1105.73 821.49 1106.36 821.49H1140.86C1141.5 821.49 1141.97 821.965 1141.97 822.598C1141.97 823.073 1141.5 823.706 1140.86 823.706Z" fill="#1E193D"/>
<path d="M1140.86 763.882H1106.36C1105.73 763.882 1105.25 763.407 1105.25 762.774C1105.25 762.141 1105.73 761.666 1106.36 761.666H1140.86C1141.5 761.666 1141.97 762.141 1141.97 762.774C1141.97 763.407 1141.5 763.882 1140.86 763.882Z" fill="#1E193D"/>
<path d="M1140.86 704.217H1106.36C1105.73 704.217 1105.25 703.742 1105.25 703.109C1105.25 702.476 1105.73 702.001 1106.36 702.001H1140.86C1141.5 702.001 1141.97 702.476 1141.97 703.109C1141.97 703.584 1141.5 704.217 1140.86 704.217Z" fill="#1E193D"/>
<path d="M1140.86 644.392H1106.36C1105.73 644.392 1105.25 643.917 1105.25 643.284C1105.25 642.651 1105.73 642.176 1106.36 642.176H1140.86C1141.5 642.176 1141.97 642.651 1141.97 643.284C1141.97 643.917 1141.5 644.392 1140.86 644.392Z" fill="#1E193D"/>
<path d="M1128.36 1065.06C1125.51 1065.06 1123.14 1062.69 1123.14 1059.84V1048.13C1123.14 1030.56 1137.38 1016.16 1154.95 1016.16H1210.35C1213.19 1016.16 1215.57 1018.53 1215.57 1021.38C1215.57 1024.23 1213.19 1026.6 1210.35 1026.6H1154.95C1143.24 1026.6 1133.59 1036.26 1133.59 1047.97V1059.68C1133.59 1062.69 1131.21 1065.06 1128.36 1065.06Z" fill="#177D8F"/>
<path d="M1150.52 1054.3H1104.63V1077.09H1150.52V1054.3Z" fill="#E0D8C0"/>
<path d="M1116.5 1054.3H1104.63V1077.09H1116.5V1054.3Z" fill="#939597"/>
<path d="M1317.5 978.65C1314.65 978.65 1312.27 976.276 1312.27 973.427V890.337C1312.27 878.625 1302.62 868.971 1290.91 868.971H1250.71C1247.86 868.971 1245.49 866.597 1245.49 863.748C1245.49 860.899 1247.86 858.525 1250.71 858.525H1290.91C1308.48 858.525 1322.88 872.769 1322.88 890.337V973.427C1322.88 976.276 1320.5 978.65 1317.5 978.65Z" fill="#51A8B7"/>
<path d="M1302.62 951.745H1235.04V1077.09H1302.62V951.745Z" fill="#1E193D"/>
<path d="M1268.75 951.745H1201.17V1054.3H1268.75V951.745Z" fill="#AFDDDA"/>
<path d="M1248.33 951.745H1201.17V1054.3H1248.33V951.745Z" fill="#51A8B7"/>
<path d="M1268.75 1054.3H1201.17V1077.25H1268.75V1054.3Z" fill="#1E193D"/>
<path d="M1201.17 951.744H1268.91L1257.2 894.768H1212.88L1201.17 951.744Z" fill="#F7F3E8"/>
<path d="M1257.19 623.343H1212.88V896.037H1257.19V623.343Z" fill="#AFDDDA"/>
<path d="M1269.7 576.967H1200.22V623.34H1269.7V576.967Z" fill="#89562C"/>
<path d="M1226.97 652.147V896.037H1212.88V623.343H1256.09L1226.97 652.147Z" fill="#51A8B7"/>
<path d="M1302.62 951.745L1483.04 981.974V1077.09H1302.62V951.745Z" fill="#F7F3E8"/>
<path d="M1322.72 1071.4C1321.77 1071.4 1320.98 1070.61 1320.98 1069.66V967.732C1320.98 966.782 1321.77 965.991 1322.72 965.991C1323.67 965.991 1324.46 966.782 1324.46 967.732V1069.66C1324.46 1070.61 1323.67 1071.4 1322.72 1071.4Z" fill="#E0D8C0"/>
<path d="M1342.82 1071.4C1341.87 1071.4 1341.08 1070.61 1341.08 1069.66V971.056C1341.08 970.106 1341.87 969.315 1342.82 969.315C1343.77 969.315 1344.56 970.106 1344.56 971.056V1069.66C1344.56 1070.61 1343.77 1071.4 1342.82 1071.4Z" fill="#E0D8C0"/>
<path d="M1362.76 1071.4C1361.81 1071.4 1361.02 1070.61 1361.02 1069.66V974.379C1361.02 973.429 1361.81 972.638 1362.76 972.638C1363.71 972.638 1364.5 973.429 1364.5 974.379V1069.66C1364.5 1070.61 1363.71 1071.4 1362.76 1071.4Z" fill="#E0D8C0"/>
<path d="M1382.86 1071.4C1381.91 1071.4 1381.12 1070.61 1381.12 1069.66V977.704C1381.12 976.755 1381.91 975.963 1382.86 975.963C1383.81 975.963 1384.6 976.755 1384.6 977.704V1069.66C1384.6 1070.61 1383.81 1071.4 1382.86 1071.4Z" fill="#E0D8C0"/>
<path d="M1402.8 1071.4C1401.85 1071.4 1401.06 1070.6 1401.06 1069.65V981.025C1401.06 980.075 1401.85 979.284 1402.8 979.284C1403.75 979.284 1404.54 980.075 1404.54 981.025V1069.65C1404.7 1070.6 1403.91 1071.4 1402.8 1071.4Z" fill="#E0D8C0"/>
<path d="M1422.9 1071.4C1421.95 1071.4 1421.16 1070.61 1421.16 1069.66V984.35C1421.16 983.401 1421.95 982.609 1422.9 982.609C1423.85 982.609 1424.64 983.401 1424.64 984.35V1069.66C1424.64 1070.61 1423.85 1071.4 1422.9 1071.4Z" fill="#E0D8C0"/>
<path d="M1443 1071.4C1442.05 1071.4 1441.26 1070.61 1441.26 1069.66V987.832C1441.26 986.882 1442.05 986.091 1443 986.091C1443.95 986.091 1444.74 986.882 1444.74 987.832V1069.66C1444.74 1070.61 1443.95 1071.4 1443 1071.4Z" fill="#E0D8C0"/>
<path d="M1462.94 1071.4C1462 1071.4 1461.2 1070.61 1461.2 1069.66V991.156C1461.2 990.206 1462 989.415 1462.94 989.415C1463.89 989.415 1464.69 990.206 1464.69 991.156V1069.66C1464.69 1070.61 1463.89 1071.4 1462.94 1071.4Z" fill="#E0D8C0"/>
<path d="M1274.45 1022.49H1222.06C1221.43 1022.49 1220.95 1022.02 1220.95 1021.39C1220.95 1020.75 1221.43 1020.28 1222.06 1020.28H1274.45C1275.08 1020.28 1275.55 1020.75 1275.55 1021.39C1275.71 1022.02 1275.08 1022.49 1274.45 1022.49Z" fill="#1E193D"/>
<path d="M1274.44 988.464H1222.06C1221.42 988.464 1220.95 987.989 1220.95 987.356C1220.95 986.723 1221.42 986.248 1222.06 986.248H1274.44C1275.08 986.248 1275.55 986.723 1275.55 987.356C1275.71 987.989 1275.08 988.464 1274.44 988.464Z" fill="#1E193D"/>
<path d="M1252.29 883.376H1217.78C1217.15 883.376 1216.68 882.901 1216.68 882.268C1216.68 881.635 1217.15 881.16 1217.78 881.16H1252.29C1252.92 881.16 1253.39 881.635 1253.39 882.268C1253.39 882.901 1252.92 883.376 1252.29 883.376Z" fill="#1E193D"/>
<path d="M1252.29 823.705H1217.78C1217.15 823.705 1216.67 823.23 1216.67 822.597C1216.67 821.964 1217.15 821.489 1217.78 821.489H1252.29C1252.92 821.489 1253.39 821.964 1253.39 822.597C1253.39 823.072 1252.92 823.705 1252.29 823.705Z" fill="#1E193D"/>
<path d="M1252.29 763.881H1217.78C1217.15 763.881 1216.67 763.406 1216.67 762.773C1216.67 762.14 1217.15 761.665 1217.78 761.665H1252.29C1252.92 761.665 1253.39 762.14 1253.39 762.773C1253.39 763.406 1252.92 763.881 1252.29 763.881Z" fill="#1E193D"/>
<path d="M1252.29 704.216H1217.78C1217.15 704.216 1216.68 703.741 1216.68 703.108C1216.68 702.475 1217.15 702 1217.78 702H1252.29C1252.92 702 1253.39 702.475 1253.39 703.108C1253.39 703.583 1252.92 704.216 1252.29 704.216Z" fill="#1E193D"/>
<path d="M1252.29 644.391H1217.78C1217.15 644.391 1216.68 643.916 1216.68 643.283C1216.68 642.65 1217.15 642.175 1217.78 642.175H1252.29C1252.92 642.175 1253.39 642.65 1253.39 643.283C1253.39 643.916 1252.92 644.391 1252.29 644.391Z" fill="#1E193D"/>
<path d="M1884.73 1054.3H1838.83V1077.1H1884.73V1054.3Z" fill="#E0D8C0"/>
<path d="M1850.7 1054.3H1838.83V1077.1H1850.7V1054.3Z" fill="#939597"/>
<path d="M1821.42 1054.3H1775.52V1077.1H1821.42V1054.3Z" fill="#E0D8C0"/>
<path d="M1787.39 1054.3H1775.52V1077.1H1787.39V1054.3Z" fill="#939597"/>
<path d="M1918.28 1078.36H793.473C792.84 1078.36 792.365 1077.89 792.365 1077.25C792.365 1076.62 792.84 1076.15 793.473 1076.15H1918.28C1918.91 1076.15 1919.39 1076.62 1919.39 1077.25C1919.55 1077.73 1919.07 1078.36 1918.28 1078.36Z" fill="#1E193D"/>
<path d="M1753.05 997.487H1737.54C1736.9 997.487 1736.43 997.012 1736.43 996.379C1736.43 995.746 1736.9 995.271 1737.54 995.271H1753.05C1753.68 995.271 1754.16 995.746 1754.16 996.379C1754.16 997.012 1753.68 997.487 1753.05 997.487Z" fill="#1E193D"/>
<path d="M1753.05 983.4H1737.54C1736.9 983.4 1736.43 982.925 1736.43 982.292C1736.43 981.659 1736.9 981.184 1737.54 981.184H1753.05C1753.68 981.184 1754.16 981.659 1754.16 982.292C1754.16 982.925 1753.68 983.4 1753.05 983.4Z" fill="#1E193D"/>
</g>
</g>
<defs>
<clipPath id="clip0">
<rect width="1920" height="1080" fill="white"/>
</clipPath>
<clipPath id="clip1">
<rect width="1127.18" height="924.915" fill="white" transform="translate(792.367 165)"/>
</clipPath>
</defs>
</svg>
