<svg width="1920" height="1080" viewBox="0 0 1920 1080" fill="none" xmlns="http://www.w3.org/2000/svg">
<g clip-path="url(#clip0)">
<path d="M1137.85 618.3L1091.96 618C1089.04 618 1086.64 620.314 1086.64 623.227L1086 715.479C1086 718.393 1088.31 720.793 1091.23 720.793L1151.77 721.221C1154.69 721.221 1157.09 718.907 1157.09 715.994L1157.6 640.538L1137.97 618.814L1137.85 618.3Z" fill="#CF4E31"/>
<path d="M1157.66 723.731C1165.74 715.649 1165.74 702.545 1157.66 694.463C1149.58 686.381 1136.47 686.381 1128.39 694.463C1120.31 702.545 1120.31 715.649 1128.39 723.731C1136.47 731.813 1149.58 731.813 1157.66 723.731Z" fill="white"/>
<path d="M1157.64 640.495L1137.98 618.814L1137.85 618.3H1137.55L1137.38 640.324L1157.64 640.495Z" fill="#7A2B1A"/>
<path d="M1136.39 731.462C1136.18 731.419 1135.96 731.376 1135.66 731.376C1135.1 731.376 1134.5 731.462 1133.82 731.59C1133.09 731.719 1132.36 731.805 1131.63 731.805C1130.78 731.805 1130.09 731.633 1129.49 731.29C1128.46 730.691 1127.91 729.662 1127.48 728.591L1119.76 748.301L1129.23 745.216L1134.12 753.914L1141.62 734.718C1140.37 734.461 1139.35 733.604 1138.4 732.79C1137.72 732.233 1136.99 731.633 1136.39 731.462Z" fill="#F7CE14"/>
<path d="M1155.33 731.419C1154.73 731.762 1154 731.933 1153.19 731.933C1152.46 731.933 1151.73 731.805 1151 731.676C1150.36 731.548 1149.72 731.462 1149.16 731.462C1148.86 731.462 1148.64 731.505 1148.43 731.548C1147.83 731.719 1147.1 732.319 1146.37 732.876C1145.43 733.647 1144.4 734.461 1143.16 734.718L1150.4 754L1155.41 745.388L1164.84 748.601L1157.43 728.805C1156.96 729.834 1156.36 730.862 1155.33 731.419Z" fill="#F7CE14"/>
<path d="M1167.07 710.081C1167.11 710.038 1167.11 709.952 1167.15 709.909C1167.2 709.738 1167.24 709.524 1167.28 709.352C1167.28 709.266 1167.28 709.224 1167.28 709.138C1167.28 708.238 1166.77 707.381 1166.13 706.567C1166.04 706.438 1165.95 706.353 1165.87 706.224C1165.83 706.181 1165.78 706.096 1165.74 706.053C1165.65 705.924 1165.57 705.839 1165.44 705.71C1165.35 705.582 1165.27 705.496 1165.18 705.367C1165.14 705.324 1165.1 705.239 1165.05 705.196C1164.97 705.067 1164.88 704.982 1164.8 704.853C1164.71 704.725 1164.63 704.639 1164.58 704.51C1164.41 704.21 1164.24 703.91 1164.16 703.611C1164.16 703.568 1164.11 703.482 1164.11 703.439C1164.07 703.268 1164.03 703.053 1164.03 702.839C1163.98 702.496 1164.03 702.154 1164.03 701.811C1164.03 701.725 1164.03 701.682 1164.07 701.597C1164.11 701.297 1164.16 700.997 1164.2 700.697C1164.24 700.568 1164.24 700.44 1164.28 700.268C1164.28 700.226 1164.28 700.226 1164.28 700.183C1164.5 698.94 1164.67 697.697 1164.16 696.798C1163.77 696.112 1163.08 695.684 1162.27 695.341C1162.14 695.298 1162.01 695.212 1161.88 695.169C1161.63 695.041 1161.33 694.955 1161.07 694.827C1160.94 694.784 1160.77 694.698 1160.64 694.655C1160.56 694.612 1160.51 694.612 1160.43 694.57C1160.3 694.527 1160.17 694.441 1160.04 694.398C1159.83 694.312 1159.66 694.227 1159.48 694.098C1159.36 694.013 1159.23 693.97 1159.14 693.884C1158.93 693.755 1158.71 693.584 1158.54 693.413C1158.41 693.284 1158.28 693.113 1158.16 692.941C1158.07 692.813 1158.03 692.727 1157.94 692.599C1157.86 692.47 1157.81 692.341 1157.73 692.213C1157.64 692.042 1157.56 691.827 1157.47 691.613C1157.43 691.484 1157.34 691.356 1157.3 691.185C1157.26 691.056 1157.21 690.885 1157.13 690.756C1157.09 690.67 1157.09 690.628 1157.04 690.542C1157 690.413 1156.96 690.285 1156.91 690.199C1156.87 690.113 1156.83 690.028 1156.83 689.942C1156.7 689.599 1156.53 689.256 1156.4 688.956C1156.31 688.828 1156.27 688.699 1156.19 688.614C1156.1 688.485 1156.01 688.399 1155.97 688.271C1155.8 688.057 1155.63 687.885 1155.41 687.757C1155.37 687.714 1155.33 687.671 1155.24 687.671C1155.2 687.628 1155.11 687.628 1155.07 687.585C1155.07 687.585 1155.03 687.585 1155.03 687.542C1154.99 687.542 1154.94 687.5 1154.9 687.5C1154.86 687.5 1154.86 687.5 1154.81 687.457C1154.77 687.457 1154.73 687.414 1154.73 687.414C1154.69 687.414 1154.69 687.414 1154.64 687.371C1154.6 687.371 1154.56 687.371 1154.56 687.328C1154.51 687.328 1154.51 687.328 1154.47 687.328C1154.43 687.328 1154.39 687.328 1154.39 687.328C1154.34 687.328 1154.34 687.328 1154.3 687.328C1154.26 687.328 1154.21 687.328 1154.21 687.328C1154.17 687.328 1154.17 687.328 1154.13 687.328C1154.09 687.328 1154.04 687.328 1154 687.328C1153.96 687.328 1153.91 687.328 1153.91 687.328C1153.87 687.328 1153.83 687.328 1153.79 687.328C1153.74 687.328 1153.74 687.328 1153.7 687.328C1153.66 687.328 1153.61 687.328 1153.57 687.328C1153.53 687.328 1153.53 687.328 1153.49 687.328C1153.44 687.328 1153.4 687.328 1153.36 687.328C1153.31 687.328 1153.31 687.328 1153.27 687.328C1153.23 687.328 1153.14 687.328 1153.1 687.328H1153.06C1152.97 687.328 1152.89 687.328 1152.8 687.371C1152.8 687.371 1152.8 687.371 1152.76 687.371C1152.67 687.371 1152.63 687.371 1152.54 687.414C1152.5 687.414 1152.5 687.414 1152.46 687.414C1152.41 687.414 1152.33 687.414 1152.29 687.457C1152.24 687.457 1152.24 687.457 1152.2 687.457C1152.16 687.457 1152.07 687.457 1152.03 687.5C1151.99 687.5 1151.99 687.5 1151.94 687.5C1151.86 687.5 1151.77 687.542 1151.73 687.542C1151.69 687.542 1151.64 687.542 1151.6 687.542C1151.56 687.542 1151.51 687.542 1151.47 687.585C1151.39 687.585 1151.34 687.585 1151.26 687.628H1151.21C1151.13 687.628 1151.04 687.671 1150.96 687.671C1150.92 687.671 1150.92 687.671 1150.87 687.671C1150.83 687.671 1150.74 687.671 1150.7 687.671C1150.66 687.671 1150.66 687.671 1150.62 687.671C1150.57 687.671 1150.53 687.671 1150.49 687.671C1150.44 687.671 1150.44 687.671 1150.4 687.671C1150.36 687.671 1150.32 687.671 1150.27 687.671C1150.23 687.671 1150.23 687.671 1150.19 687.671C1150.14 687.671 1150.1 687.671 1150.06 687.671C1150.02 687.671 1150.02 687.671 1149.97 687.671C1149.93 687.671 1149.84 687.671 1149.8 687.671H1149.76C1149.67 687.671 1149.59 687.671 1149.5 687.671H1149.46C1149.42 687.671 1149.33 687.671 1149.29 687.671C1149.24 687.671 1149.24 687.671 1149.2 687.671C1149.16 687.671 1149.07 687.671 1149.03 687.628C1148.99 687.628 1148.99 687.628 1148.94 687.628C1148.86 687.628 1148.82 687.585 1148.73 687.585C1148.43 687.5 1148.13 687.371 1147.83 687.2C1147.7 687.114 1147.62 687.071 1147.49 686.985C1147.32 686.857 1147.14 686.728 1146.97 686.6C1146.93 686.557 1146.84 686.514 1146.8 686.471C1146.59 686.3 1146.33 686.086 1146.12 685.914C1145.94 685.786 1145.77 685.614 1145.6 685.486C1144.79 684.843 1143.93 684.329 1143.03 684.286C1141.19 684.286 1139.65 686.386 1137.97 687.243C1137.85 687.285 1137.72 687.371 1137.63 687.414C1137.5 687.457 1137.38 687.5 1137.29 687.542C1137.2 687.542 1137.16 687.585 1137.08 687.585C1137.03 687.585 1137.03 687.585 1136.99 687.585C1136.95 687.585 1136.9 687.585 1136.82 687.628C1136.78 687.628 1136.78 687.628 1136.73 687.628C1136.69 687.628 1136.6 687.628 1136.56 687.628C1136.52 687.628 1136.52 687.628 1136.48 687.628C1136.39 687.628 1136.3 687.628 1136.22 687.628H1136.18C1136.13 687.628 1136.05 687.628 1136 687.628C1135.96 687.628 1135.96 687.628 1135.92 687.628C1135.88 687.628 1135.83 687.628 1135.79 687.628C1135.75 687.628 1135.75 687.628 1135.7 687.628C1135.66 687.628 1135.62 687.628 1135.58 687.628C1135.53 687.628 1135.53 687.628 1135.49 687.628C1135.45 687.628 1135.4 687.628 1135.36 687.628C1135.32 687.628 1135.32 687.628 1135.28 687.628C1135.23 687.628 1135.15 687.628 1135.1 687.585C1135.06 687.585 1135.06 687.585 1135.02 687.585C1134.93 687.585 1134.85 687.542 1134.76 687.542C1134.76 687.542 1134.76 687.542 1134.72 687.542C1134.63 687.542 1134.59 687.5 1134.5 687.5C1134.46 687.5 1134.42 687.5 1134.42 687.5C1134.38 687.5 1134.29 687.5 1134.25 687.457C1134.2 687.457 1134.12 687.457 1134.08 687.414C1134.03 687.414 1133.99 687.414 1133.99 687.414C1133.95 687.414 1133.9 687.414 1133.86 687.371C1133.82 687.371 1133.78 687.371 1133.78 687.371C1133.73 687.371 1133.69 687.371 1133.6 687.328C1133.56 687.328 1133.56 687.328 1133.52 687.328C1133.48 687.328 1133.39 687.328 1133.35 687.285H1133.3C1133.22 687.285 1133.13 687.285 1133.09 687.243H1133.05C1133 687.243 1132.92 687.243 1132.88 687.243C1132.83 687.243 1132.83 687.243 1132.79 687.243C1132.75 687.243 1132.7 687.243 1132.66 687.243C1132.62 687.243 1132.62 687.243 1132.58 687.243C1132.53 687.243 1132.49 687.243 1132.45 687.243C1132.4 687.243 1132.4 687.243 1132.36 687.243C1132.32 687.243 1132.28 687.243 1132.23 687.243C1132.19 687.243 1132.19 687.243 1132.15 687.243C1132.1 687.243 1132.06 687.243 1132.02 687.243C1131.98 687.243 1131.98 687.243 1131.93 687.243C1131.89 687.243 1131.85 687.243 1131.8 687.243C1131.76 687.243 1131.76 687.243 1131.72 687.243C1131.68 687.243 1131.63 687.243 1131.59 687.243C1131.55 687.243 1131.55 687.243 1131.5 687.243C1131.46 687.243 1131.42 687.243 1131.38 687.285C1131.33 687.285 1131.33 687.285 1131.29 687.285C1131.25 687.285 1131.2 687.328 1131.16 687.328C1131.12 687.328 1131.12 687.328 1131.08 687.371C1131.03 687.371 1130.99 687.414 1130.95 687.414C1130.95 687.414 1130.9 687.414 1130.9 687.457C1130.86 687.5 1130.78 687.5 1130.73 687.542C1130.61 687.585 1130.52 687.671 1130.43 687.757C1130.31 687.885 1130.13 688.014 1130.01 688.185C1129.79 688.442 1129.62 688.742 1129.45 689.042C1129.41 689.085 1129.36 689.171 1129.36 689.214C1129.32 689.342 1129.23 689.471 1129.19 689.599C1129.02 689.985 1128.85 690.413 1128.68 690.842C1128.59 691.056 1128.51 691.27 1128.42 691.442C1128.38 691.527 1128.38 691.57 1128.33 691.656C1128.29 691.784 1128.25 691.87 1128.16 691.999C1128.08 692.127 1128.03 692.299 1127.95 692.427C1127.91 692.513 1127.82 692.599 1127.78 692.684C1127.73 692.77 1127.69 692.856 1127.61 692.898C1127.52 692.984 1127.43 693.113 1127.35 693.198C1127.22 693.327 1127.05 693.456 1126.88 693.584C1126.75 693.67 1126.66 693.713 1126.53 693.798C1126.49 693.841 1126.41 693.884 1126.36 693.884C1126.19 693.97 1125.98 694.055 1125.76 694.141C1125.68 694.184 1125.63 694.184 1125.55 694.227C1125.42 694.27 1125.29 694.355 1125.12 694.398C1124.65 694.57 1124.13 694.741 1123.66 694.955C1123.54 694.998 1123.41 695.084 1123.28 695.127C1122.55 695.469 1121.95 695.855 1121.61 696.498C1121.52 696.669 1121.44 696.841 1121.39 697.012C1121.35 697.14 1121.35 697.226 1121.31 697.355C1121.31 697.44 1121.26 697.526 1121.26 697.569C1121.26 697.697 1121.22 697.826 1121.22 697.955C1121.22 698.083 1121.22 698.212 1121.22 698.383C1121.22 698.469 1121.22 698.512 1121.22 698.597C1121.22 698.897 1121.26 699.154 1121.31 699.454C1121.31 699.583 1121.35 699.754 1121.39 699.883C1121.44 700.011 1121.44 700.183 1121.48 700.311C1121.52 700.44 1121.52 700.611 1121.52 700.74C1121.56 700.954 1121.56 701.168 1121.61 701.382C1121.61 701.597 1121.65 701.811 1121.65 702.025C1121.65 702.368 1121.61 702.711 1121.52 703.011C1121.48 703.139 1121.44 703.268 1121.39 703.353C1121.35 703.482 1121.31 703.611 1121.22 703.696C1121.18 703.739 1121.14 703.825 1121.14 703.868C1121.05 703.996 1121.01 704.082 1120.92 704.21C1120.84 704.339 1120.75 704.425 1120.66 704.553C1119.68 705.881 1118.22 707.167 1118.22 708.667C1118.22 710.509 1120.32 712.052 1121.18 713.723C1121.22 713.766 1121.22 713.851 1121.26 713.894C1121.35 714.065 1121.39 714.237 1121.48 714.451C1121.52 714.58 1121.52 714.708 1121.56 714.837C1121.56 714.965 1121.61 715.094 1121.61 715.222C1121.61 715.437 1121.61 715.651 1121.61 715.865C1121.61 716.079 1121.56 716.294 1121.52 716.508C1121.52 716.636 1121.48 716.808 1121.44 716.936C1121.39 717.236 1121.35 717.536 1121.31 717.836C1121.22 718.265 1121.18 718.736 1121.14 719.122C1121.14 719.25 1121.14 719.421 1121.14 719.55C1121.14 720.107 1121.22 720.621 1121.48 721.05C1122.21 722.292 1124.01 722.764 1125.55 723.406C1125.59 723.449 1125.68 723.449 1125.72 723.492C1125.93 723.578 1126.15 723.706 1126.32 723.792C1126.36 723.835 1126.45 723.878 1126.49 723.878C1126.58 723.921 1126.66 723.963 1126.75 724.049C1126.92 724.178 1127.05 724.306 1127.18 724.435C1127.35 724.606 1127.48 724.777 1127.61 724.992C1127.65 725.035 1127.65 725.077 1127.69 725.12C1127.82 725.292 1127.91 725.506 1127.99 725.72C1128.03 725.806 1128.08 725.892 1128.12 725.977C1128.25 726.234 1128.33 726.534 1128.46 726.791V726.834C1128.63 727.22 1128.76 727.648 1128.93 728.034C1128.98 728.12 1128.98 728.162 1129.02 728.248C1129.36 729.062 1129.79 729.748 1130.48 730.133C1130.95 730.391 1131.46 730.519 1132.06 730.519C1133.35 730.519 1134.8 730.091 1136.09 730.091C1136.43 730.091 1136.78 730.133 1137.12 730.219C1137.42 730.305 1137.72 730.433 1138.02 730.605C1138.32 730.776 1138.62 730.99 1138.87 731.205C1138.92 731.248 1139 731.29 1139.05 731.333C1139.26 731.505 1139.52 731.719 1139.73 731.89C1139.9 732.019 1140.07 732.19 1140.25 732.319C1140.97 732.876 1141.66 733.347 1142.47 733.476C1142.6 733.476 1142.73 733.518 1142.82 733.518C1142.95 733.518 1143.07 733.518 1143.16 733.476C1144.83 733.219 1146.29 731.376 1147.83 730.562C1147.87 730.519 1147.96 730.519 1148 730.476C1148.17 730.391 1148.34 730.348 1148.56 730.262C1148.86 730.176 1149.2 730.133 1149.59 730.133C1150.87 730.133 1152.33 730.605 1153.61 730.605C1154.17 730.605 1154.73 730.519 1155.2 730.262C1156.7 729.405 1157.04 727.048 1157.94 725.42C1157.98 725.377 1157.98 725.334 1158.03 725.292C1158.07 725.206 1158.16 725.12 1158.2 725.035C1158.33 724.863 1158.46 724.735 1158.58 724.606C1158.71 724.478 1158.88 724.349 1159.06 724.22C1159.18 724.135 1159.27 724.092 1159.4 724.006C1159.44 723.963 1159.53 723.921 1159.57 723.921C1160.08 723.663 1160.64 723.449 1161.2 723.235C1161.5 723.149 1161.76 723.021 1162.06 722.935C1162.4 722.806 1162.74 722.635 1163.04 722.507C1163.6 722.207 1164.07 721.864 1164.37 721.35C1164.54 721.007 1164.67 720.664 1164.71 720.278C1164.71 720.15 1164.75 720.021 1164.75 719.893C1164.75 719.679 1164.75 719.464 1164.75 719.25C1164.75 719.122 1164.71 718.95 1164.71 718.822C1164.71 718.693 1164.67 718.522 1164.67 718.393C1164.67 718.265 1164.63 718.093 1164.58 717.965C1164.5 717.536 1164.46 717.065 1164.41 716.636C1164.41 716.551 1164.41 716.508 1164.41 716.422C1164.41 716.208 1164.37 715.994 1164.37 715.779C1164.37 715.694 1164.37 715.651 1164.37 715.565C1164.37 715.437 1164.37 715.308 1164.41 715.179C1164.41 715.094 1164.41 715.051 1164.46 714.965C1164.5 714.88 1164.5 714.837 1164.5 714.794C1164.58 714.451 1164.75 714.065 1165.01 713.723C1165.14 713.508 1165.31 713.251 1165.53 713.037C1165.57 712.994 1165.61 712.909 1165.65 712.866C1165.78 712.694 1165.95 712.523 1166.08 712.352C1166.13 711.666 1166.77 710.895 1167.07 710.081ZM1142.43 728.291C1131.76 728.205 1123.15 719.507 1123.24 708.838C1123.32 698.169 1132.02 689.556 1142.69 689.642C1153.36 689.728 1161.97 698.426 1161.88 709.095C1161.8 719.764 1153.1 728.334 1142.43 728.291Z" fill="#F7CE14"/>
<path d="M1142.69 691.313C1132.96 691.227 1124.99 699.111 1124.91 708.838C1124.82 718.564 1132.7 726.534 1142.43 726.62C1152.16 726.706 1160.13 718.821 1160.21 709.095C1160.3 699.326 1152.41 691.399 1142.69 691.313ZM1140.5 718.993L1131.76 709.866L1134.89 706.867L1140.76 712.994L1152.5 702.582L1155.37 705.839L1140.5 718.993Z" fill="#F7CE14"/>
<path d="M1116.12 648.251L1102.15 674.731C1101.55 675.888 1102.63 677.173 1103.87 676.83L1113.98 673.959C1115.05 673.659 1116.04 674.559 1115.82 675.63L1112.31 694.526C1112.01 696.198 1114.32 696.969 1115.09 695.426L1131.03 662.947C1131.59 661.791 1130.52 660.505 1129.28 660.891L1118.82 664.061C1117.79 664.361 1116.77 663.504 1116.94 662.433L1118.95 649.022C1119.12 647.479 1116.89 646.751 1116.12 648.251Z" fill="#F7CE14"/>
<path d="M1105.41 638.096C1105.41 638.181 1105.41 638.224 1105.37 638.267C1105.32 638.31 1105.28 638.353 1105.15 638.396C1105.07 638.438 1104.9 638.438 1104.68 638.481C1104.47 638.481 1104.21 638.481 1103.87 638.481C1103.57 638.481 1103.35 638.481 1103.18 638.438C1103.01 638.438 1102.88 638.396 1102.75 638.353C1102.67 638.31 1102.58 638.267 1102.54 638.224C1102.5 638.181 1102.45 638.096 1102.45 638.01L1101.3 635.011C1101.17 634.668 1101 634.368 1100.87 634.111C1100.74 633.854 1100.57 633.64 1100.4 633.468C1100.22 633.297 1100.05 633.168 1099.8 633.082C1099.58 632.997 1099.32 632.954 1099.03 632.954H1098.17L1098.13 638.053C1098.13 638.139 1098.08 638.181 1098.04 638.224C1098 638.267 1097.91 638.31 1097.83 638.353C1097.74 638.396 1097.57 638.396 1097.4 638.438C1097.23 638.438 1097.01 638.481 1096.75 638.481C1096.5 638.481 1096.28 638.481 1096.11 638.438C1095.94 638.396 1095.81 638.396 1095.68 638.353C1095.6 638.31 1095.51 638.267 1095.47 638.224C1095.43 638.181 1095.43 638.096 1095.43 638.053L1095.51 625.927C1095.51 625.627 1095.6 625.413 1095.77 625.284C1095.94 625.156 1096.11 625.07 1096.33 625.07L1099.8 625.113C1100.14 625.113 1100.44 625.113 1100.65 625.156C1100.87 625.156 1101.08 625.198 1101.25 625.198C1101.81 625.284 1102.28 625.413 1102.71 625.584C1103.14 625.755 1103.48 626.013 1103.78 626.312C1104.08 626.612 1104.3 626.955 1104.47 627.384C1104.64 627.812 1104.68 628.283 1104.68 628.798C1104.68 629.226 1104.64 629.655 1104.51 630.04C1104.38 630.426 1104.21 630.726 1104 631.026C1103.78 631.326 1103.48 631.583 1103.18 631.754C1102.84 631.968 1102.5 632.14 1102.07 632.268C1102.28 632.354 1102.45 632.483 1102.62 632.611C1102.8 632.74 1102.97 632.911 1103.1 633.125C1103.27 633.34 1103.4 633.554 1103.52 633.811C1103.65 634.068 1103.78 634.368 1103.91 634.668L1105.02 637.324C1105.11 637.582 1105.2 637.796 1105.24 637.881C1105.41 637.924 1105.41 638.053 1105.41 638.096ZM1101.98 629.012C1101.98 628.583 1101.9 628.198 1101.68 627.898C1101.47 627.598 1101.17 627.384 1100.7 627.255C1100.57 627.212 1100.4 627.212 1100.22 627.169C1100.05 627.127 1099.8 627.127 1099.5 627.127H1098.3L1098.25 630.897H1099.62C1100.01 630.897 1100.35 630.854 1100.65 630.769C1100.95 630.683 1101.17 630.554 1101.38 630.383C1101.6 630.212 1101.72 629.997 1101.81 629.783C1101.94 629.569 1101.98 629.312 1101.98 629.012Z" fill="white"/>
<path d="M1115.35 637.453C1115.35 637.667 1115.35 637.838 1115.31 637.967C1115.26 638.095 1115.26 638.224 1115.22 638.31C1115.18 638.395 1115.13 638.438 1115.09 638.481C1115.05 638.524 1114.96 638.524 1114.92 638.524L1108.19 638.481C1107.98 638.481 1107.77 638.395 1107.64 638.267C1107.51 638.138 1107.42 637.924 1107.42 637.624L1107.51 625.969C1107.51 625.669 1107.59 625.455 1107.77 625.327C1107.94 625.198 1108.11 625.112 1108.32 625.112L1115.01 625.155C1115.05 625.155 1115.13 625.155 1115.18 625.198C1115.22 625.241 1115.26 625.284 1115.31 625.369C1115.35 625.455 1115.35 625.584 1115.39 625.712C1115.39 625.841 1115.43 626.012 1115.43 626.226C1115.43 626.441 1115.43 626.569 1115.39 626.698C1115.39 626.826 1115.35 626.955 1115.31 627.04C1115.26 627.126 1115.22 627.169 1115.18 627.212C1115.13 627.255 1115.09 627.255 1115.01 627.255L1110.25 627.212L1110.21 630.468L1114.24 630.511C1114.28 630.511 1114.36 630.511 1114.41 630.554C1114.45 630.597 1114.49 630.64 1114.54 630.725C1114.58 630.811 1114.58 630.897 1114.62 631.025C1114.62 631.154 1114.66 631.325 1114.66 631.497C1114.66 631.711 1114.66 631.882 1114.62 632.011C1114.62 632.139 1114.58 632.225 1114.54 632.311C1114.49 632.396 1114.45 632.439 1114.41 632.482C1114.36 632.525 1114.28 632.525 1114.24 632.525L1110.16 632.568L1110.12 636.339L1114.92 636.381C1114.96 636.381 1115.05 636.381 1115.09 636.424C1115.13 636.467 1115.18 636.51 1115.22 636.596C1115.26 636.681 1115.26 636.767 1115.31 636.938C1115.35 637.11 1115.35 637.281 1115.35 637.453Z" fill="white"/>
<path d="M1126.7 636.596C1126.7 636.767 1126.7 636.896 1126.7 637.024C1126.7 637.153 1126.66 637.238 1126.66 637.324C1126.66 637.41 1126.62 637.496 1126.58 637.538C1126.53 637.581 1126.49 637.667 1126.4 637.753C1126.32 637.838 1126.19 637.924 1125.98 638.053C1125.76 638.181 1125.5 638.31 1125.16 638.395C1124.86 638.524 1124.48 638.61 1124.09 638.652C1123.7 638.695 1123.23 638.781 1122.76 638.738C1121.86 638.738 1121.01 638.567 1120.28 638.31C1119.55 638.01 1118.91 637.581 1118.39 637.024C1117.88 636.467 1117.49 635.739 1117.23 634.925C1116.98 634.068 1116.85 633.082 1116.85 631.968C1116.85 630.811 1117.02 629.826 1117.32 628.926C1117.62 628.026 1118.05 627.298 1118.61 626.698C1119.16 626.098 1119.81 625.669 1120.58 625.327C1121.35 625.027 1122.16 624.855 1123.1 624.898C1123.49 624.898 1123.83 624.941 1124.18 624.984C1124.52 625.07 1124.82 625.112 1125.12 625.241C1125.42 625.327 1125.68 625.455 1125.89 625.584C1126.1 625.712 1126.28 625.841 1126.36 625.927C1126.45 626.012 1126.53 626.098 1126.53 626.141C1126.58 626.184 1126.58 626.269 1126.62 626.398C1126.66 626.526 1126.66 626.612 1126.66 626.741C1126.66 626.869 1126.66 627.041 1126.66 627.212C1126.66 627.426 1126.66 627.598 1126.62 627.726C1126.62 627.855 1126.58 627.983 1126.53 628.069C1126.49 628.155 1126.45 628.24 1126.4 628.283C1126.36 628.326 1126.32 628.326 1126.23 628.326C1126.15 628.326 1126.02 628.283 1125.85 628.155C1125.68 628.026 1125.5 627.898 1125.25 627.726C1124.99 627.598 1124.69 627.426 1124.35 627.298C1124 627.169 1123.58 627.126 1123.1 627.126C1122.59 627.126 1122.12 627.212 1121.69 627.426C1121.26 627.64 1120.92 627.94 1120.62 628.369C1120.32 628.755 1120.11 629.269 1119.93 629.826C1119.76 630.383 1119.72 631.025 1119.68 631.754C1119.68 632.525 1119.76 633.211 1119.89 633.811C1120.06 634.368 1120.28 634.882 1120.58 635.225C1120.88 635.61 1121.22 635.867 1121.65 636.082C1122.08 636.253 1122.55 636.381 1123.06 636.381C1123.53 636.381 1123.96 636.339 1124.3 636.21C1124.65 636.082 1124.95 635.996 1125.2 635.824C1125.46 635.696 1125.68 635.567 1125.85 635.439C1126.02 635.31 1126.15 635.267 1126.23 635.267C1126.32 635.267 1126.36 635.267 1126.4 635.31C1126.45 635.353 1126.49 635.396 1126.49 635.482C1126.49 635.567 1126.53 635.696 1126.53 635.824C1126.7 636.124 1126.7 636.339 1126.7 636.596Z" fill="white"/>
</g>
<defs>
<clipPath id="clip0">
<rect width="1920" height="1080" fill="white"/>
</clipPath>
</defs>
</svg>
