<svg width="375" height="667" viewBox="0 0 375 667" fill="none" xmlns="http://www.w3.org/2000/svg">
<g clip-path="url(#clip0)">
<path d="M273.498 510.107L257.125 510C256.085 510 255.229 510.826 255.229 511.865L255 544.778C255 545.818 255.826 546.674 256.865 546.674L278.466 546.827C279.506 546.827 280.362 546.001 280.362 544.962L280.545 518.041L273.544 510.29L273.498 510.107Z" fill="#CF4E31"/>
<path d="M280.566 547.723C283.449 544.839 283.449 540.164 280.566 537.28C277.682 534.397 273.007 534.397 270.124 537.28C267.24 540.164 267.24 544.839 270.124 547.723C273.007 550.606 277.682 550.606 280.566 547.723Z" fill="white"/>
<path d="M280.561 518.026L273.544 510.29L273.498 510.107H273.391L273.33 517.965L280.561 518.026Z" fill="#7A2B1A"/>
<path d="M272.978 550.481C272.902 550.465 272.825 550.45 272.718 550.45C272.519 550.45 272.306 550.481 272.061 550.526C271.801 550.572 271.541 550.603 271.281 550.603C270.975 550.603 270.731 550.542 270.517 550.419C270.15 550.206 269.951 549.839 269.798 549.456L267.047 556.489L270.425 555.388L272.168 558.491L274.843 551.642C274.4 551.551 274.033 551.245 273.697 550.955C273.452 550.756 273.192 550.542 272.978 550.481Z" fill="#F7CE14"/>
<path d="M279.735 550.465C279.521 550.588 279.261 550.649 278.97 550.649C278.711 550.649 278.451 550.603 278.191 550.557C277.961 550.511 277.732 550.481 277.534 550.481C277.427 550.481 277.35 550.496 277.274 550.511C277.059 550.572 276.8 550.787 276.54 550.985C276.204 551.26 275.836 551.551 275.393 551.642L277.977 558.522L279.765 555.449L283.129 556.596L280.484 549.533C280.316 549.9 280.102 550.267 279.735 550.465Z" fill="#F7CE14"/>
<path d="M283.924 542.852C283.939 542.837 283.939 542.806 283.954 542.791C283.969 542.73 283.985 542.654 284 542.592C284 542.562 284 542.547 284 542.516C284 542.195 283.817 541.889 283.587 541.599C283.557 541.553 283.526 541.522 283.496 541.476C283.48 541.461 283.465 541.431 283.45 541.415C283.419 541.369 283.388 541.339 283.343 541.293C283.312 541.247 283.281 541.217 283.251 541.171C283.236 541.155 283.22 541.125 283.205 541.11C283.174 541.064 283.144 541.033 283.113 540.987C283.083 540.942 283.052 540.911 283.037 540.865C282.976 540.758 282.915 540.651 282.884 540.544C282.884 540.529 282.869 540.498 282.869 540.483C282.853 540.422 282.838 540.345 282.838 540.269C282.823 540.146 282.838 540.024 282.838 539.902C282.838 539.871 282.838 539.856 282.853 539.826C282.869 539.719 282.884 539.612 282.899 539.505C282.915 539.458 282.915 539.413 282.93 539.351C282.93 539.336 282.93 539.336 282.93 539.321C283.006 538.878 283.067 538.434 282.884 538.113C282.747 537.869 282.502 537.716 282.211 537.594C282.165 537.578 282.12 537.548 282.074 537.532C281.982 537.487 281.875 537.456 281.783 537.41C281.738 537.395 281.676 537.364 281.631 537.349C281.6 537.334 281.585 537.334 281.554 537.319C281.508 537.303 281.462 537.272 281.417 537.257C281.34 537.226 281.279 537.196 281.218 537.15C281.172 537.12 281.126 537.104 281.095 537.074C281.019 537.028 280.942 536.967 280.881 536.906C280.836 536.86 280.79 536.799 280.744 536.737C280.713 536.692 280.698 536.661 280.667 536.615C280.637 536.569 280.622 536.523 280.591 536.478C280.56 536.417 280.53 536.34 280.499 536.264C280.484 536.217 280.453 536.172 280.438 536.111C280.423 536.065 280.408 536.004 280.377 535.958C280.362 535.927 280.362 535.912 280.346 535.881C280.331 535.835 280.316 535.79 280.301 535.759C280.285 535.728 280.27 535.698 280.27 535.667C280.224 535.545 280.163 535.423 280.117 535.316C280.086 535.27 280.071 535.224 280.04 535.194C280.01 535.148 279.979 535.117 279.964 535.071C279.903 534.995 279.842 534.933 279.765 534.888C279.75 534.872 279.735 534.857 279.704 534.857C279.689 534.842 279.658 534.842 279.643 534.826C279.643 534.826 279.628 534.826 279.628 534.811C279.613 534.811 279.597 534.796 279.582 534.796C279.567 534.796 279.567 534.796 279.551 534.781C279.536 534.781 279.521 534.765 279.521 534.765C279.506 534.765 279.506 534.765 279.49 534.75C279.475 534.75 279.46 534.75 279.46 534.735C279.444 534.735 279.444 534.735 279.429 534.735C279.414 534.735 279.399 534.735 279.399 534.735C279.383 534.735 279.383 534.735 279.368 534.735C279.353 534.735 279.337 534.735 279.337 534.735C279.322 534.735 279.322 534.735 279.307 534.735C279.292 534.735 279.276 534.735 279.261 534.735C279.246 534.735 279.23 534.735 279.23 534.735C279.215 534.735 279.2 534.735 279.185 534.735C279.169 534.735 279.169 534.735 279.154 534.735C279.139 534.735 279.124 534.735 279.108 534.735C279.093 534.735 279.093 534.735 279.078 534.735C279.062 534.735 279.047 534.735 279.031 534.735C279.017 534.735 279.017 534.735 279.001 534.735C278.986 534.735 278.955 534.735 278.94 534.735H278.924C278.894 534.735 278.863 534.735 278.833 534.75C278.833 534.75 278.833 534.75 278.818 534.75C278.787 534.75 278.772 534.75 278.741 534.765C278.726 534.765 278.726 534.765 278.711 534.765C278.695 534.765 278.665 534.765 278.649 534.781C278.634 534.781 278.634 534.781 278.619 534.781C278.604 534.781 278.573 534.781 278.558 534.796C278.542 534.796 278.542 534.796 278.527 534.796C278.497 534.796 278.466 534.811 278.451 534.811C278.435 534.811 278.42 534.811 278.405 534.811C278.39 534.811 278.374 534.811 278.359 534.826C278.328 534.826 278.313 534.826 278.283 534.842H278.267C278.237 534.842 278.206 534.857 278.176 534.857C278.16 534.857 278.16 534.857 278.145 534.857C278.13 534.857 278.099 534.857 278.084 534.857C278.069 534.857 278.069 534.857 278.053 534.857C278.038 534.857 278.023 534.857 278.008 534.857C277.992 534.857 277.992 534.857 277.977 534.857C277.962 534.857 277.946 534.857 277.931 534.857C277.916 534.857 277.916 534.857 277.901 534.857C277.885 534.857 277.87 534.857 277.854 534.857C277.839 534.857 277.839 534.857 277.824 534.857C277.809 534.857 277.778 534.857 277.763 534.857H277.747C277.717 534.857 277.686 534.857 277.656 534.857H277.64C277.625 534.857 277.595 534.857 277.579 534.857C277.564 534.857 277.564 534.857 277.549 534.857C277.533 534.857 277.503 534.857 277.488 534.842C277.472 534.842 277.472 534.842 277.457 534.842C277.426 534.842 277.411 534.826 277.381 534.826C277.274 534.796 277.167 534.75 277.06 534.689C277.014 534.658 276.983 534.643 276.937 534.612C276.876 534.567 276.815 534.521 276.754 534.475C276.738 534.46 276.708 534.444 276.693 534.429C276.616 534.368 276.524 534.292 276.448 534.23C276.387 534.185 276.326 534.123 276.265 534.078C275.974 533.848 275.669 533.665 275.347 533.649C274.69 533.649 274.14 534.399 273.544 534.704C273.498 534.719 273.452 534.75 273.421 534.765C273.375 534.781 273.329 534.796 273.299 534.811C273.268 534.811 273.253 534.826 273.222 534.826C273.207 534.826 273.207 534.826 273.192 534.826C273.177 534.826 273.161 534.826 273.131 534.842C273.115 534.842 273.115 534.842 273.1 534.842C273.085 534.842 273.054 534.842 273.039 534.842C273.024 534.842 273.024 534.842 273.008 534.842C272.978 534.842 272.947 534.842 272.917 534.842H272.901C272.886 534.842 272.856 534.842 272.84 534.842C272.825 534.842 272.825 534.842 272.81 534.842C272.794 534.842 272.779 534.842 272.764 534.842C272.749 534.842 272.749 534.842 272.733 534.842C272.718 534.842 272.703 534.842 272.687 534.842C272.672 534.842 272.672 534.842 272.657 534.842C272.642 534.842 272.626 534.842 272.611 534.842C272.596 534.842 272.596 534.842 272.581 534.842C272.565 534.842 272.535 534.842 272.519 534.826C272.504 534.826 272.504 534.826 272.489 534.826C272.458 534.826 272.428 534.811 272.397 534.811C272.397 534.811 272.397 534.811 272.382 534.811C272.351 534.811 272.336 534.796 272.305 534.796C272.29 534.796 272.275 534.796 272.275 534.796C272.259 534.796 272.229 534.796 272.213 534.781C272.198 534.781 272.168 534.781 272.152 534.765C272.137 534.765 272.122 534.765 272.122 534.765C272.106 534.765 272.091 534.765 272.076 534.75C272.061 534.75 272.045 534.75 272.045 534.75C272.03 534.75 272.015 534.75 271.984 534.735C271.969 534.735 271.969 534.735 271.954 534.735C271.938 534.735 271.908 534.735 271.892 534.719H271.877C271.847 534.719 271.816 534.719 271.801 534.704H271.785C271.77 534.704 271.74 534.704 271.724 534.704C271.709 534.704 271.709 534.704 271.694 534.704C271.678 534.704 271.663 534.704 271.648 534.704C271.633 534.704 271.633 534.704 271.617 534.704C271.602 534.704 271.587 534.704 271.572 534.704C271.556 534.704 271.556 534.704 271.541 534.704C271.526 534.704 271.51 534.704 271.495 534.704C271.48 534.704 271.48 534.704 271.465 534.704C271.449 534.704 271.434 534.704 271.419 534.704C271.403 534.704 271.403 534.704 271.388 534.704C271.373 534.704 271.358 534.704 271.342 534.704C271.327 534.704 271.327 534.704 271.312 534.704C271.296 534.704 271.281 534.704 271.266 534.704C271.251 534.704 271.251 534.704 271.235 534.704C271.22 534.704 271.205 534.704 271.189 534.719C271.174 534.719 271.174 534.719 271.159 534.719C271.143 534.719 271.128 534.735 271.113 534.735C271.097 534.735 271.097 534.735 271.082 534.75C271.067 534.75 271.052 534.765 271.036 534.765C271.036 534.765 271.021 534.765 271.021 534.781C271.006 534.796 270.975 534.796 270.96 534.811C270.914 534.826 270.883 534.857 270.853 534.888C270.807 534.933 270.746 534.979 270.7 535.04C270.624 535.132 270.563 535.239 270.501 535.346C270.486 535.362 270.471 535.392 270.471 535.408C270.456 535.453 270.425 535.499 270.41 535.545C270.349 535.683 270.287 535.835 270.226 535.988C270.196 536.065 270.165 536.141 270.135 536.203C270.119 536.233 270.119 536.248 270.104 536.279C270.089 536.325 270.073 536.355 270.043 536.401C270.012 536.447 269.997 536.508 269.966 536.554C269.951 536.585 269.92 536.615 269.905 536.646C269.89 536.676 269.874 536.707 269.844 536.722C269.813 536.753 269.783 536.799 269.752 536.829C269.706 536.875 269.645 536.921 269.584 536.967C269.538 536.997 269.508 537.013 269.462 537.043C269.447 537.058 269.416 537.074 269.401 537.074C269.34 537.104 269.263 537.135 269.187 537.165C269.156 537.181 269.141 537.181 269.11 537.196C269.064 537.211 269.019 537.242 268.958 537.257C268.789 537.319 268.606 537.38 268.438 537.456C268.392 537.471 268.346 537.502 268.3 537.517C268.04 537.639 267.826 537.777 267.704 538.006C267.673 538.067 267.643 538.129 267.627 538.19C267.612 538.235 267.612 538.266 267.597 538.312C267.597 538.342 267.581 538.373 267.581 538.388C267.581 538.434 267.566 538.48 267.566 538.526C267.566 538.572 267.566 538.618 267.566 538.679C267.566 538.71 267.566 538.725 267.566 538.755C267.566 538.862 267.581 538.954 267.597 539.061C267.597 539.107 267.612 539.168 267.627 539.214C267.643 539.26 267.643 539.321 267.658 539.367C267.673 539.413 267.673 539.474 267.673 539.52C267.688 539.596 267.688 539.673 267.704 539.749C267.704 539.826 267.719 539.902 267.719 539.978C267.719 540.101 267.704 540.223 267.673 540.33C267.658 540.376 267.643 540.422 267.627 540.452C267.612 540.498 267.597 540.544 267.566 540.574C267.551 540.59 267.536 540.62 267.536 540.636C267.505 540.682 267.49 540.712 267.459 540.758C267.429 540.804 267.398 540.835 267.367 540.88C267.016 541.354 266.496 541.813 266.496 542.348C266.496 543.005 267.245 543.556 267.551 544.152C267.566 544.167 267.566 544.198 267.581 544.213C267.612 544.274 267.627 544.335 267.658 544.412C267.673 544.458 267.673 544.503 267.688 544.549C267.688 544.595 267.704 544.641 267.704 544.687C267.704 544.763 267.704 544.84 267.704 544.916C267.704 544.992 267.688 545.069 267.673 545.146C267.673 545.191 267.658 545.253 267.643 545.298C267.627 545.405 267.612 545.512 267.597 545.619C267.566 545.772 267.551 545.94 267.536 546.078C267.536 546.124 267.536 546.185 267.536 546.231C267.536 546.43 267.566 546.613 267.658 546.766C267.918 547.209 268.56 547.378 269.11 547.607C269.126 547.622 269.156 547.622 269.171 547.637C269.248 547.668 269.324 547.714 269.385 547.744C269.401 547.76 269.431 547.775 269.447 547.775C269.477 547.79 269.508 547.805 269.538 547.836C269.599 547.882 269.645 547.928 269.691 547.974C269.752 548.035 269.798 548.096 269.844 548.172C269.859 548.188 269.859 548.203 269.874 548.218C269.92 548.279 269.951 548.356 269.981 548.432C269.997 548.463 270.012 548.494 270.027 548.524C270.073 548.616 270.104 548.723 270.15 548.814V548.83C270.211 548.967 270.257 549.12 270.318 549.258C270.333 549.288 270.333 549.303 270.349 549.334C270.471 549.625 270.624 549.869 270.868 550.007C271.036 550.099 271.22 550.144 271.434 550.144C271.892 550.144 272.412 549.992 272.871 549.992C272.993 549.992 273.115 550.007 273.238 550.037C273.345 550.068 273.452 550.114 273.559 550.175C273.666 550.236 273.773 550.312 273.865 550.389C273.88 550.404 273.91 550.419 273.926 550.435C274.002 550.496 274.094 550.572 274.17 550.633C274.231 550.68 274.293 550.74 274.354 550.787C274.614 550.985 274.858 551.153 275.149 551.199C275.195 551.199 275.24 551.214 275.271 551.214C275.317 551.214 275.363 551.214 275.393 551.199C275.99 551.108 276.509 550.45 277.06 550.16C277.075 550.144 277.106 550.144 277.121 550.129C277.182 550.099 277.243 550.083 277.319 550.053C277.426 550.022 277.549 550.007 277.686 550.007C278.145 550.007 278.665 550.175 279.124 550.175C279.322 550.175 279.521 550.144 279.689 550.053C280.224 549.747 280.346 548.906 280.667 548.325C280.683 548.31 280.683 548.294 280.698 548.279C280.713 548.249 280.744 548.218 280.759 548.188C280.805 548.126 280.851 548.081 280.897 548.035C280.942 547.989 281.004 547.943 281.065 547.897C281.111 547.867 281.141 547.851 281.187 547.821C281.202 547.805 281.233 547.79 281.248 547.79C281.432 547.698 281.631 547.622 281.829 547.546C281.936 547.515 282.028 547.469 282.135 547.439C282.257 547.393 282.38 547.332 282.487 547.286C282.685 547.179 282.853 547.056 282.96 546.873C283.022 546.751 283.067 546.628 283.083 546.491C283.083 546.445 283.098 546.399 283.098 546.353C283.098 546.277 283.098 546.2 283.098 546.124C283.098 546.078 283.083 546.017 283.083 545.971C283.083 545.925 283.067 545.864 283.067 545.818C283.067 545.772 283.052 545.711 283.037 545.665C283.006 545.512 282.991 545.344 282.976 545.191C282.976 545.161 282.976 545.146 282.976 545.115C282.976 545.038 282.96 544.962 282.96 544.885C282.96 544.855 282.96 544.84 282.96 544.809C282.96 544.763 282.96 544.717 282.976 544.671C282.976 544.641 282.976 544.626 282.991 544.595C283.006 544.565 283.006 544.549 283.006 544.534C283.037 544.412 283.098 544.274 283.19 544.152C283.236 544.075 283.297 543.983 283.373 543.907C283.388 543.892 283.404 543.861 283.419 543.846C283.465 543.785 283.526 543.724 283.572 543.663C283.587 543.418 283.817 543.143 283.924 542.852ZM275.133 549.349C271.327 549.319 268.254 546.215 268.285 542.409C268.315 538.603 271.419 535.53 275.225 535.56C279.031 535.591 282.104 538.694 282.074 542.501C282.043 546.307 278.94 549.365 275.133 549.349Z" fill="#F7CE14"/>
<path d="M275.225 536.156C271.755 536.126 268.912 538.939 268.881 542.409C268.851 545.879 271.663 548.723 275.133 548.753C278.604 548.784 281.447 545.971 281.478 542.501C281.508 539.015 278.695 536.187 275.225 536.156ZM274.446 546.032L271.327 542.776L272.443 541.706L274.537 543.892L278.726 540.177L279.75 541.339L274.446 546.032Z" fill="#F7CE14"/>
<path d="M265.747 520.793L260.763 530.24C260.549 530.653 260.932 531.112 261.375 530.989L264.983 529.965C265.365 529.858 265.716 530.179 265.64 530.561L264.386 537.303C264.279 537.899 265.105 538.174 265.38 537.624L271.067 526.036C271.266 525.624 270.884 525.165 270.44 525.303L266.71 526.434C266.343 526.541 265.977 526.235 266.038 525.853L266.756 521.068C266.817 520.517 266.022 520.258 265.747 520.793Z" fill="#F7CE14"/>
<path d="M261.925 517.17C261.925 517.2 261.925 517.215 261.909 517.231C261.894 517.246 261.879 517.261 261.833 517.277C261.802 517.292 261.741 517.292 261.665 517.307C261.589 517.307 261.497 517.307 261.375 517.307C261.268 517.307 261.191 517.307 261.13 517.292C261.069 517.292 261.023 517.277 260.977 517.261C260.946 517.246 260.916 517.231 260.9 517.215C260.885 517.2 260.87 517.17 260.87 517.139L260.457 516.069C260.411 515.947 260.35 515.84 260.304 515.748C260.259 515.656 260.197 515.58 260.136 515.519C260.075 515.458 260.014 515.412 259.922 515.381C259.846 515.351 259.754 515.335 259.647 515.335H259.341L259.326 517.154C259.326 517.185 259.311 517.2 259.295 517.215C259.28 517.231 259.25 517.246 259.219 517.261C259.188 517.277 259.127 517.277 259.066 517.292C259.005 517.292 258.929 517.307 258.837 517.307C258.745 517.307 258.669 517.307 258.607 517.292C258.546 517.277 258.5 517.277 258.455 517.261C258.424 517.246 258.393 517.231 258.378 517.215C258.363 517.2 258.363 517.17 258.363 517.154L258.393 512.828C258.393 512.721 258.424 512.645 258.485 512.599C258.546 512.553 258.607 512.522 258.684 512.522L259.922 512.538C260.045 512.538 260.152 512.538 260.228 512.553C260.304 512.553 260.381 512.568 260.442 512.568C260.641 512.599 260.809 512.645 260.962 512.706C261.115 512.767 261.237 512.859 261.344 512.966C261.451 513.073 261.527 513.195 261.589 513.348C261.65 513.501 261.665 513.669 261.665 513.852C261.665 514.005 261.65 514.158 261.604 514.296C261.558 514.433 261.497 514.54 261.42 514.647C261.344 514.754 261.237 514.846 261.13 514.907C261.007 514.983 260.885 515.045 260.732 515.09C260.809 515.121 260.87 515.167 260.931 515.213C260.992 515.259 261.054 515.32 261.099 515.396C261.161 515.473 261.206 515.549 261.252 515.641C261.298 515.733 261.344 515.84 261.39 515.947L261.787 516.894C261.818 516.986 261.848 517.063 261.864 517.093C261.925 517.108 261.925 517.154 261.925 517.17ZM260.702 513.929C260.702 513.776 260.671 513.638 260.595 513.531C260.518 513.424 260.411 513.348 260.243 513.302C260.197 513.287 260.136 513.287 260.075 513.271C260.014 513.256 259.922 513.256 259.815 513.256H259.387L259.372 514.601H259.861C259.999 514.601 260.121 514.586 260.228 514.556C260.335 514.525 260.411 514.479 260.488 514.418C260.564 514.357 260.61 514.28 260.641 514.204C260.687 514.128 260.702 514.036 260.702 513.929Z" fill="white"/>
<path d="M265.471 516.94C265.471 517.017 265.471 517.078 265.456 517.124C265.44 517.169 265.44 517.215 265.425 517.246C265.41 517.276 265.395 517.292 265.379 517.307C265.364 517.323 265.334 517.323 265.318 517.323L262.918 517.307C262.842 517.307 262.765 517.277 262.719 517.231C262.674 517.185 262.643 517.108 262.643 517.001L262.674 512.843C262.674 512.736 262.704 512.66 262.765 512.614C262.826 512.568 262.888 512.537 262.964 512.537L265.349 512.553C265.364 512.553 265.395 512.553 265.41 512.568C265.425 512.583 265.44 512.599 265.456 512.629C265.471 512.66 265.471 512.706 265.486 512.751C265.486 512.797 265.502 512.859 265.502 512.935C265.502 513.012 265.502 513.057 265.486 513.103C265.486 513.149 265.471 513.195 265.456 513.225C265.44 513.256 265.425 513.271 265.41 513.287C265.395 513.302 265.379 513.302 265.349 513.302L263.652 513.287L263.636 514.448L265.074 514.464C265.089 514.464 265.12 514.464 265.135 514.479C265.15 514.494 265.165 514.51 265.181 514.54C265.196 514.571 265.196 514.601 265.211 514.647C265.211 514.693 265.227 514.754 265.227 514.815C265.227 514.892 265.227 514.953 265.211 514.999C265.211 515.044 265.196 515.075 265.181 515.106C265.165 515.136 265.15 515.152 265.135 515.167C265.12 515.182 265.089 515.182 265.074 515.182L263.621 515.198L263.606 516.543L265.318 516.558C265.334 516.558 265.364 516.558 265.379 516.573C265.395 516.589 265.41 516.604 265.425 516.635C265.44 516.665 265.44 516.696 265.456 516.757C265.471 516.818 265.471 516.879 265.471 516.94Z" fill="white"/>
<path d="M269.522 516.635C269.522 516.696 269.522 516.742 269.522 516.787C269.522 516.833 269.507 516.864 269.507 516.894C269.507 516.925 269.492 516.956 269.477 516.971C269.461 516.986 269.446 517.017 269.415 517.047C269.385 517.078 269.339 517.108 269.263 517.154C269.186 517.2 269.094 517.246 268.972 517.277C268.865 517.323 268.727 517.353 268.59 517.368C268.452 517.384 268.284 517.414 268.116 517.399C267.795 517.399 267.489 517.338 267.229 517.246C266.969 517.139 266.74 516.986 266.557 516.787C266.373 516.589 266.236 516.329 266.144 516.038C266.052 515.733 266.006 515.381 266.006 514.983C266.006 514.571 266.067 514.219 266.174 513.898C266.281 513.577 266.434 513.317 266.633 513.103C266.832 512.889 267.061 512.736 267.336 512.614C267.611 512.507 267.902 512.446 268.238 512.461C268.376 512.461 268.498 512.476 268.62 512.492C268.743 512.522 268.85 512.537 268.957 512.583C269.064 512.614 269.156 512.66 269.232 512.706C269.308 512.751 269.37 512.798 269.4 512.828C269.431 512.859 269.461 512.889 269.461 512.905C269.477 512.92 269.477 512.95 269.492 512.996C269.507 513.042 269.507 513.073 269.507 513.119C269.507 513.164 269.507 513.226 269.507 513.287C269.507 513.363 269.507 513.424 269.492 513.47C269.492 513.516 269.477 513.562 269.461 513.592C269.446 513.623 269.431 513.653 269.415 513.669C269.4 513.684 269.385 513.684 269.354 513.684C269.324 513.684 269.278 513.669 269.217 513.623C269.156 513.577 269.094 513.531 269.003 513.47C268.911 513.424 268.804 513.363 268.681 513.317C268.559 513.271 268.406 513.256 268.238 513.256C268.055 513.256 267.887 513.287 267.734 513.363C267.581 513.439 267.459 513.546 267.352 513.699C267.245 513.837 267.168 514.021 267.107 514.219C267.046 514.418 267.031 514.647 267.015 514.907C267.015 515.182 267.046 515.427 267.092 515.641C267.153 515.84 267.229 516.023 267.336 516.146C267.443 516.283 267.566 516.375 267.719 516.451C267.872 516.512 268.04 516.558 268.223 516.558C268.391 516.558 268.544 516.543 268.666 516.497C268.789 516.451 268.896 516.421 268.987 516.359C269.079 516.314 269.156 516.268 269.217 516.222C269.278 516.176 269.324 516.161 269.354 516.161C269.385 516.161 269.4 516.161 269.415 516.176C269.431 516.191 269.446 516.207 269.446 516.237C269.446 516.268 269.461 516.314 269.461 516.359C269.522 516.466 269.522 516.543 269.522 516.635Z" fill="white"/>
</g>
<defs>
<clipPath id="clip0">
<rect width="375" height="667" fill="white"/>
</clipPath>
</defs>
</svg>
