<svg width="1920" height="1080" viewBox="0 0 1920 1080" fill="none" xmlns="http://www.w3.org/2000/svg">
<g clip-path="url(#clip0)">
<path d="M378.555 983.703C375.284 983.703 372.642 981.069 372.642 977.807V738.845C372.642 735.584 375.284 732.95 378.555 732.95C381.826 732.95 384.468 735.584 384.468 738.845V977.807C384.468 981.069 381.826 983.703 378.555 983.703Z" fill="#51A8B7"/>
<path d="M365.974 1011.68V979.062C365.974 972.163 371.636 966.518 378.555 966.518C385.475 966.518 391.136 972.163 391.136 979.062V1011.68H365.974Z" fill="#1E193D"/>
<path d="M220.916 1011.68V979.062C220.916 972.163 226.577 966.518 233.496 966.518C240.416 966.518 246.077 972.163 246.077 979.062V1011.68H220.916Z" fill="#1E193D"/>
<path d="M431.018 1054.83H326.093L360.691 989.097H396.42L431.018 1054.83Z" fill="#939597"/>
<path d="M431.018 1054.83H326.093V1076.15H431.018V1054.83Z" fill="#1E193D"/>
<path d="M285.96 1054.83H181.16L215.632 989.097H251.488L285.96 1054.83Z" fill="#E6E3E6"/>
<path d="M233.497 983.704C232.616 983.704 231.61 983.453 230.729 983.076C227.836 981.571 226.703 977.933 228.213 975.048L360.565 723.543C362.074 720.657 365.723 719.529 368.616 721.034C371.51 722.539 372.642 726.177 371.133 729.062L238.781 980.568C237.775 982.575 235.636 983.704 233.497 983.704Z" fill="#AFDDDA"/>
<path d="M286.085 1054.83H181.16V1076.15H286.085V1054.83Z" fill="#939597"/>
<path d="M299.423 865.288L371.135 728.935C372.645 726.05 371.512 722.413 368.619 720.907C365.725 719.402 362.077 720.531 360.567 723.416L290.491 856.507L299.423 865.288Z" fill="#51A8B7"/>
<path d="M593.69 959.368C592.181 959.368 590.671 958.741 589.539 957.612L270.738 639.749C268.473 637.491 268.473 633.728 270.738 631.345C273.002 629.087 276.777 629.087 279.167 631.345L597.968 949.208C600.358 951.465 600.358 955.229 597.968 957.612C596.836 958.741 595.2 959.368 593.69 959.368Z" fill="#AFDDDA"/>
<path d="M588.529 966.142L565.38 943.061C560.474 938.169 560.474 930.266 565.38 925.374C570.287 920.482 578.213 920.482 583.12 925.374L601.739 943.939L588.529 966.142Z" fill="#51A8B7"/>
<path d="M581.108 991.732V953.347C581.108 946.448 586.769 940.803 593.689 940.803C600.608 940.803 606.27 946.448 606.27 953.347V991.732H581.108Z" fill="#AFDDDA"/>
<path d="M646.152 1054.83H541.227L575.824 989.097H611.554L646.152 1054.83Z" fill="#E6E3E6"/>
<path d="M646.152 1054.83H541.227V1076.15H646.152V1054.83Z" fill="#939597"/>
<path d="M378.537 971.936L372.577 977.879L378.537 983.822L384.498 977.879L378.537 971.936Z" fill="#51A8B7"/>
<path d="M340.827 693.002L332.464 701.34L530.311 898.604L538.673 890.267L340.827 693.002Z" fill="#51A8B7"/>
<path d="M647.285 809.343H256.143L259.037 799.558H650.178L647.285 809.343Z" fill="#177D8F"/>
<path d="M172.102 661.451L98 587.442L100.894 577.783L174.995 651.666L172.102 661.451Z" fill="#72BDBA"/>
<path d="M513.296 797.302H390.884L321.06 727.934H443.472L513.296 797.302Z" fill="#1E193D"/>
<path d="M382.955 797.302H260.542L190.718 727.934H313.131L382.955 797.302Z" fill="#1E193D"/>
<path d="M438.942 723.418H316.53L246.706 653.925H369.118L438.942 723.418Z" fill="#1E193D"/>
<path d="M643.634 797.302H521.222L451.398 727.934H573.81L643.634 797.302Z" fill="#1E193D"/>
<path d="M522.48 871.311H400.068L330.244 801.818H452.656L522.48 871.311Z" fill="#1E193D"/>
<path d="M652.818 871.311H530.406L460.582 801.818H582.994L652.818 871.311Z" fill="#1E193D"/>
<path d="M299.42 649.535H177.008L107.183 580.042H229.596L299.42 649.535Z" fill="#1E193D"/>
<path d="M429.758 649.534H307.346L237.522 580.041H359.934L429.758 649.534Z" fill="#1E193D"/>
<path d="M569.281 723.418H446.868L377.044 653.925H499.457L569.281 723.418Z" fill="#1E193D"/>
<path d="M308.604 723.418H186.192L116.367 653.925H238.78L308.604 723.418Z" fill="#1E193D"/>
<path d="M314.896 725.675L389.249 799.559H519.588L445.234 725.675H314.896ZM485.871 795.796L476.309 792.409L473.667 795.796H456.557L447.122 792.409L444.48 795.796H427.369L417.934 792.409L415.292 795.796H398.182L388.62 792.409L378.807 782.75L381.449 779.363L372.013 775.976L362.2 766.192L364.842 762.805L355.407 759.418L345.593 749.634L348.235 746.247L338.8 742.861L328.987 733.076L331.629 729.689H348.739L358.174 733.076L360.816 729.689H377.926L387.362 733.076L390.004 729.689H407.114L416.55 733.076L419.192 729.689H436.302L445.738 733.076L455.551 742.861L452.909 746.247L462.345 749.634L472.158 759.418L469.516 762.805L478.951 766.192L488.765 775.976L486.123 779.363L495.684 782.75L505.497 792.409L502.855 795.796H485.871Z" fill="#F6E8E7"/>
<path d="M377.296 745.997L367.86 742.61L365.218 745.997L374.78 749.51L377.296 745.997Z" fill="#F6E8E7"/>
<path d="M381.95 762.68L391.386 766.067L394.028 762.68L384.466 759.168L381.95 762.68Z" fill="#F6E8E7"/>
<path d="M398.557 779.238L408.118 782.625L410.634 779.238L401.199 775.851L398.557 779.238Z" fill="#F6E8E7"/>
<path d="M406.607 745.997L397.046 742.61L394.404 745.997L403.965 749.51L406.607 745.997Z" fill="#F6E8E7"/>
<path d="M411.139 762.68L420.574 766.067L423.216 762.68L413.781 759.168L411.139 762.68Z" fill="#F6E8E7"/>
<path d="M427.87 779.238L437.306 782.625L439.948 779.238L430.386 775.851L427.87 779.238Z" fill="#F6E8E7"/>
<path d="M435.798 745.997L426.362 742.61L423.72 745.997L433.156 749.51L435.798 745.997Z" fill="#F6E8E7"/>
<path d="M440.326 762.68L449.887 766.067L452.403 762.68L442.968 759.168L440.326 762.68Z" fill="#F6E8E7"/>
<path d="M457.059 779.238L466.495 782.625L469.137 779.238L459.701 775.851L457.059 779.238Z" fill="#F6E8E7"/>
<path d="M184.428 725.675L258.782 799.559H389.12L314.767 725.675H184.428ZM355.403 795.796L345.968 792.409L343.326 795.796H326.216L316.654 792.409L314.012 795.796H296.902L287.466 792.409L284.824 795.796H267.714L258.278 792.409L248.465 782.75L251.107 779.363L241.672 775.976L231.859 766.192L234.5 762.805L225.065 759.418L215.252 749.634L217.894 746.247L208.458 742.861L198.645 733.076L201.287 729.689H218.397L227.833 733.076L230.475 729.689H247.585L257.02 733.076L259.662 729.689H276.647L286.082 733.076L288.724 729.689H305.834L315.27 733.076L325.083 742.861L322.441 746.247L331.877 749.634L341.69 759.418L339.048 762.805L348.484 766.192L358.297 775.976L355.655 779.363L365.091 782.75L374.904 792.409L372.262 795.796H355.403Z" fill="#F6E8E7"/>
<path d="M246.957 745.997L237.521 742.61L234.879 745.997L244.315 749.51L246.957 745.997Z" fill="#F6E8E7"/>
<path d="M251.611 762.68L261.047 766.067L263.689 762.68L254.127 759.168L251.611 762.68Z" fill="#F6E8E7"/>
<path d="M268.218 779.238L277.779 782.625L280.295 779.238L270.86 775.851L268.218 779.238Z" fill="#F6E8E7"/>
<path d="M276.144 745.997L266.708 742.61L264.066 745.997L273.628 749.51L276.144 745.997Z" fill="#F6E8E7"/>
<path d="M280.799 762.68L290.235 766.067L292.877 762.68L283.441 759.168L280.799 762.68Z" fill="#F6E8E7"/>
<path d="M297.406 779.238L306.968 782.625L309.61 779.238L300.048 775.851L297.406 779.238Z" fill="#F6E8E7"/>
<path d="M305.457 745.997L295.896 742.61L293.38 745.997L302.815 749.51L305.457 745.997Z" fill="#F6E8E7"/>
<path d="M309.987 762.68L319.548 766.067L322.064 762.68L312.629 759.168L309.987 762.68Z" fill="#F6E8E7"/>
<path d="M326.72 779.238L336.156 782.625L338.798 779.238L329.236 775.851L326.72 779.238Z" fill="#F6E8E7"/>
<path d="M240.541 651.666L314.894 725.55H445.233L370.879 651.666H240.541ZM411.516 721.912L402.08 718.525L399.438 721.912H382.328L372.892 718.525L370.25 721.912H353.14L343.704 718.525L341.062 721.912H323.952L314.516 718.525L304.703 708.866L307.345 705.48L297.784 702.093L287.971 692.434L290.613 689.047L281.177 685.66L271.364 675.876L274.006 672.489L264.57 669.102L254.757 659.318L257.399 655.931H274.509L283.945 659.318L286.587 655.931H303.697L313.133 659.318L315.775 655.931H332.885L342.32 659.318L344.962 655.931H362.072L371.508 659.318L381.321 669.102L378.679 672.489L388.115 675.876L397.928 685.66L395.286 689.047L404.722 692.434L414.535 702.093L411.893 705.48L421.329 708.866L431.142 718.525L428.5 721.912H411.516Z" fill="#F6E8E7"/>
<path d="M302.943 672.113L293.507 668.727L290.865 672.113L300.426 675.5L302.943 672.113Z" fill="#F6E8E7"/>
<path d="M307.598 688.671L317.034 692.183L319.676 688.671L310.114 685.284L307.598 688.671Z" fill="#F6E8E7"/>
<path d="M324.205 705.228L333.766 708.741L336.283 705.228L326.847 701.842L324.205 705.228Z" fill="#F6E8E7"/>
<path d="M332.255 672.113L322.693 668.727L320.177 672.113L329.613 675.5L332.255 672.113Z" fill="#F6E8E7"/>
<path d="M336.785 688.671L346.347 692.183L348.863 688.671L339.427 685.284L336.785 688.671Z" fill="#F6E8E7"/>
<path d="M353.518 705.228L362.954 708.741L365.596 705.228L356.034 701.842L353.518 705.228Z" fill="#F6E8E7"/>
<path d="M361.445 672.113L352.009 668.727L349.367 672.113L358.803 675.5L361.445 672.113Z" fill="#F6E8E7"/>
<path d="M365.974 688.671L375.535 692.183L378.177 688.671L368.616 685.284L365.974 688.671Z" fill="#F6E8E7"/>
<path d="M382.706 705.228L392.141 708.741L394.783 705.228L385.348 701.842L382.706 705.228Z" fill="#F6E8E7"/>
<path d="M445.233 725.675L519.586 799.559H649.924L575.571 725.675H445.233ZM616.208 795.796L606.772 792.409L604.13 795.796H587.02L577.584 792.409L574.942 795.796H557.832L548.396 792.409L545.754 795.796H528.644L519.208 792.409L509.395 782.75L512.037 779.363L502.602 775.976L492.788 766.192L495.43 762.805L485.995 759.418L476.182 749.634L478.824 746.247L469.388 742.861L459.575 733.076L462.217 729.689H479.327L488.763 733.076L491.405 729.689H508.137L517.573 733.076L520.215 729.689H537.325L546.761 733.076L549.403 729.689H566.513L575.949 733.076L585.762 742.861L583.12 746.247L592.681 749.634L602.494 759.418L599.852 762.805L609.414 766.192L619.227 775.976L616.585 779.363L626.146 782.75L635.96 792.409L633.318 795.796H616.208Z" fill="#F6E8E7"/>
<path d="M507.635 745.997L498.199 742.61L495.557 745.997L505.118 749.51L507.635 745.997Z" fill="#F6E8E7"/>
<path d="M512.29 762.68L521.726 766.067L524.368 762.68L514.806 759.168L512.29 762.68Z" fill="#F6E8E7"/>
<path d="M528.897 779.238L538.458 782.625L540.975 779.238L531.539 775.851L528.897 779.238Z" fill="#F6E8E7"/>
<path d="M536.95 745.997L527.388 742.61L524.872 745.997L534.308 749.51L536.95 745.997Z" fill="#F6E8E7"/>
<path d="M541.477 762.68L551.039 766.067L553.555 762.68L544.119 759.168L541.477 762.68Z" fill="#F6E8E7"/>
<path d="M558.211 779.238L567.646 782.625L570.288 779.238L560.727 775.851L558.211 779.238Z" fill="#F6E8E7"/>
<path d="M566.137 745.997L556.701 742.61L554.059 745.997L563.495 749.51L566.137 745.997Z" fill="#F6E8E7"/>
<path d="M570.666 762.68L580.227 766.067L582.869 762.68L573.308 759.168L570.666 762.68Z" fill="#F6E8E7"/>
<path d="M587.398 779.238L596.833 782.625L599.475 779.238L590.04 775.851L587.398 779.238Z" fill="#F6E8E7"/>
<path d="M323.951 799.559L398.304 873.568H528.643L454.289 799.685H323.951V799.559ZM494.926 869.805L485.49 866.418L482.848 869.805H465.738L456.302 866.418L453.66 869.805H436.55L427.114 866.418L424.472 869.805H407.362L397.927 866.418L388.113 856.634L390.755 853.247L381.194 849.86L371.381 840.076L374.023 836.689L364.587 833.303L354.774 823.518L357.416 820.131L347.98 816.745L338.167 806.96L340.809 803.573H357.919L367.355 806.96L369.997 803.573H387.107L396.543 806.96L399.185 803.573H416.295L425.73 806.96L428.372 803.573H445.483L454.918 806.96L464.731 816.745L462.089 820.131L471.651 823.518L481.464 833.303L478.822 836.689L488.258 840.076L498.071 849.86L495.429 853.247L504.865 856.634L514.678 866.418L512.036 869.805H494.926Z" fill="#F6E8E7"/>
<path d="M386.48 820.007L377.044 816.62L374.402 820.007L383.963 823.394L386.48 820.007Z" fill="#F6E8E7"/>
<path d="M391.132 836.564L400.568 840.076L403.21 836.564L393.648 833.177L391.132 836.564Z" fill="#F6E8E7"/>
<path d="M407.741 853.122L417.302 856.634L419.818 853.122L410.383 849.735L407.741 853.122Z" fill="#F6E8E7"/>
<path d="M415.667 820.007L406.231 816.62L403.589 820.007L413.151 823.394L415.667 820.007Z" fill="#F6E8E7"/>
<path d="M420.322 836.564L429.758 839.951L432.4 836.564L422.964 833.177L420.322 836.564Z" fill="#F6E8E7"/>
<path d="M436.929 853.122L446.491 856.634L449.133 853.122L439.571 849.735L436.929 853.122Z" fill="#F6E8E7"/>
<path d="M444.982 820.007L435.42 816.62L432.904 820.007L442.34 823.394L444.982 820.007Z" fill="#F6E8E7"/>
<path d="M449.509 836.564L459.071 839.951L461.587 836.564L452.151 833.177L449.509 836.564Z" fill="#F6E8E7"/>
<path d="M466.243 853.122L475.678 856.634L478.32 853.122L468.759 849.735L466.243 853.122Z" fill="#F6E8E7"/>
<path d="M454.417 799.559L528.77 873.443H659.109L584.755 799.559H454.417ZM625.266 869.805L615.83 866.418L613.188 869.805H596.078L586.642 866.418L584 869.805H566.89L557.455 866.418L554.813 869.805H537.703L528.267 866.418L518.454 856.634L521.096 853.247L511.534 849.86L501.721 840.076L504.363 836.689L494.927 833.303L485.114 823.518L487.756 820.131L478.321 816.745L468.507 806.96L471.149 803.573H488.26L497.695 806.96L500.337 803.573H517.447L527.009 806.96L529.651 803.573H546.761L556.197 806.96L558.839 803.573H575.949L585.384 806.96L595.197 816.745L592.555 820.131L601.991 823.518L611.804 833.303L609.162 836.689L618.598 840.076L628.411 849.86L625.769 853.247L635.205 856.634L645.018 866.418L642.376 869.805H625.266Z" fill="#F6E8E7"/>
<path d="M516.819 820.007L507.383 816.62L504.741 820.007L514.303 823.394L516.819 820.007Z" fill="#F6E8E7"/>
<path d="M521.474 836.564L530.91 839.951L533.552 836.564L523.99 833.177L521.474 836.564Z" fill="#F6E8E7"/>
<path d="M538.08 853.122L547.641 856.634L550.157 853.122L540.722 849.735L538.08 853.122Z" fill="#F6E8E7"/>
<path d="M546.132 820.007L536.571 816.62L534.055 820.007L543.49 823.394L546.132 820.007Z" fill="#F6E8E7"/>
<path d="M550.661 836.564L560.097 839.951L562.739 836.564L553.303 833.177L550.661 836.564Z" fill="#F6E8E7"/>
<path d="M567.393 853.122L576.829 856.634L579.471 853.122L569.909 849.735L567.393 853.122Z" fill="#F6E8E7"/>
<path d="M575.321 820.007L565.759 816.62L563.243 820.007L572.679 823.394L575.321 820.007Z" fill="#F6E8E7"/>
<path d="M579.85 836.564L589.412 839.951L591.928 836.564L582.492 833.177L579.85 836.564Z" fill="#F6E8E7"/>
<path d="M596.582 853.122L606.017 856.634L608.659 853.122L599.224 849.735L596.582 853.122Z" fill="#F6E8E7"/>
<path d="M101.019 577.782L175.372 651.666H305.711L231.357 577.782H101.019ZM271.994 647.903L262.558 644.516L259.916 647.903H242.68L233.244 644.516L230.602 647.903H213.492L203.931 644.516L201.289 647.903H184.305L174.743 644.516L164.93 634.731L167.572 631.345L158.136 627.958L148.323 618.173L150.965 614.787L141.403 611.4L131.59 601.615L134.232 598.229L124.671 594.842L114.858 585.057L117.5 581.671H134.61L144.171 585.057L146.813 581.671H163.923L173.485 585.057L176.127 581.671H193.237L202.673 585.057L205.315 581.671H222.425L231.86 585.057L241.674 594.842L239.032 598.229L248.467 601.615L258.28 611.4L255.638 614.787L265.074 618.173L274.887 627.958L272.245 631.345L281.681 634.731L291.494 644.516L288.852 647.903H271.994Z" fill="#F6E8E7"/>
<path d="M163.42 598.229L153.985 594.716L151.343 598.229L160.904 601.615L163.42 598.229Z" fill="#F6E8E7"/>
<path d="M168.076 614.786L177.511 618.173L180.153 614.786L170.592 611.274L168.076 614.786Z" fill="#F6E8E7"/>
<path d="M184.683 631.343L194.244 634.73L196.76 631.343L187.325 627.956L184.683 631.343Z" fill="#F6E8E7"/>
<path d="M192.734 598.229L183.172 594.716L180.656 598.229L190.092 601.615L192.734 598.229Z" fill="#F6E8E7"/>
<path d="M197.263 614.786L206.824 618.173L209.341 614.786L199.905 611.274L197.263 614.786Z" fill="#F6E8E7"/>
<path d="M213.996 631.343L223.432 634.73L226.074 631.343L216.512 627.956L213.996 631.343Z" fill="#F6E8E7"/>
<path d="M221.922 598.229L212.487 594.716L209.845 598.229L219.28 601.615L221.922 598.229Z" fill="#F6E8E7"/>
<path d="M226.451 614.786L236.013 618.173L238.655 614.786L229.093 611.274L226.451 614.786Z" fill="#F6E8E7"/>
<path d="M243.183 631.343L252.619 634.73L255.261 631.343L245.825 627.956L243.183 631.343Z" fill="#F6E8E7"/>
<path d="M231.358 577.782L305.711 651.666H436.05L361.697 577.782H231.358V577.782ZM402.333 647.903L392.897 644.516L390.255 647.903H373.145L363.584 644.516L360.942 647.903H343.832L334.396 644.516L331.754 647.903H314.644L305.208 644.516L295.395 634.732L298.037 631.345L288.601 627.958L278.788 618.174L281.43 614.787L271.994 611.4L262.181 601.616L264.823 598.229L255.388 594.842L245.575 585.058L248.216 581.671H265.327L274.762 585.058L277.404 581.671H294.263L303.698 585.058L306.34 581.671H323.451L332.886 585.058L335.528 581.671H352.638L362.074 585.058L371.887 594.842L369.245 598.229L378.681 601.616L388.494 611.4L386.104 614.787L395.539 618.174L405.352 627.958L402.71 631.345L412.146 634.732L421.959 644.516L419.317 647.903H402.333Z" fill="#F6E8E7"/>
<path d="M293.757 598.23L284.321 594.717L281.679 598.23L291.241 601.616L293.757 598.23Z" fill="#F6E8E7"/>
<path d="M298.414 614.786L307.85 618.173L310.492 614.786L300.93 611.274L298.414 614.786Z" fill="#F6E8E7"/>
<path d="M315.021 631.343L324.582 634.73L327.099 631.343L317.663 627.956L315.021 631.343Z" fill="#F6E8E7"/>
<path d="M323.072 598.23L313.51 594.717L310.994 598.23L320.43 601.616L323.072 598.23Z" fill="#F6E8E7"/>
<path d="M327.6 614.787L337.161 618.174L339.677 614.787L330.242 611.275L327.6 614.787Z" fill="#F6E8E7"/>
<path d="M344.334 631.343L353.77 634.73L356.412 631.343L346.851 627.956L344.334 631.343Z" fill="#F6E8E7"/>
<path d="M352.261 598.229L342.825 594.716L340.183 598.229L349.619 601.616L352.261 598.229Z" fill="#F6E8E7"/>
<path d="M356.913 614.787L366.349 618.174L368.991 614.787L359.429 611.275L356.913 614.787Z" fill="#F6E8E7"/>
<path d="M373.52 631.346L383.082 634.732L385.598 631.346L376.162 627.959L373.52 631.346Z" fill="#F6E8E7"/>
<path d="M370.879 651.666L445.232 725.55H575.571L501.217 651.666H370.879ZM541.854 721.912L532.418 718.525L529.776 721.912H512.666L503.23 718.525L500.588 721.912H483.478L473.917 718.525L471.275 721.912H454.164L444.603 718.525L434.79 708.866L437.432 705.48L427.996 702.093L418.183 692.434L420.825 689.047L411.389 685.66L401.576 675.876L404.218 672.489L394.782 669.102L384.969 659.318L387.611 655.931H404.721L414.157 659.318L416.799 655.931H433.909L443.345 659.318L445.987 655.931H463.097L472.533 659.318L475.175 655.931H492.285L501.72 659.318L511.534 669.102L508.892 672.489L518.327 675.876L528.14 685.66L525.498 689.047L534.934 692.434L544.747 702.093L542.105 705.48L551.541 708.866L561.354 718.525L558.712 721.912H541.854Z" fill="#F6E8E7"/>
<path d="M433.281 672.114L423.846 668.727L421.204 672.114L430.765 675.501L433.281 672.114Z" fill="#F6E8E7"/>
<path d="M437.937 688.671L447.372 692.183L450.014 688.671L440.453 685.284L437.937 688.671Z" fill="#F6E8E7"/>
<path d="M454.544 705.228L464.105 708.741L466.621 705.228L457.186 701.842L454.544 705.228Z" fill="#F6E8E7"/>
<path d="M462.595 672.114L453.033 668.727L450.517 672.114L459.953 675.501L462.595 672.114Z" fill="#F6E8E7"/>
<path d="M467.124 688.672L476.685 692.184L479.202 688.672L469.766 685.285L467.124 688.672Z" fill="#F6E8E7"/>
<path d="M483.857 705.228L493.293 708.741L495.935 705.228L486.373 701.842L483.857 705.228Z" fill="#F6E8E7"/>
<path d="M491.783 672.113L482.348 668.727L479.706 672.113L489.141 675.5L491.783 672.113Z" fill="#F6E8E7"/>
<path d="M496.313 688.671L505.874 692.183L508.516 688.671L498.955 685.284L496.313 688.671Z" fill="#F6E8E7"/>
<path d="M513.043 705.229L522.478 708.741L525.12 705.229L515.685 701.842L513.043 705.229Z" fill="#F6E8E7"/>
<path d="M110.204 651.666L184.557 725.55H314.896L240.542 651.666H110.204ZM281.053 721.912L271.617 718.525L268.975 721.912H251.865L242.429 718.525L239.787 721.912H222.677L213.242 718.525L210.6 721.912H193.49L184.054 718.525L174.241 708.866L176.883 705.48L167.447 702.093L157.634 692.434L160.276 689.047L150.714 685.66L140.901 675.876L143.543 672.489L133.982 669.102L124.169 659.318L126.811 655.931H143.921L153.356 659.318L155.998 655.931H173.108L182.544 659.318L185.186 655.931H202.296L211.732 659.318L214.374 655.931H231.484L240.92 659.318L250.733 669.102L248.091 672.489L257.527 675.876L267.34 685.66L264.698 689.047L274.133 692.434L283.947 702.093L281.304 705.48L290.74 708.866L300.553 718.525L297.911 721.912H281.053Z" fill="#F6E8E7"/>
<path d="M172.604 672.114L163.168 668.727L160.526 672.114L170.088 675.501L172.604 672.114Z" fill="#F6E8E7"/>
<path d="M177.259 688.671L186.695 692.183L189.337 688.671L179.775 685.284L177.259 688.671Z" fill="#F6E8E7"/>
<path d="M193.868 705.228L203.429 708.741L205.945 705.228L196.51 701.842L193.868 705.228Z" fill="#F6E8E7"/>
<path d="M201.914 672.114L192.352 668.727L189.71 672.114L199.272 675.501L201.914 672.114Z" fill="#F6E8E7"/>
<path d="M206.446 688.672L215.882 692.184L218.524 688.672L209.088 685.285L206.446 688.672Z" fill="#F6E8E7"/>
<path d="M223.18 705.228L232.615 708.741L235.257 705.228L225.696 701.842L223.18 705.228Z" fill="#F6E8E7"/>
<path d="M231.106 672.113L221.544 668.727L219.028 672.113L228.464 675.5L231.106 672.113Z" fill="#F6E8E7"/>
<path d="M235.636 688.671L245.198 692.183L247.714 688.671L238.278 685.284L235.636 688.671Z" fill="#F6E8E7"/>
<path d="M252.365 705.229L261.801 708.741L264.443 705.229L255.007 701.842L252.365 705.229Z" fill="#F6E8E7"/>
<path d="M255.891 809.343L107.184 661.45L110.203 651.665L258.784 799.558L255.891 809.343Z" fill="#72BDBA"/>
<path d="M395.412 883.226L321.31 809.343L324.204 799.558L398.305 873.568L395.412 883.226Z" fill="#72BDBA"/>
<path d="M656.091 883.226H395.288L398.307 873.567H659.11L656.091 883.226Z" fill="#177D8F"/>
<path d="M567.394 936.413C567.142 936.413 566.891 936.288 566.765 936.162C566.388 935.786 566.388 935.159 566.765 934.908L575.194 926.503C575.572 926.127 576.201 926.127 576.452 926.503C576.83 926.88 576.83 927.507 576.452 927.758L568.023 936.162C567.772 936.413 567.52 936.413 567.394 936.413Z" fill="#1E193D"/>
<path d="M573.433 941.807C573.182 941.807 572.93 941.681 572.804 941.556C572.427 941.179 572.427 940.552 572.804 940.301L581.737 931.395C582.114 931.019 582.743 931.019 582.995 931.395C583.372 931.771 583.372 932.398 582.995 932.649L574.062 941.556C573.811 941.681 573.559 941.807 573.433 941.807Z" fill="#1E193D"/>
<path d="M389.248 800.562C388.996 800.562 388.745 800.436 388.619 800.311L239.786 652.418C239.409 652.042 239.409 651.414 239.786 651.164C240.164 650.787 240.793 650.787 241.044 651.164L389.877 798.931C390.254 799.307 390.254 799.935 389.877 800.185C389.625 800.436 389.374 800.562 389.248 800.562Z" fill="#1E193D"/>
<path d="M519.084 800.562C518.833 800.562 518.581 800.436 518.455 800.311L369.748 652.418C369.371 652.042 369.371 651.414 369.748 651.164C370.126 650.787 370.755 650.787 371.006 651.164L519.713 799.056C520.091 799.433 520.091 800.06 519.713 800.311C519.462 800.436 519.336 800.562 519.084 800.562Z" fill="#1E193D"/>
<path d="M305.711 652.669C305.459 652.669 305.208 652.544 305.082 652.418L230.729 578.409C230.351 578.033 230.351 577.405 230.729 577.155C231.106 576.778 231.735 576.778 231.987 577.155L306.34 651.038C306.717 651.415 306.717 652.042 306.34 652.293C306.088 652.544 305.963 652.669 305.711 652.669Z" fill="#1E193D"/>
<path d="M528.771 874.446C528.519 874.446 528.268 874.32 528.142 874.195L453.789 800.311C453.411 799.935 453.411 799.308 453.789 799.057C454.166 798.68 454.795 798.68 455.047 799.057L529.4 872.94C529.778 873.317 529.778 873.944 529.4 874.195C529.149 874.446 528.897 874.446 528.771 874.446Z" fill="#1E193D"/>
<path d="M606.396 953.473C606.396 946.448 600.734 940.803 593.689 940.803C586.769 940.803 581.108 946.448 581.108 953.473C581.108 960.372 586.769 966.017 593.689 966.017C600.734 966.017 606.396 960.372 606.396 953.473Z" fill="#1E193D"/>
<path d="M593.7 947.503L587.736 953.442L593.693 959.388L599.657 953.449L593.7 947.503Z" fill="#51A8B7"/>
<path d="M682.888 1077.03H149.834C149.331 1077.03 148.953 1076.65 148.953 1076.15C148.953 1075.65 149.331 1075.27 149.834 1075.27H682.888C683.391 1075.27 683.769 1075.65 683.769 1076.15C683.895 1076.65 683.391 1077.03 682.888 1077.03Z" fill="#1E193D"/>
<path d="M186.866 459.869C186.614 459.869 186.363 459.869 186.237 459.744C185.608 459.368 185.356 458.49 185.608 457.862L249.016 338.695C249.393 338.068 250.274 337.817 250.903 338.068C251.532 338.444 251.783 339.322 251.532 339.949L188.124 459.117C187.872 459.493 187.369 459.869 186.866 459.869Z" fill="#F7F3E8"/>
<path d="M160.446 509.542C160.195 509.542 159.943 509.542 159.817 509.417C159.188 509.04 158.936 508.162 159.188 507.535L168.75 489.597C169.127 488.97 170.008 488.719 170.637 488.97C171.266 489.346 171.517 490.224 171.266 490.852L161.704 508.79C161.453 509.291 160.949 509.542 160.446 509.542Z" fill="#F7F3E8"/>
<path d="M128.743 569.127C128.492 569.127 128.24 569.127 128.114 569.001C127.485 568.625 127.234 567.747 127.485 567.119L151.137 522.589C151.515 521.961 152.395 521.71 153.025 521.961C153.654 522.338 153.905 523.216 153.654 523.843L130.001 568.374C129.75 568.876 129.247 569.127 128.743 569.127Z" fill="#F7F3E8"/>
<path d="M288.897 363.531C288.645 363.531 288.394 363.531 288.268 363.406C287.639 363.029 287.387 362.151 287.639 361.524L319.343 301.94C319.72 301.313 320.601 301.062 321.23 301.313C321.859 301.69 322.11 302.568 321.859 303.195L290.155 362.779C289.903 363.28 289.4 363.531 288.897 363.531Z" fill="#F7F3E8"/>
<path d="M198.44 533.501C198.188 533.501 197.937 533.501 197.811 533.376C197.182 533 196.93 532.122 197.182 531.494L271.032 392.759C271.409 392.131 272.29 391.881 272.919 392.131C273.548 392.508 273.8 393.386 273.548 394.013L199.698 532.749C199.446 533.251 198.943 533.501 198.44 533.501Z" fill="#F7F3E8"/>
<path d="M269.397 495.619C269.146 495.619 268.894 495.619 268.768 495.493C268.139 495.117 267.888 494.239 268.139 493.612L358.722 323.265C359.1 322.638 359.98 322.387 360.609 322.638C361.238 323.014 361.49 323.892 361.238 324.52L270.656 494.866C270.404 495.368 269.901 495.619 269.397 495.619Z" fill="#F7F3E8"/>
<path d="M233.416 563.356C233.165 563.356 232.913 563.356 232.787 563.231C232.158 562.854 231.907 561.976 232.158 561.349L256.44 515.689C256.817 515.062 257.698 514.811 258.327 515.062C258.956 515.438 259.207 516.316 258.956 516.943L234.549 562.603C234.297 563.105 233.794 563.356 233.416 563.356Z" fill="#F7F3E8"/>
<path d="M389.419 365.539C389.167 365.539 388.916 365.539 388.79 365.413C388.161 365.037 387.909 364.159 388.161 363.532L398.226 344.591C398.603 343.963 399.484 343.712 400.113 343.963C400.742 344.34 400.993 345.218 400.742 345.845L390.677 364.786C390.3 365.288 389.922 365.539 389.419 365.539Z" fill="#F7F3E8"/>
<path d="M298.335 536.762C298.083 536.762 297.832 536.762 297.706 536.637C297.077 536.261 296.825 535.383 297.077 534.755L376.085 386.11C376.462 385.483 377.343 385.232 377.972 385.483C378.601 385.859 378.853 386.737 378.601 387.364L299.593 536.01C299.341 536.512 298.838 536.762 298.335 536.762Z" fill="#F7F3E8"/>
<path d="M397.472 445.694C397.22 445.694 396.969 445.694 396.843 445.569C396.214 445.192 395.962 444.314 396.214 443.687L422.76 393.637C423.137 393.01 424.018 392.759 424.647 393.01C425.276 393.386 425.528 394.264 425.276 394.891L398.73 444.942C398.479 445.443 397.975 445.694 397.472 445.694Z" fill="#F7F3E8"/>
<path d="M334.694 563.857C334.442 563.857 334.19 563.857 334.065 563.732C333.436 563.355 333.184 562.477 333.436 561.85L386.905 461.373C387.282 460.746 388.163 460.495 388.792 460.746C389.421 461.122 389.672 462 389.421 462.628L335.952 563.104C335.7 563.481 335.197 563.857 334.694 563.857Z" fill="#F7F3E8"/>
<path d="M411.059 515.563C410.807 515.563 410.556 515.563 410.43 515.438C409.801 515.062 409.549 514.184 409.801 513.556L476.983 387.239C477.36 386.612 478.241 386.361 478.87 386.612C479.499 386.988 479.751 387.866 479.499 388.493L412.317 514.811C412.065 515.312 411.562 515.563 411.059 515.563Z" fill="#F7F3E8"/>
<path d="M378.978 576.025C378.726 576.025 378.474 576.025 378.349 575.899C377.72 575.523 377.468 574.645 377.72 574.018L394.578 542.282C394.955 541.655 395.836 541.404 396.465 541.655C397.094 542.031 397.346 542.909 397.094 543.536L380.236 575.272C379.984 575.774 379.481 576.025 378.978 576.025Z" fill="#F7F3E8"/>
<path d="M471.824 496.873C471.573 496.873 471.321 496.873 471.195 496.747C470.566 496.371 470.315 495.493 470.566 494.866L506.045 428.258C506.422 427.63 507.303 427.379 507.932 427.63C508.561 428.007 508.812 428.885 508.561 429.512L473.083 496.12C472.831 496.622 472.328 496.873 471.824 496.873Z" fill="#F7F3E8"/>
<path d="M420.243 593.963C419.991 593.963 419.739 593.963 419.614 593.838C418.985 593.462 418.733 592.584 418.985 591.956L460.124 514.686C460.502 514.059 461.382 513.808 462.011 514.059C462.64 514.435 462.892 515.313 462.64 515.94L421.501 593.211C421.123 593.712 420.746 593.963 420.243 593.963Z" fill="#F7F3E8"/>
<path d="M548.568 448.203C548.317 448.203 548.065 448.203 547.939 448.078C547.31 447.702 547.059 446.824 547.31 446.196L555.865 430.015C556.243 429.388 557.123 429.137 557.752 429.388C558.381 429.764 558.633 430.642 558.381 431.269L549.826 447.451C549.449 447.953 549.072 448.203 548.568 448.203Z" fill="#F7F3E8"/>
<path d="M480.129 576.778C479.877 576.778 479.625 576.778 479.5 576.652C478.871 576.276 478.619 575.398 478.871 574.771L536.24 467.019C536.617 466.391 537.498 466.14 538.127 466.391C538.756 466.768 539.007 467.646 538.756 468.273L481.387 576.025C481.135 576.527 480.632 576.778 480.129 576.778Z" fill="#F7F3E8"/>
<path d="M445.405 642.132C445.153 642.132 444.902 642.132 444.776 642.007C444.147 641.63 443.895 640.752 444.147 640.125L465.157 600.612C465.535 599.984 466.415 599.734 467.044 599.984C467.673 600.361 467.925 601.239 467.673 601.866L446.663 641.379C446.412 641.756 445.908 642.132 445.405 642.132Z" fill="#F7F3E8"/>
<path d="M572.977 497.5C572.725 497.5 572.474 497.5 572.348 497.374C571.719 496.998 571.467 496.12 571.719 495.493L595.245 451.213C595.623 450.586 596.503 450.335 597.133 450.586C597.762 450.962 598.013 451.84 597.762 452.467L574.235 496.747C573.984 497.249 573.48 497.5 572.977 497.5Z" fill="#F7F3E8"/>
<path d="M498.244 638.117C497.992 638.117 497.741 638.117 497.615 637.991C496.986 637.615 496.734 636.737 496.986 636.11L561.526 514.81C561.904 514.183 562.784 513.932 563.413 514.183C564.042 514.559 564.294 515.437 564.042 516.064L499.502 637.364C499.251 637.866 498.747 638.117 498.244 638.117Z" fill="#F7F3E8"/>
<path d="M562.029 613.658C561.777 613.658 561.525 613.658 561.4 613.532C560.77 613.156 560.519 612.278 560.77 611.651L623.172 494.239C623.549 493.612 624.43 493.361 625.059 493.612C625.688 493.989 625.94 494.867 625.688 495.494L563.287 612.905C563.035 613.281 562.532 613.658 562.029 613.658Z" fill="#F7F3E8"/>
<path d="M533.347 667.471C533.095 667.471 532.844 667.471 532.718 667.345C532.089 666.969 531.837 666.091 532.089 665.464L552.847 626.327C553.225 625.7 554.106 625.449 554.735 625.7C555.364 626.076 555.615 626.954 555.364 627.581L534.605 666.718C534.353 667.22 533.85 667.471 533.347 667.471Z" fill="#F7F3E8"/>
<path d="M630.848 579.663C630.596 579.663 630.344 579.663 630.219 579.538C629.589 579.161 629.338 578.283 629.589 577.656L674.126 493.863C674.503 493.236 675.384 492.985 676.013 493.236C676.642 493.612 676.894 494.49 676.642 495.117L632.106 579.036C631.854 579.412 631.351 579.663 630.848 579.663Z" fill="#F7F3E8"/>
<path d="M566.308 701.089C566.056 701.089 565.805 701.089 565.679 700.964C565.05 700.587 564.798 699.709 565.05 699.082L616.883 601.741C617.261 601.114 618.141 600.863 618.77 601.114C619.399 601.491 619.651 602.369 619.399 602.996L567.566 700.337C567.314 700.713 566.811 701.089 566.308 701.089Z" fill="#F7F3E8"/>
<path d="M688.092 567.496C687.841 567.496 687.589 567.496 687.463 567.37C686.834 566.994 686.583 566.116 686.834 565.489L713.506 515.313C713.883 514.686 714.764 514.435 715.393 514.686C716.022 515.062 716.274 515.94 716.022 516.568L689.35 566.743C689.099 567.245 688.596 567.496 688.092 567.496Z" fill="#F7F3E8"/>
<path d="M614.62 705.731C614.368 705.731 614.116 705.731 613.991 705.605C613.362 705.229 613.11 704.351 613.362 703.724L672.366 592.835C672.744 592.208 673.624 591.957 674.253 592.208C674.882 592.584 675.134 593.462 674.882 594.09L615.878 704.978C615.626 705.48 615.123 705.731 614.62 705.731Z" fill="#F7F3E8"/>
<path d="M663.56 709.116C663.309 709.116 663.057 709.116 662.931 708.99C662.302 708.614 662.05 707.736 662.302 707.109L742.443 556.331C742.82 555.704 743.701 555.453 744.33 555.704C744.959 556.08 745.211 556.958 744.959 557.585L664.818 708.363C664.567 708.865 664.063 709.116 663.56 709.116Z" fill="#F7F3E8"/>
<path d="M632.986 766.567C632.735 766.567 632.483 766.567 632.357 766.441C631.728 766.065 631.477 765.187 631.728 764.56L650.222 729.938C650.599 729.311 651.48 729.06 652.109 729.311C652.738 729.688 652.99 730.566 652.738 731.193L634.244 765.814C633.993 766.316 633.489 766.567 632.986 766.567Z" fill="#F7F3E8"/>
<path d="M761.061 621.31C760.809 621.31 760.558 621.31 760.432 621.185C759.803 620.808 759.551 619.93 759.803 619.303L792.387 557.963C792.765 557.336 793.646 557.085 794.275 557.336C794.904 557.712 795.155 558.59 794.904 559.218L762.319 620.557C762.067 621.059 761.564 621.31 761.061 621.31Z" fill="#F7F3E8"/>
<path d="M641.289 846.472C641.037 846.472 640.786 846.472 640.66 846.346C640.031 845.97 639.779 845.092 640.031 844.465L741.685 653.295C742.062 652.668 742.943 652.417 743.572 652.668C744.201 653.044 744.453 653.922 744.201 654.55L642.547 845.719C642.295 846.221 641.792 846.472 641.289 846.472Z" fill="#F7F3E8"/>
<path d="M692.951 715.011C692.699 715.011 692.447 715.011 692.322 714.885C691.693 714.509 691.441 713.631 691.693 713.004L765.543 574.268C765.92 573.64 766.801 573.39 767.43 573.64C768.059 574.017 768.31 574.895 768.059 575.522L694.209 714.258C693.957 714.76 693.454 715.011 692.951 715.011Z" fill="#F7F3E8"/>
<path d="M626.147 745.241C625.896 745.241 625.644 745.241 625.518 745.116C624.889 744.74 624.638 743.862 624.889 743.234L694.588 612.15C694.965 611.523 695.846 611.272 696.475 611.523C697.104 611.899 697.356 612.778 697.104 613.405L627.405 744.489C627.028 744.99 626.651 745.241 626.147 745.241Z" fill="#F7F3E8"/>
<path d="M707.676 591.955C707.424 591.955 707.173 591.955 707.047 591.829C706.418 591.453 706.166 590.575 706.418 589.948L730.699 544.288C731.076 543.66 731.957 543.41 732.586 543.66C733.215 544.037 733.467 544.915 733.215 545.542L708.934 591.202C708.556 591.704 708.179 591.955 707.676 591.955Z" fill="#F7F3E8"/>
<path d="M611.556 677.129C611.304 677.129 611.053 677.129 610.927 677.003C610.298 676.627 610.046 675.749 610.298 675.121L665.654 571.007C666.032 570.38 666.912 570.129 667.541 570.38C668.17 570.756 668.422 571.634 668.17 572.261L612.814 676.376C612.562 676.878 612.059 677.129 611.556 677.129Z" fill="#F7F3E8"/>
<path d="M577.081 646.396C576.829 646.396 576.577 646.396 576.452 646.27C575.822 645.894 575.571 645.016 575.822 644.389L629.291 543.912C629.669 543.285 630.55 543.034 631.179 543.285C631.808 543.661 632.059 544.539 631.808 545.166L578.339 645.643C578.087 646.145 577.584 646.396 577.081 646.396Z" fill="#F7F3E8"/>
<path d="M537.453 625.572C537.202 625.572 536.95 625.572 536.824 625.447C536.195 625.07 535.944 624.192 536.195 623.565L552.928 592.08C553.305 591.453 554.186 591.202 554.815 591.453C555.444 591.829 555.696 592.707 555.444 593.334L538.711 624.82C538.46 625.321 537.957 625.572 537.453 625.572Z" fill="#F7F3E8"/>
<path d="M569.405 565.487C569.153 565.487 568.902 565.487 568.776 565.362C568.147 564.986 567.895 564.108 568.147 563.48L585.005 531.744C585.383 531.117 586.264 530.866 586.893 531.117C587.522 531.493 587.773 532.371 587.522 532.999L570.663 564.735C570.411 565.236 569.908 565.487 569.405 565.487Z" fill="#F7F3E8"/>
<path d="M478.196 641.377C477.944 641.377 477.693 641.377 477.567 641.252C476.938 640.876 476.686 639.997 476.938 639.37L492.161 610.895C492.538 610.268 493.419 610.017 494.048 610.268C494.677 610.645 494.929 611.523 494.677 612.15L479.454 640.625C479.202 641.126 478.699 641.377 478.196 641.377Z" fill="#F7F3E8"/>
<path d="M503.864 593.083C503.612 593.083 503.36 593.083 503.235 592.958C502.606 592.581 502.354 591.703 502.606 591.076L543.745 513.805C544.123 513.178 545.003 512.927 545.632 513.178C546.261 513.554 546.513 514.433 546.261 515.06L505.122 592.33C504.87 592.832 504.367 593.083 503.864 593.083Z" fill="#F7F3E8"/>
<path d="M436.428 624.569C436.177 624.569 435.925 624.569 435.799 624.443C435.17 624.067 434.919 623.189 435.17 622.562L483.859 530.991C484.236 530.364 485.117 530.113 485.746 530.364C486.375 530.74 486.626 531.618 486.375 532.245L437.687 623.816C437.435 624.318 436.932 624.569 436.428 624.569Z" fill="#F7F3E8"/>
<path d="M498.832 507.283C498.581 507.283 498.329 507.283 498.203 507.158C497.574 506.782 497.323 505.904 497.574 505.276L518.584 465.763C518.962 465.136 519.842 464.885 520.472 465.136C521.101 465.512 521.352 466.39 521.101 467.017L500.09 506.531C499.839 507.032 499.336 507.283 498.832 507.283Z" fill="#F7F3E8"/>
<path d="M402.459 592.959C402.207 592.959 401.955 592.959 401.829 592.833C401.2 592.457 400.949 591.579 401.2 590.952L465.741 469.652C466.118 469.025 466.999 468.774 467.628 469.025C468.257 469.401 468.508 470.279 468.257 470.906L403.717 592.206C403.465 592.708 402.962 592.959 402.459 592.959Z" fill="#F7F3E8"/>
<path d="M367.483 563.229C367.232 563.229 366.98 563.229 366.854 563.104C366.225 562.727 365.974 561.849 366.225 561.222L401.955 494.112C402.333 493.485 403.213 493.234 403.842 493.485C404.471 493.861 404.723 494.739 404.471 495.367L368.742 562.477C368.49 562.978 367.987 563.229 367.483 563.229Z" fill="#F7F3E8"/>
<path d="M411.012 481.318C410.761 481.318 410.509 481.318 410.383 481.192C409.754 480.816 409.503 479.938 409.754 479.311L430.513 440.174C430.89 439.546 431.771 439.295 432.4 439.546C433.029 439.923 433.281 440.801 433.029 441.428L412.27 480.565C412.019 481.067 411.516 481.318 411.012 481.318Z" fill="#F7F3E8"/>
<path d="M347.104 506.029C346.853 506.029 346.601 506.029 346.475 505.904C345.846 505.527 345.595 504.649 345.846 504.022L397.68 406.681C398.057 406.054 398.938 405.803 399.567 406.054C400.196 406.43 400.448 407.309 400.196 407.936L348.362 505.402C348.111 505.778 347.608 506.029 347.104 506.029Z" fill="#F7F3E8"/>
<path d="M291.621 514.935C291.369 514.935 291.118 514.935 290.992 514.809C290.363 514.433 290.111 513.555 290.363 512.928L349.367 402.039C349.745 401.412 350.625 401.161 351.255 401.412C351.884 401.788 352.135 402.666 351.884 403.294L292.879 514.182C292.627 514.684 292.124 514.935 291.621 514.935Z" fill="#F7F3E8"/>
<path d="M221.421 551.438C221.17 551.438 220.918 551.438 220.792 551.313C220.163 550.937 219.912 550.059 220.163 549.431L300.304 398.653C300.681 398.026 301.562 397.775 302.191 398.026C302.82 398.403 303.072 399.281 302.82 399.908L222.68 550.686C222.428 551.188 221.925 551.438 221.421 551.438Z" fill="#F7F3E8"/>
<path d="M313.764 377.83C313.513 377.83 313.261 377.83 313.135 377.704C312.506 377.328 312.255 376.45 312.506 375.823L331 341.076C331.378 340.449 332.258 340.198 332.887 340.449C333.516 340.825 333.768 341.703 333.516 342.33L315.022 377.077C314.771 377.579 314.268 377.83 313.764 377.83Z" fill="#F7F3E8"/>
<path d="M171.599 549.808C171.348 549.808 171.096 549.808 170.97 549.682C170.341 549.306 170.089 548.428 170.341 547.8L265.201 369.426C265.579 368.799 266.459 368.548 267.088 368.799C267.718 369.175 267.969 370.053 267.718 370.68L172.731 549.055C172.48 549.557 172.102 549.808 171.599 549.808Z" fill="#F7F3E8"/>
</g>
<defs>
<clipPath id="clip0">
<rect width="1920" height="1080" fill="white"/>
</clipPath>
</defs>
</svg>
