<svg width="1920" height="1080" viewBox="0 0 1920 1080" fill="none" xmlns="http://www.w3.org/2000/svg">
<g clip-path="url(#clip0)">
<path d="M1383.85 686.3L1337.96 686C1335.04 686 1332.64 688.314 1332.64 691.227L1332 783.479C1332 786.393 1334.31 788.793 1337.23 788.793L1397.77 789.221C1400.69 789.221 1403.09 786.907 1403.09 783.994L1403.6 708.538L1383.97 686.814L1383.85 686.3Z" fill="#CF4E31"/>
<path d="M1403.66 791.731C1411.74 783.649 1411.74 770.545 1403.66 762.463C1395.58 754.381 1382.47 754.381 1374.39 762.463C1366.31 770.545 1366.31 783.649 1374.39 791.731C1382.47 799.813 1395.58 799.813 1403.66 791.731Z" fill="white"/>
<path d="M1403.64 708.495L1383.98 686.814L1383.85 686.3H1383.55L1383.38 708.324L1403.64 708.495Z" fill="#7A2B1A"/>
<path d="M1382.39 799.462C1382.18 799.419 1381.96 799.376 1381.66 799.376C1381.1 799.376 1380.5 799.462 1379.82 799.59C1379.09 799.719 1378.36 799.805 1377.63 799.805C1376.78 799.805 1376.09 799.633 1375.49 799.29C1374.46 798.691 1373.91 797.662 1373.48 796.591L1365.76 816.301L1375.23 813.216L1380.12 821.914L1387.62 802.718C1386.37 802.461 1385.35 801.604 1384.4 800.79C1383.72 800.233 1382.99 799.633 1382.39 799.462Z" fill="#F7CE14"/>
<path d="M1401.33 799.419C1400.73 799.762 1400 799.933 1399.19 799.933C1398.46 799.933 1397.73 799.805 1397 799.676C1396.36 799.548 1395.72 799.462 1395.16 799.462C1394.86 799.462 1394.64 799.505 1394.43 799.548C1393.83 799.719 1393.1 800.319 1392.37 800.876C1391.43 801.647 1390.4 802.461 1389.16 802.718L1396.4 822L1401.41 813.388L1410.84 816.601L1403.43 796.805C1402.96 797.834 1402.36 798.862 1401.33 799.419Z" fill="#F7CE14"/>
<path d="M1413.07 778.081C1413.11 778.038 1413.11 777.952 1413.15 777.909C1413.2 777.738 1413.24 777.524 1413.28 777.352C1413.28 777.266 1413.28 777.224 1413.28 777.138C1413.28 776.238 1412.77 775.381 1412.13 774.567C1412.04 774.438 1411.95 774.353 1411.87 774.224C1411.83 774.181 1411.78 774.096 1411.74 774.053C1411.65 773.924 1411.57 773.839 1411.44 773.71C1411.35 773.582 1411.27 773.496 1411.18 773.367C1411.14 773.324 1411.1 773.239 1411.05 773.196C1410.97 773.067 1410.88 772.982 1410.8 772.853C1410.71 772.725 1410.63 772.639 1410.58 772.51C1410.41 772.21 1410.24 771.91 1410.16 771.611C1410.16 771.568 1410.11 771.482 1410.11 771.439C1410.07 771.268 1410.03 771.053 1410.03 770.839C1409.98 770.496 1410.03 770.154 1410.03 769.811C1410.03 769.725 1410.03 769.682 1410.07 769.597C1410.11 769.297 1410.16 768.997 1410.2 768.697C1410.24 768.568 1410.24 768.44 1410.28 768.268C1410.28 768.226 1410.28 768.226 1410.28 768.183C1410.5 766.94 1410.67 765.697 1410.16 764.798C1409.77 764.112 1409.08 763.684 1408.27 763.341C1408.14 763.298 1408.01 763.212 1407.88 763.169C1407.63 763.041 1407.33 762.955 1407.07 762.827C1406.94 762.784 1406.77 762.698 1406.64 762.655C1406.56 762.612 1406.51 762.612 1406.43 762.57C1406.3 762.527 1406.17 762.441 1406.04 762.398C1405.83 762.312 1405.66 762.227 1405.48 762.098C1405.36 762.013 1405.23 761.97 1405.14 761.884C1404.93 761.755 1404.71 761.584 1404.54 761.413C1404.41 761.284 1404.28 761.113 1404.16 760.941C1404.07 760.813 1404.03 760.727 1403.94 760.599C1403.86 760.47 1403.81 760.341 1403.73 760.213C1403.64 760.042 1403.56 759.827 1403.47 759.613C1403.43 759.484 1403.34 759.356 1403.3 759.185C1403.26 759.056 1403.21 758.885 1403.13 758.756C1403.09 758.67 1403.09 758.628 1403.04 758.542C1403 758.413 1402.96 758.285 1402.91 758.199C1402.87 758.113 1402.83 758.028 1402.83 757.942C1402.7 757.599 1402.53 757.256 1402.4 756.956C1402.31 756.828 1402.27 756.699 1402.19 756.614C1402.1 756.485 1402.01 756.399 1401.97 756.271C1401.8 756.057 1401.63 755.885 1401.41 755.757C1401.37 755.714 1401.33 755.671 1401.24 755.671C1401.2 755.628 1401.11 755.628 1401.07 755.585C1401.07 755.585 1401.03 755.585 1401.03 755.542C1400.99 755.542 1400.94 755.5 1400.9 755.5C1400.86 755.5 1400.86 755.5 1400.81 755.457C1400.77 755.457 1400.73 755.414 1400.73 755.414C1400.69 755.414 1400.69 755.414 1400.64 755.371C1400.6 755.371 1400.56 755.371 1400.56 755.328C1400.51 755.328 1400.51 755.328 1400.47 755.328C1400.43 755.328 1400.39 755.328 1400.39 755.328C1400.34 755.328 1400.34 755.328 1400.3 755.328C1400.26 755.328 1400.21 755.328 1400.21 755.328C1400.17 755.328 1400.17 755.328 1400.13 755.328C1400.09 755.328 1400.04 755.328 1400 755.328C1399.96 755.328 1399.91 755.328 1399.91 755.328C1399.87 755.328 1399.83 755.328 1399.79 755.328C1399.74 755.328 1399.74 755.328 1399.7 755.328C1399.66 755.328 1399.61 755.328 1399.57 755.328C1399.53 755.328 1399.53 755.328 1399.49 755.328C1399.44 755.328 1399.4 755.328 1399.36 755.328C1399.31 755.328 1399.31 755.328 1399.27 755.328C1399.23 755.328 1399.14 755.328 1399.1 755.328H1399.06C1398.97 755.328 1398.89 755.328 1398.8 755.371C1398.8 755.371 1398.8 755.371 1398.76 755.371C1398.67 755.371 1398.63 755.371 1398.54 755.414C1398.5 755.414 1398.5 755.414 1398.46 755.414C1398.41 755.414 1398.33 755.414 1398.29 755.457C1398.24 755.457 1398.24 755.457 1398.2 755.457C1398.16 755.457 1398.07 755.457 1398.03 755.5C1397.99 755.5 1397.99 755.5 1397.94 755.5C1397.86 755.5 1397.77 755.542 1397.73 755.542C1397.69 755.542 1397.64 755.542 1397.6 755.542C1397.56 755.542 1397.51 755.542 1397.47 755.585C1397.39 755.585 1397.34 755.585 1397.26 755.628H1397.21C1397.13 755.628 1397.04 755.671 1396.96 755.671C1396.92 755.671 1396.92 755.671 1396.87 755.671C1396.83 755.671 1396.74 755.671 1396.7 755.671C1396.66 755.671 1396.66 755.671 1396.62 755.671C1396.57 755.671 1396.53 755.671 1396.49 755.671C1396.44 755.671 1396.44 755.671 1396.4 755.671C1396.36 755.671 1396.32 755.671 1396.27 755.671C1396.23 755.671 1396.23 755.671 1396.19 755.671C1396.14 755.671 1396.1 755.671 1396.06 755.671C1396.02 755.671 1396.02 755.671 1395.97 755.671C1395.93 755.671 1395.84 755.671 1395.8 755.671H1395.76C1395.67 755.671 1395.59 755.671 1395.5 755.671H1395.46C1395.42 755.671 1395.33 755.671 1395.29 755.671C1395.24 755.671 1395.24 755.671 1395.2 755.671C1395.16 755.671 1395.07 755.671 1395.03 755.628C1394.99 755.628 1394.99 755.628 1394.94 755.628C1394.86 755.628 1394.82 755.585 1394.73 755.585C1394.43 755.5 1394.13 755.371 1393.83 755.2C1393.7 755.114 1393.62 755.071 1393.49 754.985C1393.32 754.857 1393.14 754.728 1392.97 754.6C1392.93 754.557 1392.84 754.514 1392.8 754.471C1392.59 754.3 1392.33 754.086 1392.12 753.914C1391.94 753.786 1391.77 753.614 1391.6 753.486C1390.79 752.843 1389.93 752.329 1389.03 752.286C1387.19 752.286 1385.65 754.386 1383.97 755.243C1383.85 755.285 1383.72 755.371 1383.63 755.414C1383.5 755.457 1383.38 755.5 1383.29 755.542C1383.2 755.542 1383.16 755.585 1383.08 755.585C1383.03 755.585 1383.03 755.585 1382.99 755.585C1382.95 755.585 1382.9 755.585 1382.82 755.628C1382.78 755.628 1382.78 755.628 1382.73 755.628C1382.69 755.628 1382.6 755.628 1382.56 755.628C1382.52 755.628 1382.52 755.628 1382.48 755.628C1382.39 755.628 1382.3 755.628 1382.22 755.628H1382.18C1382.13 755.628 1382.05 755.628 1382 755.628C1381.96 755.628 1381.96 755.628 1381.92 755.628C1381.88 755.628 1381.83 755.628 1381.79 755.628C1381.75 755.628 1381.75 755.628 1381.7 755.628C1381.66 755.628 1381.62 755.628 1381.58 755.628C1381.53 755.628 1381.53 755.628 1381.49 755.628C1381.45 755.628 1381.4 755.628 1381.36 755.628C1381.32 755.628 1381.32 755.628 1381.28 755.628C1381.23 755.628 1381.15 755.628 1381.1 755.585C1381.06 755.585 1381.06 755.585 1381.02 755.585C1380.93 755.585 1380.85 755.542 1380.76 755.542C1380.76 755.542 1380.76 755.542 1380.72 755.542C1380.63 755.542 1380.59 755.5 1380.5 755.5C1380.46 755.5 1380.42 755.5 1380.42 755.5C1380.38 755.5 1380.29 755.5 1380.25 755.457C1380.2 755.457 1380.12 755.457 1380.08 755.414C1380.03 755.414 1379.99 755.414 1379.99 755.414C1379.95 755.414 1379.9 755.414 1379.86 755.371C1379.82 755.371 1379.78 755.371 1379.78 755.371C1379.73 755.371 1379.69 755.371 1379.6 755.328C1379.56 755.328 1379.56 755.328 1379.52 755.328C1379.48 755.328 1379.39 755.328 1379.35 755.285H1379.3C1379.22 755.285 1379.13 755.285 1379.09 755.243H1379.05C1379 755.243 1378.92 755.243 1378.88 755.243C1378.83 755.243 1378.83 755.243 1378.79 755.243C1378.75 755.243 1378.7 755.243 1378.66 755.243C1378.62 755.243 1378.62 755.243 1378.58 755.243C1378.53 755.243 1378.49 755.243 1378.45 755.243C1378.4 755.243 1378.4 755.243 1378.36 755.243C1378.32 755.243 1378.28 755.243 1378.23 755.243C1378.19 755.243 1378.19 755.243 1378.15 755.243C1378.1 755.243 1378.06 755.243 1378.02 755.243C1377.98 755.243 1377.98 755.243 1377.93 755.243C1377.89 755.243 1377.85 755.243 1377.8 755.243C1377.76 755.243 1377.76 755.243 1377.72 755.243C1377.68 755.243 1377.63 755.243 1377.59 755.243C1377.55 755.243 1377.55 755.243 1377.5 755.243C1377.46 755.243 1377.42 755.243 1377.38 755.285C1377.33 755.285 1377.33 755.285 1377.29 755.285C1377.25 755.285 1377.2 755.328 1377.16 755.328C1377.12 755.328 1377.12 755.328 1377.08 755.371C1377.03 755.371 1376.99 755.414 1376.95 755.414C1376.95 755.414 1376.9 755.414 1376.9 755.457C1376.86 755.5 1376.78 755.5 1376.73 755.542C1376.61 755.585 1376.52 755.671 1376.43 755.757C1376.31 755.885 1376.13 756.014 1376.01 756.185C1375.79 756.442 1375.62 756.742 1375.45 757.042C1375.41 757.085 1375.36 757.171 1375.36 757.214C1375.32 757.342 1375.23 757.471 1375.19 757.599C1375.02 757.985 1374.85 758.413 1374.68 758.842C1374.59 759.056 1374.51 759.27 1374.42 759.442C1374.38 759.527 1374.38 759.57 1374.33 759.656C1374.29 759.784 1374.25 759.87 1374.16 759.999C1374.08 760.127 1374.03 760.299 1373.95 760.427C1373.91 760.513 1373.82 760.599 1373.78 760.684C1373.73 760.77 1373.69 760.856 1373.61 760.898C1373.52 760.984 1373.43 761.113 1373.35 761.198C1373.22 761.327 1373.05 761.456 1372.88 761.584C1372.75 761.67 1372.66 761.713 1372.53 761.798C1372.49 761.841 1372.41 761.884 1372.36 761.884C1372.19 761.97 1371.98 762.055 1371.76 762.141C1371.68 762.184 1371.63 762.184 1371.55 762.227C1371.42 762.27 1371.29 762.355 1371.12 762.398C1370.65 762.57 1370.13 762.741 1369.66 762.955C1369.54 762.998 1369.41 763.084 1369.28 763.127C1368.55 763.469 1367.95 763.855 1367.61 764.498C1367.52 764.669 1367.44 764.841 1367.39 765.012C1367.35 765.14 1367.35 765.226 1367.31 765.355C1367.31 765.44 1367.26 765.526 1367.26 765.569C1367.26 765.697 1367.22 765.826 1367.22 765.955C1367.22 766.083 1367.22 766.212 1367.22 766.383C1367.22 766.469 1367.22 766.512 1367.22 766.597C1367.22 766.897 1367.26 767.154 1367.31 767.454C1367.31 767.583 1367.35 767.754 1367.39 767.883C1367.44 768.011 1367.44 768.183 1367.48 768.311C1367.52 768.44 1367.52 768.611 1367.52 768.74C1367.56 768.954 1367.56 769.168 1367.61 769.382C1367.61 769.597 1367.65 769.811 1367.65 770.025C1367.65 770.368 1367.61 770.711 1367.52 771.011C1367.48 771.139 1367.44 771.268 1367.39 771.353C1367.35 771.482 1367.31 771.611 1367.22 771.696C1367.18 771.739 1367.14 771.825 1367.14 771.868C1367.05 771.996 1367.01 772.082 1366.92 772.21C1366.84 772.339 1366.75 772.425 1366.66 772.553C1365.68 773.881 1364.22 775.167 1364.22 776.667C1364.22 778.509 1366.32 780.052 1367.18 781.723C1367.22 781.766 1367.22 781.851 1367.26 781.894C1367.35 782.065 1367.39 782.237 1367.48 782.451C1367.52 782.58 1367.52 782.708 1367.56 782.837C1367.56 782.965 1367.61 783.094 1367.61 783.222C1367.61 783.437 1367.61 783.651 1367.61 783.865C1367.61 784.079 1367.56 784.294 1367.52 784.508C1367.52 784.636 1367.48 784.808 1367.44 784.936C1367.39 785.236 1367.35 785.536 1367.31 785.836C1367.22 786.265 1367.18 786.736 1367.14 787.122C1367.14 787.25 1367.14 787.421 1367.14 787.55C1367.14 788.107 1367.22 788.621 1367.48 789.05C1368.21 790.292 1370.01 790.764 1371.55 791.406C1371.59 791.449 1371.68 791.449 1371.72 791.492C1371.93 791.578 1372.15 791.706 1372.32 791.792C1372.36 791.835 1372.45 791.878 1372.49 791.878C1372.58 791.921 1372.66 791.963 1372.75 792.049C1372.92 792.178 1373.05 792.306 1373.18 792.435C1373.35 792.606 1373.48 792.777 1373.61 792.992C1373.65 793.035 1373.65 793.077 1373.69 793.12C1373.82 793.292 1373.91 793.506 1373.99 793.72C1374.03 793.806 1374.08 793.892 1374.12 793.977C1374.25 794.234 1374.33 794.534 1374.46 794.791V794.834C1374.63 795.22 1374.76 795.648 1374.93 796.034C1374.98 796.12 1374.98 796.162 1375.02 796.248C1375.36 797.062 1375.79 797.748 1376.48 798.133C1376.95 798.391 1377.46 798.519 1378.06 798.519C1379.35 798.519 1380.8 798.091 1382.09 798.091C1382.43 798.091 1382.78 798.133 1383.12 798.219C1383.42 798.305 1383.72 798.433 1384.02 798.605C1384.32 798.776 1384.62 798.99 1384.87 799.205C1384.92 799.248 1385 799.29 1385.05 799.333C1385.26 799.505 1385.52 799.719 1385.73 799.89C1385.9 800.019 1386.07 800.19 1386.25 800.319C1386.97 800.876 1387.66 801.347 1388.47 801.476C1388.6 801.476 1388.73 801.518 1388.82 801.518C1388.95 801.518 1389.07 801.518 1389.16 801.476C1390.83 801.219 1392.29 799.376 1393.83 798.562C1393.87 798.519 1393.96 798.519 1394 798.476C1394.17 798.391 1394.34 798.348 1394.56 798.262C1394.86 798.176 1395.2 798.133 1395.59 798.133C1396.87 798.133 1398.33 798.605 1399.61 798.605C1400.17 798.605 1400.73 798.519 1401.2 798.262C1402.7 797.405 1403.04 795.048 1403.94 793.42C1403.98 793.377 1403.98 793.334 1404.03 793.292C1404.07 793.206 1404.16 793.12 1404.2 793.035C1404.33 792.863 1404.46 792.735 1404.58 792.606C1404.71 792.478 1404.88 792.349 1405.06 792.22C1405.18 792.135 1405.27 792.092 1405.4 792.006C1405.44 791.963 1405.53 791.921 1405.57 791.921C1406.08 791.663 1406.64 791.449 1407.2 791.235C1407.5 791.149 1407.76 791.021 1408.06 790.935C1408.4 790.806 1408.74 790.635 1409.04 790.507C1409.6 790.207 1410.07 789.864 1410.37 789.35C1410.54 789.007 1410.67 788.664 1410.71 788.278C1410.71 788.15 1410.75 788.021 1410.75 787.893C1410.75 787.679 1410.75 787.464 1410.75 787.25C1410.75 787.122 1410.71 786.95 1410.71 786.822C1410.71 786.693 1410.67 786.522 1410.67 786.393C1410.67 786.265 1410.63 786.093 1410.58 785.965C1410.5 785.536 1410.46 785.065 1410.41 784.636C1410.41 784.551 1410.41 784.508 1410.41 784.422C1410.41 784.208 1410.37 783.994 1410.37 783.779C1410.37 783.694 1410.37 783.651 1410.37 783.565C1410.37 783.437 1410.37 783.308 1410.41 783.179C1410.41 783.094 1410.41 783.051 1410.46 782.965C1410.5 782.88 1410.5 782.837 1410.5 782.794C1410.58 782.451 1410.75 782.065 1411.01 781.723C1411.14 781.508 1411.31 781.251 1411.53 781.037C1411.57 780.994 1411.61 780.909 1411.65 780.866C1411.78 780.694 1411.95 780.523 1412.08 780.352C1412.13 779.666 1412.77 778.895 1413.07 778.081ZM1388.43 796.291C1377.76 796.205 1369.15 787.507 1369.24 776.838C1369.32 766.169 1378.02 757.556 1388.69 757.642C1399.36 757.728 1407.97 766.426 1407.88 777.095C1407.8 787.764 1399.1 796.334 1388.43 796.291Z" fill="#F7CE14"/>
<path d="M1388.69 759.313C1378.96 759.227 1370.99 767.111 1370.91 776.838C1370.82 786.564 1378.7 794.534 1388.43 794.62C1398.16 794.706 1406.13 786.821 1406.21 777.095C1406.3 767.326 1398.41 759.399 1388.69 759.313ZM1386.5 786.993L1377.76 777.866L1380.89 774.867L1386.76 780.994L1398.5 770.582L1401.37 773.839L1386.5 786.993Z" fill="#F7CE14"/>
<path d="M1362.12 716.251L1348.15 742.731C1347.55 743.888 1348.63 745.173 1349.87 744.83L1359.98 741.959C1361.05 741.659 1362.04 742.559 1361.82 743.63L1358.31 762.526C1358.01 764.198 1360.32 764.969 1361.09 763.426L1377.03 730.947C1377.59 729.791 1376.52 728.505 1375.28 728.891L1364.82 732.061C1363.79 732.361 1362.77 731.504 1362.94 730.433L1364.95 717.022C1365.12 715.479 1362.89 714.751 1362.12 716.251Z" fill="#F7CE14"/>
<path d="M1351.41 706.096C1351.41 706.181 1351.41 706.224 1351.37 706.267C1351.32 706.31 1351.28 706.353 1351.15 706.396C1351.07 706.438 1350.9 706.438 1350.68 706.481C1350.47 706.481 1350.21 706.481 1349.87 706.481C1349.57 706.481 1349.35 706.481 1349.18 706.438C1349.01 706.438 1348.88 706.396 1348.75 706.353C1348.67 706.31 1348.58 706.267 1348.54 706.224C1348.5 706.181 1348.45 706.096 1348.45 706.01L1347.3 703.011C1347.17 702.668 1347 702.368 1346.87 702.111C1346.74 701.854 1346.57 701.64 1346.4 701.468C1346.22 701.297 1346.05 701.168 1345.8 701.082C1345.58 700.997 1345.32 700.954 1345.02 700.954H1344.17L1344.13 706.053C1344.13 706.139 1344.08 706.181 1344.04 706.224C1344 706.267 1343.91 706.31 1343.83 706.353C1343.74 706.396 1343.57 706.396 1343.4 706.438C1343.23 706.438 1343.01 706.481 1342.75 706.481C1342.5 706.481 1342.28 706.481 1342.11 706.438C1341.94 706.396 1341.81 706.396 1341.68 706.353C1341.6 706.31 1341.51 706.267 1341.47 706.224C1341.43 706.181 1341.43 706.096 1341.43 706.053L1341.51 693.927C1341.51 693.627 1341.6 693.413 1341.77 693.284C1341.94 693.156 1342.11 693.07 1342.33 693.07L1345.8 693.113C1346.14 693.113 1346.44 693.113 1346.65 693.156C1346.87 693.156 1347.08 693.198 1347.25 693.198C1347.81 693.284 1348.28 693.413 1348.71 693.584C1349.14 693.755 1349.48 694.013 1349.78 694.312C1350.08 694.612 1350.3 694.955 1350.47 695.384C1350.64 695.812 1350.68 696.283 1350.68 696.798C1350.68 697.226 1350.64 697.655 1350.51 698.04C1350.38 698.426 1350.21 698.726 1350 699.026C1349.78 699.326 1349.48 699.583 1349.18 699.754C1348.84 699.968 1348.5 700.14 1348.07 700.268C1348.28 700.354 1348.45 700.483 1348.62 700.611C1348.8 700.74 1348.97 700.911 1349.1 701.125C1349.27 701.34 1349.4 701.554 1349.52 701.811C1349.65 702.068 1349.78 702.368 1349.91 702.668L1351.02 705.324C1351.11 705.582 1351.2 705.796 1351.24 705.881C1351.41 705.924 1351.41 706.053 1351.41 706.096ZM1347.98 697.012C1347.98 696.583 1347.9 696.198 1347.68 695.898C1347.47 695.598 1347.17 695.384 1346.7 695.255C1346.57 695.212 1346.4 695.212 1346.22 695.169C1346.05 695.127 1345.8 695.127 1345.5 695.127H1344.3L1344.25 698.897H1345.62C1346.01 698.897 1346.35 698.854 1346.65 698.769C1346.95 698.683 1347.17 698.554 1347.38 698.383C1347.6 698.212 1347.72 697.997 1347.81 697.783C1347.94 697.569 1347.98 697.312 1347.98 697.012Z" fill="white"/>
<path d="M1361.35 705.453C1361.35 705.667 1361.35 705.838 1361.31 705.967C1361.26 706.095 1361.26 706.224 1361.22 706.31C1361.18 706.395 1361.13 706.438 1361.09 706.481C1361.05 706.524 1360.96 706.524 1360.92 706.524L1354.19 706.481C1353.98 706.481 1353.77 706.395 1353.64 706.267C1353.51 706.138 1353.42 705.924 1353.42 705.624L1353.51 693.969C1353.51 693.669 1353.59 693.455 1353.77 693.327C1353.94 693.198 1354.11 693.112 1354.32 693.112L1361.01 693.155C1361.05 693.155 1361.13 693.155 1361.18 693.198C1361.22 693.241 1361.26 693.284 1361.31 693.369C1361.35 693.455 1361.35 693.584 1361.39 693.712C1361.39 693.841 1361.43 694.012 1361.43 694.226C1361.43 694.441 1361.43 694.569 1361.39 694.698C1361.39 694.826 1361.35 694.955 1361.31 695.04C1361.26 695.126 1361.22 695.169 1361.18 695.212C1361.13 695.255 1361.09 695.255 1361.01 695.255L1356.25 695.212L1356.21 698.468L1360.24 698.511C1360.28 698.511 1360.36 698.511 1360.41 698.554C1360.45 698.597 1360.49 698.64 1360.54 698.725C1360.58 698.811 1360.58 698.897 1360.62 699.025C1360.62 699.154 1360.66 699.325 1360.66 699.497C1360.66 699.711 1360.66 699.882 1360.62 700.011C1360.62 700.139 1360.58 700.225 1360.54 700.311C1360.49 700.396 1360.45 700.439 1360.41 700.482C1360.36 700.525 1360.28 700.525 1360.24 700.525L1356.16 700.568L1356.12 704.339L1360.92 704.381C1360.96 704.381 1361.05 704.381 1361.09 704.424C1361.13 704.467 1361.18 704.51 1361.22 704.596C1361.26 704.681 1361.26 704.767 1361.31 704.938C1361.35 705.11 1361.35 705.281 1361.35 705.453Z" fill="white"/>
<path d="M1372.7 704.596C1372.7 704.767 1372.7 704.896 1372.7 705.024C1372.7 705.153 1372.66 705.238 1372.66 705.324C1372.66 705.41 1372.62 705.496 1372.58 705.538C1372.53 705.581 1372.49 705.667 1372.4 705.753C1372.32 705.838 1372.19 705.924 1371.98 706.053C1371.76 706.181 1371.5 706.31 1371.16 706.395C1370.86 706.524 1370.48 706.61 1370.09 706.652C1369.7 706.695 1369.23 706.781 1368.76 706.738C1367.86 706.738 1367.01 706.567 1366.28 706.31C1365.55 706.01 1364.91 705.581 1364.39 705.024C1363.88 704.467 1363.49 703.739 1363.23 702.925C1362.98 702.068 1362.85 701.082 1362.85 699.968C1362.85 698.811 1363.02 697.826 1363.32 696.926C1363.62 696.026 1364.05 695.298 1364.61 694.698C1365.16 694.098 1365.81 693.669 1366.58 693.327C1367.35 693.027 1368.16 692.855 1369.1 692.898C1369.49 692.898 1369.83 692.941 1370.18 692.984C1370.52 693.07 1370.82 693.112 1371.12 693.241C1371.42 693.327 1371.68 693.455 1371.89 693.584C1372.1 693.712 1372.28 693.841 1372.36 693.927C1372.45 694.012 1372.53 694.098 1372.53 694.141C1372.58 694.184 1372.58 694.269 1372.62 694.398C1372.66 694.526 1372.66 694.612 1372.66 694.741C1372.66 694.869 1372.66 695.041 1372.66 695.212C1372.66 695.426 1372.66 695.598 1372.62 695.726C1372.62 695.855 1372.58 695.983 1372.53 696.069C1372.49 696.155 1372.45 696.24 1372.4 696.283C1372.36 696.326 1372.32 696.326 1372.23 696.326C1372.15 696.326 1372.02 696.283 1371.85 696.155C1371.68 696.026 1371.5 695.898 1371.25 695.726C1370.99 695.598 1370.69 695.426 1370.35 695.298C1370 695.169 1369.58 695.126 1369.1 695.126C1368.59 695.126 1368.12 695.212 1367.69 695.426C1367.26 695.64 1366.92 695.94 1366.62 696.369C1366.32 696.755 1366.11 697.269 1365.93 697.826C1365.76 698.383 1365.72 699.025 1365.68 699.754C1365.68 700.525 1365.76 701.211 1365.89 701.811C1366.06 702.368 1366.28 702.882 1366.58 703.225C1366.88 703.61 1367.22 703.867 1367.65 704.082C1368.08 704.253 1368.55 704.381 1369.06 704.381C1369.53 704.381 1369.96 704.339 1370.3 704.21C1370.65 704.082 1370.95 703.996 1371.2 703.824C1371.46 703.696 1371.68 703.567 1371.85 703.439C1372.02 703.31 1372.15 703.267 1372.23 703.267C1372.32 703.267 1372.36 703.267 1372.4 703.31C1372.45 703.353 1372.49 703.396 1372.49 703.482C1372.49 703.567 1372.53 703.696 1372.53 703.824C1372.7 704.124 1372.7 704.339 1372.7 704.596Z" fill="white"/>
</g>
<defs>
<clipPath id="clip0">
<rect width="1920" height="1080" fill="white"/>
</clipPath>
</defs>
</svg>
