<svg width="1920" height="1080" viewBox="0 0 1920 1080" fill="none" xmlns="http://www.w3.org/2000/svg">
<g clip-path="url(#clip0)">
<path d="M862.846 609.3L816.956 609C814.042 609 811.643 611.314 811.643 614.227L811 706.479C811 709.393 813.314 711.793 816.227 711.793L876.772 712.221C879.686 712.221 882.085 709.907 882.085 706.994L882.599 631.538L862.975 609.814L862.846 609.3Z" fill="#CF4E31"/>
<path d="M882.658 714.731C890.74 706.649 890.74 693.545 882.658 685.463C874.576 677.381 861.472 677.381 853.39 685.463C845.308 693.545 845.308 706.649 853.39 714.731C861.472 722.813 874.576 722.813 882.658 714.731Z" fill="white"/>
<path d="M882.643 631.495L862.975 609.814L862.847 609.3H862.547L862.375 631.324L882.643 631.495Z" fill="#7A2B1A"/>
<path d="M861.39 722.462C861.176 722.419 860.961 722.376 860.661 722.376C860.104 722.376 859.505 722.462 858.819 722.59C858.091 722.719 857.362 722.805 856.634 722.805C855.777 722.805 855.091 722.633 854.491 722.29C853.463 721.691 852.906 720.662 852.477 719.591L844.765 739.301L854.234 736.216L859.119 744.914L866.617 725.718C865.375 725.461 864.346 724.604 863.404 723.79C862.718 723.233 861.99 722.633 861.39 722.462Z" fill="#F7CE14"/>
<path d="M880.329 722.419C879.729 722.762 879 722.933 878.186 722.933C877.458 722.933 876.729 722.805 876.001 722.676C875.358 722.548 874.716 722.462 874.159 722.462C873.859 722.462 873.644 722.505 873.43 722.548C872.83 722.719 872.102 723.319 871.373 723.876C870.431 724.647 869.402 725.461 868.16 725.718L875.401 745L880.414 736.388L889.841 739.601L882.428 719.805C881.957 720.834 881.357 721.862 880.329 722.419Z" fill="#F7CE14"/>
<path d="M892.069 701.081C892.112 701.038 892.112 700.952 892.155 700.909C892.197 700.738 892.24 700.524 892.283 700.352C892.283 700.266 892.283 700.224 892.283 700.138C892.283 699.238 891.769 698.381 891.126 697.567C891.04 697.438 890.955 697.353 890.869 697.224C890.826 697.181 890.783 697.096 890.741 697.053C890.655 696.924 890.569 696.839 890.441 696.71C890.355 696.582 890.269 696.496 890.184 696.367C890.141 696.324 890.098 696.239 890.055 696.196C889.969 696.067 889.884 695.982 889.798 695.853C889.712 695.725 889.626 695.639 889.584 695.51C889.412 695.21 889.241 694.91 889.155 694.611C889.155 694.568 889.112 694.482 889.112 694.439C889.069 694.268 889.027 694.053 889.027 693.839C888.984 693.496 889.027 693.154 889.027 692.811C889.027 692.725 889.027 692.682 889.069 692.597C889.112 692.297 889.155 691.997 889.198 691.697C889.241 691.568 889.241 691.44 889.284 691.268C889.284 691.226 889.284 691.226 889.284 691.183C889.498 689.94 889.669 688.697 889.155 687.798C888.77 687.112 888.084 686.684 887.27 686.341C887.141 686.298 887.013 686.212 886.884 686.169C886.627 686.041 886.327 685.955 886.07 685.827C885.942 685.784 885.77 685.698 885.642 685.655C885.556 685.612 885.513 685.612 885.427 685.57C885.299 685.527 885.17 685.441 885.042 685.398C884.827 685.312 884.656 685.227 884.485 685.098C884.356 685.013 884.228 684.97 884.142 684.884C883.928 684.755 883.713 684.584 883.542 684.413C883.414 684.284 883.285 684.113 883.156 683.941C883.071 683.813 883.028 683.727 882.942 683.599C882.856 683.47 882.814 683.341 882.728 683.213C882.642 683.042 882.557 682.827 882.471 682.613C882.428 682.484 882.342 682.356 882.299 682.185C882.257 682.056 882.214 681.885 882.128 681.756C882.085 681.67 882.085 681.628 882.042 681.542C882 681.413 881.957 681.285 881.914 681.199C881.871 681.113 881.828 681.028 881.828 680.942C881.7 680.599 881.528 680.256 881.4 679.956C881.314 679.828 881.271 679.699 881.185 679.614C881.1 679.485 881.014 679.399 880.971 679.271C880.8 679.057 880.628 678.885 880.414 678.757C880.371 678.714 880.328 678.671 880.243 678.671C880.2 678.628 880.114 678.628 880.071 678.585C880.071 678.585 880.029 678.585 880.029 678.542C879.986 678.542 879.943 678.5 879.9 678.5C879.857 678.5 879.857 678.5 879.814 678.457C879.771 678.457 879.729 678.414 879.729 678.414C879.686 678.414 879.686 678.414 879.643 678.371C879.6 678.371 879.557 678.371 879.557 678.328C879.514 678.328 879.514 678.328 879.471 678.328C879.429 678.328 879.386 678.328 879.386 678.328C879.343 678.328 879.343 678.328 879.3 678.328C879.257 678.328 879.214 678.328 879.214 678.328C879.172 678.328 879.172 678.328 879.129 678.328C879.086 678.328 879.043 678.328 879 678.328C878.957 678.328 878.914 678.328 878.914 678.328C878.872 678.328 878.829 678.328 878.786 678.328C878.743 678.328 878.743 678.328 878.7 678.328C878.657 678.328 878.615 678.328 878.572 678.328C878.529 678.328 878.529 678.328 878.486 678.328C878.443 678.328 878.4 678.328 878.357 678.328C878.315 678.328 878.315 678.328 878.272 678.328C878.229 678.328 878.143 678.328 878.1 678.328H878.057C877.972 678.328 877.886 678.328 877.8 678.371C877.8 678.371 877.8 678.371 877.758 678.371C877.672 678.371 877.629 678.371 877.543 678.414C877.5 678.414 877.5 678.414 877.458 678.414C877.415 678.414 877.329 678.414 877.286 678.457C877.243 678.457 877.243 678.457 877.201 678.457C877.158 678.457 877.072 678.457 877.029 678.5C876.986 678.5 876.986 678.5 876.943 678.5C876.858 678.5 876.772 678.542 876.729 678.542C876.686 678.542 876.644 678.542 876.601 678.542C876.558 678.542 876.515 678.542 876.472 678.585C876.386 678.585 876.344 678.585 876.258 678.628H876.215C876.129 678.628 876.044 678.671 875.958 678.671C875.915 678.671 875.915 678.671 875.872 678.671C875.829 678.671 875.744 678.671 875.701 678.671C875.658 678.671 875.658 678.671 875.615 678.671C875.572 678.671 875.529 678.671 875.487 678.671C875.444 678.671 875.444 678.671 875.401 678.671C875.358 678.671 875.315 678.671 875.272 678.671C875.23 678.671 875.23 678.671 875.187 678.671C875.144 678.671 875.101 678.671 875.058 678.671C875.015 678.671 875.015 678.671 874.972 678.671C874.93 678.671 874.844 678.671 874.801 678.671H874.758C874.672 678.671 874.587 678.671 874.501 678.671H874.458C874.415 678.671 874.33 678.671 874.287 678.671C874.244 678.671 874.244 678.671 874.201 678.671C874.158 678.671 874.073 678.671 874.03 678.628C873.987 678.628 873.987 678.628 873.944 678.628C873.858 678.628 873.816 678.585 873.73 678.585C873.43 678.5 873.13 678.371 872.83 678.2C872.701 678.114 872.616 678.071 872.487 677.985C872.316 677.857 872.144 677.728 871.973 677.6C871.93 677.557 871.845 677.514 871.802 677.471C871.587 677.3 871.33 677.086 871.116 676.914C870.945 676.786 870.773 676.614 870.602 676.486C869.788 675.843 868.931 675.329 868.031 675.286C866.189 675.286 864.646 677.386 862.975 678.243C862.846 678.285 862.718 678.371 862.632 678.414C862.504 678.457 862.375 678.5 862.289 678.542C862.204 678.542 862.161 678.585 862.075 678.585C862.032 678.585 862.032 678.585 861.989 678.585C861.947 678.585 861.904 678.585 861.818 678.628C861.775 678.628 861.775 678.628 861.732 678.628C861.69 678.628 861.604 678.628 861.561 678.628C861.518 678.628 861.518 678.628 861.475 678.628C861.39 678.628 861.304 678.628 861.218 678.628H861.175C861.132 678.628 861.047 678.628 861.004 678.628C860.961 678.628 860.961 678.628 860.918 678.628C860.875 678.628 860.833 678.628 860.79 678.628C860.747 678.628 860.747 678.628 860.704 678.628C860.661 678.628 860.618 678.628 860.575 678.628C860.533 678.628 860.533 678.628 860.49 678.628C860.447 678.628 860.404 678.628 860.361 678.628C860.318 678.628 860.318 678.628 860.276 678.628C860.233 678.628 860.147 678.628 860.104 678.585C860.061 678.585 860.061 678.585 860.018 678.585C859.933 678.585 859.847 678.542 859.761 678.542C859.761 678.542 859.761 678.542 859.719 678.542C859.633 678.542 859.59 678.5 859.504 678.5C859.461 678.5 859.419 678.5 859.419 678.5C859.376 678.5 859.29 678.5 859.247 678.457C859.204 678.457 859.119 678.457 859.076 678.414C859.033 678.414 858.99 678.414 858.99 678.414C858.947 678.414 858.904 678.414 858.862 678.371C858.819 678.371 858.776 678.371 858.776 678.371C858.733 678.371 858.69 678.371 858.604 678.328C858.562 678.328 858.562 678.328 858.519 678.328C858.476 678.328 858.39 678.328 858.347 678.285H858.305C858.219 678.285 858.133 678.285 858.09 678.243H858.047C858.005 678.243 857.919 678.243 857.876 678.243C857.833 678.243 857.833 678.243 857.79 678.243C857.747 678.243 857.705 678.243 857.662 678.243C857.619 678.243 857.619 678.243 857.576 678.243C857.533 678.243 857.49 678.243 857.448 678.243C857.405 678.243 857.405 678.243 857.362 678.243C857.319 678.243 857.276 678.243 857.233 678.243C857.19 678.243 857.19 678.243 857.148 678.243C857.105 678.243 857.062 678.243 857.019 678.243C856.976 678.243 856.976 678.243 856.933 678.243C856.891 678.243 856.848 678.243 856.805 678.243C856.762 678.243 856.762 678.243 856.719 678.243C856.676 678.243 856.633 678.243 856.591 678.243C856.548 678.243 856.548 678.243 856.505 678.243C856.462 678.243 856.419 678.243 856.376 678.285C856.334 678.285 856.334 678.285 856.291 678.285C856.248 678.285 856.205 678.328 856.162 678.328C856.119 678.328 856.119 678.328 856.076 678.371C856.034 678.371 855.991 678.414 855.948 678.414C855.948 678.414 855.905 678.414 855.905 678.457C855.862 678.5 855.776 678.5 855.734 678.542C855.605 678.585 855.519 678.671 855.434 678.757C855.305 678.885 855.134 679.014 855.005 679.185C854.791 679.442 854.62 679.742 854.448 680.042C854.405 680.085 854.362 680.171 854.362 680.214C854.32 680.342 854.234 680.471 854.191 680.599C854.02 680.985 853.848 681.413 853.677 681.842C853.591 682.056 853.506 682.27 853.42 682.442C853.377 682.527 853.377 682.57 853.334 682.656C853.291 682.784 853.248 682.87 853.163 682.999C853.077 683.127 853.034 683.299 852.949 683.427C852.906 683.513 852.82 683.599 852.777 683.684C852.734 683.77 852.691 683.856 852.606 683.898C852.52 683.984 852.434 684.113 852.349 684.198C852.22 684.327 852.049 684.456 851.877 684.584C851.749 684.67 851.663 684.713 851.535 684.798C851.492 684.841 851.406 684.884 851.363 684.884C851.192 684.97 850.977 685.055 850.763 685.141C850.678 685.184 850.635 685.184 850.549 685.227C850.42 685.27 850.292 685.355 850.121 685.398C849.649 685.57 849.135 685.741 848.664 685.955C848.535 685.998 848.407 686.084 848.278 686.127C847.55 686.469 846.95 686.855 846.607 687.498C846.521 687.669 846.436 687.841 846.393 688.012C846.35 688.14 846.35 688.226 846.307 688.355C846.307 688.44 846.264 688.526 846.264 688.569C846.264 688.697 846.221 688.826 846.221 688.955C846.221 689.083 846.221 689.212 846.221 689.383C846.221 689.469 846.221 689.512 846.221 689.597C846.221 689.897 846.264 690.154 846.307 690.454C846.307 690.583 846.35 690.754 846.393 690.883C846.436 691.011 846.436 691.183 846.478 691.311C846.521 691.44 846.521 691.611 846.521 691.74C846.564 691.954 846.564 692.168 846.607 692.382C846.607 692.597 846.65 692.811 846.65 693.025C846.65 693.368 846.607 693.711 846.521 694.011C846.478 694.139 846.436 694.268 846.393 694.353C846.35 694.482 846.307 694.611 846.221 694.696C846.179 694.739 846.136 694.825 846.136 694.868C846.05 694.996 846.007 695.082 845.921 695.21C845.836 695.339 845.75 695.425 845.664 695.553C844.679 696.881 843.222 698.167 843.222 699.667C843.222 701.509 845.322 703.052 846.179 704.723C846.221 704.766 846.221 704.851 846.264 704.894C846.35 705.065 846.393 705.237 846.478 705.451C846.521 705.58 846.521 705.708 846.564 705.837C846.564 705.965 846.607 706.094 846.607 706.222C846.607 706.437 846.607 706.651 846.607 706.865C846.607 707.079 846.564 707.294 846.521 707.508C846.521 707.636 846.478 707.808 846.436 707.936C846.393 708.236 846.35 708.536 846.307 708.836C846.221 709.265 846.179 709.736 846.136 710.122C846.136 710.25 846.136 710.421 846.136 710.55C846.136 711.107 846.221 711.621 846.478 712.05C847.207 713.292 849.006 713.764 850.549 714.406C850.592 714.449 850.678 714.449 850.72 714.492C850.935 714.578 851.149 714.706 851.32 714.792C851.363 714.835 851.449 714.878 851.492 714.878C851.577 714.921 851.663 714.963 851.749 715.049C851.92 715.178 852.049 715.306 852.177 715.435C852.349 715.606 852.477 715.777 852.606 715.992C852.649 716.035 852.649 716.077 852.691 716.12C852.82 716.292 852.906 716.506 852.991 716.72C853.034 716.806 853.077 716.892 853.12 716.977C853.248 717.234 853.334 717.534 853.463 717.791V717.834C853.634 718.22 853.763 718.648 853.934 719.034C853.977 719.12 853.977 719.162 854.02 719.248C854.362 720.062 854.791 720.748 855.477 721.133C855.948 721.391 856.462 721.519 857.062 721.519C858.347 721.519 859.804 721.091 861.09 721.091C861.432 721.091 861.775 721.133 862.118 721.219C862.418 721.305 862.718 721.433 863.018 721.605C863.318 721.776 863.618 721.99 863.875 722.205C863.918 722.248 864.003 722.29 864.046 722.333C864.26 722.505 864.517 722.719 864.732 722.89C864.903 723.019 865.075 723.19 865.246 723.319C865.974 723.876 866.66 724.347 867.474 724.476C867.603 724.476 867.731 724.518 867.817 724.518C867.945 724.518 868.074 724.518 868.16 724.476C869.831 724.219 871.287 722.376 872.83 721.562C872.873 721.519 872.959 721.519 873.001 721.476C873.173 721.391 873.344 721.348 873.558 721.262C873.858 721.176 874.201 721.133 874.587 721.133C875.872 721.133 877.329 721.605 878.615 721.605C879.172 721.605 879.729 721.519 880.2 721.262C881.7 720.405 882.042 718.048 882.942 716.42C882.985 716.377 882.985 716.334 883.028 716.292C883.071 716.206 883.156 716.12 883.199 716.035C883.328 715.863 883.456 715.735 883.585 715.606C883.713 715.478 883.885 715.349 884.056 715.22C884.185 715.135 884.27 715.092 884.399 715.006C884.442 714.963 884.528 714.921 884.57 714.921C885.085 714.663 885.642 714.449 886.199 714.235C886.499 714.149 886.756 714.021 887.056 713.935C887.398 713.806 887.741 713.635 888.041 713.507C888.598 713.207 889.069 712.864 889.369 712.35C889.541 712.007 889.669 711.664 889.712 711.278C889.712 711.15 889.755 711.021 889.755 710.893C889.755 710.679 889.755 710.464 889.755 710.25C889.755 710.122 889.712 709.95 889.712 709.822C889.712 709.693 889.669 709.522 889.669 709.393C889.669 709.265 889.626 709.093 889.584 708.965C889.498 708.536 889.455 708.065 889.412 707.636C889.412 707.551 889.412 707.508 889.412 707.422C889.412 707.208 889.369 706.994 889.369 706.779C889.369 706.694 889.369 706.651 889.369 706.565C889.369 706.437 889.369 706.308 889.412 706.179C889.412 706.094 889.412 706.051 889.455 705.965C889.498 705.88 889.498 705.837 889.498 705.794C889.584 705.451 889.755 705.065 890.012 704.723C890.141 704.508 890.312 704.251 890.526 704.037C890.569 703.994 890.612 703.909 890.655 703.866C890.783 703.694 890.955 703.523 891.083 703.352C891.126 702.666 891.769 701.895 892.069 701.081ZM867.431 719.291C856.762 719.205 848.15 710.507 848.235 699.838C848.321 689.169 857.019 680.556 867.688 680.642C878.357 680.728 886.97 689.426 886.884 700.095C886.799 710.764 878.1 719.334 867.431 719.291Z" fill="#F7CE14"/>
<path d="M867.688 682.313C857.962 682.227 849.992 690.111 849.906 699.838C849.821 709.564 857.705 717.534 867.431 717.62C877.158 717.706 885.127 709.821 885.213 700.095C885.299 690.326 877.415 682.399 867.688 682.313ZM865.503 709.993L856.762 700.866L859.89 697.867L865.76 703.994L877.501 693.582L880.371 696.839L865.503 709.993Z" fill="#F7CE14"/>
<path d="M841.123 639.251L827.154 665.731C826.554 666.888 827.626 668.173 828.868 667.83L838.98 664.959C840.052 664.659 841.037 665.559 840.823 666.63L837.309 685.526C837.009 687.198 839.323 687.969 840.094 686.426L856.034 653.947C856.591 652.791 855.52 651.505 854.277 651.891L843.822 655.061C842.794 655.361 841.766 654.504 841.937 653.433L843.951 640.022C844.122 638.479 841.894 637.751 841.123 639.251Z" fill="#F7CE14"/>
<path d="M830.409 629.096C830.409 629.181 830.409 629.224 830.367 629.267C830.324 629.31 830.281 629.353 830.152 629.396C830.067 629.438 829.895 629.438 829.681 629.481C829.467 629.481 829.21 629.481 828.867 629.481C828.567 629.481 828.353 629.481 828.181 629.438C828.01 629.438 827.881 629.396 827.753 629.353C827.667 629.31 827.581 629.267 827.539 629.224C827.496 629.181 827.453 629.096 827.453 629.01L826.296 626.011C826.167 625.668 825.996 625.368 825.867 625.111C825.739 624.854 825.568 624.64 825.396 624.468C825.225 624.297 825.053 624.168 824.796 624.082C824.582 623.997 824.325 623.954 824.025 623.954H823.168L823.125 629.053C823.125 629.139 823.082 629.181 823.04 629.224C822.997 629.267 822.911 629.31 822.825 629.353C822.74 629.396 822.568 629.396 822.397 629.438C822.225 629.438 822.011 629.481 821.754 629.481C821.497 629.481 821.283 629.481 821.111 629.438C820.94 629.396 820.811 629.396 820.683 629.353C820.597 629.31 820.511 629.267 820.469 629.224C820.426 629.181 820.426 629.096 820.426 629.053L820.511 616.927C820.511 616.627 820.597 616.413 820.769 616.284C820.94 616.156 821.111 616.07 821.326 616.07L824.796 616.113C825.139 616.113 825.439 616.113 825.653 616.156C825.867 616.156 826.082 616.198 826.253 616.198C826.81 616.284 827.281 616.413 827.71 616.584C828.138 616.755 828.481 617.013 828.781 617.312C829.081 617.612 829.295 617.955 829.467 618.384C829.638 618.812 829.681 619.283 829.681 619.798C829.681 620.226 829.638 620.655 829.51 621.04C829.381 621.426 829.21 621.726 828.995 622.026C828.781 622.326 828.481 622.583 828.181 622.754C827.839 622.968 827.496 623.14 827.067 623.268C827.281 623.354 827.453 623.483 827.624 623.611C827.796 623.74 827.967 623.911 828.096 624.125C828.267 624.34 828.396 624.554 828.524 624.811C828.653 625.068 828.781 625.368 828.91 625.668L830.024 628.324C830.109 628.582 830.195 628.796 830.238 628.881C830.409 628.924 830.409 629.053 830.409 629.096ZM826.982 620.012C826.982 619.583 826.896 619.198 826.682 618.898C826.467 618.598 826.167 618.384 825.696 618.255C825.568 618.212 825.396 618.212 825.225 618.169C825.053 618.127 824.796 618.127 824.496 618.127H823.297L823.254 621.897H824.625C825.011 621.897 825.353 621.854 825.653 621.769C825.953 621.683 826.167 621.554 826.382 621.383C826.596 621.212 826.724 620.997 826.81 620.783C826.939 620.569 826.982 620.312 826.982 620.012Z" fill="white"/>
<path d="M840.349 628.453C840.349 628.667 840.349 628.838 840.306 628.967C840.264 629.095 840.264 629.224 840.221 629.31C840.178 629.395 840.135 629.438 840.092 629.481C840.049 629.524 839.964 629.524 839.921 629.524L833.194 629.481C832.979 629.481 832.765 629.395 832.637 629.267C832.508 629.138 832.422 628.924 832.422 628.624L832.508 616.969C832.508 616.669 832.594 616.455 832.765 616.327C832.936 616.198 833.108 616.112 833.322 616.112L840.006 616.155C840.049 616.155 840.135 616.155 840.178 616.198C840.221 616.241 840.264 616.284 840.306 616.369C840.349 616.455 840.349 616.584 840.392 616.712C840.392 616.841 840.435 617.012 840.435 617.226C840.435 617.441 840.435 617.569 840.392 617.698C840.392 617.826 840.349 617.955 840.306 618.04C840.264 618.126 840.221 618.169 840.178 618.212C840.135 618.255 840.092 618.255 840.006 618.255L835.25 618.212L835.207 621.468L839.235 621.511C839.278 621.511 839.364 621.511 839.407 621.554C839.449 621.597 839.492 621.64 839.535 621.725C839.578 621.811 839.578 621.897 839.621 622.025C839.621 622.154 839.664 622.325 839.664 622.497C839.664 622.711 839.664 622.882 839.621 623.011C839.621 623.139 839.578 623.225 839.535 623.311C839.492 623.396 839.449 623.439 839.407 623.482C839.364 623.525 839.278 623.525 839.235 623.525L835.165 623.568L835.122 627.339L839.921 627.381C839.964 627.381 840.049 627.381 840.092 627.424C840.135 627.467 840.178 627.51 840.221 627.596C840.264 627.681 840.264 627.767 840.306 627.938C840.349 628.11 840.349 628.281 840.349 628.453Z" fill="white"/>
<path d="M851.704 627.596C851.704 627.767 851.704 627.896 851.704 628.024C851.704 628.153 851.661 628.238 851.661 628.324C851.661 628.41 851.618 628.496 851.576 628.538C851.533 628.581 851.49 628.667 851.404 628.753C851.319 628.838 851.19 628.924 850.976 629.053C850.762 629.181 850.504 629.31 850.162 629.395C849.862 629.524 849.476 629.61 849.09 629.652C848.705 629.695 848.233 629.781 847.762 629.738C846.862 629.738 846.005 629.567 845.277 629.31C844.549 629.01 843.906 628.581 843.392 628.024C842.877 627.467 842.492 626.739 842.235 625.925C841.978 625.068 841.849 624.082 841.849 622.968C841.849 621.811 842.021 620.826 842.32 619.926C842.62 619.026 843.049 618.298 843.606 617.698C844.163 617.098 844.806 616.669 845.577 616.327C846.348 616.027 847.162 615.855 848.105 615.898C848.491 615.898 848.833 615.941 849.176 615.984C849.519 616.07 849.819 616.112 850.119 616.241C850.419 616.327 850.676 616.455 850.89 616.584C851.104 616.712 851.276 616.841 851.361 616.927C851.447 617.012 851.533 617.098 851.533 617.141C851.576 617.184 851.576 617.269 851.618 617.398C851.661 617.526 851.661 617.612 851.661 617.741C851.661 617.869 851.661 618.041 851.661 618.212C851.661 618.426 851.661 618.598 851.618 618.726C851.618 618.855 851.576 618.983 851.533 619.069C851.49 619.155 851.447 619.24 851.404 619.283C851.361 619.326 851.319 619.326 851.233 619.326C851.147 619.326 851.019 619.283 850.847 619.155C850.676 619.026 850.504 618.898 850.247 618.726C849.99 618.598 849.69 618.426 849.348 618.298C849.005 618.169 848.576 618.126 848.105 618.126C847.591 618.126 847.119 618.212 846.691 618.426C846.262 618.64 845.92 618.94 845.62 619.369C845.32 619.755 845.106 620.269 844.934 620.826C844.763 621.383 844.72 622.025 844.677 622.754C844.677 623.525 844.763 624.211 844.891 624.811C845.063 625.368 845.277 625.882 845.577 626.225C845.877 626.61 846.22 626.867 846.648 627.082C847.077 627.253 847.548 627.381 848.062 627.381C848.533 627.381 848.962 627.339 849.305 627.21C849.647 627.082 849.947 626.996 850.205 626.824C850.462 626.696 850.676 626.567 850.847 626.439C851.019 626.31 851.147 626.267 851.233 626.267C851.319 626.267 851.361 626.267 851.404 626.31C851.447 626.353 851.49 626.396 851.49 626.482C851.49 626.567 851.533 626.696 851.533 626.824C851.704 627.124 851.704 627.339 851.704 627.596Z" fill="white"/>
</g>
<defs>
<clipPath id="clip0">
<rect width="1920" height="1080" fill="white"/>
</clipPath>
</defs>
</svg>
