<svg width="375" height="667" viewBox="0 0 375 667" fill="none" xmlns="http://www.w3.org/2000/svg">
<g clip-path="url(#clip0)">
<path d="M156.523 624.649C155.025 624.649 153.815 623.443 153.815 621.948V512.479C153.815 510.985 155.025 509.779 156.523 509.779C158.022 509.779 159.232 510.985 159.232 512.479V621.948C159.232 623.443 158.022 624.649 156.523 624.649Z" fill="#51A8B7"/>
<path d="M150.76 637.466V622.523C150.76 619.363 153.354 616.777 156.523 616.777C159.693 616.777 162.287 619.363 162.287 622.523V637.466H150.76Z" fill="#1E193D"/>
<path d="M84.3083 637.466V622.523C84.3083 619.363 86.9017 616.777 90.0713 616.777C93.2414 616.777 95.8347 619.363 95.8347 622.523V637.466H84.3083Z" fill="#1E193D"/>
<path d="M180.557 657.233H132.49L148.34 627.12H164.707L180.557 657.233Z" fill="#939597"/>
<path d="M180.557 657.233H132.49V667H180.557V657.233Z" fill="#1E193D"/>
<path d="M114.105 657.233H66.0959L81.8877 627.12H98.3135L114.105 657.233Z" fill="#E6E3E6"/>
<path d="M90.0717 624.65C89.6681 624.65 89.2072 624.535 88.8037 624.362C87.4784 623.673 86.9593 622.006 87.6511 620.684L148.282 505.469C148.973 504.147 150.645 503.63 151.97 504.32C153.296 505.009 153.814 506.676 153.123 507.997L92.4923 623.213C92.0315 624.133 91.0516 624.65 90.0717 624.65Z" fill="#AFDDDA"/>
<path d="M114.162 657.233H66.0959V667H114.162V657.233Z" fill="#939597"/>
<path d="M120.273 570.403L153.124 507.939C153.816 506.618 153.297 504.952 151.972 504.262C150.646 503.572 148.975 504.089 148.283 505.411L116.181 566.38L120.273 570.403Z" fill="#51A8B7"/>
<path d="M255.077 613.501C254.386 613.501 253.694 613.214 253.176 612.697L107.132 467.083C106.094 466.048 106.094 464.325 107.132 463.233C108.169 462.199 109.898 462.199 110.993 463.233L257.037 608.847C258.132 609.881 258.132 611.605 257.037 612.697C256.519 613.214 255.769 613.501 255.077 613.501Z" fill="#AFDDDA"/>
<path d="M252.713 616.605L242.108 606.031C239.861 603.79 239.861 600.17 242.108 597.929C244.356 595.688 247.987 595.688 250.235 597.929L258.765 606.433L252.713 616.605Z" fill="#51A8B7"/>
<path d="M249.313 628.327V610.743C249.313 607.583 251.907 604.997 255.077 604.997C258.247 604.997 260.84 607.583 260.84 610.743V628.327H249.313Z" fill="#AFDDDA"/>
<path d="M279.11 657.233H231.044L246.893 627.12H263.261L279.11 657.233Z" fill="#E6E3E6"/>
<path d="M279.11 657.233H231.044V667H279.11V657.233Z" fill="#939597"/>
<path d="M156.515 619.259L153.785 621.981L156.515 624.704L159.246 621.981L156.515 619.259Z" fill="#51A8B7"/>
<path d="M139.24 491.478L135.409 495.298L226.043 585.665L229.874 581.846L139.24 491.478Z" fill="#51A8B7"/>
<path d="M279.629 544.774H100.446L101.772 540.292H280.955L279.629 544.774Z" fill="#177D8F"/>
<path d="M61.9464 477.025L28 443.121L29.3258 438.696L63.2717 472.542L61.9464 477.025Z" fill="#72BDBA"/>
<path d="M218.249 539.258H162.171L130.185 507.481H186.262L218.249 539.258Z" fill="#1E193D"/>
<path d="M158.539 539.258H102.461L70.4744 507.481H126.552L158.539 539.258Z" fill="#1E193D"/>
<path d="M184.187 505.412H128.109L96.1228 473.577H152.2L184.187 505.412Z" fill="#1E193D"/>
<path d="M277.957 539.258H221.879L189.893 507.481H245.97L277.957 539.258Z" fill="#1E193D"/>
<path d="M222.456 573.162H166.378L134.392 541.327H190.469L222.456 573.162Z" fill="#1E193D"/>
<path d="M282.164 573.162H226.087L194.1 541.327H250.177L282.164 573.162Z" fill="#1E193D"/>
<path d="M120.271 471.566H64.1939L32.2068 439.731H88.2846L120.271 471.566Z" fill="#1E193D"/>
<path d="M179.98 471.565H123.902L91.9155 439.73H147.993L179.98 471.565Z" fill="#1E193D"/>
<path d="M243.896 505.412H187.818L155.831 473.577H211.909L243.896 505.412Z" fill="#1E193D"/>
<path d="M124.479 505.412H68.4011L36.4141 473.577H92.4919L124.479 505.412Z" fill="#1E193D"/>
<path d="M127.361 506.446L161.422 540.292H221.131L187.069 506.446H127.361ZM205.685 538.569L201.305 537.017L200.094 538.569H192.256L187.934 537.017L186.724 538.569H178.885L174.563 537.017L173.353 538.569H165.514L161.134 537.017L156.639 532.592L157.849 531.041L153.526 529.489L149.031 525.007L150.241 523.455L145.919 521.904L141.423 517.422L142.634 515.87L138.311 514.319L133.816 509.836L135.026 508.285H142.864L147.187 509.836L148.397 508.285H156.235L160.558 509.836L161.768 508.285H169.606L173.929 509.836L175.139 508.285H182.977L187.3 509.836L191.795 514.319L190.585 515.87L194.908 517.422L199.403 521.904L198.193 523.455L202.515 525.007L207.011 529.489L205.801 531.041L210.18 532.592L214.676 537.017L213.466 538.569H205.685Z" fill="#F6E8E7"/>
<path d="M155.947 515.755L151.624 514.204L150.414 515.755L154.794 517.365L155.947 515.755Z" fill="#F6E8E7"/>
<path d="M158.079 523.398L162.401 524.95L163.612 523.398L159.231 521.789L158.079 523.398Z" fill="#F6E8E7"/>
<path d="M165.686 530.983L170.066 532.535L171.219 530.983L166.897 529.432L165.686 530.983Z" fill="#F6E8E7"/>
<path d="M169.374 515.755L164.994 514.204L163.784 515.755L168.164 517.365L169.374 515.755Z" fill="#F6E8E7"/>
<path d="M171.45 523.398L175.772 524.95L176.982 523.398L172.66 521.789L171.45 523.398Z" fill="#F6E8E7"/>
<path d="M179.115 530.983L183.437 532.535L184.648 530.983L180.267 529.432L179.115 530.983Z" fill="#F6E8E7"/>
<path d="M182.746 515.755L178.424 514.204L177.213 515.755L181.536 517.365L182.746 515.755Z" fill="#F6E8E7"/>
<path d="M184.821 523.398L189.2 524.95L190.353 523.398L186.031 521.789L184.821 523.398Z" fill="#F6E8E7"/>
<path d="M192.486 530.983L196.809 532.535L198.019 530.983L193.697 529.432L192.486 530.983Z" fill="#F6E8E7"/>
<path d="M67.593 506.446L101.655 540.292H161.363L127.302 506.446H67.593ZM145.917 538.569L141.595 537.017L140.385 538.569H132.547L128.166 537.017L126.956 538.569H119.118L114.795 537.017L113.585 538.569H105.747L101.424 537.017L96.9286 532.592L98.1389 531.041L93.8167 529.489L89.3213 525.007L90.5312 523.455L86.209 521.904L81.7136 517.422L82.9239 515.87L78.6012 514.319L74.1059 509.836L75.3162 508.285H83.1543L87.477 509.836L88.6873 508.285H96.5255L100.848 509.836L102.058 508.285H109.839L114.161 509.836L115.371 508.285H123.21L127.532 509.836L132.028 514.319L130.817 515.87L135.14 517.422L139.635 521.904L138.425 523.455L142.748 525.007L147.243 529.489L146.033 531.041L150.355 532.592L154.851 537.017L153.64 538.569H145.917Z" fill="#F6E8E7"/>
<path d="M96.2378 515.755L91.9151 514.204L90.7048 515.755L95.0275 517.365L96.2378 515.755Z" fill="#F6E8E7"/>
<path d="M98.3696 523.398L102.692 524.95L103.903 523.398L99.5222 521.789L98.3696 523.398Z" fill="#F6E8E7"/>
<path d="M105.977 530.983L110.357 532.535L111.51 530.983L107.188 529.432L105.977 530.983Z" fill="#F6E8E7"/>
<path d="M109.608 515.755L105.286 514.204L104.075 515.755L108.456 517.365L109.608 515.755Z" fill="#F6E8E7"/>
<path d="M111.741 523.398L116.064 524.95L117.274 523.398L112.951 521.789L111.741 523.398Z" fill="#F6E8E7"/>
<path d="M119.349 530.983L123.729 532.535L124.939 530.983L120.559 529.432L119.349 530.983Z" fill="#F6E8E7"/>
<path d="M123.037 515.755L118.657 514.204L117.504 515.755L121.826 517.365L123.037 515.755Z" fill="#F6E8E7"/>
<path d="M125.112 523.398L129.492 524.95L130.645 523.398L126.322 521.789L125.112 523.398Z" fill="#F6E8E7"/>
<path d="M132.778 530.983L137.1 532.535L138.311 530.983L133.93 529.432L132.778 530.983Z" fill="#F6E8E7"/>
<path d="M93.2986 472.542L127.36 506.389H187.069L153.007 472.542H93.2986ZM171.623 504.722L167.3 503.17L166.09 504.722H158.252L153.929 503.17L152.719 504.722H144.881L140.558 503.17L139.348 504.722H131.509L127.187 503.17L122.691 498.746L123.902 497.194L119.522 495.643L115.026 491.218L116.237 489.666L111.914 488.115L107.419 483.633L108.629 482.081L104.306 480.529L99.811 476.047L101.021 474.496H108.859L113.182 476.047L114.392 474.496H122.231L126.553 476.047L127.764 474.496H135.602L139.924 476.047L141.134 474.496H148.972L153.295 476.047L157.79 480.529L156.58 482.081L160.903 483.633L165.398 488.115L164.188 489.666L168.51 491.218L173.006 495.643L171.796 497.194L176.118 498.746L180.614 503.17L179.403 504.722H171.623Z" fill="#F6E8E7"/>
<path d="M121.885 481.909L117.562 480.358L116.352 481.909L120.732 483.461L121.885 481.909Z" fill="#F6E8E7"/>
<path d="M124.018 489.494L128.34 491.103L129.551 489.494L125.17 487.943L124.018 489.494Z" fill="#F6E8E7"/>
<path d="M131.625 497.079L136.005 498.688L137.158 497.079L132.836 495.528L131.625 497.079Z" fill="#F6E8E7"/>
<path d="M135.313 481.909L130.933 480.358L129.78 481.909L134.103 483.461L135.313 481.909Z" fill="#F6E8E7"/>
<path d="M137.388 489.494L141.769 491.103L142.921 489.494L138.598 487.943L137.388 489.494Z" fill="#F6E8E7"/>
<path d="M145.054 497.079L149.376 498.688L150.587 497.079L146.206 495.528L145.054 497.079Z" fill="#F6E8E7"/>
<path d="M148.685 481.909L144.362 480.358L143.152 481.909L147.475 483.461L148.685 481.909Z" fill="#F6E8E7"/>
<path d="M150.76 489.494L155.14 491.103L156.35 489.494L151.97 487.943L150.76 489.494Z" fill="#F6E8E7"/>
<path d="M158.425 497.079L162.747 498.688L163.957 497.079L159.635 495.528L158.425 497.079Z" fill="#F6E8E7"/>
<path d="M187.069 506.446L221.13 540.292H280.838L246.777 506.446H187.069ZM265.393 538.569L261.07 537.017L259.86 538.569H252.022L247.699 537.017L246.489 538.569H238.651L234.328 537.017L233.118 538.569H225.279L220.957 537.017L216.461 532.592L217.672 531.041L213.35 529.489L208.854 525.007L210.064 523.455L205.742 521.904L201.246 517.422L202.457 515.87L198.134 514.319L193.639 509.836L194.849 508.285H202.687L207.01 509.836L208.22 508.285H215.885L220.208 509.836L221.418 508.285H229.256L233.579 509.836L234.789 508.285H242.627L246.95 509.836L251.445 514.319L250.235 515.87L254.615 517.422L259.11 521.904L257.9 523.455L262.281 525.007L266.776 529.489L265.566 531.041L269.945 532.592L274.441 537.017L273.231 538.569H265.393Z" fill="#F6E8E7"/>
<path d="M215.655 515.755L211.333 514.204L210.122 515.755L214.502 517.365L215.655 515.755Z" fill="#F6E8E7"/>
<path d="M217.788 523.398L222.111 524.95L223.321 523.398L218.94 521.789L217.788 523.398Z" fill="#F6E8E7"/>
<path d="M225.396 530.983L229.775 532.535L230.928 530.983L226.606 529.432L225.396 530.983Z" fill="#F6E8E7"/>
<path d="M229.084 515.755L224.704 514.204L223.552 515.755L227.874 517.365L229.084 515.755Z" fill="#F6E8E7"/>
<path d="M231.158 523.398L235.539 524.95L236.691 523.398L232.369 521.789L231.158 523.398Z" fill="#F6E8E7"/>
<path d="M238.824 530.983L243.146 532.535L244.357 530.983L239.977 529.432L238.824 530.983Z" fill="#F6E8E7"/>
<path d="M242.455 515.755L238.132 514.204L236.922 515.755L241.245 517.365L242.455 515.755Z" fill="#F6E8E7"/>
<path d="M244.53 523.398L248.91 524.95L250.12 523.398L245.74 521.789L244.53 523.398Z" fill="#F6E8E7"/>
<path d="M252.195 530.983L256.517 532.535L257.727 530.983L253.405 529.432L252.195 530.983Z" fill="#F6E8E7"/>
<path d="M131.509 540.292L165.57 574.196H225.279L191.217 540.35H131.509V540.292ZM209.833 572.472L205.511 570.921L204.3 572.472H196.462L192.14 570.921L190.929 572.472H183.091L178.768 570.921L177.558 572.472H169.72L165.398 570.921L160.902 566.439L162.112 564.887L157.732 563.335L153.237 558.853L154.447 557.302L150.125 555.751L145.629 551.268L146.839 549.716L142.517 548.165L138.021 543.683L139.232 542.131H147.07L151.393 543.683L152.603 542.131H160.441L164.764 543.683L165.974 542.131H173.812L178.134 543.683L179.345 542.131H187.183L191.505 543.683L196.001 548.165L194.791 549.716L199.171 551.268L203.666 555.751L202.456 557.302L206.779 558.853L211.274 563.335L210.064 564.887L214.386 566.439L218.882 570.921L217.671 572.472H209.833Z" fill="#F6E8E7"/>
<path d="M160.154 549.66L155.831 548.108L154.621 549.66L159.001 551.211L160.154 549.66Z" fill="#F6E8E7"/>
<path d="M162.285 557.244L166.608 558.853L167.818 557.244L163.438 555.693L162.285 557.244Z" fill="#F6E8E7"/>
<path d="M169.894 564.83L174.273 566.439L175.426 564.83L171.104 563.278L169.894 564.83Z" fill="#F6E8E7"/>
<path d="M173.524 549.66L169.202 548.108L167.991 549.66L172.372 551.211L173.524 549.66Z" fill="#F6E8E7"/>
<path d="M175.657 557.244L179.979 558.796L181.19 557.244L176.867 555.693L175.657 557.244Z" fill="#F6E8E7"/>
<path d="M183.264 564.83L187.645 566.439L188.855 564.83L184.475 563.278L183.264 564.83Z" fill="#F6E8E7"/>
<path d="M186.954 549.66L182.573 548.108L181.421 549.66L185.744 551.211L186.954 549.66Z" fill="#F6E8E7"/>
<path d="M189.027 557.244L193.408 558.796L194.56 557.244L190.238 555.693L189.027 557.244Z" fill="#F6E8E7"/>
<path d="M196.693 564.83L201.016 566.439L202.226 564.83L197.846 563.278L196.693 564.83Z" fill="#F6E8E7"/>
<path d="M191.276 540.292L225.337 574.139H285.046L250.984 540.292H191.276ZM269.542 572.472L265.22 570.921L264.009 572.472H256.171L251.849 570.921L250.638 572.472H242.8L238.478 570.921L237.268 572.472H229.429L225.107 570.921L220.611 566.439L221.822 564.887L217.441 563.335L212.946 558.853L214.156 557.302L209.834 555.751L205.338 551.268L206.549 549.716L202.226 548.165L197.731 543.683L198.941 542.131H206.779L211.102 543.683L212.312 542.131H220.15L224.531 543.683L225.741 542.131H233.579L237.902 543.683L239.112 542.131H246.95L251.272 543.683L255.768 548.165L254.557 549.716L258.88 551.268L263.375 555.751L262.165 557.302L266.488 558.853L270.983 563.335L269.773 564.887L274.096 566.439L278.591 570.921L277.381 572.472H269.542Z" fill="#F6E8E7"/>
<path d="M219.863 549.66L215.54 548.108L214.33 549.66L218.71 551.211L219.863 549.66Z" fill="#F6E8E7"/>
<path d="M221.995 557.244L226.318 558.796L227.528 557.244L223.147 555.693L221.995 557.244Z" fill="#F6E8E7"/>
<path d="M229.602 564.83L233.982 566.439L235.135 564.83L230.813 563.278L229.602 564.83Z" fill="#F6E8E7"/>
<path d="M233.291 549.66L228.911 548.108L227.758 549.66L232.081 551.211L233.291 549.66Z" fill="#F6E8E7"/>
<path d="M235.366 557.244L239.688 558.796L240.899 557.244L236.576 555.693L235.366 557.244Z" fill="#F6E8E7"/>
<path d="M243.031 564.83L247.353 566.439L248.564 564.83L244.183 563.278L243.031 564.83Z" fill="#F6E8E7"/>
<path d="M246.662 549.66L242.282 548.108L241.129 549.66L245.452 551.211L246.662 549.66Z" fill="#F6E8E7"/>
<path d="M248.737 557.244L253.118 558.796L254.27 557.244L249.948 555.693L248.737 557.244Z" fill="#F6E8E7"/>
<path d="M256.402 564.83L260.725 566.439L261.935 564.83L257.613 563.278L256.402 564.83Z" fill="#F6E8E7"/>
<path d="M29.3831 438.695L63.4444 472.542H123.153L89.0914 438.695H29.3831ZM107.707 470.818L103.385 469.267L102.174 470.818H94.2785L89.9558 469.267L88.7455 470.818H80.9073L76.5274 469.267L75.3171 470.818H67.5367L63.1563 469.267L58.6609 464.784L59.8712 463.233L55.5486 461.681L51.0532 457.199L52.2635 455.648L47.8831 454.096L43.3877 449.613L44.598 448.062L40.2181 446.511L35.7228 442.028L36.9331 440.477H44.7712L49.1511 442.028L50.3615 440.477H58.1996L62.58 442.028L63.7903 440.477H71.6285L75.9511 442.028L77.1614 440.477H84.9996L89.3218 442.028L93.8176 446.511L92.6073 448.062L96.9295 449.613L101.425 454.096L100.215 455.648L104.537 457.199L109.033 461.681L107.822 463.233L112.145 464.784L116.64 469.267L115.43 470.818H107.707Z" fill="#F6E8E7"/>
<path d="M57.9693 448.062L53.6471 446.453L52.4368 448.062L56.8167 449.614L57.9693 448.062Z" fill="#F6E8E7"/>
<path d="M60.1021 455.647L64.4243 457.199L65.6346 455.647L61.2546 454.038L60.1021 455.647Z" fill="#F6E8E7"/>
<path d="M67.7097 463.232L72.0896 464.784L73.2422 463.232L68.92 461.68L67.7097 463.232Z" fill="#F6E8E7"/>
<path d="M71.398 448.062L67.0176 446.453L65.865 448.062L70.1877 449.614L71.398 448.062Z" fill="#F6E8E7"/>
<path d="M73.4729 455.647L77.8528 457.199L79.0059 455.647L74.6832 454.038L73.4729 455.647Z" fill="#F6E8E7"/>
<path d="M81.1382 463.232L85.4609 464.784L86.6712 463.232L82.2908 461.68L81.1382 463.232Z" fill="#F6E8E7"/>
<path d="M84.7691 448.062L80.4469 446.453L79.2366 448.062L83.5588 449.614L84.7691 448.062Z" fill="#F6E8E7"/>
<path d="M86.8438 455.647L91.2241 457.199L92.4344 455.647L88.0541 454.038L86.8438 455.647Z" fill="#F6E8E7"/>
<path d="M94.5088 463.232L98.8315 464.784L100.042 463.232L95.7191 461.68L94.5088 463.232Z" fill="#F6E8E7"/>
<path d="M89.0918 438.695L123.153 472.542H182.862L148.801 438.695H89.0918ZM167.416 470.818L163.093 469.267L161.883 470.818H154.045L149.665 469.267L148.455 470.818H140.617L136.294 469.267L135.084 470.818H127.245L122.923 469.267L118.427 464.784L119.638 463.233L115.315 461.681L110.82 457.199L112.03 455.648L107.707 454.096L103.212 449.614L104.422 448.062L100.1 446.511L95.6047 442.029L96.8145 440.477H104.653L108.975 442.029L110.186 440.477H117.909L122.231 442.029L123.441 440.477H131.28L135.602 442.029L136.812 440.477H144.651L148.973 442.029L153.469 446.511L152.258 448.062L156.581 449.614L161.076 454.096L159.981 455.648L164.304 457.199L168.799 461.681L167.589 463.233L171.911 464.784L176.407 469.267L175.196 470.818H167.416Z" fill="#F6E8E7"/>
<path d="M117.677 448.063L113.354 446.453L112.144 448.063L116.524 449.614L117.677 448.063Z" fill="#F6E8E7"/>
<path d="M119.81 455.647L124.133 457.199L125.343 455.647L120.963 454.038L119.81 455.647Z" fill="#F6E8E7"/>
<path d="M127.418 463.232L131.798 464.784L132.951 463.232L128.628 461.68L127.418 463.232Z" fill="#F6E8E7"/>
<path d="M131.106 448.063L126.726 446.453L125.573 448.063L129.896 449.614L131.106 448.063Z" fill="#F6E8E7"/>
<path d="M133.181 455.648L137.561 457.199L138.713 455.648L134.391 454.039L133.181 455.648Z" fill="#F6E8E7"/>
<path d="M140.846 463.232L145.169 464.784L146.379 463.232L141.999 461.68L140.846 463.232Z" fill="#F6E8E7"/>
<path d="M144.478 448.062L140.155 446.453L138.945 448.062L143.268 449.614L144.478 448.062Z" fill="#F6E8E7"/>
<path d="M146.609 455.648L150.932 457.199L152.142 455.648L147.761 454.039L146.609 455.648Z" fill="#F6E8E7"/>
<path d="M154.217 463.233L158.597 464.785L159.75 463.233L155.427 461.682L154.217 463.233Z" fill="#F6E8E7"/>
<path d="M153.007 472.542L187.068 506.389H246.777L212.715 472.542H153.007ZM231.331 504.722L227.008 503.17L225.798 504.722H217.96L213.637 503.17L212.427 504.722H204.589L200.209 503.17L198.999 504.722H191.16L186.78 503.17L182.285 498.746L183.495 497.194L179.172 495.643L174.677 491.218L175.887 489.666L171.565 488.115L167.069 483.633L168.28 482.081L163.957 480.529L159.462 476.047L160.672 474.496H168.51L172.833 476.047L174.043 474.496H181.881L186.204 476.047L187.414 474.496H195.252L199.575 476.047L200.785 474.496H208.623L212.946 476.047L217.441 480.529L216.231 482.081L220.553 483.633L225.049 488.115L223.838 489.666L228.161 491.218L232.656 495.643L231.446 497.194L235.769 498.746L240.264 503.17L239.054 504.722H231.331Z" fill="#F6E8E7"/>
<path d="M181.594 481.909L177.271 480.358L176.061 481.909L180.441 483.461L181.594 481.909Z" fill="#F6E8E7"/>
<path d="M183.726 489.494L188.049 491.103L189.259 489.494L184.879 487.943L183.726 489.494Z" fill="#F6E8E7"/>
<path d="M191.334 497.079L195.714 498.688L196.866 497.079L192.544 495.528L191.334 497.079Z" fill="#F6E8E7"/>
<path d="M195.022 481.909L190.642 480.358L189.489 481.909L193.812 483.461L195.022 481.909Z" fill="#F6E8E7"/>
<path d="M197.097 489.495L201.477 491.103L202.63 489.495L198.307 487.943L197.097 489.495Z" fill="#F6E8E7"/>
<path d="M204.762 497.079L209.085 498.688L210.295 497.079L205.915 495.528L204.762 497.079Z" fill="#F6E8E7"/>
<path d="M208.394 481.909L204.071 480.358L202.861 481.909L207.183 483.461L208.394 481.909Z" fill="#F6E8E7"/>
<path d="M210.469 489.494L214.849 491.103L216.059 489.494L211.679 487.943L210.469 489.494Z" fill="#F6E8E7"/>
<path d="M218.133 497.079L222.455 498.688L223.665 497.079L219.343 495.528L218.133 497.079Z" fill="#F6E8E7"/>
<path d="M33.5908 472.542L67.6522 506.389H127.361L93.2991 472.542H33.5908ZM111.857 504.722L107.535 503.17L106.324 504.722H98.4862L94.1636 503.17L92.9533 504.722H85.1151L80.7929 503.17L79.5826 504.722H71.7444L67.4218 503.17L62.9264 498.746L64.1367 497.194L59.814 495.643L55.3187 491.218L56.529 489.666L52.1486 488.115L47.6532 483.633L48.8635 482.081L44.4836 480.529L39.9882 476.047L41.1985 474.496H49.0367L53.3589 476.047L54.5692 474.496H62.4074L66.73 476.047L67.9403 474.496H75.7785L80.1012 476.047L81.3115 474.496H89.1496L93.4723 476.047L97.9677 480.529L96.7573 482.081L101.08 483.633L105.575 488.115L104.365 489.666L108.687 491.218L113.183 495.643L111.972 497.194L116.295 498.746L120.79 503.17L119.58 504.722H111.857Z" fill="#F6E8E7"/>
<path d="M62.1763 481.909L57.8536 480.358L56.6433 481.909L61.0237 483.461L62.1763 481.909Z" fill="#F6E8E7"/>
<path d="M64.3088 489.494L68.6315 491.103L69.8418 489.494L65.4614 487.943L64.3088 489.494Z" fill="#F6E8E7"/>
<path d="M71.9175 497.079L76.2974 498.688L77.45 497.079L73.1278 495.528L71.9175 497.079Z" fill="#F6E8E7"/>
<path d="M75.6034 481.909L71.223 480.358L70.0127 481.909L74.3931 483.461L75.6034 481.909Z" fill="#F6E8E7"/>
<path d="M77.6797 489.495L82.0024 491.103L83.2127 489.495L78.89 487.943L77.6797 489.495Z" fill="#F6E8E7"/>
<path d="M85.3455 497.079L89.6677 498.688L90.878 497.079L86.4981 495.528L85.3455 497.079Z" fill="#F6E8E7"/>
<path d="M88.9763 481.909L84.596 480.358L83.4434 481.909L87.766 483.461L88.9763 481.909Z" fill="#F6E8E7"/>
<path d="M91.0515 489.494L95.4319 491.103L96.5845 489.494L92.2618 487.943L91.0515 489.494Z" fill="#F6E8E7"/>
<path d="M98.7153 497.079L103.038 498.688L104.248 497.079L99.9256 495.528L98.7153 497.079Z" fill="#F6E8E7"/>
<path d="M100.33 544.774L32.2073 477.024L33.5903 472.542L101.656 540.292L100.33 544.774Z" fill="#72BDBA"/>
<path d="M164.245 578.62L130.299 544.774L131.625 540.292L165.571 574.196L164.245 578.62Z" fill="#72BDBA"/>
<path d="M283.664 578.62H164.189L165.572 574.196H285.047L283.664 578.62Z" fill="#177D8F"/>
<path d="M243.031 602.986C242.916 602.986 242.801 602.928 242.743 602.871C242.57 602.698 242.57 602.411 242.743 602.296L246.604 598.446C246.778 598.274 247.066 598.274 247.181 598.446C247.354 598.619 247.354 598.906 247.181 599.021L243.319 602.871C243.204 602.986 243.089 602.986 243.031 602.986Z" fill="#1E193D"/>
<path d="M245.798 605.457C245.683 605.457 245.567 605.399 245.509 605.342C245.337 605.169 245.337 604.882 245.509 604.767L249.602 600.687C249.774 600.515 250.062 600.515 250.178 600.687C250.351 600.859 250.351 601.146 250.178 601.261L246.086 605.342C245.971 605.399 245.855 605.457 245.798 605.457Z" fill="#1E193D"/>
<path d="M161.422 540.752C161.306 540.752 161.191 540.694 161.134 540.637L92.9528 472.886C92.7801 472.714 92.7801 472.427 92.9528 472.312C93.1259 472.139 93.4141 472.139 93.5291 472.312L161.71 540.005C161.883 540.177 161.883 540.465 161.71 540.579C161.595 540.694 161.48 540.752 161.422 540.752Z" fill="#1E193D"/>
<path d="M220.9 540.752C220.785 540.752 220.67 540.694 220.612 540.637L152.489 472.886C152.316 472.714 152.316 472.427 152.489 472.312C152.662 472.139 152.95 472.139 153.065 472.312L221.188 540.062C221.361 540.235 221.361 540.522 221.188 540.637C221.073 540.694 221.015 540.752 220.9 540.752Z" fill="#1E193D"/>
<path d="M123.153 473.002C123.038 473.002 122.923 472.944 122.865 472.887L88.8037 438.983C88.6305 438.811 88.6305 438.523 88.8037 438.408C88.9764 438.236 89.2646 438.236 89.38 438.408L123.441 472.254C123.614 472.427 123.614 472.714 123.441 472.829C123.326 472.944 123.269 473.002 123.153 473.002Z" fill="#1E193D"/>
<path d="M225.338 574.598C225.222 574.598 225.107 574.541 225.049 574.483L190.988 540.637C190.815 540.465 190.815 540.177 190.988 540.062C191.161 539.89 191.449 539.89 191.564 540.062L225.626 573.908C225.799 574.081 225.799 574.368 225.626 574.483C225.511 574.598 225.395 574.598 225.338 574.598Z" fill="#1E193D"/>
<path d="M260.898 610.801C260.898 607.583 258.304 604.997 255.077 604.997C251.907 604.997 249.313 607.583 249.313 610.801C249.313 613.961 251.907 616.547 255.077 616.547C258.304 616.547 260.898 613.961 260.898 610.801Z" fill="#1E193D"/>
<path d="M255.082 608.066L252.35 610.787L255.079 613.51L257.811 610.79L255.082 608.066Z" fill="#51A8B7"/>
<path d="M295.939 667.403H51.7454C51.515 667.403 51.3418 667.229 51.3418 667C51.3418 666.771 51.515 666.596 51.7454 666.596H295.939C296.17 666.596 296.343 666.771 296.343 667C296.401 667.229 296.17 667.403 295.939 667.403Z" fill="#1E193D"/>
<path d="M68.7099 384.679C68.5945 384.679 68.4795 384.679 68.4217 384.622C68.1336 384.45 68.0182 384.047 68.1336 383.76L97.181 329.169C97.3537 328.882 97.7573 328.767 98.0455 328.882C98.3336 329.054 98.4486 329.456 98.3336 329.743L69.2862 384.335C69.1707 384.507 68.9403 384.679 68.7099 384.679Z" fill="#F7F3E8"/>
<path d="M56.6069 407.434C56.4919 407.434 56.3764 407.434 56.3187 407.377C56.0306 407.205 55.9151 406.802 56.0306 406.515L60.411 398.298C60.5837 398.01 60.9873 397.895 61.2754 398.01C61.5635 398.183 61.6785 398.585 61.5636 398.873L57.1832 407.09C57.0682 407.32 56.8373 407.434 56.6069 407.434Z" fill="#F7F3E8"/>
<path d="M42.0835 434.731C41.9685 434.731 41.8531 434.731 41.7953 434.673C41.5072 434.501 41.3922 434.098 41.5072 433.811L52.3422 413.411C52.5154 413.124 52.9185 413.009 53.2071 413.124C53.4953 413.296 53.6103 413.699 53.4953 413.986L42.6598 434.386C42.5448 434.616 42.3144 434.731 42.0835 434.731Z" fill="#F7F3E8"/>
<path d="M115.451 340.546C115.335 340.546 115.22 340.546 115.162 340.489C114.874 340.316 114.759 339.914 114.874 339.627L129.398 312.331C129.571 312.044 129.974 311.929 130.262 312.044C130.551 312.217 130.666 312.619 130.551 312.906L116.027 340.202C115.911 340.431 115.681 340.546 115.451 340.546Z" fill="#F7F3E8"/>
<path d="M74.0119 418.41C73.8965 418.41 73.7815 418.41 73.7237 418.353C73.4356 418.181 73.3202 417.778 73.4356 417.491L107.267 353.936C107.439 353.648 107.843 353.534 108.131 353.648C108.419 353.821 108.535 354.223 108.419 354.51L74.5882 418.066C74.4727 418.296 74.2423 418.41 74.0119 418.41Z" fill="#F7F3E8"/>
<path d="M106.518 401.056C106.403 401.056 106.287 401.056 106.23 400.999C105.942 400.826 105.827 400.424 105.942 400.137L147.438 322.1C147.611 321.813 148.014 321.698 148.302 321.813C148.59 321.985 148.706 322.388 148.59 322.675L107.095 400.711C106.979 400.941 106.749 401.056 106.518 401.056Z" fill="#F7F3E8"/>
<path d="M90.0346 432.087C89.9197 432.087 89.8042 432.087 89.7465 432.03C89.4584 431.857 89.3434 431.455 89.4584 431.167L100.582 410.25C100.755 409.963 101.158 409.848 101.446 409.963C101.735 410.136 101.85 410.538 101.735 410.825L90.5537 431.742C90.4382 431.972 90.2078 432.087 90.0346 432.087Z" fill="#F7F3E8"/>
<path d="M161.5 341.466C161.384 341.466 161.27 341.466 161.212 341.408C160.924 341.236 160.808 340.834 160.924 340.547L165.534 331.87C165.707 331.582 166.111 331.467 166.399 331.582C166.687 331.755 166.802 332.157 166.687 332.444L162.076 341.121C161.904 341.351 161.73 341.466 161.5 341.466Z" fill="#F7F3E8"/>
<path d="M119.774 419.904C119.659 419.904 119.544 419.904 119.486 419.847C119.198 419.675 119.082 419.272 119.198 418.985L155.392 350.89C155.564 350.603 155.968 350.488 156.256 350.603C156.544 350.775 156.66 351.177 156.544 351.464L120.35 419.56C120.235 419.79 120.005 419.904 119.774 419.904Z" fill="#F7F3E8"/>
<path d="M165.189 378.186C165.074 378.186 164.959 378.186 164.901 378.128C164.613 377.956 164.497 377.553 164.613 377.266L176.774 354.338C176.946 354.051 177.35 353.936 177.638 354.051C177.926 354.223 178.042 354.625 177.926 354.912L165.765 377.841C165.65 378.071 165.42 378.186 165.189 378.186Z" fill="#F7F3E8"/>
<path d="M136.43 432.316C136.315 432.316 136.199 432.316 136.142 432.259C135.854 432.086 135.739 431.684 135.854 431.397L160.348 385.368C160.521 385.081 160.925 384.966 161.213 385.081C161.501 385.253 161.616 385.655 161.501 385.943L137.007 431.971C136.891 432.144 136.661 432.316 136.43 432.316Z" fill="#F7F3E8"/>
<path d="M171.414 410.193C171.298 410.193 171.183 410.193 171.125 410.136C170.837 409.963 170.722 409.561 170.837 409.273L201.614 351.407C201.786 351.12 202.19 351.005 202.478 351.12C202.766 351.292 202.882 351.694 202.766 351.982L171.99 409.848C171.874 410.078 171.644 410.193 171.414 410.193Z" fill="#F7F3E8"/>
<path d="M156.717 437.891C156.602 437.891 156.486 437.891 156.429 437.833C156.141 437.661 156.025 437.258 156.141 436.971L163.863 422.433C164.036 422.146 164.44 422.031 164.728 422.146C165.016 422.318 165.131 422.72 165.016 423.007L157.293 437.546C157.178 437.776 156.947 437.891 156.717 437.891Z" fill="#F7F3E8"/>
<path d="M199.25 401.631C199.135 401.631 199.02 401.631 198.962 401.573C198.674 401.401 198.559 400.999 198.674 400.711L214.927 370.198C215.099 369.91 215.503 369.795 215.791 369.91C216.079 370.083 216.194 370.485 216.079 370.772L199.827 401.286C199.711 401.516 199.481 401.631 199.25 401.631Z" fill="#F7F3E8"/>
<path d="M175.621 446.108C175.505 446.108 175.39 446.108 175.332 446.051C175.044 445.879 174.929 445.476 175.044 445.189L193.89 409.791C194.063 409.504 194.466 409.389 194.755 409.504C195.043 409.676 195.158 410.078 195.043 410.366L176.197 445.764C176.024 445.993 175.851 446.108 175.621 446.108Z" fill="#F7F3E8"/>
<path d="M234.407 379.335C234.292 379.335 234.176 379.335 234.119 379.278C233.83 379.105 233.715 378.703 233.83 378.416L237.749 371.003C237.923 370.716 238.326 370.601 238.614 370.716C238.902 370.888 239.018 371.29 238.902 371.577L234.983 378.99C234.81 379.22 234.638 379.335 234.407 379.335Z" fill="#F7F3E8"/>
<path d="M203.055 438.236C202.939 438.236 202.824 438.236 202.767 438.178C202.479 438.006 202.363 437.603 202.479 437.316L228.76 387.955C228.932 387.667 229.336 387.552 229.624 387.667C229.912 387.84 230.027 388.242 229.912 388.529L203.631 437.891C203.516 438.121 203.285 438.236 203.055 438.236Z" fill="#F7F3E8"/>
<path d="M187.147 468.174C187.032 468.174 186.917 468.174 186.859 468.117C186.571 467.944 186.456 467.542 186.571 467.255L196.196 449.154C196.369 448.866 196.772 448.752 197.06 448.866C197.348 449.039 197.464 449.441 197.348 449.728L187.724 467.829C187.609 468.002 187.378 468.174 187.147 468.174Z" fill="#F7F3E8"/>
<path d="M245.589 401.918C245.473 401.918 245.358 401.918 245.301 401.86C245.013 401.688 244.897 401.286 245.013 400.999L255.79 380.714C255.963 380.427 256.366 380.312 256.655 380.427C256.943 380.599 257.058 381.001 256.943 381.288L246.165 401.573C246.05 401.803 245.819 401.918 245.589 401.918Z" fill="#F7F3E8"/>
<path d="M211.353 466.335C211.238 466.335 211.123 466.335 211.065 466.277C210.777 466.105 210.661 465.703 210.777 465.416L240.343 409.848C240.516 409.561 240.919 409.446 241.207 409.561C241.496 409.733 241.611 410.135 241.496 410.422L211.93 465.99C211.815 466.22 211.584 466.335 211.353 466.335Z" fill="#F7F3E8"/>
<path d="M240.573 455.13C240.458 455.13 240.343 455.13 240.285 455.073C239.997 454.9 239.882 454.498 239.997 454.211L268.583 400.424C268.756 400.137 269.16 400.022 269.448 400.137C269.736 400.31 269.851 400.712 269.736 400.999L241.15 454.786C241.034 454.958 240.804 455.13 240.573 455.13Z" fill="#F7F3E8"/>
<path d="M227.434 479.782C227.319 479.782 227.204 479.782 227.146 479.725C226.858 479.552 226.742 479.15 226.858 478.863L236.367 460.934C236.54 460.647 236.944 460.532 237.232 460.647C237.52 460.819 237.635 461.221 237.52 461.509L228.01 479.437C227.895 479.667 227.664 479.782 227.434 479.782Z" fill="#F7F3E8"/>
<path d="M272.1 439.557C271.984 439.557 271.869 439.557 271.811 439.5C271.523 439.327 271.408 438.925 271.523 438.638L291.925 400.252C292.098 399.965 292.502 399.85 292.79 399.965C293.078 400.137 293.193 400.539 293.078 400.826L272.676 439.27C272.56 439.442 272.33 439.557 272.1 439.557Z" fill="#F7F3E8"/>
<path d="M242.533 495.183C242.418 495.183 242.303 495.183 242.245 495.126C241.957 494.953 241.842 494.551 241.957 494.263L265.702 449.671C265.875 449.384 266.278 449.269 266.566 449.384C266.855 449.557 266.97 449.959 266.855 450.246L243.11 494.838C242.994 495.011 242.764 495.183 242.533 495.183Z" fill="#F7F3E8"/>
<path d="M298.323 433.983C298.208 433.983 298.093 433.983 298.035 433.926C297.747 433.754 297.632 433.351 297.747 433.064L309.965 410.078C310.138 409.791 310.542 409.676 310.83 409.791C311.118 409.963 311.233 410.365 311.118 410.653L298.9 433.639C298.785 433.868 298.554 433.983 298.323 433.983Z" fill="#F7F3E8"/>
<path d="M264.665 497.309C264.55 497.309 264.435 497.309 264.377 497.252C264.089 497.079 263.974 496.677 264.089 496.39L291.119 445.591C291.292 445.304 291.695 445.189 291.984 445.304C292.272 445.476 292.387 445.879 292.272 446.166L265.242 496.964C265.126 497.194 264.896 497.309 264.665 497.309Z" fill="#F7F3E8"/>
<path d="M287.085 498.86C286.97 498.86 286.855 498.86 286.797 498.802C286.509 498.63 286.393 498.228 286.509 497.941L323.222 428.869C323.394 428.582 323.798 428.467 324.086 428.582C324.374 428.754 324.49 429.156 324.374 429.443L287.661 498.515C287.546 498.745 287.316 498.86 287.085 498.86Z" fill="#F7F3E8"/>
<path d="M273.079 525.179C272.964 525.179 272.849 525.179 272.791 525.121C272.503 524.949 272.388 524.546 272.503 524.259L280.975 508.399C281.148 508.111 281.551 507.996 281.839 508.111C282.128 508.284 282.243 508.686 282.128 508.974L273.655 524.834C273.54 525.064 273.31 525.179 273.079 525.179Z" fill="#F7F3E8"/>
<path d="M331.751 458.636C331.635 458.636 331.52 458.636 331.463 458.579C331.174 458.406 331.059 458.004 331.174 457.716L346.101 429.616C346.274 429.329 346.678 429.214 346.966 429.329C347.254 429.501 347.369 429.904 347.254 430.191L332.327 458.291C332.212 458.521 331.981 458.636 331.751 458.636Z" fill="#F7F3E8"/>
<path d="M276.883 561.783C276.767 561.783 276.652 561.783 276.594 561.726C276.306 561.553 276.191 561.151 276.306 560.864L322.874 473.288C323.047 473.001 323.451 472.886 323.739 473.001C324.027 473.173 324.142 473.575 324.027 473.863L277.459 561.438C277.343 561.668 277.113 561.783 276.883 561.783Z" fill="#F7F3E8"/>
<path d="M300.549 501.561C300.434 501.561 300.318 501.561 300.261 501.503C299.973 501.331 299.858 500.928 299.973 500.641L333.804 437.086C333.977 436.798 334.38 436.683 334.668 436.798C334.956 436.971 335.071 437.373 334.957 437.66L301.126 501.216C301.01 501.446 300.78 501.561 300.549 501.561Z" fill="#F7F3E8"/>
<path d="M269.946 515.409C269.831 515.409 269.716 515.409 269.658 515.352C269.37 515.18 269.255 514.777 269.37 514.49L301.299 454.44C301.472 454.152 301.875 454.037 302.164 454.152C302.452 454.325 302.567 454.727 302.452 455.015L270.522 515.065C270.35 515.294 270.177 515.409 269.946 515.409Z" fill="#F7F3E8"/>
<path d="M307.295 445.188C307.179 445.188 307.064 445.188 307.006 445.13C306.718 444.958 306.603 444.556 306.718 444.269L317.842 423.352C318.014 423.064 318.418 422.95 318.706 423.064C318.994 423.237 319.11 423.639 318.994 423.926L307.871 444.843C307.698 445.073 307.525 445.188 307.295 445.188Z" fill="#F7F3E8"/>
<path d="M263.262 484.207C263.146 484.207 263.031 484.207 262.974 484.149C262.686 483.977 262.57 483.575 262.686 483.287L288.044 435.592C288.218 435.305 288.621 435.19 288.909 435.305C289.197 435.477 289.312 435.879 289.197 436.166L263.838 483.862C263.723 484.092 263.492 484.207 263.262 484.207Z" fill="#F7F3E8"/>
<path d="M247.469 470.128C247.353 470.128 247.238 470.128 247.181 470.07C246.892 469.898 246.777 469.496 246.892 469.208L271.386 423.18C271.559 422.892 271.963 422.777 272.251 422.892C272.539 423.065 272.654 423.467 272.539 423.754L248.045 469.783C247.93 470.013 247.699 470.128 247.469 470.128Z" fill="#F7F3E8"/>
<path d="M229.315 460.588C229.2 460.588 229.084 460.588 229.027 460.531C228.739 460.358 228.624 459.956 228.739 459.669L236.404 445.245C236.577 444.958 236.98 444.843 237.269 444.958C237.557 445.13 237.672 445.533 237.557 445.82L229.891 460.244C229.776 460.473 229.546 460.588 229.315 460.588Z" fill="#F7F3E8"/>
<path d="M243.952 433.063C243.837 433.063 243.722 433.063 243.664 433.006C243.376 432.834 243.26 432.431 243.376 432.144L251.099 417.605C251.272 417.318 251.675 417.203 251.963 417.318C252.252 417.49 252.367 417.893 252.252 418.18L244.528 432.719C244.413 432.948 244.183 433.063 243.952 433.063Z" fill="#F7F3E8"/>
<path d="M202.169 467.829C202.053 467.829 201.938 467.829 201.881 467.771C201.593 467.599 201.477 467.196 201.593 466.909L208.566 453.865C208.739 453.578 209.143 453.463 209.431 453.578C209.719 453.75 209.834 454.152 209.719 454.44L202.745 467.484C202.63 467.714 202.399 467.829 202.169 467.829Z" fill="#F7F3E8"/>
<path d="M213.928 445.705C213.812 445.705 213.697 445.705 213.64 445.648C213.351 445.475 213.236 445.073 213.351 444.786L232.197 409.387C232.37 409.1 232.774 408.985 233.062 409.1C233.35 409.272 233.465 409.675 233.35 409.962L214.504 445.36C214.389 445.59 214.158 445.705 213.928 445.705Z" fill="#F7F3E8"/>
<path d="M183.035 460.129C182.92 460.129 182.804 460.129 182.747 460.071C182.459 459.899 182.344 459.497 182.459 459.209L204.763 417.26C204.936 416.973 205.339 416.858 205.628 416.973C205.916 417.145 206.031 417.548 205.916 417.835L183.612 459.784C183.496 460.014 183.266 460.129 183.035 460.129Z" fill="#F7F3E8"/>
<path d="M211.623 406.4C211.508 406.4 211.392 406.4 211.334 406.342C211.046 406.17 210.931 405.768 211.046 405.48L220.671 387.379C220.844 387.092 221.247 386.977 221.536 387.092C221.824 387.264 221.939 387.666 221.824 387.954L212.199 406.055C212.084 406.285 211.853 406.4 211.623 406.4Z" fill="#F7F3E8"/>
<path d="M167.474 445.648C167.358 445.648 167.243 445.648 167.185 445.59C166.897 445.418 166.782 445.016 166.897 444.729L196.463 389.161C196.636 388.874 197.04 388.759 197.328 388.874C197.616 389.046 197.731 389.448 197.616 389.735L168.05 445.303C167.934 445.533 167.704 445.648 167.474 445.648Z" fill="#F7F3E8"/>
<path d="M151.451 432.029C151.336 432.029 151.221 432.029 151.163 431.971C150.875 431.799 150.76 431.397 150.875 431.109L167.243 400.366C167.416 400.079 167.819 399.964 168.107 400.079C168.395 400.251 168.511 400.653 168.395 400.941L152.028 431.684C151.912 431.914 151.682 432.029 151.451 432.029Z" fill="#F7F3E8"/>
<path d="M171.392 394.505C171.277 394.505 171.161 394.505 171.104 394.447C170.816 394.275 170.701 393.873 170.816 393.586L180.325 375.657C180.498 375.369 180.902 375.254 181.19 375.369C181.478 375.542 181.593 375.944 181.478 376.231L171.968 394.16C171.853 394.39 171.623 394.505 171.392 394.505Z" fill="#F7F3E8"/>
<path d="M142.115 405.825C142 405.825 141.885 405.825 141.827 405.768C141.539 405.595 141.424 405.193 141.539 404.906L165.285 360.314C165.457 360.026 165.861 359.911 166.149 360.026C166.437 360.199 166.553 360.601 166.437 360.888L142.692 405.538C142.577 405.71 142.346 405.825 142.115 405.825Z" fill="#F7F3E8"/>
<path d="M116.698 409.905C116.583 409.905 116.468 409.905 116.41 409.847C116.122 409.675 116.007 409.273 116.122 408.986L143.152 358.187C143.325 357.9 143.728 357.785 144.017 357.9C144.305 358.072 144.42 358.474 144.305 358.762L117.275 409.56C117.159 409.79 116.929 409.905 116.698 409.905Z" fill="#F7F3E8"/>
<path d="M84.5395 426.627C84.4246 426.627 84.3091 426.627 84.2514 426.57C83.9632 426.398 83.8483 425.995 83.9632 425.708L120.676 356.636C120.849 356.349 121.252 356.234 121.541 356.349C121.829 356.521 121.944 356.924 121.829 357.211L85.1163 426.283C85.0008 426.513 84.7704 426.627 84.5395 426.627Z" fill="#F7F3E8"/>
<path d="M126.842 347.097C126.727 347.097 126.612 347.097 126.554 347.039C126.266 346.867 126.151 346.465 126.266 346.177L134.738 330.26C134.911 329.972 135.314 329.857 135.603 329.972C135.891 330.145 136.006 330.547 135.891 330.834L127.419 346.752C127.304 346.982 127.073 347.097 126.842 347.097Z" fill="#F7F3E8"/>
<path d="M61.716 425.88C61.601 425.88 61.4856 425.881 61.4279 425.823C61.1397 425.651 61.0243 425.248 61.1397 424.961L104.595 343.247C104.769 342.96 105.172 342.845 105.46 342.96C105.748 343.132 105.863 343.534 105.748 343.821L62.2346 425.536C62.1196 425.766 61.9464 425.88 61.716 425.88Z" fill="#F7F3E8"/>
</g>
<defs>
<clipPath id="clip0">
<rect width="375" height="667" fill="white"/>
</clipPath>
</defs>
</svg>
