<svg width="375" height="667" viewBox="0 0 375 667" fill="none" xmlns="http://www.w3.org/2000/svg">
<g clip-path="url(#clip0)">
<path d="M353.498 480.107L337.125 480C336.085 480 335.229 480.826 335.229 481.865L335 514.778C335 515.818 335.826 516.674 336.865 516.674L358.466 516.827C359.506 516.827 360.362 516.001 360.362 514.962L360.545 488.041L353.544 480.29L353.498 480.107Z" fill="#CF4E31"/>
<path d="M360.566 517.723C363.449 514.839 363.449 510.164 360.566 507.28C357.682 504.397 353.007 504.397 350.124 507.28C347.24 510.164 347.24 514.839 350.124 517.723C353.007 520.606 357.682 520.606 360.566 517.723Z" fill="white"/>
<path d="M360.561 488.026L353.544 480.29L353.498 480.107H353.391L353.33 487.965L360.561 488.026Z" fill="#7A2B1A"/>
<path d="M352.978 520.481C352.902 520.465 352.825 520.45 352.718 520.45C352.519 520.45 352.306 520.481 352.061 520.526C351.801 520.572 351.541 520.603 351.281 520.603C350.975 520.603 350.731 520.542 350.517 520.419C350.15 520.206 349.951 519.839 349.798 519.456L347.047 526.489L350.425 525.388L352.168 528.491L354.843 521.642C354.4 521.551 354.033 521.245 353.697 520.955C353.452 520.756 353.192 520.542 352.978 520.481Z" fill="#F7CE14"/>
<path d="M359.735 520.465C359.521 520.588 359.261 520.649 358.97 520.649C358.711 520.649 358.451 520.603 358.191 520.557C357.961 520.511 357.732 520.481 357.534 520.481C357.427 520.481 357.35 520.496 357.274 520.511C357.059 520.572 356.8 520.786 356.54 520.985C356.204 521.26 355.836 521.551 355.393 521.642L357.977 528.522L359.765 525.449L363.129 526.596L360.484 519.533C360.316 519.9 360.102 520.267 359.735 520.465Z" fill="#F7CE14"/>
<path d="M363.924 512.852C363.939 512.837 363.939 512.806 363.954 512.791C363.969 512.73 363.985 512.654 364 512.592C364 512.562 364 512.547 364 512.516C364 512.195 363.817 511.889 363.587 511.599C363.557 511.553 363.526 511.522 363.496 511.476C363.48 511.461 363.465 511.431 363.45 511.415C363.419 511.369 363.388 511.339 363.343 511.293C363.312 511.247 363.281 511.217 363.251 511.171C363.236 511.155 363.22 511.125 363.205 511.11C363.174 511.064 363.144 511.033 363.113 510.987C363.083 510.942 363.052 510.911 363.037 510.865C362.976 510.758 362.915 510.651 362.884 510.544C362.884 510.529 362.869 510.498 362.869 510.483C362.853 510.422 362.838 510.345 362.838 510.269C362.823 510.146 362.838 510.024 362.838 509.902C362.838 509.871 362.838 509.856 362.853 509.826C362.869 509.719 362.884 509.612 362.899 509.505C362.915 509.458 362.915 509.413 362.93 509.351C362.93 509.336 362.93 509.336 362.93 509.321C363.006 508.878 363.067 508.434 362.884 508.113C362.747 507.869 362.502 507.716 362.211 507.594C362.165 507.578 362.12 507.548 362.074 507.532C361.982 507.487 361.875 507.456 361.783 507.41C361.738 507.395 361.676 507.364 361.631 507.349C361.6 507.334 361.585 507.334 361.554 507.319C361.508 507.303 361.462 507.272 361.417 507.257C361.34 507.226 361.279 507.196 361.218 507.15C361.172 507.12 361.126 507.104 361.095 507.074C361.019 507.028 360.942 506.967 360.881 506.906C360.836 506.86 360.79 506.799 360.744 506.737C360.713 506.692 360.698 506.661 360.667 506.615C360.637 506.569 360.622 506.523 360.591 506.478C360.56 506.417 360.53 506.34 360.499 506.264C360.484 506.217 360.453 506.172 360.438 506.111C360.423 506.065 360.408 506.004 360.377 505.958C360.362 505.927 360.362 505.912 360.346 505.881C360.331 505.835 360.316 505.79 360.301 505.759C360.285 505.728 360.27 505.698 360.27 505.667C360.224 505.545 360.163 505.423 360.117 505.316C360.086 505.27 360.071 505.224 360.04 505.194C360.01 505.148 359.979 505.117 359.964 505.071C359.903 504.995 359.842 504.933 359.765 504.888C359.75 504.872 359.735 504.857 359.704 504.857C359.689 504.842 359.658 504.842 359.643 504.826C359.643 504.826 359.628 504.826 359.628 504.811C359.613 504.811 359.597 504.796 359.582 504.796C359.567 504.796 359.567 504.796 359.551 504.781C359.536 504.781 359.521 504.765 359.521 504.765C359.506 504.765 359.506 504.765 359.49 504.75C359.475 504.75 359.46 504.75 359.46 504.735C359.444 504.735 359.444 504.735 359.429 504.735C359.414 504.735 359.399 504.735 359.399 504.735C359.383 504.735 359.383 504.735 359.368 504.735C359.353 504.735 359.337 504.735 359.337 504.735C359.322 504.735 359.322 504.735 359.307 504.735C359.292 504.735 359.276 504.735 359.261 504.735C359.246 504.735 359.23 504.735 359.23 504.735C359.215 504.735 359.2 504.735 359.185 504.735C359.169 504.735 359.169 504.735 359.154 504.735C359.139 504.735 359.124 504.735 359.108 504.735C359.093 504.735 359.093 504.735 359.078 504.735C359.062 504.735 359.047 504.735 359.031 504.735C359.017 504.735 359.017 504.735 359.001 504.735C358.986 504.735 358.955 504.735 358.94 504.735H358.924C358.894 504.735 358.863 504.735 358.833 504.75C358.833 504.75 358.833 504.75 358.818 504.75C358.787 504.75 358.772 504.75 358.741 504.765C358.726 504.765 358.726 504.765 358.711 504.765C358.695 504.765 358.665 504.765 358.649 504.781C358.634 504.781 358.634 504.781 358.619 504.781C358.604 504.781 358.573 504.781 358.558 504.796C358.542 504.796 358.542 504.796 358.527 504.796C358.497 504.796 358.466 504.811 358.451 504.811C358.435 504.811 358.42 504.811 358.405 504.811C358.39 504.811 358.374 504.811 358.359 504.826C358.328 504.826 358.313 504.826 358.283 504.842H358.267C358.237 504.842 358.206 504.857 358.176 504.857C358.16 504.857 358.16 504.857 358.145 504.857C358.13 504.857 358.099 504.857 358.084 504.857C358.069 504.857 358.069 504.857 358.053 504.857C358.038 504.857 358.023 504.857 358.008 504.857C357.992 504.857 357.992 504.857 357.977 504.857C357.962 504.857 357.946 504.857 357.931 504.857C357.916 504.857 357.916 504.857 357.901 504.857C357.885 504.857 357.87 504.857 357.854 504.857C357.839 504.857 357.839 504.857 357.824 504.857C357.809 504.857 357.778 504.857 357.763 504.857H357.747C357.717 504.857 357.686 504.857 357.656 504.857H357.64C357.625 504.857 357.595 504.857 357.579 504.857C357.564 504.857 357.564 504.857 357.549 504.857C357.533 504.857 357.503 504.857 357.488 504.842C357.472 504.842 357.472 504.842 357.457 504.842C357.426 504.842 357.411 504.826 357.381 504.826C357.274 504.796 357.167 504.75 357.06 504.689C357.014 504.658 356.983 504.643 356.937 504.612C356.876 504.567 356.815 504.521 356.754 504.475C356.738 504.46 356.708 504.444 356.693 504.429C356.616 504.368 356.524 504.292 356.448 504.23C356.387 504.185 356.326 504.123 356.265 504.078C355.974 503.848 355.669 503.665 355.347 503.649C354.69 503.649 354.14 504.399 353.544 504.704C353.498 504.719 353.452 504.75 353.421 504.765C353.375 504.781 353.329 504.796 353.299 504.811C353.268 504.811 353.253 504.826 353.222 504.826C353.207 504.826 353.207 504.826 353.192 504.826C353.177 504.826 353.161 504.826 353.131 504.842C353.115 504.842 353.115 504.842 353.1 504.842C353.085 504.842 353.054 504.842 353.039 504.842C353.024 504.842 353.024 504.842 353.008 504.842C352.978 504.842 352.947 504.842 352.917 504.842H352.901C352.886 504.842 352.856 504.842 352.84 504.842C352.825 504.842 352.825 504.842 352.81 504.842C352.794 504.842 352.779 504.842 352.764 504.842C352.749 504.842 352.749 504.842 352.733 504.842C352.718 504.842 352.703 504.842 352.687 504.842C352.672 504.842 352.672 504.842 352.657 504.842C352.642 504.842 352.626 504.842 352.611 504.842C352.596 504.842 352.596 504.842 352.581 504.842C352.565 504.842 352.535 504.842 352.519 504.826C352.504 504.826 352.504 504.826 352.489 504.826C352.458 504.826 352.428 504.811 352.397 504.811C352.397 504.811 352.397 504.811 352.382 504.811C352.351 504.811 352.336 504.796 352.305 504.796C352.29 504.796 352.275 504.796 352.275 504.796C352.259 504.796 352.229 504.796 352.213 504.781C352.198 504.781 352.168 504.781 352.152 504.765C352.137 504.765 352.122 504.765 352.122 504.765C352.106 504.765 352.091 504.765 352.076 504.75C352.061 504.75 352.045 504.75 352.045 504.75C352.03 504.75 352.015 504.75 351.984 504.735C351.969 504.735 351.969 504.735 351.954 504.735C351.938 504.735 351.908 504.735 351.892 504.719H351.877C351.847 504.719 351.816 504.719 351.801 504.704H351.785C351.77 504.704 351.74 504.704 351.724 504.704C351.709 504.704 351.709 504.704 351.694 504.704C351.678 504.704 351.663 504.704 351.648 504.704C351.633 504.704 351.633 504.704 351.617 504.704C351.602 504.704 351.587 504.704 351.572 504.704C351.556 504.704 351.556 504.704 351.541 504.704C351.526 504.704 351.51 504.704 351.495 504.704C351.48 504.704 351.48 504.704 351.465 504.704C351.449 504.704 351.434 504.704 351.419 504.704C351.403 504.704 351.403 504.704 351.388 504.704C351.373 504.704 351.358 504.704 351.342 504.704C351.327 504.704 351.327 504.704 351.312 504.704C351.296 504.704 351.281 504.704 351.266 504.704C351.251 504.704 351.251 504.704 351.235 504.704C351.22 504.704 351.205 504.704 351.189 504.719C351.174 504.719 351.174 504.719 351.159 504.719C351.143 504.719 351.128 504.735 351.113 504.735C351.097 504.735 351.097 504.735 351.082 504.75C351.067 504.75 351.052 504.765 351.036 504.765C351.036 504.765 351.021 504.765 351.021 504.781C351.006 504.796 350.975 504.796 350.96 504.811C350.914 504.826 350.883 504.857 350.853 504.888C350.807 504.933 350.746 504.979 350.7 505.04C350.624 505.132 350.563 505.239 350.501 505.346C350.486 505.362 350.471 505.392 350.471 505.408C350.456 505.453 350.425 505.499 350.41 505.545C350.349 505.683 350.287 505.835 350.226 505.988C350.196 506.065 350.165 506.141 350.135 506.203C350.119 506.233 350.119 506.248 350.104 506.279C350.089 506.325 350.073 506.355 350.043 506.401C350.012 506.447 349.997 506.508 349.966 506.554C349.951 506.585 349.92 506.615 349.905 506.646C349.89 506.676 349.874 506.707 349.844 506.722C349.813 506.753 349.783 506.799 349.752 506.829C349.706 506.875 349.645 506.921 349.584 506.967C349.538 506.997 349.508 507.013 349.462 507.043C349.447 507.058 349.416 507.074 349.401 507.074C349.34 507.104 349.263 507.135 349.187 507.165C349.156 507.181 349.141 507.181 349.11 507.196C349.064 507.211 349.019 507.242 348.958 507.257C348.789 507.319 348.606 507.38 348.438 507.456C348.392 507.471 348.346 507.502 348.3 507.517C348.04 507.639 347.826 507.777 347.704 508.006C347.673 508.067 347.643 508.129 347.627 508.19C347.612 508.235 347.612 508.266 347.597 508.312C347.597 508.342 347.581 508.373 347.581 508.388C347.581 508.434 347.566 508.48 347.566 508.526C347.566 508.572 347.566 508.618 347.566 508.679C347.566 508.71 347.566 508.725 347.566 508.755C347.566 508.862 347.581 508.954 347.597 509.061C347.597 509.107 347.612 509.168 347.627 509.214C347.643 509.26 347.643 509.321 347.658 509.367C347.673 509.413 347.673 509.474 347.673 509.52C347.688 509.596 347.688 509.673 347.704 509.749C347.704 509.826 347.719 509.902 347.719 509.978C347.719 510.101 347.704 510.223 347.673 510.33C347.658 510.376 347.643 510.422 347.627 510.452C347.612 510.498 347.597 510.544 347.566 510.574C347.551 510.59 347.536 510.62 347.536 510.636C347.505 510.682 347.49 510.712 347.459 510.758C347.429 510.804 347.398 510.835 347.367 510.88C347.016 511.354 346.496 511.813 346.496 512.348C346.496 513.005 347.245 513.556 347.551 514.152C347.566 514.167 347.566 514.198 347.581 514.213C347.612 514.274 347.627 514.335 347.658 514.412C347.673 514.458 347.673 514.503 347.688 514.549C347.688 514.595 347.704 514.641 347.704 514.687C347.704 514.763 347.704 514.84 347.704 514.916C347.704 514.992 347.688 515.069 347.673 515.146C347.673 515.191 347.658 515.253 347.643 515.298C347.627 515.405 347.612 515.512 347.597 515.619C347.566 515.772 347.551 515.94 347.536 516.078C347.536 516.124 347.536 516.185 347.536 516.231C347.536 516.43 347.566 516.613 347.658 516.766C347.918 517.209 348.56 517.378 349.11 517.607C349.126 517.622 349.156 517.622 349.171 517.637C349.248 517.668 349.324 517.714 349.385 517.744C349.401 517.76 349.431 517.775 349.447 517.775C349.477 517.79 349.508 517.805 349.538 517.836C349.599 517.882 349.645 517.928 349.691 517.974C349.752 518.035 349.798 518.096 349.844 518.172C349.859 518.188 349.859 518.203 349.874 518.218C349.92 518.279 349.951 518.356 349.981 518.432C349.997 518.463 350.012 518.494 350.027 518.524C350.073 518.616 350.104 518.723 350.15 518.814V518.83C350.211 518.967 350.257 519.12 350.318 519.258C350.333 519.288 350.333 519.303 350.349 519.334C350.471 519.625 350.624 519.869 350.868 520.007C351.036 520.099 351.22 520.144 351.434 520.144C351.892 520.144 352.412 519.992 352.871 519.992C352.993 519.992 353.115 520.007 353.238 520.037C353.345 520.068 353.452 520.114 353.559 520.175C353.666 520.236 353.773 520.312 353.865 520.389C353.88 520.404 353.91 520.419 353.926 520.435C354.002 520.496 354.094 520.572 354.17 520.633C354.231 520.68 354.293 520.74 354.354 520.787C354.614 520.985 354.858 521.153 355.149 521.199C355.195 521.199 355.24 521.214 355.271 521.214C355.317 521.214 355.363 521.214 355.393 521.199C355.99 521.108 356.509 520.45 357.06 520.16C357.075 520.144 357.106 520.144 357.121 520.129C357.182 520.099 357.243 520.083 357.319 520.053C357.426 520.022 357.549 520.007 357.686 520.007C358.145 520.007 358.665 520.175 359.124 520.175C359.322 520.175 359.521 520.144 359.689 520.053C360.224 519.747 360.346 518.906 360.667 518.325C360.683 518.31 360.683 518.294 360.698 518.279C360.713 518.249 360.744 518.218 360.759 518.188C360.805 518.126 360.851 518.081 360.897 518.035C360.942 517.989 361.004 517.943 361.065 517.897C361.111 517.867 361.141 517.851 361.187 517.821C361.202 517.805 361.233 517.79 361.248 517.79C361.432 517.698 361.631 517.622 361.829 517.546C361.936 517.515 362.028 517.469 362.135 517.439C362.257 517.393 362.38 517.332 362.487 517.286C362.685 517.179 362.853 517.056 362.96 516.873C363.022 516.751 363.067 516.628 363.083 516.491C363.083 516.445 363.098 516.399 363.098 516.353C363.098 516.277 363.098 516.2 363.098 516.124C363.098 516.078 363.083 516.017 363.083 515.971C363.083 515.925 363.067 515.864 363.067 515.818C363.067 515.772 363.052 515.711 363.037 515.665C363.006 515.512 362.991 515.344 362.976 515.191C362.976 515.161 362.976 515.146 362.976 515.115C362.976 515.038 362.96 514.962 362.96 514.885C362.96 514.855 362.96 514.84 362.96 514.809C362.96 514.763 362.96 514.717 362.976 514.671C362.976 514.641 362.976 514.626 362.991 514.595C363.006 514.565 363.006 514.549 363.006 514.534C363.037 514.412 363.098 514.274 363.19 514.152C363.236 514.075 363.297 513.983 363.373 513.907C363.388 513.892 363.404 513.861 363.419 513.846C363.465 513.785 363.526 513.724 363.572 513.663C363.587 513.418 363.817 513.143 363.924 512.852ZM355.133 519.349C351.327 519.319 348.254 516.215 348.285 512.409C348.315 508.603 351.419 505.53 355.225 505.56C359.031 505.591 362.104 508.694 362.074 512.501C362.043 516.307 358.94 519.365 355.133 519.349Z" fill="#F7CE14"/>
<path d="M355.225 506.156C351.755 506.126 348.912 508.939 348.881 512.409C348.851 515.879 351.663 518.723 355.133 518.753C358.604 518.784 361.447 515.971 361.478 512.501C361.508 509.015 358.695 506.187 355.225 506.156ZM354.446 516.032L351.327 512.776L352.443 511.706L354.537 513.892L358.726 510.177L359.75 511.339L354.446 516.032Z" fill="#F7CE14"/>
<path d="M345.747 490.793L340.763 500.24C340.549 500.653 340.932 501.112 341.375 500.989L344.983 499.965C345.365 499.858 345.716 500.179 345.64 500.561L344.386 507.303C344.279 507.899 345.105 508.174 345.38 507.624L351.067 496.036C351.266 495.624 350.884 495.165 350.44 495.303L346.71 496.434C346.343 496.541 345.977 496.235 346.038 495.853L346.756 491.068C346.817 490.517 346.022 490.258 345.747 490.793Z" fill="#F7CE14"/>
<path d="M341.925 487.17C341.925 487.2 341.925 487.215 341.909 487.231C341.894 487.246 341.879 487.261 341.833 487.277C341.802 487.292 341.741 487.292 341.665 487.307C341.589 487.307 341.497 487.307 341.375 487.307C341.268 487.307 341.191 487.307 341.13 487.292C341.069 487.292 341.023 487.277 340.977 487.261C340.946 487.246 340.916 487.231 340.9 487.215C340.885 487.2 340.87 487.17 340.87 487.139L340.457 486.069C340.411 485.947 340.35 485.84 340.304 485.748C340.259 485.656 340.197 485.58 340.136 485.519C340.075 485.458 340.014 485.412 339.922 485.381C339.846 485.351 339.754 485.335 339.647 485.335H339.341L339.326 487.154C339.326 487.185 339.311 487.2 339.295 487.215C339.28 487.231 339.25 487.246 339.219 487.261C339.188 487.277 339.127 487.277 339.066 487.292C339.005 487.292 338.929 487.307 338.837 487.307C338.745 487.307 338.669 487.307 338.607 487.292C338.546 487.277 338.5 487.277 338.455 487.261C338.424 487.246 338.393 487.231 338.378 487.215C338.363 487.2 338.363 487.17 338.363 487.154L338.393 482.828C338.393 482.721 338.424 482.645 338.485 482.599C338.546 482.553 338.607 482.522 338.684 482.522L339.922 482.538C340.045 482.538 340.152 482.538 340.228 482.553C340.304 482.553 340.381 482.568 340.442 482.568C340.641 482.599 340.809 482.645 340.962 482.706C341.115 482.767 341.237 482.859 341.344 482.966C341.451 483.073 341.527 483.195 341.589 483.348C341.65 483.501 341.665 483.669 341.665 483.852C341.665 484.005 341.65 484.158 341.604 484.296C341.558 484.433 341.497 484.54 341.42 484.647C341.344 484.754 341.237 484.846 341.13 484.907C341.007 484.983 340.885 485.045 340.732 485.09C340.809 485.121 340.87 485.167 340.931 485.213C340.992 485.259 341.054 485.32 341.099 485.396C341.161 485.473 341.206 485.549 341.252 485.641C341.298 485.733 341.344 485.84 341.39 485.947L341.787 486.894C341.818 486.986 341.848 487.063 341.864 487.093C341.925 487.108 341.925 487.154 341.925 487.17ZM340.702 483.929C340.702 483.776 340.671 483.638 340.595 483.531C340.518 483.424 340.411 483.348 340.243 483.302C340.197 483.287 340.136 483.287 340.075 483.271C340.014 483.256 339.922 483.256 339.815 483.256H339.387L339.372 484.601H339.861C339.999 484.601 340.121 484.586 340.228 484.556C340.335 484.525 340.411 484.479 340.488 484.418C340.564 484.357 340.61 484.28 340.641 484.204C340.687 484.128 340.702 484.036 340.702 483.929Z" fill="white"/>
<path d="M345.471 486.94C345.471 487.017 345.471 487.078 345.456 487.124C345.44 487.169 345.44 487.215 345.425 487.246C345.41 487.276 345.395 487.292 345.379 487.307C345.364 487.323 345.334 487.323 345.318 487.323L342.918 487.307C342.842 487.307 342.765 487.277 342.719 487.231C342.674 487.185 342.643 487.108 342.643 487.001L342.674 482.843C342.674 482.736 342.704 482.66 342.765 482.614C342.826 482.568 342.888 482.537 342.964 482.537L345.349 482.553C345.364 482.553 345.395 482.553 345.41 482.568C345.425 482.583 345.44 482.599 345.456 482.629C345.471 482.66 345.471 482.706 345.486 482.751C345.486 482.797 345.502 482.859 345.502 482.935C345.502 483.012 345.502 483.057 345.486 483.103C345.486 483.149 345.471 483.195 345.456 483.225C345.44 483.256 345.425 483.271 345.41 483.287C345.395 483.302 345.379 483.302 345.349 483.302L343.652 483.287L343.636 484.448L345.074 484.464C345.089 484.464 345.12 484.464 345.135 484.479C345.15 484.494 345.165 484.51 345.181 484.54C345.196 484.571 345.196 484.601 345.211 484.647C345.211 484.693 345.227 484.754 345.227 484.815C345.227 484.892 345.227 484.953 345.211 484.999C345.211 485.044 345.196 485.075 345.181 485.106C345.165 485.136 345.15 485.152 345.135 485.167C345.12 485.182 345.089 485.182 345.074 485.182L343.621 485.198L343.606 486.543L345.318 486.558C345.334 486.558 345.364 486.558 345.379 486.573C345.395 486.589 345.41 486.604 345.425 486.635C345.44 486.665 345.44 486.696 345.456 486.757C345.471 486.818 345.471 486.879 345.471 486.94Z" fill="white"/>
<path d="M349.522 486.635C349.522 486.696 349.522 486.742 349.522 486.787C349.522 486.833 349.507 486.864 349.507 486.894C349.507 486.925 349.492 486.956 349.477 486.971C349.461 486.986 349.446 487.017 349.415 487.047C349.385 487.078 349.339 487.108 349.263 487.154C349.186 487.2 349.094 487.246 348.972 487.277C348.865 487.323 348.727 487.353 348.59 487.368C348.452 487.384 348.284 487.414 348.116 487.399C347.795 487.399 347.489 487.338 347.229 487.246C346.969 487.139 346.74 486.986 346.557 486.787C346.373 486.589 346.236 486.329 346.144 486.038C346.052 485.733 346.006 485.381 346.006 484.983C346.006 484.571 346.067 484.219 346.174 483.898C346.281 483.577 346.434 483.317 346.633 483.103C346.832 482.889 347.061 482.736 347.336 482.614C347.611 482.507 347.902 482.446 348.238 482.461C348.376 482.461 348.498 482.476 348.62 482.492C348.743 482.522 348.85 482.537 348.957 482.583C349.064 482.614 349.156 482.66 349.232 482.706C349.308 482.751 349.37 482.798 349.4 482.828C349.431 482.859 349.461 482.889 349.461 482.905C349.477 482.92 349.477 482.95 349.492 482.996C349.507 483.042 349.507 483.073 349.507 483.119C349.507 483.164 349.507 483.226 349.507 483.287C349.507 483.363 349.507 483.424 349.492 483.47C349.492 483.516 349.477 483.562 349.461 483.592C349.446 483.623 349.431 483.653 349.415 483.669C349.4 483.684 349.385 483.684 349.354 483.684C349.324 483.684 349.278 483.669 349.217 483.623C349.156 483.577 349.094 483.531 349.003 483.47C348.911 483.424 348.804 483.363 348.681 483.317C348.559 483.271 348.406 483.256 348.238 483.256C348.055 483.256 347.887 483.287 347.734 483.363C347.581 483.439 347.459 483.546 347.352 483.699C347.245 483.837 347.168 484.021 347.107 484.219C347.046 484.418 347.031 484.647 347.015 484.907C347.015 485.182 347.046 485.427 347.092 485.641C347.153 485.84 347.229 486.023 347.336 486.146C347.443 486.283 347.566 486.375 347.719 486.451C347.872 486.512 348.04 486.558 348.223 486.558C348.391 486.558 348.544 486.543 348.666 486.497C348.789 486.451 348.896 486.421 348.987 486.359C349.079 486.314 349.156 486.268 349.217 486.222C349.278 486.176 349.324 486.161 349.354 486.161C349.385 486.161 349.4 486.161 349.415 486.176C349.431 486.191 349.446 486.207 349.446 486.237C349.446 486.268 349.461 486.314 349.461 486.359C349.522 486.466 349.522 486.543 349.522 486.635Z" fill="white"/>
</g>
<defs>
<clipPath id="clip0">
<rect width="375" height="667" fill="white"/>
</clipPath>
</defs>
</svg>
