<svg width="1920" height="1080" viewBox="0 0 1920 1080" fill="none" xmlns="http://www.w3.org/2000/svg">
<g clip-path="url(#clip0)">
<path d="M1702.85 560.3L1656.96 560C1654.04 560 1651.64 562.314 1651.64 565.227L1651 657.479C1651 660.393 1653.31 662.793 1656.23 662.793L1716.77 663.221C1719.69 663.221 1722.09 660.907 1722.09 657.994L1722.6 582.538L1702.97 560.814L1702.85 560.3Z" fill="#CF4E31"/>
<path d="M1722.66 665.731C1730.74 657.649 1730.74 644.545 1722.66 636.463C1714.58 628.381 1701.47 628.381 1693.39 636.463C1685.31 644.545 1685.31 657.649 1693.39 665.731C1701.47 673.813 1714.58 673.813 1722.66 665.731Z" fill="white"/>
<path d="M1722.64 582.495L1702.98 560.814L1702.85 560.3H1702.55L1702.38 582.324L1722.64 582.495Z" fill="#7A2B1A"/>
<path d="M1701.39 673.462C1701.18 673.419 1700.96 673.376 1700.66 673.376C1700.1 673.376 1699.5 673.462 1698.82 673.59C1698.09 673.719 1697.36 673.805 1696.63 673.805C1695.78 673.805 1695.09 673.633 1694.49 673.29C1693.46 672.691 1692.91 671.662 1692.48 670.591L1684.76 690.301L1694.23 687.216L1699.12 695.914L1706.62 676.718C1705.37 676.461 1704.35 675.604 1703.4 674.79C1702.72 674.233 1701.99 673.633 1701.39 673.462Z" fill="#F7CE14"/>
<path d="M1720.33 673.419C1719.73 673.762 1719 673.933 1718.19 673.933C1717.46 673.933 1716.73 673.805 1716 673.676C1715.36 673.548 1714.72 673.462 1714.16 673.462C1713.86 673.462 1713.64 673.505 1713.43 673.548C1712.83 673.719 1712.1 674.319 1711.37 674.876C1710.43 675.647 1709.4 676.461 1708.16 676.718L1715.4 696L1720.41 687.388L1729.84 690.601L1722.43 670.805C1721.96 671.834 1721.36 672.862 1720.33 673.419Z" fill="#F7CE14"/>
<path d="M1732.07 652.081C1732.11 652.038 1732.11 651.952 1732.15 651.909C1732.2 651.738 1732.24 651.524 1732.28 651.352C1732.28 651.266 1732.28 651.224 1732.28 651.138C1732.28 650.238 1731.77 649.381 1731.13 648.567C1731.04 648.438 1730.95 648.353 1730.87 648.224C1730.83 648.181 1730.78 648.096 1730.74 648.053C1730.65 647.924 1730.57 647.839 1730.44 647.71C1730.35 647.582 1730.27 647.496 1730.18 647.367C1730.14 647.324 1730.1 647.239 1730.05 647.196C1729.97 647.067 1729.88 646.982 1729.8 646.853C1729.71 646.725 1729.63 646.639 1729.58 646.51C1729.41 646.21 1729.24 645.91 1729.16 645.611C1729.16 645.568 1729.11 645.482 1729.11 645.439C1729.07 645.268 1729.03 645.053 1729.03 644.839C1728.98 644.496 1729.03 644.154 1729.03 643.811C1729.03 643.725 1729.03 643.682 1729.07 643.597C1729.11 643.297 1729.16 642.997 1729.2 642.697C1729.24 642.568 1729.24 642.44 1729.28 642.268C1729.28 642.226 1729.28 642.226 1729.28 642.183C1729.5 640.94 1729.67 639.697 1729.16 638.798C1728.77 638.112 1728.08 637.684 1727.27 637.341C1727.14 637.298 1727.01 637.212 1726.88 637.169C1726.63 637.041 1726.33 636.955 1726.07 636.827C1725.94 636.784 1725.77 636.698 1725.64 636.655C1725.56 636.612 1725.51 636.612 1725.43 636.57C1725.3 636.527 1725.17 636.441 1725.04 636.398C1724.83 636.312 1724.66 636.227 1724.48 636.098C1724.36 636.013 1724.23 635.97 1724.14 635.884C1723.93 635.755 1723.71 635.584 1723.54 635.413C1723.41 635.284 1723.28 635.113 1723.16 634.941C1723.07 634.813 1723.03 634.727 1722.94 634.599C1722.86 634.47 1722.81 634.341 1722.73 634.213C1722.64 634.042 1722.56 633.827 1722.47 633.613C1722.43 633.484 1722.34 633.356 1722.3 633.185C1722.26 633.056 1722.21 632.885 1722.13 632.756C1722.09 632.67 1722.09 632.628 1722.04 632.542C1722 632.413 1721.96 632.285 1721.91 632.199C1721.87 632.113 1721.83 632.028 1721.83 631.942C1721.7 631.599 1721.53 631.256 1721.4 630.956C1721.31 630.828 1721.27 630.699 1721.19 630.614C1721.1 630.485 1721.01 630.399 1720.97 630.271C1720.8 630.057 1720.63 629.885 1720.41 629.757C1720.37 629.714 1720.33 629.671 1720.24 629.671C1720.2 629.628 1720.11 629.628 1720.07 629.585C1720.07 629.585 1720.03 629.585 1720.03 629.542C1719.99 629.542 1719.94 629.5 1719.9 629.5C1719.86 629.5 1719.86 629.5 1719.81 629.457C1719.77 629.457 1719.73 629.414 1719.73 629.414C1719.69 629.414 1719.69 629.414 1719.64 629.371C1719.6 629.371 1719.56 629.371 1719.56 629.328C1719.51 629.328 1719.51 629.328 1719.47 629.328C1719.43 629.328 1719.39 629.328 1719.39 629.328C1719.34 629.328 1719.34 629.328 1719.3 629.328C1719.26 629.328 1719.21 629.328 1719.21 629.328C1719.17 629.328 1719.17 629.328 1719.13 629.328C1719.09 629.328 1719.04 629.328 1719 629.328C1718.96 629.328 1718.91 629.328 1718.91 629.328C1718.87 629.328 1718.83 629.328 1718.79 629.328C1718.74 629.328 1718.74 629.328 1718.7 629.328C1718.66 629.328 1718.61 629.328 1718.57 629.328C1718.53 629.328 1718.53 629.328 1718.49 629.328C1718.44 629.328 1718.4 629.328 1718.36 629.328C1718.31 629.328 1718.31 629.328 1718.27 629.328C1718.23 629.328 1718.14 629.328 1718.1 629.328H1718.06C1717.97 629.328 1717.89 629.328 1717.8 629.371C1717.8 629.371 1717.8 629.371 1717.76 629.371C1717.67 629.371 1717.63 629.371 1717.54 629.414C1717.5 629.414 1717.5 629.414 1717.46 629.414C1717.41 629.414 1717.33 629.414 1717.29 629.457C1717.24 629.457 1717.24 629.457 1717.2 629.457C1717.16 629.457 1717.07 629.457 1717.03 629.5C1716.99 629.5 1716.99 629.5 1716.94 629.5C1716.86 629.5 1716.77 629.542 1716.73 629.542C1716.69 629.542 1716.64 629.542 1716.6 629.542C1716.56 629.542 1716.51 629.542 1716.47 629.585C1716.39 629.585 1716.34 629.585 1716.26 629.628H1716.21C1716.13 629.628 1716.04 629.671 1715.96 629.671C1715.92 629.671 1715.92 629.671 1715.87 629.671C1715.83 629.671 1715.74 629.671 1715.7 629.671C1715.66 629.671 1715.66 629.671 1715.62 629.671C1715.57 629.671 1715.53 629.671 1715.49 629.671C1715.44 629.671 1715.44 629.671 1715.4 629.671C1715.36 629.671 1715.32 629.671 1715.27 629.671C1715.23 629.671 1715.23 629.671 1715.19 629.671C1715.14 629.671 1715.1 629.671 1715.06 629.671C1715.02 629.671 1715.02 629.671 1714.97 629.671C1714.93 629.671 1714.84 629.671 1714.8 629.671H1714.76C1714.67 629.671 1714.59 629.671 1714.5 629.671H1714.46C1714.42 629.671 1714.33 629.671 1714.29 629.671C1714.24 629.671 1714.24 629.671 1714.2 629.671C1714.16 629.671 1714.07 629.671 1714.03 629.628C1713.99 629.628 1713.99 629.628 1713.94 629.628C1713.86 629.628 1713.82 629.585 1713.73 629.585C1713.43 629.5 1713.13 629.371 1712.83 629.2C1712.7 629.114 1712.62 629.071 1712.49 628.985C1712.32 628.857 1712.14 628.728 1711.97 628.6C1711.93 628.557 1711.84 628.514 1711.8 628.471C1711.59 628.3 1711.33 628.086 1711.12 627.914C1710.94 627.786 1710.77 627.614 1710.6 627.486C1709.79 626.843 1708.93 626.329 1708.03 626.286C1706.19 626.286 1704.65 628.386 1702.97 629.243C1702.85 629.285 1702.72 629.371 1702.63 629.414C1702.5 629.457 1702.38 629.5 1702.29 629.542C1702.2 629.542 1702.16 629.585 1702.08 629.585C1702.03 629.585 1702.03 629.585 1701.99 629.585C1701.95 629.585 1701.9 629.585 1701.82 629.628C1701.78 629.628 1701.78 629.628 1701.73 629.628C1701.69 629.628 1701.6 629.628 1701.56 629.628C1701.52 629.628 1701.52 629.628 1701.48 629.628C1701.39 629.628 1701.3 629.628 1701.22 629.628H1701.18C1701.13 629.628 1701.05 629.628 1701 629.628C1700.96 629.628 1700.96 629.628 1700.92 629.628C1700.88 629.628 1700.83 629.628 1700.79 629.628C1700.75 629.628 1700.75 629.628 1700.7 629.628C1700.66 629.628 1700.62 629.628 1700.58 629.628C1700.53 629.628 1700.53 629.628 1700.49 629.628C1700.45 629.628 1700.4 629.628 1700.36 629.628C1700.32 629.628 1700.32 629.628 1700.28 629.628C1700.23 629.628 1700.15 629.628 1700.1 629.585C1700.06 629.585 1700.06 629.585 1700.02 629.585C1699.93 629.585 1699.85 629.542 1699.76 629.542C1699.76 629.542 1699.76 629.542 1699.72 629.542C1699.63 629.542 1699.59 629.5 1699.5 629.5C1699.46 629.5 1699.42 629.5 1699.42 629.5C1699.38 629.5 1699.29 629.5 1699.25 629.457C1699.2 629.457 1699.12 629.457 1699.08 629.414C1699.03 629.414 1698.99 629.414 1698.99 629.414C1698.95 629.414 1698.9 629.414 1698.86 629.371C1698.82 629.371 1698.78 629.371 1698.78 629.371C1698.73 629.371 1698.69 629.371 1698.6 629.328C1698.56 629.328 1698.56 629.328 1698.52 629.328C1698.48 629.328 1698.39 629.328 1698.35 629.285H1698.3C1698.22 629.285 1698.13 629.285 1698.09 629.243H1698.05C1698 629.243 1697.92 629.243 1697.88 629.243C1697.83 629.243 1697.83 629.243 1697.79 629.243C1697.75 629.243 1697.7 629.243 1697.66 629.243C1697.62 629.243 1697.62 629.243 1697.58 629.243C1697.53 629.243 1697.49 629.243 1697.45 629.243C1697.4 629.243 1697.4 629.243 1697.36 629.243C1697.32 629.243 1697.28 629.243 1697.23 629.243C1697.19 629.243 1697.19 629.243 1697.15 629.243C1697.1 629.243 1697.06 629.243 1697.02 629.243C1696.98 629.243 1696.98 629.243 1696.93 629.243C1696.89 629.243 1696.85 629.243 1696.8 629.243C1696.76 629.243 1696.76 629.243 1696.72 629.243C1696.68 629.243 1696.63 629.243 1696.59 629.243C1696.55 629.243 1696.55 629.243 1696.5 629.243C1696.46 629.243 1696.42 629.243 1696.38 629.285C1696.33 629.285 1696.33 629.285 1696.29 629.285C1696.25 629.285 1696.2 629.328 1696.16 629.328C1696.12 629.328 1696.12 629.328 1696.08 629.371C1696.03 629.371 1695.99 629.414 1695.95 629.414C1695.95 629.414 1695.9 629.414 1695.9 629.457C1695.86 629.5 1695.78 629.5 1695.73 629.542C1695.61 629.585 1695.52 629.671 1695.43 629.757C1695.31 629.885 1695.13 630.014 1695.01 630.185C1694.79 630.442 1694.62 630.742 1694.45 631.042C1694.41 631.085 1694.36 631.171 1694.36 631.214C1694.32 631.342 1694.23 631.471 1694.19 631.599C1694.02 631.985 1693.85 632.413 1693.68 632.842C1693.59 633.056 1693.51 633.27 1693.42 633.442C1693.38 633.527 1693.38 633.57 1693.33 633.656C1693.29 633.784 1693.25 633.87 1693.16 633.999C1693.08 634.127 1693.03 634.299 1692.95 634.427C1692.91 634.513 1692.82 634.599 1692.78 634.684C1692.73 634.77 1692.69 634.856 1692.61 634.898C1692.52 634.984 1692.43 635.113 1692.35 635.198C1692.22 635.327 1692.05 635.456 1691.88 635.584C1691.75 635.67 1691.66 635.713 1691.53 635.798C1691.49 635.841 1691.41 635.884 1691.36 635.884C1691.19 635.97 1690.98 636.055 1690.76 636.141C1690.68 636.184 1690.63 636.184 1690.55 636.227C1690.42 636.27 1690.29 636.355 1690.12 636.398C1689.65 636.57 1689.13 636.741 1688.66 636.955C1688.54 636.998 1688.41 637.084 1688.28 637.127C1687.55 637.469 1686.95 637.855 1686.61 638.498C1686.52 638.669 1686.44 638.841 1686.39 639.012C1686.35 639.14 1686.35 639.226 1686.31 639.355C1686.31 639.44 1686.26 639.526 1686.26 639.569C1686.26 639.697 1686.22 639.826 1686.22 639.955C1686.22 640.083 1686.22 640.212 1686.22 640.383C1686.22 640.469 1686.22 640.512 1686.22 640.597C1686.22 640.897 1686.26 641.154 1686.31 641.454C1686.31 641.583 1686.35 641.754 1686.39 641.883C1686.44 642.011 1686.44 642.183 1686.48 642.311C1686.52 642.44 1686.52 642.611 1686.52 642.74C1686.56 642.954 1686.56 643.168 1686.61 643.382C1686.61 643.597 1686.65 643.811 1686.65 644.025C1686.65 644.368 1686.61 644.711 1686.52 645.011C1686.48 645.139 1686.44 645.268 1686.39 645.353C1686.35 645.482 1686.31 645.611 1686.22 645.696C1686.18 645.739 1686.14 645.825 1686.14 645.868C1686.05 645.996 1686.01 646.082 1685.92 646.21C1685.84 646.339 1685.75 646.425 1685.66 646.553C1684.68 647.881 1683.22 649.167 1683.22 650.667C1683.22 652.509 1685.32 654.052 1686.18 655.723C1686.22 655.766 1686.22 655.851 1686.26 655.894C1686.35 656.065 1686.39 656.237 1686.48 656.451C1686.52 656.58 1686.52 656.708 1686.56 656.837C1686.56 656.965 1686.61 657.094 1686.61 657.222C1686.61 657.437 1686.61 657.651 1686.61 657.865C1686.61 658.079 1686.56 658.294 1686.52 658.508C1686.52 658.636 1686.48 658.808 1686.44 658.936C1686.39 659.236 1686.35 659.536 1686.31 659.836C1686.22 660.265 1686.18 660.736 1686.14 661.122C1686.14 661.25 1686.14 661.421 1686.14 661.55C1686.14 662.107 1686.22 662.621 1686.48 663.05C1687.21 664.292 1689.01 664.764 1690.55 665.406C1690.59 665.449 1690.68 665.449 1690.72 665.492C1690.93 665.578 1691.15 665.706 1691.32 665.792C1691.36 665.835 1691.45 665.878 1691.49 665.878C1691.58 665.921 1691.66 665.963 1691.75 666.049C1691.92 666.178 1692.05 666.306 1692.18 666.435C1692.35 666.606 1692.48 666.777 1692.61 666.992C1692.65 667.035 1692.65 667.077 1692.69 667.12C1692.82 667.292 1692.91 667.506 1692.99 667.72C1693.03 667.806 1693.08 667.892 1693.12 667.977C1693.25 668.234 1693.33 668.534 1693.46 668.791V668.834C1693.63 669.22 1693.76 669.648 1693.93 670.034C1693.98 670.12 1693.98 670.162 1694.02 670.248C1694.36 671.062 1694.79 671.748 1695.48 672.133C1695.95 672.391 1696.46 672.519 1697.06 672.519C1698.35 672.519 1699.8 672.091 1701.09 672.091C1701.43 672.091 1701.78 672.133 1702.12 672.219C1702.42 672.305 1702.72 672.433 1703.02 672.605C1703.32 672.776 1703.62 672.99 1703.87 673.205C1703.92 673.248 1704 673.29 1704.05 673.333C1704.26 673.505 1704.52 673.719 1704.73 673.89C1704.9 674.019 1705.07 674.19 1705.25 674.319C1705.97 674.876 1706.66 675.347 1707.47 675.476C1707.6 675.476 1707.73 675.518 1707.82 675.518C1707.95 675.518 1708.07 675.518 1708.16 675.476C1709.83 675.219 1711.29 673.376 1712.83 672.562C1712.87 672.519 1712.96 672.519 1713 672.476C1713.17 672.391 1713.34 672.348 1713.56 672.262C1713.86 672.176 1714.2 672.133 1714.59 672.133C1715.87 672.133 1717.33 672.605 1718.61 672.605C1719.17 672.605 1719.73 672.519 1720.2 672.262C1721.7 671.405 1722.04 669.048 1722.94 667.42C1722.98 667.377 1722.98 667.334 1723.03 667.292C1723.07 667.206 1723.16 667.12 1723.2 667.035C1723.33 666.863 1723.46 666.735 1723.58 666.606C1723.71 666.478 1723.88 666.349 1724.06 666.22C1724.18 666.135 1724.27 666.092 1724.4 666.006C1724.44 665.963 1724.53 665.921 1724.57 665.921C1725.08 665.663 1725.64 665.449 1726.2 665.235C1726.5 665.149 1726.76 665.021 1727.06 664.935C1727.4 664.806 1727.74 664.635 1728.04 664.507C1728.6 664.207 1729.07 663.864 1729.37 663.35C1729.54 663.007 1729.67 662.664 1729.71 662.278C1729.71 662.15 1729.75 662.021 1729.75 661.893C1729.75 661.679 1729.75 661.464 1729.75 661.25C1729.75 661.122 1729.71 660.95 1729.71 660.822C1729.71 660.693 1729.67 660.522 1729.67 660.393C1729.67 660.265 1729.63 660.093 1729.58 659.965C1729.5 659.536 1729.46 659.065 1729.41 658.636C1729.41 658.551 1729.41 658.508 1729.41 658.422C1729.41 658.208 1729.37 657.994 1729.37 657.779C1729.37 657.694 1729.37 657.651 1729.37 657.565C1729.37 657.437 1729.37 657.308 1729.41 657.179C1729.41 657.094 1729.41 657.051 1729.46 656.965C1729.5 656.88 1729.5 656.837 1729.5 656.794C1729.58 656.451 1729.75 656.065 1730.01 655.723C1730.14 655.508 1730.31 655.251 1730.53 655.037C1730.57 654.994 1730.61 654.909 1730.65 654.866C1730.78 654.694 1730.95 654.523 1731.08 654.352C1731.13 653.666 1731.77 652.895 1732.07 652.081ZM1707.43 670.291C1696.76 670.205 1688.15 661.507 1688.24 650.838C1688.32 640.169 1697.02 631.556 1707.69 631.642C1718.36 631.728 1726.97 640.426 1726.88 651.095C1726.8 661.764 1718.1 670.334 1707.43 670.291Z" fill="#F7CE14"/>
<path d="M1707.69 633.313C1697.96 633.227 1689.99 641.111 1689.91 650.838C1689.82 660.564 1697.7 668.534 1707.43 668.62C1717.16 668.706 1725.13 660.821 1725.21 651.095C1725.3 641.326 1717.41 633.399 1707.69 633.313ZM1705.5 660.993L1696.76 651.866L1699.89 648.867L1705.76 654.994L1717.5 644.582L1720.37 647.839L1705.5 660.993Z" fill="#F7CE14"/>
<path d="M1681.12 590.251L1667.15 616.731C1666.55 617.888 1667.63 619.173 1668.87 618.83L1678.98 615.959C1680.05 615.659 1681.04 616.559 1680.82 617.63L1677.31 636.526C1677.01 638.198 1679.32 638.969 1680.09 637.426L1696.03 604.947C1696.59 603.791 1695.52 602.505 1694.28 602.891L1683.82 606.061C1682.79 606.361 1681.77 605.504 1681.94 604.433L1683.95 591.022C1684.12 589.479 1681.89 588.751 1681.12 590.251Z" fill="#F7CE14"/>
<path d="M1670.41 580.096C1670.41 580.181 1670.41 580.224 1670.37 580.267C1670.32 580.31 1670.28 580.353 1670.15 580.396C1670.07 580.438 1669.9 580.438 1669.68 580.481C1669.47 580.481 1669.21 580.481 1668.87 580.481C1668.57 580.481 1668.35 580.481 1668.18 580.438C1668.01 580.438 1667.88 580.396 1667.75 580.353C1667.67 580.31 1667.58 580.267 1667.54 580.224C1667.5 580.181 1667.45 580.096 1667.45 580.01L1666.3 577.011C1666.17 576.668 1666 576.368 1665.87 576.111C1665.74 575.854 1665.57 575.639 1665.4 575.468C1665.22 575.297 1665.05 575.168 1664.8 575.082C1664.58 574.997 1664.32 574.954 1664.02 574.954H1663.17L1663.13 580.053C1663.13 580.138 1663.08 580.181 1663.04 580.224C1663 580.267 1662.91 580.31 1662.83 580.353C1662.74 580.396 1662.57 580.396 1662.4 580.438C1662.23 580.438 1662.01 580.481 1661.75 580.481C1661.5 580.481 1661.28 580.481 1661.11 580.438C1660.94 580.396 1660.81 580.396 1660.68 580.353C1660.6 580.31 1660.51 580.267 1660.47 580.224C1660.43 580.181 1660.43 580.096 1660.43 580.053L1660.51 567.927C1660.51 567.627 1660.6 567.413 1660.77 567.284C1660.94 567.156 1661.11 567.07 1661.33 567.07L1664.8 567.113C1665.14 567.113 1665.44 567.113 1665.65 567.156C1665.87 567.156 1666.08 567.198 1666.25 567.198C1666.81 567.284 1667.28 567.413 1667.71 567.584C1668.14 567.755 1668.48 568.012 1668.78 568.312C1669.08 568.612 1669.3 568.955 1669.47 569.384C1669.64 569.812 1669.68 570.283 1669.68 570.798C1669.68 571.226 1669.64 571.655 1669.51 572.04C1669.38 572.426 1669.21 572.726 1669 573.026C1668.78 573.326 1668.48 573.583 1668.18 573.754C1667.84 573.968 1667.5 574.14 1667.07 574.268C1667.28 574.354 1667.45 574.483 1667.62 574.611C1667.8 574.74 1667.97 574.911 1668.1 575.125C1668.27 575.34 1668.4 575.554 1668.52 575.811C1668.65 576.068 1668.78 576.368 1668.91 576.668L1670.02 579.324C1670.11 579.581 1670.2 579.796 1670.24 579.881C1670.41 579.924 1670.41 580.053 1670.41 580.096ZM1666.98 571.012C1666.98 570.583 1666.9 570.198 1666.68 569.898C1666.47 569.598 1666.17 569.384 1665.7 569.255C1665.57 569.212 1665.4 569.212 1665.22 569.169C1665.05 569.127 1664.8 569.127 1664.5 569.127H1663.3L1663.25 572.897H1664.62C1665.01 572.897 1665.35 572.854 1665.65 572.769C1665.95 572.683 1666.17 572.554 1666.38 572.383C1666.6 572.212 1666.72 571.997 1666.81 571.783C1666.94 571.569 1666.98 571.312 1666.98 571.012Z" fill="white"/>
<path d="M1680.35 579.453C1680.35 579.667 1680.35 579.838 1680.31 579.967C1680.26 580.095 1680.26 580.224 1680.22 580.31C1680.18 580.395 1680.13 580.438 1680.09 580.481C1680.05 580.524 1679.96 580.524 1679.92 580.524L1673.19 580.481C1672.98 580.481 1672.77 580.395 1672.64 580.267C1672.51 580.138 1672.42 579.924 1672.42 579.624L1672.51 567.969C1672.51 567.669 1672.59 567.455 1672.77 567.327C1672.94 567.198 1673.11 567.112 1673.32 567.112L1680.01 567.155C1680.05 567.155 1680.13 567.155 1680.18 567.198C1680.22 567.241 1680.26 567.284 1680.31 567.369C1680.35 567.455 1680.35 567.584 1680.39 567.712C1680.39 567.841 1680.43 568.012 1680.43 568.226C1680.43 568.441 1680.43 568.569 1680.39 568.698C1680.39 568.826 1680.35 568.955 1680.31 569.04C1680.26 569.126 1680.22 569.169 1680.18 569.212C1680.13 569.255 1680.09 569.255 1680.01 569.255L1675.25 569.212L1675.21 572.468L1679.24 572.511C1679.28 572.511 1679.36 572.511 1679.41 572.554C1679.45 572.597 1679.49 572.64 1679.54 572.725C1679.58 572.811 1679.58 572.897 1679.62 573.025C1679.62 573.154 1679.66 573.325 1679.66 573.497C1679.66 573.711 1679.66 573.882 1679.62 574.011C1679.62 574.139 1679.58 574.225 1679.54 574.311C1679.49 574.396 1679.45 574.439 1679.41 574.482C1679.36 574.525 1679.28 574.525 1679.24 574.525L1675.16 574.568L1675.12 578.339L1679.92 578.381C1679.96 578.381 1680.05 578.381 1680.09 578.424C1680.13 578.467 1680.18 578.51 1680.22 578.596C1680.26 578.681 1680.26 578.767 1680.31 578.938C1680.35 579.11 1680.35 579.281 1680.35 579.453Z" fill="white"/>
<path d="M1691.7 578.596C1691.7 578.767 1691.7 578.896 1691.7 579.024C1691.7 579.153 1691.66 579.238 1691.66 579.324C1691.66 579.41 1691.62 579.495 1691.58 579.538C1691.53 579.581 1691.49 579.667 1691.4 579.753C1691.32 579.838 1691.19 579.924 1690.98 580.052C1690.76 580.181 1690.5 580.31 1690.16 580.395C1689.86 580.524 1689.48 580.61 1689.09 580.652C1688.7 580.695 1688.23 580.781 1687.76 580.738C1686.86 580.738 1686.01 580.567 1685.28 580.31C1684.55 580.01 1683.91 579.581 1683.39 579.024C1682.88 578.467 1682.49 577.739 1682.23 576.925C1681.98 576.068 1681.85 575.082 1681.85 573.968C1681.85 572.811 1682.02 571.826 1682.32 570.926C1682.62 570.026 1683.05 569.298 1683.61 568.698C1684.16 568.098 1684.81 567.669 1685.58 567.327C1686.35 567.027 1687.16 566.855 1688.1 566.898C1688.49 566.898 1688.83 566.941 1689.18 566.984C1689.52 567.07 1689.82 567.112 1690.12 567.241C1690.42 567.327 1690.68 567.455 1690.89 567.584C1691.1 567.712 1691.28 567.841 1691.36 567.926C1691.45 568.012 1691.53 568.098 1691.53 568.141C1691.58 568.184 1691.58 568.269 1691.62 568.398C1691.66 568.526 1691.66 568.612 1691.66 568.741C1691.66 568.869 1691.66 569.041 1691.66 569.212C1691.66 569.426 1691.66 569.598 1691.62 569.726C1691.62 569.855 1691.58 569.983 1691.53 570.069C1691.49 570.155 1691.45 570.24 1691.4 570.283C1691.36 570.326 1691.32 570.326 1691.23 570.326C1691.15 570.326 1691.02 570.283 1690.85 570.155C1690.68 570.026 1690.5 569.897 1690.25 569.726C1689.99 569.598 1689.69 569.426 1689.35 569.298C1689 569.169 1688.58 569.126 1688.1 569.126C1687.59 569.126 1687.12 569.212 1686.69 569.426C1686.26 569.64 1685.92 569.94 1685.62 570.369C1685.32 570.754 1685.11 571.269 1684.93 571.826C1684.76 572.383 1684.72 573.025 1684.68 573.754C1684.68 574.525 1684.76 575.211 1684.89 575.811C1685.06 576.368 1685.28 576.882 1685.58 577.225C1685.88 577.61 1686.22 577.867 1686.65 578.081C1687.08 578.253 1687.55 578.381 1688.06 578.381C1688.53 578.381 1688.96 578.339 1689.3 578.21C1689.65 578.081 1689.95 577.996 1690.2 577.824C1690.46 577.696 1690.68 577.567 1690.85 577.439C1691.02 577.31 1691.15 577.267 1691.23 577.267C1691.32 577.267 1691.36 577.267 1691.4 577.31C1691.45 577.353 1691.49 577.396 1691.49 577.482C1691.49 577.567 1691.53 577.696 1691.53 577.824C1691.7 578.124 1691.7 578.339 1691.7 578.596Z" fill="white"/>
</g>
<defs>
<clipPath id="clip0">
<rect width="1920" height="1080" fill="white"/>
</clipPath>
</defs>
</svg>
