<svg width="375" height="667" viewBox="0 0 375 667" fill="none" xmlns="http://www.w3.org/2000/svg">
<g clip-path="url(#clip0)">
<path d="M204.498 480.107L188.125 480C187.085 480 186.229 480.826 186.229 481.865L186 514.778C186 515.818 186.826 516.674 187.865 516.674L209.466 516.827C210.506 516.827 211.362 516.001 211.362 514.962L211.545 488.041L204.544 480.29L204.498 480.107Z" fill="#CF4E31"/>
<path d="M211.566 517.723C214.449 514.839 214.449 510.164 211.566 507.28C208.682 504.397 204.007 504.397 201.124 507.28C198.24 510.164 198.24 514.839 201.124 517.723C204.007 520.606 208.682 520.606 211.566 517.723Z" fill="white"/>
<path d="M211.561 488.026L204.544 480.29L204.498 480.107H204.391L204.33 487.965L211.561 488.026Z" fill="#7A2B1A"/>
<path d="M203.978 520.481C203.902 520.465 203.825 520.45 203.718 520.45C203.519 520.45 203.306 520.481 203.061 520.526C202.801 520.572 202.541 520.603 202.281 520.603C201.975 520.603 201.731 520.542 201.517 520.419C201.15 520.206 200.951 519.839 200.798 519.456L198.047 526.489L201.425 525.388L203.168 528.491L205.843 521.642C205.4 521.551 205.033 521.245 204.697 520.955C204.452 520.756 204.192 520.542 203.978 520.481Z" fill="#F7CE14"/>
<path d="M210.735 520.465C210.521 520.588 210.261 520.649 209.97 520.649C209.711 520.649 209.451 520.603 209.191 520.557C208.961 520.511 208.732 520.481 208.534 520.481C208.427 520.481 208.35 520.496 208.274 520.511C208.059 520.572 207.8 520.786 207.54 520.985C207.204 521.26 206.836 521.551 206.393 521.642L208.977 528.522L210.765 525.449L214.129 526.596L211.484 519.533C211.316 519.9 211.102 520.267 210.735 520.465Z" fill="#F7CE14"/>
<path d="M214.924 512.852C214.939 512.837 214.939 512.806 214.954 512.791C214.969 512.73 214.985 512.654 215 512.592C215 512.562 215 512.547 215 512.516C215 512.195 214.817 511.889 214.587 511.599C214.557 511.553 214.526 511.522 214.496 511.476C214.48 511.461 214.465 511.431 214.45 511.415C214.419 511.369 214.388 511.339 214.343 511.293C214.312 511.247 214.281 511.217 214.251 511.171C214.236 511.155 214.22 511.125 214.205 511.11C214.174 511.064 214.144 511.033 214.113 510.987C214.083 510.942 214.052 510.911 214.037 510.865C213.976 510.758 213.915 510.651 213.884 510.544C213.884 510.529 213.869 510.498 213.869 510.483C213.853 510.422 213.838 510.345 213.838 510.269C213.823 510.146 213.838 510.024 213.838 509.902C213.838 509.871 213.838 509.856 213.853 509.826C213.869 509.719 213.884 509.612 213.899 509.505C213.915 509.458 213.915 509.413 213.93 509.351C213.93 509.336 213.93 509.336 213.93 509.321C214.006 508.878 214.067 508.434 213.884 508.113C213.747 507.869 213.502 507.716 213.211 507.594C213.165 507.578 213.12 507.548 213.074 507.532C212.982 507.487 212.875 507.456 212.783 507.41C212.738 507.395 212.676 507.364 212.631 507.349C212.6 507.334 212.585 507.334 212.554 507.319C212.508 507.303 212.462 507.272 212.417 507.257C212.34 507.226 212.279 507.196 212.218 507.15C212.172 507.12 212.126 507.104 212.095 507.074C212.019 507.028 211.942 506.967 211.881 506.906C211.836 506.86 211.79 506.799 211.744 506.737C211.713 506.692 211.698 506.661 211.667 506.615C211.637 506.569 211.622 506.523 211.591 506.478C211.56 506.417 211.53 506.34 211.499 506.264C211.484 506.217 211.453 506.172 211.438 506.111C211.423 506.065 211.408 506.004 211.377 505.958C211.362 505.927 211.362 505.912 211.346 505.881C211.331 505.835 211.316 505.79 211.301 505.759C211.285 505.728 211.27 505.698 211.27 505.667C211.224 505.545 211.163 505.423 211.117 505.316C211.086 505.27 211.071 505.224 211.04 505.194C211.01 505.148 210.979 505.117 210.964 505.071C210.903 504.995 210.842 504.933 210.765 504.888C210.75 504.872 210.735 504.857 210.704 504.857C210.689 504.842 210.658 504.842 210.643 504.826C210.643 504.826 210.628 504.826 210.628 504.811C210.613 504.811 210.597 504.796 210.582 504.796C210.567 504.796 210.567 504.796 210.551 504.781C210.536 504.781 210.521 504.765 210.521 504.765C210.506 504.765 210.506 504.765 210.49 504.75C210.475 504.75 210.46 504.75 210.46 504.735C210.444 504.735 210.444 504.735 210.429 504.735C210.414 504.735 210.399 504.735 210.399 504.735C210.383 504.735 210.383 504.735 210.368 504.735C210.353 504.735 210.337 504.735 210.337 504.735C210.322 504.735 210.322 504.735 210.307 504.735C210.292 504.735 210.276 504.735 210.261 504.735C210.246 504.735 210.23 504.735 210.23 504.735C210.215 504.735 210.2 504.735 210.185 504.735C210.169 504.735 210.169 504.735 210.154 504.735C210.139 504.735 210.124 504.735 210.108 504.735C210.093 504.735 210.093 504.735 210.078 504.735C210.062 504.735 210.047 504.735 210.031 504.735C210.017 504.735 210.017 504.735 210.001 504.735C209.986 504.735 209.955 504.735 209.94 504.735H209.924C209.894 504.735 209.863 504.735 209.833 504.75C209.833 504.75 209.833 504.75 209.818 504.75C209.787 504.75 209.772 504.75 209.741 504.765C209.726 504.765 209.726 504.765 209.711 504.765C209.695 504.765 209.665 504.765 209.649 504.781C209.634 504.781 209.634 504.781 209.619 504.781C209.604 504.781 209.573 504.781 209.558 504.796C209.542 504.796 209.542 504.796 209.527 504.796C209.497 504.796 209.466 504.811 209.451 504.811C209.435 504.811 209.42 504.811 209.405 504.811C209.39 504.811 209.374 504.811 209.359 504.826C209.328 504.826 209.313 504.826 209.283 504.842H209.267C209.237 504.842 209.206 504.857 209.176 504.857C209.16 504.857 209.16 504.857 209.145 504.857C209.13 504.857 209.099 504.857 209.084 504.857C209.069 504.857 209.069 504.857 209.053 504.857C209.038 504.857 209.023 504.857 209.008 504.857C208.992 504.857 208.992 504.857 208.977 504.857C208.962 504.857 208.946 504.857 208.931 504.857C208.916 504.857 208.916 504.857 208.901 504.857C208.885 504.857 208.87 504.857 208.854 504.857C208.839 504.857 208.839 504.857 208.824 504.857C208.809 504.857 208.778 504.857 208.763 504.857H208.747C208.717 504.857 208.686 504.857 208.656 504.857H208.64C208.625 504.857 208.595 504.857 208.579 504.857C208.564 504.857 208.564 504.857 208.549 504.857C208.533 504.857 208.503 504.857 208.488 504.842C208.472 504.842 208.472 504.842 208.457 504.842C208.426 504.842 208.411 504.826 208.381 504.826C208.274 504.796 208.167 504.75 208.06 504.689C208.014 504.658 207.983 504.643 207.937 504.612C207.876 504.567 207.815 504.521 207.754 504.475C207.738 504.46 207.708 504.444 207.693 504.429C207.616 504.368 207.524 504.292 207.448 504.23C207.387 504.185 207.326 504.123 207.265 504.078C206.974 503.848 206.669 503.665 206.347 503.649C205.69 503.649 205.14 504.399 204.544 504.704C204.498 504.719 204.452 504.75 204.421 504.765C204.375 504.781 204.329 504.796 204.299 504.811C204.268 504.811 204.253 504.826 204.222 504.826C204.207 504.826 204.207 504.826 204.192 504.826C204.177 504.826 204.161 504.826 204.131 504.842C204.115 504.842 204.115 504.842 204.1 504.842C204.085 504.842 204.054 504.842 204.039 504.842C204.024 504.842 204.024 504.842 204.008 504.842C203.978 504.842 203.947 504.842 203.917 504.842H203.901C203.886 504.842 203.856 504.842 203.84 504.842C203.825 504.842 203.825 504.842 203.81 504.842C203.794 504.842 203.779 504.842 203.764 504.842C203.749 504.842 203.749 504.842 203.733 504.842C203.718 504.842 203.703 504.842 203.687 504.842C203.672 504.842 203.672 504.842 203.657 504.842C203.642 504.842 203.626 504.842 203.611 504.842C203.596 504.842 203.596 504.842 203.581 504.842C203.565 504.842 203.535 504.842 203.519 504.826C203.504 504.826 203.504 504.826 203.489 504.826C203.458 504.826 203.428 504.811 203.397 504.811C203.397 504.811 203.397 504.811 203.382 504.811C203.351 504.811 203.336 504.796 203.305 504.796C203.29 504.796 203.275 504.796 203.275 504.796C203.259 504.796 203.229 504.796 203.213 504.781C203.198 504.781 203.168 504.781 203.152 504.765C203.137 504.765 203.122 504.765 203.122 504.765C203.106 504.765 203.091 504.765 203.076 504.75C203.061 504.75 203.045 504.75 203.045 504.75C203.03 504.75 203.015 504.75 202.984 504.735C202.969 504.735 202.969 504.735 202.954 504.735C202.938 504.735 202.908 504.735 202.892 504.719H202.877C202.847 504.719 202.816 504.719 202.801 504.704H202.785C202.77 504.704 202.74 504.704 202.724 504.704C202.709 504.704 202.709 504.704 202.694 504.704C202.678 504.704 202.663 504.704 202.648 504.704C202.633 504.704 202.633 504.704 202.617 504.704C202.602 504.704 202.587 504.704 202.572 504.704C202.556 504.704 202.556 504.704 202.541 504.704C202.526 504.704 202.51 504.704 202.495 504.704C202.48 504.704 202.48 504.704 202.465 504.704C202.449 504.704 202.434 504.704 202.419 504.704C202.403 504.704 202.403 504.704 202.388 504.704C202.373 504.704 202.358 504.704 202.342 504.704C202.327 504.704 202.327 504.704 202.312 504.704C202.296 504.704 202.281 504.704 202.266 504.704C202.251 504.704 202.251 504.704 202.235 504.704C202.22 504.704 202.205 504.704 202.189 504.719C202.174 504.719 202.174 504.719 202.159 504.719C202.143 504.719 202.128 504.735 202.113 504.735C202.097 504.735 202.097 504.735 202.082 504.75C202.067 504.75 202.052 504.765 202.036 504.765C202.036 504.765 202.021 504.765 202.021 504.781C202.006 504.796 201.975 504.796 201.96 504.811C201.914 504.826 201.883 504.857 201.853 504.888C201.807 504.933 201.746 504.979 201.7 505.04C201.624 505.132 201.563 505.239 201.501 505.346C201.486 505.362 201.471 505.392 201.471 505.408C201.456 505.453 201.425 505.499 201.41 505.545C201.349 505.683 201.287 505.835 201.226 505.988C201.196 506.065 201.165 506.141 201.135 506.203C201.119 506.233 201.119 506.248 201.104 506.279C201.089 506.325 201.073 506.355 201.043 506.401C201.012 506.447 200.997 506.508 200.966 506.554C200.951 506.585 200.92 506.615 200.905 506.646C200.89 506.676 200.874 506.707 200.844 506.722C200.813 506.753 200.783 506.799 200.752 506.829C200.706 506.875 200.645 506.921 200.584 506.967C200.538 506.997 200.508 507.013 200.462 507.043C200.447 507.058 200.416 507.074 200.401 507.074C200.34 507.104 200.263 507.135 200.187 507.165C200.156 507.181 200.141 507.181 200.11 507.196C200.064 507.211 200.019 507.242 199.958 507.257C199.789 507.319 199.606 507.38 199.438 507.456C199.392 507.471 199.346 507.502 199.3 507.517C199.04 507.639 198.826 507.777 198.704 508.006C198.673 508.067 198.643 508.129 198.627 508.19C198.612 508.235 198.612 508.266 198.597 508.312C198.597 508.342 198.581 508.373 198.581 508.388C198.581 508.434 198.566 508.48 198.566 508.526C198.566 508.572 198.566 508.618 198.566 508.679C198.566 508.71 198.566 508.725 198.566 508.755C198.566 508.862 198.581 508.954 198.597 509.061C198.597 509.107 198.612 509.168 198.627 509.214C198.643 509.26 198.643 509.321 198.658 509.367C198.673 509.413 198.673 509.474 198.673 509.52C198.688 509.596 198.688 509.673 198.704 509.749C198.704 509.826 198.719 509.902 198.719 509.978C198.719 510.101 198.704 510.223 198.673 510.33C198.658 510.376 198.643 510.422 198.627 510.452C198.612 510.498 198.597 510.544 198.566 510.574C198.551 510.59 198.536 510.62 198.536 510.636C198.505 510.682 198.49 510.712 198.459 510.758C198.429 510.804 198.398 510.835 198.367 510.88C198.016 511.354 197.496 511.813 197.496 512.348C197.496 513.005 198.245 513.556 198.551 514.152C198.566 514.167 198.566 514.198 198.581 514.213C198.612 514.274 198.627 514.335 198.658 514.412C198.673 514.458 198.673 514.503 198.688 514.549C198.688 514.595 198.704 514.641 198.704 514.687C198.704 514.763 198.704 514.84 198.704 514.916C198.704 514.992 198.688 515.069 198.673 515.146C198.673 515.191 198.658 515.253 198.643 515.298C198.627 515.405 198.612 515.512 198.597 515.619C198.566 515.772 198.551 515.94 198.536 516.078C198.536 516.124 198.536 516.185 198.536 516.231C198.536 516.43 198.566 516.613 198.658 516.766C198.918 517.209 199.56 517.378 200.11 517.607C200.126 517.622 200.156 517.622 200.171 517.637C200.248 517.668 200.324 517.714 200.385 517.744C200.401 517.76 200.431 517.775 200.447 517.775C200.477 517.79 200.508 517.805 200.538 517.836C200.599 517.882 200.645 517.928 200.691 517.974C200.752 518.035 200.798 518.096 200.844 518.172C200.859 518.188 200.859 518.203 200.874 518.218C200.92 518.279 200.951 518.356 200.981 518.432C200.997 518.463 201.012 518.494 201.027 518.524C201.073 518.616 201.104 518.723 201.15 518.814V518.83C201.211 518.967 201.257 519.12 201.318 519.258C201.333 519.288 201.333 519.303 201.349 519.334C201.471 519.625 201.624 519.869 201.868 520.007C202.036 520.099 202.22 520.144 202.434 520.144C202.892 520.144 203.412 519.992 203.871 519.992C203.993 519.992 204.115 520.007 204.238 520.037C204.345 520.068 204.452 520.114 204.559 520.175C204.666 520.236 204.773 520.312 204.865 520.389C204.88 520.404 204.91 520.419 204.926 520.435C205.002 520.496 205.094 520.572 205.17 520.633C205.231 520.68 205.293 520.74 205.354 520.787C205.614 520.985 205.858 521.153 206.149 521.199C206.195 521.199 206.24 521.214 206.271 521.214C206.317 521.214 206.363 521.214 206.393 521.199C206.99 521.108 207.509 520.45 208.06 520.16C208.075 520.144 208.106 520.144 208.121 520.129C208.182 520.099 208.243 520.083 208.319 520.053C208.426 520.022 208.549 520.007 208.686 520.007C209.145 520.007 209.665 520.175 210.124 520.175C210.322 520.175 210.521 520.144 210.689 520.053C211.224 519.747 211.346 518.906 211.667 518.325C211.683 518.31 211.683 518.294 211.698 518.279C211.713 518.249 211.744 518.218 211.759 518.188C211.805 518.126 211.851 518.081 211.897 518.035C211.942 517.989 212.004 517.943 212.065 517.897C212.111 517.867 212.141 517.851 212.187 517.821C212.202 517.805 212.233 517.79 212.248 517.79C212.432 517.698 212.631 517.622 212.829 517.546C212.936 517.515 213.028 517.469 213.135 517.439C213.257 517.393 213.38 517.332 213.487 517.286C213.685 517.179 213.853 517.056 213.96 516.873C214.022 516.751 214.067 516.628 214.083 516.491C214.083 516.445 214.098 516.399 214.098 516.353C214.098 516.277 214.098 516.2 214.098 516.124C214.098 516.078 214.083 516.017 214.083 515.971C214.083 515.925 214.067 515.864 214.067 515.818C214.067 515.772 214.052 515.711 214.037 515.665C214.006 515.512 213.991 515.344 213.976 515.191C213.976 515.161 213.976 515.146 213.976 515.115C213.976 515.038 213.96 514.962 213.96 514.885C213.96 514.855 213.96 514.84 213.96 514.809C213.96 514.763 213.96 514.717 213.976 514.671C213.976 514.641 213.976 514.626 213.991 514.595C214.006 514.565 214.006 514.549 214.006 514.534C214.037 514.412 214.098 514.274 214.19 514.152C214.236 514.075 214.297 513.983 214.373 513.907C214.388 513.892 214.404 513.861 214.419 513.846C214.465 513.785 214.526 513.724 214.572 513.663C214.587 513.418 214.817 513.143 214.924 512.852ZM206.133 519.349C202.327 519.319 199.254 516.215 199.285 512.409C199.315 508.603 202.419 505.53 206.225 505.56C210.031 505.591 213.104 508.694 213.074 512.501C213.043 516.307 209.94 519.365 206.133 519.349Z" fill="#F7CE14"/>
<path d="M206.225 506.156C202.755 506.126 199.912 508.939 199.881 512.409C199.851 515.879 202.663 518.723 206.133 518.753C209.604 518.784 212.447 515.971 212.478 512.501C212.508 509.015 209.695 506.187 206.225 506.156ZM205.446 516.032L202.327 512.776L203.443 511.706L205.537 513.892L209.726 510.177L210.75 511.339L205.446 516.032Z" fill="#F7CE14"/>
<path d="M196.747 490.793L191.763 500.24C191.549 500.653 191.932 501.112 192.375 500.989L195.983 499.965C196.365 499.858 196.716 500.179 196.64 500.561L195.386 507.303C195.279 507.899 196.105 508.174 196.38 507.624L202.067 496.036C202.266 495.624 201.884 495.165 201.44 495.303L197.71 496.434C197.343 496.541 196.977 496.235 197.038 495.853L197.756 491.068C197.817 490.517 197.022 490.258 196.747 490.793Z" fill="#F7CE14"/>
<path d="M192.925 487.17C192.925 487.2 192.925 487.215 192.909 487.231C192.894 487.246 192.879 487.261 192.833 487.277C192.802 487.292 192.741 487.292 192.665 487.307C192.589 487.307 192.497 487.307 192.375 487.307C192.268 487.307 192.191 487.307 192.13 487.292C192.069 487.292 192.023 487.277 191.977 487.261C191.946 487.246 191.916 487.231 191.9 487.215C191.885 487.2 191.87 487.17 191.87 487.139L191.457 486.069C191.411 485.947 191.35 485.84 191.304 485.748C191.259 485.656 191.197 485.58 191.136 485.519C191.075 485.458 191.014 485.412 190.922 485.381C190.846 485.351 190.754 485.335 190.647 485.335H190.341L190.326 487.154C190.326 487.185 190.311 487.2 190.295 487.215C190.28 487.231 190.25 487.246 190.219 487.261C190.188 487.277 190.127 487.277 190.066 487.292C190.005 487.292 189.929 487.307 189.837 487.307C189.745 487.307 189.669 487.307 189.607 487.292C189.546 487.277 189.5 487.277 189.455 487.261C189.424 487.246 189.393 487.231 189.378 487.215C189.363 487.2 189.363 487.17 189.363 487.154L189.393 482.828C189.393 482.721 189.424 482.645 189.485 482.599C189.546 482.553 189.607 482.522 189.684 482.522L190.922 482.538C191.045 482.538 191.152 482.538 191.228 482.553C191.304 482.553 191.381 482.568 191.442 482.568C191.641 482.599 191.809 482.645 191.962 482.706C192.115 482.767 192.237 482.859 192.344 482.966C192.451 483.073 192.527 483.195 192.589 483.348C192.65 483.501 192.665 483.669 192.665 483.852C192.665 484.005 192.65 484.158 192.604 484.296C192.558 484.433 192.497 484.54 192.42 484.647C192.344 484.754 192.237 484.846 192.13 484.907C192.007 484.983 191.885 485.045 191.732 485.09C191.809 485.121 191.87 485.167 191.931 485.213C191.992 485.259 192.054 485.32 192.099 485.396C192.161 485.473 192.206 485.549 192.252 485.641C192.298 485.733 192.344 485.84 192.39 485.947L192.787 486.894C192.818 486.986 192.848 487.063 192.864 487.093C192.925 487.108 192.925 487.154 192.925 487.17ZM191.702 483.929C191.702 483.776 191.671 483.638 191.595 483.531C191.518 483.424 191.411 483.348 191.243 483.302C191.197 483.287 191.136 483.287 191.075 483.271C191.014 483.256 190.922 483.256 190.815 483.256H190.387L190.372 484.601H190.861C190.999 484.601 191.121 484.586 191.228 484.556C191.335 484.525 191.411 484.479 191.488 484.418C191.564 484.357 191.61 484.28 191.641 484.204C191.687 484.128 191.702 484.036 191.702 483.929Z" fill="white"/>
<path d="M196.471 486.94C196.471 487.017 196.471 487.078 196.456 487.124C196.44 487.169 196.44 487.215 196.425 487.246C196.41 487.276 196.395 487.292 196.379 487.307C196.364 487.323 196.334 487.323 196.318 487.323L193.918 487.307C193.842 487.307 193.765 487.277 193.719 487.231C193.674 487.185 193.643 487.108 193.643 487.001L193.674 482.843C193.674 482.736 193.704 482.66 193.765 482.614C193.826 482.568 193.888 482.537 193.964 482.537L196.349 482.553C196.364 482.553 196.395 482.553 196.41 482.568C196.425 482.583 196.44 482.599 196.456 482.629C196.471 482.66 196.471 482.706 196.486 482.751C196.486 482.797 196.502 482.859 196.502 482.935C196.502 483.012 196.502 483.057 196.486 483.103C196.486 483.149 196.471 483.195 196.456 483.225C196.44 483.256 196.425 483.271 196.41 483.287C196.395 483.302 196.379 483.302 196.349 483.302L194.652 483.287L194.636 484.448L196.074 484.464C196.089 484.464 196.12 484.464 196.135 484.479C196.15 484.494 196.165 484.51 196.181 484.54C196.196 484.571 196.196 484.601 196.211 484.647C196.211 484.693 196.227 484.754 196.227 484.815C196.227 484.892 196.227 484.953 196.211 484.999C196.211 485.044 196.196 485.075 196.181 485.106C196.165 485.136 196.15 485.152 196.135 485.167C196.12 485.182 196.089 485.182 196.074 485.182L194.621 485.198L194.606 486.543L196.318 486.558C196.334 486.558 196.364 486.558 196.379 486.573C196.395 486.589 196.41 486.604 196.425 486.635C196.44 486.665 196.44 486.696 196.456 486.757C196.471 486.818 196.471 486.879 196.471 486.94Z" fill="white"/>
<path d="M200.522 486.635C200.522 486.696 200.522 486.742 200.522 486.787C200.522 486.833 200.507 486.864 200.507 486.894C200.507 486.925 200.492 486.956 200.477 486.971C200.461 486.986 200.446 487.017 200.415 487.047C200.385 487.078 200.339 487.108 200.263 487.154C200.186 487.2 200.094 487.246 199.972 487.277C199.865 487.323 199.727 487.353 199.59 487.368C199.452 487.384 199.284 487.414 199.116 487.399C198.795 487.399 198.489 487.338 198.229 487.246C197.969 487.139 197.74 486.986 197.557 486.787C197.373 486.589 197.236 486.329 197.144 486.038C197.052 485.733 197.006 485.381 197.006 484.983C197.006 484.571 197.067 484.219 197.174 483.898C197.281 483.577 197.434 483.317 197.633 483.103C197.832 482.889 198.061 482.736 198.336 482.614C198.611 482.507 198.902 482.446 199.238 482.461C199.376 482.461 199.498 482.476 199.62 482.492C199.743 482.522 199.85 482.537 199.957 482.583C200.064 482.614 200.156 482.66 200.232 482.706C200.308 482.751 200.37 482.798 200.4 482.828C200.431 482.859 200.461 482.889 200.461 482.905C200.477 482.92 200.477 482.95 200.492 482.996C200.507 483.042 200.507 483.073 200.507 483.119C200.507 483.164 200.507 483.226 200.507 483.287C200.507 483.363 200.507 483.424 200.492 483.47C200.492 483.516 200.477 483.562 200.461 483.592C200.446 483.623 200.431 483.653 200.415 483.669C200.4 483.684 200.385 483.684 200.354 483.684C200.324 483.684 200.278 483.669 200.217 483.623C200.156 483.577 200.094 483.531 200.003 483.47C199.911 483.424 199.804 483.363 199.681 483.317C199.559 483.271 199.406 483.256 199.238 483.256C199.055 483.256 198.887 483.287 198.734 483.363C198.581 483.439 198.459 483.546 198.352 483.699C198.245 483.837 198.168 484.021 198.107 484.219C198.046 484.418 198.031 484.647 198.015 484.907C198.015 485.182 198.046 485.427 198.092 485.641C198.153 485.84 198.229 486.023 198.336 486.146C198.443 486.283 198.566 486.375 198.719 486.451C198.872 486.512 199.04 486.558 199.223 486.558C199.391 486.558 199.544 486.543 199.666 486.497C199.789 486.451 199.896 486.421 199.987 486.359C200.079 486.314 200.156 486.268 200.217 486.222C200.278 486.176 200.324 486.161 200.354 486.161C200.385 486.161 200.4 486.161 200.415 486.176C200.431 486.191 200.446 486.207 200.446 486.237C200.446 486.268 200.461 486.314 200.461 486.359C200.522 486.466 200.522 486.543 200.522 486.635Z" fill="white"/>
</g>
<defs>
<clipPath id="clip0">
<rect width="375" height="667" fill="white"/>
</clipPath>
</defs>
</svg>
