<svg width="1920" height="1080" viewBox="0 0 1920 1080" fill="none" xmlns="http://www.w3.org/2000/svg">
<g clip-path="url(#clip0)">
<path d="M496.846 624.3L450.956 624C448.042 624 445.643 626.314 445.643 629.227L445 721.479C445 724.393 447.314 726.793 450.227 726.793L510.772 727.221C513.686 727.221 516.085 724.907 516.085 721.994L516.599 646.538L496.975 624.814L496.846 624.3Z" fill="#CF4E31"/>
<path d="M516.658 729.731C524.74 721.649 524.74 708.545 516.658 700.463C508.576 692.381 495.472 692.381 487.39 700.463C479.308 708.545 479.308 721.649 487.39 729.731C495.472 737.813 508.576 737.813 516.658 729.731Z" fill="white"/>
<path d="M516.643 646.495L496.975 624.814L496.847 624.3H496.547L496.375 646.324L516.643 646.495Z" fill="#7A2B1A"/>
<path d="M495.39 737.462C495.176 737.419 494.961 737.376 494.661 737.376C494.104 737.376 493.505 737.462 492.819 737.59C492.091 737.719 491.362 737.805 490.634 737.805C489.777 737.805 489.091 737.633 488.491 737.29C487.463 736.691 486.906 735.662 486.477 734.591L478.765 754.301L488.234 751.216L493.119 759.914L500.617 740.718C499.375 740.461 498.346 739.604 497.404 738.79C496.718 738.233 495.99 737.633 495.39 737.462Z" fill="#F7CE14"/>
<path d="M514.329 737.419C513.729 737.762 513 737.933 512.186 737.933C511.458 737.933 510.729 737.805 510.001 737.676C509.358 737.548 508.716 737.462 508.159 737.462C507.859 737.462 507.644 737.505 507.43 737.548C506.83 737.719 506.102 738.319 505.373 738.876C504.431 739.647 503.402 740.461 502.16 740.718L509.401 760L514.414 751.388L523.841 754.601L516.428 734.805C515.957 735.834 515.357 736.862 514.329 737.419Z" fill="#F7CE14"/>
<path d="M526.069 716.081C526.112 716.038 526.112 715.952 526.155 715.909C526.197 715.738 526.24 715.524 526.283 715.352C526.283 715.266 526.283 715.224 526.283 715.138C526.283 714.238 525.769 713.381 525.126 712.567C525.04 712.438 524.955 712.353 524.869 712.224C524.826 712.181 524.783 712.096 524.741 712.053C524.655 711.924 524.569 711.839 524.441 711.71C524.355 711.582 524.269 711.496 524.184 711.367C524.141 711.324 524.098 711.239 524.055 711.196C523.969 711.067 523.884 710.982 523.798 710.853C523.712 710.725 523.626 710.639 523.584 710.51C523.412 710.21 523.241 709.91 523.155 709.611C523.155 709.568 523.112 709.482 523.112 709.439C523.069 709.268 523.027 709.053 523.027 708.839C522.984 708.496 523.027 708.154 523.027 707.811C523.027 707.725 523.027 707.682 523.069 707.597C523.112 707.297 523.155 706.997 523.198 706.697C523.241 706.568 523.241 706.44 523.284 706.268C523.284 706.226 523.284 706.226 523.284 706.183C523.498 704.94 523.669 703.697 523.155 702.798C522.77 702.112 522.084 701.684 521.27 701.341C521.141 701.298 521.013 701.212 520.884 701.169C520.627 701.041 520.327 700.955 520.07 700.827C519.942 700.784 519.77 700.698 519.642 700.655C519.556 700.612 519.513 700.612 519.427 700.57C519.299 700.527 519.17 700.441 519.042 700.398C518.827 700.312 518.656 700.227 518.485 700.098C518.356 700.013 518.228 699.97 518.142 699.884C517.928 699.755 517.713 699.584 517.542 699.413C517.414 699.284 517.285 699.113 517.156 698.941C517.071 698.813 517.028 698.727 516.942 698.599C516.856 698.47 516.814 698.341 516.728 698.213C516.642 698.042 516.557 697.827 516.471 697.613C516.428 697.484 516.342 697.356 516.299 697.185C516.257 697.056 516.214 696.885 516.128 696.756C516.085 696.67 516.085 696.628 516.042 696.542C516 696.413 515.957 696.285 515.914 696.199C515.871 696.113 515.828 696.028 515.828 695.942C515.7 695.599 515.528 695.256 515.4 694.956C515.314 694.828 515.271 694.699 515.185 694.614C515.1 694.485 515.014 694.399 514.971 694.271C514.8 694.057 514.628 693.885 514.414 693.757C514.371 693.714 514.328 693.671 514.243 693.671C514.2 693.628 514.114 693.628 514.071 693.585C514.071 693.585 514.029 693.585 514.029 693.542C513.986 693.542 513.943 693.5 513.9 693.5C513.857 693.5 513.857 693.5 513.814 693.457C513.771 693.457 513.729 693.414 513.729 693.414C513.686 693.414 513.686 693.414 513.643 693.371C513.6 693.371 513.557 693.371 513.557 693.328C513.514 693.328 513.514 693.328 513.471 693.328C513.429 693.328 513.386 693.328 513.386 693.328C513.343 693.328 513.343 693.328 513.3 693.328C513.257 693.328 513.214 693.328 513.214 693.328C513.172 693.328 513.172 693.328 513.129 693.328C513.086 693.328 513.043 693.328 513 693.328C512.957 693.328 512.914 693.328 512.914 693.328C512.872 693.328 512.829 693.328 512.786 693.328C512.743 693.328 512.743 693.328 512.7 693.328C512.657 693.328 512.615 693.328 512.572 693.328C512.529 693.328 512.529 693.328 512.486 693.328C512.443 693.328 512.4 693.328 512.357 693.328C512.315 693.328 512.315 693.328 512.272 693.328C512.229 693.328 512.143 693.328 512.1 693.328H512.057C511.972 693.328 511.886 693.328 511.8 693.371C511.8 693.371 511.8 693.371 511.758 693.371C511.672 693.371 511.629 693.371 511.543 693.414C511.5 693.414 511.5 693.414 511.458 693.414C511.415 693.414 511.329 693.414 511.286 693.457C511.243 693.457 511.243 693.457 511.201 693.457C511.158 693.457 511.072 693.457 511.029 693.5C510.986 693.5 510.986 693.5 510.943 693.5C510.858 693.5 510.772 693.542 510.729 693.542C510.686 693.542 510.644 693.542 510.601 693.542C510.558 693.542 510.515 693.542 510.472 693.585C510.386 693.585 510.344 693.585 510.258 693.628H510.215C510.129 693.628 510.044 693.671 509.958 693.671C509.915 693.671 509.915 693.671 509.872 693.671C509.829 693.671 509.744 693.671 509.701 693.671C509.658 693.671 509.658 693.671 509.615 693.671C509.572 693.671 509.529 693.671 509.487 693.671C509.444 693.671 509.444 693.671 509.401 693.671C509.358 693.671 509.315 693.671 509.272 693.671C509.23 693.671 509.23 693.671 509.187 693.671C509.144 693.671 509.101 693.671 509.058 693.671C509.015 693.671 509.015 693.671 508.972 693.671C508.93 693.671 508.844 693.671 508.801 693.671H508.758C508.672 693.671 508.587 693.671 508.501 693.671H508.458C508.415 693.671 508.33 693.671 508.287 693.671C508.244 693.671 508.244 693.671 508.201 693.671C508.158 693.671 508.073 693.671 508.03 693.628C507.987 693.628 507.987 693.628 507.944 693.628C507.858 693.628 507.816 693.585 507.73 693.585C507.43 693.5 507.13 693.371 506.83 693.2C506.701 693.114 506.616 693.071 506.487 692.985C506.316 692.857 506.144 692.728 505.973 692.6C505.93 692.557 505.845 692.514 505.802 692.471C505.587 692.3 505.33 692.086 505.116 691.914C504.945 691.786 504.773 691.614 504.602 691.486C503.788 690.843 502.931 690.329 502.031 690.286C500.189 690.286 498.646 692.386 496.975 693.243C496.846 693.285 496.718 693.371 496.632 693.414C496.504 693.457 496.375 693.5 496.289 693.542C496.204 693.542 496.161 693.585 496.075 693.585C496.032 693.585 496.032 693.585 495.989 693.585C495.947 693.585 495.904 693.585 495.818 693.628C495.775 693.628 495.775 693.628 495.732 693.628C495.69 693.628 495.604 693.628 495.561 693.628C495.518 693.628 495.518 693.628 495.475 693.628C495.39 693.628 495.304 693.628 495.218 693.628H495.175C495.132 693.628 495.047 693.628 495.004 693.628C494.961 693.628 494.961 693.628 494.918 693.628C494.875 693.628 494.833 693.628 494.79 693.628C494.747 693.628 494.747 693.628 494.704 693.628C494.661 693.628 494.618 693.628 494.575 693.628C494.533 693.628 494.533 693.628 494.49 693.628C494.447 693.628 494.404 693.628 494.361 693.628C494.318 693.628 494.318 693.628 494.276 693.628C494.233 693.628 494.147 693.628 494.104 693.585C494.061 693.585 494.061 693.585 494.018 693.585C493.933 693.585 493.847 693.542 493.761 693.542C493.761 693.542 493.761 693.542 493.719 693.542C493.633 693.542 493.59 693.5 493.504 693.5C493.461 693.5 493.419 693.5 493.419 693.5C493.376 693.5 493.29 693.5 493.247 693.457C493.204 693.457 493.119 693.457 493.076 693.414C493.033 693.414 492.99 693.414 492.99 693.414C492.947 693.414 492.904 693.414 492.862 693.371C492.819 693.371 492.776 693.371 492.776 693.371C492.733 693.371 492.69 693.371 492.604 693.328C492.562 693.328 492.562 693.328 492.519 693.328C492.476 693.328 492.39 693.328 492.347 693.285H492.305C492.219 693.285 492.133 693.285 492.09 693.243H492.047C492.005 693.243 491.919 693.243 491.876 693.243C491.833 693.243 491.833 693.243 491.79 693.243C491.747 693.243 491.705 693.243 491.662 693.243C491.619 693.243 491.619 693.243 491.576 693.243C491.533 693.243 491.49 693.243 491.448 693.243C491.405 693.243 491.405 693.243 491.362 693.243C491.319 693.243 491.276 693.243 491.233 693.243C491.19 693.243 491.19 693.243 491.148 693.243C491.105 693.243 491.062 693.243 491.019 693.243C490.976 693.243 490.976 693.243 490.933 693.243C490.891 693.243 490.848 693.243 490.805 693.243C490.762 693.243 490.762 693.243 490.719 693.243C490.676 693.243 490.633 693.243 490.591 693.243C490.548 693.243 490.548 693.243 490.505 693.243C490.462 693.243 490.419 693.243 490.376 693.285C490.334 693.285 490.334 693.285 490.291 693.285C490.248 693.285 490.205 693.328 490.162 693.328C490.119 693.328 490.119 693.328 490.076 693.371C490.034 693.371 489.991 693.414 489.948 693.414C489.948 693.414 489.905 693.414 489.905 693.457C489.862 693.5 489.776 693.5 489.734 693.542C489.605 693.585 489.519 693.671 489.434 693.757C489.305 693.885 489.134 694.014 489.005 694.185C488.791 694.442 488.62 694.742 488.448 695.042C488.405 695.085 488.362 695.171 488.362 695.214C488.32 695.342 488.234 695.471 488.191 695.599C488.02 695.985 487.848 696.413 487.677 696.842C487.591 697.056 487.506 697.27 487.42 697.442C487.377 697.527 487.377 697.57 487.334 697.656C487.291 697.784 487.248 697.87 487.163 697.999C487.077 698.127 487.034 698.299 486.949 698.427C486.906 698.513 486.82 698.599 486.777 698.684C486.734 698.77 486.691 698.856 486.606 698.898C486.52 698.984 486.434 699.113 486.349 699.198C486.22 699.327 486.049 699.456 485.877 699.584C485.749 699.67 485.663 699.713 485.535 699.798C485.492 699.841 485.406 699.884 485.363 699.884C485.192 699.97 484.977 700.055 484.763 700.141C484.678 700.184 484.635 700.184 484.549 700.227C484.42 700.27 484.292 700.355 484.121 700.398C483.649 700.57 483.135 700.741 482.664 700.955C482.535 700.998 482.407 701.084 482.278 701.127C481.55 701.469 480.95 701.855 480.607 702.498C480.521 702.669 480.436 702.841 480.393 703.012C480.35 703.14 480.35 703.226 480.307 703.355C480.307 703.44 480.264 703.526 480.264 703.569C480.264 703.697 480.221 703.826 480.221 703.955C480.221 704.083 480.221 704.212 480.221 704.383C480.221 704.469 480.221 704.512 480.221 704.597C480.221 704.897 480.264 705.154 480.307 705.454C480.307 705.583 480.35 705.754 480.393 705.883C480.436 706.011 480.436 706.183 480.478 706.311C480.521 706.44 480.521 706.611 480.521 706.74C480.564 706.954 480.564 707.168 480.607 707.382C480.607 707.597 480.65 707.811 480.65 708.025C480.65 708.368 480.607 708.711 480.521 709.011C480.478 709.139 480.436 709.268 480.393 709.353C480.35 709.482 480.307 709.611 480.221 709.696C480.179 709.739 480.136 709.825 480.136 709.868C480.05 709.996 480.007 710.082 479.921 710.21C479.836 710.339 479.75 710.425 479.664 710.553C478.679 711.881 477.222 713.167 477.222 714.667C477.222 716.509 479.322 718.052 480.179 719.723C480.221 719.766 480.221 719.851 480.264 719.894C480.35 720.065 480.393 720.237 480.478 720.451C480.521 720.58 480.521 720.708 480.564 720.837C480.564 720.965 480.607 721.094 480.607 721.222C480.607 721.437 480.607 721.651 480.607 721.865C480.607 722.079 480.564 722.294 480.521 722.508C480.521 722.636 480.478 722.808 480.436 722.936C480.393 723.236 480.35 723.536 480.307 723.836C480.221 724.265 480.179 724.736 480.136 725.122C480.136 725.25 480.136 725.421 480.136 725.55C480.136 726.107 480.221 726.621 480.478 727.05C481.207 728.292 483.006 728.764 484.549 729.406C484.592 729.449 484.678 729.449 484.72 729.492C484.935 729.578 485.149 729.706 485.32 729.792C485.363 729.835 485.449 729.878 485.492 729.878C485.577 729.921 485.663 729.963 485.749 730.049C485.92 730.178 486.049 730.306 486.177 730.435C486.349 730.606 486.477 730.777 486.606 730.992C486.649 731.035 486.649 731.077 486.691 731.12C486.82 731.292 486.906 731.506 486.991 731.72C487.034 731.806 487.077 731.892 487.12 731.977C487.248 732.234 487.334 732.534 487.463 732.791V732.834C487.634 733.22 487.763 733.648 487.934 734.034C487.977 734.12 487.977 734.162 488.02 734.248C488.362 735.062 488.791 735.748 489.477 736.133C489.948 736.391 490.462 736.519 491.062 736.519C492.347 736.519 493.804 736.091 495.09 736.091C495.432 736.091 495.775 736.133 496.118 736.219C496.418 736.305 496.718 736.433 497.018 736.605C497.318 736.776 497.618 736.99 497.875 737.205C497.918 737.248 498.003 737.29 498.046 737.333C498.26 737.505 498.517 737.719 498.732 737.89C498.903 738.019 499.075 738.19 499.246 738.319C499.974 738.876 500.66 739.347 501.474 739.476C501.603 739.476 501.731 739.518 501.817 739.518C501.945 739.518 502.074 739.518 502.16 739.476C503.831 739.219 505.287 737.376 506.83 736.562C506.873 736.519 506.959 736.519 507.001 736.476C507.173 736.391 507.344 736.348 507.558 736.262C507.858 736.176 508.201 736.133 508.587 736.133C509.872 736.133 511.329 736.605 512.615 736.605C513.172 736.605 513.729 736.519 514.2 736.262C515.7 735.405 516.042 733.048 516.942 731.42C516.985 731.377 516.985 731.334 517.028 731.292C517.071 731.206 517.156 731.12 517.199 731.035C517.328 730.863 517.456 730.735 517.585 730.606C517.713 730.478 517.885 730.349 518.056 730.22C518.185 730.135 518.27 730.092 518.399 730.006C518.442 729.963 518.528 729.921 518.57 729.921C519.085 729.663 519.642 729.449 520.199 729.235C520.499 729.149 520.756 729.021 521.056 728.935C521.398 728.806 521.741 728.635 522.041 728.507C522.598 728.207 523.069 727.864 523.369 727.35C523.541 727.007 523.669 726.664 523.712 726.278C523.712 726.15 523.755 726.021 523.755 725.893C523.755 725.679 523.755 725.464 523.755 725.25C523.755 725.122 523.712 724.95 523.712 724.822C523.712 724.693 523.669 724.522 523.669 724.393C523.669 724.265 523.626 724.093 523.584 723.965C523.498 723.536 523.455 723.065 523.412 722.636C523.412 722.551 523.412 722.508 523.412 722.422C523.412 722.208 523.369 721.994 523.369 721.779C523.369 721.694 523.369 721.651 523.369 721.565C523.369 721.437 523.369 721.308 523.412 721.179C523.412 721.094 523.412 721.051 523.455 720.965C523.498 720.88 523.498 720.837 523.498 720.794C523.584 720.451 523.755 720.065 524.012 719.723C524.141 719.508 524.312 719.251 524.526 719.037C524.569 718.994 524.612 718.909 524.655 718.866C524.783 718.694 524.955 718.523 525.083 718.352C525.126 717.666 525.769 716.895 526.069 716.081ZM501.431 734.291C490.762 734.205 482.15 725.507 482.235 714.838C482.321 704.169 491.019 695.556 501.688 695.642C512.357 695.728 520.97 704.426 520.884 715.095C520.799 725.764 512.1 734.334 501.431 734.291Z" fill="#F7CE14"/>
<path d="M501.688 697.313C491.962 697.227 483.992 705.111 483.906 714.838C483.821 724.564 491.705 732.534 501.431 732.62C511.158 732.706 519.127 724.821 519.213 715.095C519.299 705.326 511.415 697.399 501.688 697.313ZM499.503 724.993L490.762 715.866L493.89 712.867L499.76 718.994L511.501 708.582L514.371 711.839L499.503 724.993Z" fill="#F7CE14"/>
<path d="M475.123 654.251L461.154 680.731C460.554 681.888 461.626 683.173 462.868 682.83L472.98 679.959C474.052 679.659 475.037 680.559 474.823 681.63L471.309 700.526C471.009 702.198 473.323 702.969 474.094 701.426L490.034 668.947C490.591 667.791 489.52 666.505 488.277 666.891L477.822 670.061C476.794 670.361 475.766 669.504 475.937 668.433L477.951 655.022C478.122 653.479 475.894 652.751 475.123 654.251Z" fill="#F7CE14"/>
<path d="M464.409 644.096C464.409 644.181 464.409 644.224 464.366 644.267C464.324 644.31 464.281 644.353 464.152 644.396C464.066 644.438 463.895 644.438 463.681 644.481C463.467 644.481 463.21 644.481 462.867 644.481C462.567 644.481 462.353 644.481 462.181 644.438C462.01 644.438 461.881 644.396 461.753 644.353C461.667 644.31 461.581 644.267 461.538 644.224C461.496 644.181 461.453 644.096 461.453 644.01L460.296 641.011C460.167 640.668 459.996 640.368 459.867 640.111C459.739 639.854 459.567 639.64 459.396 639.468C459.225 639.297 459.053 639.168 458.796 639.082C458.582 638.997 458.325 638.954 458.025 638.954H457.168L457.125 644.053C457.125 644.139 457.082 644.181 457.039 644.224C456.997 644.267 456.911 644.31 456.825 644.353C456.739 644.396 456.568 644.396 456.397 644.438C456.225 644.438 456.011 644.481 455.754 644.481C455.497 644.481 455.283 644.481 455.111 644.438C454.94 644.396 454.811 644.396 454.683 644.353C454.597 644.31 454.511 644.267 454.469 644.224C454.426 644.181 454.426 644.096 454.426 644.053L454.511 631.927C454.511 631.627 454.597 631.413 454.768 631.284C454.94 631.156 455.111 631.07 455.325 631.07L458.796 631.113C459.139 631.113 459.439 631.113 459.653 631.156C459.867 631.156 460.082 631.198 460.253 631.198C460.81 631.284 461.281 631.413 461.71 631.584C462.138 631.755 462.481 632.013 462.781 632.312C463.081 632.612 463.295 632.955 463.467 633.384C463.638 633.812 463.681 634.283 463.681 634.798C463.681 635.226 463.638 635.655 463.509 636.04C463.381 636.426 463.21 636.726 462.995 637.026C462.781 637.326 462.481 637.583 462.181 637.754C461.838 637.968 461.496 638.14 461.067 638.268C461.281 638.354 461.453 638.483 461.624 638.611C461.796 638.74 461.967 638.911 462.095 639.125C462.267 639.34 462.395 639.554 462.524 639.811C462.652 640.068 462.781 640.368 462.91 640.668L464.024 643.324C464.109 643.582 464.195 643.796 464.238 643.881C464.409 643.924 464.409 644.053 464.409 644.096ZM460.981 635.012C460.981 634.583 460.896 634.198 460.681 633.898C460.467 633.598 460.167 633.384 459.696 633.255C459.567 633.212 459.396 633.212 459.225 633.169C459.053 633.127 458.796 633.127 458.496 633.127H457.296L457.254 636.897H458.625C459.01 636.897 459.353 636.854 459.653 636.769C459.953 636.683 460.167 636.554 460.382 636.383C460.596 636.212 460.724 635.997 460.81 635.783C460.939 635.569 460.981 635.312 460.981 635.012Z" fill="white"/>
<path d="M474.349 643.453C474.349 643.667 474.349 643.838 474.306 643.967C474.263 644.095 474.263 644.224 474.221 644.31C474.178 644.395 474.135 644.438 474.092 644.481C474.049 644.524 473.964 644.524 473.921 644.524L467.194 644.481C466.979 644.481 466.765 644.395 466.636 644.267C466.508 644.138 466.422 643.924 466.422 643.624L466.508 631.969C466.508 631.669 466.594 631.455 466.765 631.327C466.936 631.198 467.108 631.112 467.322 631.112L474.006 631.155C474.049 631.155 474.135 631.155 474.178 631.198C474.221 631.241 474.263 631.284 474.306 631.369C474.349 631.455 474.349 631.584 474.392 631.712C474.392 631.841 474.435 632.012 474.435 632.226C474.435 632.441 474.435 632.569 474.392 632.698C474.392 632.826 474.349 632.955 474.306 633.04C474.263 633.126 474.221 633.169 474.178 633.212C474.135 633.255 474.092 633.255 474.006 633.255L469.25 633.212L469.207 636.468L473.235 636.511C473.278 636.511 473.364 636.511 473.406 636.554C473.449 636.597 473.492 636.64 473.535 636.725C473.578 636.811 473.578 636.897 473.621 637.025C473.621 637.154 473.664 637.325 473.664 637.497C473.664 637.711 473.664 637.882 473.621 638.011C473.621 638.139 473.578 638.225 473.535 638.311C473.492 638.396 473.449 638.439 473.406 638.482C473.364 638.525 473.278 638.525 473.235 638.525L469.165 638.568L469.122 642.339L473.921 642.381C473.964 642.381 474.049 642.381 474.092 642.424C474.135 642.467 474.178 642.51 474.221 642.596C474.263 642.681 474.263 642.767 474.306 642.938C474.349 643.11 474.349 643.281 474.349 643.453Z" fill="white"/>
<path d="M485.704 642.596C485.704 642.767 485.704 642.896 485.704 643.024C485.704 643.153 485.661 643.238 485.661 643.324C485.661 643.41 485.618 643.496 485.576 643.538C485.533 643.581 485.49 643.667 485.404 643.753C485.318 643.838 485.19 643.924 484.976 644.053C484.761 644.181 484.504 644.31 484.162 644.395C483.862 644.524 483.476 644.61 483.09 644.652C482.705 644.695 482.233 644.781 481.762 644.738C480.862 644.738 480.005 644.567 479.277 644.31C478.548 644.01 477.906 643.581 477.392 643.024C476.877 642.467 476.492 641.739 476.235 640.925C475.978 640.068 475.849 639.082 475.849 637.968C475.849 636.811 476.02 635.826 476.32 634.926C476.62 634.026 477.049 633.298 477.606 632.698C478.163 632.098 478.806 631.669 479.577 631.327C480.348 631.027 481.162 630.855 482.105 630.898C482.491 630.898 482.833 630.941 483.176 630.984C483.519 631.07 483.819 631.112 484.119 631.241C484.419 631.327 484.676 631.455 484.89 631.584C485.104 631.712 485.276 631.841 485.361 631.927C485.447 632.012 485.533 632.098 485.533 632.141C485.576 632.184 485.576 632.269 485.618 632.398C485.661 632.526 485.661 632.612 485.661 632.741C485.661 632.869 485.661 633.041 485.661 633.212C485.661 633.426 485.661 633.598 485.618 633.726C485.618 633.855 485.576 633.983 485.533 634.069C485.49 634.155 485.447 634.24 485.404 634.283C485.361 634.326 485.318 634.326 485.233 634.326C485.147 634.326 485.019 634.283 484.847 634.155C484.676 634.026 484.504 633.898 484.247 633.726C483.99 633.598 483.69 633.426 483.347 633.298C483.005 633.169 482.576 633.126 482.105 633.126C481.591 633.126 481.119 633.212 480.691 633.426C480.262 633.64 479.92 633.94 479.62 634.369C479.32 634.755 479.106 635.269 478.934 635.826C478.763 636.383 478.72 637.025 478.677 637.754C478.677 638.525 478.763 639.211 478.891 639.811C479.063 640.368 479.277 640.882 479.577 641.225C479.877 641.61 480.22 641.867 480.648 642.082C481.077 642.253 481.548 642.381 482.062 642.381C482.533 642.381 482.962 642.339 483.305 642.21C483.647 642.082 483.947 641.996 484.204 641.824C484.462 641.696 484.676 641.567 484.847 641.439C485.019 641.31 485.147 641.267 485.233 641.267C485.318 641.267 485.361 641.267 485.404 641.31C485.447 641.353 485.49 641.396 485.49 641.482C485.49 641.567 485.533 641.696 485.533 641.824C485.704 642.124 485.704 642.339 485.704 642.596Z" fill="white"/>
</g>
<defs>
<clipPath id="clip0">
<rect width="1920" height="1080" fill="white"/>
</clipPath>
</defs>
</svg>
