<svg width="375" height="667" viewBox="0 0 375 667" fill="none" xmlns="http://www.w3.org/2000/svg">
<g clip-path="url(#clip0)">
<path d="M33.4975 493.107L17.125 493C16.0853 493 15.2294 493.826 15.2294 494.865L15 527.778C15 528.818 15.8256 529.674 16.8649 529.674L38.466 529.827C39.5057 529.827 40.3616 529.001 40.3616 527.962L40.545 501.041L33.5435 493.29L33.4975 493.107Z" fill="#CF4E31"/>
<path d="M40.566 530.723C43.4495 527.839 43.4495 523.164 40.566 520.28C37.6825 517.397 33.0073 517.397 30.1238 520.28C27.2403 523.164 27.2403 527.839 30.1238 530.723C33.0073 533.606 37.6825 533.606 40.566 530.723Z" fill="white"/>
<path d="M40.5608 501.026L33.5437 493.29L33.498 493.107H33.391L33.3296 500.965L40.5608 501.026Z" fill="#7A2B1A"/>
<path d="M32.9781 533.481C32.9017 533.465 32.825 533.45 32.718 533.45C32.5192 533.45 32.3055 533.481 32.0608 533.526C31.8011 533.572 31.541 533.603 31.2812 533.603C30.9755 533.603 30.7307 533.542 30.5166 533.419C30.1499 533.206 29.9512 532.839 29.7981 532.456L27.0466 539.489L30.425 538.388L32.1678 541.491L34.8429 534.642C34.3998 534.551 34.0327 534.245 33.6966 533.955C33.4519 533.756 33.1921 533.542 32.9781 533.481Z" fill="#F7CE14"/>
<path d="M39.7349 533.465C39.5209 533.588 39.2608 533.649 38.9704 533.649C38.7106 533.649 38.4505 533.603 38.1908 533.557C37.9614 533.511 37.7323 533.481 37.5336 533.481C37.4266 533.481 37.3499 533.496 37.2735 533.511C37.0595 533.572 36.7997 533.786 36.5396 533.985C36.2035 534.26 35.8364 534.551 35.3933 534.642L37.9767 541.522L39.7653 538.449L43.1286 539.596L40.4838 532.533C40.3158 532.9 40.1017 533.267 39.7349 533.465Z" fill="#F7CE14"/>
<path d="M43.9236 525.852C43.939 525.837 43.939 525.806 43.9543 525.791C43.9693 525.73 43.9847 525.654 44 525.592C44 525.562 44 525.547 44 525.516C44 525.195 43.8166 524.889 43.5872 524.599C43.5565 524.553 43.5262 524.522 43.4955 524.476C43.4802 524.461 43.4648 524.431 43.4498 524.415C43.4192 524.369 43.3885 524.339 43.3428 524.293C43.3121 524.247 43.2814 524.217 43.2511 524.171C43.2358 524.155 43.2204 524.125 43.2051 524.11C43.1744 524.064 43.1441 524.033 43.1134 523.987C43.0827 523.942 43.052 523.911 43.037 523.865C42.9757 523.758 42.9147 523.651 42.884 523.544C42.884 523.529 42.8686 523.498 42.8686 523.483C42.8533 523.422 42.8383 523.345 42.8383 523.269C42.823 523.146 42.8383 523.024 42.8383 522.902C42.8383 522.871 42.8383 522.856 42.8533 522.826C42.8686 522.719 42.884 522.612 42.8993 522.505C42.9147 522.458 42.9147 522.413 42.93 522.351C42.93 522.336 42.93 522.336 42.93 522.321C43.0064 521.878 43.0674 521.434 42.884 521.113C42.7466 520.869 42.5019 520.716 42.2115 520.594C42.1654 520.578 42.1198 520.548 42.0737 520.532C41.982 520.487 41.875 520.456 41.7833 520.41C41.7377 520.395 41.6763 520.364 41.6306 520.349C41.6 520.334 41.5846 520.334 41.5539 520.319C41.5083 520.303 41.4622 520.272 41.4166 520.257C41.3398 520.226 41.2788 520.196 41.2178 520.15C41.1718 520.12 41.1262 520.104 41.0955 520.074C41.0191 520.028 40.9424 519.967 40.8814 519.906C40.8357 519.86 40.7897 519.799 40.7437 519.737C40.7134 519.692 40.698 519.661 40.6673 519.615C40.6366 519.569 40.6217 519.523 40.591 519.478C40.5603 519.417 40.53 519.34 40.4993 519.264C40.4839 519.217 40.4533 519.172 40.4379 519.111C40.4229 519.065 40.4076 519.004 40.3769 518.958C40.3616 518.927 40.3616 518.912 40.3462 518.881C40.3312 518.835 40.3159 518.79 40.3006 518.759C40.2852 518.728 40.2699 518.698 40.2699 518.667C40.2242 518.545 40.1628 518.423 40.1172 518.316C40.0865 518.27 40.0711 518.224 40.0405 518.194C40.0101 518.148 39.9795 518.117 39.9641 518.071C39.9031 517.995 39.8417 517.933 39.7654 517.888C39.75 517.872 39.7347 517.857 39.7044 517.857C39.689 517.842 39.6584 517.842 39.643 517.826C39.643 517.826 39.628 517.826 39.628 517.811C39.6127 517.811 39.5974 517.796 39.582 517.796C39.5667 517.796 39.5667 517.796 39.5513 517.781C39.536 517.781 39.521 517.765 39.521 517.765C39.5057 517.765 39.5057 517.765 39.4903 517.75C39.475 517.75 39.4596 517.75 39.4596 517.735C39.4443 517.735 39.4443 517.735 39.429 517.735C39.414 517.735 39.3986 517.735 39.3986 517.735C39.3833 517.735 39.3833 517.735 39.3679 517.735C39.3526 517.735 39.3373 517.735 39.3373 517.735C39.3223 517.735 39.3223 517.735 39.3069 517.735C39.2916 517.735 39.2762 517.735 39.2609 517.735C39.2456 517.735 39.2302 517.735 39.2302 517.735C39.2152 517.735 39.1999 517.735 39.1846 517.735C39.1692 517.735 39.1692 517.735 39.1539 517.735C39.1385 517.735 39.1236 517.735 39.1082 517.735C39.0929 517.735 39.0929 517.735 39.0775 517.735C39.0622 517.735 39.0468 517.735 39.0315 517.735C39.0165 517.735 39.0165 517.735 39.0012 517.735C38.9858 517.735 38.9551 517.735 38.9398 517.735H38.9245C38.8941 517.735 38.8635 517.735 38.8328 517.75C38.8328 517.75 38.8328 517.75 38.8178 517.75C38.7871 517.75 38.7718 517.75 38.7411 517.765C38.7257 517.765 38.7257 517.765 38.7108 517.765C38.6954 517.765 38.6647 517.765 38.6494 517.781C38.6341 517.781 38.634 517.781 38.6191 517.781C38.6037 517.781 38.573 517.781 38.5577 517.796C38.5424 517.796 38.5424 517.796 38.527 517.796C38.4967 517.796 38.466 517.811 38.4507 517.811C38.4353 517.811 38.4203 517.811 38.405 517.811C38.3897 517.811 38.3743 517.811 38.359 517.826C38.3283 517.826 38.3133 517.826 38.2826 517.842H38.2673C38.2366 517.842 38.2063 517.857 38.1756 517.857C38.1602 517.857 38.1602 517.857 38.1449 517.857C38.1296 517.857 38.0992 517.857 38.0839 517.857C38.0685 517.857 38.0685 517.857 38.0532 517.857C38.0379 517.857 38.0225 517.857 38.0075 517.857C37.9922 517.857 37.9922 517.857 37.9769 517.857C37.9615 517.857 37.9462 517.857 37.9308 517.857C37.9159 517.857 37.9159 517.857 37.9005 517.857C37.8852 517.857 37.8698 517.857 37.8545 517.857C37.8391 517.857 37.8391 517.857 37.8238 517.857C37.8088 517.857 37.7781 517.857 37.7628 517.857H37.7475C37.7168 517.857 37.6864 517.857 37.6558 517.857H37.6404C37.6251 517.857 37.5947 517.857 37.5794 517.857C37.5641 517.857 37.5641 517.857 37.5487 517.857C37.5334 517.857 37.5031 517.857 37.4877 517.842C37.4724 517.842 37.4724 517.842 37.457 517.842C37.4264 517.842 37.4114 517.826 37.3807 517.826C37.2737 517.796 37.1666 517.75 37.0596 517.689C37.0136 517.658 36.9832 517.643 36.9372 517.612C36.8762 517.567 36.8148 517.521 36.7538 517.475C36.7385 517.46 36.7082 517.444 36.6928 517.429C36.6161 517.368 36.5244 517.292 36.4481 517.23C36.3871 517.185 36.3257 517.123 36.2647 517.078C35.9743 516.848 35.6685 516.665 35.3474 516.649C34.6902 516.649 34.1397 517.399 33.5435 517.704C33.4975 517.719 33.4518 517.75 33.4212 517.765C33.3755 517.781 33.3295 517.796 33.2988 517.811C33.2685 517.811 33.2531 517.826 33.2224 517.826C33.2071 517.826 33.2071 517.826 33.1918 517.826C33.1768 517.826 33.1614 517.826 33.1307 517.842C33.1154 517.842 33.1154 517.842 33.1001 517.842C33.0851 517.842 33.0544 517.842 33.0391 517.842C33.0237 517.842 33.0237 517.842 33.0084 517.842C32.978 517.842 32.9474 517.842 32.9167 517.842H32.9013C32.886 517.842 32.8557 517.842 32.8403 517.842C32.825 517.842 32.825 517.842 32.8096 517.842C32.7943 517.842 32.7793 517.842 32.764 517.842C32.7486 517.842 32.7486 517.842 32.7333 517.842C32.718 517.842 32.7026 517.842 32.6873 517.842C32.6723 517.842 32.6723 517.842 32.6569 517.842C32.6416 517.842 32.6263 517.842 32.6109 517.842C32.5956 517.842 32.5956 517.842 32.5806 517.842C32.5653 517.842 32.5346 517.842 32.5192 517.826C32.5039 517.826 32.5039 517.826 32.4885 517.826C32.4582 517.826 32.4275 517.811 32.3968 517.811C32.3968 517.811 32.3968 517.811 32.3819 517.811C32.3512 517.811 32.3358 517.796 32.3052 517.796C32.2898 517.796 32.2748 517.796 32.2748 517.796C32.2595 517.796 32.2288 517.796 32.2135 517.781C32.1981 517.781 32.1678 517.781 32.1525 517.765C32.1371 517.765 32.1218 517.765 32.1218 517.765C32.1064 517.765 32.0911 517.765 32.0761 517.75C32.0608 517.75 32.0454 517.75 32.0454 517.75C32.0301 517.75 32.0147 517.75 31.9841 517.735C31.9691 517.735 31.9691 517.735 31.9537 517.735C31.9384 517.735 31.9077 517.735 31.8924 517.719H31.8774C31.8467 517.719 31.816 517.719 31.8007 517.704H31.7853C31.7703 517.704 31.7397 517.704 31.7243 517.704C31.709 517.704 31.709 517.704 31.6936 517.704C31.6783 517.704 31.6633 517.704 31.648 517.704C31.6326 517.704 31.6326 517.704 31.6173 517.704C31.6019 517.704 31.5866 517.704 31.5716 517.704C31.5563 517.704 31.5563 517.704 31.5409 517.704C31.5256 517.704 31.5103 517.704 31.4949 517.704C31.4796 517.704 31.4796 517.704 31.4646 517.704C31.4493 517.704 31.4339 517.704 31.4186 517.704C31.4032 517.704 31.4032 517.704 31.3879 517.704C31.3729 517.704 31.3576 517.704 31.3422 517.704C31.3269 517.704 31.3269 517.704 31.3115 517.704C31.2962 517.704 31.2809 517.704 31.2659 517.704C31.2505 517.704 31.2505 517.704 31.2352 517.704C31.2198 517.704 31.2045 517.704 31.1892 517.719C31.1742 517.719 31.1742 517.719 31.1588 517.719C31.1435 517.719 31.1281 517.735 31.1128 517.735C31.0975 517.735 31.0975 517.735 31.0821 517.75C31.0671 517.75 31.0518 517.765 31.0365 517.765C31.0365 517.765 31.0211 517.765 31.0211 517.781C31.0058 517.796 30.9751 517.796 30.9601 517.811C30.9141 517.826 30.8834 517.857 30.8531 517.888C30.807 517.933 30.746 517.979 30.7 518.04C30.6237 518.132 30.5627 518.239 30.5013 518.346C30.4859 518.362 30.4706 518.392 30.4706 518.408C30.4556 518.453 30.4249 518.499 30.4096 518.545C30.3486 518.683 30.2872 518.835 30.2262 518.988C30.1955 519.065 30.1652 519.141 30.1345 519.203C30.1192 519.233 30.1192 519.248 30.1038 519.279C30.0885 519.325 30.0732 519.355 30.0428 519.401C30.0121 519.447 29.9968 519.508 29.9665 519.554C29.9511 519.585 29.9205 519.615 29.9051 519.646C29.8898 519.676 29.8744 519.707 29.8441 519.722C29.8134 519.753 29.7827 519.799 29.7524 519.829C29.7064 519.875 29.6454 519.921 29.584 519.967C29.5384 519.997 29.5077 520.013 29.462 520.043C29.4467 520.058 29.416 520.074 29.4006 520.074C29.3396 520.104 29.2629 520.135 29.1866 520.165C29.1562 520.181 29.1409 520.181 29.1102 520.196C29.0642 520.211 29.0185 520.242 28.9575 520.257C28.7891 520.319 28.6057 520.38 28.4377 520.456C28.3917 520.471 28.346 520.502 28.3 520.517C28.0402 520.639 27.8262 520.777 27.7038 521.006C27.6731 521.067 27.6428 521.129 27.6274 521.19C27.6121 521.235 27.6121 521.266 27.5968 521.312C27.5968 521.342 27.5814 521.373 27.5814 521.388C27.5814 521.434 27.5661 521.48 27.5661 521.526C27.5661 521.572 27.5661 521.618 27.5661 521.679C27.5661 521.71 27.5661 521.725 27.5661 521.755C27.5661 521.862 27.5814 521.954 27.5968 522.061C27.5968 522.107 27.6121 522.168 27.6274 522.214C27.6428 522.26 27.6428 522.321 27.6578 522.367C27.6731 522.413 27.6731 522.474 27.6731 522.52C27.6885 522.596 27.6884 522.673 27.7038 522.749C27.7038 522.826 27.7191 522.902 27.7191 522.978C27.7191 523.101 27.7038 523.223 27.6731 523.33C27.6578 523.376 27.6428 523.422 27.6274 523.452C27.6121 523.498 27.5968 523.544 27.5661 523.574C27.5511 523.59 27.5357 523.62 27.5357 523.636C27.5051 523.682 27.4897 523.712 27.459 523.758C27.4287 523.804 27.398 523.835 27.3674 523.88C27.0159 524.354 26.4961 524.813 26.4961 525.348C26.4961 526.005 27.2453 526.556 27.5511 527.152C27.5661 527.167 27.5661 527.198 27.5814 527.213C27.6121 527.274 27.6274 527.335 27.6578 527.412C27.6731 527.458 27.6731 527.503 27.6884 527.549C27.6884 527.595 27.7038 527.641 27.7038 527.687C27.7038 527.763 27.7038 527.84 27.7038 527.916C27.7038 527.992 27.6885 528.069 27.6731 528.146C27.6731 528.191 27.6578 528.253 27.6428 528.298C27.6274 528.405 27.6121 528.512 27.5968 528.619C27.5661 528.772 27.5511 528.94 27.5357 529.078C27.5357 529.124 27.5357 529.185 27.5357 529.231C27.5357 529.43 27.5661 529.613 27.6578 529.766C27.9179 530.209 28.5597 530.378 29.1102 530.607C29.1256 530.622 29.1562 530.622 29.1712 530.637C29.2479 530.668 29.3243 530.714 29.3853 530.744C29.4006 530.76 29.4313 530.775 29.4467 530.775C29.477 530.79 29.5077 530.805 29.5383 530.836C29.5994 530.882 29.6454 530.928 29.691 530.974C29.7524 531.035 29.7981 531.096 29.8441 531.172C29.8594 531.188 29.8594 531.203 29.8744 531.218C29.9205 531.279 29.9511 531.356 29.9815 531.432C29.9968 531.463 30.0121 531.494 30.0275 531.524C30.0732 531.616 30.1038 531.723 30.1499 531.814V531.83C30.2109 531.967 30.2569 532.12 30.3179 532.258C30.3332 532.288 30.3332 532.303 30.3486 532.334C30.4706 532.625 30.6237 532.869 30.8684 533.007C31.0365 533.099 31.2198 533.144 31.4339 533.144C31.8924 533.144 32.4122 532.992 32.871 532.992C32.993 532.992 33.1154 533.007 33.2378 533.037C33.3448 533.068 33.4518 533.114 33.5589 533.175C33.6659 533.236 33.7729 533.312 33.8646 533.389C33.88 533.404 33.9103 533.419 33.9256 533.435C34.002 533.496 34.0937 533.572 34.1704 533.633C34.2314 533.68 34.2928 533.74 34.3538 533.787C34.6135 533.985 34.8583 534.153 35.1487 534.199C35.1947 534.199 35.2404 534.214 35.2711 534.214C35.3167 534.214 35.3627 534.214 35.3934 534.199C35.9896 534.108 36.5091 533.45 37.0596 533.16C37.0749 533.144 37.1056 533.144 37.1206 533.129C37.182 533.099 37.243 533.083 37.3193 533.053C37.4264 533.022 37.5487 533.007 37.6864 533.007C38.1449 533.007 38.6647 533.175 39.1235 533.175C39.3223 533.175 39.521 533.144 39.689 533.053C40.2242 532.747 40.3462 531.906 40.6673 531.325C40.6827 531.31 40.6827 531.294 40.698 531.279C40.7134 531.249 40.7437 531.218 40.759 531.188C40.805 531.126 40.8507 531.081 40.8967 531.035C40.9424 530.989 41.0038 530.943 41.0648 530.897C41.1108 530.867 41.1411 530.851 41.1871 530.821C41.2025 530.805 41.2332 530.79 41.2482 530.79C41.4319 530.698 41.6306 530.622 41.8293 530.546C41.9364 530.515 42.0281 530.469 42.1351 530.439C42.2571 530.393 42.3795 530.332 42.4865 530.286C42.6853 530.179 42.8533 530.056 42.9603 529.873C43.0217 529.751 43.0674 529.628 43.0827 529.491C43.0827 529.445 43.0981 529.399 43.0981 529.353C43.0981 529.277 43.0981 529.2 43.0981 529.124C43.0981 529.078 43.0827 529.017 43.0827 528.971C43.0827 528.925 43.0674 528.864 43.0674 528.818C43.0674 528.772 43.052 528.711 43.037 528.665C43.0064 528.512 42.991 528.344 42.9757 528.191C42.9757 528.161 42.9757 528.146 42.9757 528.115C42.9757 528.038 42.9603 527.962 42.9603 527.885C42.9603 527.855 42.9603 527.84 42.9603 527.809C42.9603 527.763 42.9603 527.717 42.9757 527.671C42.9757 527.641 42.9757 527.626 42.991 527.595C43.0064 527.565 43.0064 527.549 43.0064 527.534C43.037 527.412 43.0981 527.274 43.1898 527.152C43.2358 527.075 43.2968 526.983 43.3731 526.907C43.3885 526.892 43.4038 526.861 43.4192 526.846C43.4648 526.785 43.5262 526.724 43.5719 526.663C43.5872 526.418 43.8166 526.143 43.9236 525.852ZM35.1333 532.349C31.3269 532.319 28.2543 529.215 28.2846 525.409C28.3153 521.603 31.4186 518.53 35.225 518.56C39.0315 518.591 42.1044 521.694 42.0737 525.501C42.0434 529.307 38.9398 532.365 35.1333 532.349Z" fill="#F7CE14"/>
<path d="M35.2251 519.156C31.7551 519.126 28.9115 521.939 28.8809 525.409C28.8505 528.879 31.6634 531.723 35.1334 531.753C38.6038 531.784 41.4469 528.971 41.4776 525.501C41.5083 522.015 38.6955 519.187 35.2251 519.156ZM34.4455 529.032L31.3269 525.776L32.4429 524.706L34.5372 526.892L38.7261 523.177L39.7501 524.339L34.4455 529.032Z" fill="#F7CE14"/>
<path d="M25.7471 503.793L20.7633 513.24C20.5492 513.653 20.9317 514.112 21.3748 513.989L24.9826 512.965C25.365 512.858 25.7165 513.179 25.6401 513.561L24.3864 520.303C24.2794 520.899 25.1049 521.174 25.38 520.624L31.0671 509.036C31.2658 508.624 30.8837 508.165 30.4402 508.303L26.7101 509.434C26.3433 509.541 25.9766 509.235 26.0376 508.853L26.7561 504.068C26.8171 503.517 26.0222 503.258 25.7471 503.793Z" fill="#F7CE14"/>
<path d="M21.9248 500.17C21.9248 500.2 21.9248 500.215 21.9094 500.231C21.8944 500.246 21.8791 500.261 21.8331 500.277C21.8024 500.292 21.7414 500.292 21.665 500.307C21.5887 500.307 21.497 500.307 21.3746 500.307C21.2676 500.307 21.1912 500.307 21.1299 500.292C21.0688 500.292 21.0228 500.277 20.9771 500.261C20.9465 500.246 20.9158 500.231 20.9004 500.215C20.8855 500.2 20.8701 500.17 20.8701 500.139L20.4573 499.069C20.4113 498.947 20.3503 498.84 20.3043 498.748C20.2586 498.656 20.1972 498.58 20.1362 498.519C20.0752 498.458 20.0138 498.412 19.9222 498.381C19.8458 498.351 19.7541 498.335 19.6471 498.335H19.3413L19.326 500.154C19.326 500.185 19.3106 500.2 19.2953 500.215C19.2803 500.231 19.2496 500.246 19.219 500.261C19.1883 500.277 19.1273 500.277 19.0662 500.292C19.0049 500.292 18.9285 500.307 18.8368 500.307C18.7451 500.307 18.6688 500.307 18.6074 500.292C18.5464 500.277 18.5004 500.277 18.4547 500.261C18.4241 500.246 18.3934 500.231 18.3784 500.215C18.363 500.2 18.363 500.17 18.363 500.154L18.3934 495.828C18.3934 495.721 18.424 495.645 18.4851 495.599C18.5464 495.553 18.6074 495.522 18.6838 495.522L19.9222 495.538C20.0445 495.538 20.1516 495.538 20.2279 495.553C20.3043 495.553 20.381 495.568 20.442 495.568C20.6407 495.599 20.8087 495.645 20.9618 495.706C21.1145 495.767 21.2369 495.859 21.3439 495.966C21.451 496.073 21.5273 496.195 21.5887 496.348C21.6497 496.501 21.665 496.669 21.665 496.852C21.665 497.005 21.6497 497.158 21.6037 497.296C21.558 497.433 21.497 497.54 21.4203 497.647C21.3439 497.754 21.2369 497.846 21.1299 497.907C21.0075 497.983 20.8855 498.045 20.7324 498.09C20.8087 498.121 20.8701 498.167 20.9311 498.213C20.9925 498.259 21.0535 498.32 21.0992 498.396C21.1605 498.473 21.2062 498.549 21.2522 498.641C21.2979 498.733 21.3439 498.84 21.3899 498.947L21.7874 499.894C21.8177 499.986 21.8484 500.063 21.8637 500.093C21.9248 500.108 21.9248 500.154 21.9248 500.17ZM20.7017 496.929C20.7017 496.776 20.6714 496.638 20.5947 496.531C20.5183 496.424 20.4113 496.348 20.2433 496.302C20.1972 496.287 20.1362 496.287 20.0752 496.271C20.0139 496.256 19.9222 496.256 19.8151 496.256H19.387L19.372 497.601H19.8612C19.9985 497.601 20.1209 497.586 20.2279 497.556C20.335 497.525 20.4113 497.479 20.488 497.418C20.5644 497.357 20.61 497.28 20.6407 497.204C20.6867 497.128 20.7017 497.036 20.7017 496.929Z" fill="white"/>
<path d="M25.471 499.94C25.471 500.017 25.471 500.078 25.4557 500.124C25.4403 500.169 25.4403 500.215 25.4253 500.246C25.41 500.276 25.3947 500.292 25.3793 500.307C25.364 500.323 25.3336 500.323 25.3183 500.323L22.9183 500.307C22.8415 500.307 22.7652 500.277 22.7192 500.231C22.6735 500.185 22.6428 500.108 22.6428 500.001L22.6735 495.843C22.6735 495.736 22.7042 495.66 22.7652 495.614C22.8262 495.568 22.8876 495.537 22.9639 495.537L25.3486 495.553C25.364 495.553 25.3947 495.553 25.41 495.568C25.4253 495.583 25.4403 495.599 25.4557 495.629C25.471 495.66 25.471 495.706 25.4863 495.751C25.4863 495.797 25.5017 495.859 25.5017 495.935C25.5017 496.012 25.5017 496.057 25.4863 496.103C25.4863 496.149 25.471 496.195 25.4557 496.225C25.4403 496.256 25.4253 496.271 25.41 496.287C25.3947 496.302 25.3793 496.302 25.3486 496.302L23.6518 496.287L23.6365 497.448L25.0735 497.464C25.0889 497.464 25.1196 497.464 25.1346 497.479C25.1499 497.494 25.1652 497.51 25.1806 497.54C25.1959 497.571 25.1959 497.601 25.2113 497.647C25.2113 497.693 25.2266 497.754 25.2266 497.815C25.2266 497.892 25.2266 497.953 25.2113 497.999C25.2113 498.044 25.1959 498.075 25.1806 498.106C25.1652 498.136 25.1499 498.152 25.1346 498.167C25.1196 498.182 25.0889 498.182 25.0735 498.182L23.6215 498.198L23.6061 499.543L25.3183 499.558C25.3336 499.558 25.364 499.558 25.3793 499.573C25.3947 499.589 25.41 499.604 25.4253 499.635C25.4403 499.665 25.4403 499.696 25.4557 499.757C25.471 499.818 25.471 499.879 25.471 499.94Z" fill="white"/>
<path d="M29.5224 499.635C29.5224 499.696 29.5224 499.742 29.5224 499.787C29.5224 499.833 29.5071 499.864 29.5071 499.894C29.5071 499.925 29.4917 499.956 29.4767 499.971C29.4614 499.986 29.446 500.017 29.4154 500.047C29.3847 500.078 29.339 500.108 29.2627 500.154C29.186 500.2 29.0943 500.246 28.9722 500.277C28.8652 500.323 28.7275 500.353 28.5898 500.368C28.4524 500.384 28.284 500.414 28.116 500.399C27.7949 500.399 27.4891 500.338 27.2294 500.246C26.9693 500.139 26.7402 499.986 26.5569 499.787C26.3731 499.589 26.2358 499.329 26.1441 499.038C26.0524 498.733 26.0063 498.381 26.0063 497.983C26.0063 497.571 26.0674 497.219 26.1744 496.898C26.2814 496.577 26.4345 496.317 26.6332 496.103C26.8319 495.889 27.0613 495.736 27.3364 495.614C27.6115 495.507 27.9019 495.446 28.2384 495.461C28.3761 495.461 28.4981 495.476 28.6205 495.492C28.7428 495.522 28.8499 495.537 28.9569 495.583C29.0639 495.614 29.1556 495.66 29.232 495.706C29.3083 495.751 29.3697 495.798 29.4 495.828C29.4307 495.859 29.4614 495.889 29.4614 495.905C29.4767 495.92 29.4767 495.95 29.4917 495.996C29.5071 496.042 29.5071 496.073 29.5071 496.119C29.5071 496.164 29.5071 496.226 29.5071 496.287C29.5071 496.363 29.5071 496.424 29.4917 496.47C29.4917 496.516 29.4767 496.562 29.4614 496.592C29.446 496.623 29.4307 496.653 29.4154 496.669C29.4 496.684 29.3847 496.684 29.3544 496.684C29.3237 496.684 29.278 496.669 29.2166 496.623C29.1556 496.577 29.0943 496.531 29.0026 496.47C28.9109 496.424 28.8038 496.363 28.6815 496.317C28.5594 496.271 28.4064 496.256 28.2384 496.256C28.055 496.256 27.8866 496.287 27.7339 496.363C27.5808 496.439 27.4588 496.546 27.3518 496.699C27.2447 496.837 27.1684 497.021 27.107 497.219C27.046 497.418 27.0307 497.647 27.0153 497.907C27.0153 498.182 27.046 498.427 27.0917 498.641C27.153 498.84 27.2294 499.023 27.3364 499.146C27.4434 499.283 27.5658 499.375 27.7185 499.451C27.8716 499.512 28.0396 499.558 28.223 499.558C28.3911 499.558 28.5441 499.543 28.6665 499.497C28.7885 499.451 28.8955 499.421 28.9872 499.359C29.0793 499.314 29.1556 499.268 29.2166 499.222C29.278 499.176 29.3237 499.161 29.3544 499.161C29.3847 499.161 29.4 499.161 29.4154 499.176C29.4307 499.191 29.446 499.207 29.446 499.237C29.446 499.268 29.4614 499.314 29.4614 499.359C29.5224 499.466 29.5224 499.543 29.5224 499.635Z" fill="white"/>
</g>
<defs>
<clipPath id="clip0">
<rect width="375" height="667" fill="white"/>
</clipPath>
</defs>
</svg>
