<svg width="375" height="667" viewBox="0 0 375 667" fill="none" xmlns="http://www.w3.org/2000/svg">
<g clip-path="url(#clip0)">
<path d="M126.498 492.107L110.125 492C109.085 492 108.229 492.826 108.229 493.865L108 526.778C108 527.818 108.826 528.674 109.865 528.674L131.466 528.827C132.506 528.827 133.362 528.001 133.362 526.962L133.545 500.041L126.544 492.29L126.498 492.107Z" fill="#CF4E31"/>
<path d="M133.566 529.723C136.449 526.839 136.449 522.164 133.566 519.28C130.682 516.397 126.007 516.397 123.124 519.28C120.24 522.164 120.24 526.839 123.124 529.723C126.007 532.606 130.682 532.606 133.566 529.723Z" fill="white"/>
<path d="M133.561 500.026L126.544 492.29L126.498 492.107H126.391L126.33 499.965L133.561 500.026Z" fill="#7A2B1A"/>
<path d="M125.978 532.481C125.902 532.465 125.825 532.45 125.718 532.45C125.519 532.45 125.306 532.481 125.061 532.526C124.801 532.572 124.541 532.603 124.281 532.603C123.975 532.603 123.731 532.542 123.517 532.419C123.15 532.206 122.951 531.839 122.798 531.456L120.047 538.489L123.425 537.388L125.168 540.491L127.843 533.642C127.4 533.551 127.033 533.245 126.697 532.955C126.452 532.756 126.192 532.542 125.978 532.481Z" fill="#F7CE14"/>
<path d="M132.735 532.465C132.521 532.588 132.261 532.649 131.97 532.649C131.711 532.649 131.451 532.603 131.191 532.557C130.961 532.511 130.732 532.481 130.534 532.481C130.427 532.481 130.35 532.496 130.274 532.511C130.059 532.572 129.8 532.786 129.54 532.985C129.204 533.26 128.836 533.551 128.393 533.642L130.977 540.522L132.765 537.449L136.129 538.596L133.484 531.533C133.316 531.9 133.102 532.267 132.735 532.465Z" fill="#F7CE14"/>
<path d="M136.924 524.852C136.939 524.837 136.939 524.806 136.954 524.791C136.969 524.73 136.985 524.654 137 524.592C137 524.562 137 524.547 137 524.516C137 524.195 136.817 523.889 136.587 523.599C136.557 523.553 136.526 523.522 136.496 523.476C136.48 523.461 136.465 523.431 136.45 523.415C136.419 523.369 136.388 523.339 136.343 523.293C136.312 523.247 136.281 523.217 136.251 523.171C136.236 523.155 136.22 523.125 136.205 523.11C136.174 523.064 136.144 523.033 136.113 522.987C136.083 522.942 136.052 522.911 136.037 522.865C135.976 522.758 135.915 522.651 135.884 522.544C135.884 522.529 135.869 522.498 135.869 522.483C135.853 522.422 135.838 522.345 135.838 522.269C135.823 522.146 135.838 522.024 135.838 521.902C135.838 521.871 135.838 521.856 135.853 521.826C135.869 521.719 135.884 521.612 135.899 521.505C135.915 521.458 135.915 521.413 135.93 521.351C135.93 521.336 135.93 521.336 135.93 521.321C136.006 520.878 136.067 520.434 135.884 520.113C135.747 519.869 135.502 519.716 135.211 519.594C135.165 519.578 135.12 519.548 135.074 519.532C134.982 519.487 134.875 519.456 134.783 519.41C134.738 519.395 134.676 519.364 134.631 519.349C134.6 519.334 134.585 519.334 134.554 519.319C134.508 519.303 134.462 519.272 134.417 519.257C134.34 519.226 134.279 519.196 134.218 519.15C134.172 519.12 134.126 519.104 134.095 519.074C134.019 519.028 133.942 518.967 133.881 518.906C133.836 518.86 133.79 518.799 133.744 518.737C133.713 518.692 133.698 518.661 133.667 518.615C133.637 518.569 133.622 518.523 133.591 518.478C133.56 518.417 133.53 518.34 133.499 518.264C133.484 518.217 133.453 518.172 133.438 518.111C133.423 518.065 133.408 518.004 133.377 517.958C133.362 517.927 133.362 517.912 133.346 517.881C133.331 517.835 133.316 517.79 133.301 517.759C133.285 517.728 133.27 517.698 133.27 517.667C133.224 517.545 133.163 517.423 133.117 517.316C133.086 517.27 133.071 517.224 133.04 517.194C133.01 517.148 132.979 517.117 132.964 517.071C132.903 516.995 132.842 516.933 132.765 516.888C132.75 516.872 132.735 516.857 132.704 516.857C132.689 516.842 132.658 516.842 132.643 516.826C132.643 516.826 132.628 516.826 132.628 516.811C132.613 516.811 132.597 516.796 132.582 516.796C132.567 516.796 132.567 516.796 132.551 516.781C132.536 516.781 132.521 516.765 132.521 516.765C132.506 516.765 132.506 516.765 132.49 516.75C132.475 516.75 132.46 516.75 132.46 516.735C132.444 516.735 132.444 516.735 132.429 516.735C132.414 516.735 132.399 516.735 132.399 516.735C132.383 516.735 132.383 516.735 132.368 516.735C132.353 516.735 132.337 516.735 132.337 516.735C132.322 516.735 132.322 516.735 132.307 516.735C132.292 516.735 132.276 516.735 132.261 516.735C132.246 516.735 132.23 516.735 132.23 516.735C132.215 516.735 132.2 516.735 132.185 516.735C132.169 516.735 132.169 516.735 132.154 516.735C132.139 516.735 132.124 516.735 132.108 516.735C132.093 516.735 132.093 516.735 132.078 516.735C132.062 516.735 132.047 516.735 132.031 516.735C132.017 516.735 132.017 516.735 132.001 516.735C131.986 516.735 131.955 516.735 131.94 516.735H131.924C131.894 516.735 131.863 516.735 131.833 516.75C131.833 516.75 131.833 516.75 131.818 516.75C131.787 516.75 131.772 516.75 131.741 516.765C131.726 516.765 131.726 516.765 131.711 516.765C131.695 516.765 131.665 516.765 131.649 516.781C131.634 516.781 131.634 516.781 131.619 516.781C131.604 516.781 131.573 516.781 131.558 516.796C131.542 516.796 131.542 516.796 131.527 516.796C131.497 516.796 131.466 516.811 131.451 516.811C131.435 516.811 131.42 516.811 131.405 516.811C131.39 516.811 131.374 516.811 131.359 516.826C131.328 516.826 131.313 516.826 131.283 516.842H131.267C131.237 516.842 131.206 516.857 131.176 516.857C131.16 516.857 131.16 516.857 131.145 516.857C131.13 516.857 131.099 516.857 131.084 516.857C131.069 516.857 131.069 516.857 131.053 516.857C131.038 516.857 131.023 516.857 131.008 516.857C130.992 516.857 130.992 516.857 130.977 516.857C130.962 516.857 130.946 516.857 130.931 516.857C130.916 516.857 130.916 516.857 130.901 516.857C130.885 516.857 130.87 516.857 130.854 516.857C130.839 516.857 130.839 516.857 130.824 516.857C130.809 516.857 130.778 516.857 130.763 516.857H130.747C130.717 516.857 130.686 516.857 130.656 516.857H130.64C130.625 516.857 130.595 516.857 130.579 516.857C130.564 516.857 130.564 516.857 130.549 516.857C130.533 516.857 130.503 516.857 130.488 516.842C130.472 516.842 130.472 516.842 130.457 516.842C130.426 516.842 130.411 516.826 130.381 516.826C130.274 516.796 130.167 516.75 130.06 516.689C130.014 516.658 129.983 516.643 129.937 516.612C129.876 516.567 129.815 516.521 129.754 516.475C129.738 516.46 129.708 516.444 129.693 516.429C129.616 516.368 129.524 516.292 129.448 516.23C129.387 516.185 129.326 516.123 129.265 516.078C128.974 515.848 128.669 515.665 128.347 515.649C127.69 515.649 127.14 516.399 126.544 516.704C126.498 516.719 126.452 516.75 126.421 516.765C126.375 516.781 126.329 516.796 126.299 516.811C126.268 516.811 126.253 516.826 126.222 516.826C126.207 516.826 126.207 516.826 126.192 516.826C126.177 516.826 126.161 516.826 126.131 516.842C126.115 516.842 126.115 516.842 126.1 516.842C126.085 516.842 126.054 516.842 126.039 516.842C126.024 516.842 126.024 516.842 126.008 516.842C125.978 516.842 125.947 516.842 125.917 516.842H125.901C125.886 516.842 125.856 516.842 125.84 516.842C125.825 516.842 125.825 516.842 125.81 516.842C125.794 516.842 125.779 516.842 125.764 516.842C125.749 516.842 125.749 516.842 125.733 516.842C125.718 516.842 125.703 516.842 125.687 516.842C125.672 516.842 125.672 516.842 125.657 516.842C125.642 516.842 125.626 516.842 125.611 516.842C125.596 516.842 125.596 516.842 125.581 516.842C125.565 516.842 125.535 516.842 125.519 516.826C125.504 516.826 125.504 516.826 125.489 516.826C125.458 516.826 125.428 516.811 125.397 516.811C125.397 516.811 125.397 516.811 125.382 516.811C125.351 516.811 125.336 516.796 125.305 516.796C125.29 516.796 125.275 516.796 125.275 516.796C125.259 516.796 125.229 516.796 125.213 516.781C125.198 516.781 125.168 516.781 125.152 516.765C125.137 516.765 125.122 516.765 125.122 516.765C125.106 516.765 125.091 516.765 125.076 516.75C125.061 516.75 125.045 516.75 125.045 516.75C125.03 516.75 125.015 516.75 124.984 516.735C124.969 516.735 124.969 516.735 124.954 516.735C124.938 516.735 124.908 516.735 124.892 516.719H124.877C124.847 516.719 124.816 516.719 124.801 516.704H124.785C124.77 516.704 124.74 516.704 124.724 516.704C124.709 516.704 124.709 516.704 124.694 516.704C124.678 516.704 124.663 516.704 124.648 516.704C124.633 516.704 124.633 516.704 124.617 516.704C124.602 516.704 124.587 516.704 124.572 516.704C124.556 516.704 124.556 516.704 124.541 516.704C124.526 516.704 124.51 516.704 124.495 516.704C124.48 516.704 124.48 516.704 124.465 516.704C124.449 516.704 124.434 516.704 124.419 516.704C124.403 516.704 124.403 516.704 124.388 516.704C124.373 516.704 124.358 516.704 124.342 516.704C124.327 516.704 124.327 516.704 124.312 516.704C124.296 516.704 124.281 516.704 124.266 516.704C124.251 516.704 124.251 516.704 124.235 516.704C124.22 516.704 124.205 516.704 124.189 516.719C124.174 516.719 124.174 516.719 124.159 516.719C124.143 516.719 124.128 516.735 124.113 516.735C124.097 516.735 124.097 516.735 124.082 516.75C124.067 516.75 124.052 516.765 124.036 516.765C124.036 516.765 124.021 516.765 124.021 516.781C124.006 516.796 123.975 516.796 123.96 516.811C123.914 516.826 123.883 516.857 123.853 516.888C123.807 516.933 123.746 516.979 123.7 517.04C123.624 517.132 123.563 517.239 123.501 517.346C123.486 517.362 123.471 517.392 123.471 517.408C123.456 517.453 123.425 517.499 123.41 517.545C123.349 517.683 123.287 517.835 123.226 517.988C123.196 518.065 123.165 518.141 123.135 518.203C123.119 518.233 123.119 518.248 123.104 518.279C123.089 518.325 123.073 518.355 123.043 518.401C123.012 518.447 122.997 518.508 122.966 518.554C122.951 518.585 122.92 518.615 122.905 518.646C122.89 518.676 122.874 518.707 122.844 518.722C122.813 518.753 122.783 518.799 122.752 518.829C122.706 518.875 122.645 518.921 122.584 518.967C122.538 518.997 122.508 519.013 122.462 519.043C122.447 519.058 122.416 519.074 122.401 519.074C122.34 519.104 122.263 519.135 122.187 519.165C122.156 519.181 122.141 519.181 122.11 519.196C122.064 519.211 122.019 519.242 121.958 519.257C121.789 519.319 121.606 519.38 121.438 519.456C121.392 519.471 121.346 519.502 121.3 519.517C121.04 519.639 120.826 519.777 120.704 520.006C120.673 520.067 120.643 520.129 120.627 520.19C120.612 520.235 120.612 520.266 120.597 520.312C120.597 520.342 120.581 520.373 120.581 520.388C120.581 520.434 120.566 520.48 120.566 520.526C120.566 520.572 120.566 520.618 120.566 520.679C120.566 520.71 120.566 520.725 120.566 520.755C120.566 520.862 120.581 520.954 120.597 521.061C120.597 521.107 120.612 521.168 120.627 521.214C120.643 521.26 120.643 521.321 120.658 521.367C120.673 521.413 120.673 521.474 120.673 521.52C120.688 521.596 120.688 521.673 120.704 521.749C120.704 521.826 120.719 521.902 120.719 521.978C120.719 522.101 120.704 522.223 120.673 522.33C120.658 522.376 120.643 522.422 120.627 522.452C120.612 522.498 120.597 522.544 120.566 522.574C120.551 522.59 120.536 522.62 120.536 522.636C120.505 522.682 120.49 522.712 120.459 522.758C120.429 522.804 120.398 522.835 120.367 522.88C120.016 523.354 119.496 523.813 119.496 524.348C119.496 525.005 120.245 525.556 120.551 526.152C120.566 526.167 120.566 526.198 120.581 526.213C120.612 526.274 120.627 526.335 120.658 526.412C120.673 526.458 120.673 526.503 120.688 526.549C120.688 526.595 120.704 526.641 120.704 526.687C120.704 526.763 120.704 526.84 120.704 526.916C120.704 526.992 120.688 527.069 120.673 527.146C120.673 527.191 120.658 527.253 120.643 527.298C120.627 527.405 120.612 527.512 120.597 527.619C120.566 527.772 120.551 527.94 120.536 528.078C120.536 528.124 120.536 528.185 120.536 528.231C120.536 528.43 120.566 528.613 120.658 528.766C120.918 529.209 121.56 529.378 122.11 529.607C122.126 529.622 122.156 529.622 122.171 529.637C122.248 529.668 122.324 529.714 122.385 529.744C122.401 529.76 122.431 529.775 122.447 529.775C122.477 529.79 122.508 529.805 122.538 529.836C122.599 529.882 122.645 529.928 122.691 529.974C122.752 530.035 122.798 530.096 122.844 530.172C122.859 530.188 122.859 530.203 122.874 530.218C122.92 530.279 122.951 530.356 122.981 530.432C122.997 530.463 123.012 530.494 123.027 530.524C123.073 530.616 123.104 530.723 123.15 530.814V530.83C123.211 530.967 123.257 531.12 123.318 531.258C123.333 531.288 123.333 531.303 123.349 531.334C123.471 531.625 123.624 531.869 123.868 532.007C124.036 532.099 124.22 532.144 124.434 532.144C124.892 532.144 125.412 531.992 125.871 531.992C125.993 531.992 126.115 532.007 126.238 532.037C126.345 532.068 126.452 532.114 126.559 532.175C126.666 532.236 126.773 532.312 126.865 532.389C126.88 532.404 126.91 532.419 126.926 532.435C127.002 532.496 127.094 532.572 127.17 532.633C127.231 532.68 127.293 532.74 127.354 532.787C127.614 532.985 127.858 533.153 128.149 533.199C128.195 533.199 128.24 533.214 128.271 533.214C128.317 533.214 128.363 533.214 128.393 533.199C128.99 533.108 129.509 532.45 130.06 532.16C130.075 532.144 130.106 532.144 130.121 532.129C130.182 532.099 130.243 532.083 130.319 532.053C130.426 532.022 130.549 532.007 130.686 532.007C131.145 532.007 131.665 532.175 132.124 532.175C132.322 532.175 132.521 532.144 132.689 532.053C133.224 531.747 133.346 530.906 133.667 530.325C133.683 530.31 133.683 530.294 133.698 530.279C133.713 530.249 133.744 530.218 133.759 530.188C133.805 530.126 133.851 530.081 133.897 530.035C133.942 529.989 134.004 529.943 134.065 529.897C134.111 529.867 134.141 529.851 134.187 529.821C134.202 529.805 134.233 529.79 134.248 529.79C134.432 529.698 134.631 529.622 134.829 529.546C134.936 529.515 135.028 529.469 135.135 529.439C135.257 529.393 135.38 529.332 135.487 529.286C135.685 529.179 135.853 529.056 135.96 528.873C136.022 528.751 136.067 528.628 136.083 528.491C136.083 528.445 136.098 528.399 136.098 528.353C136.098 528.277 136.098 528.2 136.098 528.124C136.098 528.078 136.083 528.017 136.083 527.971C136.083 527.925 136.067 527.864 136.067 527.818C136.067 527.772 136.052 527.711 136.037 527.665C136.006 527.512 135.991 527.344 135.976 527.191C135.976 527.161 135.976 527.146 135.976 527.115C135.976 527.038 135.96 526.962 135.96 526.885C135.96 526.855 135.96 526.84 135.96 526.809C135.96 526.763 135.96 526.717 135.976 526.671C135.976 526.641 135.976 526.626 135.991 526.595C136.006 526.565 136.006 526.549 136.006 526.534C136.037 526.412 136.098 526.274 136.19 526.152C136.236 526.075 136.297 525.983 136.373 525.907C136.388 525.892 136.404 525.861 136.419 525.846C136.465 525.785 136.526 525.724 136.572 525.663C136.587 525.418 136.817 525.143 136.924 524.852ZM128.133 531.349C124.327 531.319 121.254 528.215 121.285 524.409C121.315 520.603 124.419 517.53 128.225 517.56C132.031 517.591 135.104 520.694 135.074 524.501C135.043 528.307 131.94 531.365 128.133 531.349Z" fill="#F7CE14"/>
<path d="M128.225 518.156C124.755 518.126 121.912 520.939 121.881 524.409C121.851 527.879 124.663 530.723 128.133 530.753C131.604 530.784 134.447 527.971 134.478 524.501C134.508 521.015 131.695 518.187 128.225 518.156ZM127.446 528.032L124.327 524.776L125.443 523.706L127.537 525.892L131.726 522.177L132.75 523.339L127.446 528.032Z" fill="#F7CE14"/>
<path d="M118.747 502.793L113.763 512.24C113.549 512.653 113.932 513.112 114.375 512.989L117.983 511.965C118.365 511.858 118.716 512.179 118.64 512.561L117.386 519.303C117.279 519.899 118.105 520.174 118.38 519.624L124.067 508.036C124.266 507.624 123.884 507.165 123.44 507.303L119.71 508.434C119.343 508.541 118.977 508.235 119.038 507.853L119.756 503.068C119.817 502.517 119.022 502.258 118.747 502.793Z" fill="#F7CE14"/>
<path d="M114.925 499.17C114.925 499.2 114.925 499.215 114.909 499.231C114.894 499.246 114.879 499.261 114.833 499.277C114.802 499.292 114.741 499.292 114.665 499.307C114.589 499.307 114.497 499.307 114.375 499.307C114.268 499.307 114.191 499.307 114.13 499.292C114.069 499.292 114.023 499.277 113.977 499.261C113.946 499.246 113.916 499.231 113.9 499.215C113.885 499.2 113.87 499.17 113.87 499.139L113.457 498.069C113.411 497.947 113.35 497.84 113.304 497.748C113.259 497.656 113.197 497.58 113.136 497.519C113.075 497.458 113.014 497.412 112.922 497.381C112.846 497.351 112.754 497.335 112.647 497.335H112.341L112.326 499.154C112.326 499.185 112.311 499.2 112.295 499.215C112.28 499.231 112.25 499.246 112.219 499.261C112.188 499.277 112.127 499.277 112.066 499.292C112.005 499.292 111.929 499.307 111.837 499.307C111.745 499.307 111.669 499.307 111.607 499.292C111.546 499.277 111.5 499.277 111.455 499.261C111.424 499.246 111.393 499.231 111.378 499.215C111.363 499.2 111.363 499.17 111.363 499.154L111.393 494.828C111.393 494.721 111.424 494.645 111.485 494.599C111.546 494.553 111.607 494.522 111.684 494.522L112.922 494.538C113.045 494.538 113.152 494.538 113.228 494.553C113.304 494.553 113.381 494.568 113.442 494.568C113.641 494.599 113.809 494.645 113.962 494.706C114.115 494.767 114.237 494.859 114.344 494.966C114.451 495.073 114.527 495.195 114.589 495.348C114.65 495.501 114.665 495.669 114.665 495.852C114.665 496.005 114.65 496.158 114.604 496.296C114.558 496.433 114.497 496.54 114.42 496.647C114.344 496.754 114.237 496.846 114.13 496.907C114.007 496.983 113.885 497.045 113.732 497.09C113.809 497.121 113.87 497.167 113.931 497.213C113.992 497.259 114.054 497.32 114.099 497.396C114.161 497.473 114.206 497.549 114.252 497.641C114.298 497.733 114.344 497.84 114.39 497.947L114.787 498.894C114.818 498.986 114.848 499.063 114.864 499.093C114.925 499.108 114.925 499.154 114.925 499.17ZM113.702 495.929C113.702 495.776 113.671 495.638 113.595 495.531C113.518 495.424 113.411 495.348 113.243 495.302C113.197 495.287 113.136 495.287 113.075 495.271C113.014 495.256 112.922 495.256 112.815 495.256H112.387L112.372 496.601H112.861C112.999 496.601 113.121 496.586 113.228 496.556C113.335 496.525 113.411 496.479 113.488 496.418C113.564 496.357 113.61 496.28 113.641 496.204C113.687 496.128 113.702 496.036 113.702 495.929Z" fill="white"/>
<path d="M118.471 498.94C118.471 499.017 118.471 499.078 118.456 499.124C118.44 499.169 118.44 499.215 118.425 499.246C118.41 499.276 118.395 499.292 118.379 499.307C118.364 499.323 118.334 499.323 118.318 499.323L115.918 499.307C115.842 499.307 115.765 499.277 115.719 499.231C115.674 499.185 115.643 499.108 115.643 499.001L115.674 494.843C115.674 494.736 115.704 494.66 115.765 494.614C115.826 494.568 115.888 494.537 115.964 494.537L118.349 494.553C118.364 494.553 118.395 494.553 118.41 494.568C118.425 494.583 118.44 494.599 118.456 494.629C118.471 494.66 118.471 494.706 118.486 494.751C118.486 494.797 118.502 494.859 118.502 494.935C118.502 495.012 118.502 495.057 118.486 495.103C118.486 495.149 118.471 495.195 118.456 495.225C118.44 495.256 118.425 495.271 118.41 495.287C118.395 495.302 118.379 495.302 118.349 495.302L116.652 495.287L116.636 496.448L118.074 496.464C118.089 496.464 118.12 496.464 118.135 496.479C118.15 496.494 118.165 496.51 118.181 496.54C118.196 496.571 118.196 496.601 118.211 496.647C118.211 496.693 118.227 496.754 118.227 496.815C118.227 496.892 118.227 496.953 118.211 496.999C118.211 497.044 118.196 497.075 118.181 497.106C118.165 497.136 118.15 497.152 118.135 497.167C118.12 497.182 118.089 497.182 118.074 497.182L116.621 497.198L116.606 498.543L118.318 498.558C118.334 498.558 118.364 498.558 118.379 498.573C118.395 498.589 118.41 498.604 118.425 498.635C118.44 498.665 118.44 498.696 118.456 498.757C118.471 498.818 118.471 498.879 118.471 498.94Z" fill="white"/>
<path d="M122.522 498.635C122.522 498.696 122.522 498.742 122.522 498.787C122.522 498.833 122.507 498.864 122.507 498.894C122.507 498.925 122.492 498.956 122.477 498.971C122.461 498.986 122.446 499.017 122.415 499.047C122.385 499.078 122.339 499.108 122.263 499.154C122.186 499.2 122.094 499.246 121.972 499.277C121.865 499.323 121.727 499.353 121.59 499.368C121.452 499.384 121.284 499.414 121.116 499.399C120.795 499.399 120.489 499.338 120.229 499.246C119.969 499.139 119.74 498.986 119.557 498.787C119.373 498.589 119.236 498.329 119.144 498.038C119.052 497.733 119.006 497.381 119.006 496.983C119.006 496.571 119.067 496.219 119.174 495.898C119.281 495.577 119.434 495.317 119.633 495.103C119.832 494.889 120.061 494.736 120.336 494.614C120.611 494.507 120.902 494.446 121.238 494.461C121.376 494.461 121.498 494.476 121.62 494.492C121.743 494.522 121.85 494.537 121.957 494.583C122.064 494.614 122.156 494.66 122.232 494.706C122.308 494.751 122.37 494.798 122.4 494.828C122.431 494.859 122.461 494.889 122.461 494.905C122.477 494.92 122.477 494.95 122.492 494.996C122.507 495.042 122.507 495.073 122.507 495.119C122.507 495.164 122.507 495.226 122.507 495.287C122.507 495.363 122.507 495.424 122.492 495.47C122.492 495.516 122.477 495.562 122.461 495.592C122.446 495.623 122.431 495.653 122.415 495.669C122.4 495.684 122.385 495.684 122.354 495.684C122.324 495.684 122.278 495.669 122.217 495.623C122.156 495.577 122.094 495.531 122.003 495.47C121.911 495.424 121.804 495.363 121.681 495.317C121.559 495.271 121.406 495.256 121.238 495.256C121.055 495.256 120.887 495.287 120.734 495.363C120.581 495.439 120.459 495.546 120.352 495.699C120.245 495.837 120.168 496.021 120.107 496.219C120.046 496.418 120.031 496.647 120.015 496.907C120.015 497.182 120.046 497.427 120.092 497.641C120.153 497.84 120.229 498.023 120.336 498.146C120.443 498.283 120.566 498.375 120.719 498.451C120.872 498.512 121.04 498.558 121.223 498.558C121.391 498.558 121.544 498.543 121.666 498.497C121.789 498.451 121.896 498.421 121.987 498.359C122.079 498.314 122.156 498.268 122.217 498.222C122.278 498.176 122.324 498.161 122.354 498.161C122.385 498.161 122.4 498.161 122.415 498.176C122.431 498.191 122.446 498.207 122.446 498.237C122.446 498.268 122.461 498.314 122.461 498.359C122.522 498.466 122.522 498.543 122.522 498.635Z" fill="white"/>
</g>
<defs>
<clipPath id="clip0">
<rect width="375" height="667" fill="white"/>
</clipPath>
</defs>
</svg>
