<svg width="1920" height="1080" viewBox="0 0 1920 1080" fill="none" xmlns="http://www.w3.org/2000/svg">
<path d="M798.5 405C800.985 405 803 402.985 803 400.5C803 398.015 800.985 396 798.5 396C796.015 396 794 398.015 794 400.5C794 402.985 796.015 405 798.5 405Z" fill="#FF0000"/>
<path d="M812.5 405C814.985 405 817 402.985 817 400.5C817 398.015 814.985 396 812.5 396C810.015 396 808 398.015 808 400.5C808 402.985 810.015 405 812.5 405Z" fill="#FF0000"/>
<path d="M954.5 506C956.985 506 959 503.985 959 501.5C959 499.015 956.985 497 954.5 497C952.015 497 950 499.015 950 501.5C950 503.985 952.015 506 954.5 506Z" fill="#FF0000"/>
<path d="M968.5 506C970.985 506 973 503.985 973 501.5C973 499.015 970.985 497 968.5 497C966.015 497 964 499.015 964 501.5C964 503.985 966.015 506 968.5 506Z" fill="#FF0000"/>
<path d="M1088.5 574C1090.99 574 1093 571.985 1093 569.5C1093 567.015 1090.99 565 1088.5 565C1086.01 565 1084 567.015 1084 569.5C1084 571.985 1086.01 574 1088.5 574Z" fill="#FF0000"/>
<path d="M1102.5 574C1104.99 574 1107 571.985 1107 569.5C1107 567.015 1104.99 565 1102.5 565C1100.01 565 1098 567.015 1098 569.5C1098 571.985 1100.01 574 1102.5 574Z" fill="#FF0000"/>
</svg>
