<svg width="1920" height="1080" viewBox="0 0 1920 1080" fill="none" xmlns="http://www.w3.org/2000/svg">
<g clip-path="url(#clip0)">
<path d="M1060.94 660.166C1060.3 660.276 1059.7 660.494 1059.38 660.822C1058.78 661.368 1058.78 663.225 1059.38 663.771C1059.7 664.098 1060.35 664.317 1061.05 664.426C1060.35 664.59 1059.7 664.808 1059.38 665.082C1058.78 665.573 1058.78 667.484 1059.38 668.031C1059.7 668.358 1060.35 668.522 1061.05 668.686C1060.35 668.795 1059.7 669.014 1059.38 669.341C1058.78 669.833 1058.78 671.744 1059.38 672.29C1059.81 672.673 1060.67 672.946 1061.59 673.055V674.42H1063.54V673.11C1064.56 673 1065.43 672.782 1065.81 672.345C1066.29 671.744 1066.29 669.997 1065.81 669.396C1065.54 669.068 1065 668.85 1064.35 668.741C1065 668.631 1065.54 668.413 1065.81 668.085C1066.29 667.484 1066.29 665.737 1065.81 665.136C1065.54 664.808 1065 664.59 1064.35 664.481C1065 664.372 1065.54 664.153 1065.81 663.825C1066.29 663.279 1066.29 661.477 1065.81 660.876C1065.48 660.549 1064.89 660.33 1064.19 660.166V658.146H1067.37V658.801H1075.53L1075.48 746.346L1053 834H1056.35L1057 831.488L1077.32 813.192L1094.88 832.908V834H1098.12V832.908L1115.68 813.192L1136 831.488L1136.65 834H1140L1117.57 746.291V658.746H1125.68V658.091H1128.87V660.166C1128.22 660.276 1127.63 660.494 1127.3 660.822C1126.71 661.368 1126.71 663.225 1127.3 663.771C1127.63 664.098 1128.27 664.317 1128.98 664.426C1128.27 664.59 1127.63 664.808 1127.3 665.082C1126.71 665.573 1126.71 667.484 1127.3 668.031C1127.63 668.358 1128.27 668.522 1128.98 668.686C1128.27 668.795 1127.63 669.014 1127.3 669.341C1126.71 669.833 1126.71 671.744 1127.3 672.29C1127.73 672.673 1128.6 672.946 1129.52 673.055V674.42H1131.46V673.11C1132.49 673 1133.35 672.782 1133.73 672.345C1134.22 671.744 1134.22 669.997 1133.73 669.396C1133.46 669.068 1132.92 668.85 1132.27 668.741C1132.92 668.631 1133.46 668.413 1133.73 668.085C1134.22 667.484 1134.22 665.737 1133.73 665.136C1133.46 664.808 1132.92 664.59 1132.27 664.481C1132.92 664.372 1133.46 664.153 1133.73 663.825C1134.22 663.279 1134.22 661.477 1133.73 660.876C1133.41 660.549 1132.81 660.33 1132.11 660.166V658.146H1135.3V656.18H1132.16V655.688H1131.52V654.596H1129.57V655.688H1128.92V656.18H1125.68V655.524H1117.57V635.918H1125.68V635.263H1128.87V637.338C1128.22 637.502 1127.63 637.666 1127.3 637.993C1126.71 638.54 1126.71 640.396 1127.3 640.942C1127.63 641.27 1128.27 641.489 1128.98 641.598C1128.27 641.707 1127.63 641.926 1127.3 642.253C1126.71 642.799 1126.71 644.656 1127.3 645.202C1127.63 645.53 1128.27 645.694 1128.98 645.858C1128.27 645.967 1127.63 646.185 1127.3 646.513C1126.71 647.005 1126.71 648.916 1127.3 649.462C1127.73 649.844 1128.6 650.117 1129.52 650.227V651.592H1131.46V650.227C1132.49 650.117 1133.35 649.899 1133.73 649.462C1134.22 648.861 1134.22 647.114 1133.73 646.513C1133.46 646.185 1132.92 645.967 1132.27 645.858C1132.92 645.694 1133.46 645.53 1133.73 645.202C1134.22 644.602 1134.22 642.854 1133.73 642.253C1133.46 641.926 1132.92 641.707 1132.27 641.598C1132.92 641.489 1133.46 641.27 1133.73 640.942C1134.22 640.396 1134.22 638.594 1133.73 637.993C1133.41 637.666 1132.81 637.447 1132.11 637.338V635.317H1135.3V633.351H1132.16V632.805H1131.52V631.713H1129.57V632.805H1128.92V633.297H1125.68V632.641H1117.57V625.596L1100.99 571.638H1098.18V570H1094.93V571.638H1092.12L1075.59 625.105V632.641H1067.43V633.297H1064.24V632.805H1063.59V631.713H1061.65V632.805H1061V633.297H1057.81V635.263H1061V637.338C1060.35 637.502 1059.75 637.666 1059.43 637.993C1058.84 638.54 1058.84 640.396 1059.43 640.942C1059.75 641.27 1060.4 641.489 1061.11 641.598C1060.4 641.707 1059.75 641.926 1059.43 642.253C1058.84 642.799 1058.84 644.656 1059.43 645.202C1059.75 645.53 1060.4 645.694 1061.11 645.858C1060.4 645.967 1059.75 646.185 1059.43 646.513C1058.84 647.005 1058.84 648.916 1059.43 649.462C1059.86 649.844 1060.73 650.117 1061.65 650.227V651.592H1063.59V650.227C1064.62 650.117 1065.48 649.899 1065.86 649.462C1066.35 648.861 1066.35 647.114 1065.86 646.513C1065.59 646.185 1065.05 645.967 1064.4 645.858C1065.05 645.694 1065.59 645.53 1065.86 645.202C1066.35 644.602 1066.35 642.854 1065.86 642.253C1065.59 641.926 1065.05 641.707 1064.4 641.598C1065.05 641.489 1065.59 641.27 1065.86 640.942C1066.35 640.396 1066.35 638.594 1065.86 637.993C1065.54 637.666 1064.94 637.447 1064.24 637.338V635.317H1067.43V635.973H1075.59V655.579H1067.43V656.234H1064.24V655.743H1063.59V654.65H1061.65V655.743H1061V656.234H1057.81V658.2H1061V660.166H1060.94ZM1135.19 827.993L1117.03 811.663L1127.84 799.484L1135.19 827.993ZM1126.54 794.242L1110.98 780.261L1120.28 769.83L1126.54 794.242ZM1119.2 765.57L1108.98 756.34L1115.09 749.513L1119.2 765.57ZM1113.9 725.265H1098.66L1106.28 717.565L1113.9 725.265ZM1107.63 716.145L1114.33 709.373V722.917L1107.63 716.145ZM1114.33 729.907V743.506L1107.63 736.734L1114.33 729.907ZM1112.98 728.542L1106.28 735.314L1099.58 728.542H1112.98ZM1112.98 744.871H1099.58L1106.28 738.099L1112.98 744.871ZM1113.68 748.148L1107.52 755.084L1099.85 748.148H1113.68ZM1114.33 703.42L1107.63 696.648L1114.33 689.876V703.42ZM1108.06 655.47L1114.39 649.08V655.47H1108.06ZM1114.33 658.746V662.679L1110.44 658.746H1114.33ZM1114.17 665.3H1098.34L1104.82 658.746H1107.74L1114.17 665.3ZM1113.36 668.577L1106.23 675.786L1099.09 668.577H1113.36ZM1114.33 670.379V683.923L1107.63 677.151L1114.33 670.379ZM1114.33 643.4L1107.63 636.628L1108.39 635.863H1114.33V643.4ZM1114.33 632.587H1111.63L1114.39 629.801V632.587H1114.33ZM1108.87 632.587H1103.69L1098.34 627.18H1114.28L1108.87 632.587ZM1100.5 623.903L1105.36 618.988L1111.31 623.903H1100.5ZM1113.58 623.302L1106.71 617.677L1110.6 613.745L1113.58 623.302ZM1108.98 608.448L1103.9 603.806L1106.6 600.747L1108.98 608.448ZM1102.77 588.405L1104.12 592.828L1102.01 589.988L1102.77 588.405ZM1098.18 574.915H1098.61L1101.9 585.619L1100.71 588.132L1098.12 584.582V574.915H1098.18ZM1098.18 587.913L1099.8 590.152L1098.18 593.593V587.913ZM1098.18 598.18L1101.09 591.954L1105.9 598.563L1102.44 602.495L1098.18 598.563V598.18ZM1098.18 601.184L1101.15 603.915L1098.18 607.246V601.184ZM1098.18 610.195L1102.61 605.225L1109.79 611.779L1105.25 616.367L1098.23 610.578V610.195H1098.18ZM1098.18 613.144L1103.8 617.787L1098.18 623.521V613.144ZM1098.18 629.856L1100.93 632.641H1098.18V629.856ZM1098.18 635.863H1104.12L1104.88 636.628L1098.18 643.4V635.863ZM1098.18 646.185L1106.28 637.993L1114.39 646.185V646.349L1106.28 654.541L1098.18 646.349V646.185ZM1098.18 649.134L1104.5 655.524H1098.18V649.134ZM1098.18 658.746H1102.07L1098.18 662.679V658.746ZM1098.18 670.379L1104.88 677.151L1098.18 683.923V670.379ZM1098.18 686.708L1106.28 678.516L1114.39 686.708V687.091L1106.28 695.283L1098.18 687.091V686.708ZM1098.18 689.876L1104.88 696.648L1098.18 703.42V689.876ZM1098.18 706.205L1106.28 698.013L1114.39 706.205V706.588L1106.28 714.779L1098.18 706.588V706.205ZM1098.18 709.373L1104.88 716.145L1098.18 722.917V709.373ZM1098.18 729.907L1104.88 736.679L1098.18 743.451V729.907ZM1098.18 749.24L1106.23 756.504L1098.18 765.515V749.24ZM1098.18 768.464L1107.69 757.815L1119.14 768.137L1109.52 778.895L1098.18 768.683V768.464ZM1098.18 771.304L1108.23 780.37L1098.18 791.675V771.304ZM1098.18 794.624L1109.69 781.681L1127.14 797.355L1115.63 810.298L1098.18 794.624ZM1098.18 797.3L1114.28 811.827L1098.18 829.904V797.3ZM1072.83 769.83L1082.13 780.261L1066.56 794.296L1072.83 769.83ZM1057.92 827.993L1065.27 799.484L1076.13 811.663L1057.92 827.993ZM1094.93 829.904L1078.83 811.827L1094.93 797.3V829.904ZM1094.93 794.624L1077.53 810.298L1066.02 797.355L1083.42 781.681L1094.93 794.624ZM1094.93 791.675L1084.88 780.37L1094.93 771.304V791.675ZM1094.93 768.683L1083.59 778.895L1073.97 768.137L1085.42 757.815L1094.93 768.464V768.683ZM1093.58 728.542L1086.88 735.314L1080.18 728.542H1093.58ZM1079.21 725.265L1086.83 717.565L1094.45 725.265H1079.21ZM1093.58 744.871H1080.13L1086.83 738.099L1093.58 744.871ZM1093.31 748.148L1085.64 755.084L1079.48 748.148H1093.31ZM1094.93 765.57L1086.88 756.559L1094.93 749.295V765.57ZM1094.93 743.451L1088.23 736.679L1094.93 729.907V743.451ZM1094.93 722.917L1088.23 716.145L1094.93 709.373V722.917ZM1094.93 703.42L1088.23 696.648L1094.93 689.876V703.42ZM1094.93 683.923L1088.23 677.151L1094.93 670.379V683.923ZM1093.96 668.577L1086.83 675.786L1079.75 668.577H1093.96ZM1078.94 665.3L1085.42 658.746H1088.34L1094.82 665.3H1078.94ZM1094.93 662.679L1091.04 658.746H1094.93V662.679ZM1094.93 655.47H1088.61L1094.93 649.08V655.47ZM1094.93 643.4L1088.23 636.628L1088.99 635.863H1094.99V643.4H1094.93ZM1094.93 632.587H1092.18L1094.93 629.801V632.587ZM1094.93 623.521L1089.31 617.841L1094.93 613.199V623.521ZM1092.61 623.903H1081.8L1087.75 618.988L1092.61 623.903ZM1094.93 607.246L1091.96 603.915L1094.93 601.184V607.246ZM1094.93 593.593L1093.31 590.098L1094.93 587.859V593.593ZM1094.5 574.915H1094.93V584.582L1092.34 588.132L1091.15 585.619L1094.5 574.915ZM1090.34 588.405L1091.04 589.934L1088.93 592.774L1090.34 588.405ZM1092.01 591.954L1094.93 598.18V598.563L1090.66 602.495L1087.21 598.563L1092.01 591.954ZM1086.56 600.747L1089.26 603.806L1084.18 608.448L1086.56 600.747ZM1090.56 605.225L1094.99 610.195V610.632L1087.96 616.421L1083.42 611.834L1090.56 605.225ZM1082.5 613.691L1086.4 617.623L1079.53 623.248L1082.5 613.691ZM1094.82 627.18L1089.48 632.587H1084.29L1078.94 627.18H1094.82ZM1078.78 629.856L1081.53 632.641H1078.78V629.856ZM1078.78 635.863H1084.77L1085.53 636.628L1078.83 643.4V635.863H1078.78ZM1078.78 646.185L1086.88 637.993L1094.99 646.185V646.349L1086.88 654.541L1078.78 646.349V646.185ZM1078.78 649.134L1085.1 655.524H1078.78V649.134ZM1078.78 658.746H1082.67L1078.78 662.679V658.746ZM1078.78 670.379L1085.48 677.151L1078.78 683.923V670.379ZM1078.78 686.708L1086.88 678.516L1094.99 686.708V687.091L1086.88 695.283L1078.78 687.091V686.708ZM1078.78 689.876L1085.48 696.648L1078.78 703.42V689.876ZM1078.78 706.205L1086.88 698.013L1094.99 706.205V706.588L1086.88 714.779L1078.78 706.588V706.205ZM1078.78 709.373L1085.48 716.145L1078.78 722.917V709.373ZM1078.78 729.907L1085.48 736.679L1078.78 743.451V729.907ZM1078.07 749.513L1084.18 756.34L1073.97 765.515L1078.07 749.513Z" fill="#A8E6E2"/>
<path d="M919.5 584C939.333 612 1001.1 649.4 1061.5 635" stroke="#928383" stroke-width="3" stroke-linecap="round"/>
<path d="M919 612C938.833 640 1001.1 670.9 1061.5 656.5" stroke="#928383" stroke-width="3" stroke-linecap="round"/>
<path d="M1007 585.5C1026.83 613.5 1069.6 649.4 1130 635" stroke="#CFA2A2" stroke-width="3" stroke-linecap="round"/>
<path d="M1005.5 614C1025.33 642 1069.1 672.4 1129.5 658" stroke="#CFA2A2" stroke-width="3" stroke-linecap="round"/>
<path d="M917.043 616.391C916.224 616.528 915.472 616.803 915.062 617.215C914.311 617.902 914.311 620.237 915.062 620.924C915.472 621.336 916.292 621.611 917.18 621.748C916.292 621.954 915.472 622.229 915.062 622.572C914.311 623.19 914.311 625.594 915.062 626.281C915.472 626.693 916.292 626.899 917.18 627.105C916.292 627.242 915.472 627.517 915.062 627.929C914.311 628.547 914.311 630.951 915.062 631.638C915.609 632.119 916.702 632.462 917.863 632.6V634.317H920.323V632.668C921.621 632.531 922.714 632.256 923.193 631.707C923.807 630.951 923.807 628.753 923.193 627.998C922.851 627.586 922.168 627.311 921.348 627.174C922.168 627.036 922.851 626.762 923.193 626.35C923.807 625.594 923.807 623.396 923.193 622.641C922.851 622.229 922.168 621.954 921.348 621.817C922.168 621.679 922.851 621.405 923.193 620.993C923.807 620.306 923.807 618.039 923.193 617.284C922.783 616.872 922.031 616.597 921.143 616.391V613.85H925.174V614.674H935.491L935.422 724.768L907 835H911.236L912.056 831.841L937.745 808.833L959.95 833.626V835H964.05V833.626L986.255 808.833L1011.94 831.841L1012.76 835H1017L988.646 724.7V614.605H998.894V613.781H1002.93V616.391C1002.11 616.528 1001.35 616.803 1000.94 617.215C1000.19 617.902 1000.19 620.237 1000.94 620.924C1001.35 621.336 1002.17 621.611 1003.06 621.748C1002.17 621.954 1001.35 622.229 1000.94 622.572C1000.19 623.19 1000.19 625.594 1000.94 626.281C1001.35 626.693 1002.17 626.899 1003.06 627.105C1002.17 627.242 1001.35 627.517 1000.94 627.929C1000.19 628.547 1000.19 630.951 1000.94 631.638C1001.49 632.119 1002.58 632.462 1003.75 632.6V634.317H1006.2V632.668C1007.5 632.531 1008.6 632.256 1009.07 631.707C1009.69 630.951 1009.69 628.753 1009.07 627.998C1008.73 627.586 1008.05 627.311 1007.23 627.174C1008.05 627.036 1008.73 626.762 1009.07 626.35C1009.69 625.594 1009.69 623.396 1009.07 622.641C1008.73 622.229 1008.05 621.954 1007.23 621.817C1008.05 621.679 1008.73 621.405 1009.07 620.993C1009.69 620.306 1009.69 618.039 1009.07 617.284C1008.66 616.872 1007.91 616.597 1007.02 616.391V613.85H1011.06V611.377H1007.09V610.759H1006.27V609.386H1003.81V610.759H1002.99V611.377H998.894V610.553H988.646V585.897H998.894V585.073H1002.93V587.683C1002.11 587.889 1001.35 588.095 1000.94 588.507C1000.19 589.194 1000.19 591.529 1000.94 592.216C1001.35 592.628 1002.17 592.902 1003.06 593.04C1002.17 593.177 1001.35 593.452 1000.94 593.864C1000.19 594.551 1000.19 596.886 1000.94 597.573C1001.35 597.985 1002.17 598.191 1003.06 598.397C1002.17 598.534 1001.35 598.809 1000.94 599.221C1000.19 599.839 1000.19 602.243 1000.94 602.93C1001.49 603.41 1002.58 603.754 1003.75 603.891V605.608H1006.2V603.891C1007.5 603.754 1008.6 603.479 1009.07 602.93C1009.69 602.174 1009.69 599.976 1009.07 599.221C1008.73 598.809 1008.05 598.534 1007.23 598.397C1008.05 598.191 1008.73 597.985 1009.07 597.573C1009.69 596.817 1009.69 594.619 1009.07 593.864C1008.73 593.452 1008.05 593.177 1007.23 593.04C1008.05 592.902 1008.73 592.628 1009.07 592.216C1009.69 591.529 1009.69 589.262 1009.07 588.507C1008.66 588.095 1007.91 587.82 1007.02 587.683V585.142H1011.06V582.669H1007.09V581.982H1006.27V580.609H1003.81V581.982H1002.99V582.6H998.894V581.776H988.646V572.916L967.671 505.06H964.118V503H960.019V505.06H956.466L935.559 572.298V581.776H925.242V582.6H921.211V581.982H920.391V580.609H917.932V581.982H917.112V582.6H913.081V585.073H917.112V587.683C916.292 587.889 915.54 588.095 915.13 588.507C914.379 589.194 914.379 591.529 915.13 592.216C915.54 592.628 916.36 592.902 917.248 593.04C916.36 593.177 915.54 593.452 915.13 593.864C914.379 594.551 914.379 596.886 915.13 597.573C915.54 597.985 916.36 598.191 917.248 598.397C916.36 598.534 915.54 598.809 915.13 599.221C914.379 599.839 914.379 602.243 915.13 602.93C915.677 603.41 916.77 603.754 917.932 603.891V605.608H920.391V603.891C921.689 603.754 922.783 603.479 923.261 602.93C923.876 602.174 923.876 599.976 923.261 599.221C922.919 598.809 922.236 598.534 921.416 598.397C922.236 598.191 922.919 597.985 923.261 597.573C923.876 596.817 923.876 594.619 923.261 593.864C922.919 593.452 922.236 593.177 921.416 593.04C922.236 592.902 922.919 592.628 923.261 592.216C923.876 591.529 923.876 589.262 923.261 588.507C922.851 588.095 922.099 587.82 921.211 587.683V585.142H925.242V585.966H935.559V610.622H925.242V611.446H921.211V610.828H920.391V609.454H917.932V610.828H917.112V611.446H913.081V613.918H917.112V616.391H917.043ZM1010.92 827.445L987.963 806.91L1001.63 791.594L1010.92 827.445ZM999.988 785.001L980.311 767.419L992.062 754.301L999.988 785.001ZM990.696 748.944L977.783 737.337L985.503 728.752L990.696 748.944ZM984 698.258H964.733L974.366 688.574L984 698.258ZM976.075 686.788L984.547 678.272V695.305L976.075 686.788ZM984.547 704.096V721.197L976.075 712.681L984.547 704.096ZM982.839 702.379L974.366 710.895L965.894 702.379H982.839ZM982.839 722.914H965.894L974.366 714.398L982.839 722.914ZM983.727 727.035L975.938 735.757L966.236 727.035H983.727ZM984.547 670.786L976.075 662.269L984.547 653.753V670.786ZM976.621 610.484L984.615 602.449V610.484H976.621ZM984.547 614.605V619.55L979.627 614.605H984.547ZM984.342 622.847H964.323L972.522 614.605H976.211L984.342 622.847ZM983.317 626.968L974.298 636.034L965.279 626.968H983.317ZM984.547 629.234V646.267L976.075 637.751L984.547 629.234ZM984.547 595.306L976.075 586.79L977.031 585.828H984.547V595.306ZM984.547 581.707H981.13L984.615 578.205V581.707H984.547ZM977.646 581.707H971.087L964.323 574.908H984.478L977.646 581.707ZM967.056 570.787L973.205 564.606L980.72 570.787H967.056ZM983.59 570.032L974.913 562.958L979.832 558.013L983.59 570.032ZM977.783 551.351L971.36 545.513L974.776 541.667L977.783 551.351ZM969.925 526.145L971.634 531.708L968.969 528.137L969.925 526.145ZM964.118 509.181H964.665L968.832 522.643L967.329 525.802L964.05 521.338V509.181H964.118ZM964.118 525.527L966.168 528.343L964.118 532.67V525.527ZM964.118 538.439L967.807 530.609L973.888 538.92L969.516 543.865L964.118 538.92V538.439ZM964.118 542.216L967.876 545.65L964.118 549.84V542.216ZM964.118 553.549L969.72 547.299L978.807 555.54L973.068 561.309L964.186 554.029V553.549H964.118ZM964.118 557.257L971.224 563.095L964.118 570.307V557.257ZM964.118 578.273L967.602 581.776H964.118V578.273ZM964.118 585.828H971.634L972.59 586.79L964.118 595.306V585.828ZM964.118 598.809L974.366 588.507L984.615 598.809V599.015L974.366 609.317L964.118 599.015V598.809ZM964.118 602.518L972.112 610.553H964.118V602.518ZM964.118 614.605H969.037L964.118 619.55V614.605ZM964.118 629.234L972.59 637.751L964.118 646.267V629.234ZM964.118 649.77L974.366 639.468L984.615 649.77V650.25L974.366 660.552L964.118 650.25V649.77ZM964.118 653.753L972.59 662.269L964.118 670.786V653.753ZM964.118 674.288L974.366 663.986L984.615 674.288V674.769L974.366 685.071L964.118 674.769V674.288ZM964.118 678.272L972.59 686.788L964.118 695.305V678.272ZM964.118 704.096L972.59 712.612L964.118 721.128V704.096ZM964.118 728.408L974.298 737.543L964.118 748.875V728.408ZM964.118 752.584L976.143 739.191L990.627 752.172L978.466 765.702L964.118 752.859V752.584ZM964.118 756.155L976.826 767.556L964.118 781.773V756.155ZM964.118 785.482L978.671 769.204L1000.74 788.916L986.186 805.193L964.118 785.482ZM964.118 788.847L984.478 807.116L964.118 829.849V788.847ZM932.075 754.301L943.826 767.419L924.149 785.07L932.075 754.301ZM913.217 827.445L922.509 791.594L936.242 806.91L913.217 827.445ZM960.019 829.849L939.658 807.116L960.019 788.847V829.849ZM960.019 785.482L938.019 805.193L923.466 788.916L945.466 769.204L960.019 785.482ZM960.019 781.773L947.311 767.556L960.019 756.155V781.773ZM960.019 752.859L945.671 765.702L933.509 752.172L947.994 739.191L960.019 752.584V752.859ZM958.311 702.379L949.839 710.895L941.366 702.379H958.311ZM940.137 698.258L949.77 688.574L959.404 698.258H940.137ZM958.311 722.914H941.298L949.77 714.398L958.311 722.914ZM957.969 727.035L948.267 735.757L940.478 727.035H957.969ZM960.019 748.944L949.839 737.612L960.019 728.477V748.944ZM960.019 721.128L951.547 712.612L960.019 704.096V721.128ZM960.019 695.305L951.547 686.788L960.019 678.272V695.305ZM960.019 670.786L951.547 662.269L960.019 653.753V670.786ZM960.019 646.267L951.547 637.751L960.019 629.234V646.267ZM958.789 626.968L949.77 636.034L940.82 626.968H958.789ZM939.795 622.847L947.994 614.605H951.683L959.882 622.847H939.795ZM960.019 619.55L955.099 614.605H960.019V619.55ZM960.019 610.484H952.025L960.019 602.449V610.484ZM960.019 595.306L951.547 586.79L952.503 585.828H960.087V595.306H960.019ZM960.019 581.707H956.534L960.019 578.205V581.707ZM960.019 570.307L952.913 563.164L960.019 557.326V570.307ZM957.081 570.787H943.416L950.932 564.606L957.081 570.787ZM960.019 549.84L956.261 545.65L960.019 542.216V549.84ZM960.019 532.67L957.969 528.274L960.019 525.458V532.67ZM959.472 509.181H960.019V521.338L956.739 525.802L955.236 522.643L959.472 509.181ZM954.211 526.145L955.099 528.068L952.435 531.64L954.211 526.145ZM956.329 530.609L960.019 538.439V538.92L954.621 543.865L950.248 538.92L956.329 530.609ZM949.429 541.667L952.845 545.513L946.422 551.351L949.429 541.667ZM954.484 547.299L960.087 553.549V554.098L951.205 561.378L945.466 555.609L954.484 547.299ZM944.304 557.944L949.224 562.889L940.547 569.963L944.304 557.944ZM959.882 574.908L953.118 581.707H946.559L939.795 574.908H959.882ZM939.59 578.273L943.075 581.776H939.59V578.273ZM939.59 585.828H947.174L948.13 586.79L939.658 595.306V585.828H939.59ZM939.59 598.809L949.839 588.507L960.087 598.809V599.015L949.839 609.317L939.59 599.015V598.809ZM939.59 602.518L947.584 610.553H939.59V602.518ZM939.59 614.605H944.509L939.59 619.55V614.605ZM939.59 629.234L948.062 637.751L939.59 646.267V629.234ZM939.59 649.77L949.839 639.468L960.087 649.77V650.25L949.839 660.552L939.59 650.25V649.77ZM939.59 653.753L948.062 662.269L939.59 670.786V653.753ZM939.59 674.288L949.839 663.986L960.087 674.288V674.769L949.839 685.071L939.59 674.769V674.288ZM939.59 678.272L948.062 686.788L939.59 695.305V678.272ZM939.59 704.096L948.062 712.612L939.59 721.128V704.096ZM938.702 728.752L946.422 737.337L933.509 748.875L938.702 728.752Z" fill="#EBFFFE"/>
<path d="M742 519.5C761.833 547.5 857.1 598.9 917.5 584.5" stroke="#928383" stroke-width="3" stroke-linecap="round"/>
<path d="M742.5 561C762.333 589 858.1 627.4 918.5 613" stroke="#928383" stroke-width="3" stroke-linecap="round"/>
<path d="M870 519.5C889.833 547.5 944.6 599.9 1005 585.5" stroke="#CFA2A2" stroke-width="3" stroke-linecap="round"/>
<path d="M868 561C887.833 589 944.6 627.4 1005 613" stroke="#CFA2A2" stroke-width="3" stroke-linecap="round"/>
<path d="M739.6 567.1C738.4 567.3 737.3 567.7 736.7 568.3C735.6 569.3 735.6 572.7 736.7 573.7C737.3 574.3 738.5 574.7 739.8 574.9C738.5 575.2 737.3 575.6 736.7 576.1C735.6 577 735.6 580.5 736.7 581.5C737.3 582.1 738.5 582.4 739.8 582.7C738.5 582.9 737.3 583.3 736.7 583.9C735.6 584.8 735.6 588.3 736.7 589.3C737.5 590 739.1 590.5 740.8 590.7V593.2H744.4V590.8C746.3 590.6 747.9 590.2 748.6 589.4C749.5 588.3 749.5 585.1 748.6 584C748.1 583.4 747.1 583 745.9 582.8C747.1 582.6 748.1 582.2 748.6 581.6C749.5 580.5 749.5 577.3 748.6 576.2C748.1 575.6 747.1 575.2 745.9 575C747.1 574.8 748.1 574.4 748.6 573.8C749.5 572.8 749.5 569.5 748.6 568.4C748 567.8 746.9 567.4 745.6 567.1V563.4H751.5V564.6H766.6L766.5 724.9L725 885.3H731.2L732.4 880.7L770 847.1L802.5 883.2V885.2H808.5V883.2L841 847.1L878.6 880.6L879.8 885.2H886L844.4 724.7V564.5H859.4V563.3H865.3V567.1C864.1 567.3 863 567.7 862.4 568.3C861.3 569.3 861.3 572.7 862.4 573.7C863 574.3 864.2 574.7 865.5 574.9C864.2 575.2 863 575.6 862.4 576.1C861.3 577 861.3 580.5 862.4 581.5C863 582.1 864.2 582.4 865.5 582.7C864.2 582.9 863 583.3 862.4 583.9C861.3 584.8 861.3 588.3 862.4 589.3C863.2 590 864.8 590.5 866.5 590.7V593.2H870.1V590.8C872 590.6 873.6 590.2 874.3 589.4C875.2 588.3 875.2 585.1 874.3 584C873.8 583.4 872.8 583 871.6 582.8C872.8 582.6 873.8 582.2 874.3 581.6C875.2 580.5 875.2 577.3 874.3 576.2C873.8 575.6 872.8 575.2 871.6 575C872.8 574.8 873.8 574.4 874.3 573.8C875.2 572.8 875.2 569.5 874.3 568.4C873.7 567.8 872.6 567.4 871.3 567.1V563.4H877.2V559.8H871.3V558.9H870.1V556.9H866.5V558.9H865.3V559.8H859.4V558.6H844.4V522.7H859.4V521.5H865.3V525.3C864.1 525.6 863 525.9 862.4 526.5C861.3 527.5 861.3 530.9 862.4 531.9C863 532.5 864.2 532.9 865.5 533.1C864.2 533.3 863 533.7 862.4 534.3C861.3 535.3 861.3 538.7 862.4 539.7C863 540.3 864.2 540.6 865.5 540.9C864.2 541.1 863 541.5 862.4 542.1C861.3 543 861.3 546.5 862.4 547.5C863.2 548.2 864.8 548.7 866.5 548.9V551.4H870.1V548.9C872 548.7 873.6 548.3 874.3 547.5C875.2 546.4 875.2 543.2 874.3 542.1C873.8 541.5 872.8 541.1 871.6 540.9C872.8 540.6 873.8 540.3 874.3 539.7C875.2 538.6 875.2 535.4 874.3 534.3C873.8 533.7 872.8 533.3 871.6 533.1C872.8 532.9 873.8 532.5 874.3 531.9C875.2 530.9 875.2 527.6 874.3 526.5C873.7 525.9 872.6 525.5 871.3 525.3V521.6H877.2V518H871.3V517H870.1V515H866.5V517H865.3V517.9H859.4V516.7H844.4V503.8L813.7 405H808.5V402H802.5V405H797.3L766.7 502.9V516.7H751.6V517.9H745.7V517H744.5V515H740.9V517H739.7V517.9H733.7V521.5H739.6V525.3C738.4 525.6 737.3 525.9 736.7 526.5C735.6 527.5 735.6 530.9 736.7 531.9C737.3 532.5 738.5 532.9 739.8 533.1C738.5 533.3 737.3 533.7 736.7 534.3C735.6 535.3 735.6 538.7 736.7 539.7C737.3 540.3 738.5 540.6 739.8 540.9C738.5 541.1 737.3 541.5 736.7 542.1C735.6 543 735.6 546.5 736.7 547.5C737.5 548.2 739.1 548.7 740.8 548.9V551.4H744.4V548.9C746.3 548.7 747.9 548.3 748.6 547.5C749.5 546.4 749.5 543.2 748.6 542.1C748.1 541.5 747.1 541.1 745.9 540.9C747.1 540.6 748.1 540.3 748.6 539.7C749.5 538.6 749.5 535.4 748.6 534.3C748.1 533.7 747.1 533.3 745.9 533.1C747.1 532.9 748.1 532.5 748.6 531.9C749.5 530.9 749.5 527.6 748.6 526.5C748 525.9 746.9 525.5 745.6 525.3V521.6H751.5V522.8H766.6V558.7H751.6V559.9H745.7V559H744.5V557H740.9V559H739.7V559.9H733.7V563.5H739.6V567.1ZM877 874.4L843.4 844.5L863.4 822.2L877 874.4ZM861 812.6L832.2 787L849.4 767.9L861 812.6ZM847.4 760.1L828.5 743.2L839.8 730.7L847.4 760.1ZM837.6 686.3H809.3L823.4 672.2L837.6 686.3ZM826 669.6L838.4 657.2V682L826 669.6ZM838.4 694.8V719.7L826 707.2L838.4 694.8ZM835.9 692.3L823.5 704.7L811 692.3H835.9ZM835.9 722.2H811L823.4 709.8L835.9 722.2ZM837.2 728.2L825.8 740.9L811.6 728.2H837.2ZM838.4 646.3L826 633.9L838.4 621.5V646.3ZM826.7 558.5L838.4 546.8V558.5H826.7ZM838.4 564.5V571.7L831.2 564.5H838.4ZM838.1 576.5H808.8L820.8 564.5H826.2L838.1 576.5ZM836.6 582.5L823.4 595.7L810.2 582.5H836.6ZM838.4 585.8V610.6L826 598.2L838.4 585.8ZM838.4 536.4L826 524L827.4 522.6H838.5V536.4H838.4ZM838.4 516.6H833.3L838.4 511.5V516.6ZM828.3 516.6H818.7L808.8 506.7H838.3L828.3 516.6ZM812.8 500.7L821.8 491.7L832.8 500.7H812.8ZM837 499.6L824.3 489.2L831.5 482L837 499.6ZM828.5 472.4L819 463.9L824 458.3L828.5 472.4ZM817 435.7L819.5 443.8L815.6 438.6L817 435.7ZM808.5 411H809.3L815.4 430.6L813.2 435.2L808.4 428.7V411H808.5ZM808.5 434.8L811.5 438.9L808.5 445.2V434.8ZM808.5 453.6L813.9 442.2L822.8 454.3L816.4 461.5L808.5 454.3V453.6ZM808.5 459.1L814 464.1L808.5 470.2V459.1ZM808.5 475.6L816.7 466.5L830 478.5L821.6 486.9L808.6 476.3V475.6H808.5ZM808.5 481L818.9 489.5L808.5 500V481ZM808.5 511.6L813.6 516.7H808.5V511.6ZM808.5 522.6H819.5L820.9 524L808.5 536.4V522.6ZM808.5 541.5L823.5 526.5L838.5 541.5V541.8L823.5 556.8L808.5 541.8V541.5ZM808.5 546.9L820.2 558.6H808.5V546.9ZM808.5 564.5H815.7L808.5 571.7V564.5ZM808.5 585.8L820.9 598.2L808.5 610.6V585.8ZM808.5 615.7L823.5 600.7L838.5 615.7V616.4L823.5 631.4L808.5 616.4V615.7ZM808.5 621.5L820.9 633.9L808.5 646.3V621.5ZM808.5 651.4L823.5 636.4L838.5 651.4V652.1L823.5 667.1L808.5 652.1V651.4ZM808.5 657.2L820.9 669.6L808.5 682V657.2ZM808.5 694.8L820.9 707.2L808.5 719.6V694.8ZM808.5 730.2L823.4 743.5L808.5 760V730.2ZM808.5 765.4L826.1 745.9L847.3 764.8L829.5 784.5L808.5 765.8V765.4ZM808.5 770.6L827.1 787.2L808.5 807.9V770.6ZM808.5 813.3L829.8 789.6L862.1 818.3L840.8 842L808.5 813.3ZM808.5 818.2L838.3 844.8L808.5 877.9V818.2ZM761.6 767.9L778.8 787L750 812.6L761.6 767.9ZM734 874.4L747.6 822.2L767.7 844.5L734 874.4ZM802.5 877.9L772.7 844.8L802.5 818.2V877.9ZM802.5 813.3L770.3 842L749 818.3L781.2 789.6L802.5 813.3ZM802.5 807.9L783.9 787.2L802.5 770.6V807.9ZM802.5 765.8L781.5 784.5L763.7 764.8L784.9 745.9L802.5 765.4V765.8ZM800 692.3L787.6 704.7L775.2 692.3H800ZM773.4 686.3L787.5 672.2L801.6 686.3H773.4ZM800 722.2H775.1L787.5 709.8L800 722.2ZM799.4 728.2L785.2 740.9L773.8 728.2H799.4ZM802.5 760.1L787.6 743.6L802.5 730.3V760.1ZM802.5 719.6L790.1 707.2L802.5 694.8V719.6ZM802.5 682L790.1 669.6L802.5 657.2V682ZM802.5 646.3L790.1 633.9L802.5 621.5V646.3ZM802.5 610.6L790.1 598.2L802.5 585.8V610.6ZM800.7 582.5L787.5 595.7L774.3 582.5H800.7ZM772.9 576.5L784.9 564.5H790.3L802.3 576.5H772.9ZM802.5 571.7L795.3 564.5H802.5V571.7ZM802.5 558.5H790.8L802.5 546.8V558.5ZM802.5 536.4L790.1 524L791.5 522.6H802.6V536.4H802.5ZM802.5 516.6H797.4L802.5 511.5V516.6ZM802.5 500L792.1 489.5L802.5 481V500ZM798.2 500.7H778.2L789.2 491.7L798.2 500.7ZM802.5 470.2L797 464.1L802.5 459.1V470.2ZM802.5 445.2L799.5 438.8L802.5 434.7V445.2ZM801.7 411H802.5V428.7L797.7 435.2L795.5 430.6L801.7 411ZM794 435.7L795.3 438.5L791.4 443.7L794 435.7ZM797.1 442.2L802.5 453.6V454.3L794.6 461.5L788.2 454.3L797.1 442.2ZM786.9 458.3L791.9 463.9L782.5 472.4L786.9 458.3ZM794.3 466.5L802.5 475.6V476.4L789.5 487L781.1 478.6L794.3 466.5ZM779.5 482L786.7 489.2L774 499.5L779.5 482ZM802.3 506.7L792.4 516.6H782.8L772.9 506.7H802.3ZM772.6 511.6L777.7 516.7H772.6V511.6ZM772.6 522.6H783.7L785 524L772.6 536.4V522.6ZM772.6 541.5L787.6 526.5L802.6 541.5V541.8L787.6 556.8L772.6 541.8V541.5V541.5ZM772.6 546.9L784.3 558.6H772.6V546.9ZM772.6 564.5H779.8L772.6 571.7V564.5ZM772.6 585.8L785 598.2L772.6 610.6V585.8ZM772.6 615.7L787.6 600.7L802.6 615.7V616.4L787.6 631.4L772.6 616.4V615.7V615.7ZM772.6 621.5L785 633.9L772.6 646.3V621.5ZM772.6 651.4L787.6 636.4L802.6 651.4V652.1L787.6 667.1L772.6 652.1V651.4V651.4ZM772.6 657.2L785 669.6L772.6 682V657.2ZM772.6 694.8L785 707.2L772.6 719.6V694.8ZM771.2 730.7L782.5 743.2L763.6 760L771.2 730.7Z" fill="white"/>
<circle cx="798.5" cy="400.5" r="4.5" fill="#FF0000"/>
<circle cx="812.5" cy="400.5" r="4.5" fill="#FF0000"/>
<circle cx="954.5" cy="501.5" r="4.5" fill="#FF0000"/>
<circle cx="968.5" cy="501.5" r="4.5" fill="#FF0000"/>
<circle cx="1088.5" cy="569.5" r="4.5" fill="#FF0000"/>
<circle cx="1102.5" cy="569.5" r="4.5" fill="#FF0000"/>
</g>
<defs>
<clipPath id="clip0">
<rect width="1920" height="1080" fill="white"/>
</clipPath>
</defs>
</svg>
