<svg width="84" height="163" viewBox="0 0 84 163" fill="none" xmlns="http://www.w3.org/2000/svg">
<g clip-path="url(#clip0)">
<path d="M44.014 153.281L45.178 3.78197C45.178 3.78197 47.216 -0.0719759 48.38 0.00102411C49.544 0.00102411 51.4351 3.78197 51.4351 3.78197V153.281L49.689 154.662H45.688L44.014 153.281Z" fill="white"/>
<path d="M10.7671 155.898L11.5671 51.991C11.5671 51.991 12.9501 49.301 13.8231 49.301C14.6231 49.301 15.9321 51.991 15.9321 51.991V155.898L14.7681 156.844H12.0041L10.7671 155.898Z" fill="white"/>
<path d="M71.8051 157.862L72.3151 86.9659C72.3151 86.9659 73.261 85.1479 73.843 85.1479C74.352 85.1479 75.298 86.9659 75.298 86.9659V157.862L74.497 158.516H72.606L71.8051 157.862Z" fill="white"/>
</g>
<defs>
<clipPath id="clip0">
<rect width="84" height="163" fill="white"/>
</clipPath>
</defs>
</svg>
