<svg width="288" height="296" viewBox="0 0 288 296" fill="none" xmlns="http://www.w3.org/2000/svg">
<g clip-path="url(#clip0)">
<path d="M128.441 129.698L136.16 135.548C138.987 134.46 142.004 134.452 144.859 135.438L152.45 129.417L141.49 15.7444L136.452 15.9117L128.441 129.698Z" fill="white"/>
<path d="M130.987 168.277L132.033 158.759C129.707 156.839 128.192 154.229 127.591 151.28L118.746 147.621L28.8898 212.155L31.549 216.437L130.987 168.277Z" fill="white"/>
<path d="M163.523 145.909L154.597 149.67C154.126 152.661 152.624 155.279 150.343 157.258L151.762 166.842L255.685 214.187L258.059 209.741L163.523 145.909Z" fill="white"/>
<circle cx="141.26" cy="147.901" r="7.06611" transform="rotate(15 141.26 147.901)" fill="#F4FF76"/>
<path d="M137.444 134.325C145.027 132.293 152.721 136.738 154.754 144.326C156.787 151.913 152.346 159.609 144.763 161.641C137.179 163.673 129.486 159.229 127.452 151.641C125.46 144.205 129.86 136.357 137.444 134.325Z" fill="white"/>
</g>
<defs>
<clipPath id="clip0">
<rect width="288" height="296" fill="white" transform="translate(288 296) rotate(-180)"/>
</clipPath>
</defs>
</svg>
