<svg width="84" height="163" viewBox="0 0 84 163" fill="none" xmlns="http://www.w3.org/2000/svg">
<path d="M44.014 153.281L45.178 3.78197C45.178 3.78197 47.216 -0.0719759 48.38 0.00102411C49.544 0.00102411 51.4351 3.78197 51.4351 3.78197V153.281L49.689 154.662H45.688L44.014 153.281Z" fill="white"/>
<path d="M68.0951 162.079H28.5181L33.4651 153.281H63.2211L68.0951 162.079Z" fill="white"/>
<path d="M53.3271 153.79C53.3271 155.244 50.8531 156.407 47.7971 156.407C44.7421 156.407 42.2681 155.244 42.2681 153.79C42.2681 152.335 44.7421 151.172 47.7971 151.172C50.8531 151.172 53.3271 152.335 53.3271 153.79Z" fill="white"/>
<path d="M10.7671 155.898L11.5671 51.991C11.5671 51.991 12.9501 49.301 13.8231 49.301C14.6231 49.301 15.9321 51.991 15.9321 51.991V155.898L14.7681 156.844H12.0041L10.7671 155.898Z" fill="white"/>
<path d="M27.5 162.079H0L3.41895 155.971H24.081L27.5 162.079Z" fill="white"/>
<path d="M17.2421 156.262C17.2421 157.28 15.496 158.08 13.386 158.08C11.276 158.08 9.53003 157.28 9.53003 156.262C9.53003 155.244 11.276 154.444 13.386 154.444C15.496 154.517 17.2421 155.317 17.2421 156.262Z" fill="white"/>
<path d="M71.8051 157.862L72.3151 86.9659C72.3151 86.9659 73.261 85.1479 73.843 85.1479C74.352 85.1479 75.298 86.9659 75.298 86.9659V157.862L74.497 158.516H72.606L71.8051 157.862Z" fill="white"/>
<path d="M83.155 162.079H64.458L66.713 157.934H80.827L83.155 162.079Z" fill="white"/>
<path d="M76.171 158.152C76.171 158.807 75.007 159.389 73.551 159.389C72.096 159.389 70.932 158.88 70.932 158.152C70.932 157.498 72.096 156.916 73.551 156.916C75.007 156.916 76.171 157.425 76.171 158.152Z" fill="white"/>
</svg>
